ISO-10303-21;
HEADER;
FILE_DESCRIPTION(('FreeCAD Model'),'2;1');
FILE_NAME('Open CASCADE Shape Model','2026-02-22T22:49:53',(''),(''),
  'Open CASCADE STEP processor 7.7','FreeCAD','Unknown');
FILE_SCHEMA(('AUTOMOTIVE_DESIGN { 1 0 10303 214 1 1 1 1 }'));
ENDSEC;
DATA;
#1 = APPLICATION_PROTOCOL_DEFINITION('international standard',
  'automotive_design',2000,#2);
#2 = APPLICATION_CONTEXT(
  'core data for automotive mechanical design processes');
#3 = SHAPE_DEFINITION_REPRESENTATION(#4,#10);
#4 = PRODUCT_DEFINITION_SHAPE('','',#5);
#5 = PRODUCT_DEFINITION('design','',#6,#9);
#6 = PRODUCT_DEFINITION_FORMATION('','',#7);
#7 = PRODUCT('FET_PLATE','FET_PLATE','',(#8));
#8 = PRODUCT_CONTEXT('',#2,'mechanical');
#9 = PRODUCT_DEFINITION_CONTEXT('part definition',#2,'design');
#10 = ADVANCED_BREP_SHAPE_REPRESENTATION('',(#11,#15),#697);
#11 = AXIS2_PLACEMENT_3D('',#12,#13,#14);
#12 = CARTESIAN_POINT('',(0.,0.,0.));
#13 = DIRECTION('',(0.,0.,1.));
#14 = DIRECTION('',(1.,0.,-0.));
#15 = MANIFOLD_SOLID_BREP('',#16);
#16 = CLOSED_SHELL('',(#17,#57,#90,#121,#152,#185,#210,#235,#266,#325,
    #342,#401,#418,#449,#466,#483,#516,#533,#550,#575,#592,#609,#626,
    #651,#668,#685));
#17 = ADVANCED_FACE('',(#18),#52,.F.);
#18 = FACE_BOUND('',#19,.F.);
#19 = EDGE_LOOP('',(#20,#30,#38,#46));
#20 = ORIENTED_EDGE('',*,*,#21,.F.);
#21 = EDGE_CURVE('',#22,#24,#26,.T.);
#22 = VERTEX_POINT('',#23);
#23 = CARTESIAN_POINT('',(0.,1.,0.1));
#24 = VERTEX_POINT('',#25);
#25 = CARTESIAN_POINT('',(0.,1.,0.71));
#26 = LINE('',#27,#28);
#27 = CARTESIAN_POINT('',(-2.2E-16,1.,0.));
#28 = VECTOR('',#29,1.);
#29 = DIRECTION('',(0.,0.,1.));
#30 = ORIENTED_EDGE('',*,*,#31,.T.);
#31 = EDGE_CURVE('',#22,#32,#34,.T.);
#32 = VERTEX_POINT('',#33);
#33 = CARTESIAN_POINT('',(0.,12.8,0.1));
#34 = LINE('',#35,#36);
#35 = CARTESIAN_POINT('',(0.,1.,0.1));
#36 = VECTOR('',#37,1.);
#37 = DIRECTION('',(0.,1.,0.));
#38 = ORIENTED_EDGE('',*,*,#39,.T.);
#39 = EDGE_CURVE('',#32,#40,#42,.T.);
#40 = VERTEX_POINT('',#41);
#41 = CARTESIAN_POINT('',(0.,12.8,0.71));
#42 = LINE('',#43,#44);
#43 = CARTESIAN_POINT('',(-2.2E-16,12.8,0.));
#44 = VECTOR('',#45,1.);
#45 = DIRECTION('',(0.,0.,1.));
#46 = ORIENTED_EDGE('',*,*,#47,.F.);
#47 = EDGE_CURVE('',#24,#40,#48,.T.);
#48 = LINE('',#49,#50);
#49 = CARTESIAN_POINT('',(0.,1.,0.71));
#50 = VECTOR('',#51,1.);
#51 = DIRECTION('',(0.,1.,0.));
#52 = PLANE('',#53);
#53 = AXIS2_PLACEMENT_3D('',#54,#55,#56);
#54 = CARTESIAN_POINT('',(0.,0.,0.));
#55 = DIRECTION('',(1.,0.,0.));
#56 = DIRECTION('',(0.,0.,1.));
#57 = ADVANCED_FACE('',(#58),#85,.T.);
#58 = FACE_BOUND('',#59,.T.);
#59 = EDGE_LOOP('',(#60,#61,#70,#78));
#60 = ORIENTED_EDGE('',*,*,#21,.F.);
#61 = ORIENTED_EDGE('',*,*,#62,.F.);
#62 = EDGE_CURVE('',#63,#22,#65,.T.);
#63 = VERTEX_POINT('',#64);
#64 = CARTESIAN_POINT('',(1.,0.,0.1));
#65 = CIRCLE('',#66,1.);
#66 = AXIS2_PLACEMENT_3D('',#67,#68,#69);
#67 = CARTESIAN_POINT('',(1.,1.,0.1));
#68 = DIRECTION('',(-0.,0.,-1.));
#69 = DIRECTION('',(-2.2E-16,-1.,0.));
#70 = ORIENTED_EDGE('',*,*,#71,.T.);
#71 = EDGE_CURVE('',#63,#72,#74,.T.);
#72 = VERTEX_POINT('',#73);
#73 = CARTESIAN_POINT('',(1.,0.,0.71));
#74 = LINE('',#75,#76);
#75 = CARTESIAN_POINT('',(1.,-2.2E-16,0.));
#76 = VECTOR('',#77,1.);
#77 = DIRECTION('',(0.,0.,1.));
#78 = ORIENTED_EDGE('',*,*,#79,.T.);
#79 = EDGE_CURVE('',#72,#24,#80,.T.);
#80 = CIRCLE('',#81,1.);
#81 = AXIS2_PLACEMENT_3D('',#82,#83,#84);
#82 = CARTESIAN_POINT('',(1.,1.,0.71));
#83 = DIRECTION('',(-0.,0.,-1.));
#84 = DIRECTION('',(-2.2E-16,-1.,0.));
#85 = CYLINDRICAL_SURFACE('',#86,1.);
#86 = AXIS2_PLACEMENT_3D('',#87,#88,#89);
#87 = CARTESIAN_POINT('',(1.,1.,0.));
#88 = DIRECTION('',(0.,0.,1.));
#89 = DIRECTION('',(-1.,0.,0.));
#90 = ADVANCED_FACE('',(#91),#116,.T.);
#91 = FACE_BOUND('',#92,.T.);
#92 = EDGE_LOOP('',(#93,#101,#102,#110));
#93 = ORIENTED_EDGE('',*,*,#94,.F.);
#94 = EDGE_CURVE('',#22,#95,#97,.T.);
#95 = VERTEX_POINT('',#96);
#96 = CARTESIAN_POINT('',(0.1,1.,0.));
#97 = LINE('',#98,#99);
#98 = CARTESIAN_POINT('',(5.E-02,1.,5.E-02));
#99 = VECTOR('',#100,1.);
#100 = DIRECTION('',(0.707106781187,0.,-0.707106781187));
#101 = ORIENTED_EDGE('',*,*,#31,.T.);
#102 = ORIENTED_EDGE('',*,*,#103,.T.);
#103 = EDGE_CURVE('',#32,#104,#106,.T.);
#104 = VERTEX_POINT('',#105);
#105 = CARTESIAN_POINT('',(0.1,12.8,0.));
#106 = LINE('',#107,#108);
#107 = CARTESIAN_POINT('',(5.E-02,12.8,5.E-02));
#108 = VECTOR('',#109,1.);
#109 = DIRECTION('',(0.707106781187,0.,-0.707106781187));
#110 = ORIENTED_EDGE('',*,*,#111,.F.);
#111 = EDGE_CURVE('',#95,#104,#112,.T.);
#112 = LINE('',#113,#114);
#113 = CARTESIAN_POINT('',(0.1,1.,0.));
#114 = VECTOR('',#115,1.);
#115 = DIRECTION('',(0.,1.,0.));
#116 = PLANE('',#117);
#117 = AXIS2_PLACEMENT_3D('',#118,#119,#120);
#118 = CARTESIAN_POINT('',(5.E-02,1.,5.E-02));
#119 = DIRECTION('',(-0.707106781187,0.,-0.707106781187));
#120 = DIRECTION('',(0.,1.,0.));
#121 = ADVANCED_FACE('',(#122),#147,.F.);
#122 = FACE_BOUND('',#123,.F.);
#123 = EDGE_LOOP('',(#124,#132,#133,#141));
#124 = ORIENTED_EDGE('',*,*,#125,.F.);
#125 = EDGE_CURVE('',#24,#126,#128,.T.);
#126 = VERTEX_POINT('',#127);
#127 = CARTESIAN_POINT('',(0.1,1.,0.81));
#128 = LINE('',#129,#130);
#129 = CARTESIAN_POINT('',(5.E-02,1.,0.76));
#130 = VECTOR('',#131,1.);
#131 = DIRECTION('',(0.707106781187,0.,0.707106781187));
#132 = ORIENTED_EDGE('',*,*,#47,.T.);
#133 = ORIENTED_EDGE('',*,*,#134,.T.);
#134 = EDGE_CURVE('',#40,#135,#137,.T.);
#135 = VERTEX_POINT('',#136);
#136 = CARTESIAN_POINT('',(0.1,12.8,0.81));
#137 = LINE('',#138,#139);
#138 = CARTESIAN_POINT('',(5.E-02,12.8,0.76));
#139 = VECTOR('',#140,1.);
#140 = DIRECTION('',(0.707106781187,0.,0.707106781187));
#141 = ORIENTED_EDGE('',*,*,#142,.F.);
#142 = EDGE_CURVE('',#126,#135,#143,.T.);
#143 = LINE('',#144,#145);
#144 = CARTESIAN_POINT('',(0.1,1.,0.81));
#145 = VECTOR('',#146,1.);
#146 = DIRECTION('',(0.,1.,0.));
#147 = PLANE('',#148);
#148 = AXIS2_PLACEMENT_3D('',#149,#150,#151);
#149 = CARTESIAN_POINT('',(5.E-02,1.,0.76));
#150 = DIRECTION('',(0.707106781187,0.,-0.707106781187));
#151 = DIRECTION('',(0.,1.,0.));
#152 = ADVANCED_FACE('',(#153),#180,.T.);
#153 = FACE_BOUND('',#154,.F.);
#154 = EDGE_LOOP('',(#155,#156,#165,#173));
#155 = ORIENTED_EDGE('',*,*,#39,.F.);
#156 = ORIENTED_EDGE('',*,*,#157,.T.);
#157 = EDGE_CURVE('',#32,#158,#160,.T.);
#158 = VERTEX_POINT('',#159);
#159 = CARTESIAN_POINT('',(1.,13.8,0.1));
#160 = CIRCLE('',#161,1.);
#161 = AXIS2_PLACEMENT_3D('',#162,#163,#164);
#162 = CARTESIAN_POINT('',(1.,12.8,0.1));
#163 = DIRECTION('',(0.,0.,-1.));
#164 = DIRECTION('',(-1.,0.,0.));
#165 = ORIENTED_EDGE('',*,*,#166,.T.);
#166 = EDGE_CURVE('',#158,#167,#169,.T.);
#167 = VERTEX_POINT('',#168);
#168 = CARTESIAN_POINT('',(1.,13.8,0.71));
#169 = LINE('',#170,#171);
#170 = CARTESIAN_POINT('',(1.,13.8,0.));
#171 = VECTOR('',#172,1.);
#172 = DIRECTION('',(0.,0.,1.));
#173 = ORIENTED_EDGE('',*,*,#174,.F.);
#174 = EDGE_CURVE('',#40,#167,#175,.T.);
#175 = CIRCLE('',#176,1.);
#176 = AXIS2_PLACEMENT_3D('',#177,#178,#179);
#177 = CARTESIAN_POINT('',(1.,12.8,0.71));
#178 = DIRECTION('',(0.,0.,-1.));
#179 = DIRECTION('',(-1.,0.,0.));
#180 = CYLINDRICAL_SURFACE('',#181,1.);
#181 = AXIS2_PLACEMENT_3D('',#182,#183,#184);
#182 = CARTESIAN_POINT('',(1.,12.8,0.));
#183 = DIRECTION('',(0.,0.,1.));
#184 = DIRECTION('',(-1.,0.,0.));
#185 = ADVANCED_FACE('',(#186),#205,.T.);
#186 = FACE_BOUND('',#187,.T.);
#187 = EDGE_LOOP('',(#188,#196,#197,#198));
#188 = ORIENTED_EDGE('',*,*,#189,.F.);
#189 = EDGE_CURVE('',#63,#190,#192,.T.);
#190 = VERTEX_POINT('',#191);
#191 = CARTESIAN_POINT('',(1.,0.1,0.));
#192 = LINE('',#193,#194);
#193 = CARTESIAN_POINT('',(1.,5.E-02,5.E-02));
#194 = VECTOR('',#195,1.);
#195 = DIRECTION('',(0.,0.707106781187,-0.707106781187));
#196 = ORIENTED_EDGE('',*,*,#62,.T.);
#197 = ORIENTED_EDGE('',*,*,#94,.T.);
#198 = ORIENTED_EDGE('',*,*,#199,.F.);
#199 = EDGE_CURVE('',#190,#95,#200,.T.);
#200 = CIRCLE('',#201,0.9);
#201 = AXIS2_PLACEMENT_3D('',#202,#203,#204);
#202 = CARTESIAN_POINT('',(1.,1.,0.));
#203 = DIRECTION('',(-0.,0.,-1.));
#204 = DIRECTION('',(-2.2E-16,-1.,0.));
#205 = CONICAL_SURFACE('',#206,1.,0.785398163397);
#206 = AXIS2_PLACEMENT_3D('',#207,#208,#209);
#207 = CARTESIAN_POINT('',(1.,1.,0.1));
#208 = DIRECTION('',(0.,0.,1.));
#209 = DIRECTION('',(-2.2E-16,-1.,0.));
#210 = ADVANCED_FACE('',(#211),#230,.T.);
#211 = FACE_BOUND('',#212,.F.);
#212 = EDGE_LOOP('',(#213,#221,#222,#223));
#213 = ORIENTED_EDGE('',*,*,#214,.F.);
#214 = EDGE_CURVE('',#72,#215,#217,.T.);
#215 = VERTEX_POINT('',#216);
#216 = CARTESIAN_POINT('',(1.,0.1,0.81));
#217 = LINE('',#218,#219);
#218 = CARTESIAN_POINT('',(1.,5.E-02,0.76));
#219 = VECTOR('',#220,1.);
#220 = DIRECTION('',(0.,0.707106781187,0.707106781187));
#221 = ORIENTED_EDGE('',*,*,#79,.T.);
#222 = ORIENTED_EDGE('',*,*,#125,.T.);
#223 = ORIENTED_EDGE('',*,*,#224,.F.);
#224 = EDGE_CURVE('',#215,#126,#225,.T.);
#225 = CIRCLE('',#226,0.9);
#226 = AXIS2_PLACEMENT_3D('',#227,#228,#229);
#227 = CARTESIAN_POINT('',(1.,1.,0.81));
#228 = DIRECTION('',(-0.,0.,-1.));
#229 = DIRECTION('',(-2.2E-16,-1.,0.));
#230 = CONICAL_SURFACE('',#231,1.,0.785398163397);
#231 = AXIS2_PLACEMENT_3D('',#232,#233,#234);
#232 = CARTESIAN_POINT('',(1.,1.,0.71));
#233 = DIRECTION('',(-0.,-0.,-1.));
#234 = DIRECTION('',(-2.2E-16,-1.,0.));
#235 = ADVANCED_FACE('',(#236),#261,.F.);
#236 = FACE_BOUND('',#237,.F.);
#237 = EDGE_LOOP('',(#238,#239,#247,#255));
#238 = ORIENTED_EDGE('',*,*,#71,.T.);
#239 = ORIENTED_EDGE('',*,*,#240,.F.);
#240 = EDGE_CURVE('',#241,#72,#243,.T.);
#241 = VERTEX_POINT('',#242);
#242 = CARTESIAN_POINT('',(15.6,0.,0.71));
#243 = LINE('',#244,#245);
#244 = CARTESIAN_POINT('',(15.6,0.,0.71));
#245 = VECTOR('',#246,1.);
#246 = DIRECTION('',(-1.,-0.,-0.));
#247 = ORIENTED_EDGE('',*,*,#248,.F.);
#248 = EDGE_CURVE('',#249,#241,#251,.T.);
#249 = VERTEX_POINT('',#250);
#250 = CARTESIAN_POINT('',(15.6,0.,0.1));
#251 = LINE('',#252,#253);
#252 = CARTESIAN_POINT('',(15.6,-2.2E-16,0.));
#253 = VECTOR('',#254,1.);
#254 = DIRECTION('',(0.,0.,1.));
#255 = ORIENTED_EDGE('',*,*,#256,.T.);
#256 = EDGE_CURVE('',#249,#63,#257,.T.);
#257 = LINE('',#258,#259);
#258 = CARTESIAN_POINT('',(15.6,0.,0.1));
#259 = VECTOR('',#260,1.);
#260 = DIRECTION('',(-1.,-0.,-0.));
#261 = PLANE('',#262);
#262 = AXIS2_PLACEMENT_3D('',#263,#264,#265);
#263 = CARTESIAN_POINT('',(0.,0.,0.));
#264 = DIRECTION('',(0.,1.,0.));
#265 = DIRECTION('',(0.,0.,1.));
#266 = ADVANCED_FACE('',(#267),#320,.F.);
#267 = FACE_BOUND('',#268,.F.);
#268 = EDGE_LOOP('',(#269,#270,#271,#279,#288,#296,#305,#313));
#269 = ORIENTED_EDGE('',*,*,#111,.F.);
#270 = ORIENTED_EDGE('',*,*,#199,.F.);
#271 = ORIENTED_EDGE('',*,*,#272,.F.);
#272 = EDGE_CURVE('',#273,#190,#275,.T.);
#273 = VERTEX_POINT('',#274);
#274 = CARTESIAN_POINT('',(15.6,0.1,0.));
#275 = LINE('',#276,#277);
#276 = CARTESIAN_POINT('',(15.6,0.1,0.));
#277 = VECTOR('',#278,1.);
#278 = DIRECTION('',(-1.,-0.,-0.));
#279 = ORIENTED_EDGE('',*,*,#280,.F.);
#280 = EDGE_CURVE('',#281,#273,#283,.T.);
#281 = VERTEX_POINT('',#282);
#282 = CARTESIAN_POINT('',(16.5,1.,0.));
#283 = CIRCLE('',#284,0.9);
#284 = AXIS2_PLACEMENT_3D('',#285,#286,#287);
#285 = CARTESIAN_POINT('',(15.6,1.,0.));
#286 = DIRECTION('',(0.,0.,-1.));
#287 = DIRECTION('',(1.,2.2E-16,0.));
#288 = ORIENTED_EDGE('',*,*,#289,.F.);
#289 = EDGE_CURVE('',#290,#281,#292,.T.);
#290 = VERTEX_POINT('',#291);
#291 = CARTESIAN_POINT('',(16.5,12.8,0.));
#292 = LINE('',#293,#294);
#293 = CARTESIAN_POINT('',(16.5,12.8,0.));
#294 = VECTOR('',#295,1.);
#295 = DIRECTION('',(-0.,-1.,-0.));
#296 = ORIENTED_EDGE('',*,*,#297,.F.);
#297 = EDGE_CURVE('',#298,#290,#300,.T.);
#298 = VERTEX_POINT('',#299);
#299 = CARTESIAN_POINT('',(15.6,13.7,0.));
#300 = CIRCLE('',#301,0.9);
#301 = AXIS2_PLACEMENT_3D('',#302,#303,#304);
#302 = CARTESIAN_POINT('',(15.6,12.8,0.));
#303 = DIRECTION('',(0.,0.,-1.));
#304 = DIRECTION('',(0.,1.,0.));
#305 = ORIENTED_EDGE('',*,*,#306,.F.);
#306 = EDGE_CURVE('',#307,#298,#309,.T.);
#307 = VERTEX_POINT('',#308);
#308 = CARTESIAN_POINT('',(1.,13.7,0.));
#309 = LINE('',#310,#311);
#310 = CARTESIAN_POINT('',(1.,13.7,0.));
#311 = VECTOR('',#312,1.);
#312 = DIRECTION('',(1.,0.,0.));
#313 = ORIENTED_EDGE('',*,*,#314,.F.);
#314 = EDGE_CURVE('',#104,#307,#315,.T.);
#315 = CIRCLE('',#316,0.9);
#316 = AXIS2_PLACEMENT_3D('',#317,#318,#319);
#317 = CARTESIAN_POINT('',(1.,12.8,0.));
#318 = DIRECTION('',(0.,0.,-1.));
#319 = DIRECTION('',(-1.,0.,0.));
#320 = PLANE('',#321);
#321 = AXIS2_PLACEMENT_3D('',#322,#323,#324);
#322 = CARTESIAN_POINT('',(0.,0.,0.));
#323 = DIRECTION('',(0.,0.,1.));
#324 = DIRECTION('',(1.,0.,0.));
#325 = ADVANCED_FACE('',(#326),#337,.T.);
#326 = FACE_BOUND('',#327,.T.);
#327 = EDGE_LOOP('',(#328,#329,#330,#336));
#328 = ORIENTED_EDGE('',*,*,#103,.F.);
#329 = ORIENTED_EDGE('',*,*,#157,.T.);
#330 = ORIENTED_EDGE('',*,*,#331,.T.);
#331 = EDGE_CURVE('',#158,#307,#332,.T.);
#332 = LINE('',#333,#334);
#333 = CARTESIAN_POINT('',(1.,13.8,0.1));
#334 = VECTOR('',#335,1.);
#335 = DIRECTION('',(4.E-17,-0.707106781187,-0.707106781187));
#336 = ORIENTED_EDGE('',*,*,#314,.F.);
#337 = CONICAL_SURFACE('',#338,1.,0.785398163397);
#338 = AXIS2_PLACEMENT_3D('',#339,#340,#341);
#339 = CARTESIAN_POINT('',(1.,12.8,0.1));
#340 = DIRECTION('',(0.,0.,1.));
#341 = DIRECTION('',(-1.,0.,0.));
#342 = ADVANCED_FACE('',(#343),#396,.T.);
#343 = FACE_BOUND('',#344,.T.);
#344 = EDGE_LOOP('',(#345,#346,#347,#355,#364,#372,#381,#389));
#345 = ORIENTED_EDGE('',*,*,#142,.F.);
#346 = ORIENTED_EDGE('',*,*,#224,.F.);
#347 = ORIENTED_EDGE('',*,*,#348,.F.);
#348 = EDGE_CURVE('',#349,#215,#351,.T.);
#349 = VERTEX_POINT('',#350);
#350 = CARTESIAN_POINT('',(15.6,0.1,0.81));
#351 = LINE('',#352,#353);
#352 = CARTESIAN_POINT('',(15.6,0.1,0.81));
#353 = VECTOR('',#354,1.);
#354 = DIRECTION('',(-1.,-0.,-0.));
#355 = ORIENTED_EDGE('',*,*,#356,.F.);
#356 = EDGE_CURVE('',#357,#349,#359,.T.);
#357 = VERTEX_POINT('',#358);
#358 = CARTESIAN_POINT('',(16.5,1.,0.81));
#359 = CIRCLE('',#360,0.9);
#360 = AXIS2_PLACEMENT_3D('',#361,#362,#363);
#361 = CARTESIAN_POINT('',(15.6,1.,0.81));
#362 = DIRECTION('',(0.,0.,-1.));
#363 = DIRECTION('',(1.,2.2E-16,0.));
#364 = ORIENTED_EDGE('',*,*,#365,.F.);
#365 = EDGE_CURVE('',#366,#357,#368,.T.);
#366 = VERTEX_POINT('',#367);
#367 = CARTESIAN_POINT('',(16.5,12.8,0.81));
#368 = LINE('',#369,#370);
#369 = CARTESIAN_POINT('',(16.5,12.8,0.81));
#370 = VECTOR('',#371,1.);
#371 = DIRECTION('',(-0.,-1.,-0.));
#372 = ORIENTED_EDGE('',*,*,#373,.F.);
#373 = EDGE_CURVE('',#374,#366,#376,.T.);
#374 = VERTEX_POINT('',#375);
#375 = CARTESIAN_POINT('',(15.6,13.7,0.81));
#376 = CIRCLE('',#377,0.9);
#377 = AXIS2_PLACEMENT_3D('',#378,#379,#380);
#378 = CARTESIAN_POINT('',(15.6,12.8,0.81));
#379 = DIRECTION('',(0.,0.,-1.));
#380 = DIRECTION('',(0.,1.,0.));
#381 = ORIENTED_EDGE('',*,*,#382,.F.);
#382 = EDGE_CURVE('',#383,#374,#385,.T.);
#383 = VERTEX_POINT('',#384);
#384 = CARTESIAN_POINT('',(1.,13.7,0.81));
#385 = LINE('',#386,#387);
#386 = CARTESIAN_POINT('',(1.,13.7,0.81));
#387 = VECTOR('',#388,1.);
#388 = DIRECTION('',(1.,0.,0.));
#389 = ORIENTED_EDGE('',*,*,#390,.F.);
#390 = EDGE_CURVE('',#135,#383,#391,.T.);
#391 = CIRCLE('',#392,0.9);
#392 = AXIS2_PLACEMENT_3D('',#393,#394,#395);
#393 = CARTESIAN_POINT('',(1.,12.8,0.81));
#394 = DIRECTION('',(0.,0.,-1.));
#395 = DIRECTION('',(-1.,0.,0.));
#396 = PLANE('',#397);
#397 = AXIS2_PLACEMENT_3D('',#398,#399,#400);
#398 = CARTESIAN_POINT('',(0.,0.,0.81));
#399 = DIRECTION('',(0.,0.,1.));
#400 = DIRECTION('',(1.,0.,0.));
#401 = ADVANCED_FACE('',(#402),#413,.T.);
#402 = FACE_BOUND('',#403,.F.);
#403 = EDGE_LOOP('',(#404,#405,#406,#412));
#404 = ORIENTED_EDGE('',*,*,#134,.F.);
#405 = ORIENTED_EDGE('',*,*,#174,.T.);
#406 = ORIENTED_EDGE('',*,*,#407,.T.);
#407 = EDGE_CURVE('',#167,#383,#408,.T.);
#408 = LINE('',#409,#410);
#409 = CARTESIAN_POINT('',(1.,13.8,0.71));
#410 = VECTOR('',#411,1.);
#411 = DIRECTION('',(4.E-17,-0.707106781187,0.707106781187));
#412 = ORIENTED_EDGE('',*,*,#390,.F.);
#413 = CONICAL_SURFACE('',#414,1.,0.785398163397);
#414 = AXIS2_PLACEMENT_3D('',#415,#416,#417);
#415 = CARTESIAN_POINT('',(1.,12.8,0.71));
#416 = DIRECTION('',(-0.,-0.,-1.));
#417 = DIRECTION('',(-1.,0.,0.));
#418 = ADVANCED_FACE('',(#419),#444,.T.);
#419 = FACE_BOUND('',#420,.T.);
#420 = EDGE_LOOP('',(#421,#422,#430,#438));
#421 = ORIENTED_EDGE('',*,*,#166,.T.);
#422 = ORIENTED_EDGE('',*,*,#423,.T.);
#423 = EDGE_CURVE('',#167,#424,#426,.T.);
#424 = VERTEX_POINT('',#425);
#425 = CARTESIAN_POINT('',(15.6,13.8,0.71));
#426 = LINE('',#427,#428);
#427 = CARTESIAN_POINT('',(1.,13.8,0.71));
#428 = VECTOR('',#429,1.);
#429 = DIRECTION('',(1.,0.,0.));
#430 = ORIENTED_EDGE('',*,*,#431,.F.);
#431 = EDGE_CURVE('',#432,#424,#434,.T.);
#432 = VERTEX_POINT('',#433);
#433 = CARTESIAN_POINT('',(15.6,13.8,0.1));
#434 = LINE('',#435,#436);
#435 = CARTESIAN_POINT('',(15.6,13.8,0.));
#436 = VECTOR('',#437,1.);
#437 = DIRECTION('',(0.,0.,1.));
#438 = ORIENTED_EDGE('',*,*,#439,.F.);
#439 = EDGE_CURVE('',#158,#432,#440,.T.);
#440 = LINE('',#441,#442);
#441 = CARTESIAN_POINT('',(1.,13.8,0.1));
#442 = VECTOR('',#443,1.);
#443 = DIRECTION('',(1.,0.,0.));
#444 = PLANE('',#445);
#445 = AXIS2_PLACEMENT_3D('',#446,#447,#448);
#446 = CARTESIAN_POINT('',(0.,13.8,0.));
#447 = DIRECTION('',(0.,1.,0.));
#448 = DIRECTION('',(0.,0.,1.));
#449 = ADVANCED_FACE('',(#450),#461,.T.);
#450 = FACE_BOUND('',#451,.T.);
#451 = EDGE_LOOP('',(#452,#458,#459,#460));
#452 = ORIENTED_EDGE('',*,*,#453,.F.);
#453 = EDGE_CURVE('',#249,#273,#454,.T.);
#454 = LINE('',#455,#456);
#455 = CARTESIAN_POINT('',(15.6,-2.2E-16,0.1));
#456 = VECTOR('',#457,1.);
#457 = DIRECTION('',(-2.E-16,0.707106781187,-0.707106781187));
#458 = ORIENTED_EDGE('',*,*,#256,.T.);
#459 = ORIENTED_EDGE('',*,*,#189,.T.);
#460 = ORIENTED_EDGE('',*,*,#272,.F.);
#461 = PLANE('',#462);
#462 = AXIS2_PLACEMENT_3D('',#463,#464,#465);
#463 = CARTESIAN_POINT('',(15.6,5.E-02,5.E-02));
#464 = DIRECTION('',(0.,-0.707106781187,-0.707106781187));
#465 = DIRECTION('',(-1.,-0.,0.));
#466 = ADVANCED_FACE('',(#467),#478,.F.);
#467 = FACE_BOUND('',#468,.F.);
#468 = EDGE_LOOP('',(#469,#475,#476,#477));
#469 = ORIENTED_EDGE('',*,*,#470,.F.);
#470 = EDGE_CURVE('',#241,#349,#471,.T.);
#471 = LINE('',#472,#473);
#472 = CARTESIAN_POINT('',(15.6,-2.2E-16,0.71));
#473 = VECTOR('',#474,1.);
#474 = DIRECTION('',(-2.E-16,0.707106781187,0.707106781187));
#475 = ORIENTED_EDGE('',*,*,#240,.T.);
#476 = ORIENTED_EDGE('',*,*,#214,.T.);
#477 = ORIENTED_EDGE('',*,*,#348,.F.);
#478 = PLANE('',#479);
#479 = AXIS2_PLACEMENT_3D('',#480,#481,#482);
#480 = CARTESIAN_POINT('',(15.6,5.E-02,0.76));
#481 = DIRECTION('',(0.,0.707106781187,-0.707106781187));
#482 = DIRECTION('',(-1.,0.,0.));
#483 = ADVANCED_FACE('',(#484),#511,.T.);
#484 = FACE_BOUND('',#485,.F.);
#485 = EDGE_LOOP('',(#486,#496,#503,#504));
#486 = ORIENTED_EDGE('',*,*,#487,.F.);
#487 = EDGE_CURVE('',#488,#490,#492,.T.);
#488 = VERTEX_POINT('',#489);
#489 = CARTESIAN_POINT('',(16.6,1.,0.1));
#490 = VERTEX_POINT('',#491);
#491 = CARTESIAN_POINT('',(16.6,1.,0.71));
#492 = LINE('',#493,#494);
#493 = CARTESIAN_POINT('',(16.6,1.,0.));
#494 = VECTOR('',#495,1.);
#495 = DIRECTION('',(0.,0.,1.));
#496 = ORIENTED_EDGE('',*,*,#497,.T.);
#497 = EDGE_CURVE('',#488,#249,#498,.T.);
#498 = CIRCLE('',#499,1.);
#499 = AXIS2_PLACEMENT_3D('',#500,#501,#502);
#500 = CARTESIAN_POINT('',(15.6,1.,0.1));
#501 = DIRECTION('',(0.,0.,-1.));
#502 = DIRECTION('',(1.,2.2E-16,0.));
#503 = ORIENTED_EDGE('',*,*,#248,.T.);
#504 = ORIENTED_EDGE('',*,*,#505,.F.);
#505 = EDGE_CURVE('',#490,#241,#506,.T.);
#506 = CIRCLE('',#507,1.);
#507 = AXIS2_PLACEMENT_3D('',#508,#509,#510);
#508 = CARTESIAN_POINT('',(15.6,1.,0.71));
#509 = DIRECTION('',(0.,0.,-1.));
#510 = DIRECTION('',(1.,2.2E-16,0.));
#511 = CYLINDRICAL_SURFACE('',#512,1.);
#512 = AXIS2_PLACEMENT_3D('',#513,#514,#515);
#513 = CARTESIAN_POINT('',(15.6,1.,0.));
#514 = DIRECTION('',(0.,0.,1.));
#515 = DIRECTION('',(1.,0.,0.));
#516 = ADVANCED_FACE('',(#517),#528,.F.);
#517 = FACE_BOUND('',#518,.T.);
#518 = EDGE_LOOP('',(#519,#520,#521,#527));
#519 = ORIENTED_EDGE('',*,*,#331,.F.);
#520 = ORIENTED_EDGE('',*,*,#439,.T.);
#521 = ORIENTED_EDGE('',*,*,#522,.T.);
#522 = EDGE_CURVE('',#432,#298,#523,.T.);
#523 = LINE('',#524,#525);
#524 = CARTESIAN_POINT('',(15.6,13.75,5.E-02));
#525 = VECTOR('',#526,1.);
#526 = DIRECTION('',(0.,-0.707106781187,-0.707106781187));
#527 = ORIENTED_EDGE('',*,*,#306,.F.);
#528 = PLANE('',#529);
#529 = AXIS2_PLACEMENT_3D('',#530,#531,#532);
#530 = CARTESIAN_POINT('',(1.,13.75,5.E-02));
#531 = DIRECTION('',(0.,-0.707106781187,0.707106781187));
#532 = DIRECTION('',(-1.,-0.,-0.));
#533 = ADVANCED_FACE('',(#534),#545,.T.);
#534 = FACE_BOUND('',#535,.T.);
#535 = EDGE_LOOP('',(#536,#542,#543,#544));
#536 = ORIENTED_EDGE('',*,*,#537,.F.);
#537 = EDGE_CURVE('',#488,#281,#538,.T.);
#538 = LINE('',#539,#540);
#539 = CARTESIAN_POINT('',(16.55,1.,5.E-02));
#540 = VECTOR('',#541,1.);
#541 = DIRECTION('',(-0.707106781187,-0.,-0.707106781187));
#542 = ORIENTED_EDGE('',*,*,#497,.T.);
#543 = ORIENTED_EDGE('',*,*,#453,.T.);
#544 = ORIENTED_EDGE('',*,*,#280,.F.);
#545 = CONICAL_SURFACE('',#546,1.,0.785398163397);
#546 = AXIS2_PLACEMENT_3D('',#547,#548,#549);
#547 = CARTESIAN_POINT('',(15.6,1.,0.1));
#548 = DIRECTION('',(0.,0.,1.));
#549 = DIRECTION('',(1.,2.2E-16,-0.));
#550 = ADVANCED_FACE('',(#551),#570,.T.);
#551 = FACE_BOUND('',#552,.T.);
#552 = EDGE_LOOP('',(#553,#554,#563,#569));
#553 = ORIENTED_EDGE('',*,*,#522,.F.);
#554 = ORIENTED_EDGE('',*,*,#555,.T.);
#555 = EDGE_CURVE('',#432,#556,#558,.T.);
#556 = VERTEX_POINT('',#557);
#557 = CARTESIAN_POINT('',(16.6,12.8,0.1));
#558 = CIRCLE('',#559,1.);
#559 = AXIS2_PLACEMENT_3D('',#560,#561,#562);
#560 = CARTESIAN_POINT('',(15.6,12.8,0.1));
#561 = DIRECTION('',(0.,0.,-1.));
#562 = DIRECTION('',(0.,1.,0.));
#563 = ORIENTED_EDGE('',*,*,#564,.T.);
#564 = EDGE_CURVE('',#556,#290,#565,.T.);
#565 = LINE('',#566,#567);
#566 = CARTESIAN_POINT('',(16.6,12.8,0.1));
#567 = VECTOR('',#568,1.);
#568 = DIRECTION('',(-0.707106781187,-4.E-17,-0.707106781187));
#569 = ORIENTED_EDGE('',*,*,#297,.F.);
#570 = CONICAL_SURFACE('',#571,1.,0.785398163397);
#571 = AXIS2_PLACEMENT_3D('',#572,#573,#574);
#572 = CARTESIAN_POINT('',(15.6,12.8,0.1));
#573 = DIRECTION('',(0.,0.,1.));
#574 = DIRECTION('',(0.,1.,-0.));
#575 = ADVANCED_FACE('',(#576),#587,.F.);
#576 = FACE_BOUND('',#577,.T.);
#577 = EDGE_LOOP('',(#578,#579,#585,#586));
#578 = ORIENTED_EDGE('',*,*,#564,.F.);
#579 = ORIENTED_EDGE('',*,*,#580,.T.);
#580 = EDGE_CURVE('',#556,#488,#581,.T.);
#581 = LINE('',#582,#583);
#582 = CARTESIAN_POINT('',(16.6,12.8,0.1));
#583 = VECTOR('',#584,1.);
#584 = DIRECTION('',(-0.,-1.,-0.));
#585 = ORIENTED_EDGE('',*,*,#537,.T.);
#586 = ORIENTED_EDGE('',*,*,#289,.F.);
#587 = PLANE('',#588);
#588 = AXIS2_PLACEMENT_3D('',#589,#590,#591);
#589 = CARTESIAN_POINT('',(16.55,12.8,5.E-02));
#590 = DIRECTION('',(-0.707106781187,0.,0.707106781187));
#591 = DIRECTION('',(-0.,1.,-0.));
#592 = ADVANCED_FACE('',(#593),#604,.T.);
#593 = FACE_BOUND('',#594,.F.);
#594 = EDGE_LOOP('',(#595,#596,#597,#603));
#595 = ORIENTED_EDGE('',*,*,#407,.F.);
#596 = ORIENTED_EDGE('',*,*,#423,.T.);
#597 = ORIENTED_EDGE('',*,*,#598,.T.);
#598 = EDGE_CURVE('',#424,#374,#599,.T.);
#599 = LINE('',#600,#601);
#600 = CARTESIAN_POINT('',(15.6,13.75,0.76));
#601 = VECTOR('',#602,1.);
#602 = DIRECTION('',(0.,-0.707106781187,0.707106781187));
#603 = ORIENTED_EDGE('',*,*,#382,.F.);
#604 = PLANE('',#605);
#605 = AXIS2_PLACEMENT_3D('',#606,#607,#608);
#606 = CARTESIAN_POINT('',(1.,13.75,0.76));
#607 = DIRECTION('',(0.,0.707106781187,0.707106781187));
#608 = DIRECTION('',(-1.,-0.,0.));
#609 = ADVANCED_FACE('',(#610),#621,.T.);
#610 = FACE_BOUND('',#611,.F.);
#611 = EDGE_LOOP('',(#612,#618,#619,#620));
#612 = ORIENTED_EDGE('',*,*,#613,.F.);
#613 = EDGE_CURVE('',#490,#357,#614,.T.);
#614 = LINE('',#615,#616);
#615 = CARTESIAN_POINT('',(16.55,1.,0.76));
#616 = VECTOR('',#617,1.);
#617 = DIRECTION('',(-0.707106781187,0.,0.707106781187));
#618 = ORIENTED_EDGE('',*,*,#505,.T.);
#619 = ORIENTED_EDGE('',*,*,#470,.T.);
#620 = ORIENTED_EDGE('',*,*,#356,.F.);
#621 = CONICAL_SURFACE('',#622,1.,0.785398163397);
#622 = AXIS2_PLACEMENT_3D('',#623,#624,#625);
#623 = CARTESIAN_POINT('',(15.6,1.,0.71));
#624 = DIRECTION('',(-0.,-0.,-1.));
#625 = DIRECTION('',(1.,2.2E-16,-0.));
#626 = ADVANCED_FACE('',(#627),#646,.T.);
#627 = FACE_BOUND('',#628,.F.);
#628 = EDGE_LOOP('',(#629,#630,#639,#645));
#629 = ORIENTED_EDGE('',*,*,#598,.F.);
#630 = ORIENTED_EDGE('',*,*,#631,.T.);
#631 = EDGE_CURVE('',#424,#632,#634,.T.);
#632 = VERTEX_POINT('',#633);
#633 = CARTESIAN_POINT('',(16.6,12.8,0.71));
#634 = CIRCLE('',#635,1.);
#635 = AXIS2_PLACEMENT_3D('',#636,#637,#638);
#636 = CARTESIAN_POINT('',(15.6,12.8,0.71));
#637 = DIRECTION('',(0.,0.,-1.));
#638 = DIRECTION('',(0.,1.,0.));
#639 = ORIENTED_EDGE('',*,*,#640,.T.);
#640 = EDGE_CURVE('',#632,#366,#641,.T.);
#641 = LINE('',#642,#643);
#642 = CARTESIAN_POINT('',(16.6,12.8,0.71));
#643 = VECTOR('',#644,1.);
#644 = DIRECTION('',(-0.707106781187,-4.E-17,0.707106781187));
#645 = ORIENTED_EDGE('',*,*,#373,.F.);
#646 = CONICAL_SURFACE('',#647,1.,0.785398163397);
#647 = AXIS2_PLACEMENT_3D('',#648,#649,#650);
#648 = CARTESIAN_POINT('',(15.6,12.8,0.71));
#649 = DIRECTION('',(-0.,-0.,-1.));
#650 = DIRECTION('',(0.,1.,0.));
#651 = ADVANCED_FACE('',(#652),#663,.T.);
#652 = FACE_BOUND('',#653,.F.);
#653 = EDGE_LOOP('',(#654,#655,#661,#662));
#654 = ORIENTED_EDGE('',*,*,#640,.F.);
#655 = ORIENTED_EDGE('',*,*,#656,.T.);
#656 = EDGE_CURVE('',#632,#490,#657,.T.);
#657 = LINE('',#658,#659);
#658 = CARTESIAN_POINT('',(16.6,12.8,0.71));
#659 = VECTOR('',#660,1.);
#660 = DIRECTION('',(-0.,-1.,-0.));
#661 = ORIENTED_EDGE('',*,*,#613,.T.);
#662 = ORIENTED_EDGE('',*,*,#365,.F.);
#663 = PLANE('',#664);
#664 = AXIS2_PLACEMENT_3D('',#665,#666,#667);
#665 = CARTESIAN_POINT('',(16.55,12.8,0.76));
#666 = DIRECTION('',(0.707106781187,0.,0.707106781187));
#667 = DIRECTION('',(-0.,1.,-0.));
#668 = ADVANCED_FACE('',(#669),#680,.T.);
#669 = FACE_BOUND('',#670,.T.);
#670 = EDGE_LOOP('',(#671,#677,#678,#679));
#671 = ORIENTED_EDGE('',*,*,#672,.F.);
#672 = EDGE_CURVE('',#556,#632,#673,.T.);
#673 = LINE('',#674,#675);
#674 = CARTESIAN_POINT('',(16.6,12.8,0.));
#675 = VECTOR('',#676,1.);
#676 = DIRECTION('',(0.,0.,1.));
#677 = ORIENTED_EDGE('',*,*,#555,.F.);
#678 = ORIENTED_EDGE('',*,*,#431,.T.);
#679 = ORIENTED_EDGE('',*,*,#631,.T.);
#680 = CYLINDRICAL_SURFACE('',#681,1.);
#681 = AXIS2_PLACEMENT_3D('',#682,#683,#684);
#682 = CARTESIAN_POINT('',(15.6,12.8,0.));
#683 = DIRECTION('',(0.,0.,1.));
#684 = DIRECTION('',(1.,0.,0.));
#685 = ADVANCED_FACE('',(#686),#692,.T.);
#686 = FACE_BOUND('',#687,.T.);
#687 = EDGE_LOOP('',(#688,#689,#690,#691));
#688 = ORIENTED_EDGE('',*,*,#487,.F.);
#689 = ORIENTED_EDGE('',*,*,#580,.F.);
#690 = ORIENTED_EDGE('',*,*,#672,.T.);
#691 = ORIENTED_EDGE('',*,*,#656,.T.);
#692 = PLANE('',#693);
#693 = AXIS2_PLACEMENT_3D('',#694,#695,#696);
#694 = CARTESIAN_POINT('',(16.6,0.,0.));
#695 = DIRECTION('',(1.,0.,0.));
#696 = DIRECTION('',(0.,0.,1.));
#697 = ( GEOMETRIC_REPRESENTATION_CONTEXT(3) 
GLOBAL_UNCERTAINTY_ASSIGNED_CONTEXT((#701)) GLOBAL_UNIT_ASSIGNED_CONTEXT
((#698,#699,#700)) REPRESENTATION_CONTEXT('Context #1',
  '3D Context with UNIT and UNCERTAINTY') );
#698 = ( LENGTH_UNIT() NAMED_UNIT(*) SI_UNIT(.MILLI.,.METRE.) );
#699 = ( NAMED_UNIT(*) PLANE_ANGLE_UNIT() SI_UNIT($,.RADIAN.) );
#700 = ( NAMED_UNIT(*) SI_UNIT($,.STERADIAN.) SOLID_ANGLE_UNIT() );
#701 = UNCERTAINTY_MEASURE_WITH_UNIT(LENGTH_MEASURE(1.E-07),#698,
  'distance_accuracy_value','confusion accuracy');
#702 = PRODUCT_RELATED_PRODUCT_CATEGORY('part',$,(#7));
#703 = MECHANICAL_DESIGN_GEOMETRIC_PRESENTATION_REPRESENTATION('',(#704)
  ,#697);
#704 = STYLED_ITEM('color',(#705),#15);
#705 = PRESENTATION_STYLE_ASSIGNMENT((#706,#712));
#706 = SURFACE_STYLE_USAGE(.BOTH.,#707);
#707 = SURFACE_SIDE_STYLE('',(#708));
#708 = SURFACE_STYLE_FILL_AREA(#709);
#709 = FILL_AREA_STYLE('',(#710));
#710 = FILL_AREA_STYLE_COLOUR('',#711);
#711 = COLOUR_RGB('',0.501960817233,0.109803919806,0.);
#712 = CURVE_STYLE('',#713,POSITIVE_LENGTH_MEASURE(0.1),#714);
#713 = DRAUGHTING_PRE_DEFINED_CURVE_FONT('continuous');
#714 = COLOUR_RGB('',9.803921802644E-02,9.803921802644E-02,
  9.803921802644E-02);
ENDSEC;
END-ISO-10303-21;
