ISO-10303-21;
HEADER;
FILE_DESCRIPTION(('FreeCAD Model'),'2;1');
FILE_NAME('Open CASCADE Shape Model','2026-02-22T22:50:19',(''),(''),
  'Open CASCADE STEP processor 7.7','FreeCAD','Unknown');
FILE_SCHEMA(('AUTOMOTIVE_DESIGN { 1 0 10303 214 1 1 1 1 }'));
ENDSEC;
DATA;
#1 = APPLICATION_PROTOCOL_DEFINITION('international standard',
  'automotive_design',2000,#2);
#2 = APPLICATION_CONTEXT(
  'core data for automotive mechanical design processes');
#3 = SHAPE_DEFINITION_REPRESENTATION(#4,#10);
#4 = PRODUCT_DEFINITION_SHAPE('','',#5);
#5 = PRODUCT_DEFINITION('design','',#6,#9);
#6 = PRODUCT_DEFINITION_FORMATION('','',#7);
#7 = PRODUCT('GND_PLATE','GND_PLATE','',(#8));
#8 = PRODUCT_CONTEXT('',#2,'mechanical');
#9 = PRODUCT_DEFINITION_CONTEXT('part definition',#2,'design');
#10 = ADVANCED_BREP_SHAPE_REPRESENTATION('',(#11,#15),#2385);
#11 = AXIS2_PLACEMENT_3D('',#12,#13,#14);
#12 = CARTESIAN_POINT('',(0.,0.,0.));
#13 = DIRECTION('',(0.,0.,1.));
#14 = DIRECTION('',(1.,0.,-0.));
#15 = MANIFOLD_SOLID_BREP('',#16);
#16 = CLOSED_SHELL('',(#17,#57,#90,#121,#152,#185,#216,#241,#266,#507,
    #524,#765,#782,#813,#846,#863,#880,#897,#914,#939,#956,#987,#1012,
    #1037,#1061,#1085,#1110,#1135,#1159,#1183,#1208,#1233,#1257,#1281,
    #1306,#1331,#1348,#1373,#1398,#1423,#1448,#1465,#1482,#1507,#1524,
    #1555,#1580,#1605,#1629,#1653,#1678,#1703,#1727,#1751,#1776,#1801,
    #1825,#1849,#1874,#1899,#1916,#1941,#1966,#1991,#2016,#2033,#2045,
    #2067,#2084,#2101,#2118,#2135,#2152,#2169,#2186,#2203,#2220,#2237,
    #2254,#2271,#2288,#2305,#2317,#2334,#2351,#2368));
#17 = ADVANCED_FACE('',(#18),#52,.T.);
#18 = FACE_BOUND('',#19,.T.);
#19 = EDGE_LOOP('',(#20,#30,#38,#46));
#20 = ORIENTED_EDGE('',*,*,#21,.T.);
#21 = EDGE_CURVE('',#22,#24,#26,.T.);
#22 = VERTEX_POINT('',#23);
#23 = CARTESIAN_POINT('',(-4.,0.,-0.1));
#24 = VERTEX_POINT('',#25);
#25 = CARTESIAN_POINT('',(-4.,0.,-0.9));
#26 = LINE('',#27,#28);
#27 = CARTESIAN_POINT('',(-4.,4.9E-16,0.));
#28 = VECTOR('',#29,1.);
#29 = DIRECTION('',(-0.,-0.,-1.));
#30 = ORIENTED_EDGE('',*,*,#31,.T.);
#31 = EDGE_CURVE('',#24,#32,#34,.T.);
#32 = VERTEX_POINT('',#33);
#33 = CARTESIAN_POINT('',(-4.,-32.,-0.9));
#34 = LINE('',#35,#36);
#35 = CARTESIAN_POINT('',(-4.,8.9E-16,-0.9));
#36 = VECTOR('',#37,1.);
#37 = DIRECTION('',(0.,-1.,0.));
#38 = ORIENTED_EDGE('',*,*,#39,.F.);
#39 = EDGE_CURVE('',#40,#32,#42,.T.);
#40 = VERTEX_POINT('',#41);
#41 = CARTESIAN_POINT('',(-4.,-32.,-0.1));
#42 = LINE('',#43,#44);
#43 = CARTESIAN_POINT('',(-4.,-32.,0.));
#44 = VECTOR('',#45,1.);
#45 = DIRECTION('',(-0.,-0.,-1.));
#46 = ORIENTED_EDGE('',*,*,#47,.F.);
#47 = EDGE_CURVE('',#22,#40,#48,.T.);
#48 = LINE('',#49,#50);
#49 = CARTESIAN_POINT('',(-4.,8.9E-16,-0.1));
#50 = VECTOR('',#51,1.);
#51 = DIRECTION('',(0.,-1.,0.));
#52 = PLANE('',#53);
#53 = AXIS2_PLACEMENT_3D('',#54,#55,#56);
#54 = CARTESIAN_POINT('',(-4.,4.9E-16,0.));
#55 = DIRECTION('',(-1.,0.,0.));
#56 = DIRECTION('',(0.,-1.,0.));
#57 = ADVANCED_FACE('',(#58),#85,.T.);
#58 = FACE_BOUND('',#59,.T.);
#59 = EDGE_LOOP('',(#60,#70,#77,#78));
#60 = ORIENTED_EDGE('',*,*,#61,.T.);
#61 = EDGE_CURVE('',#62,#64,#66,.T.);
#62 = VERTEX_POINT('',#63);
#63 = CARTESIAN_POINT('',(0.,4.,-0.1));
#64 = VERTEX_POINT('',#65);
#65 = CARTESIAN_POINT('',(0.,4.,-0.9));
#66 = LINE('',#67,#68);
#67 = CARTESIAN_POINT('',(1.2E-16,4.,0.));
#68 = VECTOR('',#69,1.);
#69 = DIRECTION('',(-0.,-0.,-1.));
#70 = ORIENTED_EDGE('',*,*,#71,.T.);
#71 = EDGE_CURVE('',#64,#24,#72,.T.);
#72 = CIRCLE('',#73,4.);
#73 = AXIS2_PLACEMENT_3D('',#74,#75,#76);
#74 = CARTESIAN_POINT('',(0.,0.,-0.9));
#75 = DIRECTION('',(0.,-0.,1.));
#76 = DIRECTION('',(6.E-17,1.,0.));
#77 = ORIENTED_EDGE('',*,*,#21,.F.);
#78 = ORIENTED_EDGE('',*,*,#79,.F.);
#79 = EDGE_CURVE('',#62,#22,#80,.T.);
#80 = CIRCLE('',#81,4.);
#81 = AXIS2_PLACEMENT_3D('',#82,#83,#84);
#82 = CARTESIAN_POINT('',(0.,0.,-0.1));
#83 = DIRECTION('',(0.,-0.,1.));
#84 = DIRECTION('',(6.E-17,1.,0.));
#85 = CYLINDRICAL_SURFACE('',#86,4.);
#86 = AXIS2_PLACEMENT_3D('',#87,#88,#89);
#87 = CARTESIAN_POINT('',(0.,0.,0.));
#88 = DIRECTION('',(0.,0.,1.));
#89 = DIRECTION('',(1.,0.,0.));
#90 = ADVANCED_FACE('',(#91),#116,.T.);
#91 = FACE_BOUND('',#92,.T.);
#92 = EDGE_LOOP('',(#93,#101,#102,#110));
#93 = ORIENTED_EDGE('',*,*,#94,.F.);
#94 = EDGE_CURVE('',#22,#95,#97,.T.);
#95 = VERTEX_POINT('',#96);
#96 = CARTESIAN_POINT('',(-3.9,0.,0.));
#97 = LINE('',#98,#99);
#98 = CARTESIAN_POINT('',(-3.95,4.9E-16,-5.E-02));
#99 = VECTOR('',#100,1.);
#100 = DIRECTION('',(0.707106781187,0.,0.707106781187));
#101 = ORIENTED_EDGE('',*,*,#47,.T.);
#102 = ORIENTED_EDGE('',*,*,#103,.T.);
#103 = EDGE_CURVE('',#40,#104,#106,.T.);
#104 = VERTEX_POINT('',#105);
#105 = CARTESIAN_POINT('',(-3.9,-32.,0.));
#106 = LINE('',#107,#108);
#107 = CARTESIAN_POINT('',(-3.95,-32.,-5.E-02));
#108 = VECTOR('',#109,1.);
#109 = DIRECTION('',(0.707106781187,0.,0.707106781187));
#110 = ORIENTED_EDGE('',*,*,#111,.F.);
#111 = EDGE_CURVE('',#95,#104,#112,.T.);
#112 = LINE('',#113,#114);
#113 = CARTESIAN_POINT('',(-3.9,8.9E-16,0.));
#114 = VECTOR('',#115,1.);
#115 = DIRECTION('',(0.,-1.,0.));
#116 = PLANE('',#117);
#117 = AXIS2_PLACEMENT_3D('',#118,#119,#120);
#118 = CARTESIAN_POINT('',(-3.95,8.9E-16,-5.E-02));
#119 = DIRECTION('',(-0.707106781187,-0.,0.707106781187));
#120 = DIRECTION('',(0.,-1.,-0.));
#121 = ADVANCED_FACE('',(#122),#147,.F.);
#122 = FACE_BOUND('',#123,.F.);
#123 = EDGE_LOOP('',(#124,#132,#133,#141));
#124 = ORIENTED_EDGE('',*,*,#125,.F.);
#125 = EDGE_CURVE('',#24,#126,#128,.T.);
#126 = VERTEX_POINT('',#127);
#127 = CARTESIAN_POINT('',(-3.9,0.,-1.));
#128 = LINE('',#129,#130);
#129 = CARTESIAN_POINT('',(-3.95,4.9E-16,-0.95));
#130 = VECTOR('',#131,1.);
#131 = DIRECTION('',(0.707106781187,0.,-0.707106781187));
#132 = ORIENTED_EDGE('',*,*,#31,.T.);
#133 = ORIENTED_EDGE('',*,*,#134,.T.);
#134 = EDGE_CURVE('',#32,#135,#137,.T.);
#135 = VERTEX_POINT('',#136);
#136 = CARTESIAN_POINT('',(-3.9,-32.,-1.));
#137 = LINE('',#138,#139);
#138 = CARTESIAN_POINT('',(-3.95,-32.,-0.95));
#139 = VECTOR('',#140,1.);
#140 = DIRECTION('',(0.707106781187,0.,-0.707106781187));
#141 = ORIENTED_EDGE('',*,*,#142,.F.);
#142 = EDGE_CURVE('',#126,#135,#143,.T.);
#143 = LINE('',#144,#145);
#144 = CARTESIAN_POINT('',(-3.9,8.9E-16,-1.));
#145 = VECTOR('',#146,1.);
#146 = DIRECTION('',(0.,-1.,0.));
#147 = PLANE('',#148);
#148 = AXIS2_PLACEMENT_3D('',#149,#150,#151);
#149 = CARTESIAN_POINT('',(-3.95,8.9E-16,-0.95));
#150 = DIRECTION('',(0.707106781187,0.,0.707106781187));
#151 = DIRECTION('',(0.,-1.,0.));
#152 = ADVANCED_FACE('',(#153),#180,.T.);
#153 = FACE_BOUND('',#154,.T.);
#154 = EDGE_LOOP('',(#155,#156,#165,#173));
#155 = ORIENTED_EDGE('',*,*,#39,.T.);
#156 = ORIENTED_EDGE('',*,*,#157,.T.);
#157 = EDGE_CURVE('',#32,#158,#160,.T.);
#158 = VERTEX_POINT('',#159);
#159 = CARTESIAN_POINT('',(-0.,-36.,-0.9));
#160 = CIRCLE('',#161,4.);
#161 = AXIS2_PLACEMENT_3D('',#162,#163,#164);
#162 = CARTESIAN_POINT('',(0.,-32.,-0.9));
#163 = DIRECTION('',(0.,0.,1.));
#164 = DIRECTION('',(-1.,0.,0.));
#165 = ORIENTED_EDGE('',*,*,#166,.F.);
#166 = EDGE_CURVE('',#167,#158,#169,.T.);
#167 = VERTEX_POINT('',#168);
#168 = CARTESIAN_POINT('',(-0.,-36.,-0.1));
#169 = LINE('',#170,#171);
#170 = CARTESIAN_POINT('',(-6.3E-16,-36.,0.));
#171 = VECTOR('',#172,1.);
#172 = DIRECTION('',(-0.,-0.,-1.));
#173 = ORIENTED_EDGE('',*,*,#174,.F.);
#174 = EDGE_CURVE('',#40,#167,#175,.T.);
#175 = CIRCLE('',#176,4.);
#176 = AXIS2_PLACEMENT_3D('',#177,#178,#179);
#177 = CARTESIAN_POINT('',(0.,-32.,-0.1));
#178 = DIRECTION('',(0.,0.,1.));
#179 = DIRECTION('',(-1.,0.,0.));
#180 = CYLINDRICAL_SURFACE('',#181,4.);
#181 = AXIS2_PLACEMENT_3D('',#182,#183,#184);
#182 = CARTESIAN_POINT('',(1.E-16,-32.,0.));
#183 = DIRECTION('',(0.,0.,1.));
#184 = DIRECTION('',(1.,0.,0.));
#185 = ADVANCED_FACE('',(#186),#211,.T.);
#186 = FACE_BOUND('',#187,.T.);
#187 = EDGE_LOOP('',(#188,#198,#204,#205));
#188 = ORIENTED_EDGE('',*,*,#189,.T.);
#189 = EDGE_CURVE('',#190,#192,#194,.T.);
#190 = VERTEX_POINT('',#191);
#191 = CARTESIAN_POINT('',(57.,4.,-0.1));
#192 = VERTEX_POINT('',#193);
#193 = CARTESIAN_POINT('',(57.,4.,-0.9));
#194 = LINE('',#195,#196);
#195 = CARTESIAN_POINT('',(57.,4.,0.));
#196 = VECTOR('',#197,1.);
#197 = DIRECTION('',(-0.,-0.,-1.));
#198 = ORIENTED_EDGE('',*,*,#199,.T.);
#199 = EDGE_CURVE('',#192,#64,#200,.T.);
#200 = LINE('',#201,#202);
#201 = CARTESIAN_POINT('',(57.,4.,-0.9));
#202 = VECTOR('',#203,1.);
#203 = DIRECTION('',(-1.,0.,0.));
#204 = ORIENTED_EDGE('',*,*,#61,.F.);
#205 = ORIENTED_EDGE('',*,*,#206,.F.);
#206 = EDGE_CURVE('',#190,#62,#207,.T.);
#207 = LINE('',#208,#209);
#208 = CARTESIAN_POINT('',(57.,4.,-0.1));
#209 = VECTOR('',#210,1.);
#210 = DIRECTION('',(-1.,0.,0.));
#211 = PLANE('',#212);
#212 = AXIS2_PLACEMENT_3D('',#213,#214,#215);
#213 = CARTESIAN_POINT('',(57.,4.,0.));
#214 = DIRECTION('',(0.,1.,0.));
#215 = DIRECTION('',(-1.,0.,0.));
#216 = ADVANCED_FACE('',(#217),#236,.T.);
#217 = FACE_BOUND('',#218,.T.);
#218 = EDGE_LOOP('',(#219,#227,#228,#229));
#219 = ORIENTED_EDGE('',*,*,#220,.F.);
#220 = EDGE_CURVE('',#62,#221,#223,.T.);
#221 = VERTEX_POINT('',#222);
#222 = CARTESIAN_POINT('',(0.,3.9,0.));
#223 = LINE('',#224,#225);
#224 = CARTESIAN_POINT('',(0.,3.95,-5.E-02));
#225 = VECTOR('',#226,1.);
#226 = DIRECTION('',(0.,-0.707106781187,0.707106781187));
#227 = ORIENTED_EDGE('',*,*,#79,.T.);
#228 = ORIENTED_EDGE('',*,*,#94,.T.);
#229 = ORIENTED_EDGE('',*,*,#230,.F.);
#230 = EDGE_CURVE('',#221,#95,#231,.T.);
#231 = CIRCLE('',#232,3.9);
#232 = AXIS2_PLACEMENT_3D('',#233,#234,#235);
#233 = CARTESIAN_POINT('',(0.,0.,0.));
#234 = DIRECTION('',(0.,-0.,1.));
#235 = DIRECTION('',(6.E-17,1.,0.));
#236 = CONICAL_SURFACE('',#237,4.,0.785398163397);
#237 = AXIS2_PLACEMENT_3D('',#238,#239,#240);
#238 = CARTESIAN_POINT('',(0.,0.,-0.1));
#239 = DIRECTION('',(-0.,-0.,-1.));
#240 = DIRECTION('',(6.E-17,1.,-0.));
#241 = ADVANCED_FACE('',(#242),#261,.T.);
#242 = FACE_BOUND('',#243,.F.);
#243 = EDGE_LOOP('',(#244,#252,#253,#254));
#244 = ORIENTED_EDGE('',*,*,#245,.F.);
#245 = EDGE_CURVE('',#64,#246,#248,.T.);
#246 = VERTEX_POINT('',#247);
#247 = CARTESIAN_POINT('',(0.,3.9,-1.));
#248 = LINE('',#249,#250);
#249 = CARTESIAN_POINT('',(0.,3.95,-0.95));
#250 = VECTOR('',#251,1.);
#251 = DIRECTION('',(0.,-0.707106781187,-0.707106781187));
#252 = ORIENTED_EDGE('',*,*,#71,.T.);
#253 = ORIENTED_EDGE('',*,*,#125,.T.);
#254 = ORIENTED_EDGE('',*,*,#255,.F.);
#255 = EDGE_CURVE('',#246,#126,#256,.T.);
#256 = CIRCLE('',#257,3.9);
#257 = AXIS2_PLACEMENT_3D('',#258,#259,#260);
#258 = CARTESIAN_POINT('',(0.,0.,-1.));
#259 = DIRECTION('',(0.,-0.,1.));
#260 = DIRECTION('',(6.E-17,1.,0.));
#261 = CONICAL_SURFACE('',#262,4.,0.785398163397);
#262 = AXIS2_PLACEMENT_3D('',#263,#264,#265);
#263 = CARTESIAN_POINT('',(0.,0.,-0.9));
#264 = DIRECTION('',(0.,0.,1.));
#265 = DIRECTION('',(6.E-17,1.,-0.));
#266 = ADVANCED_FACE('',(#267,#320,#458,#469,#480,#491),#502,.T.);
#267 = FACE_BOUND('',#268,.T.);
#268 = EDGE_LOOP('',(#269,#270,#279,#287,#296,#304,#313,#319));
#269 = ORIENTED_EDGE('',*,*,#111,.T.);
#270 = ORIENTED_EDGE('',*,*,#271,.T.);
#271 = EDGE_CURVE('',#104,#272,#274,.T.);
#272 = VERTEX_POINT('',#273);
#273 = CARTESIAN_POINT('',(0.,-35.9,0.));
#274 = CIRCLE('',#275,3.9);
#275 = AXIS2_PLACEMENT_3D('',#276,#277,#278);
#276 = CARTESIAN_POINT('',(0.,-32.,0.));
#277 = DIRECTION('',(0.,0.,1.));
#278 = DIRECTION('',(-1.,0.,0.));
#279 = ORIENTED_EDGE('',*,*,#280,.T.);
#280 = EDGE_CURVE('',#272,#281,#283,.T.);
#281 = VERTEX_POINT('',#282);
#282 = CARTESIAN_POINT('',(57.,-35.9,0.));
#283 = LINE('',#284,#285);
#284 = CARTESIAN_POINT('',(0.,-35.9,0.));
#285 = VECTOR('',#286,1.);
#286 = DIRECTION('',(1.,0.,0.));
#287 = ORIENTED_EDGE('',*,*,#288,.T.);
#288 = EDGE_CURVE('',#281,#289,#291,.T.);
#289 = VERTEX_POINT('',#290);
#290 = CARTESIAN_POINT('',(60.9,-32.,-1.E-15));
#291 = CIRCLE('',#292,3.9);
#292 = AXIS2_PLACEMENT_3D('',#293,#294,#295);
#293 = CARTESIAN_POINT('',(57.,-32.,0.));
#294 = DIRECTION('',(-0.,0.,1.));
#295 = DIRECTION('',(0.,-1.,0.));
#296 = ORIENTED_EDGE('',*,*,#297,.T.);
#297 = EDGE_CURVE('',#289,#298,#300,.T.);
#298 = VERTEX_POINT('',#299);
#299 = CARTESIAN_POINT('',(60.9,0.,2.E-15));
#300 = LINE('',#301,#302);
#301 = CARTESIAN_POINT('',(60.9,-32.,0.));
#302 = VECTOR('',#303,1.);
#303 = DIRECTION('',(0.,1.,0.));
#304 = ORIENTED_EDGE('',*,*,#305,.T.);
#305 = EDGE_CURVE('',#298,#306,#308,.T.);
#306 = VERTEX_POINT('',#307);
#307 = CARTESIAN_POINT('',(57.,3.9,-1.E-15));
#308 = CIRCLE('',#309,3.9);
#309 = AXIS2_PLACEMENT_3D('',#310,#311,#312);
#310 = CARTESIAN_POINT('',(57.,0.,0.));
#311 = DIRECTION('',(0.,0.,1.));
#312 = DIRECTION('',(1.,0.,-0.));
#313 = ORIENTED_EDGE('',*,*,#314,.T.);
#314 = EDGE_CURVE('',#306,#221,#315,.T.);
#315 = LINE('',#316,#317);
#316 = CARTESIAN_POINT('',(57.,3.9,0.));
#317 = VECTOR('',#318,1.);
#318 = DIRECTION('',(-1.,0.,0.));
#319 = ORIENTED_EDGE('',*,*,#230,.T.);
#320 = FACE_BOUND('',#321,.T.);
#321 = EDGE_LOOP('',(#322,#332,#341,#349,#358,#366,#375,#383,#392,#400,
    #409,#417,#426,#434,#443,#451));
#322 = ORIENTED_EDGE('',*,*,#323,.F.);
#323 = EDGE_CURVE('',#324,#326,#328,.T.);
#324 = VERTEX_POINT('',#325);
#325 = CARTESIAN_POINT('',(29.5,-9.4,1.E-15));
#326 = VERTEX_POINT('',#327);
#327 = CARTESIAN_POINT('',(13.,-9.4,1.E-15));
#328 = LINE('',#329,#330);
#329 = CARTESIAN_POINT('',(29.5,-9.4,0.));
#330 = VECTOR('',#331,1.);
#331 = DIRECTION('',(-1.,0.,0.));
#332 = ORIENTED_EDGE('',*,*,#333,.F.);
#333 = EDGE_CURVE('',#334,#324,#336,.T.);
#334 = VERTEX_POINT('',#335);
#335 = CARTESIAN_POINT('',(30.9,-8.,-3.E-15));
#336 = CIRCLE('',#337,1.4);
#337 = AXIS2_PLACEMENT_3D('',#338,#339,#340);
#338 = CARTESIAN_POINT('',(29.5,-8.,0.));
#339 = DIRECTION('',(0.,0.,-1.));
#340 = DIRECTION('',(1.,0.,0.));
#341 = ORIENTED_EDGE('',*,*,#342,.F.);
#342 = EDGE_CURVE('',#343,#334,#345,.T.);
#343 = VERTEX_POINT('',#344);
#344 = CARTESIAN_POINT('',(30.9,-0.5,-1.E-15));
#345 = LINE('',#346,#347);
#346 = CARTESIAN_POINT('',(30.9,-0.5,0.));
#347 = VECTOR('',#348,1.);
#348 = DIRECTION('',(-0.,-1.,-0.));
#349 = ORIENTED_EDGE('',*,*,#350,.F.);
#350 = EDGE_CURVE('',#351,#343,#353,.T.);
#351 = VERTEX_POINT('',#352);
#352 = CARTESIAN_POINT('',(32.5,1.1,0.));
#353 = CIRCLE('',#354,1.6);
#354 = AXIS2_PLACEMENT_3D('',#355,#356,#357);
#355 = CARTESIAN_POINT('',(32.5,-0.5,0.));
#356 = DIRECTION('',(0.,-0.,1.));
#357 = DIRECTION('',(0.,1.,0.));
#358 = ORIENTED_EDGE('',*,*,#359,.F.);
#359 = EDGE_CURVE('',#360,#351,#362,.T.);
#360 = VERTEX_POINT('',#361);
#361 = CARTESIAN_POINT('',(47.5,1.1,-1.E-15));
#362 = LINE('',#363,#364);
#363 = CARTESIAN_POINT('',(47.5,1.1,0.));
#364 = VECTOR('',#365,1.);
#365 = DIRECTION('',(-1.,-0.,-0.));
#366 = ORIENTED_EDGE('',*,*,#367,.F.);
#367 = EDGE_CURVE('',#368,#360,#370,.T.);
#368 = VERTEX_POINT('',#369);
#369 = CARTESIAN_POINT('',(49.1,-0.5,2.E-15));
#370 = CIRCLE('',#371,1.6);
#371 = AXIS2_PLACEMENT_3D('',#372,#373,#374);
#372 = CARTESIAN_POINT('',(47.5,-0.5,0.));
#373 = DIRECTION('',(-0.,0.,1.));
#374 = DIRECTION('',(1.,-1.5E-16,0.));
#375 = ORIENTED_EDGE('',*,*,#376,.F.);
#376 = EDGE_CURVE('',#377,#368,#379,.T.);
#377 = VERTEX_POINT('',#378);
#378 = CARTESIAN_POINT('',(49.1,-9.5,-1.E-15));
#379 = LINE('',#380,#381);
#380 = CARTESIAN_POINT('',(49.1,-9.5,0.));
#381 = VECTOR('',#382,1.);
#382 = DIRECTION('',(0.,1.,0.));
#383 = ORIENTED_EDGE('',*,*,#384,.F.);
#384 = EDGE_CURVE('',#385,#377,#387,.T.);
#385 = VERTEX_POINT('',#386);
#386 = CARTESIAN_POINT('',(47.5,-11.1,-1.E-15));
#387 = CIRCLE('',#388,1.6);
#388 = AXIS2_PLACEMENT_3D('',#389,#390,#391);
#389 = CARTESIAN_POINT('',(47.5,-9.5,0.));
#390 = DIRECTION('',(-0.,0.,1.));
#391 = DIRECTION('',(0.,-1.,0.));
#392 = ORIENTED_EDGE('',*,*,#393,.F.);
#393 = EDGE_CURVE('',#394,#385,#396,.T.);
#394 = VERTEX_POINT('',#395);
#395 = CARTESIAN_POINT('',(34.,-11.1,-1.E-15));
#396 = LINE('',#397,#398);
#397 = CARTESIAN_POINT('',(34.,-11.1,0.));
#398 = VECTOR('',#399,1.);
#399 = DIRECTION('',(1.,0.,0.));
#400 = ORIENTED_EDGE('',*,*,#401,.F.);
#401 = EDGE_CURVE('',#402,#394,#404,.T.);
#402 = VERTEX_POINT('',#403);
#403 = CARTESIAN_POINT('',(32.6,-12.5,0.));
#404 = CIRCLE('',#405,1.4);
#405 = AXIS2_PLACEMENT_3D('',#406,#407,#408);
#406 = CARTESIAN_POINT('',(34.,-12.5,0.));
#407 = DIRECTION('',(0.,0.,-1.));
#408 = DIRECTION('',(-1.,0.,0.));
#409 = ORIENTED_EDGE('',*,*,#410,.F.);
#410 = EDGE_CURVE('',#411,#402,#413,.T.);
#411 = VERTEX_POINT('',#412);
#412 = CARTESIAN_POINT('',(32.6,-26.2,-1.E-15));
#413 = LINE('',#414,#415);
#414 = CARTESIAN_POINT('',(32.6,-26.2,0.));
#415 = VECTOR('',#416,1.);
#416 = DIRECTION('',(0.,1.,0.));
#417 = ORIENTED_EDGE('',*,*,#418,.F.);
#418 = EDGE_CURVE('',#419,#411,#421,.T.);
#419 = VERTEX_POINT('',#420);
#420 = CARTESIAN_POINT('',(31.,-27.8,-3.E-15));
#421 = CIRCLE('',#422,1.6);
#422 = AXIS2_PLACEMENT_3D('',#423,#424,#425);
#423 = CARTESIAN_POINT('',(31.,-26.2,0.));
#424 = DIRECTION('',(-0.,0.,1.));
#425 = DIRECTION('',(0.,-1.,0.));
#426 = ORIENTED_EDGE('',*,*,#427,.F.);
#427 = EDGE_CURVE('',#428,#419,#430,.T.);
#428 = VERTEX_POINT('',#429);
#429 = CARTESIAN_POINT('',(13.,-27.8,0.));
#430 = LINE('',#431,#432);
#431 = CARTESIAN_POINT('',(13.,-27.8,0.));
#432 = VECTOR('',#433,1.);
#433 = DIRECTION('',(1.,0.,0.));
#434 = ORIENTED_EDGE('',*,*,#435,.F.);
#435 = EDGE_CURVE('',#436,#428,#438,.T.);
#436 = VERTEX_POINT('',#437);
#437 = CARTESIAN_POINT('',(11.4,-26.2,-1.E-15));
#438 = CIRCLE('',#439,1.6);
#439 = AXIS2_PLACEMENT_3D('',#440,#441,#442);
#440 = CARTESIAN_POINT('',(13.,-26.2,0.));
#441 = DIRECTION('',(0.,0.,1.));
#442 = DIRECTION('',(-1.,0.,0.));
#443 = ORIENTED_EDGE('',*,*,#444,.F.);
#444 = EDGE_CURVE('',#445,#436,#447,.T.);
#445 = VERTEX_POINT('',#446);
#446 = CARTESIAN_POINT('',(11.4,-11.,0.));
#447 = LINE('',#448,#449);
#448 = CARTESIAN_POINT('',(11.4,-11.,0.));
#449 = VECTOR('',#450,1.);
#450 = DIRECTION('',(0.,-1.,0.));
#451 = ORIENTED_EDGE('',*,*,#452,.F.);
#452 = EDGE_CURVE('',#326,#445,#453,.T.);
#453 = CIRCLE('',#454,1.6);
#454 = AXIS2_PLACEMENT_3D('',#455,#456,#457);
#455 = CARTESIAN_POINT('',(13.,-11.,0.));
#456 = DIRECTION('',(0.,-0.,1.));
#457 = DIRECTION('',(0.,1.,0.));
#458 = FACE_BOUND('',#459,.T.);
#459 = EDGE_LOOP('',(#460));
#460 = ORIENTED_EDGE('',*,*,#461,.F.);
#461 = EDGE_CURVE('',#462,#462,#464,.T.);
#462 = VERTEX_POINT('',#463);
#463 = CARTESIAN_POINT('',(58.7,-32.,-1.E-15));
#464 = CIRCLE('',#465,1.7);
#465 = AXIS2_PLACEMENT_3D('',#466,#467,#468);
#466 = CARTESIAN_POINT('',(57.,-32.,0.));
#467 = DIRECTION('',(0.,0.,1.));
#468 = DIRECTION('',(1.,0.,-0.));
#469 = FACE_BOUND('',#470,.T.);
#470 = EDGE_LOOP('',(#471));
#471 = ORIENTED_EDGE('',*,*,#472,.F.);
#472 = EDGE_CURVE('',#473,#473,#475,.T.);
#473 = VERTEX_POINT('',#474);
#474 = CARTESIAN_POINT('',(1.7,-32.,0.));
#475 = CIRCLE('',#476,1.7);
#476 = AXIS2_PLACEMENT_3D('',#477,#478,#479);
#477 = CARTESIAN_POINT('',(0.,-32.,0.));
#478 = DIRECTION('',(0.,0.,1.));
#479 = DIRECTION('',(1.,0.,-0.));
#480 = FACE_BOUND('',#481,.T.);
#481 = EDGE_LOOP('',(#482));
#482 = ORIENTED_EDGE('',*,*,#483,.F.);
#483 = EDGE_CURVE('',#484,#484,#486,.T.);
#484 = VERTEX_POINT('',#485);
#485 = CARTESIAN_POINT('',(58.7,0.,-1.E-15));
#486 = CIRCLE('',#487,1.7);
#487 = AXIS2_PLACEMENT_3D('',#488,#489,#490);
#488 = CARTESIAN_POINT('',(57.,0.,0.));
#489 = DIRECTION('',(0.,0.,1.));
#490 = DIRECTION('',(1.,0.,-0.));
#491 = FACE_BOUND('',#492,.T.);
#492 = EDGE_LOOP('',(#493));
#493 = ORIENTED_EDGE('',*,*,#494,.F.);
#494 = EDGE_CURVE('',#495,#495,#497,.T.);
#495 = VERTEX_POINT('',#496);
#496 = CARTESIAN_POINT('',(1.7,0.,0.));
#497 = CIRCLE('',#498,1.7);
#498 = AXIS2_PLACEMENT_3D('',#499,#500,#501);
#499 = CARTESIAN_POINT('',(0.,0.,0.));
#500 = DIRECTION('',(0.,0.,1.));
#501 = DIRECTION('',(1.,0.,-0.));
#502 = PLANE('',#503);
#503 = AXIS2_PLACEMENT_3D('',#504,#505,#506);
#504 = CARTESIAN_POINT('',(28.906148198169,-14.90089165624,0.));
#505 = DIRECTION('',(0.,0.,1.));
#506 = DIRECTION('',(1.,0.,0.));
#507 = ADVANCED_FACE('',(#508),#519,.T.);
#508 = FACE_BOUND('',#509,.T.);
#509 = EDGE_LOOP('',(#510,#511,#512,#518));
#510 = ORIENTED_EDGE('',*,*,#103,.F.);
#511 = ORIENTED_EDGE('',*,*,#174,.T.);
#512 = ORIENTED_EDGE('',*,*,#513,.T.);
#513 = EDGE_CURVE('',#167,#272,#514,.T.);
#514 = LINE('',#515,#516);
#515 = CARTESIAN_POINT('',(-2.4E-16,-36.,-0.1));
#516 = VECTOR('',#517,1.);
#517 = DIRECTION('',(4.E-17,0.707106781187,0.707106781187));
#518 = ORIENTED_EDGE('',*,*,#271,.F.);
#519 = CONICAL_SURFACE('',#520,4.,0.785398163397);
#520 = AXIS2_PLACEMENT_3D('',#521,#522,#523);
#521 = CARTESIAN_POINT('',(0.,-32.,-0.1));
#522 = DIRECTION('',(-0.,-0.,-1.));
#523 = DIRECTION('',(-1.,0.,0.));
#524 = ADVANCED_FACE('',(#525,#578,#716,#727,#738,#749),#760,.F.);
#525 = FACE_BOUND('',#526,.F.);
#526 = EDGE_LOOP('',(#527,#528,#537,#545,#554,#562,#571,#577));
#527 = ORIENTED_EDGE('',*,*,#142,.T.);
#528 = ORIENTED_EDGE('',*,*,#529,.T.);
#529 = EDGE_CURVE('',#135,#530,#532,.T.);
#530 = VERTEX_POINT('',#531);
#531 = CARTESIAN_POINT('',(-0.,-35.9,-1.));
#532 = CIRCLE('',#533,3.9);
#533 = AXIS2_PLACEMENT_3D('',#534,#535,#536);
#534 = CARTESIAN_POINT('',(0.,-32.,-1.));
#535 = DIRECTION('',(0.,0.,1.));
#536 = DIRECTION('',(-1.,0.,0.));
#537 = ORIENTED_EDGE('',*,*,#538,.T.);
#538 = EDGE_CURVE('',#530,#539,#541,.T.);
#539 = VERTEX_POINT('',#540);
#540 = CARTESIAN_POINT('',(57.,-35.9,-1.));
#541 = LINE('',#542,#543);
#542 = CARTESIAN_POINT('',(0.,-35.9,-1.));
#543 = VECTOR('',#544,1.);
#544 = DIRECTION('',(1.,0.,0.));
#545 = ORIENTED_EDGE('',*,*,#546,.T.);
#546 = EDGE_CURVE('',#539,#547,#549,.T.);
#547 = VERTEX_POINT('',#548);
#548 = CARTESIAN_POINT('',(60.9,-32.,-1.));
#549 = CIRCLE('',#550,3.9);
#550 = AXIS2_PLACEMENT_3D('',#551,#552,#553);
#551 = CARTESIAN_POINT('',(57.,-32.,-1.));
#552 = DIRECTION('',(-0.,0.,1.));
#553 = DIRECTION('',(0.,-1.,0.));
#554 = ORIENTED_EDGE('',*,*,#555,.T.);
#555 = EDGE_CURVE('',#547,#556,#558,.T.);
#556 = VERTEX_POINT('',#557);
#557 = CARTESIAN_POINT('',(60.9,0.,-1.));
#558 = LINE('',#559,#560);
#559 = CARTESIAN_POINT('',(60.9,-32.,-1.));
#560 = VECTOR('',#561,1.);
#561 = DIRECTION('',(0.,1.,0.));
#562 = ORIENTED_EDGE('',*,*,#563,.T.);
#563 = EDGE_CURVE('',#556,#564,#566,.T.);
#564 = VERTEX_POINT('',#565);
#565 = CARTESIAN_POINT('',(57.,3.9,-1.));
#566 = CIRCLE('',#567,3.9);
#567 = AXIS2_PLACEMENT_3D('',#568,#569,#570);
#568 = CARTESIAN_POINT('',(57.,0.,-1.));
#569 = DIRECTION('',(0.,0.,1.));
#570 = DIRECTION('',(1.,0.,-0.));
#571 = ORIENTED_EDGE('',*,*,#572,.T.);
#572 = EDGE_CURVE('',#564,#246,#573,.T.);
#573 = LINE('',#574,#575);
#574 = CARTESIAN_POINT('',(57.,3.9,-1.));
#575 = VECTOR('',#576,1.);
#576 = DIRECTION('',(-1.,0.,0.));
#577 = ORIENTED_EDGE('',*,*,#255,.T.);
#578 = FACE_BOUND('',#579,.F.);
#579 = EDGE_LOOP('',(#580,#590,#599,#607,#616,#624,#633,#641,#650,#658,
    #667,#675,#684,#692,#701,#709));
#580 = ORIENTED_EDGE('',*,*,#581,.F.);
#581 = EDGE_CURVE('',#582,#584,#586,.T.);
#582 = VERTEX_POINT('',#583);
#583 = CARTESIAN_POINT('',(29.5,-9.4,-1.));
#584 = VERTEX_POINT('',#585);
#585 = CARTESIAN_POINT('',(13.,-9.4,-1.));
#586 = LINE('',#587,#588);
#587 = CARTESIAN_POINT('',(29.5,-9.4,-1.));
#588 = VECTOR('',#589,1.);
#589 = DIRECTION('',(-1.,0.,0.));
#590 = ORIENTED_EDGE('',*,*,#591,.F.);
#591 = EDGE_CURVE('',#592,#582,#594,.T.);
#592 = VERTEX_POINT('',#593);
#593 = CARTESIAN_POINT('',(30.9,-8.,-1.));
#594 = CIRCLE('',#595,1.4);
#595 = AXIS2_PLACEMENT_3D('',#596,#597,#598);
#596 = CARTESIAN_POINT('',(29.5,-8.,-1.));
#597 = DIRECTION('',(0.,0.,-1.));
#598 = DIRECTION('',(1.,0.,0.));
#599 = ORIENTED_EDGE('',*,*,#600,.F.);
#600 = EDGE_CURVE('',#601,#592,#603,.T.);
#601 = VERTEX_POINT('',#602);
#602 = CARTESIAN_POINT('',(30.9,-0.5,-1.));
#603 = LINE('',#604,#605);
#604 = CARTESIAN_POINT('',(30.9,-0.5,-1.));
#605 = VECTOR('',#606,1.);
#606 = DIRECTION('',(-0.,-1.,-0.));
#607 = ORIENTED_EDGE('',*,*,#608,.F.);
#608 = EDGE_CURVE('',#609,#601,#611,.T.);
#609 = VERTEX_POINT('',#610);
#610 = CARTESIAN_POINT('',(32.5,1.1,-1.));
#611 = CIRCLE('',#612,1.6);
#612 = AXIS2_PLACEMENT_3D('',#613,#614,#615);
#613 = CARTESIAN_POINT('',(32.5,-0.5,-1.));
#614 = DIRECTION('',(0.,-0.,1.));
#615 = DIRECTION('',(0.,1.,0.));
#616 = ORIENTED_EDGE('',*,*,#617,.F.);
#617 = EDGE_CURVE('',#618,#609,#620,.T.);
#618 = VERTEX_POINT('',#619);
#619 = CARTESIAN_POINT('',(47.5,1.1,-1.));
#620 = LINE('',#621,#622);
#621 = CARTESIAN_POINT('',(47.5,1.1,-1.));
#622 = VECTOR('',#623,1.);
#623 = DIRECTION('',(-1.,-0.,-0.));
#624 = ORIENTED_EDGE('',*,*,#625,.F.);
#625 = EDGE_CURVE('',#626,#618,#628,.T.);
#626 = VERTEX_POINT('',#627);
#627 = CARTESIAN_POINT('',(49.1,-0.5,-1.));
#628 = CIRCLE('',#629,1.6);
#629 = AXIS2_PLACEMENT_3D('',#630,#631,#632);
#630 = CARTESIAN_POINT('',(47.5,-0.5,-1.));
#631 = DIRECTION('',(-0.,0.,1.));
#632 = DIRECTION('',(1.,-1.5E-16,0.));
#633 = ORIENTED_EDGE('',*,*,#634,.F.);
#634 = EDGE_CURVE('',#635,#626,#637,.T.);
#635 = VERTEX_POINT('',#636);
#636 = CARTESIAN_POINT('',(49.1,-9.5,-1.));
#637 = LINE('',#638,#639);
#638 = CARTESIAN_POINT('',(49.1,-9.5,-1.));
#639 = VECTOR('',#640,1.);
#640 = DIRECTION('',(0.,1.,0.));
#641 = ORIENTED_EDGE('',*,*,#642,.F.);
#642 = EDGE_CURVE('',#643,#635,#645,.T.);
#643 = VERTEX_POINT('',#644);
#644 = CARTESIAN_POINT('',(47.5,-11.1,-1.));
#645 = CIRCLE('',#646,1.6);
#646 = AXIS2_PLACEMENT_3D('',#647,#648,#649);
#647 = CARTESIAN_POINT('',(47.5,-9.5,-1.));
#648 = DIRECTION('',(-0.,0.,1.));
#649 = DIRECTION('',(0.,-1.,0.));
#650 = ORIENTED_EDGE('',*,*,#651,.F.);
#651 = EDGE_CURVE('',#652,#643,#654,.T.);
#652 = VERTEX_POINT('',#653);
#653 = CARTESIAN_POINT('',(34.,-11.1,-1.));
#654 = LINE('',#655,#656);
#655 = CARTESIAN_POINT('',(34.,-11.1,-1.));
#656 = VECTOR('',#657,1.);
#657 = DIRECTION('',(1.,0.,0.));
#658 = ORIENTED_EDGE('',*,*,#659,.F.);
#659 = EDGE_CURVE('',#660,#652,#662,.T.);
#660 = VERTEX_POINT('',#661);
#661 = CARTESIAN_POINT('',(32.6,-12.5,-1.));
#662 = CIRCLE('',#663,1.4);
#663 = AXIS2_PLACEMENT_3D('',#664,#665,#666);
#664 = CARTESIAN_POINT('',(34.,-12.5,-1.));
#665 = DIRECTION('',(0.,0.,-1.));
#666 = DIRECTION('',(-1.,0.,0.));
#667 = ORIENTED_EDGE('',*,*,#668,.F.);
#668 = EDGE_CURVE('',#669,#660,#671,.T.);
#669 = VERTEX_POINT('',#670);
#670 = CARTESIAN_POINT('',(32.6,-26.2,-1.));
#671 = LINE('',#672,#673);
#672 = CARTESIAN_POINT('',(32.6,-26.2,-1.));
#673 = VECTOR('',#674,1.);
#674 = DIRECTION('',(0.,1.,0.));
#675 = ORIENTED_EDGE('',*,*,#676,.F.);
#676 = EDGE_CURVE('',#677,#669,#679,.T.);
#677 = VERTEX_POINT('',#678);
#678 = CARTESIAN_POINT('',(31.,-27.8,-1.));
#679 = CIRCLE('',#680,1.6);
#680 = AXIS2_PLACEMENT_3D('',#681,#682,#683);
#681 = CARTESIAN_POINT('',(31.,-26.2,-1.));
#682 = DIRECTION('',(-0.,0.,1.));
#683 = DIRECTION('',(0.,-1.,0.));
#684 = ORIENTED_EDGE('',*,*,#685,.F.);
#685 = EDGE_CURVE('',#686,#677,#688,.T.);
#686 = VERTEX_POINT('',#687);
#687 = CARTESIAN_POINT('',(13.,-27.8,-1.));
#688 = LINE('',#689,#690);
#689 = CARTESIAN_POINT('',(13.,-27.8,-1.));
#690 = VECTOR('',#691,1.);
#691 = DIRECTION('',(1.,0.,0.));
#692 = ORIENTED_EDGE('',*,*,#693,.F.);
#693 = EDGE_CURVE('',#694,#686,#696,.T.);
#694 = VERTEX_POINT('',#695);
#695 = CARTESIAN_POINT('',(11.4,-26.2,-1.));
#696 = CIRCLE('',#697,1.6);
#697 = AXIS2_PLACEMENT_3D('',#698,#699,#700);
#698 = CARTESIAN_POINT('',(13.,-26.2,-1.));
#699 = DIRECTION('',(0.,0.,1.));
#700 = DIRECTION('',(-1.,0.,0.));
#701 = ORIENTED_EDGE('',*,*,#702,.F.);
#702 = EDGE_CURVE('',#703,#694,#705,.T.);
#703 = VERTEX_POINT('',#704);
#704 = CARTESIAN_POINT('',(11.4,-11.,-1.));
#705 = LINE('',#706,#707);
#706 = CARTESIAN_POINT('',(11.4,-11.,-1.));
#707 = VECTOR('',#708,1.);
#708 = DIRECTION('',(0.,-1.,0.));
#709 = ORIENTED_EDGE('',*,*,#710,.F.);
#710 = EDGE_CURVE('',#584,#703,#711,.T.);
#711 = CIRCLE('',#712,1.6);
#712 = AXIS2_PLACEMENT_3D('',#713,#714,#715);
#713 = CARTESIAN_POINT('',(13.,-11.,-1.));
#714 = DIRECTION('',(0.,-0.,1.));
#715 = DIRECTION('',(0.,1.,0.));
#716 = FACE_BOUND('',#717,.F.);
#717 = EDGE_LOOP('',(#718));
#718 = ORIENTED_EDGE('',*,*,#719,.F.);
#719 = EDGE_CURVE('',#720,#720,#722,.T.);
#720 = VERTEX_POINT('',#721);
#721 = CARTESIAN_POINT('',(58.7,-32.,-1.));
#722 = CIRCLE('',#723,1.7);
#723 = AXIS2_PLACEMENT_3D('',#724,#725,#726);
#724 = CARTESIAN_POINT('',(57.,-32.,-1.));
#725 = DIRECTION('',(0.,0.,1.));
#726 = DIRECTION('',(1.,0.,-0.));
#727 = FACE_BOUND('',#728,.F.);
#728 = EDGE_LOOP('',(#729));
#729 = ORIENTED_EDGE('',*,*,#730,.F.);
#730 = EDGE_CURVE('',#731,#731,#733,.T.);
#731 = VERTEX_POINT('',#732);
#732 = CARTESIAN_POINT('',(1.7,-32.,-1.));
#733 = CIRCLE('',#734,1.7);
#734 = AXIS2_PLACEMENT_3D('',#735,#736,#737);
#735 = CARTESIAN_POINT('',(0.,-32.,-1.));
#736 = DIRECTION('',(0.,0.,1.));
#737 = DIRECTION('',(1.,0.,-0.));
#738 = FACE_BOUND('',#739,.F.);
#739 = EDGE_LOOP('',(#740));
#740 = ORIENTED_EDGE('',*,*,#741,.F.);
#741 = EDGE_CURVE('',#742,#742,#744,.T.);
#742 = VERTEX_POINT('',#743);
#743 = CARTESIAN_POINT('',(58.7,0.,-1.));
#744 = CIRCLE('',#745,1.7);
#745 = AXIS2_PLACEMENT_3D('',#746,#747,#748);
#746 = CARTESIAN_POINT('',(57.,0.,-1.));
#747 = DIRECTION('',(0.,0.,1.));
#748 = DIRECTION('',(1.,0.,-0.));
#749 = FACE_BOUND('',#750,.F.);
#750 = EDGE_LOOP('',(#751));
#751 = ORIENTED_EDGE('',*,*,#752,.F.);
#752 = EDGE_CURVE('',#753,#753,#755,.T.);
#753 = VERTEX_POINT('',#754);
#754 = CARTESIAN_POINT('',(1.7,0.,-1.));
#755 = CIRCLE('',#756,1.7);
#756 = AXIS2_PLACEMENT_3D('',#757,#758,#759);
#757 = CARTESIAN_POINT('',(0.,0.,-1.));
#758 = DIRECTION('',(0.,0.,1.));
#759 = DIRECTION('',(1.,0.,-0.));
#760 = PLANE('',#761);
#761 = AXIS2_PLACEMENT_3D('',#762,#763,#764);
#762 = CARTESIAN_POINT('',(28.906148198169,-14.90089165624,-1.));
#763 = DIRECTION('',(0.,0.,1.));
#764 = DIRECTION('',(1.,0.,0.));
#765 = ADVANCED_FACE('',(#766),#777,.T.);
#766 = FACE_BOUND('',#767,.F.);
#767 = EDGE_LOOP('',(#768,#769,#770,#776));
#768 = ORIENTED_EDGE('',*,*,#134,.F.);
#769 = ORIENTED_EDGE('',*,*,#157,.T.);
#770 = ORIENTED_EDGE('',*,*,#771,.T.);
#771 = EDGE_CURVE('',#158,#530,#772,.T.);
#772 = LINE('',#773,#774);
#773 = CARTESIAN_POINT('',(-2.4E-16,-36.,-0.9));
#774 = VECTOR('',#775,1.);
#775 = DIRECTION('',(4.E-17,0.707106781187,-0.707106781187));
#776 = ORIENTED_EDGE('',*,*,#529,.F.);
#777 = CONICAL_SURFACE('',#778,4.,0.785398163397);
#778 = AXIS2_PLACEMENT_3D('',#779,#780,#781);
#779 = CARTESIAN_POINT('',(0.,-32.,-0.9));
#780 = DIRECTION('',(0.,0.,1.));
#781 = DIRECTION('',(-1.,0.,0.));
#782 = ADVANCED_FACE('',(#783),#808,.T.);
#783 = FACE_BOUND('',#784,.T.);
#784 = EDGE_LOOP('',(#785,#786,#794,#802));
#785 = ORIENTED_EDGE('',*,*,#166,.T.);
#786 = ORIENTED_EDGE('',*,*,#787,.T.);
#787 = EDGE_CURVE('',#158,#788,#790,.T.);
#788 = VERTEX_POINT('',#789);
#789 = CARTESIAN_POINT('',(57.,-36.,-0.9));
#790 = LINE('',#791,#792);
#791 = CARTESIAN_POINT('',(0.,-36.,-0.9));
#792 = VECTOR('',#793,1.);
#793 = DIRECTION('',(1.,0.,0.));
#794 = ORIENTED_EDGE('',*,*,#795,.F.);
#795 = EDGE_CURVE('',#796,#788,#798,.T.);
#796 = VERTEX_POINT('',#797);
#797 = CARTESIAN_POINT('',(57.,-36.,-0.1));
#798 = LINE('',#799,#800);
#799 = CARTESIAN_POINT('',(57.,-36.,0.));
#800 = VECTOR('',#801,1.);
#801 = DIRECTION('',(-0.,-0.,-1.));
#802 = ORIENTED_EDGE('',*,*,#803,.F.);
#803 = EDGE_CURVE('',#167,#796,#804,.T.);
#804 = LINE('',#805,#806);
#805 = CARTESIAN_POINT('',(0.,-36.,-0.1));
#806 = VECTOR('',#807,1.);
#807 = DIRECTION('',(1.,0.,0.));
#808 = PLANE('',#809);
#809 = AXIS2_PLACEMENT_3D('',#810,#811,#812);
#810 = CARTESIAN_POINT('',(-6.3E-16,-36.,0.));
#811 = DIRECTION('',(0.,-1.,0.));
#812 = DIRECTION('',(1.,0.,0.));
#813 = ADVANCED_FACE('',(#814),#841,.T.);
#814 = FACE_BOUND('',#815,.T.);
#815 = EDGE_LOOP('',(#816,#826,#833,#834));
#816 = ORIENTED_EDGE('',*,*,#817,.T.);
#817 = EDGE_CURVE('',#818,#820,#822,.T.);
#818 = VERTEX_POINT('',#819);
#819 = CARTESIAN_POINT('',(61.,0.,-1.E-01));
#820 = VERTEX_POINT('',#821);
#821 = CARTESIAN_POINT('',(61.,0.,-0.9));
#822 = LINE('',#823,#824);
#823 = CARTESIAN_POINT('',(61.,0.,0.));
#824 = VECTOR('',#825,1.);
#825 = DIRECTION('',(-0.,-0.,-1.));
#826 = ORIENTED_EDGE('',*,*,#827,.T.);
#827 = EDGE_CURVE('',#820,#192,#828,.T.);
#828 = CIRCLE('',#829,4.);
#829 = AXIS2_PLACEMENT_3D('',#830,#831,#832);
#830 = CARTESIAN_POINT('',(57.,0.,-0.9));
#831 = DIRECTION('',(0.,0.,1.));
#832 = DIRECTION('',(1.,0.,-0.));
#833 = ORIENTED_EDGE('',*,*,#189,.F.);
#834 = ORIENTED_EDGE('',*,*,#835,.F.);
#835 = EDGE_CURVE('',#818,#190,#836,.T.);
#836 = CIRCLE('',#837,4.);
#837 = AXIS2_PLACEMENT_3D('',#838,#839,#840);
#838 = CARTESIAN_POINT('',(57.,0.,-0.1));
#839 = DIRECTION('',(0.,0.,1.));
#840 = DIRECTION('',(1.,0.,-0.));
#841 = CYLINDRICAL_SURFACE('',#842,4.);
#842 = AXIS2_PLACEMENT_3D('',#843,#844,#845);
#843 = CARTESIAN_POINT('',(57.,0.,0.));
#844 = DIRECTION('',(0.,0.,1.));
#845 = DIRECTION('',(1.,0.,0.));
#846 = ADVANCED_FACE('',(#847),#858,.T.);
#847 = FACE_BOUND('',#848,.T.);
#848 = EDGE_LOOP('',(#849,#855,#856,#857));
#849 = ORIENTED_EDGE('',*,*,#850,.F.);
#850 = EDGE_CURVE('',#190,#306,#851,.T.);
#851 = LINE('',#852,#853);
#852 = CARTESIAN_POINT('',(57.,4.,-0.1));
#853 = VECTOR('',#854,1.);
#854 = DIRECTION('',(4.3E-16,-0.707106781187,0.707106781187));
#855 = ORIENTED_EDGE('',*,*,#206,.T.);
#856 = ORIENTED_EDGE('',*,*,#220,.T.);
#857 = ORIENTED_EDGE('',*,*,#314,.F.);
#858 = PLANE('',#859);
#859 = AXIS2_PLACEMENT_3D('',#860,#861,#862);
#860 = CARTESIAN_POINT('',(57.,3.95,-5.E-02));
#861 = DIRECTION('',(0.,0.707106781187,0.707106781187));
#862 = DIRECTION('',(-1.,0.,0.));
#863 = ADVANCED_FACE('',(#864),#875,.F.);
#864 = FACE_BOUND('',#865,.F.);
#865 = EDGE_LOOP('',(#866,#872,#873,#874));
#866 = ORIENTED_EDGE('',*,*,#867,.F.);
#867 = EDGE_CURVE('',#192,#564,#868,.T.);
#868 = LINE('',#869,#870);
#869 = CARTESIAN_POINT('',(57.,4.,-0.9));
#870 = VECTOR('',#871,1.);
#871 = DIRECTION('',(4.3E-16,-0.707106781187,-0.707106781187));
#872 = ORIENTED_EDGE('',*,*,#199,.T.);
#873 = ORIENTED_EDGE('',*,*,#245,.T.);
#874 = ORIENTED_EDGE('',*,*,#572,.F.);
#875 = PLANE('',#876);
#876 = AXIS2_PLACEMENT_3D('',#877,#878,#879);
#877 = CARTESIAN_POINT('',(57.,3.95,-0.95));
#878 = DIRECTION('',(-0.,-0.707106781187,0.707106781187));
#879 = DIRECTION('',(-1.,0.,0.));
#880 = ADVANCED_FACE('',(#881),#892,.T.);
#881 = FACE_BOUND('',#882,.T.);
#882 = EDGE_LOOP('',(#883,#884,#885,#891));
#883 = ORIENTED_EDGE('',*,*,#513,.F.);
#884 = ORIENTED_EDGE('',*,*,#803,.T.);
#885 = ORIENTED_EDGE('',*,*,#886,.T.);
#886 = EDGE_CURVE('',#796,#281,#887,.T.);
#887 = LINE('',#888,#889);
#888 = CARTESIAN_POINT('',(57.,-35.95,-5.E-02));
#889 = VECTOR('',#890,1.);
#890 = DIRECTION('',(0.,0.707106781187,0.707106781187));
#891 = ORIENTED_EDGE('',*,*,#280,.F.);
#892 = PLANE('',#893);
#893 = AXIS2_PLACEMENT_3D('',#894,#895,#896);
#894 = CARTESIAN_POINT('',(0.,-35.95,-5.E-02));
#895 = DIRECTION('',(0.,-0.707106781187,0.707106781187));
#896 = DIRECTION('',(1.,0.,0.));
#897 = ADVANCED_FACE('',(#898),#909,.T.);
#898 = FACE_BOUND('',#899,.T.);
#899 = EDGE_LOOP('',(#900,#906,#907,#908));
#900 = ORIENTED_EDGE('',*,*,#901,.F.);
#901 = EDGE_CURVE('',#818,#298,#902,.T.);
#902 = LINE('',#903,#904);
#903 = CARTESIAN_POINT('',(60.95,0.,-5.E-02));
#904 = VECTOR('',#905,1.);
#905 = DIRECTION('',(-0.707106781187,0.,0.707106781187));
#906 = ORIENTED_EDGE('',*,*,#835,.T.);
#907 = ORIENTED_EDGE('',*,*,#850,.T.);
#908 = ORIENTED_EDGE('',*,*,#305,.F.);
#909 = CONICAL_SURFACE('',#910,4.,0.785398163397);
#910 = AXIS2_PLACEMENT_3D('',#911,#912,#913);
#911 = CARTESIAN_POINT('',(57.,0.,-0.1));
#912 = DIRECTION('',(-0.,-0.,-1.));
#913 = DIRECTION('',(1.,0.,-0.));
#914 = ADVANCED_FACE('',(#915),#934,.T.);
#915 = FACE_BOUND('',#916,.T.);
#916 = EDGE_LOOP('',(#917,#918,#927,#933));
#917 = ORIENTED_EDGE('',*,*,#886,.F.);
#918 = ORIENTED_EDGE('',*,*,#919,.T.);
#919 = EDGE_CURVE('',#796,#920,#922,.T.);
#920 = VERTEX_POINT('',#921);
#921 = CARTESIAN_POINT('',(61.,-32.,-0.1));
#922 = CIRCLE('',#923,4.);
#923 = AXIS2_PLACEMENT_3D('',#924,#925,#926);
#924 = CARTESIAN_POINT('',(57.,-32.,-0.1));
#925 = DIRECTION('',(-0.,0.,1.));
#926 = DIRECTION('',(0.,-1.,0.));
#927 = ORIENTED_EDGE('',*,*,#928,.T.);
#928 = EDGE_CURVE('',#920,#289,#929,.T.);
#929 = LINE('',#930,#931);
#930 = CARTESIAN_POINT('',(61.,-32.,-0.1));
#931 = VECTOR('',#932,1.);
#932 = DIRECTION('',(-0.707106781187,6.7E-16,0.707106781187));
#933 = ORIENTED_EDGE('',*,*,#288,.F.);
#934 = CONICAL_SURFACE('',#935,4.,0.785398163397);
#935 = AXIS2_PLACEMENT_3D('',#936,#937,#938);
#936 = CARTESIAN_POINT('',(57.,-32.,-0.1));
#937 = DIRECTION('',(-0.,-0.,-1.));
#938 = DIRECTION('',(0.,-1.,0.));
#939 = ADVANCED_FACE('',(#940),#951,.T.);
#940 = FACE_BOUND('',#941,.T.);
#941 = EDGE_LOOP('',(#942,#943,#949,#950));
#942 = ORIENTED_EDGE('',*,*,#928,.F.);
#943 = ORIENTED_EDGE('',*,*,#944,.T.);
#944 = EDGE_CURVE('',#920,#818,#945,.T.);
#945 = LINE('',#946,#947);
#946 = CARTESIAN_POINT('',(61.,-32.,-0.1));
#947 = VECTOR('',#948,1.);
#948 = DIRECTION('',(0.,1.,0.));
#949 = ORIENTED_EDGE('',*,*,#901,.T.);
#950 = ORIENTED_EDGE('',*,*,#297,.F.);
#951 = PLANE('',#952);
#952 = AXIS2_PLACEMENT_3D('',#953,#954,#955);
#953 = CARTESIAN_POINT('',(60.95,-32.,-5.E-02));
#954 = DIRECTION('',(0.707106781187,0.,0.707106781187));
#955 = DIRECTION('',(-0.,1.,0.));
#956 = ADVANCED_FACE('',(#957),#982,.F.);
#957 = FACE_BOUND('',#958,.F.);
#958 = EDGE_LOOP('',(#959,#967,#975,#981));
#959 = ORIENTED_EDGE('',*,*,#960,.F.);
#960 = EDGE_CURVE('',#961,#324,#963,.T.);
#961 = VERTEX_POINT('',#962);
#962 = CARTESIAN_POINT('',(29.5,-9.5,-1.E-01));
#963 = LINE('',#964,#965);
#964 = CARTESIAN_POINT('',(29.5,-9.45,-5.E-02));
#965 = VECTOR('',#966,1.);
#966 = DIRECTION('',(0.,0.707106781187,0.707106781187));
#967 = ORIENTED_EDGE('',*,*,#968,.T.);
#968 = EDGE_CURVE('',#961,#969,#971,.T.);
#969 = VERTEX_POINT('',#970);
#970 = CARTESIAN_POINT('',(13.,-9.5,-1.E-01));
#971 = LINE('',#972,#973);
#972 = CARTESIAN_POINT('',(29.5,-9.5,-0.1));
#973 = VECTOR('',#974,1.);
#974 = DIRECTION('',(-1.,0.,0.));
#975 = ORIENTED_EDGE('',*,*,#976,.T.);
#976 = EDGE_CURVE('',#969,#326,#977,.T.);
#977 = LINE('',#978,#979);
#978 = CARTESIAN_POINT('',(13.,-9.45,-5.E-02));
#979 = VECTOR('',#980,1.);
#980 = DIRECTION('',(0.,0.707106781187,0.707106781187));
#981 = ORIENTED_EDGE('',*,*,#323,.F.);
#982 = PLANE('',#983);
#983 = AXIS2_PLACEMENT_3D('',#984,#985,#986);
#984 = CARTESIAN_POINT('',(29.5,-9.45,-5.E-02));
#985 = DIRECTION('',(0.,0.707106781187,-0.707106781187));
#986 = DIRECTION('',(-1.,0.,0.));
#987 = ADVANCED_FACE('',(#988),#1007,.T.);
#988 = FACE_BOUND('',#989,.F.);
#989 = EDGE_LOOP('',(#990,#998,#1005,#1006));
#990 = ORIENTED_EDGE('',*,*,#991,.F.);
#991 = EDGE_CURVE('',#992,#334,#994,.T.);
#992 = VERTEX_POINT('',#993);
#993 = CARTESIAN_POINT('',(31.,-8.,-0.1));
#994 = LINE('',#995,#996);
#995 = CARTESIAN_POINT('',(30.95,-8.,-5.E-02));
#996 = VECTOR('',#997,1.);
#997 = DIRECTION('',(-0.707106781187,0.,0.707106781187));
#998 = ORIENTED_EDGE('',*,*,#999,.T.);
#999 = EDGE_CURVE('',#992,#961,#1000,.T.);
#1000 = CIRCLE('',#1001,1.5);
#1001 = AXIS2_PLACEMENT_3D('',#1002,#1003,#1004);
#1002 = CARTESIAN_POINT('',(29.5,-8.,-0.1));
#1003 = DIRECTION('',(0.,0.,-1.));
#1004 = DIRECTION('',(1.,0.,0.));
#1005 = ORIENTED_EDGE('',*,*,#960,.T.);
#1006 = ORIENTED_EDGE('',*,*,#333,.F.);
#1007 = CONICAL_SURFACE('',#1008,1.5,0.785398163397);
#1008 = AXIS2_PLACEMENT_3D('',#1009,#1010,#1011);
#1009 = CARTESIAN_POINT('',(29.5,-8.,-0.1));
#1010 = DIRECTION('',(-0.,-0.,-1.));
#1011 = DIRECTION('',(1.,0.,-0.));
#1012 = ADVANCED_FACE('',(#1013),#1032,.F.);
#1013 = FACE_BOUND('',#1014,.F.);
#1014 = EDGE_LOOP('',(#1015,#1016,#1025,#1031));
#1015 = ORIENTED_EDGE('',*,*,#976,.F.);
#1016 = ORIENTED_EDGE('',*,*,#1017,.T.);
#1017 = EDGE_CURVE('',#969,#1018,#1020,.T.);
#1018 = VERTEX_POINT('',#1019);
#1019 = CARTESIAN_POINT('',(11.5,-11.,-0.1));
#1020 = CIRCLE('',#1021,1.5);
#1021 = AXIS2_PLACEMENT_3D('',#1022,#1023,#1024);
#1022 = CARTESIAN_POINT('',(13.,-11.,-0.1));
#1023 = DIRECTION('',(0.,-0.,1.));
#1024 = DIRECTION('',(0.,1.,0.));
#1025 = ORIENTED_EDGE('',*,*,#1026,.T.);
#1026 = EDGE_CURVE('',#1018,#445,#1027,.T.);
#1027 = LINE('',#1028,#1029);
#1028 = CARTESIAN_POINT('',(11.5,-11.,-0.1));
#1029 = VECTOR('',#1030,1.);
#1030 = DIRECTION('',(-0.707106781187,2.E-16,0.707106781187));
#1031 = ORIENTED_EDGE('',*,*,#452,.F.);
#1032 = CONICAL_SURFACE('',#1033,1.5,0.785398163397);
#1033 = AXIS2_PLACEMENT_3D('',#1034,#1035,#1036);
#1034 = CARTESIAN_POINT('',(13.,-11.,-0.1));
#1035 = DIRECTION('',(0.,0.,1.));
#1036 = DIRECTION('',(0.,1.,0.));
#1037 = ADVANCED_FACE('',(#1038),#1056,.T.);
#1038 = FACE_BOUND('',#1039,.F.);
#1039 = EDGE_LOOP('',(#1040,#1048,#1054,#1055));
#1040 = ORIENTED_EDGE('',*,*,#1041,.F.);
#1041 = EDGE_CURVE('',#1042,#343,#1044,.T.);
#1042 = VERTEX_POINT('',#1043);
#1043 = CARTESIAN_POINT('',(31.,-0.5,-0.1));
#1044 = LINE('',#1045,#1046);
#1045 = CARTESIAN_POINT('',(31.,-0.5,-0.1));
#1046 = VECTOR('',#1047,1.);
#1047 = DIRECTION('',(-0.707106781187,4.E-17,0.707106781187));
#1048 = ORIENTED_EDGE('',*,*,#1049,.T.);
#1049 = EDGE_CURVE('',#1042,#992,#1050,.T.);
#1050 = LINE('',#1051,#1052);
#1051 = CARTESIAN_POINT('',(31.,-0.5,-0.1));
#1052 = VECTOR('',#1053,1.);
#1053 = DIRECTION('',(-0.,-1.,-0.));
#1054 = ORIENTED_EDGE('',*,*,#991,.T.);
#1055 = ORIENTED_EDGE('',*,*,#342,.F.);
#1056 = PLANE('',#1057);
#1057 = AXIS2_PLACEMENT_3D('',#1058,#1059,#1060);
#1058 = CARTESIAN_POINT('',(30.95,-0.5,-5.E-02));
#1059 = DIRECTION('',(0.707106781187,0.,0.707106781187));
#1060 = DIRECTION('',(-0.,1.,-0.));
#1061 = ADVANCED_FACE('',(#1062),#1080,.F.);
#1062 = FACE_BOUND('',#1063,.F.);
#1063 = EDGE_LOOP('',(#1064,#1065,#1073,#1079));
#1064 = ORIENTED_EDGE('',*,*,#1026,.F.);
#1065 = ORIENTED_EDGE('',*,*,#1066,.T.);
#1066 = EDGE_CURVE('',#1018,#1067,#1069,.T.);
#1067 = VERTEX_POINT('',#1068);
#1068 = CARTESIAN_POINT('',(11.5,-26.2,-0.1));
#1069 = LINE('',#1070,#1071);
#1070 = CARTESIAN_POINT('',(11.5,-11.,-0.1));
#1071 = VECTOR('',#1072,1.);
#1072 = DIRECTION('',(0.,-1.,0.));
#1073 = ORIENTED_EDGE('',*,*,#1074,.T.);
#1074 = EDGE_CURVE('',#1067,#436,#1075,.T.);
#1075 = LINE('',#1076,#1077);
#1076 = CARTESIAN_POINT('',(11.45,-26.2,-5.E-02));
#1077 = VECTOR('',#1078,1.);
#1078 = DIRECTION('',(-0.707106781187,0.,0.707106781187));
#1079 = ORIENTED_EDGE('',*,*,#444,.F.);
#1080 = PLANE('',#1081);
#1081 = AXIS2_PLACEMENT_3D('',#1082,#1083,#1084);
#1082 = CARTESIAN_POINT('',(11.45,-11.,-5.E-02));
#1083 = DIRECTION('',(-0.707106781187,0.,-0.707106781187));
#1084 = DIRECTION('',(0.,-1.,-0.));
#1085 = ADVANCED_FACE('',(#1086),#1105,.F.);
#1086 = FACE_BOUND('',#1087,.F.);
#1087 = EDGE_LOOP('',(#1088,#1096,#1103,#1104));
#1088 = ORIENTED_EDGE('',*,*,#1089,.F.);
#1089 = EDGE_CURVE('',#1090,#351,#1092,.T.);
#1090 = VERTEX_POINT('',#1091);
#1091 = CARTESIAN_POINT('',(32.5,1.,-0.1));
#1092 = LINE('',#1093,#1094);
#1093 = CARTESIAN_POINT('',(32.5,1.05,-5.E-02));
#1094 = VECTOR('',#1095,1.);
#1095 = DIRECTION('',(0.,0.707106781187,0.707106781187));
#1096 = ORIENTED_EDGE('',*,*,#1097,.T.);
#1097 = EDGE_CURVE('',#1090,#1042,#1098,.T.);
#1098 = CIRCLE('',#1099,1.5);
#1099 = AXIS2_PLACEMENT_3D('',#1100,#1101,#1102);
#1100 = CARTESIAN_POINT('',(32.5,-0.5,-0.1));
#1101 = DIRECTION('',(0.,-0.,1.));
#1102 = DIRECTION('',(0.,1.,0.));
#1103 = ORIENTED_EDGE('',*,*,#1041,.T.);
#1104 = ORIENTED_EDGE('',*,*,#350,.F.);
#1105 = CONICAL_SURFACE('',#1106,1.5,0.785398163397);
#1106 = AXIS2_PLACEMENT_3D('',#1107,#1108,#1109);
#1107 = CARTESIAN_POINT('',(32.5,-0.5,-0.1));
#1108 = DIRECTION('',(0.,0.,1.));
#1109 = DIRECTION('',(0.,1.,0.));
#1110 = ADVANCED_FACE('',(#1111),#1130,.F.);
#1111 = FACE_BOUND('',#1112,.F.);
#1112 = EDGE_LOOP('',(#1113,#1114,#1123,#1129));
#1113 = ORIENTED_EDGE('',*,*,#1074,.F.);
#1114 = ORIENTED_EDGE('',*,*,#1115,.T.);
#1115 = EDGE_CURVE('',#1067,#1116,#1118,.T.);
#1116 = VERTEX_POINT('',#1117);
#1117 = CARTESIAN_POINT('',(13.,-27.7,-0.1));
#1118 = CIRCLE('',#1119,1.5);
#1119 = AXIS2_PLACEMENT_3D('',#1120,#1121,#1122);
#1120 = CARTESIAN_POINT('',(13.,-26.2,-0.1));
#1121 = DIRECTION('',(0.,0.,1.));
#1122 = DIRECTION('',(-1.,0.,0.));
#1123 = ORIENTED_EDGE('',*,*,#1124,.T.);
#1124 = EDGE_CURVE('',#1116,#428,#1125,.T.);
#1125 = LINE('',#1126,#1127);
#1126 = CARTESIAN_POINT('',(13.,-27.7,-0.1));
#1127 = VECTOR('',#1128,1.);
#1128 = DIRECTION('',(-6.7E-16,-0.707106781187,0.707106781187));
#1129 = ORIENTED_EDGE('',*,*,#435,.F.);
#1130 = CONICAL_SURFACE('',#1131,1.5,0.785398163397);
#1131 = AXIS2_PLACEMENT_3D('',#1132,#1133,#1134);
#1132 = CARTESIAN_POINT('',(13.,-26.2,-0.1));
#1133 = DIRECTION('',(0.,0.,1.));
#1134 = DIRECTION('',(-1.,0.,0.));
#1135 = ADVANCED_FACE('',(#1136),#1154,.T.);
#1136 = FACE_BOUND('',#1137,.F.);
#1137 = EDGE_LOOP('',(#1138,#1146,#1152,#1153));
#1138 = ORIENTED_EDGE('',*,*,#1139,.F.);
#1139 = EDGE_CURVE('',#1140,#360,#1142,.T.);
#1140 = VERTEX_POINT('',#1141);
#1141 = CARTESIAN_POINT('',(47.5,1.,-0.1));
#1142 = LINE('',#1143,#1144);
#1143 = CARTESIAN_POINT('',(47.5,1.,-0.1));
#1144 = VECTOR('',#1145,1.);
#1145 = DIRECTION('',(-7.9E-16,0.707106781187,0.707106781187));
#1146 = ORIENTED_EDGE('',*,*,#1147,.T.);
#1147 = EDGE_CURVE('',#1140,#1090,#1148,.T.);
#1148 = LINE('',#1149,#1150);
#1149 = CARTESIAN_POINT('',(47.5,1.,-0.1));
#1150 = VECTOR('',#1151,1.);
#1151 = DIRECTION('',(-1.,-0.,-0.));
#1152 = ORIENTED_EDGE('',*,*,#1089,.T.);
#1153 = ORIENTED_EDGE('',*,*,#359,.F.);
#1154 = PLANE('',#1155);
#1155 = AXIS2_PLACEMENT_3D('',#1156,#1157,#1158);
#1156 = CARTESIAN_POINT('',(47.5,1.05,-5.E-02));
#1157 = DIRECTION('',(0.,-0.707106781187,0.707106781187));
#1158 = DIRECTION('',(1.,-0.,-0.));
#1159 = ADVANCED_FACE('',(#1160),#1178,.F.);
#1160 = FACE_BOUND('',#1161,.F.);
#1161 = EDGE_LOOP('',(#1162,#1163,#1171,#1177));
#1162 = ORIENTED_EDGE('',*,*,#1124,.F.);
#1163 = ORIENTED_EDGE('',*,*,#1164,.T.);
#1164 = EDGE_CURVE('',#1116,#1165,#1167,.T.);
#1165 = VERTEX_POINT('',#1166);
#1166 = CARTESIAN_POINT('',(31.,-27.7,-0.1));
#1167 = LINE('',#1168,#1169);
#1168 = CARTESIAN_POINT('',(13.,-27.7,-0.1));
#1169 = VECTOR('',#1170,1.);
#1170 = DIRECTION('',(1.,0.,0.));
#1171 = ORIENTED_EDGE('',*,*,#1172,.T.);
#1172 = EDGE_CURVE('',#1165,#419,#1173,.T.);
#1173 = LINE('',#1174,#1175);
#1174 = CARTESIAN_POINT('',(31.,-27.75,-5.E-02));
#1175 = VECTOR('',#1176,1.);
#1176 = DIRECTION('',(0.,-0.707106781187,0.707106781187));
#1177 = ORIENTED_EDGE('',*,*,#427,.F.);
#1178 = PLANE('',#1179);
#1179 = AXIS2_PLACEMENT_3D('',#1180,#1181,#1182);
#1180 = CARTESIAN_POINT('',(13.,-27.75,-5.E-02));
#1181 = DIRECTION('',(0.,-0.707106781187,-0.707106781187));
#1182 = DIRECTION('',(1.,0.,0.));
#1183 = ADVANCED_FACE('',(#1184),#1203,.F.);
#1184 = FACE_BOUND('',#1185,.F.);
#1185 = EDGE_LOOP('',(#1186,#1194,#1201,#1202));
#1186 = ORIENTED_EDGE('',*,*,#1187,.F.);
#1187 = EDGE_CURVE('',#1188,#368,#1190,.T.);
#1188 = VERTEX_POINT('',#1189);
#1189 = CARTESIAN_POINT('',(49.,-0.5,-1.E-01));
#1190 = LINE('',#1191,#1192);
#1191 = CARTESIAN_POINT('',(49.05,-0.5,-5.E-02));
#1192 = VECTOR('',#1193,1.);
#1193 = DIRECTION('',(0.707106781187,0.,0.707106781187));
#1194 = ORIENTED_EDGE('',*,*,#1195,.T.);
#1195 = EDGE_CURVE('',#1188,#1140,#1196,.T.);
#1196 = CIRCLE('',#1197,1.5);
#1197 = AXIS2_PLACEMENT_3D('',#1198,#1199,#1200);
#1198 = CARTESIAN_POINT('',(47.5,-0.5,-0.1));
#1199 = DIRECTION('',(-0.,0.,1.));
#1200 = DIRECTION('',(1.,-1.5E-16,0.));
#1201 = ORIENTED_EDGE('',*,*,#1139,.T.);
#1202 = ORIENTED_EDGE('',*,*,#367,.F.);
#1203 = CONICAL_SURFACE('',#1204,1.5,0.785398163397);
#1204 = AXIS2_PLACEMENT_3D('',#1205,#1206,#1207);
#1205 = CARTESIAN_POINT('',(47.5,-0.5,-0.1));
#1206 = DIRECTION('',(0.,0.,1.));
#1207 = DIRECTION('',(1.,-1.5E-16,0.));
#1208 = ADVANCED_FACE('',(#1209),#1228,.F.);
#1209 = FACE_BOUND('',#1210,.F.);
#1210 = EDGE_LOOP('',(#1211,#1212,#1221,#1227));
#1211 = ORIENTED_EDGE('',*,*,#1172,.F.);
#1212 = ORIENTED_EDGE('',*,*,#1213,.T.);
#1213 = EDGE_CURVE('',#1165,#1214,#1216,.T.);
#1214 = VERTEX_POINT('',#1215);
#1215 = CARTESIAN_POINT('',(32.5,-26.2,-0.1));
#1216 = CIRCLE('',#1217,1.5);
#1217 = AXIS2_PLACEMENT_3D('',#1218,#1219,#1220);
#1218 = CARTESIAN_POINT('',(31.,-26.2,-0.1));
#1219 = DIRECTION('',(-0.,0.,1.));
#1220 = DIRECTION('',(0.,-1.,0.));
#1221 = ORIENTED_EDGE('',*,*,#1222,.T.);
#1222 = EDGE_CURVE('',#1214,#411,#1223,.T.);
#1223 = LINE('',#1224,#1225);
#1224 = CARTESIAN_POINT('',(32.5,-26.2,-0.1));
#1225 = VECTOR('',#1226,1.);
#1226 = DIRECTION('',(0.707106781187,-6.7E-16,0.707106781187));
#1227 = ORIENTED_EDGE('',*,*,#418,.F.);
#1228 = CONICAL_SURFACE('',#1229,1.5,0.785398163397);
#1229 = AXIS2_PLACEMENT_3D('',#1230,#1231,#1232);
#1230 = CARTESIAN_POINT('',(31.,-26.2,-0.1));
#1231 = DIRECTION('',(0.,0.,1.));
#1232 = DIRECTION('',(0.,-1.,0.));
#1233 = ADVANCED_FACE('',(#1234),#1252,.T.);
#1234 = FACE_BOUND('',#1235,.F.);
#1235 = EDGE_LOOP('',(#1236,#1244,#1250,#1251));
#1236 = ORIENTED_EDGE('',*,*,#1237,.F.);
#1237 = EDGE_CURVE('',#1238,#377,#1240,.T.);
#1238 = VERTEX_POINT('',#1239);
#1239 = CARTESIAN_POINT('',(49.,-9.5,-0.1));
#1240 = LINE('',#1241,#1242);
#1241 = CARTESIAN_POINT('',(49.,-9.5,-0.1));
#1242 = VECTOR('',#1243,1.);
#1243 = DIRECTION('',(0.707106781187,-4.E-17,0.707106781187));
#1244 = ORIENTED_EDGE('',*,*,#1245,.T.);
#1245 = EDGE_CURVE('',#1238,#1188,#1246,.T.);
#1246 = LINE('',#1247,#1248);
#1247 = CARTESIAN_POINT('',(49.,-9.5,-0.1));
#1248 = VECTOR('',#1249,1.);
#1249 = DIRECTION('',(0.,1.,0.));
#1250 = ORIENTED_EDGE('',*,*,#1187,.T.);
#1251 = ORIENTED_EDGE('',*,*,#376,.F.);
#1252 = PLANE('',#1253);
#1253 = AXIS2_PLACEMENT_3D('',#1254,#1255,#1256);
#1254 = CARTESIAN_POINT('',(49.05,-9.5,-5.E-02));
#1255 = DIRECTION('',(-0.707106781187,0.,0.707106781187));
#1256 = DIRECTION('',(-0.,-1.,-0.));
#1257 = ADVANCED_FACE('',(#1258),#1276,.F.);
#1258 = FACE_BOUND('',#1259,.F.);
#1259 = EDGE_LOOP('',(#1260,#1261,#1269,#1275));
#1260 = ORIENTED_EDGE('',*,*,#1222,.F.);
#1261 = ORIENTED_EDGE('',*,*,#1262,.T.);
#1262 = EDGE_CURVE('',#1214,#1263,#1265,.T.);
#1263 = VERTEX_POINT('',#1264);
#1264 = CARTESIAN_POINT('',(32.5,-12.5,-0.1));
#1265 = LINE('',#1266,#1267);
#1266 = CARTESIAN_POINT('',(32.5,-26.2,-0.1));
#1267 = VECTOR('',#1268,1.);
#1268 = DIRECTION('',(0.,1.,0.));
#1269 = ORIENTED_EDGE('',*,*,#1270,.T.);
#1270 = EDGE_CURVE('',#1263,#402,#1271,.T.);
#1271 = LINE('',#1272,#1273);
#1272 = CARTESIAN_POINT('',(32.55,-12.5,-5.E-02));
#1273 = VECTOR('',#1274,1.);
#1274 = DIRECTION('',(0.707106781187,0.,0.707106781187));
#1275 = ORIENTED_EDGE('',*,*,#410,.F.);
#1276 = PLANE('',#1277);
#1277 = AXIS2_PLACEMENT_3D('',#1278,#1279,#1280);
#1278 = CARTESIAN_POINT('',(32.55,-26.2,-5.E-02));
#1279 = DIRECTION('',(0.707106781187,0.,-0.707106781187));
#1280 = DIRECTION('',(0.,1.,0.));
#1281 = ADVANCED_FACE('',(#1282),#1301,.F.);
#1282 = FACE_BOUND('',#1283,.F.);
#1283 = EDGE_LOOP('',(#1284,#1292,#1299,#1300));
#1284 = ORIENTED_EDGE('',*,*,#1285,.F.);
#1285 = EDGE_CURVE('',#1286,#385,#1288,.T.);
#1286 = VERTEX_POINT('',#1287);
#1287 = CARTESIAN_POINT('',(47.5,-11.,-0.1));
#1288 = LINE('',#1289,#1290);
#1289 = CARTESIAN_POINT('',(47.5,-11.05,-5.E-02));
#1290 = VECTOR('',#1291,1.);
#1291 = DIRECTION('',(0.,-0.707106781187,0.707106781187));
#1292 = ORIENTED_EDGE('',*,*,#1293,.T.);
#1293 = EDGE_CURVE('',#1286,#1238,#1294,.T.);
#1294 = CIRCLE('',#1295,1.5);
#1295 = AXIS2_PLACEMENT_3D('',#1296,#1297,#1298);
#1296 = CARTESIAN_POINT('',(47.5,-9.5,-0.1));
#1297 = DIRECTION('',(-0.,0.,1.));
#1298 = DIRECTION('',(0.,-1.,0.));
#1299 = ORIENTED_EDGE('',*,*,#1237,.T.);
#1300 = ORIENTED_EDGE('',*,*,#384,.F.);
#1301 = CONICAL_SURFACE('',#1302,1.5,0.785398163397);
#1302 = AXIS2_PLACEMENT_3D('',#1303,#1304,#1305);
#1303 = CARTESIAN_POINT('',(47.5,-9.5,-0.1));
#1304 = DIRECTION('',(0.,0.,1.));
#1305 = DIRECTION('',(0.,-1.,0.));
#1306 = ADVANCED_FACE('',(#1307),#1326,.T.);
#1307 = FACE_BOUND('',#1308,.F.);
#1308 = EDGE_LOOP('',(#1309,#1310,#1319,#1325));
#1309 = ORIENTED_EDGE('',*,*,#1270,.F.);
#1310 = ORIENTED_EDGE('',*,*,#1311,.T.);
#1311 = EDGE_CURVE('',#1263,#1312,#1314,.T.);
#1312 = VERTEX_POINT('',#1313);
#1313 = CARTESIAN_POINT('',(34.,-11.,-0.1));
#1314 = CIRCLE('',#1315,1.5);
#1315 = AXIS2_PLACEMENT_3D('',#1316,#1317,#1318);
#1316 = CARTESIAN_POINT('',(34.,-12.5,-0.1));
#1317 = DIRECTION('',(0.,0.,-1.));
#1318 = DIRECTION('',(-1.,0.,0.));
#1319 = ORIENTED_EDGE('',*,*,#1320,.T.);
#1320 = EDGE_CURVE('',#1312,#394,#1321,.T.);
#1321 = LINE('',#1322,#1323);
#1322 = CARTESIAN_POINT('',(34.,-11.,-0.1));
#1323 = VECTOR('',#1324,1.);
#1324 = DIRECTION('',(3.6E-16,-0.707106781187,0.707106781187));
#1325 = ORIENTED_EDGE('',*,*,#401,.F.);
#1326 = CONICAL_SURFACE('',#1327,1.5,0.785398163397);
#1327 = AXIS2_PLACEMENT_3D('',#1328,#1329,#1330);
#1328 = CARTESIAN_POINT('',(34.,-12.5,-0.1));
#1329 = DIRECTION('',(-0.,-0.,-1.));
#1330 = DIRECTION('',(-1.,0.,0.));
#1331 = ADVANCED_FACE('',(#1332),#1343,.T.);
#1332 = FACE_BOUND('',#1333,.F.);
#1333 = EDGE_LOOP('',(#1334,#1335,#1341,#1342));
#1334 = ORIENTED_EDGE('',*,*,#1320,.F.);
#1335 = ORIENTED_EDGE('',*,*,#1336,.T.);
#1336 = EDGE_CURVE('',#1312,#1286,#1337,.T.);
#1337 = LINE('',#1338,#1339);
#1338 = CARTESIAN_POINT('',(34.,-11.,-0.1));
#1339 = VECTOR('',#1340,1.);
#1340 = DIRECTION('',(1.,0.,0.));
#1341 = ORIENTED_EDGE('',*,*,#1285,.T.);
#1342 = ORIENTED_EDGE('',*,*,#393,.F.);
#1343 = PLANE('',#1344);
#1344 = AXIS2_PLACEMENT_3D('',#1345,#1346,#1347);
#1345 = CARTESIAN_POINT('',(34.,-11.05,-5.E-02));
#1346 = DIRECTION('',(0.,0.707106781187,0.707106781187));
#1347 = DIRECTION('',(-1.,-0.,0.));
#1348 = ADVANCED_FACE('',(#1349),#1368,.F.);
#1349 = FACE_BOUND('',#1350,.F.);
#1350 = EDGE_LOOP('',(#1351,#1359,#1366,#1367));
#1351 = ORIENTED_EDGE('',*,*,#1352,.F.);
#1352 = EDGE_CURVE('',#1353,#462,#1355,.T.);
#1353 = VERTEX_POINT('',#1354);
#1354 = CARTESIAN_POINT('',(58.6,-32.,-0.1));
#1355 = LINE('',#1356,#1357);
#1356 = CARTESIAN_POINT('',(58.6,-32.,-0.1));
#1357 = VECTOR('',#1358,1.);
#1358 = DIRECTION('',(0.707106781187,0.,0.707106781187));
#1359 = ORIENTED_EDGE('',*,*,#1360,.T.);
#1360 = EDGE_CURVE('',#1353,#1353,#1361,.T.);
#1361 = CIRCLE('',#1362,1.6);
#1362 = AXIS2_PLACEMENT_3D('',#1363,#1364,#1365);
#1363 = CARTESIAN_POINT('',(57.,-32.,-0.1));
#1364 = DIRECTION('',(0.,0.,1.));
#1365 = DIRECTION('',(1.,0.,-0.));
#1366 = ORIENTED_EDGE('',*,*,#1352,.T.);
#1367 = ORIENTED_EDGE('',*,*,#461,.F.);
#1368 = CONICAL_SURFACE('',#1369,1.6,0.785398163397);
#1369 = AXIS2_PLACEMENT_3D('',#1370,#1371,#1372);
#1370 = CARTESIAN_POINT('',(57.,-32.,-0.1));
#1371 = DIRECTION('',(0.,0.,1.));
#1372 = DIRECTION('',(1.,0.,-0.));
#1373 = ADVANCED_FACE('',(#1374),#1393,.F.);
#1374 = FACE_BOUND('',#1375,.F.);
#1375 = EDGE_LOOP('',(#1376,#1384,#1391,#1392));
#1376 = ORIENTED_EDGE('',*,*,#1377,.F.);
#1377 = EDGE_CURVE('',#1378,#473,#1380,.T.);
#1378 = VERTEX_POINT('',#1379);
#1379 = CARTESIAN_POINT('',(1.6,-32.,-0.1));
#1380 = LINE('',#1381,#1382);
#1381 = CARTESIAN_POINT('',(1.6,-32.,-0.1));
#1382 = VECTOR('',#1383,1.);
#1383 = DIRECTION('',(0.707106781187,0.,0.707106781187));
#1384 = ORIENTED_EDGE('',*,*,#1385,.T.);
#1385 = EDGE_CURVE('',#1378,#1378,#1386,.T.);
#1386 = CIRCLE('',#1387,1.6);
#1387 = AXIS2_PLACEMENT_3D('',#1388,#1389,#1390);
#1388 = CARTESIAN_POINT('',(0.,-32.,-0.1));
#1389 = DIRECTION('',(0.,0.,1.));
#1390 = DIRECTION('',(1.,0.,-0.));
#1391 = ORIENTED_EDGE('',*,*,#1377,.T.);
#1392 = ORIENTED_EDGE('',*,*,#472,.F.);
#1393 = CONICAL_SURFACE('',#1394,1.6,0.785398163397);
#1394 = AXIS2_PLACEMENT_3D('',#1395,#1396,#1397);
#1395 = CARTESIAN_POINT('',(0.,-32.,-0.1));
#1396 = DIRECTION('',(0.,0.,1.));
#1397 = DIRECTION('',(1.,0.,-0.));
#1398 = ADVANCED_FACE('',(#1399),#1418,.F.);
#1399 = FACE_BOUND('',#1400,.F.);
#1400 = EDGE_LOOP('',(#1401,#1409,#1416,#1417));
#1401 = ORIENTED_EDGE('',*,*,#1402,.F.);
#1402 = EDGE_CURVE('',#1403,#484,#1405,.T.);
#1403 = VERTEX_POINT('',#1404);
#1404 = CARTESIAN_POINT('',(58.6,0.,-0.1));
#1405 = LINE('',#1406,#1407);
#1406 = CARTESIAN_POINT('',(58.6,0.,-0.1));
#1407 = VECTOR('',#1408,1.);
#1408 = DIRECTION('',(0.707106781187,0.,0.707106781187));
#1409 = ORIENTED_EDGE('',*,*,#1410,.T.);
#1410 = EDGE_CURVE('',#1403,#1403,#1411,.T.);
#1411 = CIRCLE('',#1412,1.6);
#1412 = AXIS2_PLACEMENT_3D('',#1413,#1414,#1415);
#1413 = CARTESIAN_POINT('',(57.,0.,-0.1));
#1414 = DIRECTION('',(0.,0.,1.));
#1415 = DIRECTION('',(1.,0.,-0.));
#1416 = ORIENTED_EDGE('',*,*,#1402,.T.);
#1417 = ORIENTED_EDGE('',*,*,#483,.F.);
#1418 = CONICAL_SURFACE('',#1419,1.6,0.785398163397);
#1419 = AXIS2_PLACEMENT_3D('',#1420,#1421,#1422);
#1420 = CARTESIAN_POINT('',(57.,0.,-0.1));
#1421 = DIRECTION('',(0.,0.,1.));
#1422 = DIRECTION('',(1.,0.,-0.));
#1423 = ADVANCED_FACE('',(#1424),#1443,.F.);
#1424 = FACE_BOUND('',#1425,.F.);
#1425 = EDGE_LOOP('',(#1426,#1434,#1441,#1442));
#1426 = ORIENTED_EDGE('',*,*,#1427,.F.);
#1427 = EDGE_CURVE('',#1428,#495,#1430,.T.);
#1428 = VERTEX_POINT('',#1429);
#1429 = CARTESIAN_POINT('',(1.6,0.,-0.1));
#1430 = LINE('',#1431,#1432);
#1431 = CARTESIAN_POINT('',(1.6,0.,-0.1));
#1432 = VECTOR('',#1433,1.);
#1433 = DIRECTION('',(0.707106781187,0.,0.707106781187));
#1434 = ORIENTED_EDGE('',*,*,#1435,.T.);
#1435 = EDGE_CURVE('',#1428,#1428,#1436,.T.);
#1436 = CIRCLE('',#1437,1.6);
#1437 = AXIS2_PLACEMENT_3D('',#1438,#1439,#1440);
#1438 = CARTESIAN_POINT('',(0.,0.,-0.1));
#1439 = DIRECTION('',(0.,0.,1.));
#1440 = DIRECTION('',(1.,0.,-0.));
#1441 = ORIENTED_EDGE('',*,*,#1427,.T.);
#1442 = ORIENTED_EDGE('',*,*,#494,.F.);
#1443 = CONICAL_SURFACE('',#1444,1.6,0.785398163397);
#1444 = AXIS2_PLACEMENT_3D('',#1445,#1446,#1447);
#1445 = CARTESIAN_POINT('',(0.,0.,-0.1));
#1446 = DIRECTION('',(0.,0.,1.));
#1447 = DIRECTION('',(1.,0.,-0.));
#1448 = ADVANCED_FACE('',(#1449),#1460,.F.);
#1449 = FACE_BOUND('',#1450,.F.);
#1450 = EDGE_LOOP('',(#1451,#1452,#1453,#1459));
#1451 = ORIENTED_EDGE('',*,*,#771,.F.);
#1452 = ORIENTED_EDGE('',*,*,#787,.T.);
#1453 = ORIENTED_EDGE('',*,*,#1454,.T.);
#1454 = EDGE_CURVE('',#788,#539,#1455,.T.);
#1455 = LINE('',#1456,#1457);
#1456 = CARTESIAN_POINT('',(57.,-35.95,-0.95));
#1457 = VECTOR('',#1458,1.);
#1458 = DIRECTION('',(0.,0.707106781187,-0.707106781187));
#1459 = ORIENTED_EDGE('',*,*,#538,.F.);
#1460 = PLANE('',#1461);
#1461 = AXIS2_PLACEMENT_3D('',#1462,#1463,#1464);
#1462 = CARTESIAN_POINT('',(0.,-35.95,-0.95));
#1463 = DIRECTION('',(-0.,0.707106781187,0.707106781187));
#1464 = DIRECTION('',(1.,0.,0.));
#1465 = ADVANCED_FACE('',(#1466),#1477,.T.);
#1466 = FACE_BOUND('',#1467,.F.);
#1467 = EDGE_LOOP('',(#1468,#1474,#1475,#1476));
#1468 = ORIENTED_EDGE('',*,*,#1469,.F.);
#1469 = EDGE_CURVE('',#820,#556,#1470,.T.);
#1470 = LINE('',#1471,#1472);
#1471 = CARTESIAN_POINT('',(60.95,0.,-0.95));
#1472 = VECTOR('',#1473,1.);
#1473 = DIRECTION('',(-0.707106781187,0.,-0.707106781187));
#1474 = ORIENTED_EDGE('',*,*,#827,.T.);
#1475 = ORIENTED_EDGE('',*,*,#867,.T.);
#1476 = ORIENTED_EDGE('',*,*,#563,.F.);
#1477 = CONICAL_SURFACE('',#1478,4.,0.785398163397);
#1478 = AXIS2_PLACEMENT_3D('',#1479,#1480,#1481);
#1479 = CARTESIAN_POINT('',(57.,0.,-0.9));
#1480 = DIRECTION('',(0.,0.,1.));
#1481 = DIRECTION('',(1.,0.,0.));
#1482 = ADVANCED_FACE('',(#1483),#1502,.T.);
#1483 = FACE_BOUND('',#1484,.F.);
#1484 = EDGE_LOOP('',(#1485,#1486,#1495,#1501));
#1485 = ORIENTED_EDGE('',*,*,#1454,.F.);
#1486 = ORIENTED_EDGE('',*,*,#1487,.T.);
#1487 = EDGE_CURVE('',#788,#1488,#1490,.T.);
#1488 = VERTEX_POINT('',#1489);
#1489 = CARTESIAN_POINT('',(61.,-32.,-0.9));
#1490 = CIRCLE('',#1491,4.);
#1491 = AXIS2_PLACEMENT_3D('',#1492,#1493,#1494);
#1492 = CARTESIAN_POINT('',(57.,-32.,-0.9));
#1493 = DIRECTION('',(-0.,0.,1.));
#1494 = DIRECTION('',(0.,-1.,0.));
#1495 = ORIENTED_EDGE('',*,*,#1496,.T.);
#1496 = EDGE_CURVE('',#1488,#547,#1497,.T.);
#1497 = LINE('',#1498,#1499);
#1498 = CARTESIAN_POINT('',(61.,-32.,-0.9));
#1499 = VECTOR('',#1500,1.);
#1500 = DIRECTION('',(-0.707106781187,6.7E-16,-0.707106781187));
#1501 = ORIENTED_EDGE('',*,*,#546,.F.);
#1502 = CONICAL_SURFACE('',#1503,4.,0.785398163397);
#1503 = AXIS2_PLACEMENT_3D('',#1504,#1505,#1506);
#1504 = CARTESIAN_POINT('',(57.,-32.,-0.9));
#1505 = DIRECTION('',(0.,0.,1.));
#1506 = DIRECTION('',(0.,-1.,0.));
#1507 = ADVANCED_FACE('',(#1508),#1519,.F.);
#1508 = FACE_BOUND('',#1509,.F.);
#1509 = EDGE_LOOP('',(#1510,#1511,#1517,#1518));
#1510 = ORIENTED_EDGE('',*,*,#1496,.F.);
#1511 = ORIENTED_EDGE('',*,*,#1512,.T.);
#1512 = EDGE_CURVE('',#1488,#820,#1513,.T.);
#1513 = LINE('',#1514,#1515);
#1514 = CARTESIAN_POINT('',(61.,-32.,-0.9));
#1515 = VECTOR('',#1516,1.);
#1516 = DIRECTION('',(0.,1.,0.));
#1517 = ORIENTED_EDGE('',*,*,#1469,.T.);
#1518 = ORIENTED_EDGE('',*,*,#555,.F.);
#1519 = PLANE('',#1520);
#1520 = AXIS2_PLACEMENT_3D('',#1521,#1522,#1523);
#1521 = CARTESIAN_POINT('',(60.95,-32.,-0.95));
#1522 = DIRECTION('',(-0.707106781187,-0.,0.707106781187));
#1523 = DIRECTION('',(-0.,1.,0.));
#1524 = ADVANCED_FACE('',(#1525),#1550,.T.);
#1525 = FACE_BOUND('',#1526,.T.);
#1526 = EDGE_LOOP('',(#1527,#1535,#1543,#1549));
#1527 = ORIENTED_EDGE('',*,*,#1528,.F.);
#1528 = EDGE_CURVE('',#1529,#582,#1531,.T.);
#1529 = VERTEX_POINT('',#1530);
#1530 = CARTESIAN_POINT('',(29.5,-9.5,-0.9));
#1531 = LINE('',#1532,#1533);
#1532 = CARTESIAN_POINT('',(29.5,-9.45,-0.95));
#1533 = VECTOR('',#1534,1.);
#1534 = DIRECTION('',(0.,0.707106781187,-0.707106781187));
#1535 = ORIENTED_EDGE('',*,*,#1536,.T.);
#1536 = EDGE_CURVE('',#1529,#1537,#1539,.T.);
#1537 = VERTEX_POINT('',#1538);
#1538 = CARTESIAN_POINT('',(13.,-9.5,-0.9));
#1539 = LINE('',#1540,#1541);
#1540 = CARTESIAN_POINT('',(29.5,-9.5,-0.9));
#1541 = VECTOR('',#1542,1.);
#1542 = DIRECTION('',(-1.,0.,0.));
#1543 = ORIENTED_EDGE('',*,*,#1544,.T.);
#1544 = EDGE_CURVE('',#1537,#584,#1545,.T.);
#1545 = LINE('',#1546,#1547);
#1546 = CARTESIAN_POINT('',(13.,-9.45,-0.95));
#1547 = VECTOR('',#1548,1.);
#1548 = DIRECTION('',(0.,0.707106781187,-0.707106781187));
#1549 = ORIENTED_EDGE('',*,*,#581,.F.);
#1550 = PLANE('',#1551);
#1551 = AXIS2_PLACEMENT_3D('',#1552,#1553,#1554);
#1552 = CARTESIAN_POINT('',(29.5,-9.45,-0.95));
#1553 = DIRECTION('',(0.,-0.707106781187,-0.707106781187));
#1554 = DIRECTION('',(-1.,-0.,0.));
#1555 = ADVANCED_FACE('',(#1556),#1575,.T.);
#1556 = FACE_BOUND('',#1557,.T.);
#1557 = EDGE_LOOP('',(#1558,#1566,#1573,#1574));
#1558 = ORIENTED_EDGE('',*,*,#1559,.F.);
#1559 = EDGE_CURVE('',#1560,#592,#1562,.T.);
#1560 = VERTEX_POINT('',#1561);
#1561 = CARTESIAN_POINT('',(31.,-8.,-0.9));
#1562 = LINE('',#1563,#1564);
#1563 = CARTESIAN_POINT('',(30.95,-8.,-0.95));
#1564 = VECTOR('',#1565,1.);
#1565 = DIRECTION('',(-0.707106781187,-0.,-0.707106781187));
#1566 = ORIENTED_EDGE('',*,*,#1567,.T.);
#1567 = EDGE_CURVE('',#1560,#1529,#1568,.T.);
#1568 = CIRCLE('',#1569,1.5);
#1569 = AXIS2_PLACEMENT_3D('',#1570,#1571,#1572);
#1570 = CARTESIAN_POINT('',(29.5,-8.,-0.9));
#1571 = DIRECTION('',(0.,0.,-1.));
#1572 = DIRECTION('',(1.,0.,0.));
#1573 = ORIENTED_EDGE('',*,*,#1528,.T.);
#1574 = ORIENTED_EDGE('',*,*,#591,.F.);
#1575 = CONICAL_SURFACE('',#1576,1.5,0.785398163397);
#1576 = AXIS2_PLACEMENT_3D('',#1577,#1578,#1579);
#1577 = CARTESIAN_POINT('',(29.5,-8.,-0.9));
#1578 = DIRECTION('',(0.,0.,1.));
#1579 = DIRECTION('',(1.,0.,0.));
#1580 = ADVANCED_FACE('',(#1581),#1600,.F.);
#1581 = FACE_BOUND('',#1582,.T.);
#1582 = EDGE_LOOP('',(#1583,#1584,#1593,#1599));
#1583 = ORIENTED_EDGE('',*,*,#1544,.F.);
#1584 = ORIENTED_EDGE('',*,*,#1585,.T.);
#1585 = EDGE_CURVE('',#1537,#1586,#1588,.T.);
#1586 = VERTEX_POINT('',#1587);
#1587 = CARTESIAN_POINT('',(11.5,-11.,-0.9));
#1588 = CIRCLE('',#1589,1.5);
#1589 = AXIS2_PLACEMENT_3D('',#1590,#1591,#1592);
#1590 = CARTESIAN_POINT('',(13.,-11.,-0.9));
#1591 = DIRECTION('',(0.,-0.,1.));
#1592 = DIRECTION('',(0.,1.,0.));
#1593 = ORIENTED_EDGE('',*,*,#1594,.T.);
#1594 = EDGE_CURVE('',#1586,#703,#1595,.T.);
#1595 = LINE('',#1596,#1597);
#1596 = CARTESIAN_POINT('',(11.5,-11.,-0.9));
#1597 = VECTOR('',#1598,1.);
#1598 = DIRECTION('',(-0.707106781187,2.E-16,-0.707106781187));
#1599 = ORIENTED_EDGE('',*,*,#710,.F.);
#1600 = CONICAL_SURFACE('',#1601,1.5,0.785398163397);
#1601 = AXIS2_PLACEMENT_3D('',#1602,#1603,#1604);
#1602 = CARTESIAN_POINT('',(13.,-11.,-0.9));
#1603 = DIRECTION('',(-0.,-0.,-1.));
#1604 = DIRECTION('',(0.,1.,-0.));
#1605 = ADVANCED_FACE('',(#1606),#1624,.F.);
#1606 = FACE_BOUND('',#1607,.T.);
#1607 = EDGE_LOOP('',(#1608,#1616,#1622,#1623));
#1608 = ORIENTED_EDGE('',*,*,#1609,.F.);
#1609 = EDGE_CURVE('',#1610,#601,#1612,.T.);
#1610 = VERTEX_POINT('',#1611);
#1611 = CARTESIAN_POINT('',(31.,-0.5,-0.9));
#1612 = LINE('',#1613,#1614);
#1613 = CARTESIAN_POINT('',(31.,-0.5,-0.9));
#1614 = VECTOR('',#1615,1.);
#1615 = DIRECTION('',(-0.707106781187,4.E-17,-0.707106781187));
#1616 = ORIENTED_EDGE('',*,*,#1617,.T.);
#1617 = EDGE_CURVE('',#1610,#1560,#1618,.T.);
#1618 = LINE('',#1619,#1620);
#1619 = CARTESIAN_POINT('',(31.,-0.5,-0.9));
#1620 = VECTOR('',#1621,1.);
#1621 = DIRECTION('',(-0.,-1.,-0.));
#1622 = ORIENTED_EDGE('',*,*,#1559,.T.);
#1623 = ORIENTED_EDGE('',*,*,#600,.F.);
#1624 = PLANE('',#1625);
#1625 = AXIS2_PLACEMENT_3D('',#1626,#1627,#1628);
#1626 = CARTESIAN_POINT('',(30.95,-0.5,-0.95));
#1627 = DIRECTION('',(-0.707106781187,-0.,0.707106781187));
#1628 = DIRECTION('',(-0.,1.,0.));
#1629 = ADVANCED_FACE('',(#1630),#1648,.T.);
#1630 = FACE_BOUND('',#1631,.T.);
#1631 = EDGE_LOOP('',(#1632,#1633,#1641,#1647));
#1632 = ORIENTED_EDGE('',*,*,#1594,.F.);
#1633 = ORIENTED_EDGE('',*,*,#1634,.T.);
#1634 = EDGE_CURVE('',#1586,#1635,#1637,.T.);
#1635 = VERTEX_POINT('',#1636);
#1636 = CARTESIAN_POINT('',(11.5,-26.2,-0.9));
#1637 = LINE('',#1638,#1639);
#1638 = CARTESIAN_POINT('',(11.5,-11.,-0.9));
#1639 = VECTOR('',#1640,1.);
#1640 = DIRECTION('',(0.,-1.,0.));
#1641 = ORIENTED_EDGE('',*,*,#1642,.T.);
#1642 = EDGE_CURVE('',#1635,#694,#1643,.T.);
#1643 = LINE('',#1644,#1645);
#1644 = CARTESIAN_POINT('',(11.45,-26.2,-0.95));
#1645 = VECTOR('',#1646,1.);
#1646 = DIRECTION('',(-0.707106781187,-0.,-0.707106781187));
#1647 = ORIENTED_EDGE('',*,*,#702,.F.);
#1648 = PLANE('',#1649);
#1649 = AXIS2_PLACEMENT_3D('',#1650,#1651,#1652);
#1650 = CARTESIAN_POINT('',(11.45,-11.,-0.95));
#1651 = DIRECTION('',(0.707106781187,0.,-0.707106781187));
#1652 = DIRECTION('',(0.,-1.,0.));
#1653 = ADVANCED_FACE('',(#1654),#1673,.F.);
#1654 = FACE_BOUND('',#1655,.T.);
#1655 = EDGE_LOOP('',(#1656,#1664,#1671,#1672));
#1656 = ORIENTED_EDGE('',*,*,#1657,.F.);
#1657 = EDGE_CURVE('',#1658,#609,#1660,.T.);
#1658 = VERTEX_POINT('',#1659);
#1659 = CARTESIAN_POINT('',(32.5,1.,-0.9));
#1660 = LINE('',#1661,#1662);
#1661 = CARTESIAN_POINT('',(32.5,1.05,-0.95));
#1662 = VECTOR('',#1663,1.);
#1663 = DIRECTION('',(0.,0.707106781187,-0.707106781187));
#1664 = ORIENTED_EDGE('',*,*,#1665,.T.);
#1665 = EDGE_CURVE('',#1658,#1610,#1666,.T.);
#1666 = CIRCLE('',#1667,1.5);
#1667 = AXIS2_PLACEMENT_3D('',#1668,#1669,#1670);
#1668 = CARTESIAN_POINT('',(32.5,-0.5,-0.9));
#1669 = DIRECTION('',(0.,-0.,1.));
#1670 = DIRECTION('',(0.,1.,0.));
#1671 = ORIENTED_EDGE('',*,*,#1609,.T.);
#1672 = ORIENTED_EDGE('',*,*,#608,.F.);
#1673 = CONICAL_SURFACE('',#1674,1.5,0.785398163397);
#1674 = AXIS2_PLACEMENT_3D('',#1675,#1676,#1677);
#1675 = CARTESIAN_POINT('',(32.5,-0.5,-0.9));
#1676 = DIRECTION('',(-0.,-0.,-1.));
#1677 = DIRECTION('',(0.,1.,-0.));
#1678 = ADVANCED_FACE('',(#1679),#1698,.F.);
#1679 = FACE_BOUND('',#1680,.T.);
#1680 = EDGE_LOOP('',(#1681,#1682,#1691,#1697));
#1681 = ORIENTED_EDGE('',*,*,#1642,.F.);
#1682 = ORIENTED_EDGE('',*,*,#1683,.T.);
#1683 = EDGE_CURVE('',#1635,#1684,#1686,.T.);
#1684 = VERTEX_POINT('',#1685);
#1685 = CARTESIAN_POINT('',(13.,-27.7,-0.9));
#1686 = CIRCLE('',#1687,1.5);
#1687 = AXIS2_PLACEMENT_3D('',#1688,#1689,#1690);
#1688 = CARTESIAN_POINT('',(13.,-26.2,-0.9));
#1689 = DIRECTION('',(0.,0.,1.));
#1690 = DIRECTION('',(-1.,0.,0.));
#1691 = ORIENTED_EDGE('',*,*,#1692,.T.);
#1692 = EDGE_CURVE('',#1684,#686,#1693,.T.);
#1693 = LINE('',#1694,#1695);
#1694 = CARTESIAN_POINT('',(13.,-27.7,-0.9));
#1695 = VECTOR('',#1696,1.);
#1696 = DIRECTION('',(-6.7E-16,-0.707106781187,-0.707106781187));
#1697 = ORIENTED_EDGE('',*,*,#693,.F.);
#1698 = CONICAL_SURFACE('',#1699,1.5,0.785398163397);
#1699 = AXIS2_PLACEMENT_3D('',#1700,#1701,#1702);
#1700 = CARTESIAN_POINT('',(13.,-26.2,-0.9));
#1701 = DIRECTION('',(-0.,-0.,-1.));
#1702 = DIRECTION('',(-1.,0.,0.));
#1703 = ADVANCED_FACE('',(#1704),#1722,.F.);
#1704 = FACE_BOUND('',#1705,.T.);
#1705 = EDGE_LOOP('',(#1706,#1714,#1720,#1721));
#1706 = ORIENTED_EDGE('',*,*,#1707,.F.);
#1707 = EDGE_CURVE('',#1708,#618,#1710,.T.);
#1708 = VERTEX_POINT('',#1709);
#1709 = CARTESIAN_POINT('',(47.5,1.,-0.9));
#1710 = LINE('',#1711,#1712);
#1711 = CARTESIAN_POINT('',(47.5,1.,-0.9));
#1712 = VECTOR('',#1713,1.);
#1713 = DIRECTION('',(-7.9E-16,0.707106781187,-0.707106781187));
#1714 = ORIENTED_EDGE('',*,*,#1715,.T.);
#1715 = EDGE_CURVE('',#1708,#1658,#1716,.T.);
#1716 = LINE('',#1717,#1718);
#1717 = CARTESIAN_POINT('',(47.5,1.,-0.9));
#1718 = VECTOR('',#1719,1.);
#1719 = DIRECTION('',(-1.,-0.,-0.));
#1720 = ORIENTED_EDGE('',*,*,#1657,.T.);
#1721 = ORIENTED_EDGE('',*,*,#617,.F.);
#1722 = PLANE('',#1723);
#1723 = AXIS2_PLACEMENT_3D('',#1724,#1725,#1726);
#1724 = CARTESIAN_POINT('',(47.5,1.05,-0.95));
#1725 = DIRECTION('',(0.,0.707106781187,0.707106781187));
#1726 = DIRECTION('',(1.,-0.,-0.));
#1727 = ADVANCED_FACE('',(#1728),#1746,.T.);
#1728 = FACE_BOUND('',#1729,.T.);
#1729 = EDGE_LOOP('',(#1730,#1731,#1739,#1745));
#1730 = ORIENTED_EDGE('',*,*,#1692,.F.);
#1731 = ORIENTED_EDGE('',*,*,#1732,.T.);
#1732 = EDGE_CURVE('',#1684,#1733,#1735,.T.);
#1733 = VERTEX_POINT('',#1734);
#1734 = CARTESIAN_POINT('',(31.,-27.7,-0.9));
#1735 = LINE('',#1736,#1737);
#1736 = CARTESIAN_POINT('',(13.,-27.7,-0.9));
#1737 = VECTOR('',#1738,1.);
#1738 = DIRECTION('',(1.,0.,0.));
#1739 = ORIENTED_EDGE('',*,*,#1740,.T.);
#1740 = EDGE_CURVE('',#1733,#677,#1741,.T.);
#1741 = LINE('',#1742,#1743);
#1742 = CARTESIAN_POINT('',(31.,-27.75,-0.95));
#1743 = VECTOR('',#1744,1.);
#1744 = DIRECTION('',(0.,-0.707106781187,-0.707106781187));
#1745 = ORIENTED_EDGE('',*,*,#685,.F.);
#1746 = PLANE('',#1747);
#1747 = AXIS2_PLACEMENT_3D('',#1748,#1749,#1750);
#1748 = CARTESIAN_POINT('',(13.,-27.75,-0.95));
#1749 = DIRECTION('',(0.,0.707106781187,-0.707106781187));
#1750 = DIRECTION('',(1.,-0.,0.));
#1751 = ADVANCED_FACE('',(#1752),#1771,.F.);
#1752 = FACE_BOUND('',#1753,.T.);
#1753 = EDGE_LOOP('',(#1754,#1762,#1769,#1770));
#1754 = ORIENTED_EDGE('',*,*,#1755,.F.);
#1755 = EDGE_CURVE('',#1756,#626,#1758,.T.);
#1756 = VERTEX_POINT('',#1757);
#1757 = CARTESIAN_POINT('',(49.,-0.5,-0.9));
#1758 = LINE('',#1759,#1760);
#1759 = CARTESIAN_POINT('',(49.05,-0.5,-0.95));
#1760 = VECTOR('',#1761,1.);
#1761 = DIRECTION('',(0.707106781187,0.,-0.707106781187));
#1762 = ORIENTED_EDGE('',*,*,#1763,.T.);
#1763 = EDGE_CURVE('',#1756,#1708,#1764,.T.);
#1764 = CIRCLE('',#1765,1.5);
#1765 = AXIS2_PLACEMENT_3D('',#1766,#1767,#1768);
#1766 = CARTESIAN_POINT('',(47.5,-0.5,-0.9));
#1767 = DIRECTION('',(-0.,0.,1.));
#1768 = DIRECTION('',(1.,-1.5E-16,0.));
#1769 = ORIENTED_EDGE('',*,*,#1707,.T.);
#1770 = ORIENTED_EDGE('',*,*,#625,.F.);
#1771 = CONICAL_SURFACE('',#1772,1.5,0.785398163397);
#1772 = AXIS2_PLACEMENT_3D('',#1773,#1774,#1775);
#1773 = CARTESIAN_POINT('',(47.5,-0.5,-0.9));
#1774 = DIRECTION('',(-0.,-0.,-1.));
#1775 = DIRECTION('',(1.,-1.5E-16,0.));
#1776 = ADVANCED_FACE('',(#1777),#1796,.F.);
#1777 = FACE_BOUND('',#1778,.T.);
#1778 = EDGE_LOOP('',(#1779,#1780,#1789,#1795));
#1779 = ORIENTED_EDGE('',*,*,#1740,.F.);
#1780 = ORIENTED_EDGE('',*,*,#1781,.T.);
#1781 = EDGE_CURVE('',#1733,#1782,#1784,.T.);
#1782 = VERTEX_POINT('',#1783);
#1783 = CARTESIAN_POINT('',(32.5,-26.2,-0.9));
#1784 = CIRCLE('',#1785,1.5);
#1785 = AXIS2_PLACEMENT_3D('',#1786,#1787,#1788);
#1786 = CARTESIAN_POINT('',(31.,-26.2,-0.9));
#1787 = DIRECTION('',(-0.,0.,1.));
#1788 = DIRECTION('',(0.,-1.,0.));
#1789 = ORIENTED_EDGE('',*,*,#1790,.T.);
#1790 = EDGE_CURVE('',#1782,#669,#1791,.T.);
#1791 = LINE('',#1792,#1793);
#1792 = CARTESIAN_POINT('',(32.5,-26.2,-0.9));
#1793 = VECTOR('',#1794,1.);
#1794 = DIRECTION('',(0.707106781187,-6.7E-16,-0.707106781187));
#1795 = ORIENTED_EDGE('',*,*,#676,.F.);
#1796 = CONICAL_SURFACE('',#1797,1.5,0.785398163397);
#1797 = AXIS2_PLACEMENT_3D('',#1798,#1799,#1800);
#1798 = CARTESIAN_POINT('',(31.,-26.2,-0.9));
#1799 = DIRECTION('',(-0.,-0.,-1.));
#1800 = DIRECTION('',(0.,-1.,0.));
#1801 = ADVANCED_FACE('',(#1802),#1820,.F.);
#1802 = FACE_BOUND('',#1803,.T.);
#1803 = EDGE_LOOP('',(#1804,#1812,#1818,#1819));
#1804 = ORIENTED_EDGE('',*,*,#1805,.F.);
#1805 = EDGE_CURVE('',#1806,#635,#1808,.T.);
#1806 = VERTEX_POINT('',#1807);
#1807 = CARTESIAN_POINT('',(49.,-9.5,-0.9));
#1808 = LINE('',#1809,#1810);
#1809 = CARTESIAN_POINT('',(49.,-9.5,-0.9));
#1810 = VECTOR('',#1811,1.);
#1811 = DIRECTION('',(0.707106781187,-4.E-17,-0.707106781187));
#1812 = ORIENTED_EDGE('',*,*,#1813,.T.);
#1813 = EDGE_CURVE('',#1806,#1756,#1814,.T.);
#1814 = LINE('',#1815,#1816);
#1815 = CARTESIAN_POINT('',(49.,-9.5,-0.9));
#1816 = VECTOR('',#1817,1.);
#1817 = DIRECTION('',(0.,1.,0.));
#1818 = ORIENTED_EDGE('',*,*,#1755,.T.);
#1819 = ORIENTED_EDGE('',*,*,#634,.F.);
#1820 = PLANE('',#1821);
#1821 = AXIS2_PLACEMENT_3D('',#1822,#1823,#1824);
#1822 = CARTESIAN_POINT('',(49.05,-9.5,-0.95));
#1823 = DIRECTION('',(0.707106781187,0.,0.707106781187));
#1824 = DIRECTION('',(0.,-1.,-0.));
#1825 = ADVANCED_FACE('',(#1826),#1844,.T.);
#1826 = FACE_BOUND('',#1827,.T.);
#1827 = EDGE_LOOP('',(#1828,#1829,#1837,#1843));
#1828 = ORIENTED_EDGE('',*,*,#1790,.F.);
#1829 = ORIENTED_EDGE('',*,*,#1830,.T.);
#1830 = EDGE_CURVE('',#1782,#1831,#1833,.T.);
#1831 = VERTEX_POINT('',#1832);
#1832 = CARTESIAN_POINT('',(32.5,-12.5,-0.9));
#1833 = LINE('',#1834,#1835);
#1834 = CARTESIAN_POINT('',(32.5,-26.2,-0.9));
#1835 = VECTOR('',#1836,1.);
#1836 = DIRECTION('',(0.,1.,0.));
#1837 = ORIENTED_EDGE('',*,*,#1838,.T.);
#1838 = EDGE_CURVE('',#1831,#660,#1839,.T.);
#1839 = LINE('',#1840,#1841);
#1840 = CARTESIAN_POINT('',(32.55,-12.5,-0.95));
#1841 = VECTOR('',#1842,1.);
#1842 = DIRECTION('',(0.707106781187,0.,-0.707106781187));
#1843 = ORIENTED_EDGE('',*,*,#668,.F.);
#1844 = PLANE('',#1845);
#1845 = AXIS2_PLACEMENT_3D('',#1846,#1847,#1848);
#1846 = CARTESIAN_POINT('',(32.55,-26.2,-0.95));
#1847 = DIRECTION('',(-0.707106781187,0.,-0.707106781187));
#1848 = DIRECTION('',(0.,1.,0.));
#1849 = ADVANCED_FACE('',(#1850),#1869,.F.);
#1850 = FACE_BOUND('',#1851,.T.);
#1851 = EDGE_LOOP('',(#1852,#1860,#1867,#1868));
#1852 = ORIENTED_EDGE('',*,*,#1853,.F.);
#1853 = EDGE_CURVE('',#1854,#643,#1856,.T.);
#1854 = VERTEX_POINT('',#1855);
#1855 = CARTESIAN_POINT('',(47.5,-11.,-0.9));
#1856 = LINE('',#1857,#1858);
#1857 = CARTESIAN_POINT('',(47.5,-11.05,-0.95));
#1858 = VECTOR('',#1859,1.);
#1859 = DIRECTION('',(-0.,-0.707106781187,-0.707106781187));
#1860 = ORIENTED_EDGE('',*,*,#1861,.T.);
#1861 = EDGE_CURVE('',#1854,#1806,#1862,.T.);
#1862 = CIRCLE('',#1863,1.5);
#1863 = AXIS2_PLACEMENT_3D('',#1864,#1865,#1866);
#1864 = CARTESIAN_POINT('',(47.5,-9.5,-0.9));
#1865 = DIRECTION('',(-0.,0.,1.));
#1866 = DIRECTION('',(0.,-1.,0.));
#1867 = ORIENTED_EDGE('',*,*,#1805,.T.);
#1868 = ORIENTED_EDGE('',*,*,#642,.F.);
#1869 = CONICAL_SURFACE('',#1870,1.5,0.785398163397);
#1870 = AXIS2_PLACEMENT_3D('',#1871,#1872,#1873);
#1871 = CARTESIAN_POINT('',(47.5,-9.5,-0.9));
#1872 = DIRECTION('',(-0.,-0.,-1.));
#1873 = DIRECTION('',(0.,-1.,0.));
#1874 = ADVANCED_FACE('',(#1875),#1894,.T.);
#1875 = FACE_BOUND('',#1876,.T.);
#1876 = EDGE_LOOP('',(#1877,#1878,#1887,#1893));
#1877 = ORIENTED_EDGE('',*,*,#1838,.F.);
#1878 = ORIENTED_EDGE('',*,*,#1879,.T.);
#1879 = EDGE_CURVE('',#1831,#1880,#1882,.T.);
#1880 = VERTEX_POINT('',#1881);
#1881 = CARTESIAN_POINT('',(34.,-11.,-0.9));
#1882 = CIRCLE('',#1883,1.5);
#1883 = AXIS2_PLACEMENT_3D('',#1884,#1885,#1886);
#1884 = CARTESIAN_POINT('',(34.,-12.5,-0.9));
#1885 = DIRECTION('',(0.,0.,-1.));
#1886 = DIRECTION('',(-1.,0.,0.));
#1887 = ORIENTED_EDGE('',*,*,#1888,.T.);
#1888 = EDGE_CURVE('',#1880,#652,#1889,.T.);
#1889 = LINE('',#1890,#1891);
#1890 = CARTESIAN_POINT('',(34.,-11.,-0.9));
#1891 = VECTOR('',#1892,1.);
#1892 = DIRECTION('',(3.6E-16,-0.707106781187,-0.707106781187));
#1893 = ORIENTED_EDGE('',*,*,#659,.F.);
#1894 = CONICAL_SURFACE('',#1895,1.5,0.785398163397);
#1895 = AXIS2_PLACEMENT_3D('',#1896,#1897,#1898);
#1896 = CARTESIAN_POINT('',(34.,-12.5,-0.9));
#1897 = DIRECTION('',(0.,0.,1.));
#1898 = DIRECTION('',(-1.,0.,0.));
#1899 = ADVANCED_FACE('',(#1900),#1911,.F.);
#1900 = FACE_BOUND('',#1901,.T.);
#1901 = EDGE_LOOP('',(#1902,#1903,#1909,#1910));
#1902 = ORIENTED_EDGE('',*,*,#1888,.F.);
#1903 = ORIENTED_EDGE('',*,*,#1904,.T.);
#1904 = EDGE_CURVE('',#1880,#1854,#1905,.T.);
#1905 = LINE('',#1906,#1907);
#1906 = CARTESIAN_POINT('',(34.,-11.,-0.9));
#1907 = VECTOR('',#1908,1.);
#1908 = DIRECTION('',(1.,0.,0.));
#1909 = ORIENTED_EDGE('',*,*,#1853,.T.);
#1910 = ORIENTED_EDGE('',*,*,#651,.F.);
#1911 = PLANE('',#1912);
#1912 = AXIS2_PLACEMENT_3D('',#1913,#1914,#1915);
#1913 = CARTESIAN_POINT('',(34.,-11.05,-0.95));
#1914 = DIRECTION('',(0.,-0.707106781187,0.707106781187));
#1915 = DIRECTION('',(-1.,-0.,-0.));
#1916 = ADVANCED_FACE('',(#1917),#1936,.F.);
#1917 = FACE_BOUND('',#1918,.T.);
#1918 = EDGE_LOOP('',(#1919,#1927,#1934,#1935));
#1919 = ORIENTED_EDGE('',*,*,#1920,.F.);
#1920 = EDGE_CURVE('',#1921,#720,#1923,.T.);
#1921 = VERTEX_POINT('',#1922);
#1922 = CARTESIAN_POINT('',(58.6,-32.,-0.9));
#1923 = LINE('',#1924,#1925);
#1924 = CARTESIAN_POINT('',(58.6,-32.,-0.9));
#1925 = VECTOR('',#1926,1.);
#1926 = DIRECTION('',(0.707106781187,0.,-0.707106781187));
#1927 = ORIENTED_EDGE('',*,*,#1928,.T.);
#1928 = EDGE_CURVE('',#1921,#1921,#1929,.T.);
#1929 = CIRCLE('',#1930,1.6);
#1930 = AXIS2_PLACEMENT_3D('',#1931,#1932,#1933);
#1931 = CARTESIAN_POINT('',(57.,-32.,-0.9));
#1932 = DIRECTION('',(0.,0.,1.));
#1933 = DIRECTION('',(1.,0.,-0.));
#1934 = ORIENTED_EDGE('',*,*,#1920,.T.);
#1935 = ORIENTED_EDGE('',*,*,#719,.F.);
#1936 = CONICAL_SURFACE('',#1937,1.6,0.785398163397);
#1937 = AXIS2_PLACEMENT_3D('',#1938,#1939,#1940);
#1938 = CARTESIAN_POINT('',(57.,-32.,-0.9));
#1939 = DIRECTION('',(-0.,-0.,-1.));
#1940 = DIRECTION('',(1.,0.,0.));
#1941 = ADVANCED_FACE('',(#1942),#1961,.F.);
#1942 = FACE_BOUND('',#1943,.T.);
#1943 = EDGE_LOOP('',(#1944,#1952,#1959,#1960));
#1944 = ORIENTED_EDGE('',*,*,#1945,.F.);
#1945 = EDGE_CURVE('',#1946,#731,#1948,.T.);
#1946 = VERTEX_POINT('',#1947);
#1947 = CARTESIAN_POINT('',(1.6,-32.,-0.9));
#1948 = LINE('',#1949,#1950);
#1949 = CARTESIAN_POINT('',(1.6,-32.,-0.9));
#1950 = VECTOR('',#1951,1.);
#1951 = DIRECTION('',(0.707106781187,0.,-0.707106781187));
#1952 = ORIENTED_EDGE('',*,*,#1953,.T.);
#1953 = EDGE_CURVE('',#1946,#1946,#1954,.T.);
#1954 = CIRCLE('',#1955,1.6);
#1955 = AXIS2_PLACEMENT_3D('',#1956,#1957,#1958);
#1956 = CARTESIAN_POINT('',(0.,-32.,-0.9));
#1957 = DIRECTION('',(0.,0.,1.));
#1958 = DIRECTION('',(1.,0.,-0.));
#1959 = ORIENTED_EDGE('',*,*,#1945,.T.);
#1960 = ORIENTED_EDGE('',*,*,#730,.F.);
#1961 = CONICAL_SURFACE('',#1962,1.6,0.785398163397);
#1962 = AXIS2_PLACEMENT_3D('',#1963,#1964,#1965);
#1963 = CARTESIAN_POINT('',(0.,-32.,-0.9));
#1964 = DIRECTION('',(-0.,-0.,-1.));
#1965 = DIRECTION('',(1.,0.,0.));
#1966 = ADVANCED_FACE('',(#1967),#1986,.F.);
#1967 = FACE_BOUND('',#1968,.T.);
#1968 = EDGE_LOOP('',(#1969,#1977,#1984,#1985));
#1969 = ORIENTED_EDGE('',*,*,#1970,.F.);
#1970 = EDGE_CURVE('',#1971,#742,#1973,.T.);
#1971 = VERTEX_POINT('',#1972);
#1972 = CARTESIAN_POINT('',(58.6,0.,-0.9));
#1973 = LINE('',#1974,#1975);
#1974 = CARTESIAN_POINT('',(58.6,0.,-0.9));
#1975 = VECTOR('',#1976,1.);
#1976 = DIRECTION('',(0.707106781187,0.,-0.707106781187));
#1977 = ORIENTED_EDGE('',*,*,#1978,.T.);
#1978 = EDGE_CURVE('',#1971,#1971,#1979,.T.);
#1979 = CIRCLE('',#1980,1.6);
#1980 = AXIS2_PLACEMENT_3D('',#1981,#1982,#1983);
#1981 = CARTESIAN_POINT('',(57.,0.,-0.9));
#1982 = DIRECTION('',(0.,0.,1.));
#1983 = DIRECTION('',(1.,0.,-0.));
#1984 = ORIENTED_EDGE('',*,*,#1970,.T.);
#1985 = ORIENTED_EDGE('',*,*,#741,.F.);
#1986 = CONICAL_SURFACE('',#1987,1.6,0.785398163397);
#1987 = AXIS2_PLACEMENT_3D('',#1988,#1989,#1990);
#1988 = CARTESIAN_POINT('',(57.,0.,-0.9));
#1989 = DIRECTION('',(-0.,-0.,-1.));
#1990 = DIRECTION('',(1.,0.,0.));
#1991 = ADVANCED_FACE('',(#1992),#2011,.F.);
#1992 = FACE_BOUND('',#1993,.T.);
#1993 = EDGE_LOOP('',(#1994,#2002,#2009,#2010));
#1994 = ORIENTED_EDGE('',*,*,#1995,.F.);
#1995 = EDGE_CURVE('',#1996,#753,#1998,.T.);
#1996 = VERTEX_POINT('',#1997);
#1997 = CARTESIAN_POINT('',(1.6,0.,-0.9));
#1998 = LINE('',#1999,#2000);
#1999 = CARTESIAN_POINT('',(1.6,0.,-0.9));
#2000 = VECTOR('',#2001,1.);
#2001 = DIRECTION('',(0.707106781187,0.,-0.707106781187));
#2002 = ORIENTED_EDGE('',*,*,#2003,.T.);
#2003 = EDGE_CURVE('',#1996,#1996,#2004,.T.);
#2004 = CIRCLE('',#2005,1.6);
#2005 = AXIS2_PLACEMENT_3D('',#2006,#2007,#2008);
#2006 = CARTESIAN_POINT('',(0.,0.,-0.9));
#2007 = DIRECTION('',(0.,0.,1.));
#2008 = DIRECTION('',(1.,0.,-0.));
#2009 = ORIENTED_EDGE('',*,*,#1995,.T.);
#2010 = ORIENTED_EDGE('',*,*,#752,.F.);
#2011 = CONICAL_SURFACE('',#2012,1.6,0.785398163397);
#2012 = AXIS2_PLACEMENT_3D('',#2013,#2014,#2015);
#2013 = CARTESIAN_POINT('',(0.,0.,-0.9));
#2014 = DIRECTION('',(-0.,-0.,-1.));
#2015 = DIRECTION('',(1.,0.,0.));
#2016 = ADVANCED_FACE('',(#2017),#2028,.T.);
#2017 = FACE_BOUND('',#2018,.T.);
#2018 = EDGE_LOOP('',(#2019,#2020,#2021,#2027));
#2019 = ORIENTED_EDGE('',*,*,#795,.T.);
#2020 = ORIENTED_EDGE('',*,*,#1487,.T.);
#2021 = ORIENTED_EDGE('',*,*,#2022,.F.);
#2022 = EDGE_CURVE('',#920,#1488,#2023,.T.);
#2023 = LINE('',#2024,#2025);
#2024 = CARTESIAN_POINT('',(61.,-32.,0.));
#2025 = VECTOR('',#2026,1.);
#2026 = DIRECTION('',(-0.,-0.,-1.));
#2027 = ORIENTED_EDGE('',*,*,#919,.F.);
#2028 = CYLINDRICAL_SURFACE('',#2029,4.);
#2029 = AXIS2_PLACEMENT_3D('',#2030,#2031,#2032);
#2030 = CARTESIAN_POINT('',(57.,-32.,0.));
#2031 = DIRECTION('',(0.,0.,1.));
#2032 = DIRECTION('',(1.,0.,0.));
#2033 = ADVANCED_FACE('',(#2034),#2040,.T.);
#2034 = FACE_BOUND('',#2035,.T.);
#2035 = EDGE_LOOP('',(#2036,#2037,#2038,#2039));
#2036 = ORIENTED_EDGE('',*,*,#2022,.T.);
#2037 = ORIENTED_EDGE('',*,*,#1512,.T.);
#2038 = ORIENTED_EDGE('',*,*,#817,.F.);
#2039 = ORIENTED_EDGE('',*,*,#944,.F.);
#2040 = PLANE('',#2041);
#2041 = AXIS2_PLACEMENT_3D('',#2042,#2043,#2044);
#2042 = CARTESIAN_POINT('',(61.,-32.,0.));
#2043 = DIRECTION('',(1.,0.,0.));
#2044 = DIRECTION('',(0.,1.,0.));
#2045 = ADVANCED_FACE('',(#2046),#2062,.F.);
#2046 = FACE_BOUND('',#2047,.F.);
#2047 = EDGE_LOOP('',(#2048,#2054,#2055,#2061));
#2048 = ORIENTED_EDGE('',*,*,#2049,.T.);
#2049 = EDGE_CURVE('',#961,#1529,#2050,.T.);
#2050 = LINE('',#2051,#2052);
#2051 = CARTESIAN_POINT('',(29.5,-9.5,0.));
#2052 = VECTOR('',#2053,1.);
#2053 = DIRECTION('',(-0.,-0.,-1.));
#2054 = ORIENTED_EDGE('',*,*,#1536,.T.);
#2055 = ORIENTED_EDGE('',*,*,#2056,.F.);
#2056 = EDGE_CURVE('',#969,#1537,#2057,.T.);
#2057 = LINE('',#2058,#2059);
#2058 = CARTESIAN_POINT('',(13.,-9.5,0.));
#2059 = VECTOR('',#2060,1.);
#2060 = DIRECTION('',(-0.,-0.,-1.));
#2061 = ORIENTED_EDGE('',*,*,#968,.F.);
#2062 = PLANE('',#2063);
#2063 = AXIS2_PLACEMENT_3D('',#2064,#2065,#2066);
#2064 = CARTESIAN_POINT('',(29.5,-9.5,0.));
#2065 = DIRECTION('',(0.,1.,0.));
#2066 = DIRECTION('',(-1.,0.,0.));
#2067 = ADVANCED_FACE('',(#2068),#2079,.T.);
#2068 = FACE_BOUND('',#2069,.T.);
#2069 = EDGE_LOOP('',(#2070,#2071,#2072,#2078));
#2070 = ORIENTED_EDGE('',*,*,#2049,.T.);
#2071 = ORIENTED_EDGE('',*,*,#1567,.F.);
#2072 = ORIENTED_EDGE('',*,*,#2073,.F.);
#2073 = EDGE_CURVE('',#992,#1560,#2074,.T.);
#2074 = LINE('',#2075,#2076);
#2075 = CARTESIAN_POINT('',(31.,-8.,0.));
#2076 = VECTOR('',#2077,1.);
#2077 = DIRECTION('',(-0.,-0.,-1.));
#2078 = ORIENTED_EDGE('',*,*,#999,.T.);
#2079 = CYLINDRICAL_SURFACE('',#2080,1.5);
#2080 = AXIS2_PLACEMENT_3D('',#2081,#2082,#2083);
#2081 = CARTESIAN_POINT('',(29.5,-8.,0.));
#2082 = DIRECTION('',(0.,0.,1.));
#2083 = DIRECTION('',(1.,0.,0.));
#2084 = ADVANCED_FACE('',(#2085),#2096,.F.);
#2085 = FACE_BOUND('',#2086,.F.);
#2086 = EDGE_LOOP('',(#2087,#2088,#2089,#2095));
#2087 = ORIENTED_EDGE('',*,*,#2056,.T.);
#2088 = ORIENTED_EDGE('',*,*,#1585,.T.);
#2089 = ORIENTED_EDGE('',*,*,#2090,.F.);
#2090 = EDGE_CURVE('',#1018,#1586,#2091,.T.);
#2091 = LINE('',#2092,#2093);
#2092 = CARTESIAN_POINT('',(11.5,-11.,0.));
#2093 = VECTOR('',#2094,1.);
#2094 = DIRECTION('',(-0.,-0.,-1.));
#2095 = ORIENTED_EDGE('',*,*,#1017,.F.);
#2096 = CYLINDRICAL_SURFACE('',#2097,1.5);
#2097 = AXIS2_PLACEMENT_3D('',#2098,#2099,#2100);
#2098 = CARTESIAN_POINT('',(13.,-11.,0.));
#2099 = DIRECTION('',(0.,0.,1.));
#2100 = DIRECTION('',(1.,0.,0.));
#2101 = ADVANCED_FACE('',(#2102),#2113,.T.);
#2102 = FACE_BOUND('',#2103,.T.);
#2103 = EDGE_LOOP('',(#2104,#2105,#2106,#2112));
#2104 = ORIENTED_EDGE('',*,*,#2073,.T.);
#2105 = ORIENTED_EDGE('',*,*,#1617,.F.);
#2106 = ORIENTED_EDGE('',*,*,#2107,.F.);
#2107 = EDGE_CURVE('',#1042,#1610,#2108,.T.);
#2108 = LINE('',#2109,#2110);
#2109 = CARTESIAN_POINT('',(31.,-0.5,0.));
#2110 = VECTOR('',#2111,1.);
#2111 = DIRECTION('',(-0.,-0.,-1.));
#2112 = ORIENTED_EDGE('',*,*,#1049,.T.);
#2113 = PLANE('',#2114);
#2114 = AXIS2_PLACEMENT_3D('',#2115,#2116,#2117);
#2115 = CARTESIAN_POINT('',(31.,-8.,0.));
#2116 = DIRECTION('',(1.,0.,0.));
#2117 = DIRECTION('',(0.,1.,0.));
#2118 = ADVANCED_FACE('',(#2119),#2130,.F.);
#2119 = FACE_BOUND('',#2120,.F.);
#2120 = EDGE_LOOP('',(#2121,#2122,#2123,#2129));
#2121 = ORIENTED_EDGE('',*,*,#2090,.T.);
#2122 = ORIENTED_EDGE('',*,*,#1634,.T.);
#2123 = ORIENTED_EDGE('',*,*,#2124,.F.);
#2124 = EDGE_CURVE('',#1067,#1635,#2125,.T.);
#2125 = LINE('',#2126,#2127);
#2126 = CARTESIAN_POINT('',(11.5,-26.2,0.));
#2127 = VECTOR('',#2128,1.);
#2128 = DIRECTION('',(-0.,-0.,-1.));
#2129 = ORIENTED_EDGE('',*,*,#1066,.F.);
#2130 = PLANE('',#2131);
#2131 = AXIS2_PLACEMENT_3D('',#2132,#2133,#2134);
#2132 = CARTESIAN_POINT('',(11.5,-11.,0.));
#2133 = DIRECTION('',(-1.,0.,0.));
#2134 = DIRECTION('',(0.,-1.,0.));
#2135 = ADVANCED_FACE('',(#2136),#2147,.F.);
#2136 = FACE_BOUND('',#2137,.F.);
#2137 = EDGE_LOOP('',(#2138,#2144,#2145,#2146));
#2138 = ORIENTED_EDGE('',*,*,#2139,.T.);
#2139 = EDGE_CURVE('',#1090,#1658,#2140,.T.);
#2140 = LINE('',#2141,#2142);
#2141 = CARTESIAN_POINT('',(32.5,1.,0.));
#2142 = VECTOR('',#2143,1.);
#2143 = DIRECTION('',(-0.,-0.,-1.));
#2144 = ORIENTED_EDGE('',*,*,#1665,.T.);
#2145 = ORIENTED_EDGE('',*,*,#2107,.F.);
#2146 = ORIENTED_EDGE('',*,*,#1097,.F.);
#2147 = CYLINDRICAL_SURFACE('',#2148,1.5);
#2148 = AXIS2_PLACEMENT_3D('',#2149,#2150,#2151);
#2149 = CARTESIAN_POINT('',(32.5,-0.5,0.));
#2150 = DIRECTION('',(0.,0.,1.));
#2151 = DIRECTION('',(1.,0.,0.));
#2152 = ADVANCED_FACE('',(#2153),#2164,.F.);
#2153 = FACE_BOUND('',#2154,.F.);
#2154 = EDGE_LOOP('',(#2155,#2156,#2157,#2163));
#2155 = ORIENTED_EDGE('',*,*,#2124,.T.);
#2156 = ORIENTED_EDGE('',*,*,#1683,.T.);
#2157 = ORIENTED_EDGE('',*,*,#2158,.F.);
#2158 = EDGE_CURVE('',#1116,#1684,#2159,.T.);
#2159 = LINE('',#2160,#2161);
#2160 = CARTESIAN_POINT('',(13.,-27.7,0.));
#2161 = VECTOR('',#2162,1.);
#2162 = DIRECTION('',(-0.,-0.,-1.));
#2163 = ORIENTED_EDGE('',*,*,#1115,.F.);
#2164 = CYLINDRICAL_SURFACE('',#2165,1.5);
#2165 = AXIS2_PLACEMENT_3D('',#2166,#2167,#2168);
#2166 = CARTESIAN_POINT('',(13.,-26.2,0.));
#2167 = DIRECTION('',(0.,0.,1.));
#2168 = DIRECTION('',(1.,0.,0.));
#2169 = ADVANCED_FACE('',(#2170),#2181,.T.);
#2170 = FACE_BOUND('',#2171,.T.);
#2171 = EDGE_LOOP('',(#2172,#2173,#2174,#2180));
#2172 = ORIENTED_EDGE('',*,*,#2139,.T.);
#2173 = ORIENTED_EDGE('',*,*,#1715,.F.);
#2174 = ORIENTED_EDGE('',*,*,#2175,.F.);
#2175 = EDGE_CURVE('',#1140,#1708,#2176,.T.);
#2176 = LINE('',#2177,#2178);
#2177 = CARTESIAN_POINT('',(47.5,1.,0.));
#2178 = VECTOR('',#2179,1.);
#2179 = DIRECTION('',(-0.,-0.,-1.));
#2180 = ORIENTED_EDGE('',*,*,#1147,.T.);
#2181 = PLANE('',#2182);
#2182 = AXIS2_PLACEMENT_3D('',#2183,#2184,#2185);
#2183 = CARTESIAN_POINT('',(32.5,1.,0.));
#2184 = DIRECTION('',(0.,-1.,0.));
#2185 = DIRECTION('',(1.,0.,0.));
#2186 = ADVANCED_FACE('',(#2187),#2198,.F.);
#2187 = FACE_BOUND('',#2188,.F.);
#2188 = EDGE_LOOP('',(#2189,#2190,#2191,#2197));
#2189 = ORIENTED_EDGE('',*,*,#2158,.T.);
#2190 = ORIENTED_EDGE('',*,*,#1732,.T.);
#2191 = ORIENTED_EDGE('',*,*,#2192,.F.);
#2192 = EDGE_CURVE('',#1165,#1733,#2193,.T.);
#2193 = LINE('',#2194,#2195);
#2194 = CARTESIAN_POINT('',(31.,-27.7,0.));
#2195 = VECTOR('',#2196,1.);
#2196 = DIRECTION('',(-0.,-0.,-1.));
#2197 = ORIENTED_EDGE('',*,*,#1164,.F.);
#2198 = PLANE('',#2199);
#2199 = AXIS2_PLACEMENT_3D('',#2200,#2201,#2202);
#2200 = CARTESIAN_POINT('',(13.,-27.7,0.));
#2201 = DIRECTION('',(0.,-1.,0.));
#2202 = DIRECTION('',(1.,0.,0.));
#2203 = ADVANCED_FACE('',(#2204),#2215,.F.);
#2204 = FACE_BOUND('',#2205,.F.);
#2205 = EDGE_LOOP('',(#2206,#2212,#2213,#2214));
#2206 = ORIENTED_EDGE('',*,*,#2207,.T.);
#2207 = EDGE_CURVE('',#1188,#1756,#2208,.T.);
#2208 = LINE('',#2209,#2210);
#2209 = CARTESIAN_POINT('',(49.,-0.5,0.));
#2210 = VECTOR('',#2211,1.);
#2211 = DIRECTION('',(-0.,-0.,-1.));
#2212 = ORIENTED_EDGE('',*,*,#1763,.T.);
#2213 = ORIENTED_EDGE('',*,*,#2175,.F.);
#2214 = ORIENTED_EDGE('',*,*,#1195,.F.);
#2215 = CYLINDRICAL_SURFACE('',#2216,1.5);
#2216 = AXIS2_PLACEMENT_3D('',#2217,#2218,#2219);
#2217 = CARTESIAN_POINT('',(47.5,-0.5,0.));
#2218 = DIRECTION('',(0.,0.,1.));
#2219 = DIRECTION('',(1.,0.,0.));
#2220 = ADVANCED_FACE('',(#2221),#2232,.F.);
#2221 = FACE_BOUND('',#2222,.F.);
#2222 = EDGE_LOOP('',(#2223,#2224,#2225,#2231));
#2223 = ORIENTED_EDGE('',*,*,#2192,.T.);
#2224 = ORIENTED_EDGE('',*,*,#1781,.T.);
#2225 = ORIENTED_EDGE('',*,*,#2226,.F.);
#2226 = EDGE_CURVE('',#1214,#1782,#2227,.T.);
#2227 = LINE('',#2228,#2229);
#2228 = CARTESIAN_POINT('',(32.5,-26.2,0.));
#2229 = VECTOR('',#2230,1.);
#2230 = DIRECTION('',(-0.,-0.,-1.));
#2231 = ORIENTED_EDGE('',*,*,#1213,.F.);
#2232 = CYLINDRICAL_SURFACE('',#2233,1.5);
#2233 = AXIS2_PLACEMENT_3D('',#2234,#2235,#2236);
#2234 = CARTESIAN_POINT('',(31.,-26.2,0.));
#2235 = DIRECTION('',(0.,0.,1.));
#2236 = DIRECTION('',(1.,0.,0.));
#2237 = ADVANCED_FACE('',(#2238),#2249,.T.);
#2238 = FACE_BOUND('',#2239,.T.);
#2239 = EDGE_LOOP('',(#2240,#2241,#2242,#2248));
#2240 = ORIENTED_EDGE('',*,*,#2207,.T.);
#2241 = ORIENTED_EDGE('',*,*,#1813,.F.);
#2242 = ORIENTED_EDGE('',*,*,#2243,.F.);
#2243 = EDGE_CURVE('',#1238,#1806,#2244,.T.);
#2244 = LINE('',#2245,#2246);
#2245 = CARTESIAN_POINT('',(49.,-9.5,0.));
#2246 = VECTOR('',#2247,1.);
#2247 = DIRECTION('',(-0.,-0.,-1.));
#2248 = ORIENTED_EDGE('',*,*,#1245,.T.);
#2249 = PLANE('',#2250);
#2250 = AXIS2_PLACEMENT_3D('',#2251,#2252,#2253);
#2251 = CARTESIAN_POINT('',(49.,-0.5,0.));
#2252 = DIRECTION('',(-1.,0.,0.));
#2253 = DIRECTION('',(0.,-1.,0.));
#2254 = ADVANCED_FACE('',(#2255),#2266,.F.);
#2255 = FACE_BOUND('',#2256,.F.);
#2256 = EDGE_LOOP('',(#2257,#2258,#2259,#2265));
#2257 = ORIENTED_EDGE('',*,*,#2226,.T.);
#2258 = ORIENTED_EDGE('',*,*,#1830,.T.);
#2259 = ORIENTED_EDGE('',*,*,#2260,.F.);
#2260 = EDGE_CURVE('',#1263,#1831,#2261,.T.);
#2261 = LINE('',#2262,#2263);
#2262 = CARTESIAN_POINT('',(32.5,-12.5,0.));
#2263 = VECTOR('',#2264,1.);
#2264 = DIRECTION('',(-0.,-0.,-1.));
#2265 = ORIENTED_EDGE('',*,*,#1262,.F.);
#2266 = PLANE('',#2267);
#2267 = AXIS2_PLACEMENT_3D('',#2268,#2269,#2270);
#2268 = CARTESIAN_POINT('',(32.5,-26.2,0.));
#2269 = DIRECTION('',(1.,0.,0.));
#2270 = DIRECTION('',(0.,1.,0.));
#2271 = ADVANCED_FACE('',(#2272),#2283,.F.);
#2272 = FACE_BOUND('',#2273,.F.);
#2273 = EDGE_LOOP('',(#2274,#2280,#2281,#2282));
#2274 = ORIENTED_EDGE('',*,*,#2275,.T.);
#2275 = EDGE_CURVE('',#1286,#1854,#2276,.T.);
#2276 = LINE('',#2277,#2278);
#2277 = CARTESIAN_POINT('',(47.5,-11.,0.));
#2278 = VECTOR('',#2279,1.);
#2279 = DIRECTION('',(-0.,-0.,-1.));
#2280 = ORIENTED_EDGE('',*,*,#1861,.T.);
#2281 = ORIENTED_EDGE('',*,*,#2243,.F.);
#2282 = ORIENTED_EDGE('',*,*,#1293,.F.);
#2283 = CYLINDRICAL_SURFACE('',#2284,1.5);
#2284 = AXIS2_PLACEMENT_3D('',#2285,#2286,#2287);
#2285 = CARTESIAN_POINT('',(47.5,-9.5,0.));
#2286 = DIRECTION('',(0.,0.,1.));
#2287 = DIRECTION('',(1.,0.,0.));
#2288 = ADVANCED_FACE('',(#2289),#2300,.T.);
#2289 = FACE_BOUND('',#2290,.T.);
#2290 = EDGE_LOOP('',(#2291,#2297,#2298,#2299));
#2291 = ORIENTED_EDGE('',*,*,#2292,.T.);
#2292 = EDGE_CURVE('',#1312,#1880,#2293,.T.);
#2293 = LINE('',#2294,#2295);
#2294 = CARTESIAN_POINT('',(34.,-11.,0.));
#2295 = VECTOR('',#2296,1.);
#2296 = DIRECTION('',(-0.,-0.,-1.));
#2297 = ORIENTED_EDGE('',*,*,#1879,.F.);
#2298 = ORIENTED_EDGE('',*,*,#2260,.F.);
#2299 = ORIENTED_EDGE('',*,*,#1311,.T.);
#2300 = CYLINDRICAL_SURFACE('',#2301,1.5);
#2301 = AXIS2_PLACEMENT_3D('',#2302,#2303,#2304);
#2302 = CARTESIAN_POINT('',(34.,-12.5,0.));
#2303 = DIRECTION('',(0.,0.,1.));
#2304 = DIRECTION('',(1.,0.,0.));
#2305 = ADVANCED_FACE('',(#2306),#2312,.T.);
#2306 = FACE_BOUND('',#2307,.T.);
#2307 = EDGE_LOOP('',(#2308,#2309,#2310,#2311));
#2308 = ORIENTED_EDGE('',*,*,#2275,.T.);
#2309 = ORIENTED_EDGE('',*,*,#1904,.F.);
#2310 = ORIENTED_EDGE('',*,*,#2292,.F.);
#2311 = ORIENTED_EDGE('',*,*,#1336,.T.);
#2312 = PLANE('',#2313);
#2313 = AXIS2_PLACEMENT_3D('',#2314,#2315,#2316);
#2314 = CARTESIAN_POINT('',(47.5,-11.,0.));
#2315 = DIRECTION('',(0.,1.,0.));
#2316 = DIRECTION('',(-1.,0.,0.));
#2317 = ADVANCED_FACE('',(#2318),#2329,.F.);
#2318 = FACE_BOUND('',#2319,.F.);
#2319 = EDGE_LOOP('',(#2320,#2326,#2327,#2328));
#2320 = ORIENTED_EDGE('',*,*,#2321,.T.);
#2321 = EDGE_CURVE('',#1353,#1921,#2322,.T.);
#2322 = LINE('',#2323,#2324);
#2323 = CARTESIAN_POINT('',(58.6,-32.,0.));
#2324 = VECTOR('',#2325,1.);
#2325 = DIRECTION('',(-0.,-0.,-1.));
#2326 = ORIENTED_EDGE('',*,*,#1928,.T.);
#2327 = ORIENTED_EDGE('',*,*,#2321,.F.);
#2328 = ORIENTED_EDGE('',*,*,#1360,.F.);
#2329 = CYLINDRICAL_SURFACE('',#2330,1.6);
#2330 = AXIS2_PLACEMENT_3D('',#2331,#2332,#2333);
#2331 = CARTESIAN_POINT('',(57.,-32.,0.));
#2332 = DIRECTION('',(0.,0.,1.));
#2333 = DIRECTION('',(1.,0.,0.));
#2334 = ADVANCED_FACE('',(#2335),#2346,.F.);
#2335 = FACE_BOUND('',#2336,.F.);
#2336 = EDGE_LOOP('',(#2337,#2343,#2344,#2345));
#2337 = ORIENTED_EDGE('',*,*,#2338,.T.);
#2338 = EDGE_CURVE('',#1378,#1946,#2339,.T.);
#2339 = LINE('',#2340,#2341);
#2340 = CARTESIAN_POINT('',(1.6,-32.,0.));
#2341 = VECTOR('',#2342,1.);
#2342 = DIRECTION('',(-0.,-0.,-1.));
#2343 = ORIENTED_EDGE('',*,*,#1953,.T.);
#2344 = ORIENTED_EDGE('',*,*,#2338,.F.);
#2345 = ORIENTED_EDGE('',*,*,#1385,.F.);
#2346 = CYLINDRICAL_SURFACE('',#2347,1.6);
#2347 = AXIS2_PLACEMENT_3D('',#2348,#2349,#2350);
#2348 = CARTESIAN_POINT('',(1.E-16,-32.,0.));
#2349 = DIRECTION('',(0.,0.,1.));
#2350 = DIRECTION('',(1.,0.,0.));
#2351 = ADVANCED_FACE('',(#2352),#2363,.F.);
#2352 = FACE_BOUND('',#2353,.F.);
#2353 = EDGE_LOOP('',(#2354,#2360,#2361,#2362));
#2354 = ORIENTED_EDGE('',*,*,#2355,.T.);
#2355 = EDGE_CURVE('',#1403,#1971,#2356,.T.);
#2356 = LINE('',#2357,#2358);
#2357 = CARTESIAN_POINT('',(58.6,0.,0.));
#2358 = VECTOR('',#2359,1.);
#2359 = DIRECTION('',(-0.,-0.,-1.));
#2360 = ORIENTED_EDGE('',*,*,#1978,.T.);
#2361 = ORIENTED_EDGE('',*,*,#2355,.F.);
#2362 = ORIENTED_EDGE('',*,*,#1410,.F.);
#2363 = CYLINDRICAL_SURFACE('',#2364,1.6);
#2364 = AXIS2_PLACEMENT_3D('',#2365,#2366,#2367);
#2365 = CARTESIAN_POINT('',(57.,0.,0.));
#2366 = DIRECTION('',(0.,0.,1.));
#2367 = DIRECTION('',(1.,0.,0.));
#2368 = ADVANCED_FACE('',(#2369),#2380,.F.);
#2369 = FACE_BOUND('',#2370,.F.);
#2370 = EDGE_LOOP('',(#2371,#2377,#2378,#2379));
#2371 = ORIENTED_EDGE('',*,*,#2372,.T.);
#2372 = EDGE_CURVE('',#1428,#1996,#2373,.T.);
#2373 = LINE('',#2374,#2375);
#2374 = CARTESIAN_POINT('',(1.6,0.,0.));
#2375 = VECTOR('',#2376,1.);
#2376 = DIRECTION('',(-0.,-0.,-1.));
#2377 = ORIENTED_EDGE('',*,*,#2003,.T.);
#2378 = ORIENTED_EDGE('',*,*,#2372,.F.);
#2379 = ORIENTED_EDGE('',*,*,#1435,.F.);
#2380 = CYLINDRICAL_SURFACE('',#2381,1.6);
#2381 = AXIS2_PLACEMENT_3D('',#2382,#2383,#2384);
#2382 = CARTESIAN_POINT('',(0.,0.,0.));
#2383 = DIRECTION('',(0.,0.,1.));
#2384 = DIRECTION('',(1.,0.,0.));
#2385 = ( GEOMETRIC_REPRESENTATION_CONTEXT(3) 
GLOBAL_UNCERTAINTY_ASSIGNED_CONTEXT((#2389)) 
GLOBAL_UNIT_ASSIGNED_CONTEXT((#2386,#2387,#2388)) REPRESENTATION_CONTEXT
('Context #1','3D Context with UNIT and UNCERTAINTY') );
#2386 = ( LENGTH_UNIT() NAMED_UNIT(*) SI_UNIT(.MILLI.,.METRE.) );
#2387 = ( NAMED_UNIT(*) PLANE_ANGLE_UNIT() SI_UNIT($,.RADIAN.) );
#2388 = ( NAMED_UNIT(*) SI_UNIT($,.STERADIAN.) SOLID_ANGLE_UNIT() );
#2389 = UNCERTAINTY_MEASURE_WITH_UNIT(LENGTH_MEASURE(1.E-07),#2386,
  'distance_accuracy_value','confusion accuracy');
#2390 = PRODUCT_RELATED_PRODUCT_CATEGORY('part',$,(#7));
#2391 = MECHANICAL_DESIGN_GEOMETRIC_PRESENTATION_REPRESENTATION('',(
    #2392),#2385);
#2392 = STYLED_ITEM('color',(#2393),#15);
#2393 = PRESENTATION_STYLE_ASSIGNMENT((#2394,#2400));
#2394 = SURFACE_STYLE_USAGE(.BOTH.,#2395);
#2395 = SURFACE_SIDE_STYLE('',(#2396));
#2396 = SURFACE_STYLE_FILL_AREA(#2397);
#2397 = FILL_AREA_STYLE('',(#2398));
#2398 = FILL_AREA_STYLE_COLOUR('',#2399);
#2399 = COLOUR_RGB('',0.501960817233,0.109803919806,0.);
#2400 = CURVE_STYLE('',#2401,POSITIVE_LENGTH_MEASURE(0.1),#2402);
#2401 = DRAUGHTING_PRE_DEFINED_CURVE_FONT('continuous');
#2402 = COLOUR_RGB('',9.803921802644E-02,9.803921802644E-02,
  9.803921802644E-02);
ENDSEC;
END-ISO-10303-21;
