M48
; DRILL file {KiCad 9.0.6} date 2026-01-27T10:20:48-0500
; FORMAT={-:-/ absolute / metric / decimal}
; #@! TF.CreationDate,2026-01-27T10:20:48-05:00
; #@! TF.GenerationSoftware,Kicad,Pcbnew,9.0.6
; #@! TF.FileFunction,Plated,1,2,PTH
FMAT,2
METRIC
; #@! TA.AperFunction,Plated,PTH,ViaDrill
T1C0.400
%
G90
G05
T1
X103.75Y-63.25
X104.25Y-92.5
X105.0Y-78.5
X105.0Y-79.5
X105.0Y-80.5
X105.0Y-81.5
X105.0Y-82.5
X105.0Y-83.5
X105.0Y-84.5
X106.0Y-78.0
X106.0Y-79.0
X106.0Y-80.0
X106.0Y-81.0
X106.0Y-82.0
X106.0Y-83.0
X106.0Y-84.0
X106.0Y-85.0
X110.0Y-68.5
X110.5Y-69.5
X111.0Y-68.5
X111.5Y-69.5
X112.0Y-68.5
X112.5Y-69.5
X112.5Y-89.5
X113.0Y-68.5
X113.0Y-73.5
X113.0Y-90.5
X113.5Y-69.5
X113.5Y-89.5
X114.0Y-68.5
X114.0Y-74.0
X114.0Y-75.0
X114.0Y-76.0
X114.0Y-77.0
X114.0Y-78.0
X114.0Y-79.0
X114.0Y-80.0
X114.0Y-81.0
X114.0Y-82.0
X114.0Y-83.0
X114.0Y-84.0
X114.0Y-85.0
X114.0Y-90.5
X114.5Y-69.5
X114.5Y-89.5
X115.0Y-68.5
X115.0Y-73.5
X115.0Y-74.5
X115.0Y-75.5
X115.0Y-76.5
X115.0Y-77.5
X115.0Y-78.5
X115.0Y-79.5
X115.0Y-80.5
X115.0Y-81.5
X115.0Y-82.5
X115.0Y-83.5
X115.0Y-84.5
X115.0Y-85.5
X115.0Y-90.5
X115.5Y-63.2
X115.5Y-69.5
X115.5Y-89.5
X116.0Y-68.5
X116.0Y-74.0
X116.0Y-75.0
X116.0Y-78.0
X116.0Y-81.0
X116.0Y-84.0
X116.0Y-85.0
X116.0Y-90.5
X116.5Y-69.5
X116.5Y-89.5
X117.0Y-68.5
X117.0Y-73.5
X117.0Y-74.5
X117.0Y-76.5
X117.0Y-79.5
X117.0Y-82.5
X117.0Y-84.5
X117.0Y-85.5
X117.0Y-90.5
X117.5Y-69.5
X117.5Y-89.5
X118.0Y-68.5
X118.0Y-74.0
X118.0Y-75.0
X118.0Y-78.0
X118.0Y-81.0
X118.0Y-84.0
X118.0Y-85.0
X118.0Y-90.5
X118.5Y-69.5
X118.5Y-89.5
X119.0Y-68.5
X119.0Y-73.5
X119.0Y-74.5
X119.0Y-76.5
X119.0Y-79.5
X119.0Y-82.5
X119.0Y-84.5
X119.0Y-85.5
X119.0Y-90.5
X119.5Y-69.5
X119.5Y-89.5
X120.0Y-68.5
X120.0Y-74.0
X120.0Y-75.0
X120.0Y-78.0
X120.0Y-81.0
X120.0Y-84.0
X120.0Y-85.0
X120.0Y-90.5
X120.5Y-69.5
X120.5Y-89.5
X121.0Y-68.5
X121.0Y-73.5
X121.0Y-79.5
X121.0Y-82.5
X121.0Y-84.5
X121.0Y-85.5
X121.0Y-86.5
X121.5Y-69.5
X122.0Y-68.5
X122.0Y-78.0
X122.0Y-81.0
X122.0Y-84.0
X122.0Y-85.0
X122.0Y-86.0
X122.5Y-69.5
X123.0Y-79.5
X123.0Y-82.5
X123.0Y-84.5
X123.0Y-85.5
X123.0Y-86.5
X124.0Y-85.0
X124.0Y-86.0
X125.0Y-78.5
X125.0Y-79.5
X125.0Y-80.5
X125.0Y-81.5
X125.0Y-82.5
X125.0Y-83.5
X125.0Y-84.5
X125.0Y-85.5
X125.25Y-66.7
X126.1Y-60.1
X126.3Y-65.4
X126.5Y-63.587
X127.5Y-71.2
X129.0Y-77.5
X129.0Y-78.5
X129.0Y-79.5
X129.0Y-80.5
X130.0Y-78.0
X130.0Y-79.0
X130.0Y-80.0
X131.1Y-70.0
X131.9Y-64.8
X132.0Y-60.0
X136.0Y-62.25
X137.0Y-74.5
X137.0Y-76.5
X137.0Y-78.5
X137.0Y-80.5
X137.0Y-82.5
X137.0Y-84.5
X138.0Y-75.5
X138.0Y-77.5
X138.0Y-79.5
X138.0Y-81.5
X138.0Y-83.5
X139.0Y-74.5
X139.0Y-76.5
X139.0Y-78.5
X139.0Y-80.5
X139.0Y-82.5
X139.0Y-84.5
X140.0Y-75.5
X140.0Y-77.5
X140.0Y-79.5
X140.0Y-81.5
X140.0Y-83.5
X140.2Y-70.3
X140.9Y-67.8
X141.0Y-74.5
X141.0Y-76.5
X141.0Y-78.5
X141.0Y-80.5
X141.0Y-82.5
X141.0Y-84.5
X142.0Y-75.5
X142.0Y-77.5
X142.0Y-79.5
X142.0Y-81.5
X142.0Y-83.5
X142.75Y-63.2
X143.0Y-74.5
X143.0Y-76.5
X143.0Y-78.5
X143.0Y-80.5
X143.0Y-82.5
X143.0Y-84.5
X144.0Y-75.5
X144.0Y-77.5
X144.0Y-79.5
X144.0Y-81.5
X144.0Y-83.5
X144.25Y-71.2
X145.0Y-74.5
X145.0Y-76.5
X145.0Y-78.5
X145.0Y-80.5
X145.0Y-82.5
X145.0Y-84.5
X146.0Y-59.75
X146.5Y-92.5
M30
