%TF.GenerationSoftware,KiCad,Pcbnew,9.0.6*%
%TF.CreationDate,2026-02-02T20:30:56-05:00*%
%TF.ProjectId,Modular_Load,4d6f6475-6c61-4725-9f4c-6f61642e6b69,rev?*%
%TF.SameCoordinates,Original*%
%TF.FileFunction,Legend,Bot*%
%TF.FilePolarity,Positive*%
%FSLAX46Y46*%
G04 Gerber Fmt 4.6, Leading zero omitted, Abs format (unit mm)*
G04 Created by KiCad (PCBNEW 9.0.6) date 2026-02-02 20:30:56*
%MOMM*%
%LPD*%
G01*
G04 APERTURE LIST*
%ADD10C,0.150000*%
%ADD11C,0.120000*%
G04 APERTURE END LIST*
D10*
X126445837Y-60105392D02*
G75*
G02*
X125745837Y-60105392I-350000J0D01*
G01*
X125745837Y-60105392D02*
G75*
G02*
X126445837Y-60105392I350000J0D01*
G01*
X136350000Y-62250000D02*
G75*
G02*
X135650000Y-62250000I-350000J0D01*
G01*
X135650000Y-62250000D02*
G75*
G02*
X136350000Y-62250000I350000J0D01*
G01*
X143093928Y-63208332D02*
G75*
G02*
X142393928Y-63208332I-350000J0D01*
G01*
X142393928Y-63208332D02*
G75*
G02*
X143093928Y-63208332I350000J0D01*
G01*
X141241629Y-67799387D02*
G75*
G02*
X140541629Y-67799387I-350000J0D01*
G01*
X140541629Y-67799387D02*
G75*
G02*
X141241629Y-67799387I350000J0D01*
G01*
X140100000Y-70250000D02*
G75*
G02*
X139400000Y-70250000I-350000J0D01*
G01*
X139400000Y-70250000D02*
G75*
G02*
X140100000Y-70250000I350000J0D01*
G01*
X127847860Y-71207758D02*
G75*
G02*
X127147860Y-71207758I-350000J0D01*
G01*
X127147860Y-71207758D02*
G75*
G02*
X127847860Y-71207758I350000J0D01*
G01*
X131462494Y-70002880D02*
G75*
G02*
X130762494Y-70002880I-350000J0D01*
G01*
X130762494Y-70002880D02*
G75*
G02*
X131462494Y-70002880I350000J0D01*
G01*
X132257413Y-64803407D02*
G75*
G02*
X131557413Y-64803407I-350000J0D01*
G01*
X131557413Y-64803407D02*
G75*
G02*
X132257413Y-64803407I350000J0D01*
G01*
X126847961Y-63598529D02*
G75*
G02*
X126147961Y-63598529I-350000J0D01*
G01*
X126147961Y-63598529D02*
G75*
G02*
X126847961Y-63598529I350000J0D01*
G01*
X125598975Y-66707162D02*
G75*
G02*
X124898975Y-66707162I-350000J0D01*
G01*
X124898975Y-66707162D02*
G75*
G02*
X125598975Y-66707162I350000J0D01*
G01*
X123850000Y-59949000D02*
G75*
G02*
X123150000Y-59949000I-350000J0D01*
G01*
X123150000Y-59949000D02*
G75*
G02*
X123850000Y-59949000I350000J0D01*
G01*
X127855302Y-71205715D02*
G75*
G02*
X127155302Y-71205715I-350000J0D01*
G01*
X127155302Y-71205715D02*
G75*
G02*
X127855302Y-71205715I350000J0D01*
G01*
X144596893Y-71195384D02*
G75*
G02*
X143896893Y-71195384I-350000J0D01*
G01*
X143896893Y-71195384D02*
G75*
G02*
X144596893Y-71195384I350000J0D01*
G01*
D11*
%TO.C,TJ15*%
X122190000Y-71782983D02*
X122190000Y-71417017D01*
X125610000Y-71782983D02*
X125610000Y-71417017D01*
%TO.C,TJ21*%
X126717017Y-73690000D02*
X127082983Y-73690000D01*
X126717017Y-77110000D02*
X127082983Y-77110000D01*
%TO.C,TJ9*%
X108282983Y-71890000D02*
X107917017Y-71890000D01*
X108282983Y-75310000D02*
X107917017Y-75310000D01*
%TO.C,TJ12*%
X108282983Y-83890000D02*
X107917017Y-83890000D01*
X108282983Y-87310000D02*
X107917017Y-87310000D01*
%TO.C,TJ13*%
X110190000Y-87417017D02*
X110190000Y-87782983D01*
X113610000Y-87417017D02*
X113610000Y-87782983D01*
%TO.C,TJ20*%
X118190000Y-87417017D02*
X118190000Y-87782983D01*
X121610000Y-87417017D02*
X121610000Y-87782983D01*
%TO.C,TJ14*%
X114190000Y-87417017D02*
X114190000Y-87782983D01*
X117610000Y-87417017D02*
X117610000Y-87782983D01*
%TO.C,TJ23*%
X126717017Y-77690000D02*
X127082983Y-77690000D01*
X126717017Y-81110000D02*
X127082983Y-81110000D01*
%TO.C,TJ17*%
X114190000Y-71782983D02*
X114190000Y-71417017D01*
X117610000Y-71782983D02*
X117610000Y-71417017D01*
%TO.C,TJ10*%
X108282983Y-75890000D02*
X107917017Y-75890000D01*
X108282983Y-79310000D02*
X107917017Y-79310000D01*
%TO.C,TJ16*%
X118190000Y-71782983D02*
X118190000Y-71417017D01*
X121610000Y-71782983D02*
X121610000Y-71417017D01*
%TO.C,TJ22*%
X126717017Y-81690000D02*
X127082983Y-81690000D01*
X126717017Y-85110000D02*
X127082983Y-85110000D01*
%TO.C,TJ18*%
X110190000Y-71782983D02*
X110190000Y-71417017D01*
X113610000Y-71782983D02*
X113610000Y-71417017D01*
%TO.C,TJ19*%
X122190000Y-87417017D02*
X122190000Y-87782983D01*
X125610000Y-87417017D02*
X125610000Y-87782983D01*
%TO.C,TJ11*%
X108282983Y-79890000D02*
X107917017Y-79890000D01*
X108282983Y-83310000D02*
X107917017Y-83310000D01*
%TD*%
M02*
