%TF.GenerationSoftware,KiCad,Pcbnew,9.0.7*%
%TF.CreationDate,2026-02-15T21:39:57-05:00*%
%TF.ProjectId,Modular_Load,4d6f6475-6c61-4725-9f4c-6f61642e6b69,rev?*%
%TF.SameCoordinates,Original*%
%TF.FileFunction,Copper,L1,Top*%
%TF.FilePolarity,Positive*%
%FSLAX46Y46*%
G04 Gerber Fmt 4.6, Leading zero omitted, Abs format (unit mm)*
G04 Created by KiCad (PCBNEW 9.0.7) date 2026-02-15 21:39:57*
%MOMM*%
%LPD*%
G01*
G04 APERTURE LIST*
G04 Aperture macros list*
%AMRoundRect*
0 Rectangle with rounded corners*
0 $1 Rounding radius*
0 $2 $3 $4 $5 $6 $7 $8 $9 X,Y pos of 4 corners*
0 Add a 4 corners polygon primitive as box body*
4,1,4,$2,$3,$4,$5,$6,$7,$8,$9,$2,$3,0*
0 Add four circle primitives for the rounded corners*
1,1,$1+$1,$2,$3*
1,1,$1+$1,$4,$5*
1,1,$1+$1,$6,$7*
1,1,$1+$1,$8,$9*
0 Add four rect primitives between the rounded corners*
20,1,$1+$1,$2,$3,$4,$5,0*
20,1,$1+$1,$4,$5,$6,$7,0*
20,1,$1+$1,$6,$7,$8,$9,0*
20,1,$1+$1,$8,$9,$2,$3,0*%
%AMFreePoly0*
4,1,32,1.175354,2.110354,1.175500,2.110000,1.175500,1.179300,1.175354,1.178946,1.175216,1.178849,1.072307,1.129519,0.884240,1.000302,0.721729,0.840131,0.589799,0.653958,0.492537,0.447555,0.432946,0.227290,0.412876,0.000000,0.432946,-0.227290,0.492537,-0.447555,0.589799,-0.653958,0.721729,-0.840131,0.884240,-1.000302,1.072307,-1.129519,1.175216,-1.178849,1.175472,-1.179134,
1.175500,-1.179300,1.175500,-2.110000,1.175354,-2.110354,1.175000,-2.110500,-0.395000,-2.110500,-0.395354,-2.110354,-0.395500,-2.110000,-0.395500,2.110000,-0.395354,2.110354,-0.395000,2.110500,1.175000,2.110500,1.175354,2.110354,1.175354,2.110354,$1*%
%AMFreePoly1*
4,1,32,0.435354,2.110354,0.435500,2.110000,0.435500,-2.110000,0.435354,-2.110354,0.435000,-2.110500,-1.135000,-2.110500,-1.135354,-2.110354,-1.135500,-2.110000,-1.135500,-1.179300,-1.135354,-1.178946,-1.135216,-1.178849,-1.032307,-1.129519,-0.844240,-1.000302,-0.681729,-0.840131,-0.549799,-0.653958,-0.452537,-0.447555,-0.392946,-0.227290,-0.372876,0.000000,-0.392946,0.227290,-0.452537,0.447555,
-0.549799,0.653958,-0.681729,0.840131,-0.844240,1.000302,-1.032307,1.129519,-1.135216,1.178849,-1.135472,1.179134,-1.135500,1.179300,-1.135500,2.110000,-1.135354,2.110354,-1.135000,2.110500,0.435000,2.110500,0.435354,2.110354,0.435354,2.110354,$1*%
%AMFreePoly2*
4,1,5,1.575000,-3.500000,-1.575000,-3.500000,-1.575000,3.500000,1.575000,3.500000,1.575000,-3.500000,1.575000,-3.500000,$1*%
%AMFreePoly3*
4,1,5,2.550000,-4.800000,-2.550000,-4.800000,-2.550000,4.800000,2.550000,4.800000,2.550000,-4.800000,2.550000,-4.800000,$1*%
%AMFreePoly4*
4,1,23,0.500000,-0.750000,0.000000,-0.750000,0.000000,-0.745722,-0.065263,-0.745722,-0.191342,-0.711940,-0.304381,-0.646677,-0.396677,-0.554381,-0.461940,-0.441342,-0.495722,-0.315263,-0.495722,-0.250000,-0.500000,-0.250000,-0.500000,0.250000,-0.495722,0.250000,-0.495722,0.315263,-0.461940,0.441342,-0.396677,0.554381,-0.304381,0.646677,-0.191342,0.711940,-0.065263,0.745722,0.000000,0.745722,
0.000000,0.750000,0.500000,0.750000,0.500000,-0.750000,0.500000,-0.750000,$1*%
%AMFreePoly5*
4,1,23,0.000000,0.745722,0.065263,0.745722,0.191342,0.711940,0.304381,0.646677,0.396677,0.554381,0.461940,0.441342,0.495722,0.315263,0.495722,0.250000,0.500000,0.250000,0.500000,-0.250000,0.495722,-0.250000,0.495722,-0.315263,0.461940,-0.441342,0.396677,-0.554381,0.304381,-0.646677,0.191342,-0.711940,0.065263,-0.745722,0.000000,-0.745722,0.000000,-0.750000,-0.500000,-0.750000,
-0.500000,0.750000,0.000000,0.750000,0.000000,0.745722,0.000000,0.745722,$1*%
G04 Aperture macros list end*
%ADD10C,0.200000*%
%TA.AperFunction,NonConductor*%
%ADD11C,0.200000*%
%TD*%
%TA.AperFunction,EtchedComponent*%
%ADD12C,0.000000*%
%TD*%
%TA.AperFunction,SMDPad,CuDef*%
%ADD13RoundRect,0.250000X-0.337500X-1.450000X0.337500X-1.450000X0.337500X1.450000X-0.337500X1.450000X0*%
%TD*%
%TA.AperFunction,SMDPad,CuDef*%
%ADD14RoundRect,0.225000X-0.250000X0.225000X-0.250000X-0.225000X0.250000X-0.225000X0.250000X0.225000X0*%
%TD*%
%TA.AperFunction,SMDPad,CuDef*%
%ADD15C,1.470000*%
%TD*%
%TA.AperFunction,SMDPad,CuDef*%
%ADD16FreePoly0,90.000000*%
%TD*%
%TA.AperFunction,SMDPad,CuDef*%
%ADD17FreePoly1,90.000000*%
%TD*%
%TA.AperFunction,SMDPad,CuDef*%
%ADD18C,8.000000*%
%TD*%
%TA.AperFunction,SMDPad,CuDef*%
%ADD19RoundRect,0.500000X-1.250000X-2.300000X1.250000X-2.300000X1.250000X2.300000X-1.250000X2.300000X0*%
%TD*%
%TA.AperFunction,SMDPad,CuDef*%
%ADD20RoundRect,0.250000X1.450000X0.650000X-1.450000X0.650000X-1.450000X-0.650000X1.450000X-0.650000X0*%
%TD*%
%TA.AperFunction,SMDPad,CuDef*%
%ADD21RoundRect,0.200000X0.200000X0.275000X-0.200000X0.275000X-0.200000X-0.275000X0.200000X-0.275000X0*%
%TD*%
%TA.AperFunction,SMDPad,CuDef*%
%ADD22RoundRect,0.250000X-0.650000X0.325000X-0.650000X-0.325000X0.650000X-0.325000X0.650000X0.325000X0*%
%TD*%
%TA.AperFunction,SMDPad,CuDef*%
%ADD23RoundRect,0.250000X0.550000X-0.400000X0.550000X0.400000X-0.550000X0.400000X-0.550000X-0.400000X0*%
%TD*%
%TA.AperFunction,SMDPad,CuDef*%
%ADD24RoundRect,0.250000X0.550000X-0.750000X0.550000X0.750000X-0.550000X0.750000X-0.550000X-0.750000X0*%
%TD*%
%TA.AperFunction,SMDPad,CuDef*%
%ADD25RoundRect,0.250000X0.250000X-0.250000X0.250000X0.250000X-0.250000X0.250000X-0.250000X-0.250000X0*%
%TD*%
%TA.AperFunction,SMDPad,CuDef*%
%ADD26RoundRect,0.250000X-1.450000X0.337500X-1.450000X-0.337500X1.450000X-0.337500X1.450000X0.337500X0*%
%TD*%
%TA.AperFunction,SMDPad,CuDef*%
%ADD27RoundRect,0.275000X-2.025000X-0.275000X2.025000X-0.275000X2.025000X0.275000X-2.025000X0.275000X0*%
%TD*%
%TA.AperFunction,SMDPad,CuDef*%
%ADD28RoundRect,0.250000X-4.450000X-5.150000X4.450000X-5.150000X4.450000X5.150000X-4.450000X5.150000X0*%
%TD*%
%TA.AperFunction,SMDPad,CuDef*%
%ADD29RoundRect,0.200000X-0.275000X0.200000X-0.275000X-0.200000X0.275000X-0.200000X0.275000X0.200000X0*%
%TD*%
%TA.AperFunction,SMDPad,CuDef*%
%ADD30RoundRect,0.200000X-0.200000X-0.275000X0.200000X-0.275000X0.200000X0.275000X-0.200000X0.275000X0*%
%TD*%
%TA.AperFunction,SMDPad,CuDef*%
%ADD31RoundRect,0.250000X1.450000X-0.337500X1.450000X0.337500X-1.450000X0.337500X-1.450000X-0.337500X0*%
%TD*%
%TA.AperFunction,SMDPad,CuDef*%
%ADD32C,0.750000*%
%TD*%
%TA.AperFunction,SMDPad,CuDef*%
%ADD33RoundRect,0.100000X0.637500X0.100000X-0.637500X0.100000X-0.637500X-0.100000X0.637500X-0.100000X0*%
%TD*%
%TA.AperFunction,SMDPad,CuDef*%
%ADD34RoundRect,0.200000X0.275000X-0.200000X0.275000X0.200000X-0.275000X0.200000X-0.275000X-0.200000X0*%
%TD*%
%TA.AperFunction,SMDPad,CuDef*%
%ADD35R,2.000000X0.800000*%
%TD*%
%TA.AperFunction,HeatsinkPad*%
%ADD36FreePoly2,180.000000*%
%TD*%
%TA.AperFunction,HeatsinkPad*%
%ADD37FreePoly3,180.000000*%
%TD*%
%TA.AperFunction,SMDPad,CuDef*%
%ADD38R,1.500000X0.800000*%
%TD*%
%TA.AperFunction,SMDPad,CuDef*%
%ADD39R,1.450000X10.000000*%
%TD*%
%TA.AperFunction,SMDPad,CuDef*%
%ADD40RoundRect,0.250000X-0.650000X1.450000X-0.650000X-1.450000X0.650000X-1.450000X0.650000X1.450000X0*%
%TD*%
%TA.AperFunction,SMDPad,CuDef*%
%ADD41R,1.000000X3.150000*%
%TD*%
%TA.AperFunction,SMDPad,CuDef*%
%ADD42R,2.500000X9.500000*%
%TD*%
%TA.AperFunction,SMDPad,CuDef*%
%ADD43RoundRect,0.250000X-0.250000X0.250000X-0.250000X-0.250000X0.250000X-0.250000X0.250000X0.250000X0*%
%TD*%
%TA.AperFunction,SMDPad,CuDef*%
%ADD44RoundRect,0.250000X-0.325000X-0.650000X0.325000X-0.650000X0.325000X0.650000X-0.325000X0.650000X0*%
%TD*%
%TA.AperFunction,SMDPad,CuDef*%
%ADD45RoundRect,0.250000X-0.900000X1.000000X-0.900000X-1.000000X0.900000X-1.000000X0.900000X1.000000X0*%
%TD*%
%TA.AperFunction,SMDPad,CuDef*%
%ADD46RoundRect,0.250000X0.262500X0.450000X-0.262500X0.450000X-0.262500X-0.450000X0.262500X-0.450000X0*%
%TD*%
%TA.AperFunction,SMDPad,CuDef*%
%ADD47FreePoly4,90.000000*%
%TD*%
%TA.AperFunction,SMDPad,CuDef*%
%ADD48FreePoly5,90.000000*%
%TD*%
%TA.AperFunction,SMDPad,CuDef*%
%ADD49RoundRect,0.250000X-1.450000X-0.650000X1.450000X-0.650000X1.450000X0.650000X-1.450000X0.650000X0*%
%TD*%
%TA.AperFunction,SMDPad,CuDef*%
%ADD50RoundRect,0.250000X0.337500X1.450000X-0.337500X1.450000X-0.337500X-1.450000X0.337500X-1.450000X0*%
%TD*%
%TA.AperFunction,SMDPad,CuDef*%
%ADD51RoundRect,0.250000X-0.550000X0.400000X-0.550000X-0.400000X0.550000X-0.400000X0.550000X0.400000X0*%
%TD*%
%TA.AperFunction,SMDPad,CuDef*%
%ADD52RoundRect,0.250000X-0.550000X0.750000X-0.550000X-0.750000X0.550000X-0.750000X0.550000X0.750000X0*%
%TD*%
%TA.AperFunction,SMDPad,CuDef*%
%ADD53RoundRect,0.225000X0.225000X0.250000X-0.225000X0.250000X-0.225000X-0.250000X0.225000X-0.250000X0*%
%TD*%
%TA.AperFunction,ViaPad*%
%ADD54C,0.800000*%
%TD*%
%TA.AperFunction,Conductor*%
%ADD55C,0.250000*%
%TD*%
%TA.AperFunction,Conductor*%
%ADD56C,0.600000*%
%TD*%
%TA.AperFunction,Conductor*%
%ADD57C,1.000000*%
%TD*%
G04 APERTURE END LIST*
D10*
D11*
X146985714Y-95582219D02*
X146414286Y-95582219D01*
X146700000Y-95582219D02*
X146700000Y-94582219D01*
X146700000Y-94582219D02*
X146604762Y-94725076D01*
X146604762Y-94725076D02*
X146509524Y-94820314D01*
X146509524Y-94820314D02*
X146414286Y-94867933D01*
D12*
%TA.AperFunction,EtchedComponent*%
%TO.C,JP1*%
G36*
X109550000Y-61000000D02*
G01*
X108950000Y-61000000D01*
X108950000Y-60500000D01*
X109550000Y-60500000D01*
X109550000Y-61000000D01*
G37*
%TD.AperFunction*%
%TD*%
D13*
%TO.P,TJ1,1*%
%TO.N,/FB*%
X126062500Y-81500000D03*
%TO.P,TJ1,2*%
%TO.N,GND*%
X127737500Y-81500000D03*
%TD*%
D14*
%TO.P,C2,1*%
%TO.N,/Offset*%
X123500000Y-63725000D03*
%TO.P,C2,2*%
%TO.N,GND*%
X123500000Y-65275000D03*
%TD*%
D15*
%TO.P,J6,1,In*%
%TO.N,Net-(D1-A1)*%
X101750000Y-87500000D03*
D16*
%TO.P,J6,2,Ext*%
%TO.N,GND*%
X101750000Y-89210000D03*
D17*
X101750000Y-85830000D03*
%TD*%
D18*
%TO.P,J3,1,Pin_1*%
%TO.N,Net-(J3-Pin_1)*%
X97100000Y-79500000D03*
%TD*%
D19*
%TO.P,F1,1*%
%TO.N,Net-(J3-Pin_1)*%
X97500000Y-71500000D03*
%TO.P,F1,2*%
%TO.N,Net-(D1-A1)*%
X107500000Y-71500000D03*
%TD*%
D20*
%TO.P,TP9,1,1*%
%TO.N,GND*%
X153000000Y-68500000D03*
%TD*%
D21*
%TO.P,R3,1*%
%TO.N,Net-(JP1-A)*%
X106575000Y-63500000D03*
%TO.P,R3,2*%
%TO.N,GND*%
X104925000Y-63500000D03*
%TD*%
D22*
%TO.P,C8,1*%
%TO.N,Net-(D1-A1)*%
X111000000Y-86325000D03*
%TO.P,C8,2*%
%TO.N,Net-(C8-Pad2)*%
X111000000Y-89275000D03*
%TD*%
D23*
%TO.P,RV1,1,1*%
%TO.N,Net-(R11-Pad1)*%
X128550000Y-65450000D03*
D24*
%TO.P,RV1,2,2*%
%TO.N,Net-(U1C-+)*%
X131450000Y-66700000D03*
D23*
%TO.P,RV1,3,3*%
%TO.N,Net-(R10-Pad2)*%
X128550000Y-67950000D03*
%TD*%
D25*
%TO.P,D3,1,K*%
%TO.N,GND*%
X125250000Y-66250000D03*
%TO.P,D3,2,A*%
%TO.N,/Offset*%
X125250000Y-63750000D03*
%TD*%
D26*
%TO.P,TJ2,1*%
%TO.N,/FB*%
X115100000Y-86762500D03*
%TO.P,TJ2,2*%
%TO.N,GND*%
X115100000Y-88437500D03*
%TD*%
D21*
%TO.P,R18,1*%
%TO.N,Net-(U1D--)*%
X130325000Y-72750000D03*
%TO.P,R18,2*%
%TO.N,Net-(D2-K)*%
X128675000Y-72750000D03*
%TD*%
D27*
%TO.P,R1,1*%
%TO.N,GND*%
X131975000Y-76920000D03*
D28*
X141125000Y-79460000D03*
D27*
%TO.P,R1,2*%
%TO.N,Net-(J4-In)*%
X131975000Y-82000000D03*
%TD*%
D29*
%TO.P,R7,1*%
%TO.N,+10V*%
X125000000Y-60675000D03*
%TO.P,R7,2*%
%TO.N,/Offset*%
X125000000Y-62325000D03*
%TD*%
D30*
%TO.P,R21,1*%
%TO.N,Net-(J1-Pin_6)*%
X123350000Y-68000000D03*
%TO.P,R21,2*%
%TO.N,/FB*%
X125000000Y-68000000D03*
%TD*%
D31*
%TO.P,TJ4,1*%
%TO.N,/FB*%
X112100000Y-72437500D03*
%TO.P,TJ4,2*%
%TO.N,GND*%
X112100000Y-70762500D03*
%TD*%
D32*
%TO.P,FD1,*%
%TO.N,*%
X96750000Y-65750000D03*
%TD*%
D29*
%TO.P,R2,1*%
%TO.N,Net-(D2-K)*%
X127800000Y-74375000D03*
%TO.P,R2,2*%
%TO.N,Net-(D2-A)*%
X127800000Y-76025000D03*
%TD*%
D15*
%TO.P,J2,1,In*%
%TO.N,/I_SET*%
X104500000Y-60000000D03*
D16*
%TO.P,J2,2,Ext*%
%TO.N,GND*%
X104500000Y-61710000D03*
D17*
X104500000Y-58330000D03*
%TD*%
D18*
%TO.P,J5,1,Pin_1*%
%TO.N,GND*%
X151000000Y-79500000D03*
%TD*%
D33*
%TO.P,U1,1*%
%TO.N,Net-(U1D-+)*%
X139362500Y-69450000D03*
%TO.P,U1,2,-*%
%TO.N,Net-(U1A--)*%
X139362500Y-68800000D03*
%TO.P,U1,3,+*%
%TO.N,Net-(U1A-+)*%
X139362500Y-68150000D03*
%TO.P,U1,4,V+*%
%TO.N,+10V*%
X139362500Y-67500000D03*
%TO.P,U1,5,+*%
%TO.N,Net-(U1B-+)*%
X139362500Y-66850000D03*
%TO.P,U1,6,-*%
%TO.N,Net-(U1B--)*%
X139362500Y-66200000D03*
%TO.P,U1,7*%
%TO.N,Net-(C9-Pad1)*%
X139362500Y-65550000D03*
%TO.P,U1,8*%
%TO.N,Net-(U1A-+)*%
X133637500Y-65550000D03*
%TO.P,U1,9,-*%
%TO.N,Net-(U1C--)*%
X133637500Y-66200000D03*
%TO.P,U1,10,+*%
%TO.N,Net-(U1C-+)*%
X133637500Y-66850000D03*
%TO.P,U1,11,V-*%
%TO.N,GND*%
X133637500Y-67500000D03*
%TO.P,U1,12,+*%
%TO.N,Net-(U1D-+)*%
X133637500Y-68150000D03*
%TO.P,U1,13,-*%
%TO.N,Net-(U1D--)*%
X133637500Y-68800000D03*
%TO.P,U1,14*%
X133637500Y-69450000D03*
%TD*%
D26*
%TO.P,TJ3,1*%
%TO.N,/FB*%
X119100000Y-86762500D03*
%TO.P,TJ3,2*%
%TO.N,GND*%
X119100000Y-88437500D03*
%TD*%
D34*
%TO.P,R16,1*%
%TO.N,GND*%
X111000000Y-92625000D03*
%TO.P,R16,2*%
%TO.N,Net-(C8-Pad2)*%
X111000000Y-90975000D03*
%TD*%
D35*
%TO.P,Q2,1,S1*%
%TO.N,/FB*%
X122775000Y-83699999D03*
D36*
X122225000Y-80799996D03*
D37*
X118125000Y-79500000D03*
D35*
%TO.P,Q2,2,S2*%
X122775000Y-82499999D03*
%TO.P,Q2,3,S3*%
X122775000Y-81299996D03*
%TO.P,Q2,4,S4*%
X122775000Y-80099996D03*
%TO.P,Q2,5,S5*%
X122775000Y-78900000D03*
%TO.P,Q2,6,S6*%
X122775000Y-77700000D03*
D38*
%TO.P,Q2,7,SK*%
%TO.N,Net-(D2-A)*%
X123025000Y-76500000D03*
%TO.P,Q2,8,G*%
%TO.N,Net-(D2-K)*%
X123025000Y-75300000D03*
D39*
%TO.P,Q2,9,D*%
%TO.N,Net-(D1-A1)*%
X111725000Y-79499999D03*
%TD*%
D15*
%TO.P,J7,1,In*%
%TO.N,/FB*%
X145500000Y-69250000D03*
D16*
%TO.P,J7,2,Ext*%
%TO.N,GND*%
X145500000Y-70960000D03*
D17*
X145500000Y-67580000D03*
%TD*%
D40*
%TO.P,TP6,1,1*%
%TO.N,GND*%
X102000000Y-93000000D03*
%TD*%
D32*
%TO.P,FD3,*%
%TO.N,*%
X147500000Y-63500000D03*
%TD*%
D41*
%TO.P,J1,1,Pin_1*%
%TO.N,GND*%
X112940000Y-66025000D03*
%TO.P,J1,2,Pin_2*%
%TO.N,Net-(J1-Pin_2)*%
X112940000Y-60975000D03*
%TO.P,J1,3,Pin_3*%
%TO.N,GND*%
X115480000Y-66025000D03*
%TO.P,J1,4,Pin_4*%
%TO.N,/I_SET*%
X115480000Y-60975000D03*
%TO.P,J1,5,Pin_5*%
%TO.N,GND*%
X118020000Y-66025000D03*
%TO.P,J1,6,Pin_6*%
%TO.N,Net-(J1-Pin_6)*%
X118020000Y-60975000D03*
%TO.P,J1,7,Pin_7*%
%TO.N,GND*%
X120560000Y-66025000D03*
%TO.P,J1,8,Pin_8*%
%TO.N,+10V*%
X120560000Y-60975000D03*
%TD*%
D15*
%TO.P,J4,1,In*%
%TO.N,Net-(J4-In)*%
X136500000Y-91500000D03*
D16*
%TO.P,J4,2,Ext*%
%TO.N,GND*%
X136500000Y-93210000D03*
D17*
X136500000Y-89830000D03*
%TD*%
D42*
%TO.P,L1,1,1*%
%TO.N,/FB*%
X123050000Y-91500000D03*
%TO.P,L1,2,2*%
%TO.N,Net-(J4-In)*%
X130950000Y-91500000D03*
%TD*%
D31*
%TO.P,TJ6,1*%
%TO.N,/FB*%
X120100000Y-72437500D03*
%TO.P,TJ6,2*%
%TO.N,GND*%
X120100000Y-70762500D03*
%TD*%
D43*
%TO.P,D2,1,K*%
%TO.N,Net-(D2-K)*%
X125900000Y-74100000D03*
%TO.P,D2,2,A*%
%TO.N,Net-(D2-A)*%
X125900000Y-76600000D03*
%TD*%
D44*
%TO.P,C1,1*%
%TO.N,+10V*%
X132775000Y-62500000D03*
%TO.P,C1,2*%
%TO.N,GND*%
X135725000Y-62500000D03*
%TD*%
D21*
%TO.P,R5,1*%
%TO.N,Net-(U1D-+)*%
X130325000Y-71250000D03*
%TO.P,R5,2*%
%TO.N,Net-(D2-K)*%
X128675000Y-71250000D03*
%TD*%
D40*
%TO.P,TP10,1,1*%
%TO.N,GND*%
X102000000Y-65000000D03*
%TD*%
D20*
%TO.P,TP4,1,1*%
%TO.N,Net-(D2-K)*%
X125000000Y-71500000D03*
%TD*%
D45*
%TO.P,D1,1,A1*%
%TO.N,Net-(D1-A1)*%
X107125000Y-87350000D03*
%TO.P,D1,2,A2*%
%TO.N,GND*%
X107125000Y-91650000D03*
%TD*%
D46*
%TO.P,R17,1*%
%TO.N,Net-(J4-In)*%
X128037500Y-84500000D03*
%TO.P,R17,2*%
%TO.N,/FB*%
X126212500Y-84500000D03*
%TD*%
D47*
%TO.P,JP1,1,A*%
%TO.N,Net-(JP1-A)*%
X109250000Y-61400000D03*
D48*
%TO.P,JP1,2,B*%
%TO.N,/I_SET*%
X109250000Y-60100000D03*
%TD*%
D49*
%TO.P,TP7,1,1*%
%TO.N,GND*%
X153000000Y-87000000D03*
%TD*%
D50*
%TO.P,TJ8,1*%
%TO.N,Net-(D1-A1)*%
X108962500Y-79500000D03*
%TO.P,TJ8,2*%
%TO.N,GND*%
X107287500Y-79500000D03*
%TD*%
D51*
%TO.P,RV2,1,1*%
%TO.N,Net-(R14-Pad2)*%
X140950000Y-63250000D03*
D52*
%TO.P,RV2,2,2*%
%TO.N,Net-(U1B--)*%
X138050000Y-62000000D03*
D51*
%TO.P,RV2,3,3*%
%TO.N,Net-(R15-Pad1)*%
X140950000Y-60750000D03*
%TD*%
D50*
%TO.P,TJ7,1*%
%TO.N,Net-(D1-A1)*%
X108962500Y-83500000D03*
%TO.P,TJ7,2*%
%TO.N,GND*%
X107287500Y-83500000D03*
%TD*%
D32*
%TO.P,FD2,*%
%TO.N,*%
X141750000Y-87750000D03*
%TD*%
D53*
%TO.P,C4,1*%
%TO.N,Net-(C4-Pad1)*%
X141275000Y-71000000D03*
%TO.P,C4,2*%
%TO.N,Net-(U1D-+)*%
X139725000Y-71000000D03*
%TD*%
D29*
%TO.P,R6,1*%
%TO.N,Net-(J1-Pin_2)*%
X110000000Y-64925000D03*
%TO.P,R6,2*%
%TO.N,Net-(D1-A1)*%
X110000000Y-66575000D03*
%TD*%
D31*
%TO.P,TJ5,1*%
%TO.N,/FB*%
X116100000Y-72437500D03*
%TO.P,TJ5,2*%
%TO.N,GND*%
X116100000Y-70762500D03*
%TD*%
D54*
%TO.N,GND*%
X109750000Y-92500000D03*
X143000000Y-76500000D03*
X103750000Y-63250000D03*
X113500000Y-88500000D03*
X106250000Y-82500000D03*
X114500000Y-88500000D03*
X127750000Y-82500000D03*
X137000000Y-78500000D03*
X112500000Y-88500000D03*
X141000000Y-74500000D03*
X107250000Y-79000000D03*
X137000000Y-74500000D03*
X114000000Y-69750000D03*
X112500000Y-70750000D03*
X113500000Y-70750000D03*
X140000000Y-83500000D03*
X141000000Y-80500000D03*
X106250000Y-84500000D03*
X107250000Y-84000000D03*
X127750000Y-77500000D03*
X115000000Y-69750000D03*
X145000000Y-84500000D03*
X137000000Y-82500000D03*
X115000000Y-89500000D03*
X128750000Y-79000000D03*
X137000000Y-84500000D03*
X128750000Y-80000000D03*
X116500000Y-88500000D03*
X140000000Y-81500000D03*
X143000000Y-74500000D03*
X139000000Y-84500000D03*
X116000000Y-89500000D03*
X107250000Y-83000000D03*
X142000000Y-83500000D03*
X144000000Y-77500000D03*
X107250000Y-81000000D03*
X112000000Y-69750000D03*
X119000000Y-89500000D03*
X139000000Y-82500000D03*
X145000000Y-74500000D03*
X146500000Y-92500000D03*
X143000000Y-84500000D03*
X140000000Y-75500000D03*
X138000000Y-75500000D03*
X137000000Y-80500000D03*
X141000000Y-78500000D03*
X106250000Y-79500000D03*
X115500000Y-88500000D03*
X106250000Y-81500000D03*
X118000000Y-69750000D03*
X144000000Y-81500000D03*
X113000000Y-69750000D03*
X138000000Y-77500000D03*
X120000000Y-89500000D03*
X141000000Y-82500000D03*
X141000000Y-76500000D03*
X107250000Y-78000000D03*
X127750000Y-80500000D03*
X145000000Y-76500000D03*
X142000000Y-75500000D03*
X106250000Y-80500000D03*
X126750000Y-66750000D03*
X111500000Y-70750000D03*
X116500000Y-70750000D03*
X117500000Y-88500000D03*
X137000000Y-76500000D03*
X113000000Y-89500000D03*
X114500000Y-70750000D03*
X140000000Y-77500000D03*
X104250000Y-92500000D03*
X143000000Y-80500000D03*
X128750000Y-81000000D03*
X127750000Y-81500000D03*
X118000000Y-89500000D03*
X139000000Y-80500000D03*
X107250000Y-80000000D03*
X144000000Y-83500000D03*
X114000000Y-89500000D03*
X142000000Y-79500000D03*
X115500000Y-70750000D03*
X119000000Y-69750000D03*
X145000000Y-80500000D03*
X135725000Y-67500000D03*
X127750000Y-78500000D03*
X117000000Y-69750000D03*
X106250000Y-78500000D03*
X143000000Y-78500000D03*
X138000000Y-83500000D03*
X117000000Y-89500000D03*
X145000000Y-78500000D03*
X139000000Y-74500000D03*
X120000000Y-69750000D03*
X138000000Y-79500000D03*
X142000000Y-77500000D03*
X127750000Y-79500000D03*
X120500000Y-88500000D03*
X119500000Y-88500000D03*
X128750000Y-82000000D03*
X144000000Y-75500000D03*
X107250000Y-85000000D03*
X128750000Y-78000000D03*
X118500000Y-88500000D03*
X142000000Y-81500000D03*
X117500000Y-70750000D03*
X106250000Y-83500000D03*
X107250000Y-82000000D03*
X136500000Y-64000000D03*
X139000000Y-76500000D03*
X143000000Y-82500000D03*
X140000000Y-79500000D03*
X138000000Y-81500000D03*
X120500000Y-70750000D03*
X139000000Y-78500000D03*
X122000000Y-69750000D03*
X145000000Y-82500000D03*
X116000000Y-69750000D03*
X119500000Y-70750000D03*
X121000000Y-69750000D03*
X118500000Y-70750000D03*
X141000000Y-84500000D03*
X111000000Y-69750000D03*
X121500000Y-70750000D03*
X144000000Y-79500000D03*
%TO.N,/Offset*%
X128500000Y-63675000D03*
%TO.N,+10V*%
X137275000Y-67500000D03*
%TO.N,Net-(C4-Pad1)*%
X141250000Y-69825000D03*
%TO.N,Net-(U1D-+)*%
X139750000Y-69775000D03*
%TO.N,/I_SET*%
X127250000Y-61750000D03*
%TO.N,Net-(U1C--)*%
X135250000Y-66250000D03*
%TO.N,Net-(U1A-+)*%
X134250000Y-65225000D03*
%TO.N,Net-(U1A--)*%
X141250000Y-68175000D03*
%TO.N,Net-(U1B--)*%
X138000000Y-66250000D03*
%TO.N,Net-(C9-Pad1)*%
X138750000Y-65225000D03*
%TO.N,/FB*%
X124000000Y-85000000D03*
X122000000Y-86000000D03*
X123000000Y-79500000D03*
X118000000Y-73000000D03*
X121000000Y-72500000D03*
X116000000Y-77000000D03*
X116000000Y-80000000D03*
X120000000Y-79000000D03*
X125000000Y-79500000D03*
X121000000Y-84500000D03*
X116000000Y-76000000D03*
X114000000Y-85000000D03*
X115000000Y-76500000D03*
X115000000Y-75500000D03*
X118000000Y-77000000D03*
X121000000Y-82500000D03*
X120000000Y-76000000D03*
X118000000Y-78000000D03*
X125000000Y-80500000D03*
X121000000Y-86500000D03*
X119000000Y-73500000D03*
X114000000Y-73000000D03*
X117000000Y-76500000D03*
X118000000Y-86000000D03*
X117000000Y-74500000D03*
X115000000Y-84500000D03*
X122000000Y-85000000D03*
X123000000Y-78500000D03*
X124000000Y-84000000D03*
X118000000Y-76000000D03*
X122000000Y-82000000D03*
X126000000Y-86000000D03*
X117000000Y-79500000D03*
X124000000Y-82000000D03*
X118000000Y-81000000D03*
X124000000Y-80000000D03*
X114000000Y-84000000D03*
X119000000Y-80500000D03*
X125000000Y-82500000D03*
X114000000Y-80000000D03*
X120000000Y-82000000D03*
X116000000Y-74000000D03*
X112000000Y-72500000D03*
X116000000Y-85000000D03*
X123000000Y-81500000D03*
X118000000Y-74000000D03*
X116000000Y-78000000D03*
X118000000Y-82000000D03*
X114000000Y-83000000D03*
X117000000Y-80500000D03*
X122000000Y-81000000D03*
X114000000Y-79000000D03*
X115000000Y-85500000D03*
X114000000Y-77000000D03*
X122000000Y-83000000D03*
X121000000Y-78500000D03*
X119000000Y-83500000D03*
X121000000Y-85500000D03*
X125000000Y-83500000D03*
X114000000Y-74000000D03*
X115000000Y-72500000D03*
X121000000Y-81500000D03*
X126000000Y-84000000D03*
X115000000Y-73500000D03*
X114000000Y-86000000D03*
X123000000Y-86500000D03*
X120000000Y-84000000D03*
X120000000Y-80000000D03*
X120000000Y-85000000D03*
X123000000Y-84500000D03*
X115000000Y-82500000D03*
X116000000Y-73000000D03*
X125000000Y-81500000D03*
X115000000Y-77500000D03*
X120000000Y-83000000D03*
X120000000Y-86000000D03*
X118000000Y-79000000D03*
X115000000Y-80500000D03*
X115000000Y-81500000D03*
X117000000Y-78500000D03*
X124000000Y-78000000D03*
X113000000Y-73500000D03*
X122000000Y-78000000D03*
X121000000Y-79500000D03*
X122000000Y-79000000D03*
X117000000Y-75500000D03*
X118000000Y-75000000D03*
X119000000Y-78500000D03*
X119000000Y-82500000D03*
X126000000Y-78000000D03*
X119000000Y-79500000D03*
X126000000Y-81000000D03*
X116000000Y-84000000D03*
X120000000Y-75000000D03*
X117000000Y-81500000D03*
X126000000Y-85000000D03*
X117000000Y-72500000D03*
X114000000Y-75000000D03*
X116000000Y-79000000D03*
X122000000Y-84000000D03*
X119000000Y-85500000D03*
X125000000Y-84500000D03*
X123000000Y-83500000D03*
X142750000Y-69250000D03*
X121000000Y-83500000D03*
X117000000Y-77500000D03*
X119000000Y-74500000D03*
X116000000Y-75000000D03*
X115000000Y-79500000D03*
X116000000Y-81000000D03*
X117000000Y-84500000D03*
X121000000Y-80500000D03*
X118000000Y-80000000D03*
X114000000Y-76000000D03*
X122000000Y-80000000D03*
X118000000Y-84000000D03*
X116000000Y-83000000D03*
X117000000Y-83500000D03*
X123000000Y-82500000D03*
X115000000Y-78500000D03*
X116000000Y-82000000D03*
X126000000Y-80000000D03*
X118000000Y-83000000D03*
X114000000Y-82000000D03*
X126000000Y-83000000D03*
X113000000Y-72500000D03*
X119000000Y-86500000D03*
X118000000Y-85000000D03*
X120000000Y-78000000D03*
X124000000Y-81000000D03*
X116000000Y-86000000D03*
X119000000Y-81500000D03*
X117000000Y-82500000D03*
X117000000Y-86500000D03*
X111000000Y-72500000D03*
X115000000Y-74500000D03*
X119000000Y-76500000D03*
X115000000Y-83500000D03*
X126000000Y-82000000D03*
X119000000Y-84500000D03*
X121000000Y-73500000D03*
X117000000Y-73500000D03*
X125000000Y-86500000D03*
X123000000Y-80500000D03*
X120000000Y-74000000D03*
X120000000Y-73000000D03*
X124000000Y-79000000D03*
X119000000Y-77500000D03*
X119000000Y-75500000D03*
X119000000Y-72500000D03*
X125000000Y-78500000D03*
X124000000Y-86000000D03*
X123000000Y-85500000D03*
X124000000Y-83000000D03*
X120000000Y-81000000D03*
X114000000Y-81000000D03*
X114000000Y-78000000D03*
X120000000Y-77000000D03*
X115000000Y-86500000D03*
X117000000Y-85500000D03*
X126000000Y-79000000D03*
X125000000Y-85500000D03*
%TO.N,Net-(R10-Pad2)*%
X128500000Y-68325000D03*
%TO.N,Net-(R11-Pad1)*%
X128500000Y-65325000D03*
%TO.N,Net-(U1B-+)*%
X141750000Y-66825000D03*
%TO.N,Net-(R14-Pad2)*%
X140825000Y-63250000D03*
%TO.N,Net-(R15-Pad1)*%
X140825000Y-60750000D03*
%TD*%
D55*
%TO.N,GND*%
X106000000Y-58750000D02*
X105750000Y-59000000D01*
X133637500Y-67500000D02*
X135725000Y-67500000D01*
%TO.N,/Offset*%
X128500000Y-63675000D02*
X125175000Y-63675000D01*
X125275000Y-63675000D02*
X125225000Y-63725000D01*
X125175000Y-63675000D02*
X125000000Y-63500000D01*
X125000000Y-63500000D02*
X125000000Y-62325000D01*
X128500000Y-63675000D02*
X125275000Y-63675000D01*
X125225000Y-63725000D02*
X123500000Y-63725000D01*
%TO.N,+10V*%
X124675000Y-61000000D02*
X120585000Y-61000000D01*
X139362500Y-67500000D02*
X137275000Y-67500000D01*
X133500000Y-62500000D02*
X137275000Y-66275000D01*
X125000000Y-60675000D02*
X126825000Y-62500000D01*
X132775000Y-62500000D02*
X133500000Y-62500000D01*
X120585000Y-61000000D02*
X120560000Y-60975000D01*
X126825000Y-62500000D02*
X132775000Y-62500000D01*
X137275000Y-66275000D02*
X137275000Y-67500000D01*
%TO.N,Net-(C4-Pad1)*%
X141275000Y-71000000D02*
X141275000Y-69850000D01*
X141275000Y-69850000D02*
X141250000Y-69825000D01*
%TO.N,Net-(U1D-+)*%
X136450000Y-69450000D02*
X135150000Y-68150000D01*
X139362500Y-69450000D02*
X139425000Y-69450000D01*
X135150000Y-68150000D02*
X133637500Y-68150000D01*
X132600000Y-68150000D02*
X130325000Y-70425000D01*
X139725000Y-69800000D02*
X139750000Y-69775000D01*
X130325000Y-70425000D02*
X130325000Y-71250000D01*
X139425000Y-69450000D02*
X139750000Y-69775000D01*
X139725000Y-71000000D02*
X139725000Y-69800000D01*
X133637500Y-68150000D02*
X132600000Y-68150000D01*
X139362500Y-69450000D02*
X136450000Y-69450000D01*
%TO.N,/I_SET*%
X104500000Y-60000000D02*
X107000000Y-60000000D01*
X124549418Y-59000000D02*
X115960000Y-59000000D01*
X107100000Y-60100000D02*
X109250000Y-60100000D01*
X107000000Y-60000000D02*
X107100000Y-60100000D01*
X110350000Y-59000000D02*
X115000000Y-59000000D01*
X115480000Y-59480000D02*
X115480000Y-60975000D01*
X115000000Y-59000000D02*
X115480000Y-59480000D01*
X115960000Y-59000000D02*
X115480000Y-59480000D01*
X127250000Y-61700582D02*
X124549418Y-59000000D01*
X109250000Y-60100000D02*
X110350000Y-59000000D01*
X127250000Y-61750000D02*
X127250000Y-61700582D01*
%TO.N,Net-(U1C--)*%
X135200000Y-66200000D02*
X133637500Y-66200000D01*
X135250000Y-66250000D02*
X135200000Y-66200000D01*
%TO.N,Net-(U1A-+)*%
X139362500Y-68150000D02*
X139286500Y-68226000D01*
X136451000Y-67702720D02*
X136451000Y-66424280D01*
X136974280Y-68226000D02*
X136451000Y-67702720D01*
X133925000Y-65550000D02*
X134250000Y-65225000D01*
X136451000Y-66424280D02*
X135251720Y-65225000D01*
X135251720Y-65225000D02*
X134250000Y-65225000D01*
X139286500Y-68226000D02*
X136974280Y-68226000D01*
X133637500Y-65550000D02*
X133925000Y-65550000D01*
%TO.N,Net-(U1A--)*%
X139362500Y-68800000D02*
X140625000Y-68800000D01*
X140625000Y-68800000D02*
X141250000Y-68175000D01*
D56*
%TO.N,Net-(C8-Pad2)*%
X111000000Y-90975000D02*
X111000000Y-89275000D01*
D55*
%TO.N,Net-(D1-A1)*%
X109175000Y-66575000D02*
X110000000Y-66575000D01*
D57*
X108150000Y-86325000D02*
X107125000Y-87350000D01*
X108962500Y-85512500D02*
X108962500Y-83500000D01*
D55*
X107500000Y-68250000D02*
X109175000Y-66575000D01*
X107500000Y-71500000D02*
X107500000Y-68250000D01*
X106975000Y-87500000D02*
X107125000Y-87350000D01*
D57*
X111000000Y-86325000D02*
X108150000Y-86325000D01*
D55*
X101750000Y-87500000D02*
X106975000Y-87500000D01*
D57*
X107125000Y-87350000D02*
X108962500Y-85512500D01*
D55*
%TO.N,Net-(U1B--)*%
X139362500Y-66200000D02*
X138050000Y-66200000D01*
X138050000Y-66200000D02*
X138000000Y-66250000D01*
X138000000Y-66250000D02*
X138000000Y-62050000D01*
X138000000Y-62050000D02*
X138050000Y-62000000D01*
%TO.N,Net-(C9-Pad1)*%
X139075000Y-65550000D02*
X138750000Y-65225000D01*
X139362500Y-65550000D02*
X139075000Y-65550000D01*
%TO.N,/FB*%
X142750000Y-69250000D02*
X145500000Y-69250000D01*
X125000000Y-68500000D02*
X125000000Y-68000000D01*
X121000000Y-72500000D02*
X125000000Y-68500000D01*
%TO.N,Net-(U1D--)*%
X133637500Y-69862500D02*
X133637500Y-69450000D01*
X133637500Y-68800000D02*
X133637500Y-69450000D01*
X130750000Y-72750000D02*
X133637500Y-69862500D01*
X130325000Y-72750000D02*
X130750000Y-72750000D01*
%TO.N,Net-(U1C-+)*%
X133637500Y-66850000D02*
X131600000Y-66850000D01*
X131600000Y-66850000D02*
X131450000Y-66700000D01*
%TO.N,Net-(U1B-+)*%
X139362500Y-66850000D02*
X141725000Y-66850000D01*
X141725000Y-66850000D02*
X141750000Y-66825000D01*
%TO.N,Net-(J1-Pin_2)*%
X110250000Y-64925000D02*
X111250000Y-63925000D01*
X111250000Y-62665000D02*
X112940000Y-60975000D01*
X110000000Y-64925000D02*
X110250000Y-64925000D01*
X111250000Y-63925000D02*
X111250000Y-62665000D01*
%TO.N,Net-(D2-K)*%
X125750000Y-74100000D02*
X126050000Y-74100000D01*
X124550000Y-75300000D02*
X125750000Y-74100000D01*
X128675000Y-73500000D02*
X127800000Y-74375000D01*
X123025000Y-75300000D02*
X124550000Y-75300000D01*
X128675000Y-72750000D02*
X128675000Y-73500000D01*
X126050000Y-74100000D02*
X126325000Y-74375000D01*
X125900000Y-72400000D02*
X125900000Y-74100000D01*
X128675000Y-71250000D02*
X128675000Y-72750000D01*
X126325000Y-74375000D02*
X127800000Y-74375000D01*
%TO.N,Net-(D2-A)*%
X126550000Y-76450000D02*
X126975000Y-76025000D01*
X126975000Y-76025000D02*
X127800000Y-76025000D01*
X125900000Y-76600000D02*
X126050000Y-76450000D01*
X123125000Y-76600000D02*
X125900000Y-76600000D01*
X126050000Y-76450000D02*
X126550000Y-76450000D01*
%TO.N,Net-(JP1-A)*%
X106575000Y-63500000D02*
X107150000Y-63500000D01*
X107150000Y-63500000D02*
X109250000Y-61400000D01*
%TO.N,Net-(J4-In)*%
X130950000Y-91500000D02*
X136500000Y-91500000D01*
%TO.N,Net-(J1-Pin_6)*%
X123350000Y-68000000D02*
X121900000Y-66550000D01*
X118020000Y-62520000D02*
X118020000Y-60975000D01*
X120900000Y-63600000D02*
X119100000Y-63600000D01*
X119100000Y-63600000D02*
X118020000Y-62520000D01*
X121900000Y-64600000D02*
X120900000Y-63600000D01*
X121900000Y-66550000D02*
X121900000Y-64600000D01*
%TD*%
%TA.AperFunction,Conductor*%
%TO.N,Net-(D1-A1)*%
G36*
X109002478Y-69019685D02*
G01*
X109037024Y-69052891D01*
X109874030Y-70248615D01*
X109896348Y-70314824D01*
X109895803Y-70332324D01*
X109891501Y-70374440D01*
X109891500Y-70374460D01*
X109891500Y-71150537D01*
X109891501Y-71150553D01*
X109902113Y-71254427D01*
X109957884Y-71422735D01*
X109957888Y-71422744D01*
X110027069Y-71534904D01*
X110045509Y-71602296D01*
X110027069Y-71665096D01*
X109957888Y-71777255D01*
X109957884Y-71777264D01*
X109902113Y-71945572D01*
X109891500Y-72049447D01*
X109891500Y-72825537D01*
X109891501Y-72825553D01*
X109901872Y-72927066D01*
X109902113Y-72929426D01*
X109957885Y-73097738D01*
X110050970Y-73248652D01*
X110176348Y-73374030D01*
X110327262Y-73467115D01*
X110495574Y-73522887D01*
X110599455Y-73533500D01*
X111015702Y-73533499D01*
X111061754Y-73542368D01*
X111448317Y-73696993D01*
X112218742Y-74005162D01*
X112273675Y-74048336D01*
X112275791Y-74051402D01*
X112294321Y-74079134D01*
X112294324Y-74079138D01*
X112420863Y-74205677D01*
X112429448Y-74211413D01*
X112444889Y-74221730D01*
X112489695Y-74275340D01*
X112500000Y-74324833D01*
X112500000Y-84876000D01*
X112480315Y-84943039D01*
X112427511Y-84988794D01*
X112376000Y-85000000D01*
X108624000Y-85000000D01*
X108556961Y-84980315D01*
X108511206Y-84927511D01*
X108500000Y-84876000D01*
X108500000Y-77999999D01*
X108407979Y-77930984D01*
X108366158Y-77875013D01*
X108364682Y-77870814D01*
X108317115Y-77727262D01*
X108224030Y-77576348D01*
X108098652Y-77450970D01*
X107947738Y-77357885D01*
X107893316Y-77339851D01*
X107844638Y-77309825D01*
X107829137Y-77294323D01*
X107829134Y-77294321D01*
X107680342Y-77194901D01*
X107680332Y-77194896D01*
X107515000Y-77126413D01*
X107514992Y-77126411D01*
X107339483Y-77091500D01*
X107339479Y-77091500D01*
X107330000Y-77091500D01*
X107262961Y-77071815D01*
X107255600Y-77066700D01*
X106537900Y-76528425D01*
X106496079Y-76472454D01*
X106490710Y-76453550D01*
X106002408Y-74012040D01*
X106000000Y-73987722D01*
X106000000Y-69124000D01*
X106019685Y-69056961D01*
X106072489Y-69011206D01*
X106124000Y-69000000D01*
X108935439Y-69000000D01*
X109002478Y-69019685D01*
G37*
%TD.AperFunction*%
%TD*%
%TA.AperFunction,Conductor*%
%TO.N,Net-(J4-In)*%
G36*
X134443039Y-81019685D02*
G01*
X134488794Y-81072489D01*
X134500000Y-81124000D01*
X134500000Y-83487722D01*
X134497592Y-83512040D01*
X132019936Y-95900318D01*
X131987486Y-95962196D01*
X131926734Y-95996706D01*
X131898344Y-96000000D01*
X130000000Y-96000000D01*
X127624000Y-96000000D01*
X127556961Y-95980315D01*
X127511206Y-95927511D01*
X127500000Y-95876000D01*
X127500000Y-83874000D01*
X127519685Y-83806961D01*
X127572489Y-83761206D01*
X127624000Y-83750000D01*
X129750000Y-83750000D01*
X129750000Y-81124000D01*
X129769685Y-81056961D01*
X129822489Y-81011206D01*
X129874000Y-81000000D01*
X134376000Y-81000000D01*
X134443039Y-81019685D01*
G37*
%TD.AperFunction*%
%TD*%
%TA.AperFunction,Conductor*%
%TO.N,Net-(J3-Pin_1)*%
G36*
X98907643Y-70019685D02*
G01*
X98953398Y-70072489D01*
X98961357Y-70095810D01*
X100863986Y-78245736D01*
X100860058Y-78315495D01*
X100819038Y-78372056D01*
X100753951Y-78397462D01*
X100741602Y-78397915D01*
X93467208Y-78302200D01*
X93400433Y-78281635D01*
X93355377Y-78228234D01*
X93346344Y-78158951D01*
X93350665Y-78140650D01*
X95911510Y-70086427D01*
X95950583Y-70028504D01*
X96014768Y-70000900D01*
X96029681Y-70000000D01*
X98840604Y-70000000D01*
X98907643Y-70019685D01*
G37*
%TD.AperFunction*%
%TD*%
%TA.AperFunction,Conductor*%
%TO.N,/FB*%
G36*
X121693039Y-71984296D02*
G01*
X121738794Y-72037100D01*
X121750000Y-72088611D01*
X121750000Y-72927066D01*
X121730315Y-72994105D01*
X121729174Y-72995849D01*
X120750000Y-74464610D01*
X120750000Y-74464611D01*
X120750000Y-77464611D01*
X125166443Y-77464611D01*
X125231540Y-77483073D01*
X125327253Y-77542110D01*
X125327256Y-77542111D01*
X125327262Y-77542115D01*
X125495574Y-77597887D01*
X125599455Y-77608500D01*
X126200544Y-77608499D01*
X126304426Y-77597887D01*
X126336994Y-77587094D01*
X126406823Y-77584692D01*
X126466865Y-77620423D01*
X126498058Y-77682943D01*
X126500000Y-77704800D01*
X126500000Y-95840611D01*
X126480315Y-95907650D01*
X126427511Y-95953405D01*
X126376000Y-95964611D01*
X124000000Y-95964611D01*
X121874000Y-95964611D01*
X121806961Y-95944926D01*
X121761206Y-95892122D01*
X121750000Y-95840611D01*
X121750000Y-87000000D01*
X113623468Y-86965140D01*
X113556514Y-86945168D01*
X113510986Y-86892168D01*
X113500000Y-86841141D01*
X113500000Y-73964610D01*
X110577948Y-72795790D01*
X110523014Y-72752616D01*
X110500142Y-72686595D01*
X110500000Y-72680659D01*
X110500000Y-72088611D01*
X110519685Y-72021572D01*
X110572489Y-71975817D01*
X110624000Y-71964611D01*
X121626000Y-71964611D01*
X121693039Y-71984296D01*
G37*
%TD.AperFunction*%
%TD*%
%TA.AperFunction,Conductor*%
%TO.N,GND*%
G36*
X151784146Y-57519454D02*
G01*
X151864928Y-57573430D01*
X151918904Y-57654212D01*
X151937858Y-57749500D01*
X151918904Y-57844788D01*
X151864928Y-57925570D01*
X151784146Y-57979546D01*
X151744268Y-57992256D01*
X151690750Y-58004471D01*
X151640318Y-58015982D01*
X151311626Y-58130995D01*
X150997880Y-58282087D01*
X150997856Y-58282100D01*
X150703003Y-58467369D01*
X150430740Y-58684491D01*
X150184491Y-58930740D01*
X149967369Y-59203003D01*
X149782100Y-59497856D01*
X149782087Y-59497880D01*
X149630995Y-59811626D01*
X149515982Y-60140318D01*
X149438491Y-60479827D01*
X149399500Y-60825867D01*
X149399500Y-61174132D01*
X149438491Y-61520172D01*
X149515982Y-61859681D01*
X149630995Y-62188373D01*
X149739410Y-62413500D01*
X149782094Y-62502133D01*
X149782098Y-62502139D01*
X149782100Y-62502143D01*
X149967369Y-62796996D01*
X150001162Y-62839371D01*
X150184494Y-63069263D01*
X150430737Y-63315506D01*
X150703003Y-63532630D01*
X150997867Y-63717906D01*
X151311621Y-63869002D01*
X151311624Y-63869003D01*
X151311626Y-63869004D01*
X151343886Y-63880292D01*
X151640319Y-63984018D01*
X151979829Y-64061509D01*
X152196106Y-64085877D01*
X152325867Y-64100499D01*
X152325880Y-64100500D01*
X152674120Y-64100500D01*
X152674132Y-64100499D01*
X152772434Y-64089422D01*
X153020171Y-64061509D01*
X153359681Y-63984018D01*
X153688379Y-63869002D01*
X154002133Y-63717906D01*
X154296997Y-63532630D01*
X154569263Y-63315506D01*
X154815506Y-63069263D01*
X155032630Y-62796997D01*
X155217906Y-62502133D01*
X155369002Y-62188379D01*
X155484018Y-61859681D01*
X155507743Y-61755732D01*
X155547426Y-61667052D01*
X155618024Y-61600307D01*
X155708791Y-61565660D01*
X155805908Y-61568385D01*
X155894590Y-61608068D01*
X155961335Y-61678666D01*
X155995982Y-61769433D01*
X155999500Y-61811142D01*
X155999500Y-92188857D01*
X155980546Y-92284145D01*
X155926570Y-92364927D01*
X155845788Y-92418903D01*
X155750500Y-92437857D01*
X155655212Y-92418903D01*
X155574430Y-92364927D01*
X155520454Y-92284145D01*
X155507743Y-92244266D01*
X155504616Y-92230565D01*
X155484018Y-92140319D01*
X155369002Y-91811621D01*
X155217906Y-91497867D01*
X155032630Y-91203003D01*
X154815506Y-90930737D01*
X154569263Y-90684494D01*
X154334323Y-90497136D01*
X154296996Y-90467369D01*
X154002143Y-90282100D01*
X154002139Y-90282098D01*
X154002133Y-90282094D01*
X154002123Y-90282089D01*
X154002119Y-90282087D01*
X153688373Y-90130995D01*
X153451659Y-90048166D01*
X153359681Y-90015982D01*
X153359683Y-90015982D01*
X153020172Y-89938491D01*
X152674132Y-89899500D01*
X152674120Y-89899500D01*
X152325880Y-89899500D01*
X152325867Y-89899500D01*
X151979827Y-89938491D01*
X151640318Y-90015982D01*
X151311626Y-90130995D01*
X150997880Y-90282087D01*
X150997856Y-90282100D01*
X150703003Y-90467369D01*
X150430740Y-90684491D01*
X150184491Y-90930740D01*
X149967369Y-91203003D01*
X149782100Y-91497856D01*
X149782087Y-91497880D01*
X149630995Y-91811626D01*
X149515982Y-92140318D01*
X149438491Y-92479827D01*
X149399500Y-92825867D01*
X149399500Y-93174132D01*
X149438491Y-93520175D01*
X149446575Y-93555593D01*
X149449300Y-93652710D01*
X149414652Y-93743477D01*
X149347906Y-93814075D01*
X149259225Y-93853757D01*
X149203818Y-93860000D01*
X145430000Y-93860000D01*
X145430000Y-93860001D01*
X145430000Y-96250500D01*
X145411046Y-96345788D01*
X145357070Y-96426570D01*
X145276288Y-96480546D01*
X145181000Y-96499500D01*
X132957500Y-96499500D01*
X132862212Y-96480546D01*
X132781430Y-96426570D01*
X132727454Y-96345788D01*
X132708500Y-96250500D01*
X132708500Y-95100502D01*
X132713335Y-95051669D01*
X133256936Y-92333667D01*
X133294210Y-92243946D01*
X133362981Y-92175319D01*
X133452779Y-92138234D01*
X133501101Y-92133500D01*
X134988450Y-92133500D01*
X135002078Y-92133873D01*
X135016984Y-92134690D01*
X135039166Y-92138601D01*
X135155903Y-92142304D01*
X135158737Y-92142460D01*
X135159700Y-92142707D01*
X135173880Y-92143755D01*
X135225680Y-92149785D01*
X135318135Y-92179627D01*
X135318679Y-92179932D01*
X135341838Y-92192919D01*
X135371673Y-92212590D01*
X135470713Y-92288628D01*
X135472842Y-92290283D01*
X135565877Y-92363466D01*
X135602512Y-92392284D01*
X135612299Y-92399793D01*
X135612322Y-92399810D01*
X135612340Y-92399824D01*
X135612781Y-92400154D01*
X135612816Y-92400180D01*
X135612842Y-92400199D01*
X135620235Y-92405600D01*
X135622277Y-92407092D01*
X135656662Y-92431614D01*
X135783648Y-92522177D01*
X135783691Y-92522207D01*
X135789791Y-92526491D01*
X135789846Y-92526529D01*
X135790072Y-92526686D01*
X135825725Y-92548253D01*
X135843209Y-92559863D01*
X135848264Y-92563536D01*
X136022662Y-92652397D01*
X136208813Y-92712881D01*
X136402134Y-92743500D01*
X136402138Y-92743500D01*
X136597862Y-92743500D01*
X136597866Y-92743500D01*
X136791187Y-92712881D01*
X136977338Y-92652397D01*
X137099234Y-92590287D01*
X137151727Y-92563541D01*
X137151729Y-92563539D01*
X137151736Y-92563536D01*
X137310086Y-92448489D01*
X137448489Y-92310086D01*
X137563536Y-92151736D01*
X137568263Y-92142460D01*
X137590287Y-92099234D01*
X137652397Y-91977338D01*
X137712881Y-91791187D01*
X137743500Y-91597866D01*
X137743500Y-91402134D01*
X137712881Y-91208813D01*
X137652397Y-91022662D01*
X137605560Y-90930740D01*
X137563541Y-90848272D01*
X137563537Y-90848267D01*
X137563536Y-90848264D01*
X137448489Y-90689914D01*
X137310086Y-90551511D01*
X137151736Y-90436464D01*
X137151733Y-90436462D01*
X137151727Y-90436458D01*
X136977342Y-90347605D01*
X136977333Y-90347601D01*
X136791184Y-90287118D01*
X136597876Y-90256501D01*
X136597869Y-90256500D01*
X136597866Y-90256500D01*
X136402134Y-90256500D01*
X136402131Y-90256500D01*
X136402123Y-90256501D01*
X136208815Y-90287118D01*
X136022666Y-90347601D01*
X136022662Y-90347602D01*
X135848262Y-90436465D01*
X135848259Y-90436467D01*
X135820167Y-90456874D01*
X135820168Y-90456875D01*
X135819617Y-90457275D01*
X135805965Y-90467195D01*
X135777925Y-90482169D01*
X135534642Y-90660774D01*
X135525712Y-90667481D01*
X135525423Y-90667703D01*
X135517413Y-90673983D01*
X135470143Y-90711806D01*
X135465718Y-90715200D01*
X135465699Y-90715215D01*
X135357087Y-90798550D01*
X135269950Y-90841517D01*
X135220958Y-90849520D01*
X135085060Y-90857965D01*
X135023248Y-90861807D01*
X135023242Y-90861807D01*
X135023235Y-90861808D01*
X134988941Y-90865253D01*
X134964053Y-90866500D01*
X133854101Y-90866500D01*
X133758813Y-90847546D01*
X133678031Y-90793570D01*
X133624055Y-90712788D01*
X133605101Y-90617500D01*
X133609936Y-90568667D01*
X134190423Y-87666233D01*
X140899500Y-87666233D01*
X140899500Y-87833767D01*
X140928057Y-87977333D01*
X140932185Y-87998086D01*
X140995826Y-88151727D01*
X140996297Y-88152863D01*
X141021627Y-88190772D01*
X141084418Y-88284746D01*
X141089374Y-88292162D01*
X141207838Y-88410626D01*
X141347137Y-88503703D01*
X141501918Y-88567816D01*
X141666233Y-88600500D01*
X141666235Y-88600500D01*
X141833765Y-88600500D01*
X141833767Y-88600500D01*
X141998082Y-88567816D01*
X142152863Y-88503703D01*
X142292162Y-88410626D01*
X142410626Y-88292162D01*
X142503703Y-88152863D01*
X142567816Y-87998082D01*
X142600500Y-87833767D01*
X142600500Y-87666233D01*
X142567816Y-87501918D01*
X142503703Y-87347137D01*
X142410626Y-87207838D01*
X142292162Y-87089374D01*
X142152863Y-86996297D01*
X142152860Y-86996296D01*
X142152859Y-86996295D01*
X141998086Y-86932185D01*
X141998082Y-86932184D01*
X141833767Y-86899500D01*
X141666233Y-86899500D01*
X141501918Y-86932184D01*
X141501913Y-86932185D01*
X141347140Y-86996295D01*
X141347135Y-86996298D01*
X141207841Y-87089371D01*
X141089371Y-87207841D01*
X140996298Y-87347135D01*
X140996295Y-87347140D01*
X140932185Y-87501913D01*
X140932184Y-87501917D01*
X140932184Y-87501918D01*
X140899500Y-87666233D01*
X134190423Y-87666233D01*
X134202636Y-87605168D01*
X134548399Y-85876351D01*
X135001120Y-83612746D01*
X135008593Y-83562640D01*
X135011001Y-83538322D01*
X135013500Y-83487722D01*
X135013500Y-81124000D01*
X135001764Y-81014843D01*
X135001763Y-81014837D01*
X135001763Y-81014836D01*
X134990560Y-80963338D01*
X134990559Y-80963335D01*
X134973568Y-80912287D01*
X134955890Y-80859173D01*
X134955889Y-80859172D01*
X134955890Y-80859172D01*
X134876874Y-80736223D01*
X134876871Y-80736218D01*
X134831116Y-80683414D01*
X134761548Y-80623132D01*
X134720662Y-80587703D01*
X134587712Y-80526985D01*
X134520678Y-80507301D01*
X134495672Y-80503705D01*
X134376000Y-80486500D01*
X129874000Y-80486500D01*
X129873996Y-80486500D01*
X129764837Y-80498236D01*
X129764836Y-80498236D01*
X129713338Y-80509439D01*
X129713335Y-80509440D01*
X129609172Y-80544109D01*
X129486223Y-80623125D01*
X129486213Y-80623132D01*
X129433421Y-80668877D01*
X129433407Y-80668891D01*
X129337703Y-80779337D01*
X129276985Y-80912287D01*
X129257301Y-80979321D01*
X129257300Y-80979330D01*
X129236500Y-81124000D01*
X129236500Y-81124002D01*
X129236500Y-81124004D01*
X129236500Y-81349521D01*
X129222527Y-81431760D01*
X129181310Y-81549550D01*
X129181308Y-81549561D01*
X129166500Y-81680980D01*
X129166500Y-82319019D01*
X129181308Y-82450438D01*
X129181310Y-82450449D01*
X129222527Y-82568239D01*
X129236500Y-82650478D01*
X129236500Y-82987500D01*
X129217546Y-83082788D01*
X129163570Y-83163570D01*
X129082788Y-83217546D01*
X128987500Y-83236500D01*
X127623996Y-83236500D01*
X127514843Y-83248236D01*
X127459920Y-83260184D01*
X127362780Y-83261918D01*
X127272371Y-83226346D01*
X127202457Y-83158884D01*
X127163681Y-83069803D01*
X127158533Y-83006884D01*
X127158500Y-83006884D01*
X127158499Y-83006477D01*
X127158314Y-83004204D01*
X127158499Y-83000553D01*
X127158500Y-83000545D01*
X127158499Y-79999456D01*
X127147887Y-79895574D01*
X127092115Y-79727262D01*
X127050572Y-79659910D01*
X127016680Y-79568858D01*
X127013500Y-79529191D01*
X127013500Y-77704810D01*
X127013500Y-77704800D01*
X127011485Y-77659354D01*
X127009543Y-77637497D01*
X127003518Y-77592431D01*
X126957543Y-77453693D01*
X126957541Y-77453688D01*
X126926353Y-77391177D01*
X126891145Y-77340326D01*
X126884151Y-77324202D01*
X126873352Y-77310338D01*
X126864994Y-77280034D01*
X126852486Y-77251194D01*
X126852195Y-77233622D01*
X126847523Y-77216680D01*
X126851398Y-77185483D01*
X126850879Y-77154052D01*
X126859502Y-77120266D01*
X126882696Y-77050268D01*
X126930657Y-76965782D01*
X126945637Y-76951183D01*
X126945179Y-76950725D01*
X126953833Y-76942071D01*
X126964344Y-76931559D01*
X127045122Y-76877582D01*
X127140410Y-76858626D01*
X127216927Y-76873844D01*
X127217706Y-76871346D01*
X127237719Y-76877582D01*
X127396351Y-76927013D01*
X127396355Y-76927013D01*
X127396358Y-76927014D01*
X127424912Y-76929608D01*
X127467735Y-76933500D01*
X128132264Y-76933499D01*
X128132268Y-76933499D01*
X128179854Y-76929175D01*
X128203649Y-76927013D01*
X128367913Y-76875827D01*
X128515155Y-76786816D01*
X128636816Y-76665155D01*
X128725827Y-76517913D01*
X128777013Y-76353649D01*
X128783500Y-76282265D01*
X128783499Y-75767736D01*
X128777013Y-75696351D01*
X128725827Y-75532087D01*
X128636816Y-75384845D01*
X128628037Y-75376066D01*
X128574064Y-75295288D01*
X128555110Y-75200000D01*
X128574064Y-75104712D01*
X128628037Y-75023933D01*
X128636816Y-75015155D01*
X128725827Y-74867913D01*
X128777013Y-74703649D01*
X128783500Y-74632265D01*
X128783499Y-74467441D01*
X128784128Y-74449755D01*
X128784220Y-74448454D01*
X128786610Y-74419182D01*
X128786468Y-74416884D01*
X128787200Y-74406617D01*
X128798066Y-74366958D01*
X128806494Y-74326709D01*
X128807617Y-74324114D01*
X128811690Y-74314847D01*
X128832212Y-74277296D01*
X128877215Y-74209536D01*
X128898037Y-74182430D01*
X128920185Y-74157369D01*
X128942203Y-74130450D01*
X128958850Y-74112052D01*
X129167071Y-73903833D01*
X129236400Y-73800075D01*
X129284155Y-73684785D01*
X129284156Y-73684777D01*
X129287598Y-73676469D01*
X129341574Y-73595687D01*
X129422355Y-73541710D01*
X129517643Y-73522755D01*
X129612931Y-73541708D01*
X129670771Y-73580355D01*
X129672988Y-73577527D01*
X129684841Y-73586813D01*
X129684843Y-73586814D01*
X129684845Y-73586816D01*
X129832087Y-73675827D01*
X129996351Y-73727013D01*
X129996355Y-73727013D01*
X129996358Y-73727014D01*
X130024912Y-73729608D01*
X130067735Y-73733500D01*
X130582264Y-73733499D01*
X130582268Y-73733499D01*
X130629854Y-73729175D01*
X130653649Y-73727013D01*
X130817913Y-73675827D01*
X130965155Y-73586816D01*
X131086816Y-73465155D01*
X131175827Y-73317913D01*
X131201854Y-73234387D01*
X131207307Y-73224366D01*
X131209534Y-73213174D01*
X131230371Y-73181988D01*
X131248297Y-73149051D01*
X131263499Y-73132403D01*
X131386915Y-73008987D01*
X131397459Y-72999042D01*
X131435571Y-72965143D01*
X131446712Y-72954935D01*
X131447209Y-72954466D01*
X131494607Y-72903213D01*
X131494607Y-72903212D01*
X131503531Y-72893563D01*
X131503667Y-72893689D01*
X131512971Y-72882931D01*
X134129572Y-70266333D01*
X134129576Y-70266325D01*
X134137334Y-70256875D01*
X134138636Y-70257944D01*
X134196898Y-70199674D01*
X134286654Y-70162487D01*
X134306838Y-70159829D01*
X134306803Y-70159563D01*
X134360973Y-70152431D01*
X134433850Y-70142838D01*
X134522257Y-70106219D01*
X134581872Y-70081526D01*
X134581872Y-70081525D01*
X134581876Y-70081524D01*
X134708987Y-69983987D01*
X134806524Y-69856876D01*
X134867838Y-69708850D01*
X134883500Y-69589885D01*
X134883499Y-69380542D01*
X134902453Y-69285256D01*
X134956429Y-69204474D01*
X135037210Y-69150497D01*
X135132498Y-69131543D01*
X135227786Y-69150497D01*
X135308568Y-69204473D01*
X135308569Y-69204473D01*
X136046167Y-69942072D01*
X136149925Y-70011401D01*
X136225263Y-70042606D01*
X136225266Y-70042608D01*
X136265210Y-70059153D01*
X136265212Y-70059153D01*
X136265215Y-70059155D01*
X136387606Y-70083500D01*
X136387607Y-70083500D01*
X136512394Y-70083500D01*
X138370728Y-70083500D01*
X138461379Y-70100588D01*
X138481321Y-70108383D01*
X138486393Y-70111452D01*
X138494980Y-70113722D01*
X138508234Y-70118903D01*
X138509229Y-70119539D01*
X138512871Y-70120769D01*
X138522902Y-70124924D01*
X138566150Y-70142838D01*
X138574688Y-70143962D01*
X138614732Y-70149234D01*
X138706731Y-70180463D01*
X138779776Y-70244521D01*
X138822747Y-70331657D01*
X138829102Y-70428604D01*
X138818594Y-70474424D01*
X138776764Y-70600660D01*
X138766500Y-70701127D01*
X138766500Y-71298872D01*
X138776764Y-71399338D01*
X138830697Y-71562100D01*
X138887166Y-71653649D01*
X138920715Y-71708040D01*
X139041960Y-71829285D01*
X139187899Y-71919302D01*
X139350664Y-71973236D01*
X139451128Y-71983500D01*
X139451136Y-71983500D01*
X139998864Y-71983500D01*
X139998872Y-71983500D01*
X140099336Y-71973236D01*
X140262101Y-71919302D01*
X140369284Y-71853190D01*
X140460331Y-71819299D01*
X140557422Y-71822830D01*
X140630714Y-71853189D01*
X140737899Y-71919302D01*
X140900664Y-71973236D01*
X141001128Y-71983500D01*
X141001136Y-71983500D01*
X141548864Y-71983500D01*
X141548872Y-71983500D01*
X141649336Y-71973236D01*
X141812101Y-71919302D01*
X141958040Y-71829285D01*
X142079285Y-71708040D01*
X142169302Y-71562101D01*
X142223236Y-71399336D01*
X142233500Y-71298872D01*
X142233500Y-70701128D01*
X142223236Y-70600664D01*
X142223235Y-70600660D01*
X142223235Y-70600659D01*
X142169356Y-70438063D01*
X142157375Y-70341650D01*
X142183202Y-70247991D01*
X142242905Y-70171344D01*
X142327395Y-70123380D01*
X142423808Y-70111399D01*
X142477998Y-70121463D01*
X142484995Y-70123585D01*
X142485000Y-70123587D01*
X142660521Y-70158500D01*
X142660523Y-70158500D01*
X142839479Y-70158500D01*
X142866162Y-70153192D01*
X142912568Y-70143962D01*
X142935837Y-70140467D01*
X142964269Y-70137563D01*
X143045058Y-70117399D01*
X143045062Y-70117398D01*
X143071454Y-70110057D01*
X143071462Y-70110054D01*
X143071489Y-70110047D01*
X143072674Y-70109683D01*
X143098239Y-70101089D01*
X143172913Y-70073784D01*
X143209942Y-70058584D01*
X143211610Y-70057822D01*
X143247768Y-70039546D01*
X143374062Y-69969326D01*
X143395215Y-69956894D01*
X143396150Y-69956314D01*
X143416049Y-69943323D01*
X143432564Y-69931987D01*
X143445614Y-69926389D01*
X143456618Y-69917402D01*
X143487065Y-69908608D01*
X143521847Y-69893689D01*
X143549656Y-69889419D01*
X143552344Y-69889160D01*
X143569359Y-69887902D01*
X143597739Y-69884797D01*
X143599359Y-69884642D01*
X143600367Y-69884743D01*
X143623181Y-69883500D01*
X143988450Y-69883500D01*
X144031683Y-69887282D01*
X144034418Y-69887763D01*
X144039166Y-69888601D01*
X144153018Y-69892213D01*
X144173880Y-69893755D01*
X144225680Y-69899785D01*
X144318135Y-69929627D01*
X144318679Y-69929932D01*
X144341838Y-69942919D01*
X144371673Y-69962590D01*
X144470713Y-70038628D01*
X144472842Y-70040283D01*
X144525270Y-70081524D01*
X144602512Y-70142284D01*
X144612299Y-70149793D01*
X144612322Y-70149810D01*
X144612340Y-70149824D01*
X144612781Y-70150154D01*
X144612816Y-70150180D01*
X144612842Y-70150199D01*
X144620235Y-70155600D01*
X144622277Y-70157092D01*
X144655048Y-70180463D01*
X144783648Y-70272177D01*
X144786741Y-70274349D01*
X144789765Y-70276473D01*
X144789834Y-70276521D01*
X144790072Y-70276686D01*
X144825725Y-70298253D01*
X144843209Y-70309863D01*
X144848264Y-70313536D01*
X145022662Y-70402397D01*
X145208813Y-70462881D01*
X145402134Y-70493500D01*
X145402138Y-70493500D01*
X145597862Y-70493500D01*
X145597866Y-70493500D01*
X145791187Y-70462881D01*
X145977338Y-70402397D01*
X146130860Y-70324173D01*
X146151727Y-70313541D01*
X146151729Y-70313539D01*
X146151736Y-70313536D01*
X146310086Y-70198489D01*
X146448489Y-70060086D01*
X146563536Y-69901736D01*
X146567637Y-69893689D01*
X146590287Y-69849234D01*
X146652397Y-69727338D01*
X146712881Y-69541187D01*
X146743500Y-69347866D01*
X146743500Y-69152134D01*
X146712881Y-68958813D01*
X146652397Y-68772662D01*
X146623094Y-68715153D01*
X146563541Y-68598272D01*
X146563537Y-68598267D01*
X146563536Y-68598264D01*
X146448489Y-68439914D01*
X146310086Y-68301511D01*
X146151736Y-68186464D01*
X146151733Y-68186462D01*
X146151727Y-68186458D01*
X145977342Y-68097605D01*
X145977333Y-68097601D01*
X145791184Y-68037118D01*
X145597876Y-68006501D01*
X145597869Y-68006500D01*
X145597866Y-68006500D01*
X145402134Y-68006500D01*
X145402131Y-68006500D01*
X145402123Y-68006501D01*
X145208815Y-68037118D01*
X145022666Y-68097601D01*
X145022662Y-68097602D01*
X144848262Y-68186465D01*
X144848259Y-68186467D01*
X144820167Y-68206874D01*
X144820168Y-68206875D01*
X144819617Y-68207275D01*
X144805965Y-68217195D01*
X144777925Y-68232169D01*
X144534642Y-68410774D01*
X144525712Y-68417481D01*
X144525423Y-68417703D01*
X144517413Y-68423983D01*
X144470143Y-68461806D01*
X144465718Y-68465200D01*
X144465699Y-68465215D01*
X144357087Y-68548550D01*
X144269950Y-68591517D01*
X144220958Y-68599520D01*
X144085060Y-68607965D01*
X144023248Y-68611807D01*
X144023242Y-68611807D01*
X144023235Y-68611808D01*
X143988941Y-68615253D01*
X143964053Y-68616500D01*
X143605853Y-68616500D01*
X143572364Y-68614238D01*
X143565301Y-68613279D01*
X143556554Y-68611577D01*
X143550582Y-68611281D01*
X143540027Y-68609849D01*
X143503958Y-68597443D01*
X143466963Y-68588161D01*
X143450653Y-68579110D01*
X143448154Y-68578251D01*
X143446551Y-68576834D01*
X143438937Y-68572609D01*
X143437540Y-68571712D01*
X143433019Y-68568842D01*
X143433006Y-68568833D01*
X143432918Y-68568778D01*
X143432714Y-68568650D01*
X143428367Y-68565953D01*
X143298256Y-68486110D01*
X143285350Y-68478890D01*
X143262034Y-68465848D01*
X143260352Y-68464995D01*
X143222589Y-68447717D01*
X143136176Y-68412333D01*
X143104501Y-68400566D01*
X143103027Y-68400073D01*
X143070290Y-68390321D01*
X143017200Y-68376413D01*
X142970146Y-68364086D01*
X142955762Y-68360539D01*
X142955118Y-68360390D01*
X142955114Y-68360389D01*
X142955101Y-68360387D01*
X142873406Y-68347245D01*
X142873417Y-68347172D01*
X142858639Y-68345311D01*
X142858055Y-68345194D01*
X142839479Y-68341500D01*
X142660521Y-68341500D01*
X142572760Y-68358956D01*
X142484998Y-68376413D01*
X142479779Y-68377997D01*
X142474352Y-68378531D01*
X142473002Y-68378800D01*
X142472975Y-68378667D01*
X142383092Y-68387519D01*
X142290121Y-68359315D01*
X142215019Y-68297680D01*
X142169221Y-68211997D01*
X142161873Y-68180566D01*
X142158500Y-68160283D01*
X142158500Y-68085521D01*
X142123587Y-67910000D01*
X142112377Y-67882938D01*
X142107703Y-67854828D01*
X142108354Y-67834208D01*
X142104330Y-67813976D01*
X142109872Y-67786114D01*
X142110769Y-67757721D01*
X142119261Y-67738919D01*
X142123286Y-67718688D01*
X142139067Y-67695070D01*
X142150762Y-67669179D01*
X142165802Y-67655058D01*
X142177263Y-67637908D01*
X142214985Y-67606950D01*
X142329135Y-67530678D01*
X142455678Y-67404135D01*
X142555102Y-67255336D01*
X142623587Y-67090000D01*
X142658500Y-66914479D01*
X142658500Y-66735521D01*
X142623587Y-66560000D01*
X142593600Y-66487606D01*
X142555104Y-66394668D01*
X142555101Y-66394663D01*
X142503700Y-66317736D01*
X142455678Y-66245865D01*
X142329135Y-66119322D01*
X142314058Y-66109248D01*
X142180336Y-66019898D01*
X142180331Y-66019895D01*
X142015001Y-65951413D01*
X141946467Y-65937781D01*
X141839479Y-65916500D01*
X141660521Y-65916500D01*
X141660519Y-65916500D01*
X141585931Y-65931336D01*
X141563281Y-65934766D01*
X141553876Y-65935751D01*
X141534474Y-65937781D01*
X141457796Y-65957121D01*
X141430295Y-65964879D01*
X141429051Y-65965268D01*
X141401977Y-65974563D01*
X141330211Y-66001458D01*
X141290258Y-66018390D01*
X141288490Y-66019229D01*
X141250190Y-66039425D01*
X141130322Y-66109248D01*
X141104041Y-66125639D01*
X141102901Y-66126398D01*
X141077644Y-66144352D01*
X141053073Y-66162958D01*
X141037134Y-66170691D01*
X141023621Y-66182147D01*
X140996595Y-66190361D01*
X140965664Y-66205370D01*
X140931110Y-66211828D01*
X140927056Y-66212292D01*
X140926720Y-66212320D01*
X140904469Y-66214880D01*
X140904419Y-66214876D01*
X140876120Y-66216500D01*
X140847455Y-66216500D01*
X140752167Y-66197546D01*
X140671385Y-66143570D01*
X140617409Y-66062788D01*
X140600585Y-65999998D01*
X140597284Y-65974923D01*
X140592838Y-65941150D01*
X140592834Y-65941142D01*
X140592384Y-65939457D01*
X140592154Y-65935952D01*
X140590708Y-65924967D01*
X140591427Y-65924872D01*
X140586025Y-65842510D01*
X140592383Y-65810544D01*
X140592833Y-65808860D01*
X140592838Y-65808850D01*
X140608500Y-65689885D01*
X140608499Y-65410116D01*
X140600712Y-65350967D01*
X140592838Y-65291151D01*
X140592836Y-65291145D01*
X140531526Y-65143127D01*
X140530058Y-65141214D01*
X140433987Y-65016013D01*
X140306876Y-64918476D01*
X140306875Y-64918475D01*
X140306873Y-64918474D01*
X140248922Y-64894470D01*
X140248917Y-64894469D01*
X140158850Y-64857162D01*
X140039885Y-64841500D01*
X140013583Y-64841500D01*
X139723398Y-64841500D01*
X139628110Y-64822546D01*
X139547328Y-64768570D01*
X139521081Y-64737651D01*
X139482773Y-64684251D01*
X139482771Y-64684249D01*
X139474951Y-64673348D01*
X139475061Y-64673269D01*
X139467298Y-64663255D01*
X139455681Y-64645869D01*
X139455680Y-64645868D01*
X139455678Y-64645865D01*
X139329135Y-64519322D01*
X139311379Y-64507458D01*
X139180336Y-64419898D01*
X139180331Y-64419895D01*
X139015001Y-64351413D01*
X138883398Y-64325236D01*
X138839479Y-64316500D01*
X138839478Y-64316500D01*
X138833923Y-64315395D01*
X138811263Y-64306009D01*
X138787212Y-64301225D01*
X138766820Y-64287600D01*
X138744163Y-64278215D01*
X138726822Y-64260874D01*
X138706430Y-64247249D01*
X138692804Y-64226856D01*
X138675464Y-64209516D01*
X138666078Y-64186858D01*
X138652454Y-64166467D01*
X138647669Y-64142415D01*
X138638284Y-64119756D01*
X138633500Y-64071179D01*
X138633500Y-63887863D01*
X138635596Y-63855622D01*
X138639866Y-63822923D01*
X138643948Y-63791660D01*
X138654892Y-63744384D01*
X138657878Y-63735525D01*
X138682738Y-63661762D01*
X138695114Y-63631694D01*
X138708835Y-63603710D01*
X138719866Y-63583612D01*
X138729150Y-63568405D01*
X138794977Y-63496954D01*
X138863350Y-63461793D01*
X138922738Y-63442115D01*
X139073652Y-63349030D01*
X139199030Y-63223652D01*
X139199030Y-63223651D01*
X139209285Y-63213397D01*
X139209948Y-63214060D01*
X139216430Y-63204360D01*
X139244987Y-63185278D01*
X139271130Y-63163012D01*
X139285046Y-63158511D01*
X139297211Y-63150383D01*
X139330896Y-63143682D01*
X139363571Y-63133115D01*
X139378152Y-63134282D01*
X139392499Y-63131429D01*
X139426179Y-63138128D01*
X139460416Y-63140870D01*
X139473442Y-63147529D01*
X139487787Y-63150383D01*
X139516340Y-63169461D01*
X139546921Y-63185096D01*
X139556405Y-63196231D01*
X139568569Y-63204359D01*
X139587650Y-63232916D01*
X139609917Y-63259059D01*
X139614417Y-63272975D01*
X139622546Y-63285140D01*
X139629246Y-63318825D01*
X139639814Y-63351500D01*
X139641500Y-63380428D01*
X139641500Y-63700541D01*
X139652113Y-63804426D01*
X139707885Y-63972738D01*
X139707887Y-63972743D01*
X139800967Y-64123648D01*
X139800969Y-64123650D01*
X139800970Y-64123652D01*
X139926348Y-64249030D01*
X139926350Y-64249031D01*
X139926351Y-64249032D01*
X140077256Y-64342112D01*
X140077259Y-64342113D01*
X140077262Y-64342115D01*
X140245574Y-64397887D01*
X140349455Y-64408500D01*
X141550544Y-64408499D01*
X141654426Y-64397887D01*
X141822738Y-64342115D01*
X141973652Y-64249030D01*
X142099030Y-64123652D01*
X142192115Y-63972738D01*
X142247887Y-63804426D01*
X142258500Y-63700545D01*
X142258499Y-63416233D01*
X146649500Y-63416233D01*
X146649500Y-63583767D01*
X146682184Y-63748082D01*
X146682185Y-63748086D01*
X146743258Y-63895526D01*
X146746297Y-63902863D01*
X146764574Y-63930216D01*
X146826561Y-64022987D01*
X146839374Y-64042162D01*
X146957838Y-64160626D01*
X147097137Y-64253703D01*
X147156314Y-64278215D01*
X147231631Y-64309413D01*
X147251918Y-64317816D01*
X147416233Y-64350500D01*
X147416235Y-64350500D01*
X147583765Y-64350500D01*
X147583767Y-64350500D01*
X147748082Y-64317816D01*
X147902863Y-64253703D01*
X148042162Y-64160626D01*
X148160626Y-64042162D01*
X148253703Y-63902863D01*
X148317816Y-63748082D01*
X148350500Y-63583767D01*
X148350500Y-63416233D01*
X148317816Y-63251918D01*
X148315138Y-63245454D01*
X148291298Y-63187899D01*
X148253703Y-63097137D01*
X148160626Y-62957838D01*
X148042162Y-62839374D01*
X148010043Y-62817913D01*
X147960554Y-62784845D01*
X147902863Y-62746297D01*
X147902860Y-62746296D01*
X147902859Y-62746295D01*
X147748086Y-62682185D01*
X147748082Y-62682184D01*
X147583767Y-62649500D01*
X147416233Y-62649500D01*
X147251918Y-62682184D01*
X147251913Y-62682185D01*
X147097140Y-62746295D01*
X147097135Y-62746298D01*
X146957841Y-62839371D01*
X146839371Y-62957841D01*
X146746298Y-63097135D01*
X146746295Y-63097140D01*
X146682185Y-63251913D01*
X146682184Y-63251917D01*
X146682184Y-63251918D01*
X146649500Y-63416233D01*
X142258499Y-63416233D01*
X142258499Y-63246343D01*
X142258499Y-62799458D01*
X142258248Y-62796997D01*
X142247887Y-62695574D01*
X142192115Y-62527262D01*
X142192113Y-62527259D01*
X142192112Y-62527256D01*
X142099032Y-62376351D01*
X142099028Y-62376346D01*
X141973651Y-62250969D01*
X141946029Y-62233932D01*
X141910354Y-62211927D01*
X141839205Y-62145773D01*
X141798786Y-62057424D01*
X141795254Y-61960334D01*
X141829145Y-61869282D01*
X141895301Y-61798131D01*
X141910346Y-61788077D01*
X141973652Y-61749030D01*
X142099030Y-61623652D01*
X142192115Y-61472738D01*
X142247887Y-61304426D01*
X142258500Y-61200545D01*
X142258499Y-60299456D01*
X142247887Y-60195574D01*
X142192115Y-60027262D01*
X142192113Y-60027259D01*
X142192112Y-60027256D01*
X142099032Y-59876351D01*
X142099028Y-59876346D01*
X141973653Y-59750971D01*
X141973648Y-59750967D01*
X141822743Y-59657887D01*
X141822738Y-59657885D01*
X141654427Y-59602113D01*
X141628455Y-59599459D01*
X141550545Y-59591500D01*
X141550542Y-59591500D01*
X140349458Y-59591500D01*
X140245573Y-59602113D01*
X140077261Y-59657885D01*
X140077256Y-59657887D01*
X139926351Y-59750967D01*
X139926346Y-59750971D01*
X139800971Y-59876346D01*
X139800967Y-59876351D01*
X139707887Y-60027256D01*
X139707885Y-60027261D01*
X139652113Y-60195572D01*
X139641500Y-60299452D01*
X139641500Y-60619570D01*
X139622546Y-60714858D01*
X139568570Y-60795640D01*
X139487788Y-60849616D01*
X139392500Y-60868570D01*
X139297212Y-60849616D01*
X139216430Y-60795640D01*
X139201142Y-60778460D01*
X139073653Y-60650971D01*
X139073648Y-60650967D01*
X138922743Y-60557887D01*
X138922738Y-60557885D01*
X138754427Y-60502113D01*
X138728455Y-60499459D01*
X138650545Y-60491500D01*
X138650542Y-60491500D01*
X137449458Y-60491500D01*
X137345573Y-60502113D01*
X137177261Y-60557885D01*
X137177256Y-60557887D01*
X137026351Y-60650967D01*
X137026346Y-60650971D01*
X136900971Y-60776346D01*
X136900967Y-60776351D01*
X136807887Y-60927256D01*
X136807885Y-60927261D01*
X136752113Y-61095572D01*
X136741500Y-61199452D01*
X136741500Y-62800542D01*
X136752113Y-62904426D01*
X136807885Y-63072738D01*
X136807887Y-63072743D01*
X136900967Y-63223648D01*
X136900969Y-63223650D01*
X136900970Y-63223652D01*
X137026348Y-63349030D01*
X137077252Y-63380428D01*
X137189606Y-63449729D01*
X137187700Y-63452818D01*
X137201090Y-63462634D01*
X137237367Y-63487077D01*
X137240137Y-63491257D01*
X137244178Y-63494220D01*
X137291030Y-63568067D01*
X137327986Y-63658274D01*
X137337601Y-63686434D01*
X137346998Y-63720487D01*
X137352107Y-63743040D01*
X137356861Y-63769718D01*
X137360181Y-63796986D01*
X137361893Y-63822912D01*
X137365179Y-63854677D01*
X137366500Y-63880292D01*
X137366500Y-64869456D01*
X137347546Y-64964744D01*
X137293570Y-65045526D01*
X137212788Y-65099502D01*
X137117500Y-65118456D01*
X137022212Y-65099502D01*
X136941430Y-65045526D01*
X133931429Y-62035525D01*
X133877453Y-61954743D01*
X133858499Y-61859455D01*
X133858499Y-61799466D01*
X133858499Y-61799456D01*
X133847887Y-61695574D01*
X133792115Y-61527262D01*
X133792113Y-61527259D01*
X133792112Y-61527256D01*
X133699032Y-61376351D01*
X133699028Y-61376346D01*
X133573653Y-61250971D01*
X133573648Y-61250967D01*
X133422743Y-61157887D01*
X133422738Y-61157885D01*
X133254427Y-61102113D01*
X133228455Y-61099459D01*
X133150545Y-61091500D01*
X133150542Y-61091500D01*
X132399458Y-61091500D01*
X132295573Y-61102113D01*
X132127261Y-61157885D01*
X132127256Y-61157887D01*
X131976351Y-61250967D01*
X131976346Y-61250971D01*
X131850971Y-61376346D01*
X131850967Y-61376351D01*
X131757887Y-61527256D01*
X131757885Y-61527261D01*
X131702031Y-61695821D01*
X131654066Y-61780311D01*
X131577420Y-61840014D01*
X131483761Y-61865842D01*
X131465669Y-61866500D01*
X128403821Y-61866500D01*
X128308533Y-61847546D01*
X128227751Y-61793570D01*
X128173775Y-61712788D01*
X128159605Y-61666077D01*
X128155058Y-61643217D01*
X128123587Y-61485000D01*
X128097615Y-61422299D01*
X128055104Y-61319668D01*
X128055101Y-61319663D01*
X127955680Y-61170868D01*
X127955678Y-61170865D01*
X127829135Y-61044322D01*
X127827005Y-61042899D01*
X127769207Y-61004279D01*
X127749521Y-60989674D01*
X127727911Y-60971926D01*
X127727905Y-60971922D01*
X127727900Y-60971919D01*
X127680610Y-60943263D01*
X127650164Y-60924814D01*
X127628794Y-60912556D01*
X127628786Y-60912552D01*
X127628757Y-60912535D01*
X127627816Y-60912025D01*
X127605437Y-60900591D01*
X127529169Y-60863946D01*
X127497120Y-60849871D01*
X127497109Y-60849866D01*
X127495623Y-60849273D01*
X127475771Y-60842131D01*
X127462456Y-60837340D01*
X127308593Y-60787873D01*
X127304131Y-60786486D01*
X127298970Y-60784883D01*
X127298620Y-60784778D01*
X127291357Y-60782658D01*
X127291311Y-60782645D01*
X127291253Y-60782628D01*
X127278548Y-60779019D01*
X127274523Y-60776958D01*
X127270034Y-60776435D01*
X127239037Y-60758792D01*
X127192066Y-60734747D01*
X127185189Y-60729102D01*
X127183520Y-60727681D01*
X127150600Y-60698669D01*
X127122394Y-60675647D01*
X127120432Y-60673977D01*
X127119659Y-60673000D01*
X127105765Y-60660442D01*
X126585641Y-60140318D01*
X124953251Y-58507929D01*
X124946721Y-58503566D01*
X124849493Y-58438600D01*
X124849488Y-58438597D01*
X124734205Y-58390846D01*
X124734203Y-58390845D01*
X124611812Y-58366500D01*
X115897606Y-58366500D01*
X115897601Y-58366500D01*
X115775218Y-58390844D01*
X115775216Y-58390844D01*
X115775215Y-58390845D01*
X115741447Y-58404831D01*
X115679704Y-58430406D01*
X115659922Y-58438600D01*
X115618333Y-58466389D01*
X115528573Y-58503567D01*
X115431418Y-58503566D01*
X115341664Y-58466388D01*
X115300078Y-58438602D01*
X115300070Y-58438597D01*
X115184787Y-58390846D01*
X115184785Y-58390845D01*
X115062394Y-58366500D01*
X110412394Y-58366500D01*
X110287606Y-58366500D01*
X110165215Y-58390845D01*
X110165213Y-58390845D01*
X110165212Y-58390846D01*
X110049929Y-58438597D01*
X110049924Y-58438600D01*
X109946168Y-58507928D01*
X109946166Y-58507929D01*
X109468490Y-58985604D01*
X109447611Y-59004257D01*
X109442799Y-59008091D01*
X109428379Y-59018466D01*
X109421630Y-59024962D01*
X109412521Y-59032223D01*
X109379515Y-59049261D01*
X109348244Y-59069310D01*
X109336306Y-59071567D01*
X109326191Y-59076789D01*
X109294685Y-59079436D01*
X109257331Y-59086500D01*
X108934174Y-59086500D01*
X108801269Y-59103997D01*
X108700970Y-59130873D01*
X108674101Y-59138073D01*
X108674099Y-59138073D01*
X108674098Y-59138074D01*
X108550262Y-59189368D01*
X108550251Y-59189373D01*
X108436252Y-59255191D01*
X108436240Y-59255198D01*
X108329891Y-59336804D01*
X108273124Y-59393571D01*
X108192342Y-59447547D01*
X108097056Y-59466500D01*
X107414644Y-59466500D01*
X107319356Y-59447546D01*
X107303013Y-59439816D01*
X107184787Y-59390846D01*
X107184785Y-59390845D01*
X107062394Y-59366500D01*
X107062391Y-59366500D01*
X106011555Y-59366500D01*
X105997923Y-59366127D01*
X105983021Y-59365309D01*
X105960834Y-59361398D01*
X105844137Y-59357694D01*
X105841259Y-59357537D01*
X105840294Y-59357289D01*
X105826101Y-59356240D01*
X105774315Y-59350212D01*
X105681858Y-59320368D01*
X105681318Y-59320066D01*
X105658167Y-59307084D01*
X105628317Y-59287402D01*
X105529319Y-59211394D01*
X105527010Y-59209600D01*
X105397494Y-59107721D01*
X105397479Y-59107709D01*
X105387498Y-59100054D01*
X105387457Y-59100023D01*
X105387437Y-59100008D01*
X105387042Y-59099712D01*
X105377757Y-59092931D01*
X105216324Y-58977803D01*
X105210187Y-58973493D01*
X105209923Y-58973311D01*
X105174271Y-58951744D01*
X105156798Y-58940141D01*
X105151744Y-58936469D01*
X105151727Y-58936458D01*
X104977342Y-58847605D01*
X104977333Y-58847601D01*
X104791184Y-58787118D01*
X104597876Y-58756501D01*
X104597869Y-58756500D01*
X104597866Y-58756500D01*
X104402134Y-58756500D01*
X104402131Y-58756500D01*
X104402123Y-58756501D01*
X104208815Y-58787118D01*
X104022666Y-58847601D01*
X104022657Y-58847605D01*
X103848272Y-58936458D01*
X103848265Y-58936463D01*
X103689912Y-59051512D01*
X103551512Y-59189912D01*
X103436463Y-59348265D01*
X103436458Y-59348272D01*
X103347605Y-59522657D01*
X103347601Y-59522666D01*
X103287118Y-59708815D01*
X103256501Y-59902123D01*
X103256500Y-59902138D01*
X103256500Y-60097861D01*
X103256501Y-60097876D01*
X103287118Y-60291184D01*
X103347601Y-60477333D01*
X103347605Y-60477342D01*
X103436458Y-60651727D01*
X103436462Y-60651733D01*
X103436464Y-60651736D01*
X103551511Y-60810086D01*
X103689914Y-60948489D01*
X103848264Y-61063536D01*
X103848267Y-61063537D01*
X103848272Y-61063541D01*
X103956479Y-61118675D01*
X104022662Y-61152397D01*
X104208813Y-61212881D01*
X104402134Y-61243500D01*
X104402138Y-61243500D01*
X104597862Y-61243500D01*
X104597866Y-61243500D01*
X104791187Y-61212881D01*
X104977338Y-61152397D01*
X105151736Y-61063536D01*
X105194047Y-61032795D01*
X105222074Y-61017829D01*
X105465293Y-60839271D01*
X105473217Y-60833335D01*
X105473603Y-60833040D01*
X105482614Y-60825993D01*
X105529898Y-60788157D01*
X105642910Y-60701447D01*
X105730047Y-60658480D01*
X105779036Y-60650478D01*
X105976752Y-60638192D01*
X106011075Y-60634745D01*
X106035946Y-60633500D01*
X106685356Y-60633500D01*
X106780644Y-60652454D01*
X106796986Y-60660183D01*
X106830288Y-60673977D01*
X106915215Y-60709155D01*
X107037606Y-60733500D01*
X107162393Y-60733500D01*
X107737500Y-60733500D01*
X107832788Y-60752454D01*
X107913570Y-60806430D01*
X107967546Y-60887212D01*
X107986500Y-60982500D01*
X107986500Y-61465826D01*
X107999181Y-61562142D01*
X108005062Y-61606813D01*
X108003143Y-61607065D01*
X108003148Y-61691587D01*
X107965974Y-61781348D01*
X107935000Y-61819094D01*
X107259748Y-62494346D01*
X107178966Y-62548322D01*
X107083678Y-62567276D01*
X107009602Y-62556002D01*
X106903652Y-62522988D01*
X106903653Y-62522988D01*
X106903649Y-62522987D01*
X106903648Y-62522986D01*
X106903641Y-62522985D01*
X106832269Y-62516500D01*
X106317731Y-62516500D01*
X106246352Y-62522986D01*
X106082085Y-62574173D01*
X105934846Y-62663183D01*
X105813183Y-62784846D01*
X105724173Y-62932086D01*
X105672987Y-63096350D01*
X105672985Y-63096358D01*
X105666500Y-63167720D01*
X105666500Y-63832268D01*
X105672986Y-63903647D01*
X105724173Y-64067914D01*
X105781766Y-64163183D01*
X105813184Y-64215155D01*
X105934845Y-64336816D01*
X106082087Y-64425827D01*
X106246351Y-64477013D01*
X106246355Y-64477013D01*
X106246358Y-64477014D01*
X106274912Y-64479608D01*
X106317735Y-64483500D01*
X106832264Y-64483499D01*
X106832268Y-64483499D01*
X106879854Y-64479175D01*
X106903649Y-64477013D01*
X107067913Y-64425827D01*
X107215155Y-64336816D01*
X107336816Y-64215155D01*
X107387328Y-64131596D01*
X107452844Y-64059857D01*
X107462047Y-64053400D01*
X107553833Y-63992071D01*
X109031527Y-62514375D01*
X109052403Y-62495727D01*
X109057193Y-62491909D01*
X109071617Y-62481534D01*
X109078367Y-62475034D01*
X109087480Y-62467773D01*
X109120482Y-62450737D01*
X109151750Y-62430691D01*
X109163691Y-62428432D01*
X109173812Y-62423209D01*
X109205317Y-62420562D01*
X109242665Y-62413500D01*
X109565826Y-62413500D01*
X109698732Y-62396002D01*
X109825899Y-62361927D01*
X109949743Y-62310629D01*
X110063757Y-62244803D01*
X110170106Y-62163198D01*
X110263198Y-62070106D01*
X110344803Y-61963757D01*
X110410629Y-61849743D01*
X110461927Y-61725899D01*
X110496002Y-61598732D01*
X110513500Y-61465826D01*
X110513500Y-60900000D01*
X110508273Y-60826921D01*
X110505141Y-60816257D01*
X110496480Y-60719491D01*
X110497579Y-60710731D01*
X110513500Y-60600000D01*
X110513500Y-60034174D01*
X110497810Y-59915001D01*
X110504164Y-59818055D01*
X110547134Y-59730919D01*
X110620179Y-59666860D01*
X110712178Y-59635630D01*
X110744680Y-59633500D01*
X111682500Y-59633500D01*
X111777788Y-59652454D01*
X111858570Y-59706430D01*
X111912546Y-59787212D01*
X111931500Y-59882500D01*
X111931500Y-60686206D01*
X111929981Y-60713669D01*
X111928622Y-60725914D01*
X111927691Y-60729594D01*
X111917724Y-60824116D01*
X111917650Y-60824788D01*
X111917336Y-60825777D01*
X111909306Y-60866712D01*
X111883917Y-60954213D01*
X111871073Y-60988713D01*
X111811410Y-61118675D01*
X111795190Y-61148467D01*
X111709361Y-61283345D01*
X111689952Y-61309817D01*
X111689405Y-61310468D01*
X111613881Y-61399273D01*
X111597682Y-61419665D01*
X111595471Y-61422299D01*
X111594080Y-61423413D01*
X111580877Y-61438217D01*
X110846167Y-62172928D01*
X110757930Y-62261165D01*
X110757928Y-62261168D01*
X110688600Y-62364924D01*
X110688597Y-62364929D01*
X110640846Y-62480212D01*
X110640845Y-62480215D01*
X110616500Y-62602606D01*
X110616500Y-62602608D01*
X110616500Y-63559456D01*
X110597546Y-63654744D01*
X110590552Y-63665211D01*
X110543570Y-63735525D01*
X110543569Y-63735525D01*
X110368271Y-63910822D01*
X110342836Y-63933020D01*
X110299730Y-63965769D01*
X110212391Y-64008321D01*
X110149098Y-64016500D01*
X109892842Y-64016500D01*
X109884392Y-64016151D01*
X109884392Y-64016167D01*
X109876630Y-64016009D01*
X109870208Y-64016280D01*
X109859747Y-64016500D01*
X109667731Y-64016500D01*
X109596352Y-64022986D01*
X109432085Y-64074173D01*
X109284846Y-64163183D01*
X109163183Y-64284846D01*
X109074173Y-64432086D01*
X109022987Y-64596350D01*
X109022985Y-64596358D01*
X109016500Y-64667720D01*
X109016500Y-65182268D01*
X109022986Y-65253647D01*
X109074173Y-65417914D01*
X109124953Y-65501913D01*
X109159536Y-65559121D01*
X109170976Y-65578044D01*
X109169602Y-65578874D01*
X109205563Y-65649990D01*
X109212888Y-65746868D01*
X109182582Y-65839176D01*
X109119258Y-65912859D01*
X109032557Y-65956700D01*
X109014284Y-65961057D01*
X108990217Y-65965844D01*
X108990211Y-65965846D01*
X108968294Y-65974923D01*
X108968295Y-65974924D01*
X108874927Y-66013598D01*
X108874923Y-66013599D01*
X108771170Y-66082925D01*
X108771167Y-66082927D01*
X108771167Y-66082928D01*
X107096167Y-67757929D01*
X107096166Y-67757928D01*
X107007930Y-67846165D01*
X107007928Y-67846168D01*
X106938600Y-67949924D01*
X106938599Y-67949926D01*
X106902205Y-68037789D01*
X106848228Y-68118570D01*
X106767446Y-68172546D01*
X106672160Y-68191500D01*
X106200458Y-68191500D01*
X106200451Y-68191501D01*
X106052301Y-68206091D01*
X106052295Y-68206092D01*
X105862197Y-68263758D01*
X105686993Y-68357406D01*
X105533439Y-68483425D01*
X105533425Y-68483439D01*
X105407406Y-68636993D01*
X105313758Y-68812197D01*
X105256091Y-69002299D01*
X105241500Y-69150452D01*
X105241500Y-73849541D01*
X105241501Y-73849548D01*
X105256091Y-73997698D01*
X105256092Y-73997704D01*
X105313758Y-74187802D01*
X105407406Y-74363006D01*
X105493116Y-74467443D01*
X105533432Y-74516568D01*
X105533437Y-74516572D01*
X105537886Y-74521021D01*
X105591862Y-74601803D01*
X105605981Y-74648258D01*
X105987185Y-76554272D01*
X105996744Y-76593835D01*
X105996746Y-76593843D01*
X106002115Y-76612747D01*
X106014794Y-76651472D01*
X106014795Y-76651473D01*
X106084722Y-76779810D01*
X106084725Y-76779814D01*
X106126546Y-76835785D01*
X106229800Y-76939225D01*
X106947500Y-77477500D01*
X106962578Y-77488388D01*
X106966219Y-77490918D01*
X106969951Y-77493512D01*
X106985332Y-77503793D01*
X106985336Y-77503795D01*
X106985339Y-77503797D01*
X107118287Y-77564514D01*
X107185326Y-77584199D01*
X107185330Y-77584200D01*
X107223221Y-77589647D01*
X107239680Y-77593234D01*
X107239303Y-77595133D01*
X107343418Y-77615842D01*
X107345605Y-77616319D01*
X107348790Y-77617706D01*
X107387873Y-77629563D01*
X107414452Y-77640573D01*
X107457494Y-77663580D01*
X107528108Y-77710763D01*
X107544212Y-77722482D01*
X107575044Y-77746861D01*
X107575048Y-77746864D01*
X107575056Y-77746870D01*
X107623734Y-77776896D01*
X107623743Y-77776901D01*
X107713812Y-77818901D01*
X107739283Y-77832633D01*
X107742023Y-77834323D01*
X107748205Y-77838136D01*
X107819359Y-77904285D01*
X107859784Y-77992630D01*
X107866500Y-78050072D01*
X107866500Y-81000542D01*
X107877113Y-81104426D01*
X107932885Y-81272738D01*
X107949426Y-81299556D01*
X107956415Y-81318330D01*
X107967546Y-81334989D01*
X107973203Y-81363429D01*
X107983319Y-81390605D01*
X107986500Y-81430277D01*
X107986500Y-81569722D01*
X107967546Y-81665010D01*
X107949429Y-81700440D01*
X107932886Y-81727259D01*
X107932882Y-81727267D01*
X107877113Y-81895569D01*
X107866500Y-81999452D01*
X107866500Y-85000542D01*
X107867673Y-85012015D01*
X107864833Y-85041953D01*
X107866539Y-85071969D01*
X107860290Y-85089862D01*
X107858501Y-85108736D01*
X107844422Y-85135306D01*
X107834510Y-85163693D01*
X107821888Y-85177835D01*
X107813013Y-85194585D01*
X107769818Y-85236177D01*
X107612258Y-85354912D01*
X107593647Y-85367658D01*
X107441796Y-85461842D01*
X107414363Y-85476566D01*
X107268068Y-85543669D01*
X107239661Y-85554650D01*
X107201685Y-85566717D01*
X107177747Y-85573032D01*
X107137871Y-85581456D01*
X107109732Y-85585738D01*
X107081890Y-85588358D01*
X107049861Y-85589301D01*
X106992535Y-85587296D01*
X106992530Y-85587296D01*
X106982852Y-85587358D01*
X106949931Y-85587573D01*
X106948037Y-85587664D01*
X106948032Y-85587664D01*
X106939714Y-85588858D01*
X106938893Y-85588976D01*
X106903531Y-85591500D01*
X106174458Y-85591500D01*
X106070573Y-85602113D01*
X105902261Y-85657885D01*
X105902256Y-85657887D01*
X105751351Y-85750967D01*
X105751346Y-85750971D01*
X105625971Y-85876346D01*
X105625967Y-85876351D01*
X105532887Y-86027256D01*
X105532885Y-86027261D01*
X105477113Y-86195572D01*
X105466500Y-86299452D01*
X105466500Y-86343706D01*
X105464541Y-86374875D01*
X105463222Y-86385322D01*
X105462662Y-86387410D01*
X105456600Y-86437811D01*
X105456484Y-86438733D01*
X105455898Y-86440488D01*
X105443395Y-86492814D01*
X105443219Y-86493297D01*
X105427604Y-86525343D01*
X105425752Y-86530899D01*
X105423802Y-86533146D01*
X105420583Y-86539754D01*
X105402181Y-86569279D01*
X105374327Y-86605925D01*
X105325870Y-86658731D01*
X105295098Y-86687067D01*
X105217570Y-86747252D01*
X105183352Y-86769573D01*
X105082610Y-86824069D01*
X105052283Y-86837935D01*
X105037599Y-86843493D01*
X105013021Y-86851366D01*
X105012006Y-86851634D01*
X104975398Y-86858421D01*
X104929851Y-86863381D01*
X104923522Y-86864240D01*
X104890053Y-86866500D01*
X103261555Y-86866500D01*
X103247923Y-86866127D01*
X103233021Y-86865309D01*
X103210834Y-86861398D01*
X103094137Y-86857694D01*
X103091259Y-86857537D01*
X103090294Y-86857289D01*
X103076101Y-86856240D01*
X103024315Y-86850212D01*
X102931858Y-86820368D01*
X102931318Y-86820066D01*
X102908167Y-86807084D01*
X102878317Y-86787402D01*
X102779319Y-86711394D01*
X102777010Y-86709600D01*
X102647494Y-86607721D01*
X102647479Y-86607709D01*
X102637498Y-86600054D01*
X102637457Y-86600023D01*
X102637437Y-86600008D01*
X102637042Y-86599712D01*
X102627757Y-86592931D01*
X102466324Y-86477803D01*
X102460187Y-86473493D01*
X102459923Y-86473311D01*
X102424271Y-86451744D01*
X102406798Y-86440141D01*
X102401744Y-86436469D01*
X102401727Y-86436458D01*
X102227342Y-86347605D01*
X102227333Y-86347601D01*
X102041184Y-86287118D01*
X101847876Y-86256501D01*
X101847869Y-86256500D01*
X101847866Y-86256500D01*
X101652134Y-86256500D01*
X101652131Y-86256500D01*
X101652123Y-86256501D01*
X101458815Y-86287118D01*
X101272666Y-86347601D01*
X101272657Y-86347605D01*
X101098272Y-86436458D01*
X101098265Y-86436463D01*
X100939912Y-86551512D01*
X100801512Y-86689912D01*
X100686463Y-86848265D01*
X100686458Y-86848272D01*
X100597605Y-87022657D01*
X100597601Y-87022666D01*
X100537118Y-87208815D01*
X100506501Y-87402123D01*
X100506500Y-87402138D01*
X100506500Y-87597861D01*
X100506501Y-87597876D01*
X100537118Y-87791184D01*
X100597601Y-87977333D01*
X100597605Y-87977342D01*
X100686458Y-88151727D01*
X100686462Y-88151733D01*
X100686464Y-88151736D01*
X100801511Y-88310086D01*
X100939914Y-88448489D01*
X101098264Y-88563536D01*
X101098267Y-88563537D01*
X101098272Y-88563541D01*
X101170809Y-88600500D01*
X101272662Y-88652397D01*
X101458813Y-88712881D01*
X101652134Y-88743500D01*
X101652138Y-88743500D01*
X101847862Y-88743500D01*
X101847866Y-88743500D01*
X102041187Y-88712881D01*
X102227338Y-88652397D01*
X102401736Y-88563536D01*
X102444047Y-88532795D01*
X102472074Y-88517829D01*
X102715293Y-88339271D01*
X102723217Y-88333335D01*
X102723603Y-88333040D01*
X102732614Y-88325993D01*
X102779898Y-88288157D01*
X102892910Y-88201447D01*
X102980047Y-88158480D01*
X103029036Y-88150478D01*
X103226752Y-88138192D01*
X103261075Y-88134745D01*
X103285946Y-88133500D01*
X104887486Y-88133500D01*
X104918552Y-88135446D01*
X104993918Y-88144923D01*
X105039575Y-88155092D01*
X105135304Y-88186097D01*
X105163497Y-88197165D01*
X105205718Y-88216782D01*
X105224004Y-88226217D01*
X105279473Y-88257806D01*
X105297546Y-88269151D01*
X105340679Y-88298882D01*
X105359170Y-88312945D01*
X105389138Y-88338027D01*
X105450045Y-88413720D01*
X105473336Y-88491336D01*
X105474268Y-88491137D01*
X105476734Y-88502658D01*
X105477033Y-88503654D01*
X105477111Y-88504419D01*
X105477112Y-88504423D01*
X105532885Y-88672738D01*
X105532887Y-88672743D01*
X105625967Y-88823648D01*
X105625968Y-88823649D01*
X105625970Y-88823652D01*
X105751348Y-88949030D01*
X105751350Y-88949031D01*
X105751351Y-88949032D01*
X105902256Y-89042112D01*
X105902259Y-89042113D01*
X105902262Y-89042115D01*
X106070574Y-89097887D01*
X106174455Y-89108500D01*
X108075544Y-89108499D01*
X108179426Y-89097887D01*
X108347738Y-89042115D01*
X108498652Y-88949030D01*
X108548230Y-88899452D01*
X109591500Y-88899452D01*
X109591500Y-89650541D01*
X109602113Y-89754426D01*
X109657885Y-89922738D01*
X109657887Y-89922743D01*
X109750967Y-90073648D01*
X109750969Y-90073650D01*
X109750970Y-90073652D01*
X109876348Y-90199030D01*
X109876351Y-90199032D01*
X109876354Y-90199034D01*
X109951753Y-90245541D01*
X110022905Y-90311696D01*
X110063323Y-90400045D01*
X110066855Y-90497136D01*
X110058761Y-90531545D01*
X110022988Y-90646347D01*
X110022985Y-90646358D01*
X110016500Y-90717720D01*
X110016500Y-91232268D01*
X110022986Y-91303647D01*
X110074173Y-91467914D01*
X110140312Y-91577320D01*
X110163184Y-91615155D01*
X110284845Y-91736816D01*
X110432087Y-91825827D01*
X110596351Y-91877013D01*
X110596355Y-91877013D01*
X110596358Y-91877014D01*
X110624912Y-91879608D01*
X110667735Y-91883500D01*
X111332264Y-91883499D01*
X111332268Y-91883499D01*
X111379854Y-91879175D01*
X111403649Y-91877013D01*
X111567913Y-91825827D01*
X111715155Y-91736816D01*
X111836816Y-91615155D01*
X111925827Y-91467913D01*
X111977013Y-91303649D01*
X111983500Y-91232265D01*
X111983499Y-90717736D01*
X111983049Y-90712788D01*
X111977013Y-90646350D01*
X111977012Y-90646348D01*
X111941239Y-90531548D01*
X111930986Y-90434936D01*
X111958485Y-90341754D01*
X112019550Y-90266188D01*
X112048246Y-90245541D01*
X112123652Y-90199030D01*
X112249030Y-90073652D01*
X112342115Y-89922738D01*
X112397887Y-89754426D01*
X112408500Y-89650545D01*
X112408499Y-88899456D01*
X112397887Y-88795574D01*
X112342115Y-88627262D01*
X112342113Y-88627259D01*
X112342112Y-88627256D01*
X112249032Y-88476351D01*
X112249028Y-88476346D01*
X112123653Y-88350971D01*
X112123648Y-88350967D01*
X111972743Y-88257887D01*
X111972738Y-88257885D01*
X111804427Y-88202113D01*
X111778455Y-88199459D01*
X111700545Y-88191500D01*
X111700542Y-88191500D01*
X110299457Y-88191500D01*
X110195573Y-88202113D01*
X110027261Y-88257885D01*
X110027256Y-88257887D01*
X109876351Y-88350967D01*
X109876346Y-88350971D01*
X109750971Y-88476346D01*
X109750967Y-88476351D01*
X109657887Y-88627256D01*
X109657885Y-88627261D01*
X109602113Y-88795572D01*
X109591500Y-88899452D01*
X108548230Y-88899452D01*
X108624030Y-88823652D01*
X108624033Y-88823648D01*
X108661810Y-88762401D01*
X108661813Y-88762396D01*
X108673468Y-88743500D01*
X108717115Y-88672738D01*
X108772887Y-88504426D01*
X108783500Y-88400545D01*
X108783499Y-87961749D01*
X108784112Y-87944287D01*
X108785080Y-87930517D01*
X108788809Y-87910137D01*
X108791532Y-87838739D01*
X108791811Y-87834778D01*
X108792120Y-87833644D01*
X108793121Y-87821356D01*
X108798562Y-87777831D01*
X108802361Y-87755650D01*
X108810122Y-87720088D01*
X108816153Y-87697578D01*
X108819322Y-87687637D01*
X108832681Y-87654280D01*
X108860998Y-87596136D01*
X108886717Y-87554366D01*
X108911329Y-87522030D01*
X108944344Y-87486465D01*
X108978238Y-87456441D01*
X109016257Y-87428707D01*
X109062352Y-87401354D01*
X109103986Y-87381608D01*
X109154749Y-87363068D01*
X109201133Y-87351036D01*
X109275497Y-87339234D01*
X109296104Y-87336839D01*
X109296215Y-87336830D01*
X109319893Y-87335116D01*
X109320106Y-87335058D01*
X109331924Y-87334182D01*
X109336097Y-87334694D01*
X109350343Y-87333500D01*
X109961082Y-87333500D01*
X110039402Y-87346137D01*
X110195574Y-87397887D01*
X110299455Y-87408500D01*
X111700544Y-87408499D01*
X111804426Y-87397887D01*
X111972738Y-87342115D01*
X112123652Y-87249030D01*
X112249030Y-87123652D01*
X112342115Y-86972738D01*
X112397887Y-86804426D01*
X112397887Y-86804420D01*
X112399014Y-86799159D01*
X112401682Y-86792970D01*
X112402163Y-86791522D01*
X112402289Y-86791563D01*
X112437490Y-86709948D01*
X112507177Y-86642251D01*
X112597466Y-86606376D01*
X112694611Y-86607784D01*
X112783822Y-86646260D01*
X112851519Y-86715947D01*
X112887394Y-86806236D01*
X112891500Y-86851269D01*
X112891500Y-87150541D01*
X112902113Y-87254426D01*
X112957885Y-87422738D01*
X112957887Y-87422743D01*
X113050967Y-87573648D01*
X113050969Y-87573650D01*
X113050970Y-87573652D01*
X113176348Y-87699030D01*
X113176350Y-87699031D01*
X113176351Y-87699032D01*
X113327256Y-87792112D01*
X113327259Y-87792113D01*
X113327262Y-87792115D01*
X113495574Y-87847887D01*
X113599455Y-87858500D01*
X116600544Y-87858499D01*
X116704426Y-87847887D01*
X116872738Y-87792115D01*
X116969281Y-87732565D01*
X117060331Y-87698674D01*
X117157422Y-87702205D01*
X117230717Y-87732565D01*
X117327262Y-87792115D01*
X117495574Y-87847887D01*
X117599455Y-87858500D01*
X120600544Y-87858499D01*
X120704426Y-87847887D01*
X120872738Y-87792115D01*
X120872741Y-87792112D01*
X120882269Y-87787671D01*
X120976639Y-87764579D01*
X121072664Y-87779359D01*
X121155722Y-87829760D01*
X121213171Y-87908111D01*
X121236263Y-88002481D01*
X121236500Y-88013342D01*
X121236500Y-95840614D01*
X121248236Y-95949773D01*
X121248236Y-95949774D01*
X121259439Y-96001270D01*
X121259442Y-96001279D01*
X121274801Y-96047426D01*
X121278757Y-96059309D01*
X121291500Y-96137945D01*
X121291500Y-96250500D01*
X121272546Y-96345788D01*
X121218570Y-96426570D01*
X121137788Y-96480546D01*
X121042500Y-96499500D01*
X96311142Y-96499500D01*
X96215854Y-96480546D01*
X96135072Y-96426570D01*
X96081096Y-96345788D01*
X96062142Y-96250500D01*
X96081096Y-96155212D01*
X96135072Y-96074430D01*
X96215854Y-96020454D01*
X96255731Y-96007743D01*
X96359681Y-95984018D01*
X96688379Y-95869002D01*
X97002133Y-95717906D01*
X97296997Y-95532630D01*
X97569263Y-95315506D01*
X97815506Y-95069263D01*
X98032630Y-94796997D01*
X98217906Y-94502133D01*
X98369002Y-94188379D01*
X98484018Y-93859681D01*
X98561509Y-93520171D01*
X98600500Y-93174120D01*
X98600500Y-92825880D01*
X98561509Y-92479829D01*
X98484018Y-92140319D01*
X98400988Y-91903034D01*
X98369004Y-91811626D01*
X98359161Y-91791187D01*
X98217906Y-91497867D01*
X98032630Y-91203003D01*
X97815506Y-90930737D01*
X97569263Y-90684494D01*
X97334323Y-90497136D01*
X97296996Y-90467369D01*
X97002143Y-90282100D01*
X97002139Y-90282098D01*
X97002133Y-90282094D01*
X97002123Y-90282089D01*
X97002119Y-90282087D01*
X96688373Y-90130995D01*
X96451659Y-90048166D01*
X96359681Y-90015982D01*
X96359683Y-90015982D01*
X96020172Y-89938491D01*
X95674132Y-89899500D01*
X95674120Y-89899500D01*
X95325880Y-89899500D01*
X95325867Y-89899500D01*
X94979827Y-89938491D01*
X94640318Y-90015982D01*
X94311626Y-90130995D01*
X93997880Y-90282087D01*
X93997856Y-90282100D01*
X93703003Y-90467369D01*
X93430740Y-90684491D01*
X93184491Y-90930740D01*
X92967369Y-91203003D01*
X92782100Y-91497856D01*
X92782087Y-91497880D01*
X92630995Y-91811626D01*
X92516712Y-92138234D01*
X92515982Y-92140319D01*
X92501977Y-92201681D01*
X92492257Y-92244266D01*
X92452574Y-92332947D01*
X92381975Y-92399692D01*
X92291208Y-92434339D01*
X92194091Y-92431614D01*
X92105410Y-92391931D01*
X92038665Y-92321332D01*
X92004018Y-92230565D01*
X92000500Y-92188857D01*
X92000500Y-79303144D01*
X92591500Y-79303144D01*
X92591500Y-79696855D01*
X92625811Y-80089023D01*
X92625814Y-80089052D01*
X92694173Y-80476734D01*
X92694180Y-80476767D01*
X92796072Y-80857031D01*
X92930719Y-81226968D01*
X92930725Y-81226983D01*
X93097096Y-81583766D01*
X93097112Y-81583795D01*
X93293938Y-81924709D01*
X93293944Y-81924718D01*
X93293947Y-81924723D01*
X93519759Y-82247216D01*
X93772819Y-82548800D01*
X94051200Y-82827181D01*
X94352784Y-83080241D01*
X94675277Y-83306053D01*
X94675284Y-83306057D01*
X94675290Y-83306061D01*
X94870706Y-83418884D01*
X95016223Y-83502898D01*
X95016229Y-83502900D01*
X95016233Y-83502903D01*
X95373016Y-83669274D01*
X95373024Y-83669277D01*
X95373028Y-83669279D01*
X95373031Y-83669280D01*
X95742968Y-83803927D01*
X96123232Y-83905819D01*
X96123238Y-83905820D01*
X96123252Y-83905824D01*
X96244159Y-83927143D01*
X96510947Y-83974185D01*
X96510955Y-83974185D01*
X96510962Y-83974187D01*
X96903155Y-84008500D01*
X97296845Y-84008500D01*
X97689038Y-83974187D01*
X97689045Y-83974185D01*
X97689052Y-83974185D01*
X97882893Y-83940005D01*
X98076748Y-83905824D01*
X98457024Y-83803929D01*
X98457025Y-83803928D01*
X98457031Y-83803927D01*
X98658937Y-83730438D01*
X98826972Y-83669279D01*
X99183777Y-83502898D01*
X99524723Y-83306053D01*
X99847216Y-83080241D01*
X100148800Y-82827181D01*
X100427181Y-82548800D01*
X100680241Y-82247216D01*
X100906053Y-81924723D01*
X101102898Y-81583777D01*
X101226678Y-81318330D01*
X101269274Y-81226983D01*
X101269274Y-81226981D01*
X101269279Y-81226972D01*
X101403147Y-80859173D01*
X101403927Y-80857031D01*
X101505819Y-80476767D01*
X101505819Y-80476765D01*
X101505824Y-80476748D01*
X101574187Y-80089038D01*
X101608500Y-79696845D01*
X101608500Y-79303155D01*
X101574187Y-78910962D01*
X101574185Y-78910955D01*
X101574185Y-78910947D01*
X101505826Y-78523265D01*
X101505824Y-78523252D01*
X101403929Y-78142976D01*
X101306894Y-77876375D01*
X101298399Y-77847826D01*
X101296136Y-77838134D01*
X100277077Y-73472986D01*
X99765019Y-71279579D01*
X99758499Y-71222971D01*
X99758499Y-69150458D01*
X99758499Y-69150454D01*
X99743908Y-69002299D01*
X99738660Y-68985000D01*
X99720093Y-68923793D01*
X99686241Y-68812196D01*
X99592595Y-68636996D01*
X99575774Y-68616500D01*
X99466574Y-68483439D01*
X99466572Y-68483437D01*
X99466568Y-68483432D01*
X99466562Y-68483427D01*
X99466560Y-68483425D01*
X99313006Y-68357406D01*
X99137802Y-68263758D01*
X98947700Y-68206091D01*
X98826112Y-68194116D01*
X98799547Y-68191500D01*
X98799545Y-68191500D01*
X96200458Y-68191500D01*
X96200451Y-68191501D01*
X96052301Y-68206091D01*
X96052295Y-68206092D01*
X95862197Y-68263758D01*
X95686993Y-68357406D01*
X95533439Y-68483425D01*
X95533425Y-68483439D01*
X95407406Y-68636993D01*
X95313758Y-68812197D01*
X95256091Y-69002299D01*
X95241500Y-69150452D01*
X95241500Y-70460373D01*
X95229794Y-70535821D01*
X92916456Y-77811598D01*
X92913146Y-77821312D01*
X92796070Y-78142978D01*
X92694180Y-78523232D01*
X92694173Y-78523265D01*
X92625814Y-78910947D01*
X92625811Y-78910976D01*
X92591500Y-79303144D01*
X92000500Y-79303144D01*
X92000500Y-65666233D01*
X95899500Y-65666233D01*
X95899500Y-65833767D01*
X95927578Y-65974924D01*
X95932185Y-65998086D01*
X95992773Y-66144356D01*
X95996297Y-66152863D01*
X96026153Y-66197546D01*
X96081076Y-66279744D01*
X96089374Y-66292162D01*
X96207838Y-66410626D01*
X96347137Y-66503703D01*
X96501918Y-66567816D01*
X96666233Y-66600500D01*
X96666235Y-66600500D01*
X96833765Y-66600500D01*
X96833767Y-66600500D01*
X96998082Y-66567816D01*
X97152863Y-66503703D01*
X97292162Y-66410626D01*
X97410626Y-66292162D01*
X97503703Y-66152863D01*
X97567816Y-65998082D01*
X97600500Y-65833767D01*
X97600500Y-65666233D01*
X97567816Y-65501918D01*
X97503703Y-65347137D01*
X97410626Y-65207838D01*
X97292162Y-65089374D01*
X97280554Y-65081618D01*
X97157592Y-64999457D01*
X97152863Y-64996297D01*
X97152860Y-64996296D01*
X97152859Y-64996295D01*
X96998086Y-64932185D01*
X96998082Y-64932184D01*
X96833767Y-64899500D01*
X96666233Y-64899500D01*
X96501918Y-64932184D01*
X96501913Y-64932185D01*
X96347140Y-64996295D01*
X96347135Y-64996298D01*
X96207841Y-65089371D01*
X96089371Y-65207841D01*
X95996298Y-65347135D01*
X95996295Y-65347140D01*
X95932185Y-65501913D01*
X95932184Y-65501917D01*
X95932184Y-65501918D01*
X95899500Y-65666233D01*
X92000500Y-65666233D01*
X92000500Y-61811142D01*
X92019454Y-61715854D01*
X92073430Y-61635072D01*
X92154212Y-61581096D01*
X92249500Y-61562142D01*
X92344788Y-61581096D01*
X92425570Y-61635072D01*
X92479546Y-61715854D01*
X92492256Y-61755731D01*
X92502236Y-61799455D01*
X92515982Y-61859681D01*
X92630995Y-62188373D01*
X92739410Y-62413500D01*
X92782094Y-62502133D01*
X92782098Y-62502139D01*
X92782100Y-62502143D01*
X92967369Y-62796996D01*
X93001162Y-62839371D01*
X93184494Y-63069263D01*
X93430737Y-63315506D01*
X93703003Y-63532630D01*
X93997867Y-63717906D01*
X94311621Y-63869002D01*
X94311624Y-63869003D01*
X94311626Y-63869004D01*
X94343886Y-63880292D01*
X94640319Y-63984018D01*
X94979829Y-64061509D01*
X95196106Y-64085877D01*
X95325867Y-64100499D01*
X95325880Y-64100500D01*
X95674120Y-64100500D01*
X95674132Y-64100499D01*
X95772434Y-64089422D01*
X96020171Y-64061509D01*
X96359681Y-63984018D01*
X96688379Y-63869002D01*
X97002133Y-63717906D01*
X97296997Y-63532630D01*
X97569263Y-63315506D01*
X97815506Y-63069263D01*
X98032630Y-62796997D01*
X98217906Y-62502133D01*
X98369002Y-62188379D01*
X98484018Y-61859681D01*
X98561509Y-61520171D01*
X98596133Y-61212881D01*
X98600499Y-61174132D01*
X98600500Y-61174119D01*
X98600500Y-60825880D01*
X98600499Y-60825867D01*
X98570304Y-60557887D01*
X98561509Y-60479829D01*
X98484018Y-60140319D01*
X98391650Y-59876346D01*
X98369004Y-59811626D01*
X98364449Y-59802168D01*
X98217906Y-59497867D01*
X98032630Y-59203003D01*
X97815506Y-58930737D01*
X97569263Y-58684494D01*
X97296997Y-58467370D01*
X97296998Y-58467370D01*
X97296996Y-58467369D01*
X97002143Y-58282100D01*
X97002139Y-58282098D01*
X97002133Y-58282094D01*
X97002123Y-58282089D01*
X97002119Y-58282087D01*
X96688373Y-58130995D01*
X96451659Y-58048166D01*
X96359681Y-58015982D01*
X96359683Y-58015982D01*
X96291767Y-58000481D01*
X96255732Y-57992256D01*
X96167052Y-57952574D01*
X96100307Y-57881976D01*
X96065660Y-57791209D01*
X96068385Y-57694092D01*
X96108068Y-57605410D01*
X96178666Y-57538665D01*
X96269433Y-57504018D01*
X96311142Y-57500500D01*
X151688858Y-57500500D01*
X151784146Y-57519454D01*
G37*
%TD.AperFunction*%
%TA.AperFunction,Conductor*%
G36*
X127215326Y-64327454D02*
G01*
X127296108Y-64381430D01*
X127350084Y-64462212D01*
X127369038Y-64557500D01*
X127350084Y-64652788D01*
X127331967Y-64688218D01*
X127307886Y-64727258D01*
X127307885Y-64727261D01*
X127252113Y-64895572D01*
X127241500Y-64999452D01*
X127241500Y-65900541D01*
X127252113Y-66004426D01*
X127307885Y-66172738D01*
X127307887Y-66172743D01*
X127400967Y-66323648D01*
X127400969Y-66323650D01*
X127400970Y-66323652D01*
X127526348Y-66449030D01*
X127589645Y-66488072D01*
X127660795Y-66554228D01*
X127701213Y-66642577D01*
X127704745Y-66739668D01*
X127670853Y-66830720D01*
X127604697Y-66901870D01*
X127589645Y-66911928D01*
X127526347Y-66950970D01*
X127400971Y-67076346D01*
X127400967Y-67076351D01*
X127307887Y-67227256D01*
X127307885Y-67227261D01*
X127252113Y-67395572D01*
X127241500Y-67499452D01*
X127241500Y-68400541D01*
X127252113Y-68504426D01*
X127307885Y-68672738D01*
X127307887Y-68672743D01*
X127400967Y-68823648D01*
X127400969Y-68823650D01*
X127400970Y-68823652D01*
X127526348Y-68949030D01*
X127526350Y-68949031D01*
X127526351Y-68949032D01*
X127677256Y-69042112D01*
X127677259Y-69042113D01*
X127677262Y-69042115D01*
X127845574Y-69097887D01*
X127949455Y-69108500D01*
X127967975Y-69108499D01*
X128063261Y-69127449D01*
X128063271Y-69127453D01*
X128069660Y-69130099D01*
X128069664Y-69130102D01*
X128235000Y-69198587D01*
X128410521Y-69233500D01*
X128410523Y-69233500D01*
X128589477Y-69233500D01*
X128589479Y-69233500D01*
X128765000Y-69198587D01*
X128930336Y-69130102D01*
X128930339Y-69130099D01*
X128936729Y-69127453D01*
X129032017Y-69108499D01*
X129150534Y-69108499D01*
X129150544Y-69108499D01*
X129254426Y-69097887D01*
X129422738Y-69042115D01*
X129573652Y-68949030D01*
X129699030Y-68823652D01*
X129792115Y-68672738D01*
X129847887Y-68504426D01*
X129858500Y-68400545D01*
X129858499Y-68080426D01*
X129877453Y-67985142D01*
X129931429Y-67904360D01*
X130012210Y-67850383D01*
X130107498Y-67831429D01*
X130202786Y-67850383D01*
X130283568Y-67904359D01*
X130298853Y-67921535D01*
X130300970Y-67923652D01*
X130426348Y-68049030D01*
X130426350Y-68049031D01*
X130426351Y-68049032D01*
X130577256Y-68142112D01*
X130577259Y-68142113D01*
X130577262Y-68142115D01*
X130745574Y-68197887D01*
X130849455Y-68208500D01*
X131044457Y-68208499D01*
X131139742Y-68227453D01*
X131220524Y-68281429D01*
X131274501Y-68362210D01*
X131293455Y-68457498D01*
X131274501Y-68552786D01*
X131220525Y-68633568D01*
X129921167Y-69932928D01*
X129832930Y-70021165D01*
X129832928Y-70021168D01*
X129763600Y-70124924D01*
X129763597Y-70124929D01*
X129715844Y-70240215D01*
X129715844Y-70240217D01*
X129711057Y-70264284D01*
X129673877Y-70354043D01*
X129605178Y-70422742D01*
X129515418Y-70459921D01*
X129418263Y-70459920D01*
X129328504Y-70422740D01*
X129316082Y-70413745D01*
X129315156Y-70413185D01*
X129315155Y-70413184D01*
X129167913Y-70324173D01*
X129003649Y-70272987D01*
X129003641Y-70272985D01*
X128932269Y-70266500D01*
X128417731Y-70266500D01*
X128346352Y-70272986D01*
X128182085Y-70324173D01*
X128034846Y-70413183D01*
X127913183Y-70534846D01*
X127824173Y-70682086D01*
X127772987Y-70846350D01*
X127772985Y-70846358D01*
X127766500Y-70917720D01*
X127766500Y-71582268D01*
X127772986Y-71653647D01*
X127824173Y-71817913D01*
X127856376Y-71871183D01*
X127889451Y-71962535D01*
X127885050Y-72059590D01*
X127856376Y-72128817D01*
X127824172Y-72182087D01*
X127772987Y-72346350D01*
X127772985Y-72346358D01*
X127766500Y-72417720D01*
X127766500Y-73082268D01*
X127772986Y-73153649D01*
X127775558Y-73166578D01*
X127772327Y-73167220D01*
X127780050Y-73240056D01*
X127752542Y-73333235D01*
X127691470Y-73408795D01*
X127606132Y-73455232D01*
X127532078Y-73466500D01*
X127467732Y-73466500D01*
X127396352Y-73472986D01*
X127232084Y-73524174D01*
X127232083Y-73524174D01*
X127157833Y-73569060D01*
X127126972Y-73580233D01*
X127097801Y-73595281D01*
X127081684Y-73596630D01*
X127066481Y-73602135D01*
X127033694Y-73600648D01*
X127000984Y-73603387D01*
X126985579Y-73598466D01*
X126969426Y-73597734D01*
X126939704Y-73583813D01*
X126908436Y-73573826D01*
X126898843Y-73564675D01*
X126881443Y-73556526D01*
X126834245Y-73511098D01*
X126824934Y-73499408D01*
X126749030Y-73376348D01*
X126640413Y-73267731D01*
X126631652Y-73256731D01*
X126615706Y-73225818D01*
X126596378Y-73196892D01*
X126593611Y-73182985D01*
X126587113Y-73170387D01*
X126584210Y-73135723D01*
X126577424Y-73101604D01*
X126579885Y-73084056D01*
X126579007Y-73073570D01*
X126583194Y-73060459D01*
X126587031Y-73033106D01*
X126587650Y-73030945D01*
X126591761Y-73016574D01*
X126606145Y-72988606D01*
X126608568Y-72981022D01*
X126612341Y-72976558D01*
X126636196Y-72930177D01*
X126710312Y-72867360D01*
X126752835Y-72848710D01*
X126772738Y-72842115D01*
X126923652Y-72749030D01*
X127049030Y-72623652D01*
X127142115Y-72472738D01*
X127197887Y-72304426D01*
X127208500Y-72200545D01*
X127208499Y-70799456D01*
X127197887Y-70695574D01*
X127142115Y-70527262D01*
X127142113Y-70527259D01*
X127142112Y-70527256D01*
X127049032Y-70376351D01*
X127049028Y-70376346D01*
X126923653Y-70250971D01*
X126923648Y-70250967D01*
X126772743Y-70157887D01*
X126772738Y-70157885D01*
X126604427Y-70102113D01*
X126500547Y-70091500D01*
X126500545Y-70091500D01*
X124905543Y-70091500D01*
X124810255Y-70072546D01*
X124729473Y-70018570D01*
X124675497Y-69937788D01*
X124656543Y-69842500D01*
X124675497Y-69747212D01*
X124729473Y-69666431D01*
X125181632Y-69214271D01*
X125188238Y-69207665D01*
X125218309Y-69181800D01*
X125247183Y-69148720D01*
X125419124Y-68976778D01*
X125480502Y-68934414D01*
X125480022Y-68933619D01*
X125492909Y-68925828D01*
X125492913Y-68925827D01*
X125640155Y-68836816D01*
X125761816Y-68715155D01*
X125850827Y-68567913D01*
X125902013Y-68403649D01*
X125902296Y-68400541D01*
X125908499Y-68332279D01*
X125908499Y-68332276D01*
X125908500Y-68332265D01*
X125908499Y-67667736D01*
X125902013Y-67596351D01*
X125850827Y-67432087D01*
X125848102Y-67427580D01*
X125824999Y-67389363D01*
X125761816Y-67284845D01*
X125640155Y-67163184D01*
X125492913Y-67074173D01*
X125328649Y-67022987D01*
X125328641Y-67022985D01*
X125257269Y-67016500D01*
X124742731Y-67016500D01*
X124671352Y-67022986D01*
X124507085Y-67074173D01*
X124359842Y-67163185D01*
X124351065Y-67171963D01*
X124270282Y-67225937D01*
X124174994Y-67244889D01*
X124079706Y-67225933D01*
X123998935Y-67171963D01*
X123990157Y-67163185D01*
X123842913Y-67074173D01*
X123678649Y-67022987D01*
X123678641Y-67022985D01*
X123607279Y-67016500D01*
X123607265Y-67016500D01*
X123442443Y-67016500D01*
X123424751Y-67015871D01*
X123423531Y-67015784D01*
X123394174Y-67013389D01*
X123391883Y-67013529D01*
X123381610Y-67012798D01*
X123341948Y-67001929D01*
X123301702Y-66993502D01*
X123299095Y-66992373D01*
X123289839Y-66988304D01*
X123252288Y-66967780D01*
X123184548Y-66922791D01*
X123157419Y-66901952D01*
X123148240Y-66893840D01*
X123132372Y-66879817D01*
X123105450Y-66857795D01*
X123087039Y-66841135D01*
X122606430Y-66360525D01*
X122552454Y-66279744D01*
X122533500Y-66184456D01*
X122533500Y-64816006D01*
X122552454Y-64720718D01*
X122606430Y-64639936D01*
X122687212Y-64585960D01*
X122782500Y-64567006D01*
X122877788Y-64585960D01*
X122913208Y-64604072D01*
X122937899Y-64619302D01*
X123100664Y-64673236D01*
X123201128Y-64683500D01*
X123201136Y-64683500D01*
X123798864Y-64683500D01*
X123798872Y-64683500D01*
X123899336Y-64673236D01*
X124062101Y-64619302D01*
X124194208Y-64537816D01*
X124285256Y-64503926D01*
X124382346Y-64507458D01*
X124470695Y-64547875D01*
X124500994Y-64573676D01*
X124526348Y-64599030D01*
X124526350Y-64599031D01*
X124526351Y-64599032D01*
X124677256Y-64692112D01*
X124677259Y-64692113D01*
X124677262Y-64692115D01*
X124845574Y-64747887D01*
X124949455Y-64758500D01*
X125550544Y-64758499D01*
X125654426Y-64747887D01*
X125822738Y-64692115D01*
X125973652Y-64599030D01*
X126099030Y-64473652D01*
X126127939Y-64426783D01*
X126194094Y-64355631D01*
X126282442Y-64315212D01*
X126339868Y-64308500D01*
X127120038Y-64308500D01*
X127215326Y-64327454D01*
G37*
%TD.AperFunction*%
%TA.AperFunction,Conductor*%
G36*
X114317788Y-59652454D02*
G01*
X114398570Y-59706430D01*
X114452546Y-59787212D01*
X114471500Y-59882500D01*
X114471500Y-60978377D01*
X114471210Y-60980358D01*
X114470970Y-60984228D01*
X114471500Y-60991308D01*
X114471500Y-62598642D01*
X114478011Y-62659201D01*
X114478011Y-62659205D01*
X114529110Y-62796203D01*
X114607538Y-62900970D01*
X114616739Y-62913261D01*
X114635632Y-62927404D01*
X114733796Y-63000889D01*
X114838124Y-63039802D01*
X114870799Y-63051989D01*
X114931362Y-63058500D01*
X114931365Y-63058500D01*
X116028635Y-63058500D01*
X116028638Y-63058500D01*
X116089201Y-63051989D01*
X116089204Y-63051988D01*
X116089205Y-63051988D01*
X116170494Y-63021668D01*
X116226204Y-63000889D01*
X116343261Y-62913261D01*
X116430889Y-62796204D01*
X116464402Y-62706354D01*
X116481988Y-62659205D01*
X116481988Y-62659203D01*
X116481989Y-62659201D01*
X116488500Y-62598638D01*
X116488500Y-61042277D01*
X116488998Y-61037461D01*
X116488500Y-61032137D01*
X116488500Y-59882500D01*
X116507454Y-59787212D01*
X116561430Y-59706430D01*
X116642212Y-59652454D01*
X116737500Y-59633500D01*
X116762500Y-59633500D01*
X116857788Y-59652454D01*
X116938570Y-59706430D01*
X116992546Y-59787212D01*
X117011500Y-59882500D01*
X117011500Y-62598642D01*
X117018011Y-62659201D01*
X117018011Y-62659205D01*
X117069110Y-62796203D01*
X117147538Y-62900970D01*
X117156739Y-62913261D01*
X117175632Y-62927404D01*
X117273796Y-63000889D01*
X117378124Y-63039802D01*
X117410799Y-63051989D01*
X117471362Y-63058500D01*
X117559456Y-63058500D01*
X117654744Y-63077454D01*
X117735526Y-63131430D01*
X117844237Y-63240141D01*
X117850227Y-63246343D01*
X117931470Y-63333417D01*
X117938114Y-63340404D01*
X117938145Y-63340436D01*
X117938427Y-63340727D01*
X117984970Y-63383200D01*
X117984973Y-63383201D01*
X117994370Y-63391777D01*
X117994249Y-63391908D01*
X118006978Y-63402882D01*
X118696167Y-64092072D01*
X118747194Y-64126167D01*
X118799923Y-64161400D01*
X118799925Y-64161401D01*
X118861385Y-64186858D01*
X118881444Y-64195167D01*
X118881447Y-64195168D01*
X118915215Y-64209155D01*
X119037606Y-64233500D01*
X119037607Y-64233500D01*
X119162394Y-64233500D01*
X120534456Y-64233500D01*
X120629744Y-64252454D01*
X120710526Y-64306430D01*
X121193570Y-64789474D01*
X121247546Y-64870256D01*
X121266500Y-64965544D01*
X121266500Y-66487606D01*
X121266500Y-66612394D01*
X121290845Y-66734785D01*
X121290846Y-66734787D01*
X121338597Y-66850070D01*
X121338600Y-66850075D01*
X121387187Y-66922791D01*
X121407928Y-66953831D01*
X121407929Y-66953833D01*
X122190023Y-67735928D01*
X122206925Y-67754635D01*
X122215074Y-67764628D01*
X122217264Y-67768241D01*
X122319865Y-67893133D01*
X122320235Y-67893586D01*
X122320416Y-67893928D01*
X122337533Y-67917578D01*
X122361595Y-67955514D01*
X122372946Y-67975372D01*
X122399146Y-68026525D01*
X122409497Y-68049538D01*
X122416739Y-68068101D01*
X122433052Y-68139749D01*
X122436752Y-68188487D01*
X122436753Y-68188493D01*
X122438537Y-68199954D01*
X122441500Y-68238250D01*
X122441500Y-68332268D01*
X122447986Y-68403647D01*
X122499173Y-68567914D01*
X122528545Y-68616500D01*
X122588184Y-68715155D01*
X122709845Y-68836816D01*
X122857087Y-68925827D01*
X123021351Y-68977013D01*
X123021355Y-68977013D01*
X123021358Y-68977014D01*
X123047152Y-68979358D01*
X123140334Y-69006857D01*
X123215899Y-69067923D01*
X123262343Y-69153258D01*
X123272596Y-69249870D01*
X123245097Y-69343052D01*
X123200688Y-69403406D01*
X121335524Y-71268570D01*
X121254742Y-71322546D01*
X121159454Y-71341500D01*
X118599457Y-71341500D01*
X118495573Y-71352113D01*
X118327261Y-71407885D01*
X118327259Y-71407886D01*
X118317286Y-71414038D01*
X118298510Y-71421026D01*
X118281853Y-71432157D01*
X118253412Y-71437814D01*
X118226234Y-71447931D01*
X118186565Y-71451111D01*
X118013435Y-71451111D01*
X117918147Y-71432157D01*
X117882714Y-71414038D01*
X117872740Y-71407886D01*
X117872738Y-71407885D01*
X117704427Y-71352113D01*
X117678455Y-71349459D01*
X117600545Y-71341500D01*
X117600542Y-71341500D01*
X114599457Y-71341500D01*
X114495573Y-71352113D01*
X114327261Y-71407885D01*
X114327259Y-71407886D01*
X114317286Y-71414038D01*
X114298510Y-71421026D01*
X114281853Y-71432157D01*
X114253412Y-71437814D01*
X114226234Y-71447931D01*
X114186565Y-71451111D01*
X114013435Y-71451111D01*
X113918147Y-71432157D01*
X113882714Y-71414038D01*
X113872740Y-71407886D01*
X113872738Y-71407885D01*
X113704427Y-71352113D01*
X113600547Y-71341500D01*
X110654000Y-71341500D01*
X110558712Y-71322546D01*
X110477930Y-71268570D01*
X110423954Y-71187788D01*
X110405000Y-71092500D01*
X110405000Y-70434152D01*
X110405000Y-70400609D01*
X110406645Y-70384505D01*
X110409054Y-70348308D01*
X110409599Y-70330808D01*
X110409447Y-70294534D01*
X110382947Y-70150799D01*
X110360629Y-70084590D01*
X110360628Y-70084589D01*
X110294706Y-69954142D01*
X109893188Y-69380544D01*
X109800234Y-69247752D01*
X109761118Y-69158819D01*
X109756422Y-69129365D01*
X109744357Y-69006857D01*
X109743908Y-69002299D01*
X109738660Y-68985000D01*
X109720093Y-68923793D01*
X109686241Y-68812196D01*
X109592595Y-68636996D01*
X109575774Y-68616500D01*
X109466574Y-68483439D01*
X109466572Y-68483437D01*
X109466568Y-68483432D01*
X109466562Y-68483427D01*
X109466560Y-68483425D01*
X109313006Y-68357406D01*
X109137802Y-68263758D01*
X108955563Y-68208477D01*
X108944669Y-68202654D01*
X108932556Y-68200245D01*
X108902141Y-68179922D01*
X108869880Y-68162679D01*
X108862044Y-68153131D01*
X108851774Y-68146269D01*
X108831449Y-68115851D01*
X108808246Y-68087577D01*
X108804660Y-68075757D01*
X108797798Y-68065487D01*
X108790661Y-68029608D01*
X108780043Y-67994605D01*
X108781253Y-67982313D01*
X108778844Y-67970199D01*
X108785980Y-67934321D01*
X108789566Y-67897918D01*
X108795388Y-67887024D01*
X108797798Y-67874911D01*
X108818120Y-67844496D01*
X108835364Y-67812235D01*
X108851764Y-67794139D01*
X109164350Y-67481553D01*
X109245129Y-67427580D01*
X109340417Y-67408626D01*
X109416928Y-67423845D01*
X109417707Y-67421346D01*
X109432086Y-67425826D01*
X109432087Y-67425827D01*
X109596351Y-67477013D01*
X109596355Y-67477013D01*
X109596358Y-67477014D01*
X109624912Y-67479608D01*
X109667735Y-67483500D01*
X110332264Y-67483499D01*
X110332268Y-67483499D01*
X110379854Y-67479175D01*
X110403649Y-67477013D01*
X110567913Y-67425827D01*
X110715155Y-67336816D01*
X110836816Y-67215155D01*
X110925827Y-67067913D01*
X110977013Y-66903649D01*
X110983500Y-66832265D01*
X110983499Y-66317736D01*
X110981175Y-66292162D01*
X110977013Y-66246352D01*
X110976862Y-66245868D01*
X110925827Y-66082087D01*
X110836816Y-65934845D01*
X110828037Y-65926066D01*
X110774064Y-65845288D01*
X110755110Y-65750000D01*
X110774064Y-65654712D01*
X110828037Y-65573933D01*
X110836816Y-65565155D01*
X110925827Y-65417913D01*
X110977013Y-65253649D01*
X110981529Y-65203953D01*
X110986413Y-65187401D01*
X110986964Y-65170147D01*
X111000044Y-65141214D01*
X111009028Y-65110772D01*
X111026981Y-65081626D01*
X111061139Y-65033875D01*
X111079791Y-65010837D01*
X111213672Y-64864276D01*
X111241535Y-64831059D01*
X111241535Y-64831057D01*
X111243333Y-64828915D01*
X111258026Y-64812876D01*
X111742072Y-64328833D01*
X111811401Y-64225075D01*
X111850063Y-64131735D01*
X111859155Y-64109785D01*
X111883500Y-63987394D01*
X111883500Y-63243783D01*
X111902454Y-63148495D01*
X111956430Y-63067713D01*
X112037212Y-63013737D01*
X112132500Y-62994783D01*
X112219518Y-63010483D01*
X112330799Y-63051989D01*
X112391362Y-63058500D01*
X112391365Y-63058500D01*
X113488635Y-63058500D01*
X113488638Y-63058500D01*
X113549201Y-63051989D01*
X113549204Y-63051988D01*
X113549205Y-63051988D01*
X113630494Y-63021668D01*
X113686204Y-63000889D01*
X113803261Y-62913261D01*
X113890889Y-62796204D01*
X113924402Y-62706354D01*
X113941988Y-62659205D01*
X113941988Y-62659203D01*
X113941989Y-62659201D01*
X113948500Y-62598638D01*
X113948500Y-59882500D01*
X113967454Y-59787212D01*
X114021430Y-59706430D01*
X114102212Y-59652454D01*
X114197500Y-59633500D01*
X114222500Y-59633500D01*
X114317788Y-59652454D01*
G37*
%TD.AperFunction*%
%TD*%
%TA.AperFunction,Conductor*%
%TO.N,GND*%
G36*
X135726000Y-67500000D02*
G01*
X135646964Y-67892314D01*
X135534109Y-67862749D01*
X135446126Y-67826722D01*
X135315101Y-67746318D01*
X135225686Y-67688882D01*
X135106938Y-67642999D01*
X135028742Y-67629750D01*
X134932686Y-67625000D01*
X134932686Y-67375000D01*
X135067046Y-67365061D01*
X135167119Y-67338385D01*
X135245578Y-67299688D01*
X135315100Y-67253682D01*
X135349996Y-67229730D01*
X135477563Y-67158803D01*
X135553693Y-67130965D01*
X135646964Y-67107686D01*
X135726000Y-67500000D01*
G37*
%TD.AperFunction*%
%TD*%
%TA.AperFunction,Conductor*%
%TO.N,/Offset*%
G36*
X125600314Y-63282596D02*
G01*
X125603392Y-63285883D01*
X125631407Y-63330673D01*
X125631410Y-63330677D01*
X125650298Y-63350108D01*
X125672759Y-63373217D01*
X125672762Y-63373219D01*
X125740644Y-63421164D01*
X125820143Y-63460890D01*
X125934356Y-63501139D01*
X125934364Y-63501141D01*
X125934363Y-63501141D01*
X126050701Y-63528822D01*
X126050714Y-63528825D01*
X126239536Y-63548888D01*
X126247401Y-63553170D01*
X126250000Y-63560523D01*
X126250000Y-63788949D01*
X126246573Y-63797222D01*
X126238967Y-63800630D01*
X126200894Y-63802804D01*
X126200887Y-63802805D01*
X126119190Y-63816972D01*
X126030226Y-63842877D01*
X126030220Y-63842880D01*
X125867091Y-63918020D01*
X125867089Y-63918021D01*
X125739753Y-64011823D01*
X125653243Y-64114960D01*
X125653242Y-64114961D01*
X125613070Y-64206390D01*
X125606604Y-64212585D01*
X125597651Y-64212395D01*
X125592998Y-64208703D01*
X125254161Y-63756882D01*
X125251939Y-63748207D01*
X125254030Y-63743021D01*
X125390870Y-63553170D01*
X125583983Y-63285244D01*
X125591599Y-63280538D01*
X125600314Y-63282596D01*
G37*
%TD.AperFunction*%
%TD*%
%TA.AperFunction,Conductor*%
%TO.N,/Offset*%
G36*
X128418936Y-63286974D02*
G01*
X128424264Y-63294171D01*
X128424382Y-63294693D01*
X128500534Y-63672689D01*
X128500534Y-63677311D01*
X128424411Y-64055166D01*
X128419417Y-64062599D01*
X128410630Y-64064325D01*
X128409976Y-64064173D01*
X128309858Y-64037945D01*
X128308389Y-64037454D01*
X128222002Y-64002080D01*
X128220317Y-64001225D01*
X128155977Y-63961743D01*
X128090164Y-63921357D01*
X128090041Y-63921279D01*
X128044441Y-63891988D01*
X128000690Y-63863884D01*
X128000688Y-63863883D01*
X128000686Y-63863882D01*
X127881938Y-63817999D01*
X127803742Y-63804750D01*
X127803737Y-63804749D01*
X127803733Y-63804749D01*
X127718808Y-63800549D01*
X127710714Y-63796717D01*
X127707686Y-63788863D01*
X127707686Y-63560866D01*
X127711113Y-63552593D01*
X127718522Y-63549198D01*
X127842046Y-63540061D01*
X127942119Y-63513385D01*
X127992372Y-63488599D01*
X128020569Y-63474693D01*
X128020572Y-63474691D01*
X128020572Y-63474690D01*
X128020578Y-63474688D01*
X128090100Y-63428682D01*
X128124558Y-63405030D01*
X128125454Y-63404475D01*
X128251765Y-63334246D01*
X128253425Y-63333487D01*
X128328122Y-63306173D01*
X128329272Y-63305820D01*
X128410079Y-63285652D01*
X128418936Y-63286974D01*
G37*
%TD.AperFunction*%
%TD*%
%TA.AperFunction,Conductor*%
%TO.N,/Offset*%
G36*
X125122954Y-62753427D02*
G01*
X125126289Y-62760239D01*
X125135422Y-62832811D01*
X125135422Y-62832812D01*
X125157378Y-62903344D01*
X125157378Y-62903345D01*
X125157380Y-62903350D01*
X125157382Y-62903355D01*
X125169539Y-62929802D01*
X125190919Y-62976314D01*
X125282554Y-63108685D01*
X125282555Y-63108686D01*
X125282556Y-63108687D01*
X125395456Y-63210994D01*
X125520621Y-63277847D01*
X125635281Y-63304097D01*
X125642580Y-63309284D01*
X125644074Y-63318113D01*
X125641300Y-63323401D01*
X125255972Y-63744473D01*
X125247859Y-63748263D01*
X125242092Y-63747030D01*
X124761968Y-63506008D01*
X124756112Y-63499234D01*
X124756761Y-63490303D01*
X124757552Y-63488959D01*
X124791260Y-63439681D01*
X124822266Y-63356809D01*
X124859375Y-63149407D01*
X124861910Y-63108685D01*
X124873047Y-62929811D01*
X124873047Y-62929794D01*
X124873334Y-62903344D01*
X124874874Y-62761572D01*
X124878390Y-62753338D01*
X124886573Y-62750000D01*
X125114681Y-62750000D01*
X125122954Y-62753427D01*
G37*
%TD.AperFunction*%
%TD*%
%TA.AperFunction,Conductor*%
%TO.N,/Offset*%
G36*
X125007747Y-62330844D02*
G01*
X125382877Y-62662265D01*
X125386808Y-62670311D01*
X125383898Y-62678780D01*
X125378405Y-62682265D01*
X125342020Y-62692874D01*
X125342012Y-62692878D01*
X125299003Y-62717247D01*
X125252154Y-62760029D01*
X125252151Y-62760032D01*
X125213326Y-62812969D01*
X125213325Y-62812971D01*
X125173652Y-62892583D01*
X125146324Y-62975955D01*
X125126437Y-63114957D01*
X125121873Y-63122661D01*
X125114855Y-63125000D01*
X124885459Y-63125000D01*
X124877186Y-63121573D01*
X124873832Y-63114606D01*
X124862593Y-63014547D01*
X124818310Y-62873563D01*
X124756232Y-62769905D01*
X124745033Y-62760032D01*
X124683631Y-62705901D01*
X124683629Y-62705900D01*
X124619072Y-62683894D01*
X124612347Y-62677981D01*
X124611773Y-62669045D01*
X124615100Y-62664052D01*
X124992253Y-62330844D01*
X125000722Y-62327934D01*
X125007747Y-62330844D01*
G37*
%TD.AperFunction*%
%TD*%
%TA.AperFunction,Conductor*%
%TO.N,/Offset*%
G36*
X125600314Y-63282596D02*
G01*
X125603392Y-63285883D01*
X125631407Y-63330673D01*
X125631410Y-63330677D01*
X125650298Y-63350108D01*
X125672759Y-63373217D01*
X125672762Y-63373219D01*
X125740644Y-63421164D01*
X125820143Y-63460890D01*
X125934356Y-63501139D01*
X125934364Y-63501141D01*
X125934363Y-63501141D01*
X126050701Y-63528822D01*
X126050714Y-63528825D01*
X126239536Y-63548888D01*
X126247401Y-63553170D01*
X126250000Y-63560523D01*
X126250000Y-63788949D01*
X126246573Y-63797222D01*
X126238967Y-63800630D01*
X126200894Y-63802804D01*
X126200887Y-63802805D01*
X126119190Y-63816972D01*
X126030226Y-63842877D01*
X126030220Y-63842880D01*
X125867091Y-63918020D01*
X125867089Y-63918021D01*
X125739753Y-64011823D01*
X125653243Y-64114960D01*
X125653242Y-64114961D01*
X125613070Y-64206390D01*
X125606604Y-64212585D01*
X125597651Y-64212395D01*
X125592998Y-64208703D01*
X125254161Y-63756882D01*
X125251939Y-63748207D01*
X125254030Y-63743021D01*
X125390870Y-63553170D01*
X125583983Y-63285244D01*
X125591599Y-63280538D01*
X125600314Y-63282596D01*
G37*
%TD.AperFunction*%
%TD*%
%TA.AperFunction,Conductor*%
%TO.N,/Offset*%
G36*
X128418936Y-63286974D02*
G01*
X128424264Y-63294171D01*
X128424382Y-63294693D01*
X128500534Y-63672689D01*
X128500534Y-63677311D01*
X128424411Y-64055166D01*
X128419417Y-64062599D01*
X128410630Y-64064325D01*
X128409976Y-64064173D01*
X128309858Y-64037945D01*
X128308389Y-64037454D01*
X128222002Y-64002080D01*
X128220317Y-64001225D01*
X128155977Y-63961743D01*
X128090164Y-63921357D01*
X128090041Y-63921279D01*
X128044441Y-63891988D01*
X128000690Y-63863884D01*
X128000688Y-63863883D01*
X128000686Y-63863882D01*
X127881938Y-63817999D01*
X127803742Y-63804750D01*
X127803737Y-63804749D01*
X127803733Y-63804749D01*
X127718808Y-63800549D01*
X127710714Y-63796717D01*
X127707686Y-63788863D01*
X127707686Y-63560866D01*
X127711113Y-63552593D01*
X127718522Y-63549198D01*
X127842046Y-63540061D01*
X127942119Y-63513385D01*
X127992372Y-63488599D01*
X128020569Y-63474693D01*
X128020572Y-63474691D01*
X128020572Y-63474690D01*
X128020578Y-63474688D01*
X128090100Y-63428682D01*
X128124558Y-63405030D01*
X128125454Y-63404475D01*
X128251765Y-63334246D01*
X128253425Y-63333487D01*
X128328122Y-63306173D01*
X128329272Y-63305820D01*
X128410079Y-63285652D01*
X128418936Y-63286974D01*
G37*
%TD.AperFunction*%
%TD*%
%TA.AperFunction,Conductor*%
%TO.N,/Offset*%
G36*
X124911286Y-63280547D02*
G01*
X124915054Y-63283910D01*
X125081984Y-63515508D01*
X125246069Y-63743159D01*
X125248127Y-63751874D01*
X125246069Y-63756841D01*
X124916034Y-64214729D01*
X124908417Y-64219437D01*
X124899702Y-64217379D01*
X124895924Y-64212800D01*
X124866522Y-64149236D01*
X124821648Y-64090685D01*
X124766393Y-64038468D01*
X124760801Y-64034517D01*
X124688572Y-63983496D01*
X124688564Y-63983491D01*
X124603101Y-63937940D01*
X124502979Y-63897945D01*
X124502976Y-63897944D01*
X124404585Y-63869965D01*
X124404586Y-63869965D01*
X124260201Y-63851317D01*
X124252435Y-63846858D01*
X124250000Y-63839713D01*
X124250000Y-63611504D01*
X124253427Y-63603231D01*
X124260102Y-63599914D01*
X124306457Y-63593524D01*
X124446708Y-63574192D01*
X124627661Y-63515508D01*
X124764645Y-63440331D01*
X124854737Y-63357505D01*
X124895360Y-63285031D01*
X124902393Y-63279491D01*
X124911286Y-63280547D01*
G37*
%TD.AperFunction*%
%TD*%
%TA.AperFunction,Conductor*%
%TO.N,/Offset*%
G36*
X123839847Y-63306363D02*
G01*
X123843566Y-63311362D01*
X123847060Y-63320368D01*
X123878263Y-63372592D01*
X123920085Y-63419017D01*
X123920087Y-63419019D01*
X123920086Y-63419019D01*
X123959650Y-63449874D01*
X123984940Y-63469599D01*
X124059408Y-63511448D01*
X124158732Y-63551577D01*
X124258755Y-63579339D01*
X124414743Y-63598725D01*
X124422530Y-63603146D01*
X124425000Y-63610336D01*
X124425000Y-63839584D01*
X124421573Y-63847857D01*
X124414654Y-63851205D01*
X124271741Y-63867860D01*
X124271736Y-63867861D01*
X124100973Y-63919977D01*
X123970126Y-63990473D01*
X123970125Y-63990473D01*
X123883639Y-64070418D01*
X123844636Y-64142175D01*
X123837674Y-64147807D01*
X123828768Y-64146867D01*
X123825127Y-64143778D01*
X123504597Y-63732188D01*
X123502218Y-63723556D01*
X123504597Y-63717812D01*
X123823427Y-63308404D01*
X123831214Y-63303983D01*
X123839847Y-63306363D01*
G37*
%TD.AperFunction*%
%TD*%
%TA.AperFunction,Conductor*%
%TO.N,+10V*%
G36*
X124550063Y-60436777D02*
G01*
X124781255Y-60558912D01*
X124996016Y-60672367D01*
X125001731Y-60679261D01*
X125002047Y-60680538D01*
X125073832Y-61060063D01*
X125072003Y-61068828D01*
X125064510Y-61073733D01*
X125061495Y-61073907D01*
X124948835Y-61065786D01*
X124804403Y-61069766D01*
X124498703Y-61098515D01*
X124397976Y-61109445D01*
X124397519Y-61109485D01*
X124185112Y-61124137D01*
X124176623Y-61121288D01*
X124172635Y-61113270D01*
X124172607Y-61112465D01*
X124172607Y-60886138D01*
X124176034Y-60877865D01*
X124183730Y-60874452D01*
X124192678Y-60874013D01*
X124245435Y-60863368D01*
X124301059Y-60841275D01*
X124403044Y-60770078D01*
X124479681Y-60673432D01*
X124524529Y-60558907D01*
X124532933Y-60446252D01*
X124536966Y-60438257D01*
X124545471Y-60435455D01*
X124550063Y-60436777D01*
G37*
%TD.AperFunction*%
%TD*%
%TA.AperFunction,Conductor*%
%TO.N,+10V*%
G36*
X121060777Y-60502925D02*
G01*
X121063907Y-60509008D01*
X121077595Y-60584849D01*
X121105300Y-60640323D01*
X121105305Y-60640331D01*
X121143323Y-60689981D01*
X121143327Y-60689985D01*
X121143328Y-60689986D01*
X121201118Y-60743047D01*
X121234250Y-60765139D01*
X121267378Y-60787229D01*
X121267379Y-60787229D01*
X121267383Y-60787232D01*
X121349255Y-60827131D01*
X121431128Y-60855072D01*
X121550088Y-60873467D01*
X121557740Y-60878118D01*
X121560000Y-60885030D01*
X121560000Y-61113980D01*
X121556573Y-61122253D01*
X121549001Y-61125659D01*
X121516589Y-61127603D01*
X121362505Y-61164565D01*
X121362500Y-61164566D01*
X121227696Y-61229566D01*
X121133399Y-61307695D01*
X121133397Y-61307697D01*
X121078564Y-61393281D01*
X121078562Y-61393285D01*
X121064294Y-61465833D01*
X121059335Y-61473289D01*
X121050556Y-61475055D01*
X121044446Y-61471752D01*
X120744251Y-61164566D01*
X120567192Y-60983383D01*
X120563862Y-60975072D01*
X120567383Y-60966839D01*
X121044234Y-60502700D01*
X121052551Y-60499387D01*
X121060777Y-60502925D01*
G37*
%TD.AperFunction*%
%TD*%
%TA.AperFunction,Conductor*%
%TO.N,+10V*%
G36*
X138694492Y-67309818D02*
G01*
X139323911Y-67488746D01*
X139330932Y-67494304D01*
X139331966Y-67503199D01*
X139326408Y-67510220D01*
X139323911Y-67511254D01*
X138695881Y-67689787D01*
X138686986Y-67688753D01*
X138682319Y-67683963D01*
X138673014Y-67666198D01*
X138652207Y-67647117D01*
X138595538Y-67626098D01*
X138581355Y-67625000D01*
X138529149Y-67620958D01*
X138529145Y-67620958D01*
X138529144Y-67620958D01*
X138516905Y-67621413D01*
X138465428Y-67623326D01*
X138437184Y-67624495D01*
X138428776Y-67621413D01*
X138425010Y-67613289D01*
X138425000Y-67612805D01*
X138425000Y-67387194D01*
X138428427Y-67378921D01*
X138436700Y-67375494D01*
X138437170Y-67375503D01*
X138465446Y-67376674D01*
X138465448Y-67376673D01*
X138465450Y-67376674D01*
X138521380Y-67375771D01*
X138591299Y-67374643D01*
X138653822Y-67351784D01*
X138681912Y-67314081D01*
X138689601Y-67309495D01*
X138694492Y-67309818D01*
G37*
%TD.AperFunction*%
%TD*%
%TA.AperFunction,Conductor*%
%TO.N,+10V*%
G36*
X137365013Y-67110823D02*
G01*
X137465148Y-67137056D01*
X137466604Y-67137543D01*
X137534703Y-67165428D01*
X137552997Y-67172919D01*
X137554682Y-67173774D01*
X137684793Y-67253617D01*
X137684997Y-67253745D01*
X137774315Y-67311118D01*
X137893062Y-67357001D01*
X137971258Y-67370250D01*
X138056192Y-67374450D01*
X138064286Y-67378282D01*
X138067314Y-67386136D01*
X138067314Y-67614133D01*
X138063887Y-67622406D01*
X138056477Y-67625801D01*
X137932958Y-67634938D01*
X137932948Y-67634939D01*
X137832881Y-67661614D01*
X137832880Y-67661615D01*
X137754429Y-67700307D01*
X137754426Y-67700308D01*
X137711427Y-67728762D01*
X137684899Y-67746318D01*
X137684881Y-67746329D01*
X137684880Y-67746331D01*
X137650465Y-67769952D01*
X137649530Y-67770532D01*
X137523236Y-67840752D01*
X137521568Y-67841514D01*
X137446894Y-67868819D01*
X137445709Y-67869183D01*
X137364920Y-67889347D01*
X137356064Y-67888025D01*
X137350735Y-67880828D01*
X137350617Y-67880306D01*
X137301185Y-67634939D01*
X137274465Y-67502308D01*
X137274465Y-67497691D01*
X137350589Y-67119831D01*
X137355582Y-67112400D01*
X137364369Y-67110674D01*
X137365013Y-67110823D01*
G37*
%TD.AperFunction*%
%TD*%
%TA.AperFunction,Conductor*%
%TO.N,+10V*%
G36*
X125467871Y-60589149D02*
G01*
X125472776Y-60596642D01*
X125472879Y-60600350D01*
X125466879Y-60645713D01*
X125466879Y-60645717D01*
X125466879Y-60645718D01*
X125468100Y-60691119D01*
X125468589Y-60709282D01*
X125468589Y-60709283D01*
X125484470Y-60797401D01*
X125484475Y-60797421D01*
X125513176Y-60885397D01*
X125513179Y-60885404D01*
X125562281Y-60991307D01*
X125620577Y-61088642D01*
X125620579Y-61088645D01*
X125736133Y-61232736D01*
X125738636Y-61241334D01*
X125735279Y-61248329D01*
X125573848Y-61409760D01*
X125565575Y-61413187D01*
X125557657Y-61410100D01*
X125506749Y-61363301D01*
X125506741Y-61363294D01*
X125337499Y-61240916D01*
X125324693Y-61231656D01*
X125324692Y-61231655D01*
X125324690Y-61231654D01*
X125324683Y-61231650D01*
X125139537Y-61136759D01*
X125139529Y-61136756D01*
X124974595Y-61086046D01*
X124974592Y-61086045D01*
X124850331Y-61076261D01*
X124842352Y-61072195D01*
X124839585Y-61063679D01*
X124840428Y-61060148D01*
X124996879Y-60680154D01*
X125003197Y-60673810D01*
X125005517Y-60673115D01*
X125459106Y-60587320D01*
X125467871Y-60589149D01*
G37*
%TD.AperFunction*%
%TD*%
%TA.AperFunction,Conductor*%
%TO.N,+10V*%
G36*
X133351494Y-62082510D02*
G01*
X133353600Y-62087246D01*
X133367645Y-62158340D01*
X133405693Y-62237360D01*
X133460307Y-62318210D01*
X133460312Y-62318217D01*
X133556507Y-62430361D01*
X133556512Y-62430366D01*
X133556514Y-62430368D01*
X133664729Y-62535356D01*
X133664732Y-62535359D01*
X133729609Y-62589852D01*
X133785187Y-62636535D01*
X133785193Y-62636539D01*
X133785195Y-62636541D01*
X133785199Y-62636544D01*
X133877854Y-62704075D01*
X133882522Y-62711717D01*
X133880418Y-62720421D01*
X133879236Y-62721803D01*
X133717545Y-62883494D01*
X133709272Y-62886921D01*
X133705004Y-62886115D01*
X133651259Y-62865058D01*
X133651258Y-62865058D01*
X133605914Y-62866667D01*
X133560569Y-62868277D01*
X133560567Y-62868277D01*
X133472848Y-62908893D01*
X133399021Y-62985705D01*
X133369591Y-63038013D01*
X133346096Y-63100803D01*
X133346092Y-63100818D01*
X133329817Y-63174305D01*
X133324777Y-63228218D01*
X133320595Y-63236136D01*
X133312039Y-63238778D01*
X133304121Y-63234596D01*
X133303644Y-63233981D01*
X132781014Y-62508621D01*
X132778958Y-62499905D01*
X132783502Y-62492410D01*
X133335119Y-62080141D01*
X133343796Y-62077934D01*
X133351494Y-62082510D01*
G37*
%TD.AperFunction*%
%TD*%
%TA.AperFunction,Conductor*%
%TO.N,+10V*%
G36*
X132215892Y-61940864D02*
G01*
X132405468Y-62130111D01*
X132767705Y-62491720D01*
X132771139Y-62499990D01*
X132767719Y-62508266D01*
X132767705Y-62508280D01*
X132218547Y-63056484D01*
X132210271Y-63059904D01*
X132202001Y-63056470D01*
X132198598Y-63048829D01*
X132198214Y-63041650D01*
X132185905Y-62982604D01*
X132163113Y-62927731D01*
X132163111Y-62927729D01*
X132163110Y-62927725D01*
X132124586Y-62868350D01*
X132075756Y-62815076D01*
X132006629Y-62759240D01*
X131930112Y-62712731D01*
X131842688Y-62672794D01*
X131842677Y-62672789D01*
X131756755Y-62644689D01*
X131756749Y-62644688D01*
X131634971Y-62626490D01*
X131627295Y-62621878D01*
X131625000Y-62614918D01*
X131625000Y-62385298D01*
X131628427Y-62377025D01*
X131635215Y-62373693D01*
X131732903Y-62361194D01*
X131894814Y-62304875D01*
X132030651Y-62223207D01*
X132125782Y-62130113D01*
X132181334Y-62030959D01*
X132196104Y-61947114D01*
X132200915Y-61939562D01*
X132209657Y-61937622D01*
X132215892Y-61940864D01*
G37*
%TD.AperFunction*%
%TD*%
%TA.AperFunction,Conductor*%
%TO.N,+10V*%
G36*
X137397407Y-66711113D02*
G01*
X137400802Y-66718523D01*
X137409938Y-66842041D01*
X137409939Y-66842051D01*
X137436614Y-66942118D01*
X137436615Y-66942119D01*
X137475307Y-67020570D01*
X137475308Y-67020573D01*
X137521330Y-67090119D01*
X137544952Y-67124534D01*
X137545532Y-67125469D01*
X137615752Y-67251763D01*
X137616514Y-67253431D01*
X137643819Y-67328104D01*
X137644183Y-67329289D01*
X137664347Y-67410079D01*
X137663025Y-67418936D01*
X137655828Y-67424264D01*
X137655306Y-67424382D01*
X137277311Y-67500534D01*
X137272689Y-67500534D01*
X136894833Y-67424411D01*
X136887400Y-67419417D01*
X136885674Y-67410630D01*
X136885822Y-67409993D01*
X136912057Y-67309846D01*
X136912541Y-67308398D01*
X136947920Y-67221997D01*
X136948774Y-67220316D01*
X137028682Y-67090100D01*
X137086118Y-67000685D01*
X137132001Y-66881938D01*
X137145250Y-66803742D01*
X137149450Y-66718807D01*
X137153282Y-66710714D01*
X137161136Y-66707686D01*
X137389134Y-66707686D01*
X137397407Y-66711113D01*
G37*
%TD.AperFunction*%
%TD*%
%TA.AperFunction,Conductor*%
%TO.N,Net-(C4-Pad1)*%
G36*
X141397858Y-70078427D02*
G01*
X141401206Y-70085346D01*
X141417860Y-70228258D01*
X141417861Y-70228263D01*
X141469977Y-70399026D01*
X141540474Y-70529875D01*
X141620418Y-70616361D01*
X141687716Y-70652940D01*
X141692174Y-70655363D01*
X141697807Y-70662325D01*
X141696867Y-70671230D01*
X141693776Y-70674874D01*
X141282189Y-70995401D01*
X141273556Y-70997781D01*
X141267811Y-70995401D01*
X140858405Y-70676572D01*
X140853983Y-70668785D01*
X140856363Y-70660152D01*
X140861361Y-70656433D01*
X140867413Y-70654086D01*
X140870366Y-70652941D01*
X140870368Y-70652940D01*
X140922592Y-70621737D01*
X140969017Y-70579915D01*
X141019599Y-70515060D01*
X141061448Y-70440592D01*
X141101577Y-70341268D01*
X141129339Y-70241245D01*
X141148725Y-70085256D01*
X141153146Y-70077470D01*
X141160336Y-70075000D01*
X141389585Y-70075000D01*
X141397858Y-70078427D01*
G37*
%TD.AperFunction*%
%TD*%
%TA.AperFunction,Conductor*%
%TO.N,Net-(C4-Pad1)*%
G36*
X141630263Y-69900608D02*
G01*
X141637696Y-69905602D01*
X141639422Y-69914389D01*
X141639293Y-69914952D01*
X141614483Y-70012855D01*
X141614083Y-70014127D01*
X141581664Y-70099668D01*
X141580980Y-70101151D01*
X141509641Y-70231132D01*
X141509505Y-70231373D01*
X141463380Y-70310897D01*
X141463376Y-70310907D01*
X141417929Y-70434624D01*
X141417926Y-70434635D01*
X141404741Y-70516213D01*
X141404739Y-70516233D01*
X141400523Y-70606162D01*
X141396713Y-70614266D01*
X141388836Y-70617314D01*
X141160785Y-70617314D01*
X141152512Y-70613887D01*
X141149124Y-70606565D01*
X141147520Y-70586889D01*
X141139042Y-70482880D01*
X141109688Y-70383287D01*
X141109686Y-70383283D01*
X141067213Y-70305821D01*
X141016886Y-70237752D01*
X141008276Y-70226383D01*
X140978724Y-70187359D01*
X140977950Y-70186197D01*
X140927993Y-70100433D01*
X140908140Y-70066350D01*
X140907295Y-70064568D01*
X140880407Y-69992822D01*
X140880018Y-69991578D01*
X140860688Y-69914939D01*
X140861988Y-69906083D01*
X140869171Y-69900736D01*
X140869713Y-69900612D01*
X141247692Y-69824465D01*
X141252308Y-69824465D01*
X141630263Y-69900608D01*
G37*
%TD.AperFunction*%
%TD*%
%TA.AperFunction,Conductor*%
%TO.N,Net-(U1D-+)*%
G36*
X134313013Y-67961246D02*
G01*
X134317680Y-67966036D01*
X134326986Y-67983802D01*
X134347793Y-68002883D01*
X134404462Y-68023902D01*
X134470856Y-68029042D01*
X134534554Y-68026674D01*
X134562816Y-68025504D01*
X134571224Y-68028586D01*
X134574990Y-68036710D01*
X134575000Y-68037194D01*
X134575000Y-68262805D01*
X134571573Y-68271078D01*
X134563300Y-68274505D01*
X134562816Y-68274495D01*
X134534549Y-68273325D01*
X134408705Y-68275356D01*
X134408702Y-68275356D01*
X134408701Y-68275357D01*
X134346178Y-68298216D01*
X134346177Y-68298216D01*
X134346176Y-68298217D01*
X134318088Y-68335917D01*
X134310397Y-68340504D01*
X134305507Y-68340181D01*
X133676088Y-68161254D01*
X133669067Y-68155696D01*
X133668033Y-68146801D01*
X133673591Y-68139780D01*
X133676088Y-68138746D01*
X134304120Y-67960212D01*
X134313013Y-67961246D01*
G37*
%TD.AperFunction*%
%TD*%
%TA.AperFunction,Conductor*%
%TO.N,Net-(U1D-+)*%
G36*
X130287266Y-70316556D02*
G01*
X130445279Y-70474569D01*
X130448706Y-70482842D01*
X130448706Y-70482930D01*
X130448402Y-70523157D01*
X130476700Y-70651842D01*
X130476701Y-70651845D01*
X130536277Y-70766105D01*
X130536281Y-70766109D01*
X130615473Y-70848983D01*
X130615474Y-70848983D01*
X130615477Y-70848986D01*
X130695008Y-70890714D01*
X130700742Y-70897593D01*
X130699933Y-70906511D01*
X130697464Y-70909712D01*
X130332199Y-71243481D01*
X130323780Y-71246532D01*
X130316399Y-71243467D01*
X129953427Y-70910572D01*
X129949646Y-70902454D01*
X129952712Y-70894041D01*
X129955996Y-70891537D01*
X129997292Y-70870370D01*
X130044005Y-70832040D01*
X130099424Y-70766643D01*
X130147944Y-70688677D01*
X130147946Y-70688674D01*
X130197937Y-70582107D01*
X130197944Y-70582090D01*
X130232715Y-70482842D01*
X130235941Y-70473633D01*
X130267541Y-70322433D01*
X130272587Y-70315038D01*
X130281387Y-70313376D01*
X130287266Y-70316556D01*
G37*
%TD.AperFunction*%
%TD*%
%TA.AperFunction,Conductor*%
%TO.N,Net-(U1D-+)*%
G36*
X139820899Y-69625843D02*
G01*
X139827384Y-69632018D01*
X139827604Y-69640970D01*
X139821429Y-69647455D01*
X139817572Y-69648426D01*
X139699183Y-69657394D01*
X139648800Y-69674420D01*
X139639797Y-69686743D01*
X139639797Y-69686744D01*
X139641042Y-69690832D01*
X139644458Y-69702049D01*
X139645194Y-69703037D01*
X139699692Y-69757535D01*
X139703119Y-69765808D01*
X139699692Y-69774081D01*
X139691419Y-69777508D01*
X139685752Y-69776044D01*
X139598208Y-69727580D01*
X139598196Y-69727575D01*
X139502382Y-69690835D01*
X139502364Y-69690830D01*
X139406360Y-69664527D01*
X139406350Y-69664525D01*
X139300665Y-69651798D01*
X139292861Y-69647407D01*
X139290448Y-69638783D01*
X139291147Y-69635976D01*
X139358995Y-69460203D01*
X139365170Y-69453721D01*
X139374118Y-69453502D01*
X139820899Y-69625843D01*
G37*
%TD.AperFunction*%
%TD*%
%TA.AperFunction,Conductor*%
%TO.N,Net-(U1D-+)*%
G36*
X139374619Y-69325440D02*
G01*
X139562158Y-69332263D01*
X139563767Y-69332434D01*
X139717656Y-69359933D01*
X139717956Y-69359991D01*
X139816683Y-69380345D01*
X139824094Y-69385372D01*
X139825802Y-69394058D01*
X139753258Y-69763496D01*
X139748301Y-69770954D01*
X139739523Y-69772722D01*
X139739517Y-69772721D01*
X139739500Y-69772718D01*
X139370803Y-69699566D01*
X139363355Y-69694595D01*
X139361604Y-69685813D01*
X139362005Y-69684317D01*
X139376576Y-69641658D01*
X139390984Y-69592737D01*
X139383927Y-69579717D01*
X139383926Y-69579716D01*
X139383927Y-69579716D01*
X139371684Y-69577021D01*
X139364342Y-69571896D01*
X139362500Y-69565595D01*
X139362500Y-69337133D01*
X139365927Y-69328860D01*
X139374200Y-69325433D01*
X139374619Y-69325440D01*
G37*
%TD.AperFunction*%
%TD*%
%TA.AperFunction,Conductor*%
%TO.N,Net-(U1D-+)*%
G36*
X139847858Y-70078427D02*
G01*
X139851206Y-70085346D01*
X139867860Y-70228258D01*
X139867861Y-70228263D01*
X139919977Y-70399026D01*
X139990474Y-70529875D01*
X140070418Y-70616361D01*
X140137716Y-70652940D01*
X140142174Y-70655363D01*
X140147807Y-70662325D01*
X140146867Y-70671230D01*
X140143776Y-70674874D01*
X139732189Y-70995401D01*
X139723556Y-70997781D01*
X139717811Y-70995401D01*
X139308405Y-70676572D01*
X139303983Y-70668785D01*
X139306363Y-70660152D01*
X139311361Y-70656433D01*
X139317413Y-70654086D01*
X139320366Y-70652941D01*
X139320368Y-70652940D01*
X139372592Y-70621737D01*
X139419017Y-70579915D01*
X139469599Y-70515060D01*
X139511448Y-70440592D01*
X139551577Y-70341268D01*
X139579339Y-70241245D01*
X139598725Y-70085256D01*
X139603146Y-70077470D01*
X139610336Y-70075000D01*
X139839585Y-70075000D01*
X139847858Y-70078427D01*
G37*
%TD.AperFunction*%
%TD*%
%TA.AperFunction,Conductor*%
%TO.N,Net-(U1D-+)*%
G36*
X140130070Y-69850569D02*
G01*
X140137503Y-69855563D01*
X140139229Y-69864350D01*
X140139053Y-69865093D01*
X140111442Y-69967213D01*
X140110857Y-69968871D01*
X140072550Y-70055930D01*
X140071515Y-70057799D01*
X139983162Y-70187679D01*
X139983052Y-70187837D01*
X139914335Y-70285353D01*
X139868068Y-70399937D01*
X139854758Y-70475332D01*
X139854757Y-70475341D01*
X139850574Y-70556218D01*
X139846725Y-70564303D01*
X139838890Y-70567314D01*
X139610950Y-70567314D01*
X139602677Y-70563887D01*
X139599276Y-70556387D01*
X139593908Y-70475341D01*
X139591081Y-70432651D01*
X139567085Y-70331919D01*
X139532153Y-70252371D01*
X139494194Y-70187679D01*
X139490542Y-70181454D01*
X139490311Y-70181041D01*
X139475084Y-70152506D01*
X139410618Y-70031689D01*
X139409924Y-70030118D01*
X139382133Y-69951920D01*
X139381799Y-69950810D01*
X139360610Y-69864893D01*
X139361957Y-69856042D01*
X139369168Y-69850733D01*
X139369618Y-69850631D01*
X139747692Y-69774465D01*
X139752308Y-69774465D01*
X140130070Y-69850569D01*
G37*
%TD.AperFunction*%
%TD*%
%TA.AperFunction,Conductor*%
%TO.N,Net-(U1D-+)*%
G36*
X132969492Y-67959818D02*
G01*
X133598911Y-68138746D01*
X133605932Y-68144304D01*
X133606966Y-68153199D01*
X133601408Y-68160220D01*
X133598911Y-68161254D01*
X132970881Y-68339787D01*
X132961986Y-68338753D01*
X132957319Y-68333963D01*
X132948014Y-68316198D01*
X132927207Y-68297117D01*
X132870538Y-68276098D01*
X132856355Y-68275000D01*
X132804149Y-68270958D01*
X132804145Y-68270958D01*
X132804144Y-68270958D01*
X132791905Y-68271413D01*
X132740428Y-68273326D01*
X132712184Y-68274495D01*
X132703776Y-68271413D01*
X132700010Y-68263289D01*
X132700000Y-68262805D01*
X132700000Y-68037194D01*
X132703427Y-68028921D01*
X132711700Y-68025494D01*
X132712170Y-68025503D01*
X132740446Y-68026674D01*
X132740448Y-68026673D01*
X132740450Y-68026674D01*
X132796380Y-68025771D01*
X132866299Y-68024643D01*
X132928822Y-68001784D01*
X132956912Y-67964081D01*
X132964601Y-67959495D01*
X132969492Y-67959818D01*
G37*
%TD.AperFunction*%
%TD*%
%TA.AperFunction,Conductor*%
%TO.N,Net-(U1D-+)*%
G36*
X138694492Y-69259818D02*
G01*
X139323911Y-69438746D01*
X139330932Y-69444304D01*
X139331966Y-69453199D01*
X139326408Y-69460220D01*
X139323911Y-69461254D01*
X138695881Y-69639787D01*
X138686986Y-69638753D01*
X138682319Y-69633963D01*
X138673014Y-69616198D01*
X138652207Y-69597117D01*
X138595538Y-69576098D01*
X138581355Y-69575000D01*
X138529149Y-69570958D01*
X138529145Y-69570958D01*
X138529144Y-69570958D01*
X138516905Y-69571413D01*
X138465428Y-69573326D01*
X138437184Y-69574495D01*
X138428776Y-69571413D01*
X138425010Y-69563289D01*
X138425000Y-69562805D01*
X138425000Y-69337194D01*
X138428427Y-69328921D01*
X138436700Y-69325494D01*
X138437170Y-69325503D01*
X138465446Y-69326674D01*
X138465448Y-69326673D01*
X138465450Y-69326674D01*
X138521380Y-69325771D01*
X138591299Y-69324643D01*
X138653822Y-69301784D01*
X138681912Y-69264081D01*
X138689601Y-69259495D01*
X138694492Y-69259818D01*
G37*
%TD.AperFunction*%
%TD*%
%TA.AperFunction,Conductor*%
%TO.N,/I_SET*%
G36*
X104917870Y-59395670D02*
G01*
X104918152Y-59395865D01*
X105079566Y-59510980D01*
X105080002Y-59511306D01*
X105213102Y-59616005D01*
X105359140Y-59728128D01*
X105498628Y-59806345D01*
X105578282Y-59834344D01*
X105670361Y-59855079D01*
X105670362Y-59855079D01*
X105670365Y-59855080D01*
X105798628Y-59870010D01*
X105944549Y-59874640D01*
X105952708Y-59878327D01*
X105955877Y-59886334D01*
X105955877Y-60114004D01*
X105952450Y-60122277D01*
X105944903Y-60125681D01*
X105692515Y-60141365D01*
X105592417Y-60161757D01*
X105506901Y-60190224D01*
X105506893Y-60190227D01*
X105431072Y-60226729D01*
X105360086Y-60271217D01*
X105360070Y-60271228D01*
X105213140Y-60383963D01*
X105161795Y-60425047D01*
X105161409Y-60425342D01*
X104918190Y-60603900D01*
X104909493Y-60606034D01*
X104901835Y-60601393D01*
X104901545Y-60600980D01*
X104756205Y-60383995D01*
X104503360Y-60006510D01*
X104501604Y-59997730D01*
X104503361Y-59993489D01*
X104586070Y-59870009D01*
X104901640Y-59398878D01*
X104909089Y-59393913D01*
X104917870Y-59395670D01*
G37*
%TD.AperFunction*%
%TD*%
%TA.AperFunction,Conductor*%
%TO.N,/I_SET*%
G36*
X108581052Y-59853359D02*
G01*
X109219668Y-60088465D01*
X109226247Y-60094538D01*
X109226605Y-60103486D01*
X109220531Y-60110066D01*
X109219320Y-60110545D01*
X108512911Y-60345701D01*
X108503979Y-60345063D01*
X108498115Y-60338295D01*
X108497688Y-60336598D01*
X108492883Y-60308740D01*
X108472200Y-60277734D01*
X108472199Y-60277732D01*
X108441367Y-60255519D01*
X108441365Y-60255518D01*
X108403787Y-60240625D01*
X108338180Y-60229651D01*
X108322044Y-60226952D01*
X108265641Y-60225327D01*
X108257470Y-60221663D01*
X108254278Y-60213632D01*
X108254278Y-59986234D01*
X108257705Y-59977961D01*
X108265502Y-59974544D01*
X108286244Y-59973701D01*
X108366264Y-59970453D01*
X108366267Y-59970452D01*
X108366273Y-59970452D01*
X108471427Y-59947495D01*
X108537612Y-59907714D01*
X108566955Y-59858359D01*
X108574128Y-59853001D01*
X108581052Y-59853359D01*
G37*
%TD.AperFunction*%
%TD*%
%TA.AperFunction,Conductor*%
%TO.N,/I_SET*%
G36*
X115142862Y-58966577D02*
G01*
X115143100Y-58966822D01*
X115229148Y-59058050D01*
X115229177Y-59058123D01*
X115229199Y-59058104D01*
X115293897Y-59127570D01*
X115310151Y-59145021D01*
X115469016Y-59300322D01*
X115476758Y-59307890D01*
X115476761Y-59307892D01*
X115476768Y-59307898D01*
X115565827Y-59372089D01*
X115578973Y-59381564D01*
X115629402Y-59397172D01*
X115636292Y-59402892D01*
X115637585Y-59409515D01*
X115481656Y-60966229D01*
X115477421Y-60974120D01*
X115471233Y-60976699D01*
X114996340Y-61026429D01*
X114987754Y-61023883D01*
X114983485Y-61016012D01*
X114983725Y-61012142D01*
X115086208Y-60572082D01*
X115152616Y-60167948D01*
X115174312Y-59851173D01*
X115160376Y-59602332D01*
X115117498Y-59407048D01*
X115049766Y-59254039D01*
X115003473Y-59193866D01*
X114964323Y-59142977D01*
X114961994Y-59134330D01*
X114965322Y-59127571D01*
X115126317Y-58966576D01*
X115134589Y-58963150D01*
X115142862Y-58966577D01*
G37*
%TD.AperFunction*%
%TD*%
%TA.AperFunction,Conductor*%
%TO.N,/I_SET*%
G36*
X115833438Y-58966339D02*
G01*
X115833683Y-58966577D01*
X115994633Y-59127527D01*
X115998060Y-59135800D01*
X115995591Y-59142988D01*
X115913897Y-59247903D01*
X115913896Y-59247906D01*
X115872534Y-59327815D01*
X115872528Y-59327827D01*
X115839767Y-59415659D01*
X115839761Y-59415676D01*
X115812394Y-59524501D01*
X115812393Y-59524508D01*
X115794866Y-59642321D01*
X115785976Y-59790674D01*
X115785975Y-59790682D01*
X115788606Y-59949262D01*
X115788607Y-59949283D01*
X115805924Y-60155469D01*
X115836929Y-60373324D01*
X115836932Y-60373339D01*
X115899613Y-60693985D01*
X115899616Y-60694000D01*
X115899617Y-60694002D01*
X115976127Y-61012043D01*
X115974731Y-61020889D01*
X115967489Y-61026155D01*
X115963533Y-61026416D01*
X115488766Y-60976699D01*
X115480895Y-60972430D01*
X115478343Y-60966231D01*
X115322492Y-59410294D01*
X115325077Y-59401722D01*
X115331551Y-59397717D01*
X115360485Y-59391174D01*
X115406303Y-59366686D01*
X115511674Y-59282672D01*
X115730801Y-59058105D01*
X115816900Y-58966821D01*
X115825068Y-58963155D01*
X115833438Y-58966339D01*
G37*
%TD.AperFunction*%
%TD*%
%TA.AperFunction,Conductor*%
%TO.N,/I_SET*%
G36*
X126811086Y-61083913D02*
G01*
X126891496Y-61154778D01*
X126904267Y-61166033D01*
X126959298Y-61200708D01*
X126991940Y-61221276D01*
X127040882Y-61241369D01*
X127072168Y-61254214D01*
X127098484Y-61261688D01*
X127151067Y-61276622D01*
X127151417Y-61276727D01*
X127305301Y-61326201D01*
X127306787Y-61326794D01*
X127383051Y-61363437D01*
X127384047Y-61363977D01*
X127461794Y-61411089D01*
X127467094Y-61418307D01*
X127465737Y-61427158D01*
X127465475Y-61427571D01*
X127253407Y-61746644D01*
X127245974Y-61751638D01*
X127245922Y-61751648D01*
X126869506Y-61825710D01*
X126860727Y-61823945D01*
X126855767Y-61816489D01*
X126855713Y-61816195D01*
X126828775Y-61654457D01*
X126807908Y-61533675D01*
X126763373Y-61420302D01*
X126748393Y-61399103D01*
X126709576Y-61344167D01*
X126709570Y-61344159D01*
X126670410Y-61301609D01*
X126633669Y-61261686D01*
X126630589Y-61253280D01*
X126634005Y-61245493D01*
X126795080Y-61084418D01*
X126803352Y-61080992D01*
X126811086Y-61083913D01*
G37*
%TD.AperFunction*%
%TD*%
%TA.AperFunction,Conductor*%
%TO.N,/I_SET*%
G36*
X109800906Y-59388551D02*
G01*
X109961723Y-59549368D01*
X109965150Y-59557641D01*
X109962153Y-59565461D01*
X109908930Y-59624692D01*
X109869643Y-59695223D01*
X109866097Y-59752117D01*
X109866098Y-59752123D01*
X109877876Y-59778353D01*
X109877877Y-59778355D01*
X109889643Y-59790881D01*
X109892809Y-59799257D01*
X109889125Y-59807419D01*
X109885981Y-59809531D01*
X109272615Y-60090041D01*
X109263666Y-60090365D01*
X109257109Y-60084267D01*
X109256524Y-60076102D01*
X109335488Y-59807419D01*
X109393960Y-59608460D01*
X109399580Y-59601490D01*
X109405263Y-59600060D01*
X109452796Y-59600386D01*
X109454398Y-59600397D01*
X109454398Y-59600396D01*
X109454400Y-59600397D01*
X109512070Y-59586575D01*
X109512074Y-59586572D01*
X109512077Y-59586572D01*
X109622317Y-59528807D01*
X109622318Y-59528805D01*
X109622322Y-59528804D01*
X109718721Y-59451740D01*
X109784520Y-59388393D01*
X109792855Y-59385126D01*
X109800906Y-59388551D01*
G37*
%TD.AperFunction*%
%TD*%
%TA.AperFunction,Conductor*%
%TO.N,Net-(U1C--)*%
G36*
X134313013Y-66011246D02*
G01*
X134317680Y-66016036D01*
X134326986Y-66033802D01*
X134347793Y-66052883D01*
X134404462Y-66073902D01*
X134470856Y-66079042D01*
X134534554Y-66076674D01*
X134562816Y-66075504D01*
X134571224Y-66078586D01*
X134574990Y-66086710D01*
X134575000Y-66087194D01*
X134575000Y-66312805D01*
X134571573Y-66321078D01*
X134563300Y-66324505D01*
X134562816Y-66324495D01*
X134534549Y-66323325D01*
X134408705Y-66325356D01*
X134408702Y-66325356D01*
X134408701Y-66325357D01*
X134346178Y-66348216D01*
X134346177Y-66348216D01*
X134346176Y-66348217D01*
X134318088Y-66385917D01*
X134310397Y-66390504D01*
X134305507Y-66390181D01*
X133676088Y-66211254D01*
X133669067Y-66205696D01*
X133668033Y-66196801D01*
X133673591Y-66189780D01*
X133676088Y-66188746D01*
X134304120Y-66010212D01*
X134313013Y-66011246D01*
G37*
%TD.AperFunction*%
%TD*%
%TA.AperFunction,Conductor*%
%TO.N,Net-(U1C--)*%
G36*
X135168981Y-65861938D02*
G01*
X135174266Y-65869166D01*
X135174368Y-65869621D01*
X135250036Y-66245218D01*
X135248310Y-66254005D01*
X135248281Y-66254049D01*
X135034577Y-66572449D01*
X135027121Y-66577409D01*
X135018342Y-66575644D01*
X135017933Y-66575356D01*
X134868257Y-66465338D01*
X134769342Y-66392826D01*
X134769343Y-66392826D01*
X134718161Y-66365437D01*
X134660016Y-66345139D01*
X134660011Y-66345137D01*
X134572810Y-66330017D01*
X134572800Y-66330016D01*
X134468877Y-66325487D01*
X134460760Y-66321703D01*
X134457686Y-66313798D01*
X134457686Y-66086037D01*
X134461113Y-66077764D01*
X134468703Y-66074357D01*
X134593168Y-66067103D01*
X134694813Y-66045781D01*
X134775611Y-66014590D01*
X134848441Y-65977138D01*
X134848659Y-65977030D01*
X134982851Y-65912249D01*
X134984099Y-65911734D01*
X135066753Y-65883329D01*
X135067756Y-65883036D01*
X135160133Y-65860564D01*
X135168981Y-65861938D01*
G37*
%TD.AperFunction*%
%TD*%
%TA.AperFunction,Conductor*%
%TO.N,Net-(U1A-+)*%
G36*
X134271242Y-65115411D02*
G01*
X134273223Y-65121925D01*
X134273223Y-65345378D01*
X134270066Y-65353372D01*
X134261862Y-65362138D01*
X134261861Y-65362141D01*
X134263102Y-65370556D01*
X134277251Y-65379759D01*
X134316024Y-65390852D01*
X134323034Y-65396423D01*
X134324053Y-65405320D01*
X134318482Y-65412331D01*
X134315110Y-65413571D01*
X133647547Y-65547778D01*
X133638761Y-65546049D01*
X133633865Y-65539043D01*
X133591685Y-65363629D01*
X133593083Y-65354784D01*
X133600326Y-65349518D01*
X133602393Y-65349213D01*
X133684565Y-65344593D01*
X133796085Y-65325904D01*
X133875902Y-65303959D01*
X133904184Y-65296184D01*
X133904185Y-65296183D01*
X133904198Y-65296180D01*
X134016558Y-65253512D01*
X134118649Y-65203593D01*
X134255010Y-65112205D01*
X134263790Y-65110447D01*
X134271242Y-65115411D01*
G37*
%TD.AperFunction*%
%TD*%
%TA.AperFunction,Conductor*%
%TO.N,Net-(U1A-+)*%
G36*
X133927190Y-65009408D02*
G01*
X133928527Y-65010176D01*
X134085566Y-65114792D01*
X134246944Y-65222298D01*
X134251929Y-65229737D01*
X134251938Y-65229781D01*
X134325714Y-65605493D01*
X134323945Y-65614271D01*
X134316487Y-65619228D01*
X134316151Y-65619289D01*
X134018870Y-65668702D01*
X134017237Y-65668857D01*
X133753157Y-65675291D01*
X133752842Y-65675294D01*
X133649170Y-65675029D01*
X133640906Y-65671581D01*
X133637500Y-65663329D01*
X133637500Y-65435040D01*
X133640927Y-65426767D01*
X133647423Y-65423476D01*
X133730754Y-65410681D01*
X133785273Y-65370846D01*
X133785274Y-65370846D01*
X133785274Y-65370845D01*
X133785276Y-65370844D01*
X133814757Y-65310167D01*
X133832890Y-65233332D01*
X133862860Y-65114783D01*
X133863688Y-65112524D01*
X133911538Y-65014772D01*
X133918253Y-65008849D01*
X133927190Y-65009408D01*
G37*
%TD.AperFunction*%
%TD*%
%TA.AperFunction,Conductor*%
%TO.N,Net-(U1A-+)*%
G36*
X134340013Y-64835823D02*
G01*
X134440148Y-64862056D01*
X134441604Y-64862543D01*
X134509703Y-64890428D01*
X134527997Y-64897919D01*
X134529682Y-64898774D01*
X134659793Y-64978617D01*
X134659997Y-64978745D01*
X134749315Y-65036118D01*
X134868062Y-65082001D01*
X134946258Y-65095250D01*
X135031192Y-65099450D01*
X135039286Y-65103282D01*
X135042314Y-65111136D01*
X135042314Y-65339133D01*
X135038887Y-65347406D01*
X135031477Y-65350801D01*
X134907958Y-65359938D01*
X134907948Y-65359939D01*
X134807881Y-65386614D01*
X134807880Y-65386615D01*
X134729429Y-65425307D01*
X134729426Y-65425308D01*
X134686427Y-65453762D01*
X134659899Y-65471318D01*
X134659881Y-65471329D01*
X134659880Y-65471331D01*
X134625465Y-65494952D01*
X134624530Y-65495532D01*
X134498236Y-65565752D01*
X134496568Y-65566514D01*
X134421894Y-65593819D01*
X134420709Y-65594183D01*
X134339920Y-65614347D01*
X134331064Y-65613025D01*
X134325735Y-65605828D01*
X134325617Y-65605306D01*
X134276185Y-65359939D01*
X134249465Y-65227308D01*
X134249465Y-65222691D01*
X134325589Y-64844831D01*
X134330582Y-64837400D01*
X134339369Y-64835674D01*
X134340013Y-64835823D01*
G37*
%TD.AperFunction*%
%TD*%
%TA.AperFunction,Conductor*%
%TO.N,Net-(U1A-+)*%
G36*
X139115540Y-68101795D02*
G01*
X139354416Y-68148234D01*
X139361883Y-68153177D01*
X139363873Y-68159247D01*
X139371027Y-68336342D01*
X139367937Y-68344746D01*
X139359809Y-68348504D01*
X139357999Y-68348437D01*
X139180468Y-68328004D01*
X139180453Y-68328003D01*
X138998000Y-68322761D01*
X138667026Y-68338795D01*
X138667027Y-68338796D01*
X138437289Y-68350380D01*
X138428854Y-68347374D01*
X138425015Y-68339284D01*
X138425000Y-68338695D01*
X138425000Y-68112909D01*
X138428427Y-68104636D01*
X138436700Y-68101209D01*
X138436895Y-68101210D01*
X138445307Y-68101360D01*
X138476848Y-68101712D01*
X138484266Y-68101795D01*
X138484268Y-68101795D01*
X138484268Y-68101794D01*
X138484270Y-68101795D01*
X138566327Y-68091120D01*
X138614698Y-68062076D01*
X138628765Y-68038926D01*
X138632592Y-68019761D01*
X138637571Y-68012323D01*
X138646296Y-68010571D01*
X139115540Y-68101795D01*
G37*
%TD.AperFunction*%
%TD*%
%TA.AperFunction,Conductor*%
%TO.N,Net-(U1A--)*%
G36*
X140038013Y-68611246D02*
G01*
X140042680Y-68616036D01*
X140051986Y-68633802D01*
X140072793Y-68652883D01*
X140129462Y-68673902D01*
X140195856Y-68679042D01*
X140259554Y-68676674D01*
X140287816Y-68675504D01*
X140296224Y-68678586D01*
X140299990Y-68686710D01*
X140300000Y-68687194D01*
X140300000Y-68912805D01*
X140296573Y-68921078D01*
X140288300Y-68924505D01*
X140287816Y-68924495D01*
X140259549Y-68923325D01*
X140133705Y-68925356D01*
X140133702Y-68925356D01*
X140133701Y-68925357D01*
X140071178Y-68948216D01*
X140071177Y-68948216D01*
X140071176Y-68948217D01*
X140043088Y-68985917D01*
X140035397Y-68990504D01*
X140030507Y-68990181D01*
X139401088Y-68811254D01*
X139394067Y-68805696D01*
X139393033Y-68796801D01*
X139398591Y-68789780D01*
X139401088Y-68788746D01*
X140029120Y-68610212D01*
X140038013Y-68611246D01*
G37*
%TD.AperFunction*%
%TD*%
%TA.AperFunction,Conductor*%
%TO.N,Net-(U1A--)*%
G36*
X140927160Y-67959265D02*
G01*
X140927612Y-67959551D01*
X141248743Y-68172988D01*
X141252011Y-68176256D01*
X141465368Y-68497267D01*
X141467094Y-68506054D01*
X141462100Y-68513487D01*
X141461531Y-68513843D01*
X141372190Y-68566092D01*
X141370804Y-68566783D01*
X141284706Y-68602855D01*
X141282909Y-68603442D01*
X141134461Y-68638984D01*
X141134227Y-68639038D01*
X141030488Y-68661628D01*
X141030487Y-68661629D01*
X140914084Y-68713149D01*
X140914083Y-68713150D01*
X140849413Y-68759079D01*
X140786390Y-68816163D01*
X140777958Y-68819177D01*
X140770263Y-68815764D01*
X140609044Y-68654545D01*
X140605617Y-68646272D01*
X140608455Y-68638634D01*
X140689340Y-68544827D01*
X140741239Y-68455202D01*
X140769355Y-68372360D01*
X140785983Y-68290670D01*
X140793624Y-68249582D01*
X140793869Y-68248543D01*
X140833522Y-68109577D01*
X140834155Y-68107876D01*
X140867665Y-68035733D01*
X140868230Y-68034668D01*
X140911107Y-67963269D01*
X140918303Y-67957943D01*
X140927160Y-67959265D01*
G37*
%TD.AperFunction*%
%TD*%
%TA.AperFunction,Conductor*%
%TO.N,Net-(C8-Pad2)*%
G36*
X111295298Y-90178427D02*
G01*
X111298725Y-90186700D01*
X111298663Y-90187906D01*
X111289841Y-90273024D01*
X111289798Y-90273383D01*
X111283659Y-90318855D01*
X111283658Y-90318858D01*
X111275483Y-90454862D01*
X111275484Y-90454867D01*
X111275484Y-90454868D01*
X111291776Y-90540297D01*
X111292108Y-90542040D01*
X111292109Y-90542044D01*
X111330843Y-90595827D01*
X111330845Y-90595829D01*
X111361171Y-90613149D01*
X111378231Y-90617304D01*
X111385458Y-90622591D01*
X111386830Y-90631441D01*
X111383209Y-90637440D01*
X111007747Y-90969155D01*
X110999278Y-90972065D01*
X110992253Y-90969155D01*
X110615911Y-90636663D01*
X110611980Y-90628617D01*
X110614890Y-90620148D01*
X110620383Y-90616663D01*
X110632438Y-90613149D01*
X110650372Y-90607921D01*
X110650374Y-90607919D01*
X110650377Y-90607919D01*
X110685827Y-90579589D01*
X110708584Y-90540297D01*
X110720883Y-90492723D01*
X110723042Y-90383447D01*
X110710177Y-90273203D01*
X110701337Y-90187904D01*
X110703893Y-90179324D01*
X110711769Y-90175062D01*
X110712975Y-90175000D01*
X111287025Y-90175000D01*
X111295298Y-90178427D01*
G37*
%TD.AperFunction*%
%TD*%
%TA.AperFunction,Conductor*%
%TO.N,Net-(C8-Pad2)*%
G36*
X111008266Y-89282280D02*
G01*
X111008280Y-89282294D01*
X111559295Y-89834268D01*
X111562715Y-89842544D01*
X111559281Y-89850814D01*
X111553141Y-89854039D01*
X111483753Y-89866863D01*
X111483746Y-89866866D01*
X111415270Y-89912784D01*
X111366299Y-89980749D01*
X111333578Y-90063744D01*
X111333575Y-90063753D01*
X111313845Y-90154756D01*
X111303840Y-90246767D01*
X111303838Y-90246786D01*
X111301160Y-90356684D01*
X111299963Y-90405799D01*
X111299977Y-90413278D01*
X111296567Y-90421557D01*
X111288301Y-90425000D01*
X110711723Y-90425000D01*
X110703450Y-90421573D01*
X110700023Y-90413300D01*
X110700023Y-90413278D01*
X110700037Y-90405730D01*
X110699035Y-90305128D01*
X110699035Y-90305118D01*
X110682222Y-90131428D01*
X110645180Y-90004629D01*
X110645178Y-90004626D01*
X110645178Y-90004625D01*
X110591415Y-89919745D01*
X110581747Y-89912784D01*
X110520431Y-89868635D01*
X110495631Y-89860914D01*
X110476090Y-89854830D01*
X110476083Y-89854828D01*
X110449725Y-89852337D01*
X110441811Y-89848147D01*
X110439178Y-89839588D01*
X110442546Y-89832423D01*
X110991720Y-89282294D01*
X110999990Y-89278860D01*
X111008266Y-89282280D01*
G37*
%TD.AperFunction*%
%TD*%
%TA.AperFunction,Conductor*%
%TO.N,Net-(D1-A1)*%
G36*
X109656483Y-66199820D02*
G01*
X109659358Y-66202103D01*
X109993467Y-66566399D01*
X109996533Y-66574812D01*
X109993481Y-66582199D01*
X109660857Y-66946212D01*
X109652747Y-66950008D01*
X109644328Y-66946957D01*
X109641584Y-66943195D01*
X109636015Y-66931043D01*
X109621110Y-66898520D01*
X109586520Y-66850046D01*
X109586518Y-66850044D01*
X109586518Y-66850043D01*
X109536136Y-66801427D01*
X109536131Y-66801422D01*
X109478768Y-66762416D01*
X109478761Y-66762412D01*
X109478756Y-66762410D01*
X109409607Y-66729617D01*
X109409594Y-66729611D01*
X109340297Y-66708442D01*
X109340294Y-66708441D01*
X109340292Y-66708441D01*
X109232282Y-66699110D01*
X109225016Y-66695726D01*
X109066987Y-66537697D01*
X109063560Y-66529424D01*
X109066987Y-66521151D01*
X109073128Y-66517920D01*
X109179336Y-66498269D01*
X109369115Y-66432212D01*
X109513171Y-66351897D01*
X109603299Y-66270296D01*
X109640544Y-66204262D01*
X109647593Y-66198741D01*
X109656483Y-66199820D01*
G37*
%TD.AperFunction*%
%TD*%
%TA.AperFunction,Conductor*%
%TO.N,Net-(D1-A1)*%
G36*
X110358842Y-85758172D02*
G01*
X110360900Y-85759628D01*
X110991071Y-86316231D01*
X110995004Y-86324276D01*
X110992095Y-86332745D01*
X110991071Y-86333769D01*
X110360209Y-86890982D01*
X110351740Y-86893891D01*
X110343695Y-86889958D01*
X110342626Y-86888546D01*
X110306875Y-86833016D01*
X110248242Y-86787933D01*
X110248236Y-86787930D01*
X110177105Y-86761457D01*
X110177104Y-86761456D01*
X110150228Y-86757737D01*
X110096484Y-86750301D01*
X110096479Y-86750301D01*
X110096478Y-86750301D01*
X109918871Y-86760800D01*
X109918869Y-86760800D01*
X109739601Y-86793108D01*
X109658725Y-86808878D01*
X109657884Y-86809010D01*
X109538098Y-86823423D01*
X109529474Y-86821009D01*
X109525084Y-86813205D01*
X109525000Y-86811807D01*
X109525000Y-85837928D01*
X109528427Y-85829655D01*
X109536700Y-85826228D01*
X109537859Y-85826285D01*
X109621155Y-85834614D01*
X109622153Y-85834757D01*
X109739550Y-85856881D01*
X109951163Y-85893404D01*
X110028736Y-85896241D01*
X110106301Y-85899079D01*
X110106302Y-85899078D01*
X110106309Y-85899079D01*
X110216501Y-85876506D01*
X110295404Y-85828478D01*
X110325790Y-85793527D01*
X110342931Y-85762709D01*
X110349946Y-85757146D01*
X110358842Y-85758172D01*
G37*
%TD.AperFunction*%
%TD*%
%TA.AperFunction,Conductor*%
%TO.N,Net-(D1-A1)*%
G36*
X109265852Y-85828803D02*
G01*
X109269983Y-85836748D01*
X109270027Y-85837762D01*
X109270027Y-86813589D01*
X109266600Y-86821862D01*
X109258620Y-86825285D01*
X109233962Y-86825901D01*
X109233942Y-86825903D01*
X109047834Y-86855441D01*
X108861248Y-86923588D01*
X108691943Y-87024055D01*
X108547956Y-87151602D01*
X108432393Y-87303428D01*
X108346850Y-87479076D01*
X108316058Y-87575661D01*
X108293310Y-87679890D01*
X108279507Y-87790303D01*
X108275682Y-87890560D01*
X108271943Y-87898697D01*
X108263545Y-87901805D01*
X108258884Y-87900640D01*
X107132444Y-87354097D01*
X107126496Y-87347403D01*
X107126168Y-87340870D01*
X107418334Y-86110653D01*
X107423579Y-86103397D01*
X107431662Y-86101821D01*
X107521180Y-86116919D01*
X107549871Y-86117716D01*
X107635932Y-86120108D01*
X107635935Y-86120107D01*
X107635944Y-86120108D01*
X107899482Y-86093404D01*
X108192797Y-86036104D01*
X108497208Y-85964423D01*
X108730434Y-85908938D01*
X108730768Y-85908865D01*
X109062533Y-85843117D01*
X109063764Y-85842942D01*
X109257313Y-85826106D01*
X109265852Y-85828803D01*
G37*
%TD.AperFunction*%
%TD*%
%TA.AperFunction,Conductor*%
%TO.N,Net-(D1-A1)*%
G36*
X105991419Y-86440991D02*
G01*
X106369372Y-86743801D01*
X107115556Y-87341632D01*
X107119869Y-87349479D01*
X107117371Y-87358079D01*
X107116312Y-87359232D01*
X106008982Y-88414633D01*
X106000629Y-88417861D01*
X105992441Y-88414236D01*
X105989285Y-88407486D01*
X105982580Y-88348544D01*
X105963540Y-88277165D01*
X105930654Y-88200091D01*
X105930652Y-88200088D01*
X105930650Y-88200083D01*
X105886926Y-88126587D01*
X105886924Y-88126585D01*
X105886923Y-88126583D01*
X105825221Y-88047074D01*
X105753135Y-87973057D01*
X105753134Y-87973056D01*
X105753129Y-87973051D01*
X105753127Y-87973050D01*
X105661433Y-87896306D01*
X105562032Y-87827791D01*
X105450714Y-87764395D01*
X105337730Y-87711899D01*
X105129359Y-87644410D01*
X105088576Y-87639281D01*
X104985240Y-87626287D01*
X104977459Y-87621854D01*
X104975000Y-87614678D01*
X104975000Y-87385495D01*
X104978427Y-87377222D01*
X104985434Y-87373864D01*
X105087892Y-87362709D01*
X105182455Y-87337720D01*
X105242137Y-87315128D01*
X105281916Y-87300072D01*
X105281917Y-87300071D01*
X105281926Y-87300068D01*
X105482877Y-87191364D01*
X105660757Y-87053276D01*
X105800524Y-86900966D01*
X105800525Y-86900963D01*
X105800527Y-86900962D01*
X105898480Y-86743801D01*
X105898484Y-86743795D01*
X105955991Y-86585899D01*
X105972488Y-86448723D01*
X105976877Y-86440920D01*
X105985500Y-86438506D01*
X105991419Y-86440991D01*
G37*
%TD.AperFunction*%
%TD*%
%TA.AperFunction,Conductor*%
%TO.N,Net-(D1-A1)*%
G36*
X102167870Y-86895670D02*
G01*
X102168152Y-86895865D01*
X102329566Y-87010980D01*
X102330002Y-87011306D01*
X102463102Y-87116005D01*
X102609140Y-87228128D01*
X102748628Y-87306345D01*
X102828282Y-87334344D01*
X102920361Y-87355079D01*
X102920362Y-87355079D01*
X102920365Y-87355080D01*
X103048628Y-87370010D01*
X103194549Y-87374640D01*
X103202708Y-87378327D01*
X103205877Y-87386334D01*
X103205877Y-87614004D01*
X103202450Y-87622277D01*
X103194903Y-87625681D01*
X102942515Y-87641365D01*
X102842417Y-87661757D01*
X102756901Y-87690224D01*
X102756893Y-87690227D01*
X102681072Y-87726729D01*
X102610086Y-87771217D01*
X102610070Y-87771228D01*
X102463140Y-87883963D01*
X102411795Y-87925047D01*
X102411409Y-87925342D01*
X102168190Y-88103900D01*
X102159493Y-88106034D01*
X102151835Y-88101393D01*
X102151545Y-88100980D01*
X102006205Y-87883995D01*
X101753360Y-87506510D01*
X101751604Y-87497730D01*
X101753361Y-87493489D01*
X101836070Y-87370009D01*
X102151640Y-86898878D01*
X102159089Y-86893913D01*
X102167870Y-86895670D01*
G37*
%TD.AperFunction*%
%TD*%
%TA.AperFunction,Conductor*%
%TO.N,Net-(D1-A1)*%
G36*
X108603506Y-85180631D02*
G01*
X109294316Y-85871441D01*
X109297743Y-85879714D01*
X109294415Y-85887887D01*
X109118980Y-86067602D01*
X109049181Y-86139103D01*
X108900207Y-86309470D01*
X108789159Y-86436467D01*
X108789155Y-86436472D01*
X108587512Y-86711493D01*
X108587506Y-86711502D01*
X108440650Y-86964638D01*
X108440649Y-86964640D01*
X108343035Y-87197584D01*
X108343035Y-87197586D01*
X108289212Y-87413004D01*
X108275962Y-87600582D01*
X108271961Y-87608594D01*
X108263467Y-87611429D01*
X108261679Y-87611163D01*
X107132226Y-87352523D01*
X107124927Y-87347336D01*
X107123238Y-87342638D01*
X106962576Y-86113692D01*
X106964901Y-86105044D01*
X106972660Y-86100574D01*
X106974576Y-86100482D01*
X107081048Y-86104207D01*
X107201296Y-86092891D01*
X107201306Y-86092888D01*
X107201314Y-86092888D01*
X107321001Y-86067605D01*
X107321001Y-86067604D01*
X107321015Y-86067602D01*
X107439692Y-86029891D01*
X107671861Y-85923398D01*
X107893692Y-85785812D01*
X108101072Y-85629532D01*
X108289889Y-85466956D01*
X108587114Y-85180480D01*
X108595448Y-85177206D01*
X108603506Y-85180631D01*
G37*
%TD.AperFunction*%
%TD*%
%TA.AperFunction,Conductor*%
%TO.N,Net-(U1B--)*%
G36*
X138694492Y-66009818D02*
G01*
X139323911Y-66188746D01*
X139330932Y-66194304D01*
X139331966Y-66203199D01*
X139326408Y-66210220D01*
X139323911Y-66211254D01*
X138695881Y-66389787D01*
X138686986Y-66388753D01*
X138682319Y-66383963D01*
X138673014Y-66366198D01*
X138652207Y-66347117D01*
X138595538Y-66326098D01*
X138581355Y-66325000D01*
X138529149Y-66320958D01*
X138529145Y-66320958D01*
X138529144Y-66320958D01*
X138516905Y-66321413D01*
X138465428Y-66323326D01*
X138437184Y-66324495D01*
X138428776Y-66321413D01*
X138425010Y-66313289D01*
X138425000Y-66312805D01*
X138425000Y-66087194D01*
X138428427Y-66078921D01*
X138436700Y-66075494D01*
X138437170Y-66075503D01*
X138465446Y-66076674D01*
X138465448Y-66076673D01*
X138465450Y-66076674D01*
X138521380Y-66075771D01*
X138591299Y-66074643D01*
X138653822Y-66051784D01*
X138681912Y-66014081D01*
X138689601Y-66009495D01*
X138694492Y-66009818D01*
G37*
%TD.AperFunction*%
%TD*%
%TA.AperFunction,Conductor*%
%TO.N,Net-(U1B--)*%
G36*
X138089868Y-65860581D02*
G01*
X138126876Y-65869638D01*
X138185211Y-65883914D01*
X138186281Y-65884231D01*
X138206072Y-65891129D01*
X138270714Y-65913663D01*
X138271952Y-65914177D01*
X138401373Y-65977046D01*
X138401531Y-65977125D01*
X138469249Y-66012163D01*
X138599082Y-66057142D01*
X138684844Y-66070268D01*
X138781130Y-66074507D01*
X138789243Y-66078295D01*
X138792314Y-66086196D01*
X138792314Y-66313978D01*
X138788887Y-66322251D01*
X138781311Y-66325657D01*
X138647393Y-66333653D01*
X138647389Y-66333653D01*
X138647388Y-66333654D01*
X138553262Y-66357740D01*
X138545322Y-66359772D01*
X138464119Y-66403584D01*
X138381747Y-66465335D01*
X138381658Y-66465400D01*
X138232066Y-66575356D01*
X138223371Y-66577495D01*
X138215710Y-66572858D01*
X138215440Y-66572475D01*
X138001718Y-66254049D01*
X137999953Y-66245270D01*
X137999963Y-66245218D01*
X138034256Y-66075000D01*
X138075628Y-65869637D01*
X138080622Y-65862205D01*
X138089409Y-65860479D01*
X138089868Y-65860581D01*
G37*
%TD.AperFunction*%
%TD*%
%TA.AperFunction,Conductor*%
%TO.N,Net-(U1B--)*%
G36*
X138057206Y-62008444D02*
G01*
X138058483Y-62009829D01*
X138764253Y-62910790D01*
X138766658Y-62919416D01*
X138762258Y-62927215D01*
X138756665Y-62929592D01*
X138738603Y-62932121D01*
X138668346Y-62951238D01*
X138668344Y-62951239D01*
X138601385Y-62981050D01*
X138601383Y-62981051D01*
X138601379Y-62981053D01*
X138528718Y-63026963D01*
X138461007Y-63083516D01*
X138389194Y-63159852D01*
X138389193Y-63159853D01*
X138324925Y-63245058D01*
X138324912Y-63245077D01*
X138263256Y-63346072D01*
X138212082Y-63450444D01*
X138212075Y-63450460D01*
X138144443Y-63651122D01*
X138144442Y-63651126D01*
X138126330Y-63789815D01*
X138121861Y-63797575D01*
X138114729Y-63800000D01*
X137885953Y-63800000D01*
X137877680Y-63796573D01*
X137874278Y-63789071D01*
X137874051Y-63785644D01*
X137869787Y-63721096D01*
X137851427Y-63618062D01*
X137820460Y-63505844D01*
X137731173Y-63287899D01*
X137621453Y-63107124D01*
X137504656Y-62975180D01*
X137386905Y-62889870D01*
X137285312Y-62851776D01*
X137278769Y-62845663D01*
X137278465Y-62836713D01*
X137280817Y-62832891D01*
X138040674Y-62009110D01*
X138048801Y-62005354D01*
X138057206Y-62008444D01*
G37*
%TD.AperFunction*%
%TD*%
%TA.AperFunction,Conductor*%
%TO.N,Net-(U1B--)*%
G36*
X138122407Y-65461113D02*
G01*
X138125802Y-65468523D01*
X138134938Y-65592041D01*
X138134939Y-65592051D01*
X138161614Y-65692118D01*
X138161615Y-65692119D01*
X138200307Y-65770570D01*
X138200308Y-65770573D01*
X138246330Y-65840119D01*
X138269952Y-65874534D01*
X138270532Y-65875469D01*
X138340752Y-66001763D01*
X138341514Y-66003431D01*
X138368819Y-66078104D01*
X138369183Y-66079289D01*
X138389347Y-66160079D01*
X138388025Y-66168936D01*
X138380828Y-66174264D01*
X138380306Y-66174382D01*
X138002311Y-66250534D01*
X137997689Y-66250534D01*
X137619833Y-66174411D01*
X137612400Y-66169417D01*
X137610674Y-66160630D01*
X137610822Y-66159993D01*
X137637057Y-66059846D01*
X137637541Y-66058398D01*
X137672920Y-65971997D01*
X137673774Y-65970316D01*
X137753682Y-65840100D01*
X137811118Y-65750685D01*
X137857001Y-65631938D01*
X137870250Y-65553742D01*
X137874450Y-65468807D01*
X137878282Y-65460714D01*
X137886136Y-65457686D01*
X138114134Y-65457686D01*
X138122407Y-65461113D01*
G37*
%TD.AperFunction*%
%TD*%
%TA.AperFunction,Conductor*%
%TO.N,Net-(C9-Pad1)*%
G36*
X138846610Y-65143613D02*
G01*
X138847356Y-65144248D01*
X138910001Y-65197592D01*
X139053739Y-65279114D01*
X139053741Y-65279114D01*
X139053744Y-65279116D01*
X139134561Y-65304199D01*
X139222949Y-65331632D01*
X139398293Y-65348695D01*
X139406195Y-65352907D01*
X139408804Y-65361473D01*
X139408532Y-65363087D01*
X139365875Y-65539661D01*
X139360601Y-65546899D01*
X139352088Y-65548362D01*
X138693349Y-65409467D01*
X138685961Y-65404407D01*
X138684315Y-65395605D01*
X138689375Y-65388217D01*
X138691304Y-65387203D01*
X138701541Y-65382998D01*
X138709380Y-65361703D01*
X138694897Y-65340674D01*
X138673291Y-65322844D01*
X138673249Y-65322809D01*
X138671713Y-65321566D01*
X138667438Y-65313697D01*
X138669980Y-65305111D01*
X138670791Y-65304209D01*
X138830753Y-65144247D01*
X138839025Y-65140821D01*
X138846610Y-65143613D01*
G37*
%TD.AperFunction*%
%TD*%
%TA.AperFunction,Conductor*%
%TO.N,Net-(C9-Pad1)*%
G36*
X139088315Y-65013014D02*
G01*
X139088774Y-65013763D01*
X139116156Y-65062417D01*
X139116854Y-65063888D01*
X139139498Y-65121706D01*
X139139964Y-65123174D01*
X139167072Y-65233180D01*
X139167143Y-65233486D01*
X139178675Y-65286371D01*
X139178679Y-65286383D01*
X139208191Y-65361669D01*
X139229646Y-65386855D01*
X139229651Y-65386858D01*
X139229653Y-65386861D01*
X139258873Y-65406189D01*
X139286747Y-65414945D01*
X139303309Y-65420149D01*
X139316341Y-65421216D01*
X139351757Y-65424119D01*
X139359721Y-65428210D01*
X139362500Y-65435780D01*
X139362500Y-65663329D01*
X139359073Y-65671602D01*
X139350830Y-65675029D01*
X139246988Y-65675294D01*
X139246984Y-65675295D01*
X139242107Y-65675311D01*
X139187047Y-65675495D01*
X139186552Y-65675486D01*
X138961493Y-65666704D01*
X138959978Y-65666546D01*
X138683784Y-65619334D01*
X138676206Y-65614562D01*
X138674222Y-65605830D01*
X138674265Y-65605594D01*
X138748061Y-65229780D01*
X138753018Y-65222323D01*
X139072092Y-65009763D01*
X139080876Y-65008029D01*
X139088315Y-65013014D01*
G37*
%TD.AperFunction*%
%TD*%
%TA.AperFunction,Conductor*%
%TO.N,/FB*%
G36*
X145098164Y-68648606D02*
G01*
X145098454Y-68649019D01*
X145496638Y-69243489D01*
X145498395Y-69252270D01*
X145496638Y-69256511D01*
X145098361Y-69851119D01*
X145090910Y-69856086D01*
X145082129Y-69854329D01*
X145081847Y-69854134D01*
X144920433Y-69739019D01*
X144919992Y-69738689D01*
X144913673Y-69733718D01*
X144786898Y-69633995D01*
X144786872Y-69633975D01*
X144786844Y-69633953D01*
X144723036Y-69584964D01*
X144640860Y-69521873D01*
X144501372Y-69443655D01*
X144421719Y-69415656D01*
X144421715Y-69415655D01*
X144401591Y-69411123D01*
X144329637Y-69394920D01*
X144329640Y-69394920D01*
X144201372Y-69379990D01*
X144201364Y-69379989D01*
X144055452Y-69375359D01*
X144047292Y-69371672D01*
X144044123Y-69363665D01*
X144044123Y-69135995D01*
X144047550Y-69127722D01*
X144055096Y-69124318D01*
X144307487Y-69108634D01*
X144407577Y-69088244D01*
X144493098Y-69059776D01*
X144568921Y-69023273D01*
X144568921Y-69023272D01*
X144568925Y-69023271D01*
X144604418Y-69001026D01*
X144639915Y-68978780D01*
X144786897Y-68866006D01*
X144838237Y-68824925D01*
X144838526Y-68824703D01*
X145081809Y-68646098D01*
X145090506Y-68643965D01*
X145098164Y-68648606D01*
G37*
%TD.AperFunction*%
%TD*%
%TA.AperFunction,Conductor*%
%TO.N,/FB*%
G36*
X142840013Y-68860823D02*
G01*
X142940148Y-68887056D01*
X142941604Y-68887543D01*
X143009703Y-68915428D01*
X143027997Y-68922919D01*
X143029682Y-68923774D01*
X143159793Y-69003617D01*
X143159997Y-69003745D01*
X143249315Y-69061118D01*
X143368062Y-69107001D01*
X143446258Y-69120250D01*
X143531192Y-69124450D01*
X143539286Y-69128282D01*
X143542314Y-69136136D01*
X143542314Y-69364133D01*
X143538887Y-69372406D01*
X143531477Y-69375801D01*
X143407958Y-69384938D01*
X143407948Y-69384939D01*
X143307881Y-69411614D01*
X143307880Y-69411615D01*
X143229429Y-69450307D01*
X143229426Y-69450308D01*
X143186427Y-69478762D01*
X143159899Y-69496318D01*
X143159881Y-69496329D01*
X143159880Y-69496331D01*
X143125465Y-69519952D01*
X143124530Y-69520532D01*
X142998236Y-69590752D01*
X142996568Y-69591514D01*
X142921894Y-69618819D01*
X142920709Y-69619183D01*
X142839920Y-69639347D01*
X142831064Y-69638025D01*
X142825735Y-69630828D01*
X142825617Y-69630306D01*
X142776185Y-69384939D01*
X142749465Y-69252308D01*
X142749465Y-69247691D01*
X142825589Y-68869831D01*
X142830582Y-68862400D01*
X142839369Y-68860674D01*
X142840013Y-68860823D01*
G37*
%TD.AperFunction*%
%TD*%
%TA.AperFunction,Conductor*%
%TO.N,/FB*%
G36*
X125006464Y-68009533D02*
G01*
X125007002Y-68010393D01*
X125255638Y-68448786D01*
X125256739Y-68457673D01*
X125251233Y-68464735D01*
X125248120Y-68465952D01*
X125220637Y-68472366D01*
X125220633Y-68472367D01*
X125174237Y-68496520D01*
X125075278Y-68576063D01*
X125075272Y-68576068D01*
X125075269Y-68576072D01*
X124886489Y-68781075D01*
X124886470Y-68781096D01*
X124831457Y-68844120D01*
X124823435Y-68848099D01*
X124814949Y-68845240D01*
X124814370Y-68844699D01*
X124653014Y-68683343D01*
X124649587Y-68675070D01*
X124651351Y-68668893D01*
X124695477Y-68597980D01*
X124722818Y-68497244D01*
X124716412Y-68408179D01*
X124677466Y-68334115D01*
X124644124Y-68302405D01*
X124615196Y-68284438D01*
X124609976Y-68277162D01*
X124611430Y-68268326D01*
X124614737Y-68264860D01*
X124990195Y-68006525D01*
X124998951Y-68004660D01*
X125006464Y-68009533D01*
G37*
%TD.AperFunction*%
%TD*%
%TA.AperFunction,Conductor*%
%TO.N,/FB*%
G36*
X121479736Y-71859235D02*
G01*
X121585110Y-71964610D01*
X121585112Y-71964611D01*
X121648639Y-72028138D01*
X121560660Y-72130173D01*
X121508760Y-72219797D01*
X121480644Y-72302640D01*
X121464016Y-72384331D01*
X121456278Y-72425941D01*
X121416227Y-72566298D01*
X121382080Y-72639814D01*
X121332588Y-72722228D01*
X120999293Y-72500707D01*
X120777772Y-72167412D01*
X120878478Y-72108516D01*
X120966167Y-72071778D01*
X121115670Y-72035983D01*
X121219508Y-72013371D01*
X121335920Y-71961848D01*
X121400582Y-71915924D01*
X121463610Y-71858835D01*
X121472041Y-71855822D01*
X121479736Y-71859235D01*
G37*
%TD.AperFunction*%
%TD*%
%TA.AperFunction,Conductor*%
%TO.N,Net-(U1D--)*%
G36*
X133645752Y-69457293D02*
G01*
X133645794Y-69457335D01*
X133821558Y-69633979D01*
X133824964Y-69642260D01*
X133821516Y-69650525D01*
X133815214Y-69653767D01*
X133809557Y-69654723D01*
X133809555Y-69654724D01*
X133789063Y-69667732D01*
X133766080Y-69711573D01*
X133766080Y-69711575D01*
X133759775Y-69767499D01*
X133761374Y-69821498D01*
X133762020Y-69837838D01*
X133758922Y-69846240D01*
X133750791Y-69849991D01*
X133750329Y-69850000D01*
X133524671Y-69850000D01*
X133524442Y-69849905D01*
X133524210Y-69849991D01*
X133520340Y-69848206D01*
X133516398Y-69846573D01*
X133516303Y-69846343D01*
X133516078Y-69846240D01*
X133514603Y-69842240D01*
X133512971Y-69838300D01*
X133512980Y-69837839D01*
X133512980Y-69837838D01*
X133513626Y-69821499D01*
X133513626Y-69821495D01*
X133513627Y-69821493D01*
X133513628Y-69821452D01*
X133514832Y-69796534D01*
X133509499Y-69713951D01*
X133485876Y-69667675D01*
X133485875Y-69667674D01*
X133485874Y-69667673D01*
X133465407Y-69654709D01*
X133465404Y-69654708D01*
X133459794Y-69653762D01*
X133452207Y-69649006D01*
X133450204Y-69640278D01*
X133453447Y-69633973D01*
X133629206Y-69457335D01*
X133637471Y-69453887D01*
X133645752Y-69457293D01*
G37*
%TD.AperFunction*%
%TD*%
%TA.AperFunction,Conductor*%
%TO.N,Net-(U1D--)*%
G36*
X133645752Y-68807293D02*
G01*
X133645794Y-68807335D01*
X133821558Y-68983979D01*
X133824964Y-68992260D01*
X133821516Y-69000525D01*
X133815214Y-69003767D01*
X133809557Y-69004723D01*
X133809555Y-69004724D01*
X133789063Y-69017732D01*
X133766080Y-69061573D01*
X133766080Y-69061575D01*
X133759775Y-69117499D01*
X133761374Y-69171498D01*
X133762020Y-69187838D01*
X133758922Y-69196240D01*
X133750791Y-69199991D01*
X133750329Y-69200000D01*
X133524671Y-69200000D01*
X133524442Y-69199905D01*
X133524210Y-69199991D01*
X133520340Y-69198206D01*
X133516398Y-69196573D01*
X133516303Y-69196343D01*
X133516078Y-69196240D01*
X133514603Y-69192240D01*
X133512971Y-69188300D01*
X133512980Y-69187839D01*
X133512980Y-69187838D01*
X133513626Y-69171499D01*
X133513626Y-69171495D01*
X133513627Y-69171493D01*
X133513628Y-69171452D01*
X133514832Y-69146534D01*
X133509499Y-69063951D01*
X133485876Y-69017675D01*
X133485875Y-69017674D01*
X133485874Y-69017673D01*
X133465407Y-69004709D01*
X133465404Y-69004708D01*
X133459794Y-69003762D01*
X133452207Y-68999006D01*
X133450204Y-68990278D01*
X133453447Y-68983973D01*
X133629206Y-68807335D01*
X133637471Y-68803887D01*
X133645752Y-68807293D01*
G37*
%TD.AperFunction*%
%TD*%
%TA.AperFunction,Conductor*%
%TO.N,Net-(U1D--)*%
G36*
X133758602Y-69053427D02*
G01*
X133762029Y-69061700D01*
X133762020Y-69062162D01*
X133761374Y-69078501D01*
X133761369Y-69078604D01*
X133760168Y-69103456D01*
X133760168Y-69103469D01*
X133765500Y-69186048D01*
X133789124Y-69232325D01*
X133789125Y-69232326D01*
X133809592Y-69245290D01*
X133809594Y-69245291D01*
X133815204Y-69246237D01*
X133822792Y-69250992D01*
X133824795Y-69259719D01*
X133821552Y-69266026D01*
X133645794Y-69442664D01*
X133637529Y-69446112D01*
X133629248Y-69442706D01*
X133629206Y-69442664D01*
X133453441Y-69266020D01*
X133450035Y-69257739D01*
X133453483Y-69249474D01*
X133459784Y-69246232D01*
X133465447Y-69245275D01*
X133485935Y-69232269D01*
X133508919Y-69188426D01*
X133515225Y-69132495D01*
X133513626Y-69078501D01*
X133512980Y-69062160D01*
X133516078Y-69053760D01*
X133524209Y-69050009D01*
X133524671Y-69050000D01*
X133750329Y-69050000D01*
X133758602Y-69053427D01*
G37*
%TD.AperFunction*%
%TD*%
%TA.AperFunction,Conductor*%
%TO.N,Net-(U1D--)*%
G36*
X130604567Y-72307873D02*
G01*
X130609617Y-72314153D01*
X130616242Y-72333772D01*
X130616245Y-72333780D01*
X130640089Y-72378229D01*
X130640090Y-72378232D01*
X130668443Y-72410956D01*
X130668450Y-72410962D01*
X130705281Y-72435826D01*
X130705285Y-72435828D01*
X130744793Y-72448715D01*
X130797849Y-72450735D01*
X130848346Y-72439913D01*
X130919066Y-72400719D01*
X130927962Y-72399706D01*
X130933009Y-72402680D01*
X131094782Y-72564453D01*
X131098209Y-72572726D01*
X131094782Y-72580999D01*
X131094285Y-72581468D01*
X131049354Y-72621435D01*
X131049355Y-72621436D01*
X130944592Y-72715543D01*
X130944591Y-72715544D01*
X130809645Y-72855629D01*
X130809640Y-72855636D01*
X130743310Y-72955246D01*
X130743309Y-72955248D01*
X130729195Y-73009033D01*
X130723780Y-73016165D01*
X130714908Y-73017380D01*
X130711267Y-73015716D01*
X130333396Y-72756941D01*
X130328506Y-72749439D01*
X130329983Y-72741255D01*
X130588510Y-72311859D01*
X130595712Y-72306541D01*
X130604567Y-72307873D01*
G37*
%TD.AperFunction*%
%TD*%
%TA.AperFunction,Conductor*%
%TO.N,Net-(U1C-+)*%
G36*
X132249176Y-65988107D02*
G01*
X132252170Y-65994896D01*
X132259441Y-66073151D01*
X132280191Y-66152452D01*
X132311318Y-66227950D01*
X132311320Y-66227954D01*
X132357135Y-66307886D01*
X132412697Y-66382188D01*
X132484127Y-66458018D01*
X132484143Y-66458033D01*
X132563013Y-66525652D01*
X132563019Y-66525656D01*
X132652038Y-66587742D01*
X132743645Y-66639182D01*
X132916399Y-66705585D01*
X132916402Y-66705585D01*
X132916405Y-66705586D01*
X132937387Y-66708635D01*
X133039982Y-66723544D01*
X133047677Y-66728125D01*
X133050000Y-66735122D01*
X133050000Y-66964280D01*
X133046573Y-66972553D01*
X133039321Y-66975935D01*
X132957108Y-66983138D01*
X132957103Y-66983138D01*
X132957099Y-66983139D01*
X132957096Y-66983139D01*
X132957093Y-66983140D01*
X132859934Y-67004110D01*
X132755349Y-67037352D01*
X132561170Y-67127410D01*
X132407219Y-67234224D01*
X132300217Y-67346398D01*
X132236450Y-67459721D01*
X132216363Y-67552167D01*
X132211258Y-67559524D01*
X132202446Y-67561116D01*
X132196109Y-67557369D01*
X132012269Y-67346398D01*
X131456523Y-66708634D01*
X131453673Y-66700147D01*
X131457471Y-66692295D01*
X132232648Y-65987322D01*
X132241074Y-65984292D01*
X132249176Y-65988107D01*
G37*
%TD.AperFunction*%
%TD*%
%TA.AperFunction,Conductor*%
%TO.N,Net-(U1C-+)*%
G36*
X132969492Y-66659818D02*
G01*
X133598911Y-66838746D01*
X133605932Y-66844304D01*
X133606966Y-66853199D01*
X133601408Y-66860220D01*
X133598911Y-66861254D01*
X132970881Y-67039787D01*
X132961986Y-67038753D01*
X132957319Y-67033963D01*
X132948014Y-67016198D01*
X132927207Y-66997117D01*
X132870538Y-66976098D01*
X132856355Y-66975000D01*
X132804149Y-66970958D01*
X132804145Y-66970958D01*
X132804144Y-66970958D01*
X132791905Y-66971413D01*
X132740428Y-66973326D01*
X132712184Y-66974495D01*
X132703776Y-66971413D01*
X132700010Y-66963289D01*
X132700000Y-66962805D01*
X132700000Y-66737194D01*
X132703427Y-66728921D01*
X132711700Y-66725494D01*
X132712170Y-66725503D01*
X132740446Y-66726674D01*
X132740448Y-66726673D01*
X132740450Y-66726674D01*
X132796380Y-66725771D01*
X132866299Y-66724643D01*
X132928822Y-66701784D01*
X132956912Y-66664081D01*
X132964601Y-66659495D01*
X132969492Y-66659818D01*
G37*
%TD.AperFunction*%
%TD*%
%TA.AperFunction,Conductor*%
%TO.N,Net-(U1B-+)*%
G36*
X140038013Y-66661246D02*
G01*
X140042680Y-66666036D01*
X140051986Y-66683802D01*
X140072793Y-66702883D01*
X140129462Y-66723902D01*
X140195856Y-66729042D01*
X140259554Y-66726674D01*
X140287816Y-66725504D01*
X140296224Y-66728586D01*
X140299990Y-66736710D01*
X140300000Y-66737194D01*
X140300000Y-66962805D01*
X140296573Y-66971078D01*
X140288300Y-66974505D01*
X140287816Y-66974495D01*
X140259549Y-66973325D01*
X140133705Y-66975356D01*
X140133702Y-66975356D01*
X140133701Y-66975357D01*
X140071178Y-66998216D01*
X140071177Y-66998216D01*
X140071176Y-66998217D01*
X140043088Y-67035917D01*
X140035397Y-67040504D01*
X140030507Y-67040181D01*
X139401088Y-66861254D01*
X139394067Y-66855696D01*
X139393033Y-66846801D01*
X139398591Y-66839780D01*
X139401088Y-66838746D01*
X140029120Y-66660212D01*
X140038013Y-66661246D01*
G37*
%TD.AperFunction*%
%TD*%
%TA.AperFunction,Conductor*%
%TO.N,Net-(U1B-+)*%
G36*
X141668916Y-66436988D02*
G01*
X141674263Y-66444171D01*
X141674388Y-66444722D01*
X141750534Y-66822689D01*
X141750534Y-66827311D01*
X141674391Y-67205263D01*
X141669397Y-67212696D01*
X141660610Y-67214422D01*
X141660047Y-67214294D01*
X141562143Y-67189484D01*
X141560871Y-67189083D01*
X141475330Y-67156664D01*
X141473847Y-67155980D01*
X141343866Y-67084640D01*
X141343625Y-67084504D01*
X141264101Y-67038380D01*
X141264091Y-67038376D01*
X141140375Y-66992929D01*
X141140364Y-66992926D01*
X141058786Y-66979741D01*
X141058766Y-66979739D01*
X140968838Y-66975522D01*
X140960734Y-66971711D01*
X140957686Y-66963835D01*
X140957686Y-66735784D01*
X140961113Y-66727511D01*
X140968434Y-66724123D01*
X141092120Y-66714042D01*
X141191713Y-66684688D01*
X141269180Y-66642213D01*
X141337236Y-66591894D01*
X141387646Y-66553719D01*
X141388788Y-66552958D01*
X141508652Y-66483138D01*
X141510424Y-66482297D01*
X141582182Y-66455405D01*
X141583411Y-66455021D01*
X141660059Y-66435688D01*
X141668916Y-66436988D01*
G37*
%TD.AperFunction*%
%TD*%
%TA.AperFunction,Conductor*%
%TO.N,Net-(J1-Pin_2)*%
G36*
X110672526Y-64340137D02*
G01*
X110834175Y-64501786D01*
X110837602Y-64510059D01*
X110834540Y-64517950D01*
X110669976Y-64698102D01*
X110669970Y-64698109D01*
X110553432Y-64861023D01*
X110492292Y-64989840D01*
X110492289Y-64989850D01*
X110477358Y-65075317D01*
X110472559Y-65082877D01*
X110463819Y-65084828D01*
X110462038Y-65084371D01*
X110004975Y-64927655D01*
X109998261Y-64921730D01*
X109997566Y-64919958D01*
X109884614Y-64543869D01*
X109885517Y-64534961D01*
X109892455Y-64529299D01*
X109898229Y-64529056D01*
X109987178Y-64547767D01*
X109987177Y-64547767D01*
X110081396Y-64553371D01*
X110081397Y-64553370D01*
X110081400Y-64553371D01*
X110175270Y-64547689D01*
X110277137Y-64529906D01*
X110374244Y-64501977D01*
X110466477Y-64464894D01*
X110548856Y-64421389D01*
X110657175Y-64339093D01*
X110665836Y-64336818D01*
X110672526Y-64340137D01*
G37*
%TD.AperFunction*%
%TD*%
%TA.AperFunction,Conductor*%
%TO.N,Net-(J1-Pin_2)*%
G36*
X112454453Y-60773851D02*
G01*
X112868910Y-60944697D01*
X112929868Y-60969825D01*
X112936211Y-60976146D01*
X112936226Y-60985101D01*
X112936217Y-60985123D01*
X112459782Y-62134387D01*
X112453448Y-62140717D01*
X112444493Y-62140714D01*
X112438163Y-62134380D01*
X112437296Y-62130616D01*
X112434904Y-62091265D01*
X112422086Y-62023845D01*
X112422085Y-62023844D01*
X112422085Y-62023840D01*
X112403164Y-61971640D01*
X112379308Y-61932339D01*
X112349475Y-61902877D01*
X112349472Y-61902875D01*
X112317024Y-61885333D01*
X112317021Y-61885332D01*
X112276747Y-61877709D01*
X112276746Y-61877709D01*
X112267032Y-61878823D01*
X112237890Y-61882167D01*
X112237888Y-61882168D01*
X112182537Y-61912692D01*
X112173637Y-61913687D01*
X112168614Y-61910720D01*
X112005690Y-61747796D01*
X112002263Y-61739523D01*
X112005048Y-61731945D01*
X112114287Y-61603498D01*
X112256364Y-61380228D01*
X112361326Y-61151592D01*
X112421357Y-60944697D01*
X112438360Y-60783438D01*
X112442635Y-60775574D01*
X112451222Y-60773033D01*
X112454453Y-60773851D01*
G37*
%TD.AperFunction*%
%TD*%
%TA.AperFunction,Conductor*%
%TO.N,Net-(D2-K)*%
G36*
X125414893Y-73870451D02*
G01*
X125693187Y-74001541D01*
X125896300Y-74097217D01*
X125902324Y-74103843D01*
X125902338Y-74103881D01*
X126071998Y-74580902D01*
X126071541Y-74589845D01*
X126064895Y-74595847D01*
X126058856Y-74596330D01*
X125997537Y-74585044D01*
X125921014Y-74580112D01*
X125913739Y-74579644D01*
X125913738Y-74579644D01*
X125808509Y-74584819D01*
X125808489Y-74584821D01*
X125703063Y-74601499D01*
X125587859Y-74631571D01*
X125587858Y-74631571D01*
X125551128Y-74644894D01*
X125477668Y-74671540D01*
X125477659Y-74671544D01*
X125373965Y-74719782D01*
X125373950Y-74719790D01*
X125281125Y-74773453D01*
X125159587Y-74868937D01*
X125150964Y-74871354D01*
X125144086Y-74868010D01*
X124982461Y-74706385D01*
X124979034Y-74698112D01*
X124982000Y-74690327D01*
X125034365Y-74631572D01*
X125073525Y-74587634D01*
X125073535Y-74587620D01*
X125223465Y-74375090D01*
X125223465Y-74375088D01*
X125223471Y-74375081D01*
X125329019Y-74172642D01*
X125385444Y-74001541D01*
X125398274Y-73879808D01*
X125402549Y-73871942D01*
X125411135Y-73869401D01*
X125414893Y-73870451D01*
G37*
%TD.AperFunction*%
%TD*%
%TA.AperFunction,Conductor*%
%TO.N,Net-(D2-K)*%
G36*
X128373418Y-73639809D02*
G01*
X128534914Y-73801305D01*
X128538341Y-73809578D01*
X128535408Y-73817326D01*
X128497517Y-73860201D01*
X128478503Y-73881717D01*
X128478501Y-73881719D01*
X128478500Y-73881721D01*
X128478496Y-73881725D01*
X128368077Y-74047983D01*
X128297019Y-74209632D01*
X128297018Y-74209635D01*
X128267842Y-74349212D01*
X128267842Y-74349222D01*
X128274077Y-74450677D01*
X128271164Y-74459145D01*
X128263117Y-74463073D01*
X128260225Y-74462891D01*
X127805523Y-74376885D01*
X127798030Y-74371980D01*
X127796880Y-74369848D01*
X127640449Y-73989898D01*
X127640468Y-73980945D01*
X127646814Y-73974626D01*
X127650375Y-73973780D01*
X127771241Y-73964603D01*
X127872798Y-73937963D01*
X127973120Y-73898827D01*
X128089923Y-73839003D01*
X128196941Y-73771123D01*
X128357718Y-73639042D01*
X128366286Y-73636438D01*
X128373418Y-73639809D01*
G37*
%TD.AperFunction*%
%TD*%
%TA.AperFunction,Conductor*%
%TO.N,Net-(D2-K)*%
G36*
X123774834Y-74913345D02*
G01*
X123776004Y-74916673D01*
X123784399Y-74961107D01*
X123784400Y-74961110D01*
X123803608Y-75003200D01*
X123803609Y-75003202D01*
X123803612Y-75003207D01*
X123839826Y-75048968D01*
X123839828Y-75048969D01*
X123839830Y-75048972D01*
X123886339Y-75086995D01*
X123886342Y-75086997D01*
X123958941Y-75126465D01*
X124036067Y-75153675D01*
X124165076Y-75173476D01*
X124172733Y-75178119D01*
X124175000Y-75185041D01*
X124175000Y-75414680D01*
X124171573Y-75422953D01*
X124164760Y-75426288D01*
X124066446Y-75438656D01*
X124066441Y-75438658D01*
X123937984Y-75483228D01*
X123937983Y-75483228D01*
X123937982Y-75483229D01*
X123846717Y-75544385D01*
X123793387Y-75615979D01*
X123793385Y-75615984D01*
X123778300Y-75684915D01*
X123773184Y-75692265D01*
X123764370Y-75693843D01*
X123761371Y-75692741D01*
X123043387Y-75310326D01*
X123037697Y-75303413D01*
X123038561Y-75294500D01*
X123043386Y-75289674D01*
X123759007Y-74908517D01*
X123767920Y-74907654D01*
X123774834Y-74913345D01*
G37*
%TD.AperFunction*%
%TD*%
%TA.AperFunction,Conductor*%
%TO.N,Net-(D2-K)*%
G36*
X128683106Y-72758380D02*
G01*
X128683530Y-72758871D01*
X129005856Y-73153487D01*
X129008436Y-73162062D01*
X129004196Y-73169949D01*
X129000657Y-73171932D01*
X128965648Y-73184173D01*
X128913126Y-73221407D01*
X128864267Y-73273378D01*
X128801425Y-73365961D01*
X128748700Y-73468945D01*
X128748697Y-73468952D01*
X128703503Y-73582063D01*
X128680639Y-73658037D01*
X128674973Y-73664971D01*
X128666063Y-73665869D01*
X128661162Y-73662938D01*
X128502320Y-73504096D01*
X128498893Y-73495823D01*
X128498998Y-73494259D01*
X128505052Y-73449366D01*
X128492001Y-73330780D01*
X128448033Y-73226672D01*
X128448031Y-73226670D01*
X128448030Y-73226667D01*
X128380359Y-73149628D01*
X128380357Y-73149626D01*
X128304829Y-73109329D01*
X128299143Y-73102411D01*
X128300014Y-73093498D01*
X128302442Y-73090371D01*
X128666578Y-72757634D01*
X128674996Y-72754584D01*
X128683106Y-72758380D01*
G37*
%TD.AperFunction*%
%TD*%
%TA.AperFunction,Conductor*%
%TO.N,Net-(D2-K)*%
G36*
X125009951Y-71505151D02*
G01*
X125016122Y-71508965D01*
X126428210Y-72381798D01*
X126433445Y-72389063D01*
X126432010Y-72397902D01*
X126424745Y-72403137D01*
X126423678Y-72403337D01*
X126407797Y-72405557D01*
X126407792Y-72405558D01*
X126407792Y-72405559D01*
X126360070Y-72425979D01*
X126315348Y-72458589D01*
X126315340Y-72458596D01*
X126262589Y-72515615D01*
X126262578Y-72515628D01*
X126214873Y-72586885D01*
X126160651Y-72695284D01*
X126115252Y-72815274D01*
X126073739Y-72960369D01*
X126044745Y-73100676D01*
X126026045Y-73289453D01*
X126021819Y-73297348D01*
X126014402Y-73300000D01*
X125785983Y-73300000D01*
X125777710Y-73296573D01*
X125774332Y-73289368D01*
X125768603Y-73226851D01*
X125768602Y-73226848D01*
X125768602Y-73226846D01*
X125751006Y-73156005D01*
X125719932Y-73078735D01*
X125712492Y-73065378D01*
X125677019Y-73001695D01*
X125677015Y-73001689D01*
X125677014Y-73001687D01*
X125619546Y-72921447D01*
X125550407Y-72843385D01*
X125520318Y-72815274D01*
X125468666Y-72767017D01*
X125468649Y-72767003D01*
X125376435Y-72694988D01*
X125166706Y-72569590D01*
X125166694Y-72569584D01*
X124934461Y-72476114D01*
X124690953Y-72419078D01*
X124463260Y-72401478D01*
X124455276Y-72397424D01*
X124452497Y-72388911D01*
X124454204Y-72383672D01*
X124993853Y-71508963D01*
X125001111Y-71503723D01*
X125009951Y-71505151D01*
G37*
%TD.AperFunction*%
%TD*%
%TA.AperFunction,Conductor*%
%TO.N,Net-(D2-K)*%
G36*
X126021830Y-73103427D02*
G01*
X126025254Y-73111441D01*
X126025477Y-73121558D01*
X126025479Y-73121573D01*
X126055165Y-73304071D01*
X126118417Y-73480272D01*
X126198647Y-73614976D01*
X126198649Y-73614978D01*
X126286885Y-73704587D01*
X126364303Y-73745517D01*
X126370016Y-73752413D01*
X126369178Y-73761328D01*
X126365676Y-73765351D01*
X125906841Y-74096069D01*
X125898126Y-74098127D01*
X125893159Y-74096069D01*
X125769885Y-74007217D01*
X125435333Y-73766080D01*
X125430626Y-73758464D01*
X125432684Y-73749749D01*
X125437298Y-73745955D01*
X125483013Y-73725001D01*
X125538959Y-73683258D01*
X125588848Y-73630776D01*
X125642366Y-73554237D01*
X125686715Y-73469127D01*
X125726877Y-73365172D01*
X125754868Y-73262491D01*
X125773729Y-73110261D01*
X125778147Y-73102472D01*
X125785340Y-73100000D01*
X126013557Y-73100000D01*
X126021830Y-73103427D01*
G37*
%TD.AperFunction*%
%TD*%
%TA.AperFunction,Conductor*%
%TO.N,Net-(D2-K)*%
G36*
X128797487Y-71878427D02*
G01*
X128800875Y-71885750D01*
X128808482Y-71979175D01*
X128808482Y-71979177D01*
X128848646Y-72143764D01*
X128848648Y-72143771D01*
X128908516Y-72270304D01*
X128979429Y-72353302D01*
X128979430Y-72353303D01*
X129012905Y-72372118D01*
X129045695Y-72390548D01*
X129051228Y-72397589D01*
X129050161Y-72406480D01*
X129047866Y-72409374D01*
X128682904Y-72743758D01*
X128674489Y-72746820D01*
X128667096Y-72743758D01*
X128303355Y-72410493D01*
X128299570Y-72402377D01*
X128302632Y-72393962D01*
X128306478Y-72391188D01*
X128335014Y-72378417D01*
X128374962Y-72349546D01*
X128422110Y-72298303D01*
X128461040Y-72236735D01*
X128500872Y-72145135D01*
X128528207Y-72049996D01*
X128544776Y-71954859D01*
X128549285Y-71885936D01*
X128553245Y-71877904D01*
X128560960Y-71875000D01*
X128789214Y-71875000D01*
X128797487Y-71878427D01*
G37*
%TD.AperFunction*%
%TD*%
%TA.AperFunction,Conductor*%
%TO.N,Net-(D2-K)*%
G36*
X128682902Y-71256240D02*
G01*
X128869151Y-71426883D01*
X129046644Y-71589506D01*
X129050429Y-71597622D01*
X129047367Y-71606037D01*
X129043520Y-71608812D01*
X129014986Y-71621583D01*
X128975041Y-71650451D01*
X128927892Y-71701694D01*
X128888960Y-71763266D01*
X128888958Y-71763270D01*
X128849131Y-71854854D01*
X128849125Y-71854871D01*
X128821793Y-71950002D01*
X128805222Y-72045150D01*
X128800715Y-72114064D01*
X128796755Y-72122096D01*
X128789040Y-72125000D01*
X128560786Y-72125000D01*
X128552513Y-72121573D01*
X128549125Y-72114250D01*
X128541517Y-72020825D01*
X128541517Y-72020822D01*
X128501354Y-71856237D01*
X128501352Y-71856230D01*
X128441484Y-71729696D01*
X128370570Y-71646698D01*
X128370569Y-71646697D01*
X128304304Y-71609451D01*
X128298771Y-71602410D01*
X128299838Y-71593519D01*
X128302130Y-71590627D01*
X128667097Y-71256240D01*
X128675511Y-71253179D01*
X128682902Y-71256240D01*
G37*
%TD.AperFunction*%
%TD*%
%TA.AperFunction,Conductor*%
%TO.N,Net-(D2-K)*%
G36*
X127456480Y-73999838D02*
G01*
X127459374Y-74002133D01*
X127793758Y-74367096D01*
X127796820Y-74375511D01*
X127793758Y-74382904D01*
X127460493Y-74746644D01*
X127452377Y-74750429D01*
X127443962Y-74747367D01*
X127441187Y-74743519D01*
X127428418Y-74714987D01*
X127399548Y-74675041D01*
X127399546Y-74675038D01*
X127369831Y-74647698D01*
X127348305Y-74627891D01*
X127330139Y-74616405D01*
X127286735Y-74588960D01*
X127276250Y-74584400D01*
X127195145Y-74549131D01*
X127195128Y-74549125D01*
X127099998Y-74521793D01*
X127004849Y-74505222D01*
X126935936Y-74500715D01*
X126927904Y-74496755D01*
X126925000Y-74489040D01*
X126925000Y-74260785D01*
X126928427Y-74252512D01*
X126935749Y-74249124D01*
X127029179Y-74241517D01*
X127193769Y-74201352D01*
X127320303Y-74141484D01*
X127403302Y-74070571D01*
X127440549Y-74004302D01*
X127447589Y-73998771D01*
X127456480Y-73999838D01*
G37*
%TD.AperFunction*%
%TD*%
%TA.AperFunction,Conductor*%
%TO.N,Net-(D2-K)*%
G36*
X126348422Y-73720723D02*
G01*
X126351220Y-73726831D01*
X126358292Y-73777607D01*
X126380039Y-73852939D01*
X126411458Y-73922649D01*
X126456101Y-73993433D01*
X126456103Y-73993436D01*
X126456106Y-73993440D01*
X126508874Y-74056480D01*
X126508878Y-74056484D01*
X126508882Y-74056488D01*
X126573042Y-74115758D01*
X126573044Y-74115760D01*
X126573049Y-74115764D01*
X126641705Y-74164893D01*
X126641707Y-74164894D01*
X126641710Y-74164896D01*
X126781263Y-74230480D01*
X126885306Y-74248332D01*
X126892880Y-74253108D01*
X126895027Y-74259863D01*
X126895027Y-74488258D01*
X126891600Y-74496531D01*
X126883327Y-74499958D01*
X126883286Y-74499958D01*
X126846318Y-74499829D01*
X126843035Y-74499818D01*
X126843029Y-74499818D01*
X126843012Y-74499818D01*
X126590003Y-74502674D01*
X126589996Y-74502674D01*
X126361724Y-74523116D01*
X126361720Y-74523116D01*
X126223279Y-74557746D01*
X126223271Y-74557749D01*
X126160738Y-74593807D01*
X126151860Y-74594971D01*
X126144758Y-74589515D01*
X126144438Y-74588920D01*
X125974300Y-74250000D01*
X125903052Y-74108073D01*
X125902403Y-74099144D01*
X125905785Y-74094038D01*
X126331911Y-73719654D01*
X126340387Y-73716769D01*
X126348422Y-73720723D01*
G37*
%TD.AperFunction*%
%TD*%
%TA.AperFunction,Conductor*%
%TO.N,Net-(D2-A)*%
G36*
X127456483Y-75649820D02*
G01*
X127459358Y-75652103D01*
X127793467Y-76016399D01*
X127796533Y-76024812D01*
X127793481Y-76032199D01*
X127460857Y-76396212D01*
X127452747Y-76400008D01*
X127444328Y-76396957D01*
X127441584Y-76393195D01*
X127436015Y-76381043D01*
X127421110Y-76348520D01*
X127386520Y-76300046D01*
X127386518Y-76300044D01*
X127386518Y-76300043D01*
X127336136Y-76251427D01*
X127336131Y-76251422D01*
X127278768Y-76212416D01*
X127278761Y-76212412D01*
X127278756Y-76212410D01*
X127209607Y-76179617D01*
X127209594Y-76179611D01*
X127140297Y-76158442D01*
X127140294Y-76158441D01*
X127140292Y-76158441D01*
X127032282Y-76149110D01*
X127025016Y-76145726D01*
X126866987Y-75987697D01*
X126863560Y-75979424D01*
X126866987Y-75971151D01*
X126873128Y-75967920D01*
X126979336Y-75948269D01*
X127169115Y-75882212D01*
X127313171Y-75801897D01*
X127403299Y-75720296D01*
X127440544Y-75654262D01*
X127447593Y-75648741D01*
X127456483Y-75649820D01*
G37*
%TD.AperFunction*%
%TD*%
%TA.AperFunction,Conductor*%
%TO.N,Net-(D2-A)*%
G36*
X123775224Y-76176458D02*
G01*
X123776215Y-76180387D01*
X123777682Y-76200483D01*
X123791414Y-76252012D01*
X123791415Y-76252016D01*
X123791416Y-76252017D01*
X123815220Y-76297824D01*
X123855951Y-76346772D01*
X123905999Y-76387413D01*
X123976580Y-76426950D01*
X124049859Y-76454390D01*
X124049866Y-76454391D01*
X124049869Y-76454392D01*
X124129034Y-76467429D01*
X124165201Y-76473386D01*
X124172808Y-76478111D01*
X124175000Y-76484930D01*
X124175000Y-76713783D01*
X124171573Y-76722056D01*
X124163794Y-76725473D01*
X124098146Y-76728248D01*
X123947816Y-76752454D01*
X123847612Y-76791858D01*
X123847608Y-76791861D01*
X123793359Y-76840118D01*
X123779160Y-76886431D01*
X123773459Y-76893336D01*
X123764544Y-76894187D01*
X123762474Y-76893328D01*
X123045097Y-76511236D01*
X123039406Y-76504322D01*
X123040270Y-76495409D01*
X123045814Y-76490232D01*
X123759766Y-76170560D01*
X123768716Y-76170307D01*
X123775224Y-76176458D01*
G37*
%TD.AperFunction*%
%TD*%
%TA.AperFunction,Conductor*%
%TO.N,Net-(D2-A)*%
G36*
X125561328Y-76130821D02*
G01*
X125565351Y-76134323D01*
X125896069Y-76593159D01*
X125898127Y-76601874D01*
X125896069Y-76606841D01*
X125566081Y-77064665D01*
X125558464Y-77069373D01*
X125549749Y-77067315D01*
X125545954Y-77062699D01*
X125525000Y-77016985D01*
X125483259Y-76961042D01*
X125483255Y-76961037D01*
X125430779Y-76911155D01*
X125430778Y-76911154D01*
X125430776Y-76911152D01*
X125354237Y-76857634D01*
X125269127Y-76813285D01*
X125165173Y-76773123D01*
X125062496Y-76745133D01*
X125062482Y-76745130D01*
X124910261Y-76726271D01*
X124902472Y-76721853D01*
X124900000Y-76714660D01*
X124900000Y-76486443D01*
X124903427Y-76478170D01*
X124911440Y-76474746D01*
X124921562Y-76474522D01*
X125104073Y-76444834D01*
X125280271Y-76381583D01*
X125414978Y-76301351D01*
X125504587Y-76213115D01*
X125545518Y-76135694D01*
X125552413Y-76129983D01*
X125561328Y-76130821D01*
G37*
%TD.AperFunction*%
%TD*%
%TA.AperFunction,Conductor*%
%TO.N,Net-(D2-A)*%
G36*
X126157768Y-76110616D02*
G01*
X126161451Y-76113509D01*
X126173725Y-76127988D01*
X126215349Y-76160528D01*
X126263065Y-76182988D01*
X126329945Y-76198677D01*
X126329949Y-76198677D01*
X126329953Y-76198678D01*
X126401041Y-76202117D01*
X126401041Y-76202116D01*
X126401044Y-76202117D01*
X126492190Y-76192371D01*
X126578782Y-76171049D01*
X126701786Y-76117318D01*
X126710739Y-76117148D01*
X126714742Y-76119768D01*
X126876197Y-76281223D01*
X126879624Y-76289496D01*
X126876197Y-76297769D01*
X126874810Y-76298955D01*
X126757894Y-76384058D01*
X126757884Y-76384067D01*
X126589989Y-76542728D01*
X126589987Y-76542731D01*
X126471661Y-76694299D01*
X126471656Y-76694306D01*
X126405798Y-76824328D01*
X126405796Y-76824333D01*
X126387039Y-76915710D01*
X126382019Y-76923125D01*
X126373225Y-76924818D01*
X126368958Y-76923004D01*
X125907699Y-76606475D01*
X125902816Y-76598968D01*
X125903856Y-76591592D01*
X126142069Y-76115838D01*
X126148836Y-76109976D01*
X126157768Y-76110616D01*
G37*
%TD.AperFunction*%
%TD*%
%TA.AperFunction,Conductor*%
%TO.N,Net-(JP1-A)*%
G36*
X106854723Y-63057614D02*
G01*
X106859738Y-63063791D01*
X106870777Y-63095513D01*
X106899753Y-63148312D01*
X106934657Y-63190601D01*
X106934658Y-63190602D01*
X106979311Y-63226698D01*
X107004749Y-63239786D01*
X107027320Y-63251399D01*
X107082282Y-63266865D01*
X107135489Y-63270920D01*
X107214477Y-63253859D01*
X107223286Y-63255462D01*
X107225219Y-63257022D01*
X107386028Y-63417831D01*
X107389455Y-63426104D01*
X107386028Y-63434377D01*
X107383004Y-63436560D01*
X107346171Y-63455051D01*
X107346160Y-63455057D01*
X107171067Y-63561927D01*
X107171063Y-63561930D01*
X107050012Y-63664179D01*
X106985751Y-63750988D01*
X106969896Y-63807700D01*
X106964368Y-63814745D01*
X106955478Y-63815818D01*
X106951156Y-63813552D01*
X106582028Y-63507128D01*
X106577852Y-63499208D01*
X106579478Y-63492094D01*
X106838666Y-63061600D01*
X106845868Y-63056282D01*
X106854723Y-63057614D01*
G37*
%TD.AperFunction*%
%TD*%
%TA.AperFunction,Conductor*%
%TO.N,Net-(JP1-A)*%
G36*
X109242890Y-61415732D02*
G01*
X109243475Y-61423897D01*
X109106040Y-61891538D01*
X109100420Y-61898509D01*
X109094735Y-61899939D01*
X109045603Y-61899602D01*
X108987929Y-61913425D01*
X108987922Y-61913427D01*
X108877684Y-61971192D01*
X108781269Y-62048268D01*
X108715480Y-62111604D01*
X108707144Y-62114873D01*
X108699093Y-62111448D01*
X108538276Y-61950631D01*
X108534849Y-61942358D01*
X108537844Y-61934541D01*
X108591068Y-61875309D01*
X108630355Y-61804777D01*
X108633901Y-61747880D01*
X108633900Y-61747877D01*
X108622122Y-61721646D01*
X108622119Y-61721642D01*
X108610355Y-61709118D01*
X108607189Y-61700742D01*
X108610873Y-61692580D01*
X108614013Y-61690470D01*
X109227386Y-61409957D01*
X109236333Y-61409634D01*
X109242890Y-61415732D01*
G37*
%TD.AperFunction*%
%TD*%
%TA.AperFunction,Conductor*%
%TO.N,Net-(J4-In)*%
G36*
X136098164Y-90898606D02*
G01*
X136098454Y-90899019D01*
X136496638Y-91493489D01*
X136498395Y-91502270D01*
X136496638Y-91506511D01*
X136098361Y-92101119D01*
X136090910Y-92106086D01*
X136082129Y-92104329D01*
X136081847Y-92104134D01*
X135920433Y-91989019D01*
X135919992Y-91988689D01*
X135913673Y-91983718D01*
X135786898Y-91883995D01*
X135786872Y-91883975D01*
X135786844Y-91883953D01*
X135723036Y-91834964D01*
X135640860Y-91771873D01*
X135501372Y-91693655D01*
X135421719Y-91665656D01*
X135421715Y-91665655D01*
X135401591Y-91661123D01*
X135329637Y-91644920D01*
X135329640Y-91644920D01*
X135201372Y-91629990D01*
X135201364Y-91629989D01*
X135055452Y-91625359D01*
X135047292Y-91621672D01*
X135044123Y-91613665D01*
X135044123Y-91385995D01*
X135047550Y-91377722D01*
X135055096Y-91374318D01*
X135307487Y-91358634D01*
X135407577Y-91338244D01*
X135493098Y-91309776D01*
X135568921Y-91273273D01*
X135568921Y-91273272D01*
X135568925Y-91273271D01*
X135604418Y-91251026D01*
X135639915Y-91228780D01*
X135786897Y-91116006D01*
X135838237Y-91074925D01*
X135838526Y-91074703D01*
X136081809Y-90896098D01*
X136090506Y-90893965D01*
X136098164Y-90898606D01*
G37*
%TD.AperFunction*%
%TD*%
%TA.AperFunction,Conductor*%
%TO.N,Net-(J1-Pin_6)*%
G36*
X122792326Y-67264591D02*
G01*
X122856717Y-67321497D01*
X122856722Y-67321500D01*
X122856725Y-67321503D01*
X122940777Y-67377326D01*
X123022985Y-67431924D01*
X123184632Y-67502980D01*
X123184635Y-67502981D01*
X123324212Y-67532157D01*
X123324215Y-67532157D01*
X123324220Y-67532158D01*
X123425677Y-67525922D01*
X123434144Y-67528835D01*
X123438072Y-67536882D01*
X123437890Y-67539774D01*
X123351885Y-67994476D01*
X123346980Y-68001969D01*
X123344843Y-68003121D01*
X122964899Y-68159550D01*
X122955945Y-68159531D01*
X122949626Y-68153185D01*
X122948780Y-68149622D01*
X122939603Y-68028758D01*
X122912963Y-67927202D01*
X122873826Y-67826880D01*
X122814002Y-67710077D01*
X122746123Y-67603058D01*
X122614040Y-67442280D01*
X122611437Y-67433714D01*
X122614807Y-67426583D01*
X122776306Y-67265084D01*
X122784578Y-67261658D01*
X122792326Y-67264591D01*
G37*
%TD.AperFunction*%
%TD*%
%TA.AperFunction,Conductor*%
%TO.N,Net-(J1-Pin_6)*%
G36*
X118033544Y-61021537D02*
G01*
X118035464Y-61025183D01*
X118515962Y-62537294D01*
X118515201Y-62546216D01*
X118508354Y-62551988D01*
X118506876Y-62552353D01*
X118435412Y-62565167D01*
X118435407Y-62565169D01*
X118411523Y-62582837D01*
X118411522Y-62582838D01*
X118398629Y-62605516D01*
X118398628Y-62605517D01*
X118396984Y-62650877D01*
X118413371Y-62700586D01*
X118453940Y-62769128D01*
X118485171Y-62806963D01*
X118487795Y-62815525D01*
X118484421Y-62822684D01*
X118323730Y-62983375D01*
X118315457Y-62986802D01*
X118307184Y-62983375D01*
X118306902Y-62983084D01*
X118213677Y-62883169D01*
X118213604Y-62883089D01*
X118198455Y-62866549D01*
X118147420Y-62810828D01*
X118037610Y-62700586D01*
X117980495Y-62643246D01*
X117980487Y-62643239D01*
X117880275Y-62568435D01*
X117880272Y-62568434D01*
X117832513Y-62552977D01*
X117825698Y-62547170D01*
X117824506Y-62540404D01*
X118012702Y-61027280D01*
X118017124Y-61019495D01*
X118025757Y-61017115D01*
X118033544Y-61021537D01*
G37*
%TD.AperFunction*%
%TD*%
M02*
