M48
; DRILL file {KiCad 9.0.7} date 2026-02-15T21:40:01-0500
; FORMAT={-:-/ absolute / metric / decimal}
; #@! TF.CreationDate,2026-02-15T21:40:01-05:00
; #@! TF.GenerationSoftware,Kicad,Pcbnew,9.0.7
; #@! TF.FileFunction,Plated,1,2,PTH
FMAT,2
METRIC
; #@! TA.AperFunction,Plated,PTH,ViaDrill
T1C0.400
%
G90
G05
T1
X103.75Y-63.25
X104.25Y-92.5
X106.25Y-78.5
X106.25Y-79.5
X106.25Y-80.5
X106.25Y-81.5
X106.25Y-82.5
X106.25Y-83.5
X106.25Y-84.5
X107.25Y-78.0
X107.25Y-79.0
X107.25Y-80.0
X107.25Y-81.0
X107.25Y-82.0
X107.25Y-83.0
X107.25Y-84.0
X107.25Y-85.0
X109.75Y-92.5
X111.0Y-69.75
X111.0Y-72.5
X111.5Y-70.75
X112.0Y-69.75
X112.0Y-72.5
X112.5Y-70.75
X112.5Y-88.5
X113.0Y-69.75
X113.0Y-72.5
X113.0Y-73.5
X113.0Y-89.5
X113.5Y-70.75
X113.5Y-88.5
X114.0Y-69.75
X114.0Y-73.0
X114.0Y-74.0
X114.0Y-75.0
X114.0Y-76.0
X114.0Y-77.0
X114.0Y-78.0
X114.0Y-79.0
X114.0Y-80.0
X114.0Y-81.0
X114.0Y-82.0
X114.0Y-83.0
X114.0Y-84.0
X114.0Y-85.0
X114.0Y-86.0
X114.0Y-89.5
X114.5Y-70.75
X114.5Y-88.5
X115.0Y-69.75
X115.0Y-72.5
X115.0Y-73.5
X115.0Y-74.5
X115.0Y-75.5
X115.0Y-76.5
X115.0Y-77.5
X115.0Y-78.5
X115.0Y-79.5
X115.0Y-80.5
X115.0Y-81.5
X115.0Y-82.5
X115.0Y-83.5
X115.0Y-84.5
X115.0Y-85.5
X115.0Y-86.5
X115.0Y-89.5
X115.5Y-70.75
X115.5Y-88.5
X116.0Y-69.75
X116.0Y-73.0
X116.0Y-74.0
X116.0Y-75.0
X116.0Y-76.0
X116.0Y-77.0
X116.0Y-78.0
X116.0Y-79.0
X116.0Y-80.0
X116.0Y-81.0
X116.0Y-82.0
X116.0Y-83.0
X116.0Y-84.0
X116.0Y-85.0
X116.0Y-86.0
X116.0Y-89.5
X116.5Y-70.75
X116.5Y-88.5
X117.0Y-69.75
X117.0Y-72.5
X117.0Y-73.5
X117.0Y-74.5
X117.0Y-75.5
X117.0Y-76.5
X117.0Y-77.5
X117.0Y-78.5
X117.0Y-79.5
X117.0Y-80.5
X117.0Y-81.5
X117.0Y-82.5
X117.0Y-83.5
X117.0Y-84.5
X117.0Y-85.5
X117.0Y-86.5
X117.0Y-89.5
X117.5Y-70.75
X117.5Y-88.5
X118.0Y-69.75
X118.0Y-73.0
X118.0Y-74.0
X118.0Y-75.0
X118.0Y-76.0
X118.0Y-77.0
X118.0Y-78.0
X118.0Y-79.0
X118.0Y-80.0
X118.0Y-81.0
X118.0Y-82.0
X118.0Y-83.0
X118.0Y-84.0
X118.0Y-85.0
X118.0Y-86.0
X118.0Y-89.5
X118.5Y-70.75
X118.5Y-88.5
X119.0Y-69.75
X119.0Y-72.5
X119.0Y-73.5
X119.0Y-74.5
X119.0Y-75.5
X119.0Y-76.5
X119.0Y-77.5
X119.0Y-78.5
X119.0Y-79.5
X119.0Y-80.5
X119.0Y-81.5
X119.0Y-82.5
X119.0Y-83.5
X119.0Y-84.5
X119.0Y-85.5
X119.0Y-86.5
X119.0Y-89.5
X119.5Y-70.75
X119.5Y-88.5
X120.0Y-69.75
X120.0Y-73.0
X120.0Y-74.0
X120.0Y-75.0
X120.0Y-76.0
X120.0Y-77.0
X120.0Y-78.0
X120.0Y-79.0
X120.0Y-80.0
X120.0Y-81.0
X120.0Y-82.0
X120.0Y-83.0
X120.0Y-84.0
X120.0Y-85.0
X120.0Y-86.0
X120.0Y-89.5
X120.5Y-70.75
X120.5Y-88.5
X121.0Y-69.75
X121.0Y-72.5
X121.0Y-73.5
X121.0Y-78.5
X121.0Y-79.5
X121.0Y-80.5
X121.0Y-81.5
X121.0Y-82.5
X121.0Y-83.5
X121.0Y-84.5
X121.0Y-85.5
X121.0Y-86.5
X121.5Y-70.75
X122.0Y-69.75
X122.0Y-78.0
X122.0Y-79.0
X122.0Y-80.0
X122.0Y-81.0
X122.0Y-82.0
X122.0Y-83.0
X122.0Y-84.0
X122.0Y-85.0
X122.0Y-86.0
X123.0Y-78.5
X123.0Y-79.5
X123.0Y-80.5
X123.0Y-81.5
X123.0Y-82.5
X123.0Y-83.5
X123.0Y-84.5
X123.0Y-85.5
X123.0Y-86.5
X124.0Y-78.0
X124.0Y-79.0
X124.0Y-80.0
X124.0Y-81.0
X124.0Y-82.0
X124.0Y-83.0
X124.0Y-84.0
X124.0Y-85.0
X124.0Y-86.0
X125.0Y-78.5
X125.0Y-79.5
X125.0Y-80.5
X125.0Y-81.5
X125.0Y-82.5
X125.0Y-83.5
X125.0Y-84.5
X125.0Y-85.5
X125.0Y-86.5
X126.0Y-78.0
X126.0Y-79.0
X126.0Y-80.0
X126.0Y-81.0
X126.0Y-82.0
X126.0Y-83.0
X126.0Y-84.0
X126.0Y-85.0
X126.0Y-86.0
X126.75Y-66.75
X127.25Y-61.75
X127.75Y-77.5
X127.75Y-78.5
X127.75Y-79.5
X127.75Y-80.5
X127.75Y-81.5
X127.75Y-82.5
X128.5Y-63.675
X128.5Y-65.325
X128.5Y-68.325
X128.75Y-78.0
X128.75Y-79.0
X128.75Y-80.0
X128.75Y-81.0
X128.75Y-82.0
X134.25Y-65.225
X135.25Y-66.25
X135.725Y-67.5
X136.5Y-64.0
X137.0Y-74.5
X137.0Y-76.5
X137.0Y-78.5
X137.0Y-80.5
X137.0Y-82.5
X137.0Y-84.5
X137.275Y-67.5
X138.0Y-66.25
X138.0Y-75.5
X138.0Y-77.5
X138.0Y-79.5
X138.0Y-81.5
X138.0Y-83.5
X138.75Y-65.225
X139.0Y-74.5
X139.0Y-76.5
X139.0Y-78.5
X139.0Y-80.5
X139.0Y-82.5
X139.0Y-84.5
X139.75Y-69.775
X140.0Y-75.5
X140.0Y-77.5
X140.0Y-79.5
X140.0Y-81.5
X140.0Y-83.5
X140.825Y-60.75
X140.825Y-63.25
X141.0Y-74.5
X141.0Y-76.5
X141.0Y-78.5
X141.0Y-80.5
X141.0Y-82.5
X141.0Y-84.5
X141.25Y-68.175
X141.25Y-69.825
X141.75Y-66.825
X142.0Y-75.5
X142.0Y-77.5
X142.0Y-79.5
X142.0Y-81.5
X142.0Y-83.5
X142.75Y-69.25
X143.0Y-74.5
X143.0Y-76.5
X143.0Y-78.5
X143.0Y-80.5
X143.0Y-82.5
X143.0Y-84.5
X144.0Y-75.5
X144.0Y-77.5
X144.0Y-79.5
X144.0Y-81.5
X144.0Y-83.5
X145.0Y-74.5
X145.0Y-76.5
X145.0Y-78.5
X145.0Y-80.5
X145.0Y-82.5
X145.0Y-84.5
X146.5Y-92.5
M30
