%TF.GenerationSoftware,KiCad,Pcbnew,9.0.7*%
%TF.CreationDate,2026-02-15T21:39:57-05:00*%
%TF.ProjectId,Modular_Load,4d6f6475-6c61-4725-9f4c-6f61642e6b69,rev?*%
%TF.SameCoordinates,Original*%
%TF.FileFunction,Legend,Bot*%
%TF.FilePolarity,Positive*%
%FSLAX46Y46*%
G04 Gerber Fmt 4.6, Leading zero omitted, Abs format (unit mm)*
G04 Created by KiCad (PCBNEW 9.0.7) date 2026-02-15 21:39:57*
%MOMM*%
%LPD*%
G01*
G04 APERTURE LIST*
%ADD10C,0.150000*%
%ADD11C,0.120000*%
G04 APERTURE END LIST*
D10*
X131704819Y-68107142D02*
X131228628Y-67773809D01*
X131704819Y-67535714D02*
X130704819Y-67535714D01*
X130704819Y-67535714D02*
X130704819Y-67916666D01*
X130704819Y-67916666D02*
X130752438Y-68011904D01*
X130752438Y-68011904D02*
X130800057Y-68059523D01*
X130800057Y-68059523D02*
X130895295Y-68107142D01*
X130895295Y-68107142D02*
X131038152Y-68107142D01*
X131038152Y-68107142D02*
X131133390Y-68059523D01*
X131133390Y-68059523D02*
X131181009Y-68011904D01*
X131181009Y-68011904D02*
X131228628Y-67916666D01*
X131228628Y-67916666D02*
X131228628Y-67535714D01*
X131704819Y-69059523D02*
X131704819Y-68488095D01*
X131704819Y-68773809D02*
X130704819Y-68773809D01*
X130704819Y-68773809D02*
X130847676Y-68678571D01*
X130847676Y-68678571D02*
X130942914Y-68583333D01*
X130942914Y-68583333D02*
X130990533Y-68488095D01*
X130704819Y-69392857D02*
X130704819Y-70011904D01*
X130704819Y-70011904D02*
X131085771Y-69678571D01*
X131085771Y-69678571D02*
X131085771Y-69821428D01*
X131085771Y-69821428D02*
X131133390Y-69916666D01*
X131133390Y-69916666D02*
X131181009Y-69964285D01*
X131181009Y-69964285D02*
X131276247Y-70011904D01*
X131276247Y-70011904D02*
X131514342Y-70011904D01*
X131514342Y-70011904D02*
X131609580Y-69964285D01*
X131609580Y-69964285D02*
X131657200Y-69916666D01*
X131657200Y-69916666D02*
X131704819Y-69821428D01*
X131704819Y-69821428D02*
X131704819Y-69535714D01*
X131704819Y-69535714D02*
X131657200Y-69440476D01*
X131657200Y-69440476D02*
X131609580Y-69392857D01*
X143204819Y-68833333D02*
X142728628Y-68500000D01*
X143204819Y-68261905D02*
X142204819Y-68261905D01*
X142204819Y-68261905D02*
X142204819Y-68642857D01*
X142204819Y-68642857D02*
X142252438Y-68738095D01*
X142252438Y-68738095D02*
X142300057Y-68785714D01*
X142300057Y-68785714D02*
X142395295Y-68833333D01*
X142395295Y-68833333D02*
X142538152Y-68833333D01*
X142538152Y-68833333D02*
X142633390Y-68785714D01*
X142633390Y-68785714D02*
X142681009Y-68738095D01*
X142681009Y-68738095D02*
X142728628Y-68642857D01*
X142728628Y-68642857D02*
X142728628Y-68261905D01*
X142633390Y-69404762D02*
X142585771Y-69309524D01*
X142585771Y-69309524D02*
X142538152Y-69261905D01*
X142538152Y-69261905D02*
X142442914Y-69214286D01*
X142442914Y-69214286D02*
X142395295Y-69214286D01*
X142395295Y-69214286D02*
X142300057Y-69261905D01*
X142300057Y-69261905D02*
X142252438Y-69309524D01*
X142252438Y-69309524D02*
X142204819Y-69404762D01*
X142204819Y-69404762D02*
X142204819Y-69595238D01*
X142204819Y-69595238D02*
X142252438Y-69690476D01*
X142252438Y-69690476D02*
X142300057Y-69738095D01*
X142300057Y-69738095D02*
X142395295Y-69785714D01*
X142395295Y-69785714D02*
X142442914Y-69785714D01*
X142442914Y-69785714D02*
X142538152Y-69738095D01*
X142538152Y-69738095D02*
X142585771Y-69690476D01*
X142585771Y-69690476D02*
X142633390Y-69595238D01*
X142633390Y-69595238D02*
X142633390Y-69404762D01*
X142633390Y-69404762D02*
X142681009Y-69309524D01*
X142681009Y-69309524D02*
X142728628Y-69261905D01*
X142728628Y-69261905D02*
X142823866Y-69214286D01*
X142823866Y-69214286D02*
X143014342Y-69214286D01*
X143014342Y-69214286D02*
X143109580Y-69261905D01*
X143109580Y-69261905D02*
X143157200Y-69309524D01*
X143157200Y-69309524D02*
X143204819Y-69404762D01*
X143204819Y-69404762D02*
X143204819Y-69595238D01*
X143204819Y-69595238D02*
X143157200Y-69690476D01*
X143157200Y-69690476D02*
X143109580Y-69738095D01*
X143109580Y-69738095D02*
X143014342Y-69785714D01*
X143014342Y-69785714D02*
X142823866Y-69785714D01*
X142823866Y-69785714D02*
X142728628Y-69738095D01*
X142728628Y-69738095D02*
X142681009Y-69690476D01*
X142681009Y-69690476D02*
X142633390Y-69595238D01*
X137892857Y-63704819D02*
X138226190Y-63228628D01*
X138464285Y-63704819D02*
X138464285Y-62704819D01*
X138464285Y-62704819D02*
X138083333Y-62704819D01*
X138083333Y-62704819D02*
X137988095Y-62752438D01*
X137988095Y-62752438D02*
X137940476Y-62800057D01*
X137940476Y-62800057D02*
X137892857Y-62895295D01*
X137892857Y-62895295D02*
X137892857Y-63038152D01*
X137892857Y-63038152D02*
X137940476Y-63133390D01*
X137940476Y-63133390D02*
X137988095Y-63181009D01*
X137988095Y-63181009D02*
X138083333Y-63228628D01*
X138083333Y-63228628D02*
X138464285Y-63228628D01*
X136940476Y-63704819D02*
X137511904Y-63704819D01*
X137226190Y-63704819D02*
X137226190Y-62704819D01*
X137226190Y-62704819D02*
X137321428Y-62847676D01*
X137321428Y-62847676D02*
X137416666Y-62942914D01*
X137416666Y-62942914D02*
X137511904Y-62990533D01*
X136083333Y-63038152D02*
X136083333Y-63704819D01*
X136321428Y-62657200D02*
X136559523Y-63371485D01*
X136559523Y-63371485D02*
X135940476Y-63371485D01*
X137892857Y-61204819D02*
X138226190Y-60728628D01*
X138464285Y-61204819D02*
X138464285Y-60204819D01*
X138464285Y-60204819D02*
X138083333Y-60204819D01*
X138083333Y-60204819D02*
X137988095Y-60252438D01*
X137988095Y-60252438D02*
X137940476Y-60300057D01*
X137940476Y-60300057D02*
X137892857Y-60395295D01*
X137892857Y-60395295D02*
X137892857Y-60538152D01*
X137892857Y-60538152D02*
X137940476Y-60633390D01*
X137940476Y-60633390D02*
X137988095Y-60681009D01*
X137988095Y-60681009D02*
X138083333Y-60728628D01*
X138083333Y-60728628D02*
X138464285Y-60728628D01*
X136940476Y-61204819D02*
X137511904Y-61204819D01*
X137226190Y-61204819D02*
X137226190Y-60204819D01*
X137226190Y-60204819D02*
X137321428Y-60347676D01*
X137321428Y-60347676D02*
X137416666Y-60442914D01*
X137416666Y-60442914D02*
X137511904Y-60490533D01*
X136035714Y-60204819D02*
X136511904Y-60204819D01*
X136511904Y-60204819D02*
X136559523Y-60681009D01*
X136559523Y-60681009D02*
X136511904Y-60633390D01*
X136511904Y-60633390D02*
X136416666Y-60585771D01*
X136416666Y-60585771D02*
X136178571Y-60585771D01*
X136178571Y-60585771D02*
X136083333Y-60633390D01*
X136083333Y-60633390D02*
X136035714Y-60681009D01*
X136035714Y-60681009D02*
X135988095Y-60776247D01*
X135988095Y-60776247D02*
X135988095Y-61014342D01*
X135988095Y-61014342D02*
X136035714Y-61109580D01*
X136035714Y-61109580D02*
X136083333Y-61157200D01*
X136083333Y-61157200D02*
X136178571Y-61204819D01*
X136178571Y-61204819D02*
X136416666Y-61204819D01*
X136416666Y-61204819D02*
X136511904Y-61157200D01*
X136511904Y-61157200D02*
X136559523Y-61109580D01*
X137859580Y-65333333D02*
X137907200Y-65285714D01*
X137907200Y-65285714D02*
X137954819Y-65142857D01*
X137954819Y-65142857D02*
X137954819Y-65047619D01*
X137954819Y-65047619D02*
X137907200Y-64904762D01*
X137907200Y-64904762D02*
X137811961Y-64809524D01*
X137811961Y-64809524D02*
X137716723Y-64761905D01*
X137716723Y-64761905D02*
X137526247Y-64714286D01*
X137526247Y-64714286D02*
X137383390Y-64714286D01*
X137383390Y-64714286D02*
X137192914Y-64761905D01*
X137192914Y-64761905D02*
X137097676Y-64809524D01*
X137097676Y-64809524D02*
X137002438Y-64904762D01*
X137002438Y-64904762D02*
X136954819Y-65047619D01*
X136954819Y-65047619D02*
X136954819Y-65142857D01*
X136954819Y-65142857D02*
X137002438Y-65285714D01*
X137002438Y-65285714D02*
X137050057Y-65333333D01*
X137954819Y-65809524D02*
X137954819Y-66000000D01*
X137954819Y-66000000D02*
X137907200Y-66095238D01*
X137907200Y-66095238D02*
X137859580Y-66142857D01*
X137859580Y-66142857D02*
X137716723Y-66238095D01*
X137716723Y-66238095D02*
X137526247Y-66285714D01*
X137526247Y-66285714D02*
X137145295Y-66285714D01*
X137145295Y-66285714D02*
X137050057Y-66238095D01*
X137050057Y-66238095D02*
X137002438Y-66190476D01*
X137002438Y-66190476D02*
X136954819Y-66095238D01*
X136954819Y-66095238D02*
X136954819Y-65904762D01*
X136954819Y-65904762D02*
X137002438Y-65809524D01*
X137002438Y-65809524D02*
X137050057Y-65761905D01*
X137050057Y-65761905D02*
X137145295Y-65714286D01*
X137145295Y-65714286D02*
X137383390Y-65714286D01*
X137383390Y-65714286D02*
X137478628Y-65761905D01*
X137478628Y-65761905D02*
X137526247Y-65809524D01*
X137526247Y-65809524D02*
X137573866Y-65904762D01*
X137573866Y-65904762D02*
X137573866Y-66095238D01*
X137573866Y-66095238D02*
X137526247Y-66190476D01*
X137526247Y-66190476D02*
X137478628Y-66238095D01*
X137478628Y-66238095D02*
X137383390Y-66285714D01*
X134609580Y-68083333D02*
X134657200Y-68035714D01*
X134657200Y-68035714D02*
X134704819Y-67892857D01*
X134704819Y-67892857D02*
X134704819Y-67797619D01*
X134704819Y-67797619D02*
X134657200Y-67654762D01*
X134657200Y-67654762D02*
X134561961Y-67559524D01*
X134561961Y-67559524D02*
X134466723Y-67511905D01*
X134466723Y-67511905D02*
X134276247Y-67464286D01*
X134276247Y-67464286D02*
X134133390Y-67464286D01*
X134133390Y-67464286D02*
X133942914Y-67511905D01*
X133942914Y-67511905D02*
X133847676Y-67559524D01*
X133847676Y-67559524D02*
X133752438Y-67654762D01*
X133752438Y-67654762D02*
X133704819Y-67797619D01*
X133704819Y-67797619D02*
X133704819Y-67892857D01*
X133704819Y-67892857D02*
X133752438Y-68035714D01*
X133752438Y-68035714D02*
X133800057Y-68083333D01*
X133704819Y-68416667D02*
X133704819Y-69083333D01*
X133704819Y-69083333D02*
X134704819Y-68654762D01*
X138859580Y-68833333D02*
X138907200Y-68785714D01*
X138907200Y-68785714D02*
X138954819Y-68642857D01*
X138954819Y-68642857D02*
X138954819Y-68547619D01*
X138954819Y-68547619D02*
X138907200Y-68404762D01*
X138907200Y-68404762D02*
X138811961Y-68309524D01*
X138811961Y-68309524D02*
X138716723Y-68261905D01*
X138716723Y-68261905D02*
X138526247Y-68214286D01*
X138526247Y-68214286D02*
X138383390Y-68214286D01*
X138383390Y-68214286D02*
X138192914Y-68261905D01*
X138192914Y-68261905D02*
X138097676Y-68309524D01*
X138097676Y-68309524D02*
X138002438Y-68404762D01*
X138002438Y-68404762D02*
X137954819Y-68547619D01*
X137954819Y-68547619D02*
X137954819Y-68642857D01*
X137954819Y-68642857D02*
X138002438Y-68785714D01*
X138002438Y-68785714D02*
X138050057Y-68833333D01*
X137954819Y-69690476D02*
X137954819Y-69500000D01*
X137954819Y-69500000D02*
X138002438Y-69404762D01*
X138002438Y-69404762D02*
X138050057Y-69357143D01*
X138050057Y-69357143D02*
X138192914Y-69261905D01*
X138192914Y-69261905D02*
X138383390Y-69214286D01*
X138383390Y-69214286D02*
X138764342Y-69214286D01*
X138764342Y-69214286D02*
X138859580Y-69261905D01*
X138859580Y-69261905D02*
X138907200Y-69309524D01*
X138907200Y-69309524D02*
X138954819Y-69404762D01*
X138954819Y-69404762D02*
X138954819Y-69595238D01*
X138954819Y-69595238D02*
X138907200Y-69690476D01*
X138907200Y-69690476D02*
X138859580Y-69738095D01*
X138859580Y-69738095D02*
X138764342Y-69785714D01*
X138764342Y-69785714D02*
X138526247Y-69785714D01*
X138526247Y-69785714D02*
X138431009Y-69738095D01*
X138431009Y-69738095D02*
X138383390Y-69690476D01*
X138383390Y-69690476D02*
X138335771Y-69595238D01*
X138335771Y-69595238D02*
X138335771Y-69404762D01*
X138335771Y-69404762D02*
X138383390Y-69309524D01*
X138383390Y-69309524D02*
X138431009Y-69261905D01*
X138431009Y-69261905D02*
X138526247Y-69214286D01*
X127704819Y-66857142D02*
X127228628Y-66523809D01*
X127704819Y-66285714D02*
X126704819Y-66285714D01*
X126704819Y-66285714D02*
X126704819Y-66666666D01*
X126704819Y-66666666D02*
X126752438Y-66761904D01*
X126752438Y-66761904D02*
X126800057Y-66809523D01*
X126800057Y-66809523D02*
X126895295Y-66857142D01*
X126895295Y-66857142D02*
X127038152Y-66857142D01*
X127038152Y-66857142D02*
X127133390Y-66809523D01*
X127133390Y-66809523D02*
X127181009Y-66761904D01*
X127181009Y-66761904D02*
X127228628Y-66666666D01*
X127228628Y-66666666D02*
X127228628Y-66285714D01*
X127704819Y-67809523D02*
X127704819Y-67238095D01*
X127704819Y-67523809D02*
X126704819Y-67523809D01*
X126704819Y-67523809D02*
X126847676Y-67428571D01*
X126847676Y-67428571D02*
X126942914Y-67333333D01*
X126942914Y-67333333D02*
X126990533Y-67238095D01*
X126704819Y-68428571D02*
X126704819Y-68523809D01*
X126704819Y-68523809D02*
X126752438Y-68619047D01*
X126752438Y-68619047D02*
X126800057Y-68666666D01*
X126800057Y-68666666D02*
X126895295Y-68714285D01*
X126895295Y-68714285D02*
X127085771Y-68761904D01*
X127085771Y-68761904D02*
X127323866Y-68761904D01*
X127323866Y-68761904D02*
X127514342Y-68714285D01*
X127514342Y-68714285D02*
X127609580Y-68666666D01*
X127609580Y-68666666D02*
X127657200Y-68619047D01*
X127657200Y-68619047D02*
X127704819Y-68523809D01*
X127704819Y-68523809D02*
X127704819Y-68428571D01*
X127704819Y-68428571D02*
X127657200Y-68333333D01*
X127657200Y-68333333D02*
X127609580Y-68285714D01*
X127609580Y-68285714D02*
X127514342Y-68238095D01*
X127514342Y-68238095D02*
X127323866Y-68190476D01*
X127323866Y-68190476D02*
X127085771Y-68190476D01*
X127085771Y-68190476D02*
X126895295Y-68238095D01*
X126895295Y-68238095D02*
X126800057Y-68285714D01*
X126800057Y-68285714D02*
X126752438Y-68333333D01*
X126752438Y-68333333D02*
X126704819Y-68428571D01*
X143954819Y-62357142D02*
X143478628Y-62023809D01*
X143954819Y-61785714D02*
X142954819Y-61785714D01*
X142954819Y-61785714D02*
X142954819Y-62166666D01*
X142954819Y-62166666D02*
X143002438Y-62261904D01*
X143002438Y-62261904D02*
X143050057Y-62309523D01*
X143050057Y-62309523D02*
X143145295Y-62357142D01*
X143145295Y-62357142D02*
X143288152Y-62357142D01*
X143288152Y-62357142D02*
X143383390Y-62309523D01*
X143383390Y-62309523D02*
X143431009Y-62261904D01*
X143431009Y-62261904D02*
X143478628Y-62166666D01*
X143478628Y-62166666D02*
X143478628Y-61785714D01*
X143954819Y-63309523D02*
X143954819Y-62738095D01*
X143954819Y-63023809D02*
X142954819Y-63023809D01*
X142954819Y-63023809D02*
X143097676Y-62928571D01*
X143097676Y-62928571D02*
X143192914Y-62833333D01*
X143192914Y-62833333D02*
X143240533Y-62738095D01*
X143954819Y-63785714D02*
X143954819Y-63976190D01*
X143954819Y-63976190D02*
X143907200Y-64071428D01*
X143907200Y-64071428D02*
X143859580Y-64119047D01*
X143859580Y-64119047D02*
X143716723Y-64214285D01*
X143716723Y-64214285D02*
X143526247Y-64261904D01*
X143526247Y-64261904D02*
X143145295Y-64261904D01*
X143145295Y-64261904D02*
X143050057Y-64214285D01*
X143050057Y-64214285D02*
X143002438Y-64166666D01*
X143002438Y-64166666D02*
X142954819Y-64071428D01*
X142954819Y-64071428D02*
X142954819Y-63880952D01*
X142954819Y-63880952D02*
X143002438Y-63785714D01*
X143002438Y-63785714D02*
X143050057Y-63738095D01*
X143050057Y-63738095D02*
X143145295Y-63690476D01*
X143145295Y-63690476D02*
X143383390Y-63690476D01*
X143383390Y-63690476D02*
X143478628Y-63738095D01*
X143478628Y-63738095D02*
X143526247Y-63785714D01*
X143526247Y-63785714D02*
X143573866Y-63880952D01*
X143573866Y-63880952D02*
X143573866Y-64071428D01*
X143573866Y-64071428D02*
X143526247Y-64166666D01*
X143526247Y-64166666D02*
X143478628Y-64214285D01*
X143478628Y-64214285D02*
X143383390Y-64261904D01*
X136666666Y-69359580D02*
X136714285Y-69407200D01*
X136714285Y-69407200D02*
X136857142Y-69454819D01*
X136857142Y-69454819D02*
X136952380Y-69454819D01*
X136952380Y-69454819D02*
X137095237Y-69407200D01*
X137095237Y-69407200D02*
X137190475Y-69311961D01*
X137190475Y-69311961D02*
X137238094Y-69216723D01*
X137238094Y-69216723D02*
X137285713Y-69026247D01*
X137285713Y-69026247D02*
X137285713Y-68883390D01*
X137285713Y-68883390D02*
X137238094Y-68692914D01*
X137238094Y-68692914D02*
X137190475Y-68597676D01*
X137190475Y-68597676D02*
X137095237Y-68502438D01*
X137095237Y-68502438D02*
X136952380Y-68454819D01*
X136952380Y-68454819D02*
X136857142Y-68454819D01*
X136857142Y-68454819D02*
X136714285Y-68502438D01*
X136714285Y-68502438D02*
X136666666Y-68550057D01*
X136333332Y-68454819D02*
X135714285Y-68454819D01*
X135714285Y-68454819D02*
X136047618Y-68835771D01*
X136047618Y-68835771D02*
X135904761Y-68835771D01*
X135904761Y-68835771D02*
X135809523Y-68883390D01*
X135809523Y-68883390D02*
X135761904Y-68931009D01*
X135761904Y-68931009D02*
X135714285Y-69026247D01*
X135714285Y-69026247D02*
X135714285Y-69264342D01*
X135714285Y-69264342D02*
X135761904Y-69359580D01*
X135761904Y-69359580D02*
X135809523Y-69407200D01*
X135809523Y-69407200D02*
X135904761Y-69454819D01*
X135904761Y-69454819D02*
X136190475Y-69454819D01*
X136190475Y-69454819D02*
X136285713Y-69407200D01*
X136285713Y-69407200D02*
X136333332Y-69359580D01*
X142704819Y-62833333D02*
X142228628Y-62500000D01*
X142704819Y-62261905D02*
X141704819Y-62261905D01*
X141704819Y-62261905D02*
X141704819Y-62642857D01*
X141704819Y-62642857D02*
X141752438Y-62738095D01*
X141752438Y-62738095D02*
X141800057Y-62785714D01*
X141800057Y-62785714D02*
X141895295Y-62833333D01*
X141895295Y-62833333D02*
X142038152Y-62833333D01*
X142038152Y-62833333D02*
X142133390Y-62785714D01*
X142133390Y-62785714D02*
X142181009Y-62738095D01*
X142181009Y-62738095D02*
X142228628Y-62642857D01*
X142228628Y-62642857D02*
X142228628Y-62261905D01*
X142038152Y-63690476D02*
X142704819Y-63690476D01*
X141657200Y-63452381D02*
X142371485Y-63214286D01*
X142371485Y-63214286D02*
X142371485Y-63833333D01*
X145204819Y-62357142D02*
X144728628Y-62023809D01*
X145204819Y-61785714D02*
X144204819Y-61785714D01*
X144204819Y-61785714D02*
X144204819Y-62166666D01*
X144204819Y-62166666D02*
X144252438Y-62261904D01*
X144252438Y-62261904D02*
X144300057Y-62309523D01*
X144300057Y-62309523D02*
X144395295Y-62357142D01*
X144395295Y-62357142D02*
X144538152Y-62357142D01*
X144538152Y-62357142D02*
X144633390Y-62309523D01*
X144633390Y-62309523D02*
X144681009Y-62261904D01*
X144681009Y-62261904D02*
X144728628Y-62166666D01*
X144728628Y-62166666D02*
X144728628Y-61785714D01*
X144300057Y-62738095D02*
X144252438Y-62785714D01*
X144252438Y-62785714D02*
X144204819Y-62880952D01*
X144204819Y-62880952D02*
X144204819Y-63119047D01*
X144204819Y-63119047D02*
X144252438Y-63214285D01*
X144252438Y-63214285D02*
X144300057Y-63261904D01*
X144300057Y-63261904D02*
X144395295Y-63309523D01*
X144395295Y-63309523D02*
X144490533Y-63309523D01*
X144490533Y-63309523D02*
X144633390Y-63261904D01*
X144633390Y-63261904D02*
X145204819Y-62690476D01*
X145204819Y-62690476D02*
X145204819Y-63309523D01*
X144204819Y-63928571D02*
X144204819Y-64023809D01*
X144204819Y-64023809D02*
X144252438Y-64119047D01*
X144252438Y-64119047D02*
X144300057Y-64166666D01*
X144300057Y-64166666D02*
X144395295Y-64214285D01*
X144395295Y-64214285D02*
X144585771Y-64261904D01*
X144585771Y-64261904D02*
X144823866Y-64261904D01*
X144823866Y-64261904D02*
X145014342Y-64214285D01*
X145014342Y-64214285D02*
X145109580Y-64166666D01*
X145109580Y-64166666D02*
X145157200Y-64119047D01*
X145157200Y-64119047D02*
X145204819Y-64023809D01*
X145204819Y-64023809D02*
X145204819Y-63928571D01*
X145204819Y-63928571D02*
X145157200Y-63833333D01*
X145157200Y-63833333D02*
X145109580Y-63785714D01*
X145109580Y-63785714D02*
X145014342Y-63738095D01*
X145014342Y-63738095D02*
X144823866Y-63690476D01*
X144823866Y-63690476D02*
X144585771Y-63690476D01*
X144585771Y-63690476D02*
X144395295Y-63738095D01*
X144395295Y-63738095D02*
X144300057Y-63785714D01*
X144300057Y-63785714D02*
X144252438Y-63833333D01*
X144252438Y-63833333D02*
X144204819Y-63928571D01*
X133204819Y-68107142D02*
X132728628Y-67773809D01*
X133204819Y-67535714D02*
X132204819Y-67535714D01*
X132204819Y-67535714D02*
X132204819Y-67916666D01*
X132204819Y-67916666D02*
X132252438Y-68011904D01*
X132252438Y-68011904D02*
X132300057Y-68059523D01*
X132300057Y-68059523D02*
X132395295Y-68107142D01*
X132395295Y-68107142D02*
X132538152Y-68107142D01*
X132538152Y-68107142D02*
X132633390Y-68059523D01*
X132633390Y-68059523D02*
X132681009Y-68011904D01*
X132681009Y-68011904D02*
X132728628Y-67916666D01*
X132728628Y-67916666D02*
X132728628Y-67535714D01*
X133204819Y-69059523D02*
X133204819Y-68488095D01*
X133204819Y-68773809D02*
X132204819Y-68773809D01*
X132204819Y-68773809D02*
X132347676Y-68678571D01*
X132347676Y-68678571D02*
X132442914Y-68583333D01*
X132442914Y-68583333D02*
X132490533Y-68488095D01*
X132300057Y-69440476D02*
X132252438Y-69488095D01*
X132252438Y-69488095D02*
X132204819Y-69583333D01*
X132204819Y-69583333D02*
X132204819Y-69821428D01*
X132204819Y-69821428D02*
X132252438Y-69916666D01*
X132252438Y-69916666D02*
X132300057Y-69964285D01*
X132300057Y-69964285D02*
X132395295Y-70011904D01*
X132395295Y-70011904D02*
X132490533Y-70011904D01*
X132490533Y-70011904D02*
X132633390Y-69964285D01*
X132633390Y-69964285D02*
X133204819Y-69392857D01*
X133204819Y-69392857D02*
X133204819Y-70011904D01*
X127704819Y-63857142D02*
X127228628Y-63523809D01*
X127704819Y-63285714D02*
X126704819Y-63285714D01*
X126704819Y-63285714D02*
X126704819Y-63666666D01*
X126704819Y-63666666D02*
X126752438Y-63761904D01*
X126752438Y-63761904D02*
X126800057Y-63809523D01*
X126800057Y-63809523D02*
X126895295Y-63857142D01*
X126895295Y-63857142D02*
X127038152Y-63857142D01*
X127038152Y-63857142D02*
X127133390Y-63809523D01*
X127133390Y-63809523D02*
X127181009Y-63761904D01*
X127181009Y-63761904D02*
X127228628Y-63666666D01*
X127228628Y-63666666D02*
X127228628Y-63285714D01*
X127704819Y-64809523D02*
X127704819Y-64238095D01*
X127704819Y-64523809D02*
X126704819Y-64523809D01*
X126704819Y-64523809D02*
X126847676Y-64428571D01*
X126847676Y-64428571D02*
X126942914Y-64333333D01*
X126942914Y-64333333D02*
X126990533Y-64238095D01*
X127704819Y-65761904D02*
X127704819Y-65190476D01*
X127704819Y-65476190D02*
X126704819Y-65476190D01*
X126704819Y-65476190D02*
X126847676Y-65380952D01*
X126847676Y-65380952D02*
X126942914Y-65285714D01*
X126942914Y-65285714D02*
X126990533Y-65190476D01*
D11*
%TO.C,TJ14*%
X114190000Y-87417017D02*
X114190000Y-87782983D01*
X117610000Y-87417017D02*
X117610000Y-87782983D01*
%TO.C,R13*%
X130727500Y-66237258D02*
X130727500Y-65762742D01*
X131772500Y-66237258D02*
X131772500Y-65762742D01*
%TO.C,R8*%
X140727500Y-68762742D02*
X140727500Y-69237258D01*
X141772500Y-68762742D02*
X141772500Y-69237258D01*
%TO.C,TJ21*%
X126717017Y-73690000D02*
X127082983Y-73690000D01*
X126717017Y-77110000D02*
X127082983Y-77110000D01*
%TO.C,R14*%
X139762742Y-62727500D02*
X140237258Y-62727500D01*
X139762742Y-63772500D02*
X140237258Y-63772500D01*
%TO.C,TJ19*%
X122190000Y-87417017D02*
X122190000Y-87782983D01*
X125610000Y-87417017D02*
X125610000Y-87782983D01*
%TO.C,R15*%
X140237258Y-60227500D02*
X139762742Y-60227500D01*
X140237258Y-61272500D02*
X139762742Y-61272500D01*
%TO.C,TJ16*%
X118190000Y-71782983D02*
X118190000Y-71417017D01*
X121610000Y-71782983D02*
X121610000Y-71417017D01*
%TO.C,C9*%
X138240000Y-65859420D02*
X138240000Y-66140580D01*
X139260000Y-65859420D02*
X139260000Y-66140580D01*
%TO.C,TJ13*%
X110190000Y-87417017D02*
X110190000Y-87782983D01*
X113610000Y-87417017D02*
X113610000Y-87782983D01*
%TO.C,C7*%
X133740000Y-65859420D02*
X133740000Y-66140580D01*
X134760000Y-65859420D02*
X134760000Y-66140580D01*
%TO.C,C6*%
X139240000Y-68859420D02*
X139240000Y-69140580D01*
X140260000Y-68859420D02*
X140260000Y-69140580D01*
%TO.C,R10*%
X127977500Y-67262742D02*
X127977500Y-67737258D01*
X129022500Y-67262742D02*
X129022500Y-67737258D01*
%TO.C,TJ12*%
X108282983Y-83890000D02*
X107917017Y-83890000D01*
X108282983Y-87310000D02*
X107917017Y-87310000D01*
%TO.C,TJ9*%
X108282983Y-71890000D02*
X107917017Y-71890000D01*
X108282983Y-75310000D02*
X107917017Y-75310000D01*
%TO.C,R19*%
X141227500Y-66237258D02*
X141227500Y-65762742D01*
X142272500Y-66237258D02*
X142272500Y-65762742D01*
%TO.C,TJ10*%
X108282983Y-75890000D02*
X107917017Y-75890000D01*
X108282983Y-79310000D02*
X107917017Y-79310000D01*
%TO.C,TJ17*%
X114190000Y-71782983D02*
X114190000Y-71417017D01*
X117610000Y-71782983D02*
X117610000Y-71417017D01*
%TO.C,TJ22*%
X126717017Y-81690000D02*
X127082983Y-81690000D01*
X126717017Y-85110000D02*
X127082983Y-85110000D01*
%TO.C,TJ15*%
X122190000Y-71782983D02*
X122190000Y-71417017D01*
X125610000Y-71782983D02*
X125610000Y-71417017D01*
%TO.C,TJ20*%
X118190000Y-87417017D02*
X118190000Y-87782983D01*
X121610000Y-87417017D02*
X121610000Y-87782983D01*
%TO.C,C3*%
X136640580Y-66990000D02*
X136359420Y-66990000D01*
X136640580Y-68010000D02*
X136359420Y-68010000D01*
%TO.C,R4*%
X139727500Y-65762742D02*
X139727500Y-66237258D01*
X140772500Y-65762742D02*
X140772500Y-66237258D01*
%TO.C,TJ23*%
X126717017Y-77690000D02*
X127082983Y-77690000D01*
X126717017Y-81110000D02*
X127082983Y-81110000D01*
%TO.C,R20*%
X142727500Y-65762742D02*
X142727500Y-66237258D01*
X143772500Y-65762742D02*
X143772500Y-66237258D01*
%TO.C,TJ11*%
X108282983Y-79890000D02*
X107917017Y-79890000D01*
X108282983Y-83310000D02*
X107917017Y-83310000D01*
%TO.C,TJ18*%
X110190000Y-71782983D02*
X110190000Y-71417017D01*
X113610000Y-71782983D02*
X113610000Y-71417017D01*
%TO.C,R12*%
X132227500Y-65762742D02*
X132227500Y-66237258D01*
X133272500Y-65762742D02*
X133272500Y-66237258D01*
%TO.C,R11*%
X127977500Y-64737258D02*
X127977500Y-64262742D01*
X129022500Y-64737258D02*
X129022500Y-64262742D01*
%TD*%
M02*
