%TF.GenerationSoftware,KiCad,Pcbnew,9.0.7*%
%TF.CreationDate,2026-02-15T21:39:57-05:00*%
%TF.ProjectId,Modular_Load,4d6f6475-6c61-4725-9f4c-6f61642e6b69,rev?*%
%TF.SameCoordinates,Original*%
%TF.FileFunction,Soldermask,Bot*%
%TF.FilePolarity,Negative*%
%FSLAX46Y46*%
G04 Gerber Fmt 4.6, Leading zero omitted, Abs format (unit mm)*
G04 Created by KiCad (PCBNEW 9.0.7) date 2026-02-15 21:39:57*
%MOMM*%
%LPD*%
G01*
G04 APERTURE LIST*
G04 Aperture macros list*
%AMRoundRect*
0 Rectangle with rounded corners*
0 $1 Rounding radius*
0 $2 $3 $4 $5 $6 $7 $8 $9 X,Y pos of 4 corners*
0 Add a 4 corners polygon primitive as box body*
4,1,4,$2,$3,$4,$5,$6,$7,$8,$9,$2,$3,0*
0 Add four circle primitives for the rounded corners*
1,1,$1+$1,$2,$3*
1,1,$1+$1,$4,$5*
1,1,$1+$1,$6,$7*
1,1,$1+$1,$8,$9*
0 Add four rect primitives between the rounded corners*
20,1,$1+$1,$2,$3,$4,$5,0*
20,1,$1+$1,$4,$5,$6,$7,0*
20,1,$1+$1,$6,$7,$8,$9,0*
20,1,$1+$1,$8,$9,$2,$3,0*%
G04 Aperture macros list end*
%ADD10C,0.150000*%
%ADD11C,6.000000*%
%ADD12RoundRect,0.275532X-1.484468X0.371968X-1.484468X-0.371968X1.484468X-0.371968X1.484468X0.371968X0*%
%ADD13RoundRect,0.230000X0.305000X-0.230000X0.305000X0.230000X-0.305000X0.230000X-0.305000X-0.230000X0*%
%ADD14RoundRect,0.230000X-0.305000X0.230000X-0.305000X-0.230000X0.305000X-0.230000X0.305000X0.230000X0*%
%ADD15RoundRect,0.275532X-0.371968X-1.484468X0.371968X-1.484468X0.371968X1.484468X-0.371968X1.484468X0*%
%ADD16RoundRect,0.230000X-0.230000X-0.305000X0.230000X-0.305000X0.230000X0.305000X-0.230000X0.305000X0*%
%ADD17RoundRect,0.230000X0.230000X0.305000X-0.230000X0.305000X-0.230000X-0.305000X0.230000X-0.305000X0*%
%ADD18RoundRect,0.275532X1.484468X-0.371968X1.484468X0.371968X-1.484468X0.371968X-1.484468X-0.371968X0*%
%ADD19RoundRect,0.255000X-0.280000X0.255000X-0.280000X-0.255000X0.280000X-0.255000X0.280000X0.255000X0*%
%ADD20RoundRect,0.275532X0.371968X1.484468X-0.371968X1.484468X-0.371968X-1.484468X0.371968X-1.484468X0*%
%ADD21RoundRect,0.255000X0.255000X0.280000X-0.255000X0.280000X-0.255000X-0.280000X0.255000X-0.280000X0*%
G04 APERTURE END LIST*
D10*
X138000000Y-76000000D02*
X145000000Y-76000000D01*
X145000000Y-83000000D01*
X138000000Y-83000000D01*
X138000000Y-76000000D01*
G36*
X138000000Y-76000000D02*
G01*
X145000000Y-76000000D01*
X145000000Y-83000000D01*
X138000000Y-83000000D01*
X138000000Y-76000000D01*
G37*
X122000000Y-73750126D02*
X124750000Y-73750126D01*
X124750000Y-75000000D01*
X122000000Y-75000000D01*
X122000000Y-73750126D01*
G36*
X122000000Y-73750126D02*
G01*
X124750000Y-73750126D01*
X124750000Y-75000000D01*
X122000000Y-75000000D01*
X122000000Y-73750126D01*
G37*
X122000000Y-92000000D02*
X129000000Y-92000000D01*
X129000000Y-95500000D01*
X122000000Y-95500000D01*
X122000000Y-92000000D01*
G36*
X122000000Y-92000000D02*
G01*
X129000000Y-92000000D01*
X129000000Y-95500000D01*
X122000000Y-95500000D01*
X122000000Y-92000000D01*
G37*
X122000000Y-89500000D02*
X129000000Y-89500000D01*
X129000000Y-91000000D01*
X122000000Y-91000000D01*
X122000000Y-89500000D01*
G36*
X122000000Y-89500000D02*
G01*
X129000000Y-89500000D01*
X129000000Y-91000000D01*
X122000000Y-91000000D01*
X122000000Y-89500000D01*
G37*
X138000000Y-72500000D02*
X145000000Y-72500000D01*
X145000000Y-75000000D01*
X138000000Y-75000000D01*
X138000000Y-72500000D01*
G36*
X138000000Y-72500000D02*
G01*
X145000000Y-72500000D01*
X145000000Y-75000000D01*
X138000000Y-75000000D01*
X138000000Y-72500000D01*
G37*
X130000000Y-72500000D02*
X137000000Y-72500000D01*
X137000000Y-75000000D01*
X130000000Y-75000000D01*
X130000000Y-72500000D01*
G36*
X130000000Y-72500000D02*
G01*
X137000000Y-72500000D01*
X137000000Y-75000000D01*
X130000000Y-75000000D01*
X130000000Y-72500000D01*
G37*
X93500000Y-68000000D02*
X97000000Y-68000000D01*
X97000000Y-75000000D01*
X93500000Y-75000000D01*
X93500000Y-68000000D01*
G36*
X93500000Y-68000000D02*
G01*
X97000000Y-68000000D01*
X97000000Y-75000000D01*
X93500000Y-75000000D01*
X93500000Y-68000000D01*
G37*
X106000000Y-92000000D02*
X113000000Y-92000000D01*
X113000000Y-95500000D01*
X106000000Y-95500000D01*
X106000000Y-92000000D01*
G36*
X106000000Y-92000000D02*
G01*
X113000000Y-92000000D01*
X113000000Y-95500000D01*
X106000000Y-95500000D01*
X106000000Y-92000000D01*
G37*
X106000000Y-89500000D02*
X113000000Y-89500000D01*
X113000000Y-91000000D01*
X106000000Y-91000000D01*
X106000000Y-89500000D01*
G36*
X106000000Y-89500000D02*
G01*
X113000000Y-89500000D01*
X113000000Y-91000000D01*
X106000000Y-91000000D01*
X106000000Y-89500000D01*
G37*
X114000000Y-92000000D02*
X121000000Y-92000000D01*
X121000000Y-95500000D01*
X114000000Y-95500000D01*
X114000000Y-92000000D01*
G36*
X114000000Y-92000000D02*
G01*
X121000000Y-92000000D01*
X121000000Y-95500000D01*
X114000000Y-95500000D01*
X114000000Y-92000000D01*
G37*
X114000000Y-73750000D02*
X121000000Y-73750000D01*
X121000000Y-75000000D01*
X114000000Y-75000000D01*
X114000000Y-73750000D01*
G36*
X114000000Y-73750000D02*
G01*
X121000000Y-73750000D01*
X121000000Y-75000000D01*
X114000000Y-75000000D01*
X114000000Y-73750000D01*
G37*
X110250000Y-84000000D02*
X113000000Y-84000000D01*
X113000000Y-85500000D01*
X110250000Y-85500000D01*
X110250000Y-84000000D01*
G36*
X110250000Y-84000000D02*
G01*
X113000000Y-84000000D01*
X113000000Y-85500000D01*
X110250000Y-85500000D01*
X110250000Y-84000000D01*
G37*
X122000000Y-84000000D02*
X124750000Y-84000000D01*
X124750000Y-85500000D01*
X122000000Y-85500000D01*
X122000000Y-84000000D01*
G36*
X122000000Y-84000000D02*
G01*
X124750000Y-84000000D01*
X124750000Y-85500000D01*
X122000000Y-85500000D01*
X122000000Y-84000000D01*
G37*
X93500000Y-76000000D02*
X97000000Y-76000000D01*
X97000000Y-83000000D01*
X93500000Y-83000000D01*
X93500000Y-76000000D01*
G36*
X93500000Y-76000000D02*
G01*
X97000000Y-76000000D01*
X97000000Y-83000000D01*
X93500000Y-83000000D01*
X93500000Y-76000000D01*
G37*
X130000000Y-84000000D02*
X137000000Y-84000000D01*
X137000000Y-91000000D01*
X130000000Y-91000000D01*
X130000000Y-84000000D01*
G36*
X130000000Y-84000000D02*
G01*
X137000000Y-84000000D01*
X137000000Y-91000000D01*
X130000000Y-91000000D01*
X130000000Y-84000000D01*
G37*
X114000000Y-84000000D02*
X121000000Y-84000000D01*
X121000000Y-85500000D01*
X114000000Y-85500000D01*
X114000000Y-84000000D01*
G36*
X114000000Y-84000000D02*
G01*
X121000000Y-84000000D01*
X121000000Y-85500000D01*
X114000000Y-85500000D01*
X114000000Y-84000000D01*
G37*
X98000000Y-60000000D02*
X105000000Y-60000000D01*
X105000000Y-67000000D01*
X98000000Y-67000000D01*
X98000000Y-60000000D01*
G36*
X98000000Y-60000000D02*
G01*
X105000000Y-60000000D01*
X105000000Y-67000000D01*
X98000000Y-67000000D01*
X98000000Y-60000000D01*
G37*
X98000000Y-92000000D02*
X105000000Y-92000000D01*
X105000000Y-95500000D01*
X98000000Y-95500000D01*
X98000000Y-92000000D01*
G36*
X98000000Y-92000000D02*
G01*
X105000000Y-92000000D01*
X105000000Y-95500000D01*
X98000000Y-95500000D01*
X98000000Y-92000000D01*
G37*
X98000000Y-68000000D02*
X105000000Y-68000000D01*
X105000000Y-75000000D01*
X98000000Y-75000000D01*
X98000000Y-68000000D01*
G36*
X98000000Y-68000000D02*
G01*
X105000000Y-68000000D01*
X105000000Y-75000000D01*
X98000000Y-75000000D01*
X98000000Y-68000000D01*
G37*
X122000000Y-68000126D02*
X125500000Y-68000126D01*
X125500000Y-69500000D01*
X122000000Y-69500000D01*
X122000000Y-68000126D01*
G36*
X122000000Y-68000126D02*
G01*
X125500000Y-68000126D01*
X125500000Y-69500000D01*
X122000000Y-69500000D01*
X122000000Y-68000126D01*
G37*
X146000000Y-84000000D02*
X153000000Y-84000000D01*
X153000000Y-91000000D01*
X146000000Y-91000000D01*
X146000000Y-84000000D01*
G36*
X146000000Y-84000000D02*
G01*
X153000000Y-84000000D01*
X153000000Y-91000000D01*
X146000000Y-91000000D01*
X146000000Y-84000000D01*
G37*
X106000000Y-68000000D02*
X113000000Y-68000000D01*
X113000000Y-69500000D01*
X106000000Y-69500000D01*
X106000000Y-68000000D01*
G36*
X106000000Y-68000000D02*
G01*
X113000000Y-68000000D01*
X113000000Y-69500000D01*
X106000000Y-69500000D01*
X106000000Y-68000000D01*
G37*
X93500000Y-61000000D02*
X97000000Y-61000000D01*
X97000000Y-67000000D01*
X93500000Y-67000000D01*
X93500000Y-61000000D01*
G36*
X93500000Y-61000000D02*
G01*
X97000000Y-61000000D01*
X97000000Y-67000000D01*
X93500000Y-67000000D01*
X93500000Y-61000000D01*
G37*
X146000000Y-76000000D02*
X153000000Y-76000000D01*
X153000000Y-83000000D01*
X146000000Y-83000000D01*
X146000000Y-76000000D01*
G36*
X146000000Y-76000000D02*
G01*
X153000000Y-76000000D01*
X153000000Y-83000000D01*
X146000000Y-83000000D01*
X146000000Y-76000000D01*
G37*
X114000000Y-60000000D02*
X121000000Y-60000000D01*
X121000000Y-67000000D01*
X114000000Y-67000000D01*
X114000000Y-60000000D01*
G36*
X114000000Y-60000000D02*
G01*
X121000000Y-60000000D01*
X121000000Y-67000000D01*
X114000000Y-67000000D01*
X114000000Y-60000000D01*
G37*
X138000000Y-84000000D02*
X145000000Y-84000000D01*
X145000000Y-91000000D01*
X138000000Y-91000000D01*
X138000000Y-84000000D01*
G36*
X138000000Y-84000000D02*
G01*
X145000000Y-84000000D01*
X145000000Y-91000000D01*
X138000000Y-91000000D01*
X138000000Y-84000000D01*
G37*
X138000000Y-92000000D02*
X145000000Y-92000000D01*
X145000000Y-95500000D01*
X138000000Y-95500000D01*
X138000000Y-92000000D01*
G36*
X138000000Y-92000000D02*
G01*
X145000000Y-92000000D01*
X145000000Y-95500000D01*
X138000000Y-95500000D01*
X138000000Y-92000000D01*
G37*
X98000000Y-84000000D02*
X105000000Y-84000000D01*
X105000000Y-91000000D01*
X98000000Y-91000000D01*
X98000000Y-84000000D01*
G36*
X98000000Y-84000000D02*
G01*
X105000000Y-84000000D01*
X105000000Y-91000000D01*
X98000000Y-91000000D01*
X98000000Y-84000000D01*
G37*
X146000000Y-68000000D02*
X153000000Y-68000000D01*
X153000000Y-75000000D01*
X146000000Y-75000000D01*
X146000000Y-68000000D01*
G36*
X146000000Y-68000000D02*
G01*
X153000000Y-68000000D01*
X153000000Y-75000000D01*
X146000000Y-75000000D01*
X146000000Y-68000000D01*
G37*
X146000000Y-60000000D02*
X153000000Y-60000000D01*
X153000000Y-67000000D01*
X146000000Y-67000000D01*
X146000000Y-60000000D01*
G36*
X146000000Y-60000000D02*
G01*
X153000000Y-60000000D01*
X153000000Y-67000000D01*
X146000000Y-67000000D01*
X146000000Y-60000000D01*
G37*
X98000000Y-76000000D02*
X105000000Y-76000000D01*
X105000000Y-83000000D01*
X98000000Y-83000000D01*
X98000000Y-76000000D01*
G36*
X98000000Y-76000000D02*
G01*
X105000000Y-76000000D01*
X105000000Y-83000000D01*
X98000000Y-83000000D01*
X98000000Y-76000000D01*
G37*
X93500000Y-84000000D02*
X97000000Y-84000000D01*
X97000000Y-91000000D01*
X93500000Y-91000000D01*
X93500000Y-84000000D01*
G36*
X93500000Y-84000000D02*
G01*
X97000000Y-84000000D01*
X97000000Y-91000000D01*
X93500000Y-91000000D01*
X93500000Y-84000000D01*
G37*
X106000000Y-60000000D02*
X113000000Y-60000000D01*
X113000000Y-67050000D01*
X106000000Y-67050000D01*
X106000000Y-60000000D01*
G36*
X106000000Y-60000000D02*
G01*
X113000000Y-60000000D01*
X113000000Y-67050000D01*
X106000000Y-67050000D01*
X106000000Y-60000000D01*
G37*
X130000000Y-76000000D02*
X137000000Y-76000000D01*
X137000000Y-83000000D01*
X130000000Y-83000000D01*
X130000000Y-76000000D01*
G36*
X130000000Y-76000000D02*
G01*
X137000000Y-76000000D01*
X137000000Y-83000000D01*
X130000000Y-83000000D01*
X130000000Y-76000000D01*
G37*
X110250000Y-76000000D02*
X113000000Y-76000000D01*
X113000000Y-83000000D01*
X110250000Y-83000000D01*
X110250000Y-76000000D01*
G36*
X110250000Y-76000000D02*
G01*
X113000000Y-76000000D01*
X113000000Y-83000000D01*
X110250000Y-83000000D01*
X110250000Y-76000000D01*
G37*
X130000000Y-92000000D02*
X137000000Y-92000000D01*
X137000000Y-95500000D01*
X130000000Y-95500000D01*
X130000000Y-92000000D01*
G36*
X130000000Y-92000000D02*
G01*
X137000000Y-92000000D01*
X137000000Y-95500000D01*
X130000000Y-95500000D01*
X130000000Y-92000000D01*
G37*
X122000000Y-76000000D02*
X124750000Y-76000000D01*
X124750000Y-83000000D01*
X122000000Y-83000000D01*
X122000000Y-76000000D01*
G36*
X122000000Y-76000000D02*
G01*
X124750000Y-76000000D01*
X124750000Y-83000000D01*
X122000000Y-83000000D01*
X122000000Y-76000000D01*
G37*
X110250000Y-73750000D02*
X113000000Y-73750000D01*
X113000000Y-75000000D01*
X110250000Y-75000000D01*
X110250000Y-73750000D01*
G36*
X110250000Y-73750000D02*
G01*
X113000000Y-73750000D01*
X113000000Y-75000000D01*
X110250000Y-75000000D01*
X110250000Y-73750000D01*
G37*
X114000000Y-76000000D02*
X121000000Y-76000000D01*
X121000000Y-83000000D01*
X114000000Y-83000000D01*
X114000000Y-76000000D01*
G36*
X114000000Y-76000000D02*
G01*
X121000000Y-76000000D01*
X121000000Y-83000000D01*
X114000000Y-83000000D01*
X114000000Y-76000000D01*
G37*
X114000000Y-89500000D02*
X121000000Y-89500000D01*
X121000000Y-91000000D01*
X114000000Y-91000000D01*
X114000000Y-89500000D01*
G36*
X114000000Y-89500000D02*
G01*
X121000000Y-89500000D01*
X121000000Y-91000000D01*
X114000000Y-91000000D01*
X114000000Y-89500000D01*
G37*
X122000000Y-60000000D02*
X125500000Y-60000000D01*
X125500000Y-67000000D01*
X122000000Y-67000000D01*
X122000000Y-60000000D01*
G36*
X122000000Y-60000000D02*
G01*
X125500000Y-60000000D01*
X125500000Y-67000000D01*
X122000000Y-67000000D01*
X122000000Y-60000000D01*
G37*
X114000000Y-68000000D02*
X121000000Y-68000000D01*
X121000000Y-69500000D01*
X114000000Y-69500000D01*
X114000000Y-68000000D01*
G36*
X114000000Y-68000000D02*
G01*
X121000000Y-68000000D01*
X121000000Y-69500000D01*
X114000000Y-69500000D01*
X114000000Y-68000000D01*
G37*
D11*
%TO.C,REF\u002A\u002A*%
X95500000Y-93000000D03*
%TD*%
%TO.C,REF\u002A\u002A*%
X95500000Y-61000000D03*
%TD*%
%TO.C,REF\u002A\u002A*%
X152500000Y-61000000D03*
%TD*%
%TO.C,REF\u002A\u002A*%
X152500000Y-93000000D03*
%TD*%
D12*
%TO.C,TJ14*%
X115900000Y-86762500D03*
X115900000Y-88437500D03*
%TD*%
D13*
%TO.C,R13*%
X131250000Y-66825000D03*
X131250000Y-65175000D03*
%TD*%
D14*
%TO.C,R8*%
X141250000Y-68175000D03*
X141250000Y-69825000D03*
%TD*%
D15*
%TO.C,TJ21*%
X126062500Y-75400000D03*
X127737500Y-75400000D03*
%TD*%
D16*
%TO.C,R14*%
X139175000Y-63250000D03*
X140825000Y-63250000D03*
%TD*%
D12*
%TO.C,TJ19*%
X123900000Y-86762500D03*
X123900000Y-88437500D03*
%TD*%
D17*
%TO.C,R15*%
X140825000Y-60750000D03*
X139175000Y-60750000D03*
%TD*%
D18*
%TO.C,TJ16*%
X119900000Y-72437500D03*
X119900000Y-70762500D03*
%TD*%
D19*
%TO.C,C9*%
X138750000Y-65225000D03*
X138750000Y-66775000D03*
%TD*%
D12*
%TO.C,TJ13*%
X111900000Y-86762500D03*
X111900000Y-88437500D03*
%TD*%
D19*
%TO.C,C7*%
X134250000Y-65225000D03*
X134250000Y-66775000D03*
%TD*%
%TO.C,C6*%
X139750000Y-68225000D03*
X139750000Y-69775000D03*
%TD*%
D14*
%TO.C,R10*%
X128500000Y-66675000D03*
X128500000Y-68325000D03*
%TD*%
D20*
%TO.C,TJ12*%
X108937500Y-85600000D03*
X107262500Y-85600000D03*
%TD*%
%TO.C,TJ9*%
X108937500Y-73600000D03*
X107262500Y-73600000D03*
%TD*%
D13*
%TO.C,R19*%
X141750000Y-66825000D03*
X141750000Y-65175000D03*
%TD*%
D20*
%TO.C,TJ10*%
X108937500Y-77600000D03*
X107262500Y-77600000D03*
%TD*%
D18*
%TO.C,TJ17*%
X115900000Y-72437500D03*
X115900000Y-70762500D03*
%TD*%
D15*
%TO.C,TJ22*%
X126062500Y-83400000D03*
X127737500Y-83400000D03*
%TD*%
D18*
%TO.C,TJ15*%
X123900000Y-72437500D03*
X123900000Y-70762500D03*
%TD*%
D12*
%TO.C,TJ20*%
X119900000Y-86762500D03*
X119900000Y-88437500D03*
%TD*%
D21*
%TO.C,C3*%
X137275000Y-67500000D03*
X135725000Y-67500000D03*
%TD*%
D14*
%TO.C,R4*%
X140250000Y-65175000D03*
X140250000Y-66825000D03*
%TD*%
D15*
%TO.C,TJ23*%
X126062500Y-79400000D03*
X127737500Y-79400000D03*
%TD*%
D14*
%TO.C,R20*%
X143250000Y-65175000D03*
X143250000Y-66825000D03*
%TD*%
D20*
%TO.C,TJ11*%
X108937500Y-81600000D03*
X107262500Y-81600000D03*
%TD*%
D18*
%TO.C,TJ18*%
X111900000Y-72437500D03*
X111900000Y-70762500D03*
%TD*%
D14*
%TO.C,R12*%
X132750000Y-65175000D03*
X132750000Y-66825000D03*
%TD*%
D13*
%TO.C,R11*%
X128500000Y-65325000D03*
X128500000Y-63675000D03*
%TD*%
M02*
