%TF.GenerationSoftware,KiCad,Pcbnew,9.0.6*%
%TF.CreationDate,2026-02-02T20:31:11-05:00*%
%TF.ProjectId,Modular_Load,4d6f6475-6c61-4725-9f4c-6f61642e6b69,rev?*%
%TF.SameCoordinates,Original*%
%TF.FileFunction,Copper,L2,Bot*%
%TF.FilePolarity,Positive*%
%FSLAX46Y46*%
G04 Gerber Fmt 4.6, Leading zero omitted, Abs format (unit mm)*
G04 Created by KiCad (PCBNEW 9.0.6) date 2026-02-02 20:31:11*
%MOMM*%
%LPD*%
G01*
G04 APERTURE LIST*
G04 Aperture macros list*
%AMRoundRect*
0 Rectangle with rounded corners*
0 $1 Rounding radius*
0 $2 $3 $4 $5 $6 $7 $8 $9 X,Y pos of 4 corners*
0 Add a 4 corners polygon primitive as box body*
4,1,4,$2,$3,$4,$5,$6,$7,$8,$9,$2,$3,0*
0 Add four circle primitives for the rounded corners*
1,1,$1+$1,$2,$3*
1,1,$1+$1,$4,$5*
1,1,$1+$1,$6,$7*
1,1,$1+$1,$8,$9*
0 Add four rect primitives between the rounded corners*
20,1,$1+$1,$2,$3,$4,$5,0*
20,1,$1+$1,$4,$5,$6,$7,0*
20,1,$1+$1,$6,$7,$8,$9,0*
20,1,$1+$1,$8,$9,$2,$3,0*%
G04 Aperture macros list end*
%ADD10C,0.200000*%
%TA.AperFunction,NonConductor*%
%ADD11C,0.200000*%
%TD*%
%TA.AperFunction,SMDPad,CuDef*%
%ADD12RoundRect,0.250000X1.450000X-0.337500X1.450000X0.337500X-1.450000X0.337500X-1.450000X-0.337500X0*%
%TD*%
%TA.AperFunction,SMDPad,CuDef*%
%ADD13RoundRect,0.250000X-0.337500X-1.450000X0.337500X-1.450000X0.337500X1.450000X-0.337500X1.450000X0*%
%TD*%
%TA.AperFunction,SMDPad,CuDef*%
%ADD14RoundRect,0.250000X0.337500X1.450000X-0.337500X1.450000X-0.337500X-1.450000X0.337500X-1.450000X0*%
%TD*%
%TA.AperFunction,SMDPad,CuDef*%
%ADD15RoundRect,0.250000X-1.450000X0.337500X-1.450000X-0.337500X1.450000X-0.337500X1.450000X0.337500X0*%
%TD*%
%TA.AperFunction,ViaPad*%
%ADD16C,0.800000*%
%TD*%
%TA.AperFunction,Conductor*%
%ADD17C,0.250000*%
%TD*%
G04 APERTURE END LIST*
D10*
D11*
X148255713Y-94677457D02*
X148208094Y-94629838D01*
X148208094Y-94629838D02*
X148112856Y-94582219D01*
X148112856Y-94582219D02*
X147874761Y-94582219D01*
X147874761Y-94582219D02*
X147779523Y-94629838D01*
X147779523Y-94629838D02*
X147731904Y-94677457D01*
X147731904Y-94677457D02*
X147684285Y-94772695D01*
X147684285Y-94772695D02*
X147684285Y-94867933D01*
X147684285Y-94867933D02*
X147731904Y-95010790D01*
X147731904Y-95010790D02*
X148303332Y-95582219D01*
X148303332Y-95582219D02*
X147684285Y-95582219D01*
D12*
%TO.P,TJ15,1*%
%TO.N,/FB*%
X123900000Y-72437500D03*
%TO.P,TJ15,2*%
%TO.N,GND*%
X123900000Y-70762500D03*
%TD*%
D13*
%TO.P,TJ21,1*%
%TO.N,/FB*%
X126062500Y-75400000D03*
%TO.P,TJ21,2*%
%TO.N,GND*%
X127737500Y-75400000D03*
%TD*%
D14*
%TO.P,TJ9,1*%
%TO.N,/FB*%
X108937500Y-73600000D03*
%TO.P,TJ9,2*%
%TO.N,GND*%
X107262500Y-73600000D03*
%TD*%
%TO.P,TJ12,1*%
%TO.N,/FB*%
X108937500Y-85600000D03*
%TO.P,TJ12,2*%
%TO.N,GND*%
X107262500Y-85600000D03*
%TD*%
D15*
%TO.P,TJ13,1*%
%TO.N,/FB*%
X111900000Y-86762500D03*
%TO.P,TJ13,2*%
%TO.N,GND*%
X111900000Y-88437500D03*
%TD*%
%TO.P,TJ20,1*%
%TO.N,/FB*%
X119900000Y-86762500D03*
%TO.P,TJ20,2*%
%TO.N,GND*%
X119900000Y-88437500D03*
%TD*%
%TO.P,TJ14,1*%
%TO.N,/FB*%
X115900000Y-86762500D03*
%TO.P,TJ14,2*%
%TO.N,GND*%
X115900000Y-88437500D03*
%TD*%
D13*
%TO.P,TJ23,1*%
%TO.N,/FB*%
X126062500Y-79400000D03*
%TO.P,TJ23,2*%
%TO.N,GND*%
X127737500Y-79400000D03*
%TD*%
D12*
%TO.P,TJ17,1*%
%TO.N,/FB*%
X115900000Y-72437500D03*
%TO.P,TJ17,2*%
%TO.N,GND*%
X115900000Y-70762500D03*
%TD*%
D14*
%TO.P,TJ10,1*%
%TO.N,/FB*%
X108937500Y-77600000D03*
%TO.P,TJ10,2*%
%TO.N,GND*%
X107262500Y-77600000D03*
%TD*%
D12*
%TO.P,TJ16,1*%
%TO.N,/FB*%
X119900000Y-72437500D03*
%TO.P,TJ16,2*%
%TO.N,GND*%
X119900000Y-70762500D03*
%TD*%
D13*
%TO.P,TJ22,1*%
%TO.N,/FB*%
X126062500Y-83400000D03*
%TO.P,TJ22,2*%
%TO.N,GND*%
X127737500Y-83400000D03*
%TD*%
D12*
%TO.P,TJ18,1*%
%TO.N,/FB*%
X111900000Y-72437500D03*
%TO.P,TJ18,2*%
%TO.N,GND*%
X111900000Y-70762500D03*
%TD*%
D15*
%TO.P,TJ19,1*%
%TO.N,/FB*%
X123900000Y-86762500D03*
%TO.P,TJ19,2*%
%TO.N,GND*%
X123900000Y-88437500D03*
%TD*%
D14*
%TO.P,TJ11,1*%
%TO.N,/FB*%
X108937500Y-81600000D03*
%TO.P,TJ11,2*%
%TO.N,GND*%
X107262500Y-81600000D03*
%TD*%
D16*
%TO.N,Net-(U1D-+)*%
X139750000Y-70250000D03*
%TO.N,GND*%
X143000000Y-76500000D03*
X103750000Y-63250000D03*
X113500000Y-89500000D03*
X105000000Y-82500000D03*
X114500000Y-89500000D03*
X146000000Y-59750000D03*
X137000000Y-78500000D03*
X112500000Y-89500000D03*
X141000000Y-74500000D03*
X106000000Y-79000000D03*
X137000000Y-74500000D03*
X114000000Y-68500000D03*
X112500000Y-69500000D03*
X113500000Y-69500000D03*
X140000000Y-83500000D03*
X141000000Y-80500000D03*
X105000000Y-84500000D03*
X106000000Y-84000000D03*
X129000000Y-77500000D03*
X115000000Y-68500000D03*
X145000000Y-84500000D03*
X137000000Y-82500000D03*
X115000000Y-90500000D03*
X130000000Y-79000000D03*
X137000000Y-84500000D03*
X130000000Y-80000000D03*
X116500000Y-89500000D03*
X140000000Y-81500000D03*
X143000000Y-74500000D03*
X139000000Y-84500000D03*
X116000000Y-90500000D03*
X106000000Y-83000000D03*
X142000000Y-83500000D03*
X131750000Y-59750000D03*
X144000000Y-77500000D03*
X106000000Y-81000000D03*
X112000000Y-68500000D03*
X126300000Y-65400000D03*
X119000000Y-90500000D03*
X139000000Y-82500000D03*
X145000000Y-74500000D03*
X146500000Y-92500000D03*
X143000000Y-84500000D03*
X140000000Y-75500000D03*
X138000000Y-75500000D03*
X137000000Y-80500000D03*
X141000000Y-78500000D03*
X105000000Y-79500000D03*
X115500000Y-89500000D03*
X105000000Y-81500000D03*
X118000000Y-68500000D03*
X110000000Y-68500000D03*
X144000000Y-81500000D03*
X113000000Y-68500000D03*
X138000000Y-77500000D03*
X120000000Y-90500000D03*
X141000000Y-82500000D03*
X141000000Y-76500000D03*
X106000000Y-78000000D03*
X129000000Y-80500000D03*
X145000000Y-76500000D03*
X142000000Y-75500000D03*
X105000000Y-80500000D03*
X111500000Y-69500000D03*
X116500000Y-69500000D03*
X117500000Y-89500000D03*
X137000000Y-76500000D03*
X113000000Y-90500000D03*
X114500000Y-69500000D03*
X140000000Y-77500000D03*
X104250000Y-92500000D03*
X143000000Y-80500000D03*
X118000000Y-90500000D03*
X139000000Y-80500000D03*
X106000000Y-80000000D03*
X144000000Y-83500000D03*
X114000000Y-90500000D03*
X142000000Y-79500000D03*
X115500000Y-69500000D03*
X122500000Y-69500000D03*
X119000000Y-68500000D03*
X145000000Y-80500000D03*
X129000000Y-78500000D03*
X117000000Y-68500000D03*
X105000000Y-78500000D03*
X143000000Y-78500000D03*
X138000000Y-83500000D03*
X117000000Y-90500000D03*
X145000000Y-78500000D03*
X139000000Y-74500000D03*
X120000000Y-68500000D03*
X138000000Y-79500000D03*
X142000000Y-77500000D03*
X129000000Y-79500000D03*
X120500000Y-89500000D03*
X119500000Y-89500000D03*
X144000000Y-75500000D03*
X110500000Y-69500000D03*
X106000000Y-85000000D03*
X130000000Y-78000000D03*
X118500000Y-89500000D03*
X142000000Y-81500000D03*
X117500000Y-69500000D03*
X105000000Y-83500000D03*
X106000000Y-82000000D03*
X139000000Y-76500000D03*
X143000000Y-82500000D03*
X140000000Y-79500000D03*
X138000000Y-81500000D03*
X120500000Y-69500000D03*
X139000000Y-78500000D03*
X122000000Y-68500000D03*
X145000000Y-82500000D03*
X116000000Y-68500000D03*
X119500000Y-69500000D03*
X121000000Y-68500000D03*
X118500000Y-69500000D03*
X141000000Y-84500000D03*
X111000000Y-68500000D03*
X121500000Y-69500000D03*
X144000000Y-79500000D03*
%TO.N,/Offset*%
X142750000Y-63200000D03*
X126500000Y-63587500D03*
%TO.N,+10V*%
X136000000Y-62250000D03*
X126100000Y-60100000D03*
%TO.N,Net-(U1D-+)*%
X131100000Y-70000000D03*
%TO.N,/I_SET*%
X125250000Y-66700000D03*
X123500000Y-59950000D03*
%TO.N,Net-(U1A-+)*%
X140900000Y-67800000D03*
X131900000Y-64800000D03*
%TO.N,/FB*%
X124000000Y-85000000D03*
X122000000Y-86000000D03*
X119000000Y-76500000D03*
X125000000Y-79500000D03*
X118000000Y-84000000D03*
X114000000Y-85000000D03*
X115000000Y-76500000D03*
X115000000Y-75500000D03*
X125000000Y-80500000D03*
X121000000Y-86500000D03*
X117000000Y-76500000D03*
X119000000Y-73500000D03*
X120000000Y-81000000D03*
X117000000Y-74500000D03*
X115000000Y-84500000D03*
X122000000Y-85000000D03*
X122000000Y-81000000D03*
X119000000Y-84500000D03*
X120000000Y-78000000D03*
X114000000Y-84000000D03*
X125000000Y-82500000D03*
X114000000Y-80000000D03*
X116000000Y-74000000D03*
X116000000Y-85000000D03*
X123000000Y-79500000D03*
X118000000Y-74000000D03*
X116000000Y-84000000D03*
X114000000Y-83000000D03*
X121000000Y-84500000D03*
X114000000Y-79000000D03*
X115000000Y-85500000D03*
X114000000Y-77000000D03*
X118000000Y-81000000D03*
X121000000Y-85500000D03*
X127500000Y-71200000D03*
X125000000Y-83500000D03*
X114000000Y-74000000D03*
X115000000Y-73500000D03*
X123000000Y-86500000D03*
X120000000Y-85000000D03*
X123000000Y-84500000D03*
X115000000Y-82500000D03*
X125000000Y-81500000D03*
X115000000Y-77500000D03*
X119000000Y-79500000D03*
X117000000Y-79500000D03*
X115000000Y-80500000D03*
X115000000Y-81500000D03*
X120000000Y-84000000D03*
X113000000Y-73500000D03*
X116000000Y-78000000D03*
X114000000Y-75000000D03*
X119000000Y-85500000D03*
X125000000Y-84500000D03*
X118000000Y-78000000D03*
X121000000Y-79500000D03*
X115000000Y-79500000D03*
X122000000Y-84000000D03*
X117000000Y-84500000D03*
X144250000Y-71200000D03*
X114000000Y-76000000D03*
X118000000Y-75000000D03*
X115000000Y-78500000D03*
X119000000Y-74500000D03*
X123000000Y-82500000D03*
X120000000Y-75000000D03*
X114000000Y-82000000D03*
X119000000Y-82500000D03*
X118000000Y-85000000D03*
X115000000Y-74500000D03*
X115000000Y-83500000D03*
X116000000Y-81000000D03*
X121000000Y-73500000D03*
X117000000Y-73500000D03*
X122000000Y-78000000D03*
X120000000Y-74000000D03*
X125000000Y-78500000D03*
X124000000Y-86000000D03*
X123000000Y-85500000D03*
X121000000Y-82500000D03*
X114000000Y-81000000D03*
X114000000Y-78000000D03*
X117000000Y-82500000D03*
X116000000Y-75000000D03*
X117000000Y-85500000D03*
X125000000Y-85500000D03*
%TD*%
D17*
%TO.N,+10V*%
X136000000Y-62250000D02*
X134500000Y-60750000D01*
X134500000Y-60750000D02*
X126750000Y-60750000D01*
X126750000Y-60750000D02*
X126100000Y-60100000D01*
%TO.N,/Offset*%
X142750000Y-63200000D02*
X141450000Y-64500000D01*
X141450000Y-64500000D02*
X134718750Y-64500000D01*
X134718750Y-64500000D02*
X132968750Y-62750000D01*
X132968750Y-62750000D02*
X127337500Y-62750000D01*
X127337500Y-62750000D02*
X126500000Y-63587500D01*
%TO.N,/I_SET*%
X123500000Y-65600000D02*
X124600000Y-66700000D01*
X123500000Y-59950000D02*
X123500000Y-65600000D01*
X124600000Y-66700000D02*
X125250000Y-66700000D01*
%TO.N,Net-(U1A-+)*%
X140900000Y-67800000D02*
X134900000Y-67800000D01*
X134900000Y-67800000D02*
X131900000Y-64800000D01*
%TO.N,/FB*%
X126062500Y-72437500D02*
X123900000Y-72437500D01*
X144250000Y-71200000D02*
X127500000Y-71200000D01*
X127300000Y-71200000D02*
X126062500Y-72437500D01*
X127500000Y-71200000D02*
X127300000Y-71200000D01*
%TO.N,Net-(U1D-+)*%
X139500000Y-70000000D02*
X131100000Y-70000000D01*
X139750000Y-70250000D02*
X139500000Y-70000000D01*
%TD*%
%TA.AperFunction,Conductor*%
%TO.N,GND*%
G36*
X150934659Y-57519454D02*
G01*
X151015441Y-57573430D01*
X151069417Y-57654212D01*
X151088371Y-57749500D01*
X151069417Y-57844788D01*
X151015441Y-57925570D01*
X150956748Y-57969099D01*
X150749684Y-58079776D01*
X150749682Y-58079777D01*
X150471894Y-58265390D01*
X150471883Y-58265398D01*
X150213613Y-58477354D01*
X149977354Y-58713613D01*
X149765398Y-58971883D01*
X149765390Y-58971894D01*
X149579777Y-59249682D01*
X149579776Y-59249684D01*
X149422274Y-59544349D01*
X149294421Y-59853016D01*
X149294413Y-59853037D01*
X149197432Y-60172741D01*
X149168682Y-60317281D01*
X149139888Y-60462040D01*
X149132248Y-60500447D01*
X149099500Y-60832943D01*
X149099500Y-61167056D01*
X149132248Y-61499552D01*
X149197432Y-61827258D01*
X149294413Y-62146962D01*
X149294421Y-62146983D01*
X149422274Y-62455650D01*
X149579776Y-62750315D01*
X149579777Y-62750317D01*
X149752200Y-63008365D01*
X149765399Y-63028118D01*
X149977357Y-63286390D01*
X150213610Y-63522643D01*
X150471882Y-63734601D01*
X150749685Y-63920224D01*
X150884364Y-63992211D01*
X151044349Y-64077725D01*
X151206280Y-64144798D01*
X151353024Y-64205582D01*
X151353036Y-64205585D01*
X151353037Y-64205586D01*
X151672741Y-64302567D01*
X151672745Y-64302567D01*
X151672749Y-64302569D01*
X152000441Y-64367751D01*
X152332944Y-64400500D01*
X152332947Y-64400500D01*
X152667053Y-64400500D01*
X152667056Y-64400500D01*
X152999559Y-64367751D01*
X153327251Y-64302569D01*
X153646976Y-64205582D01*
X153898334Y-64101466D01*
X153955650Y-64077725D01*
X153955654Y-64077723D01*
X154250315Y-63920224D01*
X154528118Y-63734601D01*
X154786390Y-63522643D01*
X155022643Y-63286390D01*
X155234601Y-63028118D01*
X155420224Y-62750315D01*
X155530901Y-62543251D01*
X155592536Y-62468150D01*
X155678219Y-62422351D01*
X155774906Y-62412828D01*
X155867877Y-62441030D01*
X155942979Y-62502665D01*
X155988778Y-62588348D01*
X155999500Y-62660629D01*
X155999500Y-91339370D01*
X155980546Y-91434658D01*
X155926570Y-91515440D01*
X155845788Y-91569416D01*
X155750500Y-91588370D01*
X155655212Y-91569416D01*
X155574430Y-91515440D01*
X155530902Y-91456748D01*
X155420228Y-91249691D01*
X155420222Y-91249682D01*
X155234609Y-90971894D01*
X155234601Y-90971882D01*
X155022643Y-90713610D01*
X154786390Y-90477357D01*
X154528118Y-90265399D01*
X154528105Y-90265390D01*
X154250317Y-90079777D01*
X154250315Y-90079776D01*
X153955650Y-89922274D01*
X153646983Y-89794421D01*
X153646976Y-89794418D01*
X153646971Y-89794416D01*
X153646962Y-89794413D01*
X153327258Y-89697432D01*
X153163405Y-89664840D01*
X152999559Y-89632249D01*
X152999555Y-89632248D01*
X152999552Y-89632248D01*
X152667056Y-89599500D01*
X152332944Y-89599500D01*
X152332943Y-89599500D01*
X152000447Y-89632248D01*
X152000442Y-89632248D01*
X152000441Y-89632249D01*
X151919655Y-89648318D01*
X151672741Y-89697432D01*
X151353037Y-89794413D01*
X151353016Y-89794421D01*
X151044349Y-89922274D01*
X150749684Y-90079776D01*
X150749682Y-90079777D01*
X150471894Y-90265390D01*
X150471883Y-90265398D01*
X150213613Y-90477354D01*
X149977354Y-90713613D01*
X149765398Y-90971883D01*
X149765390Y-90971894D01*
X149579777Y-91249682D01*
X149579776Y-91249684D01*
X149422274Y-91544349D01*
X149294421Y-91853016D01*
X149294413Y-91853037D01*
X149197432Y-92172741D01*
X149132248Y-92500447D01*
X149099500Y-92832943D01*
X149099500Y-93167056D01*
X149132248Y-93499556D01*
X149132249Y-93499563D01*
X149144753Y-93562422D01*
X149144754Y-93659577D01*
X149107574Y-93749337D01*
X149038875Y-93818036D01*
X148949116Y-93855215D01*
X148900538Y-93860000D01*
X145430000Y-93860000D01*
X145430000Y-93860001D01*
X145430000Y-96250500D01*
X145411046Y-96345788D01*
X145357070Y-96426570D01*
X145276288Y-96480546D01*
X145181000Y-96499500D01*
X97160629Y-96499500D01*
X97065341Y-96480546D01*
X96984559Y-96426570D01*
X96930583Y-96345788D01*
X96911629Y-96250500D01*
X96930583Y-96155212D01*
X96984559Y-96074430D01*
X97043252Y-96030901D01*
X97250315Y-95920224D01*
X97528118Y-95734601D01*
X97786390Y-95522643D01*
X98022643Y-95286390D01*
X98234601Y-95028118D01*
X98420224Y-94750315D01*
X98577723Y-94455654D01*
X98705582Y-94146976D01*
X98770240Y-93933826D01*
X98802567Y-93827258D01*
X98802567Y-93827256D01*
X98802569Y-93827251D01*
X98867751Y-93499559D01*
X98900500Y-93167056D01*
X98900500Y-92832944D01*
X98867751Y-92500441D01*
X98802569Y-92172749D01*
X98705582Y-91853024D01*
X98644798Y-91706280D01*
X98577725Y-91544349D01*
X98420223Y-91249684D01*
X98420222Y-91249682D01*
X98234609Y-90971894D01*
X98234601Y-90971882D01*
X98022643Y-90713610D01*
X97786390Y-90477357D01*
X97528118Y-90265399D01*
X97528105Y-90265390D01*
X97250317Y-90079777D01*
X97250315Y-90079776D01*
X96955650Y-89922274D01*
X96646983Y-89794421D01*
X96646976Y-89794418D01*
X96646971Y-89794416D01*
X96646962Y-89794413D01*
X96327258Y-89697432D01*
X96163405Y-89664840D01*
X95999559Y-89632249D01*
X95999555Y-89632248D01*
X95999552Y-89632248D01*
X95667056Y-89599500D01*
X95332944Y-89599500D01*
X95332943Y-89599500D01*
X95000447Y-89632248D01*
X95000442Y-89632248D01*
X95000441Y-89632249D01*
X94919655Y-89648318D01*
X94672741Y-89697432D01*
X94353037Y-89794413D01*
X94353016Y-89794421D01*
X94044349Y-89922274D01*
X93749684Y-90079776D01*
X93749682Y-90079777D01*
X93471894Y-90265390D01*
X93471883Y-90265398D01*
X93213613Y-90477354D01*
X92977354Y-90713613D01*
X92765398Y-90971883D01*
X92765390Y-90971894D01*
X92579777Y-91249682D01*
X92579771Y-91249691D01*
X92469098Y-91456748D01*
X92407464Y-91531850D01*
X92321781Y-91577648D01*
X92225094Y-91587171D01*
X92132122Y-91558968D01*
X92057020Y-91497334D01*
X92011222Y-91411651D01*
X92000500Y-91339370D01*
X92000500Y-71974000D01*
X107836500Y-71974000D01*
X107836500Y-72009940D01*
X107837165Y-72036066D01*
X107837807Y-72048668D01*
X107839800Y-72074726D01*
X107841044Y-72086906D01*
X107841339Y-72095097D01*
X107841114Y-72096484D01*
X107841500Y-72104052D01*
X107841500Y-75095942D01*
X107840216Y-75121197D01*
X107839804Y-75125237D01*
X107839801Y-75125268D01*
X107838358Y-75144127D01*
X107837805Y-75151358D01*
X107837163Y-75163952D01*
X107836500Y-75190043D01*
X107836500Y-76009957D01*
X107837163Y-76036047D01*
X107837807Y-76048664D01*
X107839800Y-76074727D01*
X107840211Y-76078749D01*
X107841500Y-76104052D01*
X107841500Y-79095942D01*
X107840216Y-79121197D01*
X107839804Y-79125237D01*
X107839801Y-79125268D01*
X107838358Y-79144127D01*
X107837805Y-79151358D01*
X107837163Y-79163952D01*
X107836500Y-79190043D01*
X107836500Y-80009957D01*
X107837163Y-80036047D01*
X107837807Y-80048664D01*
X107839800Y-80074727D01*
X107840211Y-80078749D01*
X107841500Y-80104052D01*
X107841500Y-83095942D01*
X107840216Y-83121197D01*
X107839804Y-83125237D01*
X107839801Y-83125268D01*
X107838358Y-83144127D01*
X107837805Y-83151358D01*
X107837163Y-83163952D01*
X107836500Y-83190043D01*
X107836500Y-84009957D01*
X107837163Y-84036047D01*
X107837807Y-84048664D01*
X107839800Y-84074727D01*
X107840211Y-84078749D01*
X107841500Y-84104052D01*
X107841500Y-87082872D01*
X107841500Y-87082881D01*
X107841501Y-87100544D01*
X107841913Y-87104584D01*
X107839801Y-87125268D01*
X107837807Y-87151335D01*
X107837165Y-87163938D01*
X107836500Y-87190062D01*
X107836500Y-87276000D01*
X107841727Y-87349080D01*
X107846750Y-87384015D01*
X107862321Y-87455595D01*
X107874929Y-87483206D01*
X107887683Y-87521523D01*
X107887684Y-87521525D01*
X107894106Y-87540818D01*
X107894332Y-87541291D01*
X107921678Y-87585578D01*
X107923034Y-87588546D01*
X107926929Y-87594607D01*
X107927161Y-87594457D01*
X107935262Y-87607576D01*
X107958770Y-87644155D01*
X107962433Y-87650053D01*
X107964573Y-87653186D01*
X107966378Y-87655994D01*
X108009436Y-87705684D01*
X108009442Y-87705691D01*
X108048739Y-87751043D01*
X108056536Y-87757799D01*
X108079898Y-87772812D01*
X108108341Y-87794103D01*
X108125609Y-87809065D01*
X108129339Y-87812297D01*
X108129825Y-87812609D01*
X108130781Y-87813062D01*
X108174613Y-87834586D01*
X108178103Y-87836180D01*
X108178107Y-87836182D01*
X108221263Y-87855890D01*
X108243040Y-87865835D01*
X108243068Y-87865848D01*
X108243069Y-87865848D01*
X108250796Y-87869375D01*
X108250822Y-87869386D01*
X108252395Y-87870104D01*
X108253672Y-87870479D01*
X108253775Y-87870513D01*
X108262280Y-87873010D01*
X108262286Y-87873013D01*
X108287637Y-87880457D01*
X108287637Y-87880456D01*
X108320615Y-87890139D01*
X108320615Y-87890140D01*
X108329301Y-87892691D01*
X108329330Y-87892700D01*
X108329335Y-87892700D01*
X108336951Y-87894937D01*
X108373083Y-87905546D01*
X108383306Y-87907016D01*
X108383307Y-87907015D01*
X108383308Y-87907016D01*
X108411060Y-87907013D01*
X108446521Y-87909548D01*
X108459167Y-87911367D01*
X108473991Y-87913499D01*
X108473995Y-87913499D01*
X108474000Y-87913500D01*
X108474004Y-87913500D01*
X110131048Y-87913500D01*
X110131049Y-87913500D01*
X110212857Y-87906941D01*
X110251859Y-87900647D01*
X110331569Y-87881142D01*
X110361751Y-87871139D01*
X110440080Y-87858499D01*
X113359917Y-87858499D01*
X113438238Y-87871137D01*
X113468430Y-87881142D01*
X113496989Y-87888130D01*
X113548116Y-87900642D01*
X113548121Y-87900643D01*
X113548142Y-87900648D01*
X113587145Y-87906942D01*
X113659861Y-87912771D01*
X113668950Y-87913500D01*
X113668951Y-87913500D01*
X114131048Y-87913500D01*
X114131049Y-87913500D01*
X114212857Y-87906941D01*
X114251859Y-87900647D01*
X114331569Y-87881142D01*
X114361751Y-87871139D01*
X114440080Y-87858499D01*
X117359917Y-87858499D01*
X117438238Y-87871137D01*
X117468430Y-87881142D01*
X117496989Y-87888130D01*
X117548116Y-87900642D01*
X117548121Y-87900643D01*
X117548142Y-87900648D01*
X117587145Y-87906942D01*
X117659861Y-87912771D01*
X117668950Y-87913500D01*
X117668951Y-87913500D01*
X118131048Y-87913500D01*
X118131049Y-87913500D01*
X118212857Y-87906941D01*
X118251859Y-87900647D01*
X118331569Y-87881142D01*
X118361751Y-87871139D01*
X118440080Y-87858499D01*
X121359917Y-87858499D01*
X121438238Y-87871137D01*
X121468430Y-87881142D01*
X121496989Y-87888130D01*
X121548116Y-87900642D01*
X121548121Y-87900643D01*
X121548142Y-87900648D01*
X121587145Y-87906942D01*
X121659861Y-87912771D01*
X121668950Y-87913500D01*
X121668951Y-87913500D01*
X122131048Y-87913500D01*
X122131049Y-87913500D01*
X122212857Y-87906941D01*
X122251859Y-87900647D01*
X122331569Y-87881142D01*
X122361751Y-87871139D01*
X122440080Y-87858499D01*
X125359917Y-87858499D01*
X125438238Y-87871137D01*
X125468430Y-87881142D01*
X125496989Y-87888130D01*
X125548116Y-87900642D01*
X125548121Y-87900643D01*
X125548142Y-87900648D01*
X125587145Y-87906942D01*
X125659861Y-87912771D01*
X125668950Y-87913500D01*
X125668951Y-87913500D01*
X126525998Y-87913500D01*
X126526000Y-87913500D01*
X126635157Y-87901764D01*
X126635162Y-87901763D01*
X126635163Y-87901763D01*
X126686661Y-87890560D01*
X126686664Y-87890559D01*
X126686665Y-87890558D01*
X126686668Y-87890558D01*
X126790827Y-87855890D01*
X126913782Y-87776871D01*
X126966586Y-87731116D01*
X127062297Y-87620661D01*
X127123014Y-87487713D01*
X127142699Y-87420674D01*
X127142700Y-87420670D01*
X127163500Y-87276000D01*
X127163500Y-84990058D01*
X127162835Y-84963932D01*
X127162193Y-84951330D01*
X127160199Y-84925269D01*
X127159790Y-84921274D01*
X127158499Y-84895975D01*
X127158499Y-81904047D01*
X127159789Y-81878733D01*
X127160198Y-81874734D01*
X127162193Y-81848663D01*
X127162835Y-81836060D01*
X127163500Y-81809936D01*
X127163500Y-80990058D01*
X127162835Y-80963932D01*
X127162193Y-80951330D01*
X127160199Y-80925269D01*
X127159790Y-80921274D01*
X127158499Y-80895975D01*
X127158499Y-77904047D01*
X127159789Y-77878733D01*
X127160198Y-77874734D01*
X127162193Y-77848663D01*
X127162835Y-77836060D01*
X127163500Y-77809936D01*
X127163500Y-76990058D01*
X127162835Y-76963932D01*
X127162193Y-76951330D01*
X127160199Y-76925269D01*
X127159790Y-76921274D01*
X127158499Y-76895975D01*
X127158499Y-73904047D01*
X127159789Y-73878733D01*
X127160198Y-73874734D01*
X127162193Y-73848663D01*
X127162835Y-73836060D01*
X127163500Y-73809936D01*
X127163500Y-72370910D01*
X127171209Y-72332152D01*
X127176027Y-72292925D01*
X127180630Y-72284788D01*
X127182454Y-72275622D01*
X127204409Y-72242763D01*
X127223871Y-72208367D01*
X127231236Y-72202612D01*
X127236430Y-72194840D01*
X127269291Y-72172882D01*
X127300432Y-72148555D01*
X127308541Y-72146657D01*
X127317212Y-72140864D01*
X127394054Y-72122594D01*
X127404139Y-72121844D01*
X127436741Y-72122077D01*
X127438495Y-72122024D01*
X127477144Y-72119394D01*
X127570677Y-72109473D01*
X127574580Y-72109184D01*
X127576239Y-72109387D01*
X127585359Y-72108905D01*
X127589470Y-72108500D01*
X127589479Y-72108500D01*
X127589487Y-72108498D01*
X127589582Y-72108489D01*
X127611701Y-72105122D01*
X127619479Y-72104298D01*
X127642099Y-72101390D01*
X127643124Y-72101235D01*
X127678285Y-72093159D01*
X127708720Y-72088129D01*
X127714269Y-72087563D01*
X127795058Y-72067399D01*
X127795062Y-72067398D01*
X127821454Y-72060057D01*
X127821462Y-72060054D01*
X127821489Y-72060047D01*
X127822674Y-72059683D01*
X127848239Y-72051089D01*
X127922913Y-72023784D01*
X127959942Y-72008584D01*
X127961610Y-72007822D01*
X127997768Y-71989546D01*
X128124062Y-71919326D01*
X128145215Y-71906894D01*
X128146150Y-71906314D01*
X128166049Y-71893323D01*
X128182564Y-71881987D01*
X128195614Y-71876389D01*
X128206618Y-71867402D01*
X128237065Y-71858608D01*
X128271847Y-71843689D01*
X128299656Y-71839419D01*
X128302344Y-71839160D01*
X128319359Y-71837902D01*
X128347739Y-71834797D01*
X128349359Y-71834642D01*
X128350367Y-71834743D01*
X128373181Y-71833500D01*
X143394150Y-71833500D01*
X143434616Y-71837400D01*
X143434623Y-71837351D01*
X143436634Y-71837595D01*
X143441709Y-71838084D01*
X143443444Y-71838422D01*
X143443449Y-71838422D01*
X143443453Y-71838423D01*
X143452279Y-71839495D01*
X143452032Y-71841521D01*
X143532979Y-71861810D01*
X143561106Y-71877417D01*
X143562518Y-71878324D01*
X143562672Y-71878422D01*
X143564911Y-71879852D01*
X143564978Y-71879894D01*
X143565040Y-71879934D01*
X143565163Y-71880012D01*
X143568332Y-71881989D01*
X143571574Y-71884012D01*
X143701760Y-71963900D01*
X143737936Y-71984135D01*
X143737952Y-71984143D01*
X143737959Y-71984147D01*
X143739644Y-71985002D01*
X143777414Y-72002283D01*
X143777424Y-72002287D01*
X143777426Y-72002288D01*
X143863795Y-72037655D01*
X143895616Y-72049473D01*
X143897064Y-72049957D01*
X143897073Y-72049959D01*
X143897077Y-72049961D01*
X143929727Y-72059683D01*
X144029845Y-72085911D01*
X144043729Y-72089342D01*
X144043738Y-72089344D01*
X144043770Y-72089352D01*
X144044189Y-72089448D01*
X144044383Y-72089494D01*
X144113638Y-72100670D01*
X144113638Y-72100669D01*
X144126634Y-72102767D01*
X144126623Y-72102831D01*
X144141362Y-72104689D01*
X144160519Y-72108500D01*
X144160521Y-72108500D01*
X144339477Y-72108500D01*
X144339479Y-72108500D01*
X144515000Y-72073587D01*
X144680336Y-72005102D01*
X144829135Y-71905678D01*
X144955678Y-71779135D01*
X145055102Y-71630336D01*
X145123587Y-71465000D01*
X145158500Y-71289479D01*
X145158500Y-71110521D01*
X145123587Y-70935000D01*
X145055102Y-70769664D01*
X144955678Y-70620865D01*
X144829135Y-70494322D01*
X144827062Y-70492937D01*
X144680336Y-70394898D01*
X144680331Y-70394895D01*
X144515001Y-70326413D01*
X144456493Y-70314775D01*
X144339479Y-70291500D01*
X144160521Y-70291500D01*
X144132004Y-70297172D01*
X144087448Y-70306034D01*
X144064188Y-70309527D01*
X144035743Y-70312433D01*
X144035738Y-70312434D01*
X144035734Y-70312434D01*
X144035733Y-70312435D01*
X144015439Y-70317500D01*
X143954916Y-70332605D01*
X143928569Y-70339931D01*
X143927476Y-70340267D01*
X143927453Y-70340274D01*
X143927439Y-70340279D01*
X143917741Y-70343538D01*
X143901757Y-70348909D01*
X143827070Y-70376220D01*
X143789905Y-70391483D01*
X143788225Y-70392252D01*
X143752255Y-70410440D01*
X143625919Y-70480682D01*
X143606374Y-70492161D01*
X143605054Y-70492937D01*
X143604158Y-70493492D01*
X143583962Y-70506667D01*
X143570433Y-70515953D01*
X143567420Y-70518021D01*
X143554373Y-70523616D01*
X143543384Y-70532592D01*
X143512933Y-70541388D01*
X143478130Y-70556314D01*
X143450347Y-70560578D01*
X143447583Y-70560843D01*
X143430642Y-70562097D01*
X143402297Y-70565197D01*
X143400637Y-70565357D01*
X143399632Y-70565255D01*
X143376809Y-70566500D01*
X140907500Y-70566500D01*
X140812212Y-70547546D01*
X140731430Y-70493570D01*
X140677454Y-70412788D01*
X140658500Y-70317500D01*
X140658500Y-70160522D01*
X140644368Y-70089476D01*
X140623587Y-69985000D01*
X140555102Y-69819664D01*
X140455678Y-69670865D01*
X140329135Y-69544322D01*
X140180336Y-69444898D01*
X140180331Y-69444895D01*
X140015001Y-69376413D01*
X139942822Y-69362056D01*
X139839479Y-69341500D01*
X139660521Y-69341500D01*
X139660515Y-69341500D01*
X139627361Y-69348095D01*
X139611114Y-69350772D01*
X139597732Y-69352524D01*
X139576631Y-69352986D01*
X139511335Y-69363836D01*
X139507084Y-69364393D01*
X139503316Y-69364143D01*
X139474758Y-69366500D01*
X139186387Y-69366500D01*
X139176520Y-69366304D01*
X139173784Y-69366195D01*
X139077735Y-69362385D01*
X139066543Y-69362063D01*
X139066127Y-69362056D01*
X139066119Y-69362056D01*
X139066117Y-69362056D01*
X139066114Y-69362056D01*
X139014477Y-69364358D01*
X138989198Y-69365486D01*
X138989189Y-69365300D01*
X138972935Y-69366500D01*
X131955853Y-69366500D01*
X131922364Y-69364238D01*
X131915301Y-69363279D01*
X131906554Y-69361577D01*
X131900582Y-69361281D01*
X131890027Y-69359849D01*
X131853958Y-69347443D01*
X131816963Y-69338161D01*
X131800653Y-69329110D01*
X131798154Y-69328251D01*
X131796551Y-69326834D01*
X131788937Y-69322609D01*
X131787540Y-69321712D01*
X131783019Y-69318842D01*
X131783006Y-69318833D01*
X131782918Y-69318778D01*
X131782714Y-69318650D01*
X131778367Y-69315953D01*
X131648256Y-69236110D01*
X131635350Y-69228890D01*
X131612034Y-69215848D01*
X131610352Y-69214995D01*
X131572589Y-69197717D01*
X131486176Y-69162333D01*
X131454501Y-69150566D01*
X131453027Y-69150073D01*
X131420290Y-69140321D01*
X131367200Y-69126413D01*
X131320146Y-69114086D01*
X131305762Y-69110539D01*
X131305118Y-69110390D01*
X131305114Y-69110389D01*
X131305101Y-69110387D01*
X131223406Y-69097245D01*
X131223417Y-69097172D01*
X131208639Y-69095311D01*
X131208055Y-69095194D01*
X131189479Y-69091500D01*
X131010521Y-69091500D01*
X130922760Y-69108956D01*
X130834998Y-69126413D01*
X130669668Y-69194895D01*
X130669663Y-69194898D01*
X130520868Y-69294319D01*
X130394319Y-69420868D01*
X130294898Y-69569663D01*
X130294895Y-69569668D01*
X130226413Y-69734998D01*
X130226413Y-69735000D01*
X130191500Y-69910521D01*
X130191500Y-70089479D01*
X130226413Y-70265000D01*
X130226414Y-70265004D01*
X130227194Y-70268922D01*
X130227194Y-70366077D01*
X130190014Y-70455837D01*
X130121315Y-70524536D01*
X130031556Y-70561716D01*
X129982978Y-70566500D01*
X128355853Y-70566500D01*
X128322364Y-70564238D01*
X128315301Y-70563279D01*
X128306554Y-70561577D01*
X128300582Y-70561281D01*
X128290027Y-70559849D01*
X128253958Y-70547443D01*
X128216963Y-70538161D01*
X128200653Y-70529110D01*
X128198154Y-70528251D01*
X128196551Y-70526834D01*
X128188937Y-70522609D01*
X128187540Y-70521712D01*
X128183019Y-70518842D01*
X128183006Y-70518833D01*
X128182918Y-70518778D01*
X128182714Y-70518650D01*
X128178367Y-70515953D01*
X128048256Y-70436110D01*
X128035350Y-70428890D01*
X128012034Y-70415848D01*
X128010352Y-70414995D01*
X127972589Y-70397717D01*
X127886176Y-70362333D01*
X127854501Y-70350566D01*
X127853027Y-70350073D01*
X127820290Y-70340321D01*
X127767200Y-70326413D01*
X127720146Y-70314086D01*
X127705762Y-70310539D01*
X127705118Y-70310390D01*
X127705114Y-70310389D01*
X127705101Y-70310387D01*
X127623406Y-70297245D01*
X127623417Y-70297172D01*
X127608639Y-70295311D01*
X127608055Y-70295194D01*
X127589479Y-70291500D01*
X127410521Y-70291500D01*
X127337453Y-70306034D01*
X127234998Y-70326413D01*
X127069668Y-70394895D01*
X127069663Y-70394898D01*
X126920868Y-70494319D01*
X126794319Y-70620868D01*
X126754336Y-70680707D01*
X126754327Y-70680720D01*
X126745856Y-70693399D01*
X126720382Y-70724794D01*
X126584528Y-70952017D01*
X126583239Y-70954156D01*
X126583213Y-70954198D01*
X126520877Y-71057661D01*
X126502117Y-71084604D01*
X126486428Y-71104237D01*
X126473074Y-71119614D01*
X126404122Y-71192741D01*
X126366169Y-71236919D01*
X126353373Y-71250721D01*
X126340532Y-71263563D01*
X126259753Y-71317542D01*
X126164466Y-71336500D01*
X125490059Y-71336500D01*
X125463974Y-71337163D01*
X125463968Y-71337163D01*
X125463940Y-71337164D01*
X125451399Y-71337802D01*
X125451374Y-71337803D01*
X125451372Y-71337804D01*
X125448910Y-71337992D01*
X125425258Y-71339800D01*
X125421230Y-71340212D01*
X125395935Y-71341500D01*
X122404056Y-71341500D01*
X122378798Y-71340216D01*
X122374747Y-71339802D01*
X122348641Y-71337805D01*
X122336047Y-71337163D01*
X122309955Y-71336500D01*
X122309937Y-71336500D01*
X121490059Y-71336500D01*
X121463974Y-71337163D01*
X121463968Y-71337163D01*
X121463940Y-71337164D01*
X121451399Y-71337802D01*
X121451374Y-71337803D01*
X121451372Y-71337804D01*
X121448910Y-71337992D01*
X121425258Y-71339800D01*
X121421230Y-71340212D01*
X121395935Y-71341500D01*
X118404056Y-71341500D01*
X118378798Y-71340216D01*
X118374747Y-71339802D01*
X118348641Y-71337805D01*
X118336047Y-71337163D01*
X118309955Y-71336500D01*
X118309937Y-71336500D01*
X117490059Y-71336500D01*
X117463974Y-71337163D01*
X117463968Y-71337163D01*
X117463940Y-71337164D01*
X117451399Y-71337802D01*
X117451374Y-71337803D01*
X117451372Y-71337804D01*
X117448910Y-71337992D01*
X117425258Y-71339800D01*
X117421230Y-71340212D01*
X117395935Y-71341500D01*
X114404056Y-71341500D01*
X114378798Y-71340216D01*
X114374747Y-71339802D01*
X114348641Y-71337805D01*
X114336047Y-71337163D01*
X114309955Y-71336500D01*
X114309937Y-71336500D01*
X113490059Y-71336500D01*
X113463974Y-71337163D01*
X113463968Y-71337163D01*
X113463940Y-71337164D01*
X113451399Y-71337802D01*
X113451374Y-71337803D01*
X113451372Y-71337804D01*
X113448910Y-71337992D01*
X113425258Y-71339800D01*
X113421230Y-71340212D01*
X113395935Y-71341500D01*
X110404056Y-71341500D01*
X110378798Y-71340216D01*
X110374747Y-71339802D01*
X110348641Y-71337805D01*
X110336047Y-71337163D01*
X110309955Y-71336500D01*
X110309937Y-71336500D01*
X108474000Y-71336500D01*
X108473996Y-71336500D01*
X108364837Y-71348236D01*
X108364836Y-71348236D01*
X108313338Y-71359439D01*
X108313335Y-71359440D01*
X108209172Y-71394109D01*
X108086223Y-71473125D01*
X108086213Y-71473132D01*
X108033421Y-71518877D01*
X108033407Y-71518891D01*
X107937703Y-71629337D01*
X107876985Y-71762287D01*
X107857301Y-71829321D01*
X107852630Y-71861810D01*
X107836500Y-71974000D01*
X92000500Y-71974000D01*
X92000500Y-62660629D01*
X92019454Y-62565341D01*
X92073430Y-62484559D01*
X92154212Y-62430583D01*
X92249500Y-62411629D01*
X92344788Y-62430583D01*
X92425570Y-62484559D01*
X92469099Y-62543252D01*
X92579776Y-62750315D01*
X92579777Y-62750317D01*
X92752200Y-63008365D01*
X92765399Y-63028118D01*
X92977357Y-63286390D01*
X93213610Y-63522643D01*
X93471882Y-63734601D01*
X93749685Y-63920224D01*
X93884364Y-63992211D01*
X94044349Y-64077725D01*
X94206280Y-64144798D01*
X94353024Y-64205582D01*
X94353036Y-64205585D01*
X94353037Y-64205586D01*
X94672741Y-64302567D01*
X94672745Y-64302567D01*
X94672749Y-64302569D01*
X95000441Y-64367751D01*
X95332944Y-64400500D01*
X95332947Y-64400500D01*
X95667053Y-64400500D01*
X95667056Y-64400500D01*
X95999559Y-64367751D01*
X96327251Y-64302569D01*
X96646976Y-64205582D01*
X96898334Y-64101466D01*
X96955650Y-64077725D01*
X96955654Y-64077723D01*
X97250315Y-63920224D01*
X97528118Y-63734601D01*
X97786390Y-63522643D01*
X98022643Y-63286390D01*
X98234601Y-63028118D01*
X98420224Y-62750315D01*
X98577723Y-62455654D01*
X98582435Y-62444280D01*
X98625845Y-62339477D01*
X98705582Y-62146976D01*
X98802569Y-61827251D01*
X98867751Y-61499559D01*
X98900500Y-61167056D01*
X98900500Y-60832944D01*
X98867751Y-60500441D01*
X98802569Y-60172749D01*
X98799994Y-60164261D01*
X98726072Y-59920570D01*
X98726071Y-59920568D01*
X98707856Y-59860521D01*
X122591500Y-59860521D01*
X122591500Y-60039479D01*
X122608332Y-60124102D01*
X122610036Y-60140793D01*
X122610038Y-60140811D01*
X122612432Y-60164249D01*
X122612434Y-60164261D01*
X122632601Y-60245067D01*
X122639998Y-60271645D01*
X122640359Y-60272819D01*
X122648903Y-60298223D01*
X122676212Y-60372907D01*
X122691465Y-60410048D01*
X122692230Y-60411722D01*
X122710449Y-60447760D01*
X122780664Y-60574046D01*
X122793054Y-60595134D01*
X122793611Y-60596032D01*
X122793621Y-60596047D01*
X122806674Y-60616045D01*
X122806682Y-60616056D01*
X122818017Y-60632571D01*
X122823612Y-60645618D01*
X122832593Y-60656613D01*
X122841389Y-60687067D01*
X122856312Y-60721860D01*
X122860578Y-60749650D01*
X122860842Y-60752406D01*
X122862097Y-60769357D01*
X122865197Y-60797704D01*
X122865357Y-60799363D01*
X122865255Y-60800367D01*
X122866500Y-60823190D01*
X122866500Y-65537606D01*
X122866500Y-65662394D01*
X122890845Y-65784785D01*
X122897536Y-65800939D01*
X122938597Y-65900070D01*
X122938600Y-65900075D01*
X123007929Y-66003833D01*
X124047463Y-67043367D01*
X124072901Y-67074454D01*
X124141079Y-67136983D01*
X124144875Y-67140779D01*
X124144877Y-67140782D01*
X124170596Y-67166500D01*
X124196167Y-67192071D01*
X124299925Y-67261400D01*
X124299930Y-67261402D01*
X124299932Y-67261403D01*
X124352556Y-67283201D01*
X124356672Y-67284949D01*
X124361860Y-67287208D01*
X124458195Y-67334480D01*
X124486174Y-67347186D01*
X124487462Y-67347725D01*
X124516124Y-67358724D01*
X124561490Y-67374595D01*
X124627928Y-67399921D01*
X124661372Y-67415604D01*
X124766451Y-67474754D01*
X124789202Y-67486565D01*
X124812812Y-67500523D01*
X124819664Y-67505102D01*
X124985000Y-67573587D01*
X125160521Y-67608500D01*
X125160523Y-67608500D01*
X125339477Y-67608500D01*
X125339479Y-67608500D01*
X125515000Y-67573587D01*
X125680336Y-67505102D01*
X125829135Y-67405678D01*
X125955678Y-67279135D01*
X126055102Y-67130336D01*
X126123587Y-66965000D01*
X126158500Y-66789479D01*
X126158500Y-66610521D01*
X126123587Y-66435000D01*
X126055102Y-66269664D01*
X125955678Y-66120865D01*
X125829135Y-65994322D01*
X125753511Y-65943792D01*
X125680336Y-65894898D01*
X125680331Y-65894895D01*
X125515001Y-65826413D01*
X125447196Y-65812926D01*
X125339479Y-65791500D01*
X125160521Y-65791500D01*
X124985000Y-65826413D01*
X124984999Y-65826413D01*
X124984996Y-65826414D01*
X124944557Y-65843164D01*
X124935429Y-65846736D01*
X124933933Y-65847287D01*
X124887677Y-65863708D01*
X124877244Y-65868193D01*
X124871055Y-65870476D01*
X124829421Y-65877065D01*
X124788191Y-65885834D01*
X124781658Y-65884624D01*
X124775094Y-65885663D01*
X124734101Y-65875816D01*
X124692660Y-65868141D01*
X124687087Y-65864523D01*
X124680626Y-65862971D01*
X124646524Y-65838188D01*
X124611173Y-65815237D01*
X124608830Y-65812926D01*
X124206430Y-65410526D01*
X124152454Y-65329744D01*
X124133500Y-65234456D01*
X124133500Y-64710522D01*
X130991500Y-64710522D01*
X130991500Y-64889477D01*
X131026413Y-65065001D01*
X131094895Y-65230331D01*
X131094898Y-65230336D01*
X131194321Y-65379133D01*
X131194323Y-65379136D01*
X131320858Y-65505672D01*
X131320861Y-65505674D01*
X131320865Y-65505678D01*
X131382816Y-65547072D01*
X131401736Y-65561052D01*
X131423906Y-65579113D01*
X131495288Y-65621980D01*
X131518974Y-65635363D01*
X131520069Y-65635944D01*
X131544432Y-65648055D01*
X131616551Y-65681553D01*
X131628016Y-65686341D01*
X131653682Y-65697061D01*
X131653701Y-65697068D01*
X131655420Y-65697708D01*
X131693686Y-65710270D01*
X131832627Y-65749916D01*
X131855915Y-65755975D01*
X131856986Y-65756227D01*
X131880702Y-65761219D01*
X131880740Y-65761226D01*
X131900407Y-65764884D01*
X131913592Y-65770153D01*
X131927725Y-65771579D01*
X131955478Y-65786893D01*
X131990624Y-65800939D01*
X132013301Y-65817579D01*
X132015411Y-65819319D01*
X132028310Y-65830441D01*
X132050590Y-65848328D01*
X132051828Y-65849349D01*
X132052468Y-65850133D01*
X132069482Y-65865387D01*
X134496167Y-68292072D01*
X134599925Y-68361401D01*
X134599926Y-68361401D01*
X134599927Y-68361402D01*
X134658905Y-68385831D01*
X134658910Y-68385832D01*
X134715215Y-68409155D01*
X134837606Y-68433500D01*
X134837607Y-68433500D01*
X134962394Y-68433500D01*
X140044150Y-68433500D01*
X140077627Y-68435761D01*
X140084706Y-68436721D01*
X140093444Y-68438422D01*
X140099416Y-68438717D01*
X140109961Y-68440148D01*
X140146006Y-68452542D01*
X140182979Y-68461810D01*
X140199313Y-68470873D01*
X140201836Y-68471741D01*
X140203453Y-68473170D01*
X140211106Y-68477417D01*
X140212518Y-68478324D01*
X140212672Y-68478422D01*
X140214911Y-68479852D01*
X140214978Y-68479894D01*
X140215040Y-68479934D01*
X140215163Y-68480012D01*
X140219107Y-68482472D01*
X140221574Y-68484012D01*
X140351760Y-68563900D01*
X140387936Y-68584135D01*
X140387952Y-68584143D01*
X140387959Y-68584147D01*
X140389644Y-68585002D01*
X140427414Y-68602283D01*
X140427424Y-68602287D01*
X140427426Y-68602288D01*
X140513795Y-68637655D01*
X140545616Y-68649473D01*
X140547064Y-68649957D01*
X140547073Y-68649959D01*
X140547077Y-68649961D01*
X140579727Y-68659683D01*
X140679845Y-68685911D01*
X140693729Y-68689342D01*
X140693738Y-68689344D01*
X140693770Y-68689352D01*
X140694189Y-68689448D01*
X140694383Y-68689494D01*
X140763638Y-68700670D01*
X140763638Y-68700669D01*
X140776634Y-68702767D01*
X140776623Y-68702831D01*
X140791362Y-68704689D01*
X140810519Y-68708500D01*
X140810521Y-68708500D01*
X140989477Y-68708500D01*
X140989479Y-68708500D01*
X141165000Y-68673587D01*
X141330336Y-68605102D01*
X141479135Y-68505678D01*
X141605678Y-68379135D01*
X141705102Y-68230336D01*
X141773587Y-68065000D01*
X141808500Y-67889479D01*
X141808500Y-67710521D01*
X141773587Y-67535000D01*
X141720368Y-67406519D01*
X141705104Y-67369668D01*
X141705101Y-67369663D01*
X141690082Y-67347186D01*
X141605678Y-67220865D01*
X141479135Y-67094322D01*
X141477062Y-67092937D01*
X141330336Y-66994898D01*
X141330331Y-66994895D01*
X141165001Y-66926413D01*
X141094717Y-66912433D01*
X140989479Y-66891500D01*
X140810521Y-66891500D01*
X140765441Y-66900466D01*
X140737448Y-66906034D01*
X140714188Y-66909527D01*
X140685743Y-66912433D01*
X140685738Y-66912434D01*
X140685734Y-66912434D01*
X140685733Y-66912435D01*
X140658797Y-66919157D01*
X140604916Y-66932605D01*
X140578569Y-66939931D01*
X140577476Y-66940267D01*
X140577453Y-66940274D01*
X140577439Y-66940279D01*
X140567741Y-66943538D01*
X140551757Y-66948909D01*
X140477070Y-66976220D01*
X140439905Y-66991483D01*
X140438225Y-66992252D01*
X140402255Y-67010440D01*
X140275919Y-67080682D01*
X140256374Y-67092161D01*
X140255054Y-67092937D01*
X140254158Y-67093492D01*
X140233962Y-67106667D01*
X140233961Y-67106668D01*
X140217420Y-67118021D01*
X140204373Y-67123616D01*
X140193384Y-67132592D01*
X140162933Y-67141388D01*
X140128130Y-67156314D01*
X140100347Y-67160578D01*
X140097583Y-67160843D01*
X140080642Y-67162097D01*
X140052297Y-67165197D01*
X140050637Y-67165357D01*
X140049632Y-67165255D01*
X140026809Y-67166500D01*
X135265545Y-67166500D01*
X135170257Y-67147546D01*
X135089475Y-67093570D01*
X132953131Y-64957227D01*
X132927274Y-64925851D01*
X132927235Y-64925883D01*
X132925972Y-64924271D01*
X132922735Y-64920343D01*
X132921750Y-64918882D01*
X132916265Y-64911881D01*
X132917867Y-64910625D01*
X132874966Y-64838996D01*
X132866140Y-64808167D01*
X132865780Y-64806516D01*
X132864501Y-64800801D01*
X132864444Y-64800554D01*
X132864441Y-64800539D01*
X132863370Y-64795974D01*
X132827828Y-64647525D01*
X132816560Y-64607643D01*
X132816556Y-64607631D01*
X132816553Y-64607620D01*
X132815976Y-64605853D01*
X132801467Y-64566863D01*
X132788117Y-64535000D01*
X132765395Y-64480766D01*
X132751336Y-64450081D01*
X132751315Y-64450040D01*
X132750654Y-64448711D01*
X132734353Y-64418577D01*
X132682105Y-64329237D01*
X132674161Y-64316107D01*
X132673805Y-64315538D01*
X132664422Y-64302569D01*
X132625671Y-64249009D01*
X132625734Y-64248962D01*
X132616534Y-64237112D01*
X132605680Y-64220868D01*
X132605678Y-64220865D01*
X132479135Y-64094322D01*
X132330336Y-63994898D01*
X132330331Y-63994895D01*
X132165001Y-63926413D01*
X132060767Y-63905680D01*
X131989479Y-63891500D01*
X131810521Y-63891500D01*
X131739243Y-63905678D01*
X131634998Y-63926413D01*
X131469668Y-63994895D01*
X131469663Y-63994898D01*
X131320868Y-64094319D01*
X131194319Y-64220868D01*
X131094898Y-64369663D01*
X131094895Y-64369668D01*
X131026413Y-64534998D01*
X130991500Y-64710522D01*
X124133500Y-64710522D01*
X124133500Y-63498022D01*
X125591500Y-63498022D01*
X125591500Y-63676977D01*
X125626413Y-63852501D01*
X125694895Y-64017831D01*
X125694898Y-64017836D01*
X125793982Y-64166127D01*
X125794322Y-64166635D01*
X125920865Y-64293178D01*
X126069664Y-64392602D01*
X126069666Y-64392602D01*
X126069668Y-64392604D01*
X126132375Y-64418578D01*
X126235000Y-64461087D01*
X126410521Y-64496000D01*
X126410523Y-64496000D01*
X126589477Y-64496000D01*
X126589479Y-64496000D01*
X126765000Y-64461087D01*
X126930336Y-64392602D01*
X127079135Y-64293178D01*
X127205678Y-64166635D01*
X127247066Y-64104690D01*
X127261050Y-64085765D01*
X127267600Y-64077725D01*
X127279113Y-64063593D01*
X127321980Y-63992211D01*
X127335363Y-63968525D01*
X127335944Y-63967430D01*
X127348055Y-63943067D01*
X127381553Y-63870948D01*
X127397068Y-63833798D01*
X127397708Y-63832079D01*
X127410269Y-63793817D01*
X127449916Y-63654876D01*
X127455976Y-63631584D01*
X127456228Y-63630513D01*
X127461223Y-63606785D01*
X127464883Y-63587098D01*
X127471473Y-63570606D01*
X127473762Y-63552987D01*
X127489338Y-63525898D01*
X127500932Y-63496884D01*
X127522192Y-63468763D01*
X127522289Y-63468652D01*
X127599263Y-63409372D01*
X127693063Y-63384062D01*
X127709785Y-63383500D01*
X132603206Y-63383500D01*
X132698494Y-63402454D01*
X132779275Y-63456429D01*
X134314917Y-64992072D01*
X134314920Y-64992074D01*
X134418673Y-65061400D01*
X134418675Y-65061401D01*
X134481727Y-65087517D01*
X134500194Y-65095167D01*
X134500197Y-65095168D01*
X134533965Y-65109155D01*
X134656356Y-65133500D01*
X134656359Y-65133500D01*
X141512391Y-65133500D01*
X141512394Y-65133500D01*
X141634785Y-65109155D01*
X141750075Y-65061400D01*
X141853833Y-64992071D01*
X142592769Y-64253133D01*
X142618043Y-64231058D01*
X142623732Y-64226727D01*
X142631114Y-64221752D01*
X142635546Y-64217737D01*
X142644014Y-64211293D01*
X142678265Y-64194570D01*
X142710968Y-64174978D01*
X142728927Y-64169836D01*
X142731319Y-64168669D01*
X142733468Y-64168536D01*
X142741868Y-64166131D01*
X142743485Y-64165780D01*
X142749692Y-64164388D01*
X142749926Y-64164334D01*
X142754026Y-64163370D01*
X142902474Y-64127828D01*
X142942355Y-64116560D01*
X142944152Y-64115973D01*
X142983133Y-64101468D01*
X143069231Y-64065396D01*
X143099918Y-64051336D01*
X143101304Y-64050645D01*
X143131421Y-64034354D01*
X143220762Y-63982105D01*
X143233892Y-63974161D01*
X143234461Y-63973805D01*
X143290386Y-63933342D01*
X143290386Y-63933341D01*
X143300995Y-63925666D01*
X143301042Y-63925731D01*
X143312886Y-63916534D01*
X143329135Y-63905678D01*
X143455678Y-63779135D01*
X143555102Y-63630336D01*
X143623587Y-63465000D01*
X143658500Y-63289479D01*
X143658500Y-63110521D01*
X143623587Y-62935000D01*
X143591953Y-62858629D01*
X143555104Y-62769668D01*
X143555101Y-62769663D01*
X143544059Y-62753138D01*
X143455678Y-62620865D01*
X143329135Y-62494322D01*
X143312371Y-62483121D01*
X143180336Y-62394898D01*
X143180331Y-62394895D01*
X143015001Y-62326413D01*
X142956493Y-62314775D01*
X142839479Y-62291500D01*
X142660521Y-62291500D01*
X142572760Y-62308956D01*
X142484998Y-62326413D01*
X142319668Y-62394895D01*
X142319663Y-62394898D01*
X142170868Y-62494319D01*
X142044318Y-62620869D01*
X142002935Y-62682802D01*
X141988957Y-62701721D01*
X141970890Y-62723900D01*
X141928004Y-62795312D01*
X141914612Y-62819013D01*
X141914052Y-62820069D01*
X141901962Y-62844392D01*
X141868439Y-62916562D01*
X141852895Y-62953789D01*
X141852271Y-62955466D01*
X141852201Y-62955680D01*
X141839731Y-62993677D01*
X141806390Y-63110522D01*
X141800075Y-63132654D01*
X141794073Y-63155698D01*
X141793830Y-63156727D01*
X141788779Y-63180697D01*
X141785110Y-63200424D01*
X141779841Y-63213604D01*
X141778417Y-63227729D01*
X141763100Y-63255488D01*
X141749050Y-63290639D01*
X141732417Y-63313305D01*
X141730663Y-63315431D01*
X141719560Y-63328309D01*
X141701706Y-63350547D01*
X141700647Y-63351832D01*
X141699863Y-63352471D01*
X141684609Y-63369485D01*
X141260527Y-63793569D01*
X141179746Y-63847546D01*
X141084458Y-63866500D01*
X135084295Y-63866500D01*
X134989007Y-63847546D01*
X134908226Y-63793570D01*
X133372583Y-62257929D01*
X133268825Y-62188600D01*
X133268820Y-62188597D01*
X133153537Y-62140846D01*
X133153535Y-62140845D01*
X133031144Y-62116500D01*
X127399894Y-62116500D01*
X127275106Y-62116500D01*
X127152715Y-62140845D01*
X127152713Y-62140845D01*
X127152712Y-62140846D01*
X127037429Y-62188597D01*
X127037424Y-62188600D01*
X126933665Y-62257929D01*
X126657226Y-62534368D01*
X126631949Y-62556446D01*
X126626257Y-62560777D01*
X126618885Y-62565748D01*
X126614465Y-62569751D01*
X126605982Y-62576207D01*
X126571707Y-62592939D01*
X126538983Y-62612536D01*
X126521047Y-62617671D01*
X126518675Y-62618830D01*
X126516544Y-62618961D01*
X126508198Y-62621351D01*
X126506591Y-62621701D01*
X126506510Y-62621719D01*
X126506488Y-62621724D01*
X126499626Y-62623267D01*
X126499608Y-62623271D01*
X126499591Y-62623275D01*
X126499556Y-62623283D01*
X126499458Y-62623306D01*
X126496062Y-62624106D01*
X126495871Y-62624152D01*
X126347503Y-62659675D01*
X126307691Y-62670921D01*
X126305880Y-62671513D01*
X126266883Y-62686022D01*
X126180756Y-62722107D01*
X126150083Y-62736159D01*
X126148742Y-62736828D01*
X126118589Y-62753138D01*
X126029195Y-62805418D01*
X126015506Y-62813712D01*
X126014985Y-62814040D01*
X126014976Y-62814046D01*
X126014972Y-62814048D01*
X126014967Y-62814052D01*
X125959613Y-62854157D01*
X125959611Y-62854158D01*
X125949055Y-62861807D01*
X125949000Y-62861732D01*
X125937119Y-62870959D01*
X125920874Y-62881814D01*
X125920867Y-62881820D01*
X125794319Y-63008368D01*
X125694898Y-63157163D01*
X125694895Y-63157168D01*
X125626413Y-63322498D01*
X125591500Y-63498022D01*
X124133500Y-63498022D01*
X124133500Y-60805852D01*
X124135762Y-60772369D01*
X124136723Y-60765281D01*
X124138423Y-60756550D01*
X124138717Y-60750588D01*
X124140150Y-60740034D01*
X124152547Y-60703983D01*
X124161823Y-60666996D01*
X124170879Y-60650676D01*
X124171745Y-60648160D01*
X124173172Y-60646545D01*
X124177419Y-60638891D01*
X124178297Y-60637526D01*
X124181222Y-60632918D01*
X124181350Y-60632714D01*
X124184049Y-60628365D01*
X124263891Y-60498254D01*
X124284147Y-60462040D01*
X124285002Y-60460355D01*
X124302283Y-60422585D01*
X124337657Y-60336198D01*
X124349470Y-60304391D01*
X124349961Y-60302922D01*
X124359683Y-60270272D01*
X124385911Y-60170154D01*
X124389342Y-60156270D01*
X124389494Y-60155616D01*
X124400670Y-60086361D01*
X124400669Y-60086356D01*
X124400875Y-60085084D01*
X124401826Y-60073022D01*
X124408500Y-60039479D01*
X124408500Y-60010521D01*
X125191500Y-60010521D01*
X125191500Y-60189479D01*
X125207570Y-60270270D01*
X125226413Y-60365001D01*
X125294895Y-60530331D01*
X125294898Y-60530336D01*
X125379273Y-60656613D01*
X125394321Y-60679133D01*
X125394323Y-60679136D01*
X125520858Y-60805672D01*
X125520861Y-60805674D01*
X125520865Y-60805678D01*
X125582816Y-60847072D01*
X125601736Y-60861052D01*
X125623906Y-60879113D01*
X125695288Y-60921980D01*
X125718974Y-60935363D01*
X125720069Y-60935944D01*
X125744432Y-60948055D01*
X125816551Y-60981553D01*
X125828016Y-60986341D01*
X125853682Y-60997061D01*
X125853701Y-60997068D01*
X125855420Y-60997708D01*
X125893686Y-61010270D01*
X126032627Y-61049916D01*
X126055915Y-61055975D01*
X126056986Y-61056227D01*
X126080702Y-61061219D01*
X126080740Y-61061226D01*
X126100407Y-61064884D01*
X126113592Y-61070153D01*
X126127724Y-61071579D01*
X126155475Y-61086892D01*
X126190624Y-61100939D01*
X126213300Y-61117578D01*
X126215406Y-61119315D01*
X126228310Y-61130441D01*
X126250611Y-61148345D01*
X126251831Y-61149351D01*
X126252471Y-61150135D01*
X126269485Y-61165389D01*
X126346167Y-61242071D01*
X126449925Y-61311400D01*
X126449927Y-61311400D01*
X126449929Y-61311402D01*
X126485874Y-61326290D01*
X126565215Y-61359155D01*
X126687606Y-61383500D01*
X126812394Y-61383500D01*
X134134456Y-61383500D01*
X134229744Y-61402454D01*
X134310526Y-61456430D01*
X134946870Y-62092774D01*
X134968947Y-62118051D01*
X134973271Y-62123734D01*
X134978246Y-62131112D01*
X134982255Y-62135538D01*
X134988706Y-62144015D01*
X135005432Y-62178276D01*
X135025031Y-62210999D01*
X135030169Y-62228946D01*
X135031329Y-62231321D01*
X135031460Y-62233453D01*
X135033855Y-62241817D01*
X135034223Y-62243508D01*
X135035605Y-62249672D01*
X135035662Y-62249920D01*
X135036626Y-62254017D01*
X135072171Y-62402480D01*
X135083482Y-62442491D01*
X135084072Y-62444296D01*
X135098521Y-62483109D01*
X135098525Y-62483120D01*
X135098526Y-62483121D01*
X135134604Y-62569235D01*
X135134609Y-62569245D01*
X135148654Y-62599904D01*
X135148660Y-62599916D01*
X135149340Y-62601280D01*
X135161233Y-62623267D01*
X135165636Y-62631407D01*
X135217885Y-62720748D01*
X135225850Y-62733912D01*
X135226188Y-62734452D01*
X135226189Y-62734454D01*
X135226193Y-62734460D01*
X135226194Y-62734461D01*
X135251663Y-62769663D01*
X135274333Y-62800995D01*
X135274267Y-62801042D01*
X135283467Y-62812889D01*
X135294318Y-62829130D01*
X135294319Y-62829131D01*
X135294322Y-62829135D01*
X135420865Y-62955678D01*
X135569664Y-63055102D01*
X135569666Y-63055102D01*
X135569668Y-63055104D01*
X135679888Y-63100758D01*
X135735000Y-63123587D01*
X135910521Y-63158500D01*
X135910523Y-63158500D01*
X136089477Y-63158500D01*
X136089479Y-63158500D01*
X136265000Y-63123587D01*
X136430336Y-63055102D01*
X136579135Y-62955678D01*
X136705678Y-62829135D01*
X136805102Y-62680336D01*
X136873587Y-62515000D01*
X136908500Y-62339479D01*
X136908500Y-62160521D01*
X136873587Y-61985000D01*
X136805102Y-61819664D01*
X136705678Y-61670865D01*
X136705676Y-61670863D01*
X136579141Y-61544327D01*
X136579137Y-61544324D01*
X136579135Y-61544322D01*
X136517177Y-61502923D01*
X136498268Y-61488951D01*
X136476092Y-61470886D01*
X136404703Y-61428015D01*
X136381158Y-61414706D01*
X136381137Y-61414694D01*
X136380102Y-61414145D01*
X136380093Y-61414140D01*
X136380077Y-61414132D01*
X136355576Y-61401948D01*
X136283445Y-61368444D01*
X136246225Y-61352902D01*
X136245337Y-61352571D01*
X136244514Y-61352265D01*
X136206323Y-61339732D01*
X136206320Y-61339731D01*
X136067363Y-61300080D01*
X136067356Y-61300078D01*
X136044165Y-61294042D01*
X136044007Y-61294005D01*
X136043103Y-61293792D01*
X136019298Y-61288779D01*
X136012705Y-61287552D01*
X135999577Y-61285111D01*
X135986397Y-61279843D01*
X135972276Y-61278419D01*
X135944520Y-61263104D01*
X135909362Y-61249051D01*
X135886700Y-61232421D01*
X135884562Y-61230658D01*
X135871691Y-61219560D01*
X135849458Y-61201712D01*
X135848174Y-61200653D01*
X135847533Y-61199868D01*
X135830517Y-61184612D01*
X134903833Y-60257929D01*
X134800075Y-60188600D01*
X134800070Y-60188597D01*
X134684787Y-60140846D01*
X134684785Y-60140845D01*
X134562394Y-60116500D01*
X134562391Y-60116500D01*
X127263966Y-60116500D01*
X127168678Y-60097546D01*
X127087896Y-60043570D01*
X127033920Y-59962788D01*
X127024347Y-59935203D01*
X127020212Y-59920568D01*
X127016560Y-59907643D01*
X127016497Y-59907451D01*
X127015976Y-59905853D01*
X127001467Y-59866863D01*
X126995669Y-59853024D01*
X126965395Y-59780766D01*
X126951336Y-59750081D01*
X126951327Y-59750061D01*
X126950654Y-59748711D01*
X126934353Y-59718577D01*
X126882105Y-59629237D01*
X126874161Y-59616107D01*
X126873805Y-59615538D01*
X126873796Y-59615525D01*
X126825671Y-59549009D01*
X126825734Y-59548962D01*
X126816534Y-59537112D01*
X126805680Y-59520868D01*
X126805678Y-59520865D01*
X126679135Y-59394322D01*
X126644033Y-59370868D01*
X126530336Y-59294898D01*
X126530331Y-59294895D01*
X126365001Y-59226413D01*
X126306493Y-59214775D01*
X126189479Y-59191500D01*
X126010521Y-59191500D01*
X125922760Y-59208956D01*
X125834998Y-59226413D01*
X125669668Y-59294895D01*
X125669663Y-59294898D01*
X125520868Y-59394319D01*
X125394319Y-59520868D01*
X125294898Y-59669663D01*
X125294895Y-59669668D01*
X125226413Y-59834998D01*
X125204031Y-59947525D01*
X125191500Y-60010521D01*
X124408500Y-60010521D01*
X124408500Y-59860521D01*
X124373587Y-59685000D01*
X124321650Y-59559613D01*
X124305104Y-59519668D01*
X124305101Y-59519663D01*
X124205680Y-59370868D01*
X124205678Y-59370865D01*
X124079135Y-59244322D01*
X124052332Y-59226413D01*
X123930336Y-59144898D01*
X123930331Y-59144895D01*
X123765001Y-59076413D01*
X123706493Y-59064775D01*
X123589479Y-59041500D01*
X123410521Y-59041500D01*
X123338720Y-59055782D01*
X123234998Y-59076413D01*
X123069668Y-59144895D01*
X123069663Y-59144898D01*
X122920868Y-59244319D01*
X122794319Y-59370868D01*
X122694898Y-59519663D01*
X122694895Y-59519668D01*
X122626413Y-59684998D01*
X122592989Y-59853037D01*
X122591500Y-59860521D01*
X98707856Y-59860521D01*
X98705588Y-59853043D01*
X98705586Y-59853037D01*
X98705582Y-59853024D01*
X98625960Y-59660799D01*
X98577725Y-59544349D01*
X98474029Y-59350347D01*
X98420224Y-59249685D01*
X98234601Y-58971882D01*
X98022643Y-58713610D01*
X97786390Y-58477357D01*
X97528118Y-58265399D01*
X97528105Y-58265390D01*
X97250317Y-58079777D01*
X97250315Y-58079776D01*
X97043252Y-57969099D01*
X96968150Y-57907464D01*
X96922351Y-57821781D01*
X96912828Y-57725094D01*
X96941030Y-57632123D01*
X97002665Y-57557021D01*
X97088348Y-57511222D01*
X97160629Y-57500500D01*
X150839371Y-57500500D01*
X150934659Y-57519454D01*
G37*
%TD.AperFunction*%
%TD*%
%TA.AperFunction,Conductor*%
%TO.N,/FB*%
G36*
X110322540Y-71850642D02*
G01*
X110399455Y-71858500D01*
X113400544Y-71858499D01*
X113477457Y-71850641D01*
X113490059Y-71850000D01*
X114309937Y-71850000D01*
X114322540Y-71850642D01*
X114399455Y-71858500D01*
X117400544Y-71858499D01*
X117477457Y-71850641D01*
X117490059Y-71850000D01*
X118309937Y-71850000D01*
X118322540Y-71850642D01*
X118399455Y-71858500D01*
X121400544Y-71858499D01*
X121477457Y-71850641D01*
X121490059Y-71850000D01*
X122309937Y-71850000D01*
X122322540Y-71850642D01*
X122399455Y-71858500D01*
X125400544Y-71858499D01*
X125477457Y-71850641D01*
X125490059Y-71850000D01*
X126526000Y-71850000D01*
X126593039Y-71869685D01*
X126638794Y-71922489D01*
X126650000Y-71974000D01*
X126650000Y-73809936D01*
X126649358Y-73822539D01*
X126641500Y-73899447D01*
X126641500Y-76900537D01*
X126641501Y-76900553D01*
X126649358Y-76977456D01*
X126650000Y-76990058D01*
X126650000Y-77809936D01*
X126649358Y-77822539D01*
X126641500Y-77899447D01*
X126641500Y-80900537D01*
X126641501Y-80900553D01*
X126649358Y-80977456D01*
X126650000Y-80990058D01*
X126650000Y-81809936D01*
X126649358Y-81822539D01*
X126641500Y-81899447D01*
X126641500Y-84900537D01*
X126641501Y-84900553D01*
X126649358Y-84977456D01*
X126650000Y-84990058D01*
X126650000Y-87276000D01*
X126630315Y-87343039D01*
X126577511Y-87388794D01*
X126526000Y-87400000D01*
X125668951Y-87400000D01*
X125629948Y-87393706D01*
X125574730Y-87375409D01*
X125504427Y-87352113D01*
X125400545Y-87341500D01*
X122399462Y-87341500D01*
X122399446Y-87341501D01*
X122295572Y-87352113D01*
X122210464Y-87380315D01*
X122170051Y-87393706D01*
X122131049Y-87400000D01*
X121668951Y-87400000D01*
X121629948Y-87393706D01*
X121574730Y-87375409D01*
X121504427Y-87352113D01*
X121400545Y-87341500D01*
X118399462Y-87341500D01*
X118399446Y-87341501D01*
X118295572Y-87352113D01*
X118210464Y-87380315D01*
X118170051Y-87393706D01*
X118131049Y-87400000D01*
X117668951Y-87400000D01*
X117629948Y-87393706D01*
X117574730Y-87375409D01*
X117504427Y-87352113D01*
X117400545Y-87341500D01*
X114399462Y-87341500D01*
X114399446Y-87341501D01*
X114295572Y-87352113D01*
X114210464Y-87380315D01*
X114170051Y-87393706D01*
X114131049Y-87400000D01*
X113668951Y-87400000D01*
X113629948Y-87393706D01*
X113574730Y-87375409D01*
X113504427Y-87352113D01*
X113400545Y-87341500D01*
X110399462Y-87341500D01*
X110399446Y-87341501D01*
X110295572Y-87352113D01*
X110210464Y-87380315D01*
X110170051Y-87393706D01*
X110131049Y-87400000D01*
X108474000Y-87400000D01*
X108465314Y-87397449D01*
X108456353Y-87398738D01*
X108432312Y-87387759D01*
X108406961Y-87380315D01*
X108401033Y-87373474D01*
X108392797Y-87369713D01*
X108378507Y-87347478D01*
X108361206Y-87327511D01*
X108358918Y-87316996D01*
X108355023Y-87310935D01*
X108350000Y-87276000D01*
X108350000Y-87190062D01*
X108350642Y-87177459D01*
X108358499Y-87100552D01*
X108358500Y-87100545D01*
X108358499Y-84099456D01*
X108350642Y-84022542D01*
X108350000Y-84009940D01*
X108350000Y-83190062D01*
X108350642Y-83177459D01*
X108358499Y-83100552D01*
X108358500Y-83100545D01*
X108358499Y-80099456D01*
X108350642Y-80022542D01*
X108350000Y-80009940D01*
X108350000Y-79190062D01*
X108350642Y-79177459D01*
X108358499Y-79100552D01*
X108358500Y-79100545D01*
X108358499Y-76099456D01*
X108350642Y-76022542D01*
X108350000Y-76009940D01*
X108350000Y-75190062D01*
X108350642Y-75177459D01*
X108358499Y-75100552D01*
X108358500Y-75100545D01*
X108358499Y-72099456D01*
X108350642Y-72022542D01*
X108350000Y-72009940D01*
X108350000Y-71974000D01*
X108369685Y-71906961D01*
X108422489Y-71861206D01*
X108474000Y-71850000D01*
X110309937Y-71850000D01*
X110322540Y-71850642D01*
G37*
%TD.AperFunction*%
%TD*%
%TA.AperFunction,Conductor*%
%TO.N,+10V*%
G36*
X135536366Y-61608455D02*
G01*
X135630173Y-61689340D01*
X135719797Y-61741239D01*
X135802639Y-61769355D01*
X135884330Y-61785983D01*
X135925412Y-61793623D01*
X135926461Y-61793870D01*
X136065418Y-61833521D01*
X136067127Y-61834157D01*
X136139258Y-61867661D01*
X136140339Y-61868235D01*
X136211728Y-61911106D01*
X136217056Y-61918303D01*
X136215734Y-61927160D01*
X136215448Y-61927612D01*
X136002011Y-62248743D01*
X135998743Y-62252011D01*
X135677732Y-62465368D01*
X135668945Y-62467094D01*
X135661512Y-62462100D01*
X135661156Y-62461531D01*
X135608898Y-62372175D01*
X135608218Y-62370811D01*
X135572140Y-62284697D01*
X135571558Y-62282917D01*
X135536011Y-62134446D01*
X135535960Y-62134225D01*
X135513371Y-62030491D01*
X135461848Y-61914080D01*
X135415924Y-61849418D01*
X135415921Y-61849415D01*
X135415920Y-61849413D01*
X135358836Y-61786390D01*
X135355822Y-61777958D01*
X135359234Y-61770264D01*
X135520455Y-61609043D01*
X135528727Y-61605617D01*
X135536366Y-61608455D01*
G37*
%TD.AperFunction*%
%TD*%
%TA.AperFunction,Conductor*%
%TO.N,+10V*%
G36*
X126438487Y-59887899D02*
G01*
X126438843Y-59888468D01*
X126491092Y-59977809D01*
X126491783Y-59979195D01*
X126527855Y-60065292D01*
X126528442Y-60067089D01*
X126563984Y-60215538D01*
X126564038Y-60215773D01*
X126586628Y-60319509D01*
X126586629Y-60319512D01*
X126638149Y-60435915D01*
X126638150Y-60435916D01*
X126638152Y-60435920D01*
X126670936Y-60482080D01*
X126684079Y-60500586D01*
X126741163Y-60563609D01*
X126744177Y-60572041D01*
X126740764Y-60579736D01*
X126579545Y-60740955D01*
X126571272Y-60744382D01*
X126563632Y-60741543D01*
X126469826Y-60660660D01*
X126380201Y-60608759D01*
X126297369Y-60580647D01*
X126297356Y-60580643D01*
X126215670Y-60564016D01*
X126174598Y-60556377D01*
X126173527Y-60556125D01*
X126034586Y-60516479D01*
X126032867Y-60515839D01*
X125960748Y-60482341D01*
X125959653Y-60481760D01*
X125888271Y-60438893D01*
X125882943Y-60431696D01*
X125884265Y-60422839D01*
X125884531Y-60422417D01*
X126097988Y-60101255D01*
X126101256Y-60097988D01*
X126147746Y-60067089D01*
X126422268Y-59884630D01*
X126431054Y-59882905D01*
X126438487Y-59887899D01*
G37*
%TD.AperFunction*%
%TD*%
%TA.AperFunction,Conductor*%
%TO.N,/Offset*%
G36*
X142427160Y-62984265D02*
G01*
X142427612Y-62984551D01*
X142748743Y-63197988D01*
X142752011Y-63201256D01*
X142965368Y-63522267D01*
X142967094Y-63531054D01*
X142962100Y-63538487D01*
X142961531Y-63538843D01*
X142872190Y-63591092D01*
X142870804Y-63591783D01*
X142784706Y-63627855D01*
X142782909Y-63628442D01*
X142634461Y-63663984D01*
X142634227Y-63664038D01*
X142530488Y-63686628D01*
X142530487Y-63686629D01*
X142414084Y-63738149D01*
X142414083Y-63738150D01*
X142349413Y-63784079D01*
X142286390Y-63841163D01*
X142277958Y-63844177D01*
X142270263Y-63840764D01*
X142109044Y-63679545D01*
X142105617Y-63671272D01*
X142108455Y-63663634D01*
X142189340Y-63569827D01*
X142241239Y-63480202D01*
X142269355Y-63397360D01*
X142285983Y-63315670D01*
X142293624Y-63274582D01*
X142293869Y-63273543D01*
X142333522Y-63134577D01*
X142334155Y-63132876D01*
X142367665Y-63060733D01*
X142368230Y-63059668D01*
X142411107Y-62988269D01*
X142418303Y-62982943D01*
X142427160Y-62984265D01*
G37*
%TD.AperFunction*%
%TD*%
%TA.AperFunction,Conductor*%
%TO.N,/Offset*%
G36*
X126979736Y-62946735D02*
G01*
X127140955Y-63107954D01*
X127144382Y-63116227D01*
X127141543Y-63123867D01*
X127060660Y-63217672D01*
X127008759Y-63307297D01*
X126980647Y-63390129D01*
X126980643Y-63390142D01*
X126964016Y-63471829D01*
X126956378Y-63512901D01*
X126956126Y-63513972D01*
X126916479Y-63652913D01*
X126915839Y-63654632D01*
X126882341Y-63726751D01*
X126881760Y-63727846D01*
X126838893Y-63799228D01*
X126831696Y-63804556D01*
X126822839Y-63803234D01*
X126822387Y-63802948D01*
X126501256Y-63589511D01*
X126497988Y-63586243D01*
X126284631Y-63265232D01*
X126282905Y-63256445D01*
X126287899Y-63249012D01*
X126288452Y-63248665D01*
X126377829Y-63196395D01*
X126379181Y-63195721D01*
X126465305Y-63159638D01*
X126467078Y-63159059D01*
X126615576Y-63123505D01*
X126615744Y-63123466D01*
X126719508Y-63100871D01*
X126835920Y-63049348D01*
X126900582Y-63003424D01*
X126963610Y-62946335D01*
X126972041Y-62943322D01*
X126979736Y-62946735D01*
G37*
%TD.AperFunction*%
%TD*%
%TA.AperFunction,Conductor*%
%TO.N,/I_SET*%
G36*
X123880167Y-60025588D02*
G01*
X123887599Y-60030582D01*
X123889325Y-60039369D01*
X123889173Y-60040023D01*
X123862945Y-60140141D01*
X123862454Y-60141610D01*
X123827080Y-60227997D01*
X123826225Y-60229682D01*
X123746383Y-60359793D01*
X123746255Y-60359997D01*
X123688884Y-60449309D01*
X123688883Y-60449312D01*
X123643000Y-60568058D01*
X123642999Y-60568060D01*
X123642999Y-60568062D01*
X123636240Y-60607958D01*
X123629749Y-60646266D01*
X123625550Y-60731192D01*
X123621718Y-60739286D01*
X123613864Y-60742314D01*
X123385866Y-60742314D01*
X123377593Y-60738887D01*
X123374198Y-60731477D01*
X123367895Y-60646266D01*
X123365061Y-60607953D01*
X123354427Y-60568062D01*
X123338385Y-60507881D01*
X123309498Y-60449312D01*
X123299692Y-60429429D01*
X123299690Y-60429426D01*
X123299687Y-60429421D01*
X123253682Y-60359899D01*
X123230042Y-60325457D01*
X123229466Y-60324528D01*
X123159247Y-60198234D01*
X123158485Y-60196567D01*
X123138126Y-60140891D01*
X123131175Y-60121882D01*
X123130818Y-60120721D01*
X123110652Y-60039919D01*
X123111974Y-60031063D01*
X123119171Y-60025735D01*
X123119693Y-60025617D01*
X123119837Y-60025588D01*
X123497692Y-59949465D01*
X123502308Y-59949465D01*
X123880167Y-60025588D01*
G37*
%TD.AperFunction*%
%TD*%
%TA.AperFunction,Conductor*%
%TO.N,/I_SET*%
G36*
X125168175Y-66312667D02*
G01*
X125174172Y-66319317D01*
X125174618Y-66320933D01*
X125249749Y-66695929D01*
X125248014Y-66704714D01*
X125247989Y-66704751D01*
X125033801Y-67023612D01*
X125026343Y-67028569D01*
X125018350Y-67027284D01*
X124863836Y-66940306D01*
X124863835Y-66940305D01*
X124863834Y-66940305D01*
X124737790Y-66892256D01*
X124685693Y-66874030D01*
X124684405Y-66873491D01*
X124562499Y-66813671D01*
X124560715Y-66812588D01*
X124492065Y-66762032D01*
X124491095Y-66761234D01*
X124419984Y-66696015D01*
X124416203Y-66687897D01*
X124419269Y-66679484D01*
X124419595Y-66679143D01*
X124580101Y-66518637D01*
X124588373Y-66515211D01*
X124595983Y-66518024D01*
X124633036Y-66549752D01*
X124674283Y-66572216D01*
X124712409Y-66580393D01*
X124748325Y-66576302D01*
X124817172Y-66539398D01*
X124888116Y-66477664D01*
X124949990Y-66422367D01*
X124951160Y-66421448D01*
X125056757Y-66348997D01*
X125059453Y-66347624D01*
X125159233Y-66312205D01*
X125168175Y-66312667D01*
G37*
%TD.AperFunction*%
%TD*%
%TA.AperFunction,Conductor*%
%TO.N,Net-(U1A-+)*%
G36*
X140818936Y-67411974D02*
G01*
X140824264Y-67419171D01*
X140824382Y-67419693D01*
X140900534Y-67797689D01*
X140900534Y-67802311D01*
X140824411Y-68180166D01*
X140819417Y-68187599D01*
X140810630Y-68189325D01*
X140809976Y-68189173D01*
X140709858Y-68162945D01*
X140708389Y-68162454D01*
X140622002Y-68127080D01*
X140620317Y-68126225D01*
X140555977Y-68086743D01*
X140490164Y-68046357D01*
X140490041Y-68046279D01*
X140444441Y-68016988D01*
X140400690Y-67988884D01*
X140400688Y-67988883D01*
X140400686Y-67988882D01*
X140281938Y-67942999D01*
X140203742Y-67929750D01*
X140203737Y-67929749D01*
X140203733Y-67929749D01*
X140118808Y-67925549D01*
X140110714Y-67921717D01*
X140107686Y-67913863D01*
X140107686Y-67685866D01*
X140111113Y-67677593D01*
X140118522Y-67674198D01*
X140242046Y-67665061D01*
X140342119Y-67638385D01*
X140392372Y-67613599D01*
X140420569Y-67599693D01*
X140420572Y-67599691D01*
X140420572Y-67599690D01*
X140420578Y-67599688D01*
X140490100Y-67553682D01*
X140524558Y-67530030D01*
X140525454Y-67529475D01*
X140651765Y-67459246D01*
X140653425Y-67458487D01*
X140728122Y-67431173D01*
X140729272Y-67430820D01*
X140810079Y-67410652D01*
X140818936Y-67411974D01*
G37*
%TD.AperFunction*%
%TD*%
%TA.AperFunction,Conductor*%
%TO.N,Net-(U1A-+)*%
G36*
X132238487Y-64587899D02*
G01*
X132238843Y-64588468D01*
X132291092Y-64677809D01*
X132291783Y-64679195D01*
X132327855Y-64765292D01*
X132328442Y-64767089D01*
X132363984Y-64915538D01*
X132364038Y-64915773D01*
X132386628Y-65019509D01*
X132386629Y-65019512D01*
X132438149Y-65135915D01*
X132438150Y-65135916D01*
X132438152Y-65135920D01*
X132470936Y-65182080D01*
X132484079Y-65200586D01*
X132541163Y-65263609D01*
X132544177Y-65272041D01*
X132540764Y-65279736D01*
X132379545Y-65440955D01*
X132371272Y-65444382D01*
X132363632Y-65441543D01*
X132269826Y-65360660D01*
X132180201Y-65308759D01*
X132097369Y-65280647D01*
X132097356Y-65280643D01*
X132015670Y-65264016D01*
X131974598Y-65256377D01*
X131973527Y-65256125D01*
X131834586Y-65216479D01*
X131832867Y-65215839D01*
X131760748Y-65182341D01*
X131759653Y-65181760D01*
X131688271Y-65138893D01*
X131682943Y-65131696D01*
X131684265Y-65122839D01*
X131684531Y-65122417D01*
X131897988Y-64801255D01*
X131901256Y-64797988D01*
X131947746Y-64767089D01*
X132222268Y-64584630D01*
X132231054Y-64582905D01*
X132238487Y-64587899D01*
G37*
%TD.AperFunction*%
%TD*%
%TA.AperFunction,Conductor*%
%TO.N,/FB*%
G36*
X127590013Y-70810823D02*
G01*
X127690148Y-70837056D01*
X127691604Y-70837543D01*
X127759703Y-70865428D01*
X127777997Y-70872919D01*
X127779682Y-70873774D01*
X127909793Y-70953617D01*
X127909997Y-70953745D01*
X127999315Y-71011118D01*
X128118062Y-71057001D01*
X128196258Y-71070250D01*
X128281192Y-71074450D01*
X128289286Y-71078282D01*
X128292314Y-71086136D01*
X128292314Y-71314133D01*
X128288887Y-71322406D01*
X128281477Y-71325801D01*
X128157958Y-71334938D01*
X128157948Y-71334939D01*
X128057881Y-71361614D01*
X128057880Y-71361615D01*
X127979429Y-71400307D01*
X127979426Y-71400308D01*
X127936427Y-71428762D01*
X127909899Y-71446318D01*
X127909881Y-71446329D01*
X127909880Y-71446331D01*
X127875465Y-71469952D01*
X127874530Y-71470532D01*
X127748236Y-71540752D01*
X127746568Y-71541514D01*
X127671894Y-71568819D01*
X127670709Y-71569183D01*
X127589920Y-71589347D01*
X127581064Y-71588025D01*
X127575735Y-71580828D01*
X127575617Y-71580306D01*
X127526185Y-71334939D01*
X127499465Y-71202308D01*
X127499465Y-71197691D01*
X127575589Y-70819831D01*
X127580582Y-70812400D01*
X127589369Y-70810674D01*
X127590013Y-70810823D01*
G37*
%TD.AperFunction*%
%TD*%
%TA.AperFunction,Conductor*%
%TO.N,/FB*%
G36*
X144168936Y-70811974D02*
G01*
X144174264Y-70819171D01*
X144174382Y-70819693D01*
X144250534Y-71197689D01*
X144250534Y-71202311D01*
X144174411Y-71580166D01*
X144169417Y-71587599D01*
X144160630Y-71589325D01*
X144159976Y-71589173D01*
X144059858Y-71562945D01*
X144058389Y-71562454D01*
X143972002Y-71527080D01*
X143970317Y-71526225D01*
X143905977Y-71486743D01*
X143840164Y-71446357D01*
X143840041Y-71446279D01*
X143794441Y-71416988D01*
X143750690Y-71388884D01*
X143750688Y-71388883D01*
X143750686Y-71388882D01*
X143631938Y-71342999D01*
X143553742Y-71329750D01*
X143553737Y-71329749D01*
X143553733Y-71329749D01*
X143468808Y-71325549D01*
X143460714Y-71321717D01*
X143457686Y-71313863D01*
X143457686Y-71085866D01*
X143461113Y-71077593D01*
X143468522Y-71074198D01*
X143592046Y-71065061D01*
X143692119Y-71038385D01*
X143742372Y-71013599D01*
X143770569Y-70999693D01*
X143770572Y-70999691D01*
X143770572Y-70999690D01*
X143770578Y-70999688D01*
X143840100Y-70953682D01*
X143874558Y-70930030D01*
X143875454Y-70929475D01*
X144001765Y-70859246D01*
X144003425Y-70858487D01*
X144078122Y-70831173D01*
X144079272Y-70830820D01*
X144160079Y-70810652D01*
X144168936Y-70811974D01*
G37*
%TD.AperFunction*%
%TD*%
%TA.AperFunction,Conductor*%
%TO.N,/FB*%
G36*
X127177160Y-70984266D02*
G01*
X127177613Y-70984552D01*
X127496644Y-71196593D01*
X127501638Y-71204025D01*
X127501648Y-71204077D01*
X127575567Y-71579768D01*
X127573802Y-71588547D01*
X127566346Y-71593507D01*
X127565321Y-71593662D01*
X127422986Y-71608758D01*
X127421232Y-71608811D01*
X127299989Y-71603418D01*
X127166494Y-71602248D01*
X127166491Y-71602248D01*
X127118471Y-71613181D01*
X127068733Y-71634570D01*
X127068723Y-71634575D01*
X127010826Y-71672801D01*
X126954950Y-71722707D01*
X126946497Y-71725662D01*
X126938883Y-71722254D01*
X126777959Y-71561330D01*
X126774532Y-71553057D01*
X126777717Y-71545033D01*
X126868089Y-71449190D01*
X126934720Y-71365809D01*
X127024831Y-71216245D01*
X127161115Y-70988302D01*
X127168301Y-70982962D01*
X127177160Y-70984266D01*
G37*
%TD.AperFunction*%
%TD*%
%TA.AperFunction,Conductor*%
%TO.N,Net-(U1D-+)*%
G36*
X131190013Y-69610823D02*
G01*
X131290148Y-69637056D01*
X131291604Y-69637543D01*
X131359703Y-69665428D01*
X131377997Y-69672919D01*
X131379682Y-69673774D01*
X131509793Y-69753617D01*
X131509997Y-69753745D01*
X131599315Y-69811118D01*
X131718062Y-69857001D01*
X131796258Y-69870250D01*
X131881192Y-69874450D01*
X131889286Y-69878282D01*
X131892314Y-69886136D01*
X131892314Y-70114133D01*
X131888887Y-70122406D01*
X131881477Y-70125801D01*
X131757958Y-70134938D01*
X131757948Y-70134939D01*
X131657881Y-70161614D01*
X131657880Y-70161615D01*
X131579429Y-70200307D01*
X131579426Y-70200308D01*
X131536427Y-70228762D01*
X131509899Y-70246318D01*
X131509881Y-70246329D01*
X131509880Y-70246331D01*
X131475465Y-70269952D01*
X131474530Y-70270532D01*
X131348236Y-70340752D01*
X131346568Y-70341514D01*
X131271894Y-70368819D01*
X131270709Y-70369183D01*
X131189920Y-70389347D01*
X131181064Y-70388025D01*
X131175735Y-70380828D01*
X131175617Y-70380306D01*
X131126185Y-70134939D01*
X131099465Y-70002308D01*
X131099465Y-69997691D01*
X131175589Y-69619831D01*
X131180582Y-69612400D01*
X131189369Y-69610674D01*
X131190013Y-69610823D01*
G37*
%TD.AperFunction*%
%TD*%
%TA.AperFunction,Conductor*%
%TO.N,Net-(U1D-+)*%
G36*
X139669532Y-69861564D02*
G01*
X139674197Y-69868770D01*
X139750036Y-70245218D01*
X139748310Y-70254005D01*
X139748281Y-70254049D01*
X139534930Y-70571922D01*
X139527474Y-70576882D01*
X139518695Y-70575117D01*
X139517819Y-70574468D01*
X139452175Y-70520914D01*
X139450583Y-70519338D01*
X139397213Y-70455290D01*
X139395905Y-70453357D01*
X139325847Y-70323562D01*
X139325602Y-70323082D01*
X139324582Y-70320965D01*
X139297528Y-70264794D01*
X139297524Y-70264789D01*
X139297523Y-70264786D01*
X139244600Y-70189697D01*
X139231423Y-70179213D01*
X139211842Y-70163634D01*
X139211838Y-70163632D01*
X139211840Y-70163632D01*
X139170765Y-70143620D01*
X139115158Y-70129829D01*
X139115145Y-70129827D01*
X139056078Y-70125751D01*
X139048061Y-70121763D01*
X139045184Y-70114079D01*
X139045184Y-69887173D01*
X139048611Y-69878900D01*
X139056884Y-69875473D01*
X139057329Y-69875481D01*
X139283531Y-69884452D01*
X139414385Y-69890152D01*
X139514053Y-69883127D01*
X139522399Y-69882539D01*
X139522400Y-69882538D01*
X139522412Y-69882538D01*
X139660810Y-69859539D01*
X139669532Y-69861564D01*
G37*
%TD.AperFunction*%
%TD*%
M02*
