%TF.GenerationSoftware,KiCad,Pcbnew,9.0.7*%
%TF.CreationDate,2026-02-15T21:39:57-05:00*%
%TF.ProjectId,Modular_Load,4d6f6475-6c61-4725-9f4c-6f61642e6b69,rev?*%
%TF.SameCoordinates,Original*%
%TF.FileFunction,Paste,Top*%
%TF.FilePolarity,Positive*%
%FSLAX46Y46*%
G04 Gerber Fmt 4.6, Leading zero omitted, Abs format (unit mm)*
G04 Created by KiCad (PCBNEW 9.0.7) date 2026-02-15 21:39:57*
%MOMM*%
%LPD*%
G01*
G04 APERTURE LIST*
G04 Aperture macros list*
%AMRoundRect*
0 Rectangle with rounded corners*
0 $1 Rounding radius*
0 $2 $3 $4 $5 $6 $7 $8 $9 X,Y pos of 4 corners*
0 Add a 4 corners polygon primitive as box body*
4,1,4,$2,$3,$4,$5,$6,$7,$8,$9,$2,$3,0*
0 Add four circle primitives for the rounded corners*
1,1,$1+$1,$2,$3*
1,1,$1+$1,$4,$5*
1,1,$1+$1,$6,$7*
1,1,$1+$1,$8,$9*
0 Add four rect primitives between the rounded corners*
20,1,$1+$1,$2,$3,$4,$5,0*
20,1,$1+$1,$4,$5,$6,$7,0*
20,1,$1+$1,$6,$7,$8,$9,0*
20,1,$1+$1,$8,$9,$2,$3,0*%
G04 Aperture macros list end*
%ADD10C,0.001000*%
%ADD11C,0.010000*%
%ADD12C,0.000000*%
%ADD13RoundRect,0.250000X-0.337500X-1.450000X0.337500X-1.450000X0.337500X1.450000X-0.337500X1.450000X0*%
%ADD14RoundRect,0.225000X-0.250000X0.225000X-0.250000X-0.225000X0.250000X-0.225000X0.250000X0.225000X0*%
%ADD15C,1.470000*%
%ADD16RoundRect,0.500000X-1.250000X-2.300000X1.250000X-2.300000X1.250000X2.300000X-1.250000X2.300000X0*%
%ADD17RoundRect,0.250000X1.450000X0.650000X-1.450000X0.650000X-1.450000X-0.650000X1.450000X-0.650000X0*%
%ADD18RoundRect,0.200000X0.200000X0.275000X-0.200000X0.275000X-0.200000X-0.275000X0.200000X-0.275000X0*%
%ADD19RoundRect,0.250000X-0.650000X0.325000X-0.650000X-0.325000X0.650000X-0.325000X0.650000X0.325000X0*%
%ADD20RoundRect,0.250000X0.550000X-0.400000X0.550000X0.400000X-0.550000X0.400000X-0.550000X-0.400000X0*%
%ADD21RoundRect,0.250000X0.550000X-0.750000X0.550000X0.750000X-0.550000X0.750000X-0.550000X-0.750000X0*%
%ADD22RoundRect,0.250000X0.250000X-0.250000X0.250000X0.250000X-0.250000X0.250000X-0.250000X-0.250000X0*%
%ADD23RoundRect,0.250000X-1.450000X0.337500X-1.450000X-0.337500X1.450000X-0.337500X1.450000X0.337500X0*%
%ADD24RoundRect,0.250000X-2.025000X-2.375000X2.025000X-2.375000X2.025000X2.375000X-2.025000X2.375000X0*%
%ADD25RoundRect,0.275000X-2.025000X-0.275000X2.025000X-0.275000X2.025000X0.275000X-2.025000X0.275000X0*%
%ADD26RoundRect,0.200000X-0.275000X0.200000X-0.275000X-0.200000X0.275000X-0.200000X0.275000X0.200000X0*%
%ADD27RoundRect,0.200000X-0.200000X-0.275000X0.200000X-0.275000X0.200000X0.275000X-0.200000X0.275000X0*%
%ADD28RoundRect,0.250000X1.450000X-0.337500X1.450000X0.337500X-1.450000X0.337500X-1.450000X-0.337500X0*%
%ADD29RoundRect,0.100000X0.637500X0.100000X-0.637500X0.100000X-0.637500X-0.100000X0.637500X-0.100000X0*%
%ADD30RoundRect,0.200000X0.275000X-0.200000X0.275000X0.200000X-0.275000X0.200000X-0.275000X-0.200000X0*%
%ADD31RoundRect,0.250000X-0.650000X1.450000X-0.650000X-1.450000X0.650000X-1.450000X0.650000X1.450000X0*%
%ADD32R,1.000000X3.150000*%
%ADD33R,2.500000X9.500000*%
%ADD34RoundRect,0.250000X-0.250000X0.250000X-0.250000X-0.250000X0.250000X-0.250000X0.250000X0.250000X0*%
%ADD35RoundRect,0.250000X-0.325000X-0.650000X0.325000X-0.650000X0.325000X0.650000X-0.325000X0.650000X0*%
%ADD36RoundRect,0.250000X-0.900000X1.000000X-0.900000X-1.000000X0.900000X-1.000000X0.900000X1.000000X0*%
%ADD37RoundRect,0.250000X0.262500X0.450000X-0.262500X0.450000X-0.262500X-0.450000X0.262500X-0.450000X0*%
%ADD38RoundRect,0.250000X-1.450000X-0.650000X1.450000X-0.650000X1.450000X0.650000X-1.450000X0.650000X0*%
%ADD39RoundRect,0.250000X0.337500X1.450000X-0.337500X1.450000X-0.337500X-1.450000X0.337500X-1.450000X0*%
%ADD40RoundRect,0.250000X-0.550000X0.400000X-0.550000X-0.400000X0.550000X-0.400000X0.550000X0.400000X0*%
%ADD41RoundRect,0.250000X-0.550000X0.750000X-0.550000X-0.750000X0.550000X-0.750000X0.550000X0.750000X0*%
%ADD42RoundRect,0.225000X0.225000X0.250000X-0.225000X0.250000X-0.225000X-0.250000X0.225000X-0.250000X0*%
G04 APERTURE END LIST*
D10*
%TO.C,J6*%
X100621065Y-88140058D02*
X100753687Y-88331584D01*
X100918416Y-88496313D01*
X101109942Y-88628935D01*
X101215000Y-88679300D01*
X101215000Y-89605000D01*
X99640000Y-89605000D01*
X99640000Y-88035000D01*
X100570700Y-88035000D01*
X100621065Y-88140058D01*
G36*
X100621065Y-88140058D02*
G01*
X100753687Y-88331584D01*
X100918416Y-88496313D01*
X101109942Y-88628935D01*
X101215000Y-88679300D01*
X101215000Y-89605000D01*
X99640000Y-89605000D01*
X99640000Y-88035000D01*
X100570700Y-88035000D01*
X100621065Y-88140058D01*
G37*
X101215000Y-86320700D02*
X101109942Y-86371065D01*
X100918415Y-86503687D01*
X100753687Y-86668415D01*
X100621065Y-86859942D01*
X100570700Y-86965000D01*
X99640000Y-86965000D01*
X99640000Y-85395000D01*
X101215000Y-85395000D01*
X101215000Y-86320700D01*
G36*
X101215000Y-86320700D02*
G01*
X101109942Y-86371065D01*
X100918415Y-86503687D01*
X100753687Y-86668415D01*
X100621065Y-86859942D01*
X100570700Y-86965000D01*
X99640000Y-86965000D01*
X99640000Y-85395000D01*
X101215000Y-85395000D01*
X101215000Y-86320700D01*
G37*
X103860000Y-86965000D02*
X102929300Y-86965000D01*
X102878935Y-86859942D01*
X102746313Y-86668416D01*
X102581584Y-86503687D01*
X102390058Y-86371065D01*
X102285000Y-86320700D01*
X102285000Y-85395000D01*
X103860000Y-85395000D01*
X103860000Y-86965000D01*
G36*
X103860000Y-86965000D02*
G01*
X102929300Y-86965000D01*
X102878935Y-86859942D01*
X102746313Y-86668416D01*
X102581584Y-86503687D01*
X102390058Y-86371065D01*
X102285000Y-86320700D01*
X102285000Y-85395000D01*
X103860000Y-85395000D01*
X103860000Y-86965000D01*
G37*
X103860000Y-89605000D02*
X102285000Y-89605000D01*
X102285000Y-88679300D01*
X102390058Y-88628935D01*
X102581584Y-88496313D01*
X102746313Y-88331584D01*
X102878935Y-88140058D01*
X102929300Y-88035000D01*
X103860000Y-88035000D01*
X103860000Y-89605000D01*
G36*
X103860000Y-89605000D02*
G01*
X102285000Y-89605000D01*
X102285000Y-88679300D01*
X102390058Y-88628935D01*
X102581584Y-88496313D01*
X102746313Y-88331584D01*
X102878935Y-88140058D01*
X102929300Y-88035000D01*
X103860000Y-88035000D01*
X103860000Y-89605000D01*
G37*
D11*
%TO.C,J3*%
X96600000Y-79000000D02*
X93230000Y-79000000D01*
X93235000Y-78960000D01*
X93250000Y-78870000D01*
X93265000Y-78785000D01*
X93280000Y-78705000D01*
X93305000Y-78595000D01*
X93335000Y-78475000D01*
X93375000Y-78340000D01*
X93415000Y-78220000D01*
X93465000Y-78085000D01*
X93510000Y-77975000D01*
X93565000Y-77850000D01*
X93670000Y-77640000D01*
X93750000Y-77500000D01*
X93825000Y-77380000D01*
X93865000Y-77320000D01*
X93940000Y-77215000D01*
X93995000Y-77140000D01*
X94065000Y-77050000D01*
X94145000Y-76955000D01*
X94225000Y-76865000D01*
X94290000Y-76795000D01*
X94370000Y-76715000D01*
X94450000Y-76640000D01*
X94510000Y-76585000D01*
X94565000Y-76535000D01*
X94610000Y-76500000D01*
X94670000Y-76450000D01*
X94745000Y-76390000D01*
X94800000Y-76350000D01*
X94865000Y-76305000D01*
X94965000Y-76235000D01*
X95035000Y-76190000D01*
X95120000Y-76140000D01*
X95185000Y-76100000D01*
X95260000Y-76060000D01*
X95355000Y-76010000D01*
X95430000Y-75975000D01*
X95490000Y-75945000D01*
X95550000Y-75920000D01*
X95720000Y-75850000D01*
X95790000Y-75825000D01*
X95845000Y-75805000D01*
X96005000Y-75755000D01*
X96100000Y-75730000D01*
X96155000Y-75715000D01*
X96240000Y-75695000D01*
X96360000Y-75670000D01*
X96530000Y-75640000D01*
X96600000Y-75630000D01*
X96600000Y-79000000D01*
G36*
X96600000Y-79000000D02*
G01*
X93230000Y-79000000D01*
X93235000Y-78960000D01*
X93250000Y-78870000D01*
X93265000Y-78785000D01*
X93280000Y-78705000D01*
X93305000Y-78595000D01*
X93335000Y-78475000D01*
X93375000Y-78340000D01*
X93415000Y-78220000D01*
X93465000Y-78085000D01*
X93510000Y-77975000D01*
X93565000Y-77850000D01*
X93670000Y-77640000D01*
X93750000Y-77500000D01*
X93825000Y-77380000D01*
X93865000Y-77320000D01*
X93940000Y-77215000D01*
X93995000Y-77140000D01*
X94065000Y-77050000D01*
X94145000Y-76955000D01*
X94225000Y-76865000D01*
X94290000Y-76795000D01*
X94370000Y-76715000D01*
X94450000Y-76640000D01*
X94510000Y-76585000D01*
X94565000Y-76535000D01*
X94610000Y-76500000D01*
X94670000Y-76450000D01*
X94745000Y-76390000D01*
X94800000Y-76350000D01*
X94865000Y-76305000D01*
X94965000Y-76235000D01*
X95035000Y-76190000D01*
X95120000Y-76140000D01*
X95185000Y-76100000D01*
X95260000Y-76060000D01*
X95355000Y-76010000D01*
X95430000Y-75975000D01*
X95490000Y-75945000D01*
X95550000Y-75920000D01*
X95720000Y-75850000D01*
X95790000Y-75825000D01*
X95845000Y-75805000D01*
X96005000Y-75755000D01*
X96100000Y-75730000D01*
X96155000Y-75715000D01*
X96240000Y-75695000D01*
X96360000Y-75670000D01*
X96530000Y-75640000D01*
X96600000Y-75630000D01*
X96600000Y-79000000D01*
G37*
X96600000Y-83370000D02*
X96560000Y-83365000D01*
X96470000Y-83350000D01*
X96385000Y-83335000D01*
X96305000Y-83320000D01*
X96195000Y-83295000D01*
X96075000Y-83265000D01*
X95940000Y-83225000D01*
X95820000Y-83185000D01*
X95685000Y-83135000D01*
X95575000Y-83090000D01*
X95450000Y-83035000D01*
X95240000Y-82930000D01*
X95100000Y-82850000D01*
X94980000Y-82775000D01*
X94920000Y-82735000D01*
X94815000Y-82660000D01*
X94740000Y-82605000D01*
X94650000Y-82535000D01*
X94555000Y-82455000D01*
X94465000Y-82375000D01*
X94395000Y-82310000D01*
X94315000Y-82230000D01*
X94240000Y-82150000D01*
X94185000Y-82090000D01*
X94135000Y-82035000D01*
X94100000Y-81990000D01*
X94050000Y-81930000D01*
X93990000Y-81855000D01*
X93950000Y-81800000D01*
X93905000Y-81735000D01*
X93835000Y-81635000D01*
X93790000Y-81565000D01*
X93740000Y-81480000D01*
X93700000Y-81415000D01*
X93660000Y-81340000D01*
X93610000Y-81245000D01*
X93575000Y-81170000D01*
X93545000Y-81110000D01*
X93520000Y-81050000D01*
X93450000Y-80880000D01*
X93425000Y-80810000D01*
X93405000Y-80755000D01*
X93355000Y-80595000D01*
X93330000Y-80500000D01*
X93315000Y-80445000D01*
X93295000Y-80360000D01*
X93270000Y-80240000D01*
X93240000Y-80070000D01*
X93230000Y-80000000D01*
X96600000Y-80000000D01*
X96600000Y-83370000D01*
G36*
X96600000Y-83370000D02*
G01*
X96560000Y-83365000D01*
X96470000Y-83350000D01*
X96385000Y-83335000D01*
X96305000Y-83320000D01*
X96195000Y-83295000D01*
X96075000Y-83265000D01*
X95940000Y-83225000D01*
X95820000Y-83185000D01*
X95685000Y-83135000D01*
X95575000Y-83090000D01*
X95450000Y-83035000D01*
X95240000Y-82930000D01*
X95100000Y-82850000D01*
X94980000Y-82775000D01*
X94920000Y-82735000D01*
X94815000Y-82660000D01*
X94740000Y-82605000D01*
X94650000Y-82535000D01*
X94555000Y-82455000D01*
X94465000Y-82375000D01*
X94395000Y-82310000D01*
X94315000Y-82230000D01*
X94240000Y-82150000D01*
X94185000Y-82090000D01*
X94135000Y-82035000D01*
X94100000Y-81990000D01*
X94050000Y-81930000D01*
X93990000Y-81855000D01*
X93950000Y-81800000D01*
X93905000Y-81735000D01*
X93835000Y-81635000D01*
X93790000Y-81565000D01*
X93740000Y-81480000D01*
X93700000Y-81415000D01*
X93660000Y-81340000D01*
X93610000Y-81245000D01*
X93575000Y-81170000D01*
X93545000Y-81110000D01*
X93520000Y-81050000D01*
X93450000Y-80880000D01*
X93425000Y-80810000D01*
X93405000Y-80755000D01*
X93355000Y-80595000D01*
X93330000Y-80500000D01*
X93315000Y-80445000D01*
X93295000Y-80360000D01*
X93270000Y-80240000D01*
X93240000Y-80070000D01*
X93230000Y-80000000D01*
X96600000Y-80000000D01*
X96600000Y-83370000D01*
G37*
X97640000Y-75635000D02*
X97730000Y-75650000D01*
X97815000Y-75665000D01*
X97895000Y-75680000D01*
X98005000Y-75705000D01*
X98125000Y-75735000D01*
X98260000Y-75775000D01*
X98380000Y-75815000D01*
X98515000Y-75865000D01*
X98625000Y-75910000D01*
X98750000Y-75965000D01*
X98960000Y-76070000D01*
X99100000Y-76150000D01*
X99220000Y-76225000D01*
X99280000Y-76265000D01*
X99385000Y-76340000D01*
X99460000Y-76395000D01*
X99550000Y-76465000D01*
X99645000Y-76545000D01*
X99735000Y-76625000D01*
X99805000Y-76690000D01*
X99885000Y-76770000D01*
X99960000Y-76850000D01*
X100015000Y-76910000D01*
X100065000Y-76965000D01*
X100100000Y-77010000D01*
X100150000Y-77070000D01*
X100210000Y-77145000D01*
X100250000Y-77200000D01*
X100295000Y-77265000D01*
X100365000Y-77365000D01*
X100410000Y-77435000D01*
X100460000Y-77520000D01*
X100500000Y-77585000D01*
X100540000Y-77660000D01*
X100590000Y-77755000D01*
X100625000Y-77830000D01*
X100655000Y-77890000D01*
X100680000Y-77950000D01*
X100750000Y-78120000D01*
X100775000Y-78190000D01*
X100795000Y-78245000D01*
X100845000Y-78405000D01*
X100870000Y-78500000D01*
X100885000Y-78555000D01*
X100905000Y-78640000D01*
X100930000Y-78760000D01*
X100960000Y-78930000D01*
X100970000Y-79000000D01*
X97600000Y-79000000D01*
X97600000Y-75630000D01*
X97640000Y-75635000D01*
G36*
X97640000Y-75635000D02*
G01*
X97730000Y-75650000D01*
X97815000Y-75665000D01*
X97895000Y-75680000D01*
X98005000Y-75705000D01*
X98125000Y-75735000D01*
X98260000Y-75775000D01*
X98380000Y-75815000D01*
X98515000Y-75865000D01*
X98625000Y-75910000D01*
X98750000Y-75965000D01*
X98960000Y-76070000D01*
X99100000Y-76150000D01*
X99220000Y-76225000D01*
X99280000Y-76265000D01*
X99385000Y-76340000D01*
X99460000Y-76395000D01*
X99550000Y-76465000D01*
X99645000Y-76545000D01*
X99735000Y-76625000D01*
X99805000Y-76690000D01*
X99885000Y-76770000D01*
X99960000Y-76850000D01*
X100015000Y-76910000D01*
X100065000Y-76965000D01*
X100100000Y-77010000D01*
X100150000Y-77070000D01*
X100210000Y-77145000D01*
X100250000Y-77200000D01*
X100295000Y-77265000D01*
X100365000Y-77365000D01*
X100410000Y-77435000D01*
X100460000Y-77520000D01*
X100500000Y-77585000D01*
X100540000Y-77660000D01*
X100590000Y-77755000D01*
X100625000Y-77830000D01*
X100655000Y-77890000D01*
X100680000Y-77950000D01*
X100750000Y-78120000D01*
X100775000Y-78190000D01*
X100795000Y-78245000D01*
X100845000Y-78405000D01*
X100870000Y-78500000D01*
X100885000Y-78555000D01*
X100905000Y-78640000D01*
X100930000Y-78760000D01*
X100960000Y-78930000D01*
X100970000Y-79000000D01*
X97600000Y-79000000D01*
X97600000Y-75630000D01*
X97640000Y-75635000D01*
G37*
X100965000Y-80040000D02*
X100950000Y-80130000D01*
X100935000Y-80215000D01*
X100920000Y-80295000D01*
X100895000Y-80405000D01*
X100865000Y-80525000D01*
X100825000Y-80660000D01*
X100785000Y-80780000D01*
X100735000Y-80915000D01*
X100690000Y-81025000D01*
X100635000Y-81150000D01*
X100530000Y-81360000D01*
X100450000Y-81500000D01*
X100375000Y-81620000D01*
X100335000Y-81680000D01*
X100260000Y-81785000D01*
X100205000Y-81860000D01*
X100135000Y-81950000D01*
X100055000Y-82045000D01*
X99975000Y-82135000D01*
X99910000Y-82205000D01*
X99830000Y-82285000D01*
X99750000Y-82360000D01*
X99690000Y-82415000D01*
X99635000Y-82465000D01*
X99590000Y-82500000D01*
X99530000Y-82550000D01*
X99455000Y-82610000D01*
X99400000Y-82650000D01*
X99335000Y-82695000D01*
X99235000Y-82765000D01*
X99165000Y-82810000D01*
X99080000Y-82860000D01*
X99015000Y-82900000D01*
X98940000Y-82940000D01*
X98845000Y-82990000D01*
X98770000Y-83025000D01*
X98710000Y-83055000D01*
X98650000Y-83080000D01*
X98480000Y-83150000D01*
X98410000Y-83175000D01*
X98355000Y-83195000D01*
X98195000Y-83245000D01*
X98100000Y-83270000D01*
X98045000Y-83285000D01*
X97960000Y-83305000D01*
X97840000Y-83330000D01*
X97670000Y-83360000D01*
X97600000Y-83370000D01*
X97600000Y-80000000D01*
X100970000Y-80000000D01*
X100965000Y-80040000D01*
G36*
X100965000Y-80040000D02*
G01*
X100950000Y-80130000D01*
X100935000Y-80215000D01*
X100920000Y-80295000D01*
X100895000Y-80405000D01*
X100865000Y-80525000D01*
X100825000Y-80660000D01*
X100785000Y-80780000D01*
X100735000Y-80915000D01*
X100690000Y-81025000D01*
X100635000Y-81150000D01*
X100530000Y-81360000D01*
X100450000Y-81500000D01*
X100375000Y-81620000D01*
X100335000Y-81680000D01*
X100260000Y-81785000D01*
X100205000Y-81860000D01*
X100135000Y-81950000D01*
X100055000Y-82045000D01*
X99975000Y-82135000D01*
X99910000Y-82205000D01*
X99830000Y-82285000D01*
X99750000Y-82360000D01*
X99690000Y-82415000D01*
X99635000Y-82465000D01*
X99590000Y-82500000D01*
X99530000Y-82550000D01*
X99455000Y-82610000D01*
X99400000Y-82650000D01*
X99335000Y-82695000D01*
X99235000Y-82765000D01*
X99165000Y-82810000D01*
X99080000Y-82860000D01*
X99015000Y-82900000D01*
X98940000Y-82940000D01*
X98845000Y-82990000D01*
X98770000Y-83025000D01*
X98710000Y-83055000D01*
X98650000Y-83080000D01*
X98480000Y-83150000D01*
X98410000Y-83175000D01*
X98355000Y-83195000D01*
X98195000Y-83245000D01*
X98100000Y-83270000D01*
X98045000Y-83285000D01*
X97960000Y-83305000D01*
X97840000Y-83330000D01*
X97670000Y-83360000D01*
X97600000Y-83370000D01*
X97600000Y-80000000D01*
X100970000Y-80000000D01*
X100965000Y-80040000D01*
G37*
D10*
%TO.C,J2*%
X103371065Y-60640058D02*
X103503687Y-60831584D01*
X103668416Y-60996313D01*
X103859942Y-61128935D01*
X103965000Y-61179300D01*
X103965000Y-62105000D01*
X102390000Y-62105000D01*
X102390000Y-60535000D01*
X103320700Y-60535000D01*
X103371065Y-60640058D01*
G36*
X103371065Y-60640058D02*
G01*
X103503687Y-60831584D01*
X103668416Y-60996313D01*
X103859942Y-61128935D01*
X103965000Y-61179300D01*
X103965000Y-62105000D01*
X102390000Y-62105000D01*
X102390000Y-60535000D01*
X103320700Y-60535000D01*
X103371065Y-60640058D01*
G37*
X103965000Y-58820700D02*
X103859942Y-58871065D01*
X103668415Y-59003687D01*
X103503687Y-59168415D01*
X103371065Y-59359942D01*
X103320700Y-59465000D01*
X102390000Y-59465000D01*
X102390000Y-57895000D01*
X103965000Y-57895000D01*
X103965000Y-58820700D01*
G36*
X103965000Y-58820700D02*
G01*
X103859942Y-58871065D01*
X103668415Y-59003687D01*
X103503687Y-59168415D01*
X103371065Y-59359942D01*
X103320700Y-59465000D01*
X102390000Y-59465000D01*
X102390000Y-57895000D01*
X103965000Y-57895000D01*
X103965000Y-58820700D01*
G37*
X106610000Y-59465000D02*
X105679300Y-59465000D01*
X105628935Y-59359942D01*
X105496313Y-59168416D01*
X105331584Y-59003687D01*
X105140058Y-58871065D01*
X105035000Y-58820700D01*
X105035000Y-57895000D01*
X106610000Y-57895000D01*
X106610000Y-59465000D01*
G36*
X106610000Y-59465000D02*
G01*
X105679300Y-59465000D01*
X105628935Y-59359942D01*
X105496313Y-59168416D01*
X105331584Y-59003687D01*
X105140058Y-58871065D01*
X105035000Y-58820700D01*
X105035000Y-57895000D01*
X106610000Y-57895000D01*
X106610000Y-59465000D01*
G37*
X106610000Y-62105000D02*
X105035000Y-62105000D01*
X105035000Y-61179300D01*
X105140058Y-61128935D01*
X105331584Y-60996313D01*
X105496313Y-60831584D01*
X105628935Y-60640058D01*
X105679300Y-60535000D01*
X106610000Y-60535000D01*
X106610000Y-62105000D01*
G36*
X106610000Y-62105000D02*
G01*
X105035000Y-62105000D01*
X105035000Y-61179300D01*
X105140058Y-61128935D01*
X105331584Y-60996313D01*
X105496313Y-60831584D01*
X105628935Y-60640058D01*
X105679300Y-60535000D01*
X106610000Y-60535000D01*
X106610000Y-62105000D01*
G37*
D11*
%TO.C,J5*%
X150500000Y-79000000D02*
X147130000Y-79000000D01*
X147135000Y-78960000D01*
X147150000Y-78870000D01*
X147165000Y-78785000D01*
X147180000Y-78705000D01*
X147205000Y-78595000D01*
X147235000Y-78475000D01*
X147275000Y-78340000D01*
X147315000Y-78220000D01*
X147365000Y-78085000D01*
X147410000Y-77975000D01*
X147465000Y-77850000D01*
X147570000Y-77640000D01*
X147650000Y-77500000D01*
X147725000Y-77380000D01*
X147765000Y-77320000D01*
X147840000Y-77215000D01*
X147895000Y-77140000D01*
X147965000Y-77050000D01*
X148045000Y-76955000D01*
X148125000Y-76865000D01*
X148190000Y-76795000D01*
X148270000Y-76715000D01*
X148350000Y-76640000D01*
X148410000Y-76585000D01*
X148465000Y-76535000D01*
X148510000Y-76500000D01*
X148570000Y-76450000D01*
X148645000Y-76390000D01*
X148700000Y-76350000D01*
X148765000Y-76305000D01*
X148865000Y-76235000D01*
X148935000Y-76190000D01*
X149020000Y-76140000D01*
X149085000Y-76100000D01*
X149160000Y-76060000D01*
X149255000Y-76010000D01*
X149330000Y-75975000D01*
X149390000Y-75945000D01*
X149450000Y-75920000D01*
X149620000Y-75850000D01*
X149690000Y-75825000D01*
X149745000Y-75805000D01*
X149905000Y-75755000D01*
X150000000Y-75730000D01*
X150055000Y-75715000D01*
X150140000Y-75695000D01*
X150260000Y-75670000D01*
X150430000Y-75640000D01*
X150500000Y-75630000D01*
X150500000Y-79000000D01*
G36*
X150500000Y-79000000D02*
G01*
X147130000Y-79000000D01*
X147135000Y-78960000D01*
X147150000Y-78870000D01*
X147165000Y-78785000D01*
X147180000Y-78705000D01*
X147205000Y-78595000D01*
X147235000Y-78475000D01*
X147275000Y-78340000D01*
X147315000Y-78220000D01*
X147365000Y-78085000D01*
X147410000Y-77975000D01*
X147465000Y-77850000D01*
X147570000Y-77640000D01*
X147650000Y-77500000D01*
X147725000Y-77380000D01*
X147765000Y-77320000D01*
X147840000Y-77215000D01*
X147895000Y-77140000D01*
X147965000Y-77050000D01*
X148045000Y-76955000D01*
X148125000Y-76865000D01*
X148190000Y-76795000D01*
X148270000Y-76715000D01*
X148350000Y-76640000D01*
X148410000Y-76585000D01*
X148465000Y-76535000D01*
X148510000Y-76500000D01*
X148570000Y-76450000D01*
X148645000Y-76390000D01*
X148700000Y-76350000D01*
X148765000Y-76305000D01*
X148865000Y-76235000D01*
X148935000Y-76190000D01*
X149020000Y-76140000D01*
X149085000Y-76100000D01*
X149160000Y-76060000D01*
X149255000Y-76010000D01*
X149330000Y-75975000D01*
X149390000Y-75945000D01*
X149450000Y-75920000D01*
X149620000Y-75850000D01*
X149690000Y-75825000D01*
X149745000Y-75805000D01*
X149905000Y-75755000D01*
X150000000Y-75730000D01*
X150055000Y-75715000D01*
X150140000Y-75695000D01*
X150260000Y-75670000D01*
X150430000Y-75640000D01*
X150500000Y-75630000D01*
X150500000Y-79000000D01*
G37*
X150500000Y-83370000D02*
X150460000Y-83365000D01*
X150370000Y-83350000D01*
X150285000Y-83335000D01*
X150205000Y-83320000D01*
X150095000Y-83295000D01*
X149975000Y-83265000D01*
X149840000Y-83225000D01*
X149720000Y-83185000D01*
X149585000Y-83135000D01*
X149475000Y-83090000D01*
X149350000Y-83035000D01*
X149140000Y-82930000D01*
X149000000Y-82850000D01*
X148880000Y-82775000D01*
X148820000Y-82735000D01*
X148715000Y-82660000D01*
X148640000Y-82605000D01*
X148550000Y-82535000D01*
X148455000Y-82455000D01*
X148365000Y-82375000D01*
X148295000Y-82310000D01*
X148215000Y-82230000D01*
X148140000Y-82150000D01*
X148085000Y-82090000D01*
X148035000Y-82035000D01*
X148000000Y-81990000D01*
X147950000Y-81930000D01*
X147890000Y-81855000D01*
X147850000Y-81800000D01*
X147805000Y-81735000D01*
X147735000Y-81635000D01*
X147690000Y-81565000D01*
X147640000Y-81480000D01*
X147600000Y-81415000D01*
X147560000Y-81340000D01*
X147510000Y-81245000D01*
X147475000Y-81170000D01*
X147445000Y-81110000D01*
X147420000Y-81050000D01*
X147350000Y-80880000D01*
X147325000Y-80810000D01*
X147305000Y-80755000D01*
X147255000Y-80595000D01*
X147230000Y-80500000D01*
X147215000Y-80445000D01*
X147195000Y-80360000D01*
X147170000Y-80240000D01*
X147140000Y-80070000D01*
X147130000Y-80000000D01*
X150500000Y-80000000D01*
X150500000Y-83370000D01*
G36*
X150500000Y-83370000D02*
G01*
X150460000Y-83365000D01*
X150370000Y-83350000D01*
X150285000Y-83335000D01*
X150205000Y-83320000D01*
X150095000Y-83295000D01*
X149975000Y-83265000D01*
X149840000Y-83225000D01*
X149720000Y-83185000D01*
X149585000Y-83135000D01*
X149475000Y-83090000D01*
X149350000Y-83035000D01*
X149140000Y-82930000D01*
X149000000Y-82850000D01*
X148880000Y-82775000D01*
X148820000Y-82735000D01*
X148715000Y-82660000D01*
X148640000Y-82605000D01*
X148550000Y-82535000D01*
X148455000Y-82455000D01*
X148365000Y-82375000D01*
X148295000Y-82310000D01*
X148215000Y-82230000D01*
X148140000Y-82150000D01*
X148085000Y-82090000D01*
X148035000Y-82035000D01*
X148000000Y-81990000D01*
X147950000Y-81930000D01*
X147890000Y-81855000D01*
X147850000Y-81800000D01*
X147805000Y-81735000D01*
X147735000Y-81635000D01*
X147690000Y-81565000D01*
X147640000Y-81480000D01*
X147600000Y-81415000D01*
X147560000Y-81340000D01*
X147510000Y-81245000D01*
X147475000Y-81170000D01*
X147445000Y-81110000D01*
X147420000Y-81050000D01*
X147350000Y-80880000D01*
X147325000Y-80810000D01*
X147305000Y-80755000D01*
X147255000Y-80595000D01*
X147230000Y-80500000D01*
X147215000Y-80445000D01*
X147195000Y-80360000D01*
X147170000Y-80240000D01*
X147140000Y-80070000D01*
X147130000Y-80000000D01*
X150500000Y-80000000D01*
X150500000Y-83370000D01*
G37*
X151540000Y-75635000D02*
X151630000Y-75650000D01*
X151715000Y-75665000D01*
X151795000Y-75680000D01*
X151905000Y-75705000D01*
X152025000Y-75735000D01*
X152160000Y-75775000D01*
X152280000Y-75815000D01*
X152415000Y-75865000D01*
X152525000Y-75910000D01*
X152650000Y-75965000D01*
X152860000Y-76070000D01*
X153000000Y-76150000D01*
X153120000Y-76225000D01*
X153180000Y-76265000D01*
X153285000Y-76340000D01*
X153360000Y-76395000D01*
X153450000Y-76465000D01*
X153545000Y-76545000D01*
X153635000Y-76625000D01*
X153705000Y-76690000D01*
X153785000Y-76770000D01*
X153860000Y-76850000D01*
X153915000Y-76910000D01*
X153965000Y-76965000D01*
X154000000Y-77010000D01*
X154050000Y-77070000D01*
X154110000Y-77145000D01*
X154150000Y-77200000D01*
X154195000Y-77265000D01*
X154265000Y-77365000D01*
X154310000Y-77435000D01*
X154360000Y-77520000D01*
X154400000Y-77585000D01*
X154440000Y-77660000D01*
X154490000Y-77755000D01*
X154525000Y-77830000D01*
X154555000Y-77890000D01*
X154580000Y-77950000D01*
X154650000Y-78120000D01*
X154675000Y-78190000D01*
X154695000Y-78245000D01*
X154745000Y-78405000D01*
X154770000Y-78500000D01*
X154785000Y-78555000D01*
X154805000Y-78640000D01*
X154830000Y-78760000D01*
X154860000Y-78930000D01*
X154870000Y-79000000D01*
X151500000Y-79000000D01*
X151500000Y-75630000D01*
X151540000Y-75635000D01*
G36*
X151540000Y-75635000D02*
G01*
X151630000Y-75650000D01*
X151715000Y-75665000D01*
X151795000Y-75680000D01*
X151905000Y-75705000D01*
X152025000Y-75735000D01*
X152160000Y-75775000D01*
X152280000Y-75815000D01*
X152415000Y-75865000D01*
X152525000Y-75910000D01*
X152650000Y-75965000D01*
X152860000Y-76070000D01*
X153000000Y-76150000D01*
X153120000Y-76225000D01*
X153180000Y-76265000D01*
X153285000Y-76340000D01*
X153360000Y-76395000D01*
X153450000Y-76465000D01*
X153545000Y-76545000D01*
X153635000Y-76625000D01*
X153705000Y-76690000D01*
X153785000Y-76770000D01*
X153860000Y-76850000D01*
X153915000Y-76910000D01*
X153965000Y-76965000D01*
X154000000Y-77010000D01*
X154050000Y-77070000D01*
X154110000Y-77145000D01*
X154150000Y-77200000D01*
X154195000Y-77265000D01*
X154265000Y-77365000D01*
X154310000Y-77435000D01*
X154360000Y-77520000D01*
X154400000Y-77585000D01*
X154440000Y-77660000D01*
X154490000Y-77755000D01*
X154525000Y-77830000D01*
X154555000Y-77890000D01*
X154580000Y-77950000D01*
X154650000Y-78120000D01*
X154675000Y-78190000D01*
X154695000Y-78245000D01*
X154745000Y-78405000D01*
X154770000Y-78500000D01*
X154785000Y-78555000D01*
X154805000Y-78640000D01*
X154830000Y-78760000D01*
X154860000Y-78930000D01*
X154870000Y-79000000D01*
X151500000Y-79000000D01*
X151500000Y-75630000D01*
X151540000Y-75635000D01*
G37*
X154865000Y-80040000D02*
X154850000Y-80130000D01*
X154835000Y-80215000D01*
X154820000Y-80295000D01*
X154795000Y-80405000D01*
X154765000Y-80525000D01*
X154725000Y-80660000D01*
X154685000Y-80780000D01*
X154635000Y-80915000D01*
X154590000Y-81025000D01*
X154535000Y-81150000D01*
X154430000Y-81360000D01*
X154350000Y-81500000D01*
X154275000Y-81620000D01*
X154235000Y-81680000D01*
X154160000Y-81785000D01*
X154105000Y-81860000D01*
X154035000Y-81950000D01*
X153955000Y-82045000D01*
X153875000Y-82135000D01*
X153810000Y-82205000D01*
X153730000Y-82285000D01*
X153650000Y-82360000D01*
X153590000Y-82415000D01*
X153535000Y-82465000D01*
X153490000Y-82500000D01*
X153430000Y-82550000D01*
X153355000Y-82610000D01*
X153300000Y-82650000D01*
X153235000Y-82695000D01*
X153135000Y-82765000D01*
X153065000Y-82810000D01*
X152980000Y-82860000D01*
X152915000Y-82900000D01*
X152840000Y-82940000D01*
X152745000Y-82990000D01*
X152670000Y-83025000D01*
X152610000Y-83055000D01*
X152550000Y-83080000D01*
X152380000Y-83150000D01*
X152310000Y-83175000D01*
X152255000Y-83195000D01*
X152095000Y-83245000D01*
X152000000Y-83270000D01*
X151945000Y-83285000D01*
X151860000Y-83305000D01*
X151740000Y-83330000D01*
X151570000Y-83360000D01*
X151500000Y-83370000D01*
X151500000Y-80000000D01*
X154870000Y-80000000D01*
X154865000Y-80040000D01*
G36*
X154865000Y-80040000D02*
G01*
X154850000Y-80130000D01*
X154835000Y-80215000D01*
X154820000Y-80295000D01*
X154795000Y-80405000D01*
X154765000Y-80525000D01*
X154725000Y-80660000D01*
X154685000Y-80780000D01*
X154635000Y-80915000D01*
X154590000Y-81025000D01*
X154535000Y-81150000D01*
X154430000Y-81360000D01*
X154350000Y-81500000D01*
X154275000Y-81620000D01*
X154235000Y-81680000D01*
X154160000Y-81785000D01*
X154105000Y-81860000D01*
X154035000Y-81950000D01*
X153955000Y-82045000D01*
X153875000Y-82135000D01*
X153810000Y-82205000D01*
X153730000Y-82285000D01*
X153650000Y-82360000D01*
X153590000Y-82415000D01*
X153535000Y-82465000D01*
X153490000Y-82500000D01*
X153430000Y-82550000D01*
X153355000Y-82610000D01*
X153300000Y-82650000D01*
X153235000Y-82695000D01*
X153135000Y-82765000D01*
X153065000Y-82810000D01*
X152980000Y-82860000D01*
X152915000Y-82900000D01*
X152840000Y-82940000D01*
X152745000Y-82990000D01*
X152670000Y-83025000D01*
X152610000Y-83055000D01*
X152550000Y-83080000D01*
X152380000Y-83150000D01*
X152310000Y-83175000D01*
X152255000Y-83195000D01*
X152095000Y-83245000D01*
X152000000Y-83270000D01*
X151945000Y-83285000D01*
X151860000Y-83305000D01*
X151740000Y-83330000D01*
X151570000Y-83360000D01*
X151500000Y-83370000D01*
X151500000Y-80000000D01*
X154870000Y-80000000D01*
X154865000Y-80040000D01*
G37*
D12*
%TO.C,Q2*%
G36*
X112400000Y-76249996D02*
G01*
X111050000Y-76249996D01*
X111050000Y-74749993D01*
X112400000Y-74749993D01*
X112400000Y-76249996D01*
G37*
G36*
X112400000Y-78249996D02*
G01*
X111050000Y-78249996D01*
X111050000Y-76749993D01*
X112400000Y-76749993D01*
X112400000Y-78249996D01*
G37*
G36*
X112400000Y-80249996D02*
G01*
X111050000Y-80249996D01*
X111050000Y-78749996D01*
X112400000Y-78749996D01*
X112400000Y-80249996D01*
G37*
G36*
X112400000Y-82249999D02*
G01*
X111050000Y-82249999D01*
X111050000Y-80749996D01*
X112400000Y-80749996D01*
X112400000Y-82249999D01*
G37*
G36*
X112400000Y-84249999D02*
G01*
X111050000Y-84249999D01*
X111050000Y-82749996D01*
X112400000Y-82749996D01*
X112400000Y-84249999D01*
G37*
G36*
X116525000Y-79300000D02*
G01*
X115725000Y-79300000D01*
X115725000Y-74800000D01*
X116525000Y-74800000D01*
X116525000Y-79300000D01*
G37*
G36*
X116525000Y-84199999D02*
G01*
X115725000Y-84199999D01*
X115725000Y-79699999D01*
X116525000Y-79699999D01*
X116525000Y-84199999D01*
G37*
G36*
X117725000Y-79300000D02*
G01*
X116925000Y-79300000D01*
X116925000Y-74800000D01*
X117725000Y-74800000D01*
X117725000Y-79300000D01*
G37*
G36*
X117725000Y-84199999D02*
G01*
X116925000Y-84199999D01*
X116925000Y-79699999D01*
X117725000Y-79699999D01*
X117725000Y-84199999D01*
G37*
G36*
X118925000Y-79299993D02*
G01*
X118125000Y-79299993D01*
X118125000Y-75199996D01*
X118925000Y-75199996D01*
X118925000Y-79299993D01*
G37*
G36*
X118925000Y-83799996D02*
G01*
X118125000Y-83799996D01*
X118125000Y-79699996D01*
X118925000Y-79699996D01*
X118925000Y-83799996D01*
G37*
G36*
X120125000Y-79299993D02*
G01*
X119325000Y-79299993D01*
X119325000Y-75199996D01*
X120125000Y-75199996D01*
X120125000Y-79299993D01*
G37*
G36*
X120125000Y-83799996D02*
G01*
X119325000Y-83799996D01*
X119325000Y-79699996D01*
X120125000Y-79699996D01*
X120125000Y-83799996D01*
G37*
G36*
X121325000Y-79299993D02*
G01*
X120525000Y-79299993D01*
X120525000Y-77399996D01*
X121325000Y-77399996D01*
X121325000Y-79299993D01*
G37*
G36*
X121325000Y-83799996D02*
G01*
X120525000Y-83799996D01*
X120525000Y-79699996D01*
X121325000Y-79699996D01*
X121325000Y-83799996D01*
G37*
G36*
X123725000Y-78049996D02*
G01*
X121925000Y-78049996D01*
X121925000Y-77349996D01*
X123725000Y-77349996D01*
X123725000Y-78049996D01*
G37*
G36*
X123725000Y-79249996D02*
G01*
X121925000Y-79249996D01*
X121925000Y-78549996D01*
X123725000Y-78549996D01*
X123725000Y-79249996D01*
G37*
G36*
X123725000Y-80449996D02*
G01*
X121925000Y-80449996D01*
X121925000Y-79749996D01*
X123725000Y-79749996D01*
X123725000Y-80449996D01*
G37*
G36*
X123725000Y-81649996D02*
G01*
X121925000Y-81649996D01*
X121925000Y-80949996D01*
X123725000Y-80949996D01*
X123725000Y-81649996D01*
G37*
G36*
X123725000Y-82849996D02*
G01*
X121925000Y-82849996D01*
X121925000Y-82149996D01*
X123725000Y-82149996D01*
X123725000Y-82849996D01*
G37*
G36*
X123725000Y-84049996D02*
G01*
X121925000Y-84049996D01*
X121925000Y-83349996D01*
X123725000Y-83349996D01*
X123725000Y-84049996D01*
G37*
G36*
X123725000Y-75649996D02*
G01*
X122325000Y-75649996D01*
X122325000Y-74949996D01*
X123725000Y-74949996D01*
X123725000Y-75649996D01*
G37*
G36*
X123725000Y-76849996D02*
G01*
X122325000Y-76849996D01*
X122325000Y-76149996D01*
X123725000Y-76149996D01*
X123725000Y-76849996D01*
G37*
D10*
%TO.C,J7*%
X144371065Y-69890058D02*
X144503687Y-70081584D01*
X144668416Y-70246313D01*
X144859942Y-70378935D01*
X144965000Y-70429300D01*
X144965000Y-71355000D01*
X143390000Y-71355000D01*
X143390000Y-69785000D01*
X144320700Y-69785000D01*
X144371065Y-69890058D01*
G36*
X144371065Y-69890058D02*
G01*
X144503687Y-70081584D01*
X144668416Y-70246313D01*
X144859942Y-70378935D01*
X144965000Y-70429300D01*
X144965000Y-71355000D01*
X143390000Y-71355000D01*
X143390000Y-69785000D01*
X144320700Y-69785000D01*
X144371065Y-69890058D01*
G37*
X144965000Y-68070700D02*
X144859942Y-68121065D01*
X144668415Y-68253687D01*
X144503687Y-68418415D01*
X144371065Y-68609942D01*
X144320700Y-68715000D01*
X143390000Y-68715000D01*
X143390000Y-67145000D01*
X144965000Y-67145000D01*
X144965000Y-68070700D01*
G36*
X144965000Y-68070700D02*
G01*
X144859942Y-68121065D01*
X144668415Y-68253687D01*
X144503687Y-68418415D01*
X144371065Y-68609942D01*
X144320700Y-68715000D01*
X143390000Y-68715000D01*
X143390000Y-67145000D01*
X144965000Y-67145000D01*
X144965000Y-68070700D01*
G37*
X147610000Y-68715000D02*
X146679300Y-68715000D01*
X146628935Y-68609942D01*
X146496313Y-68418416D01*
X146331584Y-68253687D01*
X146140058Y-68121065D01*
X146035000Y-68070700D01*
X146035000Y-67145000D01*
X147610000Y-67145000D01*
X147610000Y-68715000D01*
G36*
X147610000Y-68715000D02*
G01*
X146679300Y-68715000D01*
X146628935Y-68609942D01*
X146496313Y-68418416D01*
X146331584Y-68253687D01*
X146140058Y-68121065D01*
X146035000Y-68070700D01*
X146035000Y-67145000D01*
X147610000Y-67145000D01*
X147610000Y-68715000D01*
G37*
X147610000Y-71355000D02*
X146035000Y-71355000D01*
X146035000Y-70429300D01*
X146140058Y-70378935D01*
X146331584Y-70246313D01*
X146496313Y-70081584D01*
X146628935Y-69890058D01*
X146679300Y-69785000D01*
X147610000Y-69785000D01*
X147610000Y-71355000D01*
G36*
X147610000Y-71355000D02*
G01*
X146035000Y-71355000D01*
X146035000Y-70429300D01*
X146140058Y-70378935D01*
X146331584Y-70246313D01*
X146496313Y-70081584D01*
X146628935Y-69890058D01*
X146679300Y-69785000D01*
X147610000Y-69785000D01*
X147610000Y-71355000D01*
G37*
%TO.C,J4*%
X135371065Y-92140058D02*
X135503687Y-92331584D01*
X135668416Y-92496313D01*
X135859942Y-92628935D01*
X135965000Y-92679300D01*
X135965000Y-93605000D01*
X134390000Y-93605000D01*
X134390000Y-92035000D01*
X135320700Y-92035000D01*
X135371065Y-92140058D01*
G36*
X135371065Y-92140058D02*
G01*
X135503687Y-92331584D01*
X135668416Y-92496313D01*
X135859942Y-92628935D01*
X135965000Y-92679300D01*
X135965000Y-93605000D01*
X134390000Y-93605000D01*
X134390000Y-92035000D01*
X135320700Y-92035000D01*
X135371065Y-92140058D01*
G37*
X135965000Y-90320700D02*
X135859942Y-90371065D01*
X135668415Y-90503687D01*
X135503687Y-90668415D01*
X135371065Y-90859942D01*
X135320700Y-90965000D01*
X134390000Y-90965000D01*
X134390000Y-89395000D01*
X135965000Y-89395000D01*
X135965000Y-90320700D01*
G36*
X135965000Y-90320700D02*
G01*
X135859942Y-90371065D01*
X135668415Y-90503687D01*
X135503687Y-90668415D01*
X135371065Y-90859942D01*
X135320700Y-90965000D01*
X134390000Y-90965000D01*
X134390000Y-89395000D01*
X135965000Y-89395000D01*
X135965000Y-90320700D01*
G37*
X138610000Y-90965000D02*
X137679300Y-90965000D01*
X137628935Y-90859942D01*
X137496313Y-90668416D01*
X137331584Y-90503687D01*
X137140058Y-90371065D01*
X137035000Y-90320700D01*
X137035000Y-89395000D01*
X138610000Y-89395000D01*
X138610000Y-90965000D01*
G36*
X138610000Y-90965000D02*
G01*
X137679300Y-90965000D01*
X137628935Y-90859942D01*
X137496313Y-90668416D01*
X137331584Y-90503687D01*
X137140058Y-90371065D01*
X137035000Y-90320700D01*
X137035000Y-89395000D01*
X138610000Y-89395000D01*
X138610000Y-90965000D01*
G37*
X138610000Y-93605000D02*
X137035000Y-93605000D01*
X137035000Y-92679300D01*
X137140058Y-92628935D01*
X137331584Y-92496313D01*
X137496313Y-92331584D01*
X137628935Y-92140058D01*
X137679300Y-92035000D01*
X138610000Y-92035000D01*
X138610000Y-93605000D01*
G36*
X138610000Y-93605000D02*
G01*
X137035000Y-93605000D01*
X137035000Y-92679300D01*
X137140058Y-92628935D01*
X137331584Y-92496313D01*
X137496313Y-92331584D01*
X137628935Y-92140058D01*
X137679300Y-92035000D01*
X138610000Y-92035000D01*
X138610000Y-93605000D01*
G37*
%TD*%
D13*
%TO.C,TJ1*%
X126062500Y-81500000D03*
X127737500Y-81500000D03*
%TD*%
D14*
%TO.C,C2*%
X123500000Y-63725000D03*
X123500000Y-65275000D03*
%TD*%
D15*
%TO.C,J6*%
X101750000Y-87500000D03*
%TD*%
D16*
%TO.C,F1*%
X97500000Y-71500000D03*
X107500000Y-71500000D03*
%TD*%
D17*
%TO.C,TP9*%
X153000000Y-68500000D03*
%TD*%
D18*
%TO.C,R3*%
X106575000Y-63500000D03*
X104925000Y-63500000D03*
%TD*%
D19*
%TO.C,C8*%
X111000000Y-86325000D03*
X111000000Y-89275000D03*
%TD*%
D20*
%TO.C,RV1*%
X128550000Y-65450000D03*
D21*
X131450000Y-66700000D03*
D20*
X128550000Y-67950000D03*
%TD*%
D22*
%TO.C,D3*%
X125250000Y-66250000D03*
X125250000Y-63750000D03*
%TD*%
D23*
%TO.C,TJ2*%
X115100000Y-86762500D03*
X115100000Y-88437500D03*
%TD*%
D18*
%TO.C,R18*%
X130325000Y-72750000D03*
X128675000Y-72750000D03*
%TD*%
D24*
%TO.C,R1*%
X138700000Y-76685000D03*
X138700000Y-82235000D03*
X143550000Y-76685000D03*
X143550000Y-82235000D03*
D25*
X131975000Y-76920000D03*
X131975000Y-82000000D03*
%TD*%
D26*
%TO.C,R7*%
X125000000Y-60675000D03*
X125000000Y-62325000D03*
%TD*%
D27*
%TO.C,R21*%
X123350000Y-68000000D03*
X125000000Y-68000000D03*
%TD*%
D28*
%TO.C,TJ4*%
X112100000Y-72437500D03*
X112100000Y-70762500D03*
%TD*%
D26*
%TO.C,R2*%
X127800000Y-74375000D03*
X127800000Y-76025000D03*
%TD*%
D15*
%TO.C,J2*%
X104500000Y-60000000D03*
%TD*%
D29*
%TO.C,U1*%
X139362500Y-69450000D03*
X139362500Y-68800000D03*
X139362500Y-68150000D03*
X139362500Y-67500000D03*
X139362500Y-66850000D03*
X139362500Y-66200000D03*
X139362500Y-65550000D03*
X133637500Y-65550000D03*
X133637500Y-66200000D03*
X133637500Y-66850000D03*
X133637500Y-67500000D03*
X133637500Y-68150000D03*
X133637500Y-68800000D03*
X133637500Y-69450000D03*
%TD*%
D23*
%TO.C,TJ3*%
X119100000Y-86762500D03*
X119100000Y-88437500D03*
%TD*%
D30*
%TO.C,R16*%
X111000000Y-92625000D03*
X111000000Y-90975000D03*
%TD*%
D15*
%TO.C,J7*%
X145500000Y-69250000D03*
%TD*%
D31*
%TO.C,TP6*%
X102000000Y-93000000D03*
%TD*%
D32*
%TO.C,J1*%
X112940000Y-66025000D03*
X112940000Y-60975000D03*
X115480000Y-66025000D03*
X115480000Y-60975000D03*
X118020000Y-66025000D03*
X118020000Y-60975000D03*
X120560000Y-66025000D03*
X120560000Y-60975000D03*
%TD*%
D15*
%TO.C,J4*%
X136500000Y-91500000D03*
%TD*%
D33*
%TO.C,L1*%
X123050000Y-91500000D03*
X130950000Y-91500000D03*
%TD*%
D28*
%TO.C,TJ6*%
X120100000Y-72437500D03*
X120100000Y-70762500D03*
%TD*%
D34*
%TO.C,D2*%
X125900000Y-74100000D03*
X125900000Y-76600000D03*
%TD*%
D35*
%TO.C,C1*%
X132775000Y-62500000D03*
X135725000Y-62500000D03*
%TD*%
D18*
%TO.C,R5*%
X130325000Y-71250000D03*
X128675000Y-71250000D03*
%TD*%
D31*
%TO.C,TP10*%
X102000000Y-65000000D03*
%TD*%
D17*
%TO.C,TP4*%
X125000000Y-71500000D03*
%TD*%
D36*
%TO.C,D1*%
X107125000Y-87350000D03*
X107125000Y-91650000D03*
%TD*%
D37*
%TO.C,R17*%
X128037500Y-84500000D03*
X126212500Y-84500000D03*
%TD*%
D38*
%TO.C,TP7*%
X153000000Y-87000000D03*
%TD*%
D39*
%TO.C,TJ8*%
X108962500Y-79500000D03*
X107287500Y-79500000D03*
%TD*%
D40*
%TO.C,RV2*%
X140950000Y-63250000D03*
D41*
X138050000Y-62000000D03*
D40*
X140950000Y-60750000D03*
%TD*%
D39*
%TO.C,TJ7*%
X108962500Y-83500000D03*
X107287500Y-83500000D03*
%TD*%
D42*
%TO.C,C4*%
X141275000Y-71000000D03*
X139725000Y-71000000D03*
%TD*%
D26*
%TO.C,R6*%
X110000000Y-64925000D03*
X110000000Y-66575000D03*
%TD*%
D28*
%TO.C,TJ5*%
X116100000Y-72437500D03*
X116100000Y-70762500D03*
%TD*%
M02*
