%TF.GenerationSoftware,KiCad,Pcbnew,9.0.7*%
%TF.CreationDate,2026-02-15T21:39:57-05:00*%
%TF.ProjectId,Modular_Load,4d6f6475-6c61-4725-9f4c-6f61642e6b69,rev?*%
%TF.SameCoordinates,Original*%
%TF.FileFunction,Copper,L2,Bot*%
%TF.FilePolarity,Positive*%
%FSLAX46Y46*%
G04 Gerber Fmt 4.6, Leading zero omitted, Abs format (unit mm)*
G04 Created by KiCad (PCBNEW 9.0.7) date 2026-02-15 21:39:57*
%MOMM*%
%LPD*%
G01*
G04 APERTURE LIST*
G04 Aperture macros list*
%AMRoundRect*
0 Rectangle with rounded corners*
0 $1 Rounding radius*
0 $2 $3 $4 $5 $6 $7 $8 $9 X,Y pos of 4 corners*
0 Add a 4 corners polygon primitive as box body*
4,1,4,$2,$3,$4,$5,$6,$7,$8,$9,$2,$3,0*
0 Add four circle primitives for the rounded corners*
1,1,$1+$1,$2,$3*
1,1,$1+$1,$4,$5*
1,1,$1+$1,$6,$7*
1,1,$1+$1,$8,$9*
0 Add four rect primitives between the rounded corners*
20,1,$1+$1,$2,$3,$4,$5,0*
20,1,$1+$1,$4,$5,$6,$7,0*
20,1,$1+$1,$6,$7,$8,$9,0*
20,1,$1+$1,$8,$9,$2,$3,0*%
G04 Aperture macros list end*
%ADD10C,0.200000*%
%TA.AperFunction,NonConductor*%
%ADD11C,0.200000*%
%TD*%
%TA.AperFunction,SMDPad,CuDef*%
%ADD12RoundRect,0.250000X-1.450000X0.337500X-1.450000X-0.337500X1.450000X-0.337500X1.450000X0.337500X0*%
%TD*%
%TA.AperFunction,SMDPad,CuDef*%
%ADD13RoundRect,0.200000X0.275000X-0.200000X0.275000X0.200000X-0.275000X0.200000X-0.275000X-0.200000X0*%
%TD*%
%TA.AperFunction,SMDPad,CuDef*%
%ADD14RoundRect,0.200000X-0.275000X0.200000X-0.275000X-0.200000X0.275000X-0.200000X0.275000X0.200000X0*%
%TD*%
%TA.AperFunction,SMDPad,CuDef*%
%ADD15RoundRect,0.250000X-0.337500X-1.450000X0.337500X-1.450000X0.337500X1.450000X-0.337500X1.450000X0*%
%TD*%
%TA.AperFunction,SMDPad,CuDef*%
%ADD16RoundRect,0.200000X-0.200000X-0.275000X0.200000X-0.275000X0.200000X0.275000X-0.200000X0.275000X0*%
%TD*%
%TA.AperFunction,SMDPad,CuDef*%
%ADD17RoundRect,0.200000X0.200000X0.275000X-0.200000X0.275000X-0.200000X-0.275000X0.200000X-0.275000X0*%
%TD*%
%TA.AperFunction,SMDPad,CuDef*%
%ADD18RoundRect,0.250000X1.450000X-0.337500X1.450000X0.337500X-1.450000X0.337500X-1.450000X-0.337500X0*%
%TD*%
%TA.AperFunction,SMDPad,CuDef*%
%ADD19RoundRect,0.225000X-0.250000X0.225000X-0.250000X-0.225000X0.250000X-0.225000X0.250000X0.225000X0*%
%TD*%
%TA.AperFunction,SMDPad,CuDef*%
%ADD20RoundRect,0.250000X0.337500X1.450000X-0.337500X1.450000X-0.337500X-1.450000X0.337500X-1.450000X0*%
%TD*%
%TA.AperFunction,SMDPad,CuDef*%
%ADD21RoundRect,0.225000X0.225000X0.250000X-0.225000X0.250000X-0.225000X-0.250000X0.225000X-0.250000X0*%
%TD*%
%TA.AperFunction,ViaPad*%
%ADD22C,0.800000*%
%TD*%
%TA.AperFunction,Conductor*%
%ADD23C,0.250000*%
%TD*%
G04 APERTURE END LIST*
D10*
D11*
X148255713Y-94677457D02*
X148208094Y-94629838D01*
X148208094Y-94629838D02*
X148112856Y-94582219D01*
X148112856Y-94582219D02*
X147874761Y-94582219D01*
X147874761Y-94582219D02*
X147779523Y-94629838D01*
X147779523Y-94629838D02*
X147731904Y-94677457D01*
X147731904Y-94677457D02*
X147684285Y-94772695D01*
X147684285Y-94772695D02*
X147684285Y-94867933D01*
X147684285Y-94867933D02*
X147731904Y-95010790D01*
X147731904Y-95010790D02*
X148303332Y-95582219D01*
X148303332Y-95582219D02*
X147684285Y-95582219D01*
D12*
%TO.P,TJ14,1*%
%TO.N,/FB*%
X115900000Y-86762500D03*
%TO.P,TJ14,2*%
%TO.N,GND*%
X115900000Y-88437500D03*
%TD*%
D13*
%TO.P,R13,1*%
%TO.N,Net-(U1C--)*%
X131250000Y-66825000D03*
%TO.P,R13,2*%
%TO.N,GND*%
X131250000Y-65175000D03*
%TD*%
D14*
%TO.P,R8,1*%
%TO.N,Net-(U1A--)*%
X141250000Y-68175000D03*
%TO.P,R8,2*%
%TO.N,Net-(C4-Pad1)*%
X141250000Y-69825000D03*
%TD*%
D15*
%TO.P,TJ21,1*%
%TO.N,/FB*%
X126062500Y-75400000D03*
%TO.P,TJ21,2*%
%TO.N,GND*%
X127737500Y-75400000D03*
%TD*%
D16*
%TO.P,R14,1*%
%TO.N,Net-(C9-Pad1)*%
X139175000Y-63250000D03*
%TO.P,R14,2*%
%TO.N,Net-(R14-Pad2)*%
X140825000Y-63250000D03*
%TD*%
D12*
%TO.P,TJ19,1*%
%TO.N,/FB*%
X123900000Y-86762500D03*
%TO.P,TJ19,2*%
%TO.N,GND*%
X123900000Y-88437500D03*
%TD*%
D17*
%TO.P,R15,1*%
%TO.N,Net-(R15-Pad1)*%
X140825000Y-60750000D03*
%TO.P,R15,2*%
%TO.N,GND*%
X139175000Y-60750000D03*
%TD*%
D18*
%TO.P,TJ16,1*%
%TO.N,/FB*%
X119900000Y-72437500D03*
%TO.P,TJ16,2*%
%TO.N,GND*%
X119900000Y-70762500D03*
%TD*%
D19*
%TO.P,C9,1*%
%TO.N,Net-(C9-Pad1)*%
X138750000Y-65225000D03*
%TO.P,C9,2*%
%TO.N,Net-(U1B--)*%
X138750000Y-66775000D03*
%TD*%
D12*
%TO.P,TJ13,1*%
%TO.N,/FB*%
X111900000Y-86762500D03*
%TO.P,TJ13,2*%
%TO.N,GND*%
X111900000Y-88437500D03*
%TD*%
D19*
%TO.P,C7,1*%
%TO.N,Net-(U1A-+)*%
X134250000Y-65225000D03*
%TO.P,C7,2*%
%TO.N,Net-(U1C--)*%
X134250000Y-66775000D03*
%TD*%
%TO.P,C6,1*%
%TO.N,Net-(U1A--)*%
X139750000Y-68225000D03*
%TO.P,C6,2*%
%TO.N,Net-(U1D-+)*%
X139750000Y-69775000D03*
%TD*%
D14*
%TO.P,R10,1*%
%TO.N,/I_SET*%
X128500000Y-66675000D03*
%TO.P,R10,2*%
%TO.N,Net-(R10-Pad2)*%
X128500000Y-68325000D03*
%TD*%
D20*
%TO.P,TJ12,1*%
%TO.N,/FB*%
X108937500Y-85600000D03*
%TO.P,TJ12,2*%
%TO.N,GND*%
X107262500Y-85600000D03*
%TD*%
%TO.P,TJ9,1*%
%TO.N,/FB*%
X108937500Y-73600000D03*
%TO.P,TJ9,2*%
%TO.N,GND*%
X107262500Y-73600000D03*
%TD*%
D13*
%TO.P,R19,1*%
%TO.N,Net-(U1B-+)*%
X141750000Y-66825000D03*
%TO.P,R19,2*%
%TO.N,/Offset*%
X141750000Y-65175000D03*
%TD*%
D20*
%TO.P,TJ10,1*%
%TO.N,/FB*%
X108937500Y-77600000D03*
%TO.P,TJ10,2*%
%TO.N,GND*%
X107262500Y-77600000D03*
%TD*%
D18*
%TO.P,TJ17,1*%
%TO.N,/FB*%
X115900000Y-72437500D03*
%TO.P,TJ17,2*%
%TO.N,GND*%
X115900000Y-70762500D03*
%TD*%
D15*
%TO.P,TJ22,1*%
%TO.N,/FB*%
X126062500Y-83400000D03*
%TO.P,TJ22,2*%
%TO.N,GND*%
X127737500Y-83400000D03*
%TD*%
D18*
%TO.P,TJ15,1*%
%TO.N,/FB*%
X123900000Y-72437500D03*
%TO.P,TJ15,2*%
%TO.N,GND*%
X123900000Y-70762500D03*
%TD*%
D12*
%TO.P,TJ20,1*%
%TO.N,/FB*%
X119900000Y-86762500D03*
%TO.P,TJ20,2*%
%TO.N,GND*%
X119900000Y-88437500D03*
%TD*%
D21*
%TO.P,C3,1*%
%TO.N,+10V*%
X137275000Y-67500000D03*
%TO.P,C3,2*%
%TO.N,GND*%
X135725000Y-67500000D03*
%TD*%
D14*
%TO.P,R4,1*%
%TO.N,Net-(C9-Pad1)*%
X140250000Y-65175000D03*
%TO.P,R4,2*%
%TO.N,Net-(U1A--)*%
X140250000Y-66825000D03*
%TD*%
D15*
%TO.P,TJ23,1*%
%TO.N,/FB*%
X126062500Y-79400000D03*
%TO.P,TJ23,2*%
%TO.N,GND*%
X127737500Y-79400000D03*
%TD*%
D14*
%TO.P,R20,1*%
%TO.N,/FB*%
X143250000Y-65175000D03*
%TO.P,R20,2*%
%TO.N,Net-(U1B-+)*%
X143250000Y-66825000D03*
%TD*%
D20*
%TO.P,TJ11,1*%
%TO.N,/FB*%
X108937500Y-81600000D03*
%TO.P,TJ11,2*%
%TO.N,GND*%
X107262500Y-81600000D03*
%TD*%
D18*
%TO.P,TJ18,1*%
%TO.N,/FB*%
X111900000Y-72437500D03*
%TO.P,TJ18,2*%
%TO.N,GND*%
X111900000Y-70762500D03*
%TD*%
D14*
%TO.P,R12,1*%
%TO.N,Net-(U1A-+)*%
X132750000Y-65175000D03*
%TO.P,R12,2*%
%TO.N,Net-(U1C--)*%
X132750000Y-66825000D03*
%TD*%
D13*
%TO.P,R11,1*%
%TO.N,Net-(R11-Pad1)*%
X128500000Y-65325000D03*
%TO.P,R11,2*%
%TO.N,/Offset*%
X128500000Y-63675000D03*
%TD*%
D22*
%TO.N,GND*%
X109750000Y-92500000D03*
X143000000Y-76500000D03*
X103750000Y-63250000D03*
X113500000Y-88500000D03*
X106250000Y-82500000D03*
X114500000Y-88500000D03*
X127750000Y-82500000D03*
X137000000Y-78500000D03*
X112500000Y-88500000D03*
X141000000Y-74500000D03*
X107250000Y-79000000D03*
X137000000Y-74500000D03*
X114000000Y-69750000D03*
X112500000Y-70750000D03*
X113500000Y-70750000D03*
X140000000Y-83500000D03*
X141000000Y-80500000D03*
X106250000Y-84500000D03*
X107250000Y-84000000D03*
X127750000Y-77500000D03*
X115000000Y-69750000D03*
X145000000Y-84500000D03*
X137000000Y-82500000D03*
X115000000Y-89500000D03*
X128750000Y-79000000D03*
X137000000Y-84500000D03*
X128750000Y-80000000D03*
X116500000Y-88500000D03*
X140000000Y-81500000D03*
X143000000Y-74500000D03*
X139000000Y-84500000D03*
X116000000Y-89500000D03*
X107250000Y-83000000D03*
X142000000Y-83500000D03*
X144000000Y-77500000D03*
X107250000Y-81000000D03*
X112000000Y-69750000D03*
X119000000Y-89500000D03*
X139000000Y-82500000D03*
X145000000Y-74500000D03*
X146500000Y-92500000D03*
X143000000Y-84500000D03*
X140000000Y-75500000D03*
X138000000Y-75500000D03*
X137000000Y-80500000D03*
X141000000Y-78500000D03*
X106250000Y-79500000D03*
X115500000Y-88500000D03*
X106250000Y-81500000D03*
X118000000Y-69750000D03*
X144000000Y-81500000D03*
X113000000Y-69750000D03*
X138000000Y-77500000D03*
X120000000Y-89500000D03*
X141000000Y-82500000D03*
X141000000Y-76500000D03*
X107250000Y-78000000D03*
X127750000Y-80500000D03*
X145000000Y-76500000D03*
X142000000Y-75500000D03*
X106250000Y-80500000D03*
X126750000Y-66750000D03*
X111500000Y-70750000D03*
X116500000Y-70750000D03*
X117500000Y-88500000D03*
X137000000Y-76500000D03*
X113000000Y-89500000D03*
X114500000Y-70750000D03*
X140000000Y-77500000D03*
X104250000Y-92500000D03*
X143000000Y-80500000D03*
X128750000Y-81000000D03*
X127750000Y-81500000D03*
X118000000Y-89500000D03*
X139000000Y-80500000D03*
X107250000Y-80000000D03*
X144000000Y-83500000D03*
X114000000Y-89500000D03*
X142000000Y-79500000D03*
X115500000Y-70750000D03*
X119000000Y-69750000D03*
X145000000Y-80500000D03*
X135725000Y-67500000D03*
X127750000Y-78500000D03*
X117000000Y-69750000D03*
X106250000Y-78500000D03*
X143000000Y-78500000D03*
X138000000Y-83500000D03*
X117000000Y-89500000D03*
X145000000Y-78500000D03*
X139000000Y-74500000D03*
X120000000Y-69750000D03*
X138000000Y-79500000D03*
X142000000Y-77500000D03*
X127750000Y-79500000D03*
X120500000Y-88500000D03*
X119500000Y-88500000D03*
X128750000Y-82000000D03*
X144000000Y-75500000D03*
X107250000Y-85000000D03*
X128750000Y-78000000D03*
X118500000Y-88500000D03*
X142000000Y-81500000D03*
X117500000Y-70750000D03*
X106250000Y-83500000D03*
X107250000Y-82000000D03*
X136500000Y-64000000D03*
X139000000Y-76500000D03*
X143000000Y-82500000D03*
X140000000Y-79500000D03*
X138000000Y-81500000D03*
X120500000Y-70750000D03*
X139000000Y-78500000D03*
X122000000Y-69750000D03*
X145000000Y-82500000D03*
X116000000Y-69750000D03*
X119500000Y-70750000D03*
X121000000Y-69750000D03*
X118500000Y-70750000D03*
X141000000Y-84500000D03*
X111000000Y-69750000D03*
X121500000Y-70750000D03*
X144000000Y-79500000D03*
%TO.N,/Offset*%
X128500000Y-63675000D03*
%TO.N,+10V*%
X137275000Y-67500000D03*
%TO.N,Net-(C4-Pad1)*%
X141250000Y-69825000D03*
%TO.N,Net-(U1D-+)*%
X139750000Y-69775000D03*
%TO.N,/I_SET*%
X127250000Y-61750000D03*
%TO.N,Net-(U1C--)*%
X135250000Y-66250000D03*
%TO.N,Net-(U1A-+)*%
X134250000Y-65225000D03*
%TO.N,Net-(U1A--)*%
X141250000Y-68175000D03*
%TO.N,Net-(U1B--)*%
X138000000Y-66250000D03*
%TO.N,Net-(C9-Pad1)*%
X138750000Y-65225000D03*
%TO.N,/FB*%
X124000000Y-85000000D03*
X122000000Y-86000000D03*
X123000000Y-79500000D03*
X118000000Y-73000000D03*
X121000000Y-72500000D03*
X116000000Y-77000000D03*
X116000000Y-80000000D03*
X120000000Y-79000000D03*
X125000000Y-79500000D03*
X121000000Y-84500000D03*
X116000000Y-76000000D03*
X114000000Y-85000000D03*
X115000000Y-76500000D03*
X115000000Y-75500000D03*
X118000000Y-77000000D03*
X121000000Y-82500000D03*
X120000000Y-76000000D03*
X118000000Y-78000000D03*
X125000000Y-80500000D03*
X121000000Y-86500000D03*
X119000000Y-73500000D03*
X114000000Y-73000000D03*
X117000000Y-76500000D03*
X118000000Y-86000000D03*
X117000000Y-74500000D03*
X115000000Y-84500000D03*
X122000000Y-85000000D03*
X123000000Y-78500000D03*
X124000000Y-84000000D03*
X118000000Y-76000000D03*
X122000000Y-82000000D03*
X126000000Y-86000000D03*
X117000000Y-79500000D03*
X124000000Y-82000000D03*
X118000000Y-81000000D03*
X124000000Y-80000000D03*
X114000000Y-84000000D03*
X119000000Y-80500000D03*
X125000000Y-82500000D03*
X114000000Y-80000000D03*
X120000000Y-82000000D03*
X116000000Y-74000000D03*
X112000000Y-72500000D03*
X116000000Y-85000000D03*
X123000000Y-81500000D03*
X118000000Y-74000000D03*
X116000000Y-78000000D03*
X118000000Y-82000000D03*
X114000000Y-83000000D03*
X117000000Y-80500000D03*
X122000000Y-81000000D03*
X114000000Y-79000000D03*
X115000000Y-85500000D03*
X114000000Y-77000000D03*
X122000000Y-83000000D03*
X121000000Y-78500000D03*
X119000000Y-83500000D03*
X121000000Y-85500000D03*
X125000000Y-83500000D03*
X114000000Y-74000000D03*
X115000000Y-72500000D03*
X121000000Y-81500000D03*
X126000000Y-84000000D03*
X115000000Y-73500000D03*
X114000000Y-86000000D03*
X123000000Y-86500000D03*
X120000000Y-84000000D03*
X120000000Y-80000000D03*
X120000000Y-85000000D03*
X123000000Y-84500000D03*
X115000000Y-82500000D03*
X116000000Y-73000000D03*
X125000000Y-81500000D03*
X115000000Y-77500000D03*
X120000000Y-83000000D03*
X120000000Y-86000000D03*
X118000000Y-79000000D03*
X115000000Y-80500000D03*
X115000000Y-81500000D03*
X117000000Y-78500000D03*
X124000000Y-78000000D03*
X113000000Y-73500000D03*
X122000000Y-78000000D03*
X121000000Y-79500000D03*
X122000000Y-79000000D03*
X117000000Y-75500000D03*
X118000000Y-75000000D03*
X119000000Y-78500000D03*
X119000000Y-82500000D03*
X126000000Y-78000000D03*
X119000000Y-79500000D03*
X126000000Y-81000000D03*
X116000000Y-84000000D03*
X120000000Y-75000000D03*
X117000000Y-81500000D03*
X126000000Y-85000000D03*
X117000000Y-72500000D03*
X114000000Y-75000000D03*
X116000000Y-79000000D03*
X122000000Y-84000000D03*
X119000000Y-85500000D03*
X125000000Y-84500000D03*
X123000000Y-83500000D03*
X142750000Y-69250000D03*
X121000000Y-83500000D03*
X117000000Y-77500000D03*
X119000000Y-74500000D03*
X116000000Y-75000000D03*
X115000000Y-79500000D03*
X116000000Y-81000000D03*
X117000000Y-84500000D03*
X121000000Y-80500000D03*
X118000000Y-80000000D03*
X114000000Y-76000000D03*
X122000000Y-80000000D03*
X118000000Y-84000000D03*
X116000000Y-83000000D03*
X117000000Y-83500000D03*
X123000000Y-82500000D03*
X115000000Y-78500000D03*
X116000000Y-82000000D03*
X126000000Y-80000000D03*
X118000000Y-83000000D03*
X114000000Y-82000000D03*
X126000000Y-83000000D03*
X113000000Y-72500000D03*
X119000000Y-86500000D03*
X118000000Y-85000000D03*
X120000000Y-78000000D03*
X124000000Y-81000000D03*
X116000000Y-86000000D03*
X119000000Y-81500000D03*
X117000000Y-82500000D03*
X117000000Y-86500000D03*
X111000000Y-72500000D03*
X115000000Y-74500000D03*
X119000000Y-76500000D03*
X115000000Y-83500000D03*
X126000000Y-82000000D03*
X119000000Y-84500000D03*
X121000000Y-73500000D03*
X117000000Y-73500000D03*
X125000000Y-86500000D03*
X123000000Y-80500000D03*
X120000000Y-74000000D03*
X120000000Y-73000000D03*
X124000000Y-79000000D03*
X119000000Y-77500000D03*
X119000000Y-75500000D03*
X119000000Y-72500000D03*
X125000000Y-78500000D03*
X124000000Y-86000000D03*
X123000000Y-85500000D03*
X124000000Y-83000000D03*
X120000000Y-81000000D03*
X114000000Y-81000000D03*
X114000000Y-78000000D03*
X120000000Y-77000000D03*
X115000000Y-86500000D03*
X117000000Y-85500000D03*
X126000000Y-79000000D03*
X125000000Y-85500000D03*
%TO.N,Net-(R10-Pad2)*%
X128500000Y-68325000D03*
%TO.N,Net-(R11-Pad1)*%
X128500000Y-65325000D03*
%TO.N,Net-(U1B-+)*%
X141750000Y-66825000D03*
%TO.N,Net-(R14-Pad2)*%
X140825000Y-63250000D03*
%TO.N,Net-(R15-Pad1)*%
X140825000Y-60750000D03*
%TD*%
D23*
%TO.N,GND*%
X134750000Y-64000000D02*
X132000000Y-64000000D01*
X135725000Y-67500000D02*
X135725000Y-67275000D01*
X135725000Y-67275000D02*
X136250000Y-66750000D01*
X136250000Y-65500000D02*
X134750000Y-64000000D01*
X131250000Y-64750000D02*
X131250000Y-65175000D01*
X136250000Y-66750000D02*
X136250000Y-65500000D01*
X132000000Y-64000000D02*
X131250000Y-64750000D01*
%TO.N,/Offset*%
X141248418Y-62449000D02*
X141750000Y-62950582D01*
X128500000Y-63675000D02*
X129726000Y-62449000D01*
X141750000Y-62950582D02*
X141750000Y-65175000D01*
X129726000Y-62449000D02*
X141248418Y-62449000D01*
%TO.N,Net-(U1D-+)*%
X139725000Y-69800000D02*
X139750000Y-69775000D01*
%TO.N,/I_SET*%
X127250000Y-65425000D02*
X127250000Y-61750000D01*
X128500000Y-66675000D02*
X127250000Y-65425000D01*
%TO.N,Net-(U1C--)*%
X134250000Y-66775000D02*
X134725000Y-66775000D01*
X134250000Y-66775000D02*
X132800000Y-66775000D01*
X131250000Y-66825000D02*
X132750000Y-66825000D01*
X134725000Y-66775000D02*
X135250000Y-66250000D01*
X132800000Y-66775000D02*
X132750000Y-66825000D01*
%TO.N,Net-(U1A-+)*%
X132750000Y-65175000D02*
X134200000Y-65175000D01*
X134200000Y-65175000D02*
X134250000Y-65225000D01*
%TO.N,Net-(U1A--)*%
X140250000Y-66825000D02*
X140250000Y-67725000D01*
X139750000Y-68225000D02*
X141200000Y-68225000D01*
X140250000Y-67725000D02*
X139750000Y-68225000D01*
X141200000Y-68225000D02*
X141250000Y-68175000D01*
%TO.N,Net-(U1B--)*%
X138225000Y-66250000D02*
X138750000Y-66775000D01*
X138000000Y-66250000D02*
X138225000Y-66250000D01*
%TO.N,Net-(C9-Pad1)*%
X138800000Y-65175000D02*
X138750000Y-65225000D01*
X138750000Y-65225000D02*
X138750000Y-63675000D01*
X138750000Y-63675000D02*
X139175000Y-63250000D01*
X140250000Y-65175000D02*
X138800000Y-65175000D01*
%TO.N,/FB*%
X144000000Y-68500000D02*
X144051000Y-68500000D01*
X126449000Y-72051000D02*
X127750000Y-70750000D01*
X125600000Y-72437500D02*
X125986500Y-72051000D01*
X125986500Y-72051000D02*
X126449000Y-72051000D01*
X143250000Y-69250000D02*
X144000000Y-68500000D01*
X123900000Y-72437500D02*
X125600000Y-72437500D01*
X144051000Y-65976000D02*
X143250000Y-65175000D01*
X144051000Y-68500000D02*
X144051000Y-65976000D01*
X143250000Y-69250000D02*
X142750000Y-69250000D01*
X141750000Y-70750000D02*
X143250000Y-69250000D01*
X127750000Y-70750000D02*
X141750000Y-70750000D01*
%TO.N,Net-(U1B-+)*%
X143250000Y-66825000D02*
X141750000Y-66825000D01*
%TD*%
%TA.AperFunction,Conductor*%
%TO.N,GND*%
G36*
X151784146Y-57519454D02*
G01*
X151864928Y-57573430D01*
X151918904Y-57654212D01*
X151937858Y-57749500D01*
X151918904Y-57844788D01*
X151864928Y-57925570D01*
X151784146Y-57979546D01*
X151744268Y-57992256D01*
X151690750Y-58004471D01*
X151640318Y-58015982D01*
X151311626Y-58130995D01*
X150997880Y-58282087D01*
X150997856Y-58282100D01*
X150703003Y-58467369D01*
X150430740Y-58684491D01*
X150184491Y-58930740D01*
X149967369Y-59203003D01*
X149782100Y-59497856D01*
X149782087Y-59497880D01*
X149630995Y-59811626D01*
X149515982Y-60140318D01*
X149438491Y-60479827D01*
X149399500Y-60825867D01*
X149399500Y-61174132D01*
X149438491Y-61520172D01*
X149515982Y-61859681D01*
X149630995Y-62188373D01*
X149778066Y-62493770D01*
X149782094Y-62502133D01*
X149782098Y-62502139D01*
X149782100Y-62502143D01*
X149967369Y-62796996D01*
X150040092Y-62888188D01*
X150184494Y-63069263D01*
X150430737Y-63315506D01*
X150703003Y-63532630D01*
X150997867Y-63717906D01*
X151311621Y-63869002D01*
X151311624Y-63869003D01*
X151311626Y-63869004D01*
X151377455Y-63892038D01*
X151640319Y-63984018D01*
X151979829Y-64061509D01*
X152196106Y-64085877D01*
X152325867Y-64100499D01*
X152325880Y-64100500D01*
X152674120Y-64100500D01*
X152674132Y-64100499D01*
X152772434Y-64089422D01*
X153020171Y-64061509D01*
X153359681Y-63984018D01*
X153688379Y-63869002D01*
X154002133Y-63717906D01*
X154296997Y-63532630D01*
X154569263Y-63315506D01*
X154815506Y-63069263D01*
X155032630Y-62796997D01*
X155217906Y-62502133D01*
X155369002Y-62188379D01*
X155484018Y-61859681D01*
X155507743Y-61755732D01*
X155547426Y-61667052D01*
X155618024Y-61600307D01*
X155708791Y-61565660D01*
X155805908Y-61568385D01*
X155894590Y-61608068D01*
X155961335Y-61678666D01*
X155995982Y-61769433D01*
X155999500Y-61811142D01*
X155999500Y-92188857D01*
X155980546Y-92284145D01*
X155926570Y-92364927D01*
X155845788Y-92418903D01*
X155750500Y-92437857D01*
X155655212Y-92418903D01*
X155574430Y-92364927D01*
X155520454Y-92284145D01*
X155507743Y-92244266D01*
X155495096Y-92188857D01*
X155484018Y-92140319D01*
X155369002Y-91811621D01*
X155217906Y-91497867D01*
X155032630Y-91203003D01*
X154815506Y-90930737D01*
X154569263Y-90684494D01*
X154296997Y-90467370D01*
X154296998Y-90467370D01*
X154296996Y-90467369D01*
X154002143Y-90282100D01*
X154002139Y-90282098D01*
X154002133Y-90282094D01*
X154002123Y-90282089D01*
X154002119Y-90282087D01*
X153688373Y-90130995D01*
X153451659Y-90048166D01*
X153359681Y-90015982D01*
X153359683Y-90015982D01*
X153020172Y-89938491D01*
X152674132Y-89899500D01*
X152674120Y-89899500D01*
X152325880Y-89899500D01*
X152325867Y-89899500D01*
X151979827Y-89938491D01*
X151640318Y-90015982D01*
X151311626Y-90130995D01*
X150997880Y-90282087D01*
X150997856Y-90282100D01*
X150703003Y-90467369D01*
X150430740Y-90684491D01*
X150184491Y-90930740D01*
X149967369Y-91203003D01*
X149782100Y-91497856D01*
X149782087Y-91497880D01*
X149630995Y-91811626D01*
X149515982Y-92140318D01*
X149438491Y-92479827D01*
X149399500Y-92825867D01*
X149399500Y-93174132D01*
X149438491Y-93520175D01*
X149446575Y-93555593D01*
X149449300Y-93652710D01*
X149414652Y-93743477D01*
X149347906Y-93814075D01*
X149259225Y-93853757D01*
X149203818Y-93860000D01*
X145430000Y-93860000D01*
X145430000Y-93860001D01*
X145430000Y-96250500D01*
X145411046Y-96345788D01*
X145357070Y-96426570D01*
X145276288Y-96480546D01*
X145181000Y-96499500D01*
X96311142Y-96499500D01*
X96215854Y-96480546D01*
X96135072Y-96426570D01*
X96081096Y-96345788D01*
X96062142Y-96250500D01*
X96081096Y-96155212D01*
X96135072Y-96074430D01*
X96215854Y-96020454D01*
X96255731Y-96007743D01*
X96359681Y-95984018D01*
X96688379Y-95869002D01*
X97002133Y-95717906D01*
X97296997Y-95532630D01*
X97569263Y-95315506D01*
X97815506Y-95069263D01*
X98032630Y-94796997D01*
X98217906Y-94502133D01*
X98369002Y-94188379D01*
X98484018Y-93859681D01*
X98561509Y-93520171D01*
X98600500Y-93174120D01*
X98600500Y-92825880D01*
X98561509Y-92479829D01*
X98484018Y-92140319D01*
X98369002Y-91811621D01*
X98217906Y-91497867D01*
X98032630Y-91203003D01*
X97815506Y-90930737D01*
X97569263Y-90684494D01*
X97296997Y-90467370D01*
X97296998Y-90467370D01*
X97296996Y-90467369D01*
X97002143Y-90282100D01*
X97002139Y-90282098D01*
X97002133Y-90282094D01*
X97002123Y-90282089D01*
X97002119Y-90282087D01*
X96688373Y-90130995D01*
X96451659Y-90048166D01*
X96359681Y-90015982D01*
X96359683Y-90015982D01*
X96020172Y-89938491D01*
X95674132Y-89899500D01*
X95674120Y-89899500D01*
X95325880Y-89899500D01*
X95325867Y-89899500D01*
X94979827Y-89938491D01*
X94640318Y-90015982D01*
X94311626Y-90130995D01*
X93997880Y-90282087D01*
X93997856Y-90282100D01*
X93703003Y-90467369D01*
X93430740Y-90684491D01*
X93184491Y-90930740D01*
X92967369Y-91203003D01*
X92782100Y-91497856D01*
X92782087Y-91497880D01*
X92630995Y-91811626D01*
X92515983Y-92140316D01*
X92515983Y-92140318D01*
X92492257Y-92244266D01*
X92452574Y-92332947D01*
X92381975Y-92399692D01*
X92291208Y-92434339D01*
X92194091Y-92431614D01*
X92105410Y-92391931D01*
X92038665Y-92321332D01*
X92004018Y-92230565D01*
X92000500Y-92188857D01*
X92000500Y-71974000D01*
X107836500Y-71974000D01*
X107836500Y-72009940D01*
X107837165Y-72036066D01*
X107837807Y-72048668D01*
X107839800Y-72074726D01*
X107841044Y-72086906D01*
X107841339Y-72095097D01*
X107841114Y-72096484D01*
X107841500Y-72104052D01*
X107841500Y-75095942D01*
X107840216Y-75121197D01*
X107839804Y-75125237D01*
X107839801Y-75125268D01*
X107838358Y-75144127D01*
X107837805Y-75151358D01*
X107837163Y-75163952D01*
X107836500Y-75190043D01*
X107836500Y-76009957D01*
X107837163Y-76036047D01*
X107837807Y-76048664D01*
X107839800Y-76074727D01*
X107840211Y-76078749D01*
X107841500Y-76104052D01*
X107841500Y-79095942D01*
X107840216Y-79121197D01*
X107839804Y-79125237D01*
X107839801Y-79125268D01*
X107838358Y-79144127D01*
X107837805Y-79151358D01*
X107837163Y-79163952D01*
X107836500Y-79190043D01*
X107836500Y-80009957D01*
X107837163Y-80036047D01*
X107837807Y-80048664D01*
X107839800Y-80074727D01*
X107840211Y-80078749D01*
X107841500Y-80104052D01*
X107841500Y-83095942D01*
X107840216Y-83121197D01*
X107839804Y-83125237D01*
X107839801Y-83125268D01*
X107838358Y-83144127D01*
X107837805Y-83151358D01*
X107837163Y-83163952D01*
X107836500Y-83190043D01*
X107836500Y-84009957D01*
X107837163Y-84036047D01*
X107837807Y-84048664D01*
X107839800Y-84074727D01*
X107840211Y-84078749D01*
X107841500Y-84104052D01*
X107841500Y-87082872D01*
X107841500Y-87082881D01*
X107841501Y-87100544D01*
X107841913Y-87104584D01*
X107839801Y-87125268D01*
X107837807Y-87151335D01*
X107837165Y-87163938D01*
X107836500Y-87190062D01*
X107836500Y-87276000D01*
X107841727Y-87349080D01*
X107846750Y-87384015D01*
X107862321Y-87455595D01*
X107874929Y-87483206D01*
X107887683Y-87521523D01*
X107887684Y-87521525D01*
X107894106Y-87540818D01*
X107894332Y-87541291D01*
X107921678Y-87585578D01*
X107923034Y-87588546D01*
X107926929Y-87594607D01*
X107927161Y-87594457D01*
X107935262Y-87607576D01*
X107958770Y-87644155D01*
X107962433Y-87650053D01*
X107964573Y-87653186D01*
X107966378Y-87655994D01*
X108009436Y-87705684D01*
X108009442Y-87705691D01*
X108048739Y-87751043D01*
X108056536Y-87757799D01*
X108079898Y-87772812D01*
X108108341Y-87794103D01*
X108125609Y-87809065D01*
X108129339Y-87812297D01*
X108129825Y-87812609D01*
X108130781Y-87813062D01*
X108174613Y-87834586D01*
X108178103Y-87836180D01*
X108178107Y-87836182D01*
X108221263Y-87855890D01*
X108243040Y-87865835D01*
X108243068Y-87865848D01*
X108243069Y-87865848D01*
X108250796Y-87869375D01*
X108250822Y-87869386D01*
X108252395Y-87870104D01*
X108253672Y-87870479D01*
X108253775Y-87870513D01*
X108262280Y-87873010D01*
X108262286Y-87873013D01*
X108287637Y-87880457D01*
X108287637Y-87880456D01*
X108320615Y-87890139D01*
X108320615Y-87890140D01*
X108329301Y-87892691D01*
X108329330Y-87892700D01*
X108329335Y-87892700D01*
X108336951Y-87894937D01*
X108373083Y-87905546D01*
X108383306Y-87907016D01*
X108383307Y-87907015D01*
X108383308Y-87907016D01*
X108411060Y-87907013D01*
X108446521Y-87909548D01*
X108459167Y-87911367D01*
X108473991Y-87913499D01*
X108473995Y-87913499D01*
X108474000Y-87913500D01*
X108474004Y-87913500D01*
X110131048Y-87913500D01*
X110131049Y-87913500D01*
X110212857Y-87906941D01*
X110251859Y-87900647D01*
X110331569Y-87881142D01*
X110361751Y-87871139D01*
X110440080Y-87858499D01*
X113359917Y-87858499D01*
X113438238Y-87871137D01*
X113468430Y-87881142D01*
X113496989Y-87888130D01*
X113548116Y-87900642D01*
X113548121Y-87900643D01*
X113548142Y-87900648D01*
X113587145Y-87906942D01*
X113659861Y-87912771D01*
X113668950Y-87913500D01*
X113668951Y-87913500D01*
X114131048Y-87913500D01*
X114131049Y-87913500D01*
X114212857Y-87906941D01*
X114251859Y-87900647D01*
X114331569Y-87881142D01*
X114361751Y-87871139D01*
X114440080Y-87858499D01*
X117359917Y-87858499D01*
X117438238Y-87871137D01*
X117468430Y-87881142D01*
X117496989Y-87888130D01*
X117548116Y-87900642D01*
X117548121Y-87900643D01*
X117548142Y-87900648D01*
X117587145Y-87906942D01*
X117659861Y-87912771D01*
X117668950Y-87913500D01*
X117668951Y-87913500D01*
X118131048Y-87913500D01*
X118131049Y-87913500D01*
X118212857Y-87906941D01*
X118251859Y-87900647D01*
X118331569Y-87881142D01*
X118361751Y-87871139D01*
X118440080Y-87858499D01*
X121359917Y-87858499D01*
X121438238Y-87871137D01*
X121468430Y-87881142D01*
X121496989Y-87888130D01*
X121548116Y-87900642D01*
X121548121Y-87900643D01*
X121548142Y-87900648D01*
X121587145Y-87906942D01*
X121659861Y-87912771D01*
X121668950Y-87913500D01*
X121668951Y-87913500D01*
X122131048Y-87913500D01*
X122131049Y-87913500D01*
X122212857Y-87906941D01*
X122251859Y-87900647D01*
X122331569Y-87881142D01*
X122361751Y-87871139D01*
X122440080Y-87858499D01*
X125359917Y-87858499D01*
X125438238Y-87871137D01*
X125468430Y-87881142D01*
X125496989Y-87888130D01*
X125548116Y-87900642D01*
X125548121Y-87900643D01*
X125548142Y-87900648D01*
X125587145Y-87906942D01*
X125659861Y-87912771D01*
X125668950Y-87913500D01*
X125668951Y-87913500D01*
X126525998Y-87913500D01*
X126526000Y-87913500D01*
X126635157Y-87901764D01*
X126635162Y-87901763D01*
X126635163Y-87901763D01*
X126686661Y-87890560D01*
X126686664Y-87890559D01*
X126686665Y-87890558D01*
X126686668Y-87890558D01*
X126790827Y-87855890D01*
X126913782Y-87776871D01*
X126966586Y-87731116D01*
X127062297Y-87620661D01*
X127123014Y-87487713D01*
X127142699Y-87420674D01*
X127142700Y-87420670D01*
X127163500Y-87276000D01*
X127163500Y-84990058D01*
X127162835Y-84963932D01*
X127162193Y-84951330D01*
X127160199Y-84925269D01*
X127159790Y-84921274D01*
X127158499Y-84895975D01*
X127158499Y-81904047D01*
X127159789Y-81878733D01*
X127160198Y-81874734D01*
X127162193Y-81848663D01*
X127162835Y-81836060D01*
X127163500Y-81809936D01*
X127163500Y-80990058D01*
X127162835Y-80963932D01*
X127162193Y-80951330D01*
X127160199Y-80925269D01*
X127159790Y-80921274D01*
X127158499Y-80895975D01*
X127158499Y-77904047D01*
X127159789Y-77878733D01*
X127160198Y-77874734D01*
X127162193Y-77848663D01*
X127162835Y-77836060D01*
X127163500Y-77809936D01*
X127163500Y-76990058D01*
X127162835Y-76963932D01*
X127162193Y-76951330D01*
X127160199Y-76925269D01*
X127159790Y-76921274D01*
X127158499Y-76895975D01*
X127158499Y-73904047D01*
X127159789Y-73878733D01*
X127160198Y-73874734D01*
X127162193Y-73848663D01*
X127162835Y-73836060D01*
X127163500Y-73809936D01*
X127163500Y-72335544D01*
X127182454Y-72240256D01*
X127236430Y-72159474D01*
X127939474Y-71456430D01*
X128020256Y-71402454D01*
X128115544Y-71383500D01*
X141812391Y-71383500D01*
X141812394Y-71383500D01*
X141934785Y-71359155D01*
X142050075Y-71311400D01*
X142153833Y-71242071D01*
X143291069Y-70104834D01*
X143321331Y-70078906D01*
X143352021Y-70043882D01*
X143551368Y-69844535D01*
X143742072Y-69653833D01*
X144168891Y-69227012D01*
X144289360Y-69106542D01*
X144340957Y-69068279D01*
X144340903Y-69068197D01*
X144342577Y-69067078D01*
X144348070Y-69063005D01*
X144351060Y-69061405D01*
X144351075Y-69061400D01*
X144454833Y-68992071D01*
X144543071Y-68903833D01*
X144612400Y-68800075D01*
X144660155Y-68684785D01*
X144684500Y-68562394D01*
X144684500Y-65913606D01*
X144660155Y-65791215D01*
X144612400Y-65675925D01*
X144543071Y-65572167D01*
X144515223Y-65544319D01*
X144454833Y-65483928D01*
X144454833Y-65483929D01*
X144412398Y-65441494D01*
X144393958Y-65420881D01*
X144387526Y-65412833D01*
X144386727Y-65411479D01*
X144303477Y-65307670D01*
X144303377Y-65307476D01*
X144284370Y-65280152D01*
X144273492Y-65261989D01*
X144261210Y-65238789D01*
X144257537Y-65230867D01*
X144234651Y-65136446D01*
X144234771Y-65113225D01*
X144236181Y-65086092D01*
X144236078Y-65082384D01*
X144236076Y-65082375D01*
X144235297Y-65074133D01*
X144235729Y-65074092D01*
X144233499Y-65046418D01*
X144233499Y-64917746D01*
X144233499Y-64917736D01*
X144227013Y-64846351D01*
X144175827Y-64682087D01*
X144086816Y-64534845D01*
X143965155Y-64413184D01*
X143817913Y-64324173D01*
X143653649Y-64272987D01*
X143653641Y-64272985D01*
X143582269Y-64266500D01*
X142917731Y-64266500D01*
X142846350Y-64272986D01*
X142706577Y-64316541D01*
X142609964Y-64326793D01*
X142516782Y-64299293D01*
X142441218Y-64238227D01*
X142394774Y-64152892D01*
X142383500Y-64078815D01*
X142383500Y-62888190D01*
X142383500Y-62888188D01*
X142359155Y-62765797D01*
X142311400Y-62650507D01*
X142242071Y-62546749D01*
X142199179Y-62503857D01*
X142153834Y-62458511D01*
X141652251Y-61956929D01*
X141570501Y-61902305D01*
X141501803Y-61833607D01*
X141464623Y-61743847D01*
X141464623Y-61646692D01*
X141501803Y-61556933D01*
X141532766Y-61519204D01*
X141586816Y-61465155D01*
X141675827Y-61317913D01*
X141727013Y-61153649D01*
X141733500Y-61082265D01*
X141733500Y-60803504D01*
X141733500Y-60660521D01*
X141733500Y-60660519D01*
X141733500Y-60645261D01*
X141733499Y-60645243D01*
X141733499Y-60417746D01*
X141733499Y-60417736D01*
X141727013Y-60346351D01*
X141675827Y-60182087D01*
X141586816Y-60034845D01*
X141465155Y-59913184D01*
X141317913Y-59824173D01*
X141153649Y-59772987D01*
X141153641Y-59772985D01*
X141082269Y-59766500D01*
X140567731Y-59766500D01*
X140496352Y-59772986D01*
X140332085Y-59824173D01*
X140184846Y-59913183D01*
X140063183Y-60034846D01*
X139974173Y-60182086D01*
X139922987Y-60346350D01*
X139922985Y-60346358D01*
X139916500Y-60417720D01*
X139916500Y-61082268D01*
X139922986Y-61153647D01*
X139974174Y-61317915D01*
X139974175Y-61317917D01*
X140046576Y-61437683D01*
X140079652Y-61529034D01*
X140075252Y-61626089D01*
X140034045Y-61714073D01*
X139962304Y-61779589D01*
X139870953Y-61812665D01*
X139833487Y-61815500D01*
X129788394Y-61815500D01*
X129663606Y-61815500D01*
X129541215Y-61839845D01*
X129541213Y-61839845D01*
X129541212Y-61839846D01*
X129425929Y-61887597D01*
X129425924Y-61887600D01*
X129322168Y-61956928D01*
X129322166Y-61956929D01*
X128764075Y-62515019D01*
X128745368Y-62531921D01*
X128735367Y-62540075D01*
X128731758Y-62542264D01*
X128606879Y-62644853D01*
X128606405Y-62645240D01*
X128606060Y-62645422D01*
X128582411Y-62662539D01*
X128545540Y-62685925D01*
X128470152Y-62717810D01*
X128418355Y-62730211D01*
X128347513Y-62747173D01*
X128347504Y-62747175D01*
X128347502Y-62747176D01*
X128312290Y-62757123D01*
X128244601Y-62766500D01*
X128171494Y-62766500D01*
X128076206Y-62747546D01*
X127995424Y-62693570D01*
X127941448Y-62612788D01*
X127922494Y-62517500D01*
X127941448Y-62422212D01*
X127959259Y-62387282D01*
X128013891Y-62298254D01*
X128034147Y-62262040D01*
X128035002Y-62260355D01*
X128052283Y-62222585D01*
X128087657Y-62136198D01*
X128099470Y-62104391D01*
X128099961Y-62102922D01*
X128109683Y-62070272D01*
X128135911Y-61970154D01*
X128139342Y-61956270D01*
X128139494Y-61955616D01*
X128150670Y-61886361D01*
X128150669Y-61886359D01*
X128152767Y-61873365D01*
X128152831Y-61873375D01*
X128154688Y-61858639D01*
X128158500Y-61839479D01*
X128158500Y-61660521D01*
X128123587Y-61485000D01*
X128055102Y-61319664D01*
X127955678Y-61170865D01*
X127829135Y-61044322D01*
X127762802Y-61000000D01*
X127680336Y-60944898D01*
X127680331Y-60944895D01*
X127515001Y-60876413D01*
X127456493Y-60864775D01*
X127339479Y-60841500D01*
X127160521Y-60841500D01*
X127072760Y-60858956D01*
X126984998Y-60876413D01*
X126819668Y-60944895D01*
X126819663Y-60944898D01*
X126670868Y-61044319D01*
X126544319Y-61170868D01*
X126444898Y-61319663D01*
X126444895Y-61319668D01*
X126376413Y-61484998D01*
X126341500Y-61660522D01*
X126341500Y-61839480D01*
X126356034Y-61912550D01*
X126359529Y-61935825D01*
X126362432Y-61964249D01*
X126362434Y-61964261D01*
X126382601Y-62045067D01*
X126389998Y-62071645D01*
X126390359Y-62072819D01*
X126398903Y-62098223D01*
X126426212Y-62172907D01*
X126441465Y-62210048D01*
X126442230Y-62211722D01*
X126460449Y-62247760D01*
X126530664Y-62374046D01*
X126543054Y-62395134D01*
X126543611Y-62396032D01*
X126543621Y-62396047D01*
X126556674Y-62416045D01*
X126556682Y-62416056D01*
X126568017Y-62432571D01*
X126573612Y-62445618D01*
X126582593Y-62456613D01*
X126591389Y-62487067D01*
X126606312Y-62521860D01*
X126610578Y-62549650D01*
X126610842Y-62552406D01*
X126612097Y-62569357D01*
X126615197Y-62597704D01*
X126615357Y-62599363D01*
X126615255Y-62600367D01*
X126616500Y-62623190D01*
X126616500Y-65362606D01*
X126616500Y-65487394D01*
X126640845Y-65609785D01*
X126640846Y-65609787D01*
X126688597Y-65725070D01*
X126688600Y-65725075D01*
X126751802Y-65819664D01*
X126757928Y-65828831D01*
X126757929Y-65828833D01*
X127337603Y-66408508D01*
X127356043Y-66429120D01*
X127362471Y-66437163D01*
X127363272Y-66438520D01*
X127446514Y-66542319D01*
X127446614Y-66542512D01*
X127465620Y-66569834D01*
X127476508Y-66588013D01*
X127488801Y-66611235D01*
X127492470Y-66619150D01*
X127515348Y-66713573D01*
X127515227Y-66736760D01*
X127513818Y-66763929D01*
X127513818Y-66763938D01*
X127513921Y-66767622D01*
X127514703Y-66775886D01*
X127514270Y-66775926D01*
X127516500Y-66803593D01*
X127516500Y-66932268D01*
X127522986Y-67003647D01*
X127574173Y-67167914D01*
X127663185Y-67315157D01*
X127671963Y-67323935D01*
X127725937Y-67404718D01*
X127744889Y-67500006D01*
X127725933Y-67595294D01*
X127671963Y-67676065D01*
X127663185Y-67684842D01*
X127574173Y-67832086D01*
X127522987Y-67996350D01*
X127522985Y-67996358D01*
X127516500Y-68067720D01*
X127516500Y-68582268D01*
X127522986Y-68653647D01*
X127574173Y-68817914D01*
X127628657Y-68908040D01*
X127663184Y-68965155D01*
X127784845Y-69086816D01*
X127932087Y-69175827D01*
X128096351Y-69227013D01*
X128167735Y-69233500D01*
X128410519Y-69233499D01*
X128410521Y-69233500D01*
X128589479Y-69233500D01*
X128589482Y-69233499D01*
X128832264Y-69233499D01*
X128903649Y-69227013D01*
X129067913Y-69175827D01*
X129215155Y-69086816D01*
X129336816Y-68965155D01*
X129425827Y-68817913D01*
X129477013Y-68653649D01*
X129481949Y-68599338D01*
X129483499Y-68582279D01*
X129483499Y-68582276D01*
X129483500Y-68582265D01*
X129483499Y-68067736D01*
X129477013Y-67996351D01*
X129425827Y-67832087D01*
X129336816Y-67684845D01*
X129328037Y-67676066D01*
X129274064Y-67595288D01*
X129255110Y-67500000D01*
X129274064Y-67404712D01*
X129328037Y-67323933D01*
X129336816Y-67315155D01*
X129425827Y-67167913D01*
X129477013Y-67003649D01*
X129481373Y-66955678D01*
X129483499Y-66932279D01*
X129483499Y-66932276D01*
X129483500Y-66932265D01*
X129483499Y-66417736D01*
X129477013Y-66346351D01*
X129425827Y-66182087D01*
X129393624Y-66128817D01*
X129360548Y-66037468D01*
X129364948Y-65940413D01*
X129393625Y-65871181D01*
X129425827Y-65817913D01*
X129477013Y-65653649D01*
X129483500Y-65582265D01*
X129483499Y-65067736D01*
X129483386Y-65066494D01*
X129477013Y-64996352D01*
X129452516Y-64917736D01*
X129425827Y-64832087D01*
X129336816Y-64684845D01*
X129328037Y-64676066D01*
X129274064Y-64595288D01*
X129255110Y-64500000D01*
X129274064Y-64404712D01*
X129328037Y-64323933D01*
X129336816Y-64315155D01*
X129425827Y-64167913D01*
X129477013Y-64003649D01*
X129483500Y-63932265D01*
X129483499Y-63767441D01*
X129484128Y-63749755D01*
X129484220Y-63748454D01*
X129486610Y-63719182D01*
X129486468Y-63716884D01*
X129487200Y-63706617D01*
X129498066Y-63666958D01*
X129506494Y-63626709D01*
X129507617Y-63624114D01*
X129511690Y-63614847D01*
X129532212Y-63577296D01*
X129577215Y-63509536D01*
X129598037Y-63482430D01*
X129620185Y-63457369D01*
X129642203Y-63430450D01*
X129658851Y-63412051D01*
X129915474Y-63155430D01*
X129996256Y-63101454D01*
X130091543Y-63082500D01*
X137937071Y-63082500D01*
X138032359Y-63101454D01*
X138113141Y-63155430D01*
X138167117Y-63236212D01*
X138186071Y-63331500D01*
X138167117Y-63426787D01*
X138140846Y-63490209D01*
X138136999Y-63509552D01*
X138123528Y-63577277D01*
X138116500Y-63612608D01*
X138116500Y-64237149D01*
X138114408Y-64269358D01*
X138113525Y-64276127D01*
X138082405Y-64368162D01*
X138042687Y-64419987D01*
X137920715Y-64541959D01*
X137830697Y-64687899D01*
X137776764Y-64850661D01*
X137766500Y-64951127D01*
X137766500Y-65196988D01*
X137747546Y-65292276D01*
X137693570Y-65373058D01*
X137612792Y-65427032D01*
X137569673Y-65444893D01*
X137569663Y-65444898D01*
X137420868Y-65544319D01*
X137294319Y-65670868D01*
X137194898Y-65819663D01*
X137194895Y-65819668D01*
X137126413Y-65984998D01*
X137091500Y-66160522D01*
X137091500Y-66284573D01*
X137072546Y-66379861D01*
X137018570Y-66460643D01*
X136937788Y-66514619D01*
X136913469Y-66522190D01*
X136913568Y-66522488D01*
X136737899Y-66580697D01*
X136591959Y-66670715D01*
X136549046Y-66713628D01*
X136468264Y-66767604D01*
X136372976Y-66786557D01*
X136277688Y-66767602D01*
X136196907Y-66713625D01*
X136142931Y-66632843D01*
X136123978Y-66537555D01*
X136128761Y-66488987D01*
X136158500Y-66339479D01*
X136158500Y-66160521D01*
X136123587Y-65985000D01*
X136076441Y-65871181D01*
X136055104Y-65819668D01*
X136055101Y-65819663D01*
X135991896Y-65725070D01*
X135955678Y-65670865D01*
X135829135Y-65544322D01*
X135768263Y-65503649D01*
X135680336Y-65444898D01*
X135680331Y-65444895D01*
X135514999Y-65376412D01*
X135514996Y-65376411D01*
X135433922Y-65360285D01*
X135344163Y-65323106D01*
X135275464Y-65254406D01*
X135238284Y-65164647D01*
X135233500Y-65116070D01*
X135233500Y-64951135D01*
X135233500Y-64951128D01*
X135223236Y-64850664D01*
X135169302Y-64687899D01*
X135079285Y-64541960D01*
X134958040Y-64420715D01*
X134956860Y-64419987D01*
X134812100Y-64330697D01*
X134649338Y-64276764D01*
X134548872Y-64266500D01*
X133951128Y-64266500D01*
X133951127Y-64266500D01*
X133850661Y-64276764D01*
X133687901Y-64330697D01*
X133639521Y-64360538D01*
X133548468Y-64394429D01*
X133451378Y-64390895D01*
X133379988Y-64361698D01*
X133317915Y-64324174D01*
X133317913Y-64324173D01*
X133153649Y-64272987D01*
X133153641Y-64272985D01*
X133082269Y-64266500D01*
X132417731Y-64266500D01*
X132346352Y-64272986D01*
X132182085Y-64324173D01*
X132034846Y-64413183D01*
X131913183Y-64534846D01*
X131824173Y-64682086D01*
X131772987Y-64846350D01*
X131772985Y-64846358D01*
X131766500Y-64917720D01*
X131766500Y-65432268D01*
X131772986Y-65503649D01*
X131800961Y-65593423D01*
X131811213Y-65690035D01*
X131783713Y-65783217D01*
X131722647Y-65858782D01*
X131637312Y-65905226D01*
X131563235Y-65916500D01*
X130917731Y-65916500D01*
X130846352Y-65922986D01*
X130682085Y-65974173D01*
X130534846Y-66063183D01*
X130413183Y-66184846D01*
X130324173Y-66332086D01*
X130272987Y-66496350D01*
X130272985Y-66496358D01*
X130266500Y-66567720D01*
X130266500Y-67082268D01*
X130272986Y-67153647D01*
X130324173Y-67317914D01*
X130390312Y-67427320D01*
X130413184Y-67465155D01*
X130534845Y-67586816D01*
X130682087Y-67675827D01*
X130846351Y-67727013D01*
X130846355Y-67727013D01*
X130846358Y-67727014D01*
X130874912Y-67729608D01*
X130917735Y-67733500D01*
X131582264Y-67733499D01*
X131582268Y-67733499D01*
X131629854Y-67729175D01*
X131653649Y-67727013D01*
X131817913Y-67675827D01*
X131871182Y-67643624D01*
X131962532Y-67610548D01*
X132059587Y-67614948D01*
X132128817Y-67643624D01*
X132182087Y-67675827D01*
X132346351Y-67727013D01*
X132346355Y-67727013D01*
X132346358Y-67727014D01*
X132374912Y-67729608D01*
X132417735Y-67733500D01*
X133082264Y-67733499D01*
X133082268Y-67733499D01*
X133129854Y-67729175D01*
X133153649Y-67727013D01*
X133317913Y-67675827D01*
X133379989Y-67638300D01*
X133471337Y-67605226D01*
X133568392Y-67609626D01*
X133639522Y-67639462D01*
X133687899Y-67669302D01*
X133850664Y-67723236D01*
X133951128Y-67733500D01*
X133951136Y-67733500D01*
X134548864Y-67733500D01*
X134548872Y-67733500D01*
X134649336Y-67723236D01*
X134812101Y-67669302D01*
X134958040Y-67579285D01*
X135079285Y-67458040D01*
X135149622Y-67344006D01*
X135152114Y-67341326D01*
X135153491Y-67337932D01*
X135171742Y-67320215D01*
X135215776Y-67272858D01*
X135221678Y-67268725D01*
X135226260Y-67265613D01*
X135237971Y-67258403D01*
X135307328Y-67210570D01*
X135308085Y-67210057D01*
X135308163Y-67210023D01*
X135311839Y-67207557D01*
X135354885Y-67179476D01*
X135426720Y-67147449D01*
X135449884Y-67141267D01*
X135481671Y-67131515D01*
X135506110Y-67125355D01*
X135515000Y-67123587D01*
X135680336Y-67055102D01*
X135829135Y-66955678D01*
X135905817Y-66878995D01*
X135986592Y-66825024D01*
X136081881Y-66806069D01*
X136177169Y-66825022D01*
X136257951Y-66878998D01*
X136311927Y-66959779D01*
X136330882Y-67055068D01*
X136327496Y-67087074D01*
X136328146Y-67087141D01*
X136326764Y-67100662D01*
X136326764Y-67100664D01*
X136322616Y-67141267D01*
X136316500Y-67201127D01*
X136316500Y-67798872D01*
X136326764Y-67899338D01*
X136380697Y-68062100D01*
X136448244Y-68171609D01*
X136470715Y-68208040D01*
X136591960Y-68329285D01*
X136737899Y-68419302D01*
X136900664Y-68473236D01*
X137001128Y-68483500D01*
X137001136Y-68483500D01*
X137548864Y-68483500D01*
X137548872Y-68483500D01*
X137649336Y-68473236D01*
X137812101Y-68419302D01*
X137958040Y-68329285D01*
X138079285Y-68208040D01*
X138169302Y-68062101D01*
X138221631Y-67904178D01*
X138226158Y-67896203D01*
X138227947Y-67887212D01*
X138249997Y-67854210D01*
X138269595Y-67819689D01*
X138276828Y-67814054D01*
X138281923Y-67806430D01*
X138314928Y-67784377D01*
X138346241Y-67759986D01*
X138355080Y-67757548D01*
X138362705Y-67752454D01*
X138401633Y-67744710D01*
X138439900Y-67734158D01*
X138457993Y-67733500D01*
X138517500Y-67733500D01*
X138612788Y-67752454D01*
X138693570Y-67806430D01*
X138747546Y-67887212D01*
X138766500Y-67982500D01*
X138766500Y-68498872D01*
X138776764Y-68599338D01*
X138830697Y-68762100D01*
X138896808Y-68869281D01*
X138930700Y-68960332D01*
X138927168Y-69057423D01*
X138896808Y-69130719D01*
X138830697Y-69237899D01*
X138776764Y-69400661D01*
X138766500Y-69501127D01*
X138766500Y-69867500D01*
X138747546Y-69962788D01*
X138693570Y-70043570D01*
X138612788Y-70097546D01*
X138517500Y-70116500D01*
X127812394Y-70116500D01*
X127687606Y-70116500D01*
X127565215Y-70140845D01*
X127565213Y-70140845D01*
X127565212Y-70140846D01*
X127449929Y-70188597D01*
X127449924Y-70188600D01*
X127346170Y-70257926D01*
X126340526Y-71263570D01*
X126259744Y-71317546D01*
X126164456Y-71336500D01*
X125490059Y-71336500D01*
X125463974Y-71337163D01*
X125463968Y-71337163D01*
X125463940Y-71337164D01*
X125451399Y-71337802D01*
X125451374Y-71337803D01*
X125451372Y-71337804D01*
X125448910Y-71337992D01*
X125425258Y-71339800D01*
X125421230Y-71340212D01*
X125395935Y-71341500D01*
X122404056Y-71341500D01*
X122378798Y-71340216D01*
X122374747Y-71339802D01*
X122348641Y-71337805D01*
X122336047Y-71337163D01*
X122309955Y-71336500D01*
X122309937Y-71336500D01*
X121490059Y-71336500D01*
X121463974Y-71337163D01*
X121463968Y-71337163D01*
X121463940Y-71337164D01*
X121451399Y-71337802D01*
X121451374Y-71337803D01*
X121451372Y-71337804D01*
X121448910Y-71337992D01*
X121425258Y-71339800D01*
X121421230Y-71340212D01*
X121395935Y-71341500D01*
X118404056Y-71341500D01*
X118378798Y-71340216D01*
X118374747Y-71339802D01*
X118348641Y-71337805D01*
X118336047Y-71337163D01*
X118309955Y-71336500D01*
X118309937Y-71336500D01*
X117490059Y-71336500D01*
X117463974Y-71337163D01*
X117463968Y-71337163D01*
X117463940Y-71337164D01*
X117451399Y-71337802D01*
X117451374Y-71337803D01*
X117451372Y-71337804D01*
X117448910Y-71337992D01*
X117425258Y-71339800D01*
X117421230Y-71340212D01*
X117395935Y-71341500D01*
X114404056Y-71341500D01*
X114378798Y-71340216D01*
X114374747Y-71339802D01*
X114348641Y-71337805D01*
X114336047Y-71337163D01*
X114309955Y-71336500D01*
X114309937Y-71336500D01*
X113490059Y-71336500D01*
X113463974Y-71337163D01*
X113463968Y-71337163D01*
X113463940Y-71337164D01*
X113451399Y-71337802D01*
X113451374Y-71337803D01*
X113451372Y-71337804D01*
X113448910Y-71337992D01*
X113425258Y-71339800D01*
X113421230Y-71340212D01*
X113395935Y-71341500D01*
X110404056Y-71341500D01*
X110378798Y-71340216D01*
X110374747Y-71339802D01*
X110348641Y-71337805D01*
X110336047Y-71337163D01*
X110309955Y-71336500D01*
X110309937Y-71336500D01*
X108474000Y-71336500D01*
X108473996Y-71336500D01*
X108364837Y-71348236D01*
X108364836Y-71348236D01*
X108313338Y-71359439D01*
X108313335Y-71359440D01*
X108209172Y-71394109D01*
X108086223Y-71473125D01*
X108086213Y-71473132D01*
X108033421Y-71518877D01*
X108033407Y-71518891D01*
X107937703Y-71629337D01*
X107876985Y-71762287D01*
X107857301Y-71829321D01*
X107857300Y-71829330D01*
X107836500Y-71974000D01*
X92000500Y-71974000D01*
X92000500Y-61811142D01*
X92019454Y-61715854D01*
X92073430Y-61635072D01*
X92154212Y-61581096D01*
X92249500Y-61562142D01*
X92344788Y-61581096D01*
X92425570Y-61635072D01*
X92479546Y-61715854D01*
X92492256Y-61755731D01*
X92497702Y-61779589D01*
X92515982Y-61859681D01*
X92630995Y-62188373D01*
X92778066Y-62493770D01*
X92782094Y-62502133D01*
X92782098Y-62502139D01*
X92782100Y-62502143D01*
X92967369Y-62796996D01*
X93040092Y-62888188D01*
X93184494Y-63069263D01*
X93430737Y-63315506D01*
X93703003Y-63532630D01*
X93997867Y-63717906D01*
X94311621Y-63869002D01*
X94311624Y-63869003D01*
X94311626Y-63869004D01*
X94377455Y-63892038D01*
X94640319Y-63984018D01*
X94979829Y-64061509D01*
X95196106Y-64085877D01*
X95325867Y-64100499D01*
X95325880Y-64100500D01*
X95674120Y-64100500D01*
X95674132Y-64100499D01*
X95772434Y-64089422D01*
X96020171Y-64061509D01*
X96359681Y-63984018D01*
X96688379Y-63869002D01*
X97002133Y-63717906D01*
X97296997Y-63532630D01*
X97569263Y-63315506D01*
X97815506Y-63069263D01*
X98032630Y-62796997D01*
X98217906Y-62502133D01*
X98369002Y-62188379D01*
X98484018Y-61859681D01*
X98561509Y-61520171D01*
X98600500Y-61174120D01*
X98600500Y-60825880D01*
X98561509Y-60479829D01*
X98484018Y-60140319D01*
X98369002Y-59811621D01*
X98217906Y-59497867D01*
X98032630Y-59203003D01*
X97815506Y-58930737D01*
X97569263Y-58684494D01*
X97296997Y-58467370D01*
X97296998Y-58467370D01*
X97296996Y-58467369D01*
X97002143Y-58282100D01*
X97002139Y-58282098D01*
X97002133Y-58282094D01*
X97002123Y-58282089D01*
X97002119Y-58282087D01*
X96688373Y-58130995D01*
X96451659Y-58048166D01*
X96359681Y-58015982D01*
X96359683Y-58015982D01*
X96291767Y-58000481D01*
X96255732Y-57992256D01*
X96167052Y-57952574D01*
X96100307Y-57881976D01*
X96065660Y-57791209D01*
X96068385Y-57694092D01*
X96108068Y-57605410D01*
X96178666Y-57538665D01*
X96269433Y-57504018D01*
X96311142Y-57500500D01*
X151688858Y-57500500D01*
X151784146Y-57519454D01*
G37*
%TD.AperFunction*%
%TD*%
%TA.AperFunction,Conductor*%
%TO.N,/FB*%
G36*
X110322540Y-71850642D02*
G01*
X110399455Y-71858500D01*
X113400544Y-71858499D01*
X113477457Y-71850641D01*
X113490059Y-71850000D01*
X114309937Y-71850000D01*
X114322540Y-71850642D01*
X114399455Y-71858500D01*
X117400544Y-71858499D01*
X117477457Y-71850641D01*
X117490059Y-71850000D01*
X118309937Y-71850000D01*
X118322540Y-71850642D01*
X118399455Y-71858500D01*
X121400544Y-71858499D01*
X121477457Y-71850641D01*
X121490059Y-71850000D01*
X122309937Y-71850000D01*
X122322540Y-71850642D01*
X122399455Y-71858500D01*
X125400544Y-71858499D01*
X125477457Y-71850641D01*
X125490059Y-71850000D01*
X126526000Y-71850000D01*
X126593039Y-71869685D01*
X126638794Y-71922489D01*
X126650000Y-71974000D01*
X126650000Y-73809936D01*
X126649358Y-73822539D01*
X126641500Y-73899447D01*
X126641500Y-76900537D01*
X126641501Y-76900553D01*
X126649358Y-76977456D01*
X126650000Y-76990058D01*
X126650000Y-77809936D01*
X126649358Y-77822539D01*
X126641500Y-77899447D01*
X126641500Y-80900537D01*
X126641501Y-80900553D01*
X126649358Y-80977456D01*
X126650000Y-80990058D01*
X126650000Y-81809936D01*
X126649358Y-81822539D01*
X126641500Y-81899447D01*
X126641500Y-84900537D01*
X126641501Y-84900553D01*
X126649358Y-84977456D01*
X126650000Y-84990058D01*
X126650000Y-87276000D01*
X126630315Y-87343039D01*
X126577511Y-87388794D01*
X126526000Y-87400000D01*
X125668951Y-87400000D01*
X125629948Y-87393706D01*
X125574730Y-87375409D01*
X125504427Y-87352113D01*
X125400545Y-87341500D01*
X122399462Y-87341500D01*
X122399446Y-87341501D01*
X122295572Y-87352113D01*
X122210464Y-87380315D01*
X122170051Y-87393706D01*
X122131049Y-87400000D01*
X121668951Y-87400000D01*
X121629948Y-87393706D01*
X121574730Y-87375409D01*
X121504427Y-87352113D01*
X121400545Y-87341500D01*
X118399462Y-87341500D01*
X118399446Y-87341501D01*
X118295572Y-87352113D01*
X118210464Y-87380315D01*
X118170051Y-87393706D01*
X118131049Y-87400000D01*
X117668951Y-87400000D01*
X117629948Y-87393706D01*
X117574730Y-87375409D01*
X117504427Y-87352113D01*
X117400545Y-87341500D01*
X114399462Y-87341500D01*
X114399446Y-87341501D01*
X114295572Y-87352113D01*
X114210464Y-87380315D01*
X114170051Y-87393706D01*
X114131049Y-87400000D01*
X113668951Y-87400000D01*
X113629948Y-87393706D01*
X113574730Y-87375409D01*
X113504427Y-87352113D01*
X113400545Y-87341500D01*
X110399462Y-87341500D01*
X110399446Y-87341501D01*
X110295572Y-87352113D01*
X110210464Y-87380315D01*
X110170051Y-87393706D01*
X110131049Y-87400000D01*
X108474000Y-87400000D01*
X108465314Y-87397449D01*
X108456353Y-87398738D01*
X108432312Y-87387759D01*
X108406961Y-87380315D01*
X108401033Y-87373474D01*
X108392797Y-87369713D01*
X108378507Y-87347478D01*
X108361206Y-87327511D01*
X108358918Y-87316996D01*
X108355023Y-87310935D01*
X108350000Y-87276000D01*
X108350000Y-87190062D01*
X108350642Y-87177459D01*
X108358499Y-87100552D01*
X108358500Y-87100545D01*
X108358499Y-84099456D01*
X108350642Y-84022542D01*
X108350000Y-84009940D01*
X108350000Y-83190062D01*
X108350642Y-83177459D01*
X108358499Y-83100552D01*
X108358500Y-83100545D01*
X108358499Y-80099456D01*
X108350642Y-80022542D01*
X108350000Y-80009940D01*
X108350000Y-79190062D01*
X108350642Y-79177459D01*
X108358499Y-79100552D01*
X108358500Y-79100545D01*
X108358499Y-76099456D01*
X108350642Y-76022542D01*
X108350000Y-76009940D01*
X108350000Y-75190062D01*
X108350642Y-75177459D01*
X108358499Y-75100552D01*
X108358500Y-75100545D01*
X108358499Y-72099456D01*
X108350642Y-72022542D01*
X108350000Y-72009940D01*
X108350000Y-71974000D01*
X108369685Y-71906961D01*
X108422489Y-71861206D01*
X108474000Y-71850000D01*
X110309937Y-71850000D01*
X110322540Y-71850642D01*
G37*
%TD.AperFunction*%
%TD*%
%TA.AperFunction,Conductor*%
%TO.N,GND*%
G36*
X136237396Y-66939381D02*
G01*
X136157778Y-67036614D01*
X136121206Y-67122113D01*
X136113823Y-67203853D01*
X136121775Y-67289811D01*
X136132236Y-67419605D01*
X136117314Y-67578036D01*
X135724293Y-67500707D01*
X135502772Y-67167412D01*
X135713556Y-67035688D01*
X135840044Y-66956261D01*
X135935657Y-66880666D01*
X136060619Y-66762604D01*
X136237396Y-66939381D01*
G37*
%TD.AperFunction*%
%TD*%
%TA.AperFunction,Conductor*%
%TO.N,/Offset*%
G36*
X129073418Y-62939809D02*
G01*
X129234914Y-63101305D01*
X129238341Y-63109578D01*
X129235408Y-63117326D01*
X129197517Y-63160201D01*
X129178503Y-63181717D01*
X129178501Y-63181719D01*
X129178500Y-63181721D01*
X129178496Y-63181725D01*
X129068077Y-63347983D01*
X128997019Y-63509632D01*
X128997018Y-63509635D01*
X128967842Y-63649212D01*
X128967842Y-63649222D01*
X128974077Y-63750677D01*
X128971164Y-63759145D01*
X128963117Y-63763073D01*
X128960225Y-63762891D01*
X128505523Y-63676885D01*
X128498030Y-63671980D01*
X128496880Y-63669848D01*
X128340449Y-63289898D01*
X128340468Y-63280945D01*
X128346814Y-63274626D01*
X128350375Y-63273780D01*
X128471241Y-63264603D01*
X128572798Y-63237963D01*
X128673120Y-63198827D01*
X128789923Y-63139003D01*
X128896941Y-63071123D01*
X129057718Y-62939042D01*
X129066286Y-62936438D01*
X129073418Y-62939809D01*
G37*
%TD.AperFunction*%
%TD*%
%TA.AperFunction,Conductor*%
%TO.N,/Offset*%
G36*
X128979736Y-63034235D02*
G01*
X129140955Y-63195454D01*
X129144382Y-63203727D01*
X129141543Y-63211367D01*
X129060660Y-63305172D01*
X129008759Y-63394797D01*
X128980647Y-63477629D01*
X128980643Y-63477642D01*
X128964016Y-63559329D01*
X128956378Y-63600401D01*
X128956126Y-63601472D01*
X128916479Y-63740413D01*
X128915839Y-63742132D01*
X128882341Y-63814251D01*
X128881760Y-63815346D01*
X128838893Y-63886728D01*
X128831696Y-63892056D01*
X128822839Y-63890734D01*
X128822387Y-63890448D01*
X128501256Y-63677011D01*
X128497988Y-63673743D01*
X128284631Y-63352732D01*
X128282905Y-63343945D01*
X128287899Y-63336512D01*
X128288452Y-63336165D01*
X128377829Y-63283895D01*
X128379181Y-63283221D01*
X128465305Y-63247138D01*
X128467078Y-63246559D01*
X128615576Y-63211005D01*
X128615744Y-63210966D01*
X128719508Y-63188371D01*
X128835920Y-63136848D01*
X128900582Y-63090924D01*
X128963610Y-63033835D01*
X128972041Y-63030822D01*
X128979736Y-63034235D01*
G37*
%TD.AperFunction*%
%TD*%
%TA.AperFunction,Conductor*%
%TO.N,/Offset*%
G36*
X141872814Y-64378427D02*
G01*
X141876168Y-64385394D01*
X141887408Y-64485456D01*
X141931688Y-64626431D01*
X141931690Y-64626437D01*
X141993768Y-64730095D01*
X142066371Y-64794099D01*
X142130927Y-64816104D01*
X142137652Y-64822017D01*
X142138226Y-64830953D01*
X142134899Y-64835946D01*
X141757747Y-65169155D01*
X141749278Y-65172065D01*
X141742253Y-65169155D01*
X141367122Y-64837733D01*
X141363191Y-64829687D01*
X141366101Y-64821218D01*
X141371592Y-64817734D01*
X141407984Y-64807123D01*
X141451000Y-64782751D01*
X141497845Y-64739970D01*
X141536677Y-64687027D01*
X141576348Y-64607414D01*
X141603675Y-64524047D01*
X141623563Y-64385042D01*
X141628127Y-64377339D01*
X141635145Y-64375000D01*
X141864541Y-64375000D01*
X141872814Y-64378427D01*
G37*
%TD.AperFunction*%
%TD*%
%TA.AperFunction,Conductor*%
%TO.N,/I_SET*%
G36*
X127630167Y-61825588D02*
G01*
X127637599Y-61830582D01*
X127639325Y-61839369D01*
X127639173Y-61840023D01*
X127612945Y-61940141D01*
X127612454Y-61941610D01*
X127577080Y-62027997D01*
X127576225Y-62029682D01*
X127496383Y-62159793D01*
X127496255Y-62159997D01*
X127438884Y-62249309D01*
X127438883Y-62249312D01*
X127393000Y-62368058D01*
X127392999Y-62368060D01*
X127392999Y-62368062D01*
X127386240Y-62407958D01*
X127379749Y-62446266D01*
X127375550Y-62531192D01*
X127371718Y-62539286D01*
X127363864Y-62542314D01*
X127135866Y-62542314D01*
X127127593Y-62538887D01*
X127124198Y-62531477D01*
X127117895Y-62446266D01*
X127115061Y-62407953D01*
X127104427Y-62368062D01*
X127088385Y-62307881D01*
X127059498Y-62249312D01*
X127049692Y-62229429D01*
X127049690Y-62229426D01*
X127049687Y-62229421D01*
X127003682Y-62159899D01*
X126980042Y-62125457D01*
X126979466Y-62124528D01*
X126909247Y-61998234D01*
X126908485Y-61996567D01*
X126888126Y-61940891D01*
X126881175Y-61921882D01*
X126880818Y-61920721D01*
X126860652Y-61839919D01*
X126861974Y-61831063D01*
X126869171Y-61825735D01*
X126869693Y-61825617D01*
X126869837Y-61825588D01*
X127247692Y-61749465D01*
X127252308Y-61749465D01*
X127630167Y-61825588D01*
G37*
%TD.AperFunction*%
%TD*%
%TA.AperFunction,Conductor*%
%TO.N,/I_SET*%
G36*
X127942342Y-65939899D02*
G01*
X127993249Y-65986698D01*
X127993257Y-65986705D01*
X127993260Y-65986707D01*
X128175307Y-66118344D01*
X128175309Y-66118345D01*
X128175316Y-66118349D01*
X128360462Y-66213240D01*
X128360470Y-66213243D01*
X128467169Y-66246048D01*
X128525408Y-66263955D01*
X128649668Y-66273738D01*
X128657646Y-66277804D01*
X128660413Y-66286320D01*
X128659568Y-66289856D01*
X128503121Y-66669843D01*
X128496802Y-66676189D01*
X128494476Y-66676885D01*
X128040893Y-66762678D01*
X128032128Y-66760849D01*
X128027223Y-66753356D01*
X128027120Y-66749654D01*
X128033121Y-66704281D01*
X128031411Y-66640720D01*
X128015527Y-66552585D01*
X127986823Y-66464601D01*
X127937721Y-66358696D01*
X127879420Y-66261355D01*
X127879417Y-66261351D01*
X127879416Y-66261349D01*
X127763866Y-66117263D01*
X127761363Y-66108665D01*
X127764719Y-66101671D01*
X127926152Y-65940238D01*
X127934424Y-65936812D01*
X127942342Y-65939899D01*
G37*
%TD.AperFunction*%
%TD*%
%TA.AperFunction,Conductor*%
%TO.N,Net-(U1C--)*%
G36*
X134506749Y-66336934D02*
G01*
X134510695Y-66340518D01*
X134546984Y-66393171D01*
X134585969Y-66425826D01*
X134628485Y-66447377D01*
X134683411Y-66460512D01*
X134739533Y-66461351D01*
X134807169Y-66448909D01*
X134868998Y-66425713D01*
X134946827Y-66373743D01*
X134955609Y-66371999D01*
X134961596Y-66375201D01*
X135123210Y-66536815D01*
X135126637Y-66545088D01*
X135123210Y-66553361D01*
X135123108Y-66553462D01*
X135083246Y-66592357D01*
X135070388Y-66604904D01*
X135070371Y-66604921D01*
X135070370Y-66604920D01*
X134954401Y-66719016D01*
X134954397Y-66719019D01*
X134806057Y-66884767D01*
X134806053Y-66884772D01*
X134732167Y-66999230D01*
X134714362Y-67060467D01*
X134708761Y-67067454D01*
X134699860Y-67068435D01*
X134696744Y-67067005D01*
X134258440Y-66781661D01*
X134253376Y-66774276D01*
X134254597Y-66766170D01*
X134490837Y-66341471D01*
X134497854Y-66335907D01*
X134506749Y-66336934D01*
G37*
%TD.AperFunction*%
%TD*%
%TA.AperFunction,Conductor*%
%TO.N,Net-(U1C--)*%
G36*
X133106903Y-66451686D02*
G01*
X133109320Y-66454803D01*
X133123776Y-66481881D01*
X133163570Y-66524188D01*
X133197085Y-66547040D01*
X133214961Y-66559229D01*
X133214962Y-66559229D01*
X133214963Y-66559230D01*
X133303166Y-66598108D01*
X133303170Y-66598110D01*
X133399808Y-66624845D01*
X133399815Y-66624847D01*
X133523349Y-66644356D01*
X133613949Y-66649386D01*
X133622019Y-66653266D01*
X133625000Y-66661068D01*
X133625000Y-66889564D01*
X133621573Y-66897837D01*
X133614632Y-66901188D01*
X133507026Y-66913522D01*
X133353261Y-66962324D01*
X133232968Y-67031952D01*
X133232961Y-67031957D01*
X133152447Y-67113484D01*
X133115844Y-67189790D01*
X133109176Y-67195768D01*
X133100235Y-67195279D01*
X133096794Y-67192769D01*
X133021815Y-67113484D01*
X132878866Y-66962324D01*
X132756483Y-66832912D01*
X132753289Y-66824547D01*
X132756356Y-66816971D01*
X133090373Y-66452408D01*
X133098488Y-66448624D01*
X133106903Y-66451686D01*
G37*
%TD.AperFunction*%
%TD*%
%TA.AperFunction,Conductor*%
%TO.N,Net-(U1C--)*%
G36*
X133921230Y-66353132D02*
G01*
X133924872Y-66356221D01*
X134099159Y-66580022D01*
X134245401Y-66767811D01*
X134247781Y-66776444D01*
X134245401Y-66782189D01*
X133926572Y-67191594D01*
X133918785Y-67196016D01*
X133910152Y-67193636D01*
X133906433Y-67188636D01*
X133902941Y-67179633D01*
X133902940Y-67179631D01*
X133891269Y-67160098D01*
X133871737Y-67127408D01*
X133829915Y-67080983D01*
X133829913Y-67080982D01*
X133829912Y-67080980D01*
X133829913Y-67080980D01*
X133783212Y-67044558D01*
X133765060Y-67030401D01*
X133690591Y-66988551D01*
X133690585Y-66988548D01*
X133690580Y-66988546D01*
X133591270Y-66948424D01*
X133591268Y-66948423D01*
X133591267Y-66948423D01*
X133563930Y-66940835D01*
X133491242Y-66920660D01*
X133335257Y-66901274D01*
X133327470Y-66896853D01*
X133325000Y-66889663D01*
X133325000Y-66660415D01*
X133328427Y-66652142D01*
X133335345Y-66648794D01*
X133478261Y-66632139D01*
X133649027Y-66580023D01*
X133779875Y-66509527D01*
X133866361Y-66429582D01*
X133905364Y-66357824D01*
X133912325Y-66352192D01*
X133921230Y-66353132D01*
G37*
%TD.AperFunction*%
%TD*%
%TA.AperFunction,Conductor*%
%TO.N,Net-(U1C--)*%
G36*
X132406480Y-66449838D02*
G01*
X132409374Y-66452133D01*
X132743758Y-66817096D01*
X132746820Y-66825511D01*
X132743758Y-66832904D01*
X132410493Y-67196644D01*
X132402377Y-67200429D01*
X132393962Y-67197367D01*
X132391187Y-67193519D01*
X132378418Y-67164987D01*
X132349548Y-67125041D01*
X132349546Y-67125038D01*
X132319831Y-67097698D01*
X132298305Y-67077891D01*
X132280139Y-67066405D01*
X132236735Y-67038960D01*
X132226250Y-67034400D01*
X132145145Y-66999131D01*
X132145128Y-66999125D01*
X132049998Y-66971793D01*
X131954849Y-66955222D01*
X131885936Y-66950715D01*
X131877904Y-66946755D01*
X131875000Y-66939040D01*
X131875000Y-66710785D01*
X131878427Y-66702512D01*
X131885749Y-66699124D01*
X131979179Y-66691517D01*
X132143769Y-66651352D01*
X132270303Y-66591484D01*
X132353302Y-66520571D01*
X132390549Y-66454302D01*
X132397589Y-66448771D01*
X132406480Y-66449838D01*
G37*
%TD.AperFunction*%
%TD*%
%TA.AperFunction,Conductor*%
%TO.N,Net-(U1C--)*%
G36*
X131606037Y-66452632D02*
G01*
X131608812Y-66456479D01*
X131621583Y-66485014D01*
X131650454Y-66524962D01*
X131701697Y-66572110D01*
X131763266Y-66611040D01*
X131807739Y-66630379D01*
X131854854Y-66650868D01*
X131854871Y-66650874D01*
X131918291Y-66669095D01*
X131950005Y-66678207D01*
X132045141Y-66694776D01*
X132045146Y-66694776D01*
X132045150Y-66694777D01*
X132072676Y-66696577D01*
X132114065Y-66699284D01*
X132122095Y-66703243D01*
X132125000Y-66710959D01*
X132125000Y-66939214D01*
X132121573Y-66947487D01*
X132114250Y-66950875D01*
X132020825Y-66958482D01*
X132020822Y-66958482D01*
X131856237Y-66998645D01*
X131856230Y-66998647D01*
X131729696Y-67058515D01*
X131646698Y-67129429D01*
X131646697Y-67129430D01*
X131609451Y-67195695D01*
X131602410Y-67201228D01*
X131593519Y-67200161D01*
X131590625Y-67197866D01*
X131527922Y-67129429D01*
X131256240Y-66832902D01*
X131253179Y-66824489D01*
X131256240Y-66817097D01*
X131589506Y-66453354D01*
X131597622Y-66449570D01*
X131606037Y-66452632D01*
G37*
%TD.AperFunction*%
%TD*%
%TA.AperFunction,Conductor*%
%TO.N,Net-(U1C--)*%
G36*
X134870405Y-66174487D02*
G01*
X135243308Y-66248473D01*
X135250755Y-66253444D01*
X135252511Y-66257695D01*
X135325927Y-66631577D01*
X135324158Y-66640355D01*
X135317463Y-66645135D01*
X135223700Y-66670161D01*
X135142803Y-66704728D01*
X135142797Y-66704731D01*
X135023113Y-66782806D01*
X134946443Y-66835681D01*
X134944320Y-66836841D01*
X134837532Y-66881560D01*
X134835120Y-66882277D01*
X134764945Y-66895122D01*
X134763460Y-66895296D01*
X134687470Y-66899343D01*
X134679027Y-66896361D01*
X134675165Y-66888282D01*
X134675148Y-66887660D01*
X134675148Y-66660757D01*
X134678575Y-66652484D01*
X134685866Y-66649098D01*
X134732749Y-66645157D01*
X134732751Y-66645156D01*
X134732753Y-66645156D01*
X134775818Y-66631138D01*
X134775818Y-66631137D01*
X134775824Y-66631136D01*
X134806438Y-66608696D01*
X134826654Y-66578596D01*
X134844149Y-66498457D01*
X134844820Y-66396797D01*
X134844094Y-66319260D01*
X134844142Y-66318096D01*
X134856488Y-66184883D01*
X134860664Y-66176964D01*
X134869218Y-66174315D01*
X134870405Y-66174487D01*
G37*
%TD.AperFunction*%
%TD*%
%TA.AperFunction,Conductor*%
%TO.N,Net-(U1A-+)*%
G36*
X133106037Y-64802632D02*
G01*
X133108812Y-64806479D01*
X133121583Y-64835014D01*
X133150454Y-64874962D01*
X133201697Y-64922110D01*
X133263266Y-64961040D01*
X133307739Y-64980379D01*
X133354854Y-65000868D01*
X133354871Y-65000874D01*
X133418291Y-65019095D01*
X133450005Y-65028207D01*
X133545141Y-65044776D01*
X133545146Y-65044776D01*
X133545150Y-65044777D01*
X133572676Y-65046577D01*
X133614065Y-65049284D01*
X133622095Y-65053243D01*
X133625000Y-65060959D01*
X133625000Y-65289214D01*
X133621573Y-65297487D01*
X133614250Y-65300875D01*
X133520825Y-65308482D01*
X133520822Y-65308482D01*
X133356237Y-65348645D01*
X133356230Y-65348647D01*
X133229696Y-65408515D01*
X133146698Y-65479429D01*
X133146697Y-65479430D01*
X133109451Y-65545695D01*
X133102410Y-65551228D01*
X133093519Y-65550161D01*
X133090625Y-65547866D01*
X133027922Y-65479429D01*
X132756240Y-65182902D01*
X132753179Y-65174489D01*
X132756240Y-65167097D01*
X133089506Y-64803354D01*
X133097622Y-64799570D01*
X133106037Y-64802632D01*
G37*
%TD.AperFunction*%
%TD*%
%TA.AperFunction,Conductor*%
%TO.N,Net-(U1A-+)*%
G36*
X133921150Y-64802612D02*
G01*
X133924197Y-64805355D01*
X134245392Y-65217799D01*
X134247772Y-65226432D01*
X134245381Y-65232191D01*
X133925691Y-65641440D01*
X133917898Y-65645850D01*
X133909268Y-65643457D01*
X133905622Y-65638618D01*
X133902686Y-65631347D01*
X133888170Y-65595396D01*
X133850326Y-65537749D01*
X133802417Y-65486462D01*
X133733562Y-65432494D01*
X133733555Y-65432490D01*
X133733554Y-65432489D01*
X133656886Y-65387833D01*
X133564320Y-65347955D01*
X133564321Y-65347955D01*
X133564318Y-65347954D01*
X133472531Y-65320121D01*
X133472526Y-65320120D01*
X133335119Y-65301380D01*
X133327385Y-65296866D01*
X133325000Y-65289787D01*
X133325000Y-65060779D01*
X133328427Y-65052506D01*
X133335742Y-65049118D01*
X133460500Y-65038876D01*
X133642561Y-64996575D01*
X133642564Y-64996573D01*
X133642568Y-64996573D01*
X133778988Y-64936719D01*
X133866677Y-64867968D01*
X133905034Y-64806359D01*
X133912315Y-64801148D01*
X133921150Y-64802612D01*
G37*
%TD.AperFunction*%
%TD*%
%TA.AperFunction,Conductor*%
%TO.N,Net-(U1A-+)*%
G36*
X134168981Y-64836938D02*
G01*
X134174266Y-64844166D01*
X134174368Y-64844621D01*
X134250036Y-65220218D01*
X134248310Y-65229005D01*
X134248281Y-65229049D01*
X134034577Y-65547449D01*
X134027121Y-65552409D01*
X134018342Y-65550644D01*
X134017933Y-65550356D01*
X133868257Y-65440338D01*
X133769342Y-65367826D01*
X133769343Y-65367826D01*
X133718161Y-65340437D01*
X133660016Y-65320139D01*
X133660011Y-65320137D01*
X133572810Y-65305017D01*
X133572800Y-65305016D01*
X133468877Y-65300487D01*
X133460760Y-65296703D01*
X133457686Y-65288798D01*
X133457686Y-65061037D01*
X133461113Y-65052764D01*
X133468703Y-65049357D01*
X133593168Y-65042103D01*
X133694813Y-65020781D01*
X133775611Y-64989590D01*
X133848441Y-64952138D01*
X133848659Y-64952030D01*
X133982851Y-64887249D01*
X133984099Y-64886734D01*
X134066753Y-64858329D01*
X134067756Y-64858036D01*
X134160133Y-64835564D01*
X134168981Y-64836938D01*
G37*
%TD.AperFunction*%
%TD*%
%TA.AperFunction,Conductor*%
%TO.N,Net-(U1A--)*%
G36*
X140257747Y-66830844D02*
G01*
X140632877Y-67162265D01*
X140636808Y-67170311D01*
X140633898Y-67178780D01*
X140628405Y-67182265D01*
X140592020Y-67192874D01*
X140592012Y-67192878D01*
X140549003Y-67217247D01*
X140502154Y-67260029D01*
X140502151Y-67260032D01*
X140463326Y-67312969D01*
X140463325Y-67312971D01*
X140423652Y-67392583D01*
X140396324Y-67475955D01*
X140376437Y-67614957D01*
X140371873Y-67622661D01*
X140364855Y-67625000D01*
X140135459Y-67625000D01*
X140127186Y-67621573D01*
X140123832Y-67614606D01*
X140112593Y-67514547D01*
X140068310Y-67373563D01*
X140006232Y-67269905D01*
X139995033Y-67260032D01*
X139933631Y-67205901D01*
X139933629Y-67205900D01*
X139869072Y-67183894D01*
X139862347Y-67177981D01*
X139861773Y-67169045D01*
X139865100Y-67164052D01*
X140242253Y-66830844D01*
X140250722Y-66827934D01*
X140257747Y-66830844D01*
G37*
%TD.AperFunction*%
%TD*%
%TA.AperFunction,Conductor*%
%TO.N,Net-(U1A--)*%
G36*
X140899763Y-67804719D02*
G01*
X140903202Y-67807228D01*
X141021285Y-67932092D01*
X141243516Y-68167087D01*
X141246710Y-68175452D01*
X141243642Y-68183030D01*
X140909627Y-68547590D01*
X140901511Y-68551375D01*
X140893096Y-68548313D01*
X140890679Y-68545196D01*
X140876223Y-68518118D01*
X140836429Y-68475811D01*
X140785036Y-68440769D01*
X140696833Y-68401891D01*
X140696829Y-68401889D01*
X140600191Y-68375154D01*
X140600192Y-68375154D01*
X140550722Y-68367341D01*
X140476651Y-68355644D01*
X140476649Y-68355643D01*
X140476641Y-68355643D01*
X140386051Y-68350613D01*
X140377981Y-68346733D01*
X140375000Y-68338931D01*
X140375000Y-68110435D01*
X140378427Y-68102162D01*
X140385366Y-68098811D01*
X140492973Y-68086478D01*
X140646737Y-68037675D01*
X140767035Y-67968045D01*
X140847553Y-67886515D01*
X140884154Y-67810207D01*
X140890822Y-67804231D01*
X140899763Y-67804719D01*
G37*
%TD.AperFunction*%
%TD*%
%TA.AperFunction,Conductor*%
%TO.N,Net-(U1A--)*%
G36*
X140089847Y-67806363D02*
G01*
X140093566Y-67811362D01*
X140097060Y-67820368D01*
X140128263Y-67872592D01*
X140170085Y-67919017D01*
X140170087Y-67919019D01*
X140170086Y-67919019D01*
X140209650Y-67949874D01*
X140234940Y-67969599D01*
X140309408Y-68011448D01*
X140408732Y-68051577D01*
X140508755Y-68079339D01*
X140664743Y-68098725D01*
X140672530Y-68103146D01*
X140675000Y-68110336D01*
X140675000Y-68339584D01*
X140671573Y-68347857D01*
X140664654Y-68351205D01*
X140521741Y-68367860D01*
X140521736Y-68367861D01*
X140350973Y-68419977D01*
X140220126Y-68490473D01*
X140220125Y-68490473D01*
X140133639Y-68570418D01*
X140094636Y-68642175D01*
X140087674Y-68647807D01*
X140078768Y-68646867D01*
X140075127Y-68643778D01*
X139754597Y-68232188D01*
X139752218Y-68223556D01*
X139754597Y-68217812D01*
X140073427Y-67808404D01*
X140081214Y-67803983D01*
X140089847Y-67806363D01*
G37*
%TD.AperFunction*%
%TD*%
%TA.AperFunction,Conductor*%
%TO.N,Net-(U1A--)*%
G36*
X141034289Y-67852141D02*
G01*
X141034565Y-67852533D01*
X141126417Y-67989383D01*
X141248281Y-68170950D01*
X141250046Y-68179729D01*
X141250036Y-68179781D01*
X141174371Y-68555361D01*
X141169377Y-68562794D01*
X141160590Y-68564520D01*
X141160120Y-68564415D01*
X141064788Y-68541085D01*
X141063718Y-68540768D01*
X140979297Y-68511340D01*
X140978036Y-68510816D01*
X140848657Y-68447968D01*
X140848436Y-68447857D01*
X140780751Y-68412837D01*
X140780744Y-68412834D01*
X140780743Y-68412834D01*
X140650921Y-68367859D01*
X140650920Y-68367858D01*
X140650918Y-68367858D01*
X140650916Y-68367857D01*
X140650910Y-68367856D01*
X140565159Y-68354732D01*
X140468871Y-68350492D01*
X140460757Y-68346704D01*
X140457686Y-68338803D01*
X140457686Y-68111021D01*
X140461113Y-68102748D01*
X140468686Y-68099343D01*
X140602611Y-68091346D01*
X140704673Y-68065229D01*
X140785883Y-68021413D01*
X140868250Y-67959666D01*
X140868254Y-67959671D01*
X140868326Y-67959610D01*
X141017935Y-67849642D01*
X141026628Y-67847504D01*
X141034289Y-67852141D01*
G37*
%TD.AperFunction*%
%TD*%
%TA.AperFunction,Conductor*%
%TO.N,Net-(U1A--)*%
G36*
X140368011Y-67428174D02*
G01*
X140371438Y-67436447D01*
X140371037Y-67439485D01*
X140348590Y-67522962D01*
X140348588Y-67522969D01*
X140318264Y-67635464D01*
X140246524Y-67945605D01*
X140218668Y-68166960D01*
X140218668Y-68166961D01*
X140224370Y-68300117D01*
X140221300Y-68308529D01*
X140213181Y-68312306D01*
X140210530Y-68312118D01*
X139755424Y-68227014D01*
X139747922Y-68222124D01*
X139747332Y-68221168D01*
X139511362Y-67793758D01*
X139510364Y-67784859D01*
X139515950Y-67777860D01*
X139521537Y-67776403D01*
X139606643Y-67775930D01*
X139607357Y-67775927D01*
X139690124Y-67764945D01*
X139773716Y-67742847D01*
X139773716Y-67742846D01*
X139773731Y-67742843D01*
X139850776Y-67711636D01*
X139923086Y-67671165D01*
X139986321Y-67624330D01*
X140079513Y-67521818D01*
X140121843Y-67431482D01*
X140128457Y-67425445D01*
X140132438Y-67424747D01*
X140359738Y-67424747D01*
X140368011Y-67428174D01*
G37*
%TD.AperFunction*%
%TD*%
%TA.AperFunction,Conductor*%
%TO.N,Net-(U1B--)*%
G36*
X138015601Y-66130525D02*
G01*
X138213415Y-66200580D01*
X138504566Y-66284845D01*
X138504565Y-66284845D01*
X138537717Y-66290575D01*
X138729490Y-66323728D01*
X138876875Y-66324876D01*
X138885120Y-66328368D01*
X138888483Y-66336667D01*
X138887943Y-66340090D01*
X138752567Y-66770021D01*
X138746813Y-66776883D01*
X138746247Y-66777159D01*
X138292056Y-66983547D01*
X138283107Y-66983850D01*
X138276564Y-66977735D01*
X138275521Y-66972569D01*
X138279261Y-66838229D01*
X138279260Y-66838226D01*
X138279261Y-66838219D01*
X138267056Y-66751505D01*
X138267054Y-66751500D01*
X138267054Y-66751495D01*
X138258525Y-66719873D01*
X138245324Y-66670926D01*
X138214562Y-66595655D01*
X138176711Y-66528980D01*
X138089147Y-66428609D01*
X138039553Y-66398785D01*
X138005670Y-66378409D01*
X138000346Y-66371208D01*
X138000000Y-66368382D01*
X138000000Y-66141555D01*
X138003427Y-66133282D01*
X138011700Y-66129855D01*
X138015601Y-66130525D01*
G37*
%TD.AperFunction*%
%TD*%
%TA.AperFunction,Conductor*%
%TO.N,Net-(U1B--)*%
G36*
X138338786Y-66037700D02*
G01*
X138338964Y-66037976D01*
X138464303Y-66238543D01*
X138469375Y-66246621D01*
X138543738Y-66365044D01*
X138619334Y-66460657D01*
X138729586Y-66577352D01*
X138732776Y-66585719D01*
X138729354Y-66593660D01*
X138568108Y-66754906D01*
X138559835Y-66758333D01*
X138552423Y-66755685D01*
X138463387Y-66682779D01*
X138463385Y-66682778D01*
X138377887Y-66646206D01*
X138296146Y-66638823D01*
X138210261Y-66646768D01*
X138210123Y-66646780D01*
X138081411Y-66657153D01*
X138079374Y-66657139D01*
X137934844Y-66643527D01*
X137926929Y-66639340D01*
X137924293Y-66630782D01*
X137924459Y-66629631D01*
X137998352Y-66254075D01*
X138003309Y-66246623D01*
X138322568Y-66034431D01*
X138331353Y-66032706D01*
X138338786Y-66037700D01*
G37*
%TD.AperFunction*%
%TD*%
%TA.AperFunction,Conductor*%
%TO.N,Net-(C9-Pad1)*%
G36*
X138873011Y-64328427D02*
G01*
X138876338Y-64335174D01*
X138895847Y-64483482D01*
X138951312Y-64647843D01*
X139025196Y-64773811D01*
X139025197Y-64773812D01*
X139025198Y-64773813D01*
X139108687Y-64857049D01*
X139182542Y-64893497D01*
X139188444Y-64900231D01*
X139187856Y-64909167D01*
X139184199Y-64913485D01*
X138756835Y-65221080D01*
X138748118Y-65223132D01*
X138743165Y-65221080D01*
X138501719Y-65047300D01*
X138317813Y-64914934D01*
X138313101Y-64907321D01*
X138315153Y-64898604D01*
X138320574Y-64894471D01*
X138340616Y-64887029D01*
X138394426Y-64854758D01*
X138442295Y-64812037D01*
X138493940Y-64747102D01*
X138536694Y-64673114D01*
X138576760Y-64577509D01*
X138604570Y-64481703D01*
X138623672Y-64335187D01*
X138628140Y-64327427D01*
X138635274Y-64325000D01*
X138864738Y-64325000D01*
X138873011Y-64328427D01*
G37*
%TD.AperFunction*%
%TD*%
%TA.AperFunction,Conductor*%
%TO.N,Net-(C9-Pad1)*%
G36*
X138872407Y-64436113D02*
G01*
X138875802Y-64443523D01*
X138884938Y-64567041D01*
X138884939Y-64567051D01*
X138911614Y-64667118D01*
X138911615Y-64667119D01*
X138950307Y-64745570D01*
X138950308Y-64745573D01*
X138996330Y-64815119D01*
X139019952Y-64849534D01*
X139020532Y-64850469D01*
X139090752Y-64976763D01*
X139091514Y-64978431D01*
X139118819Y-65053104D01*
X139119183Y-65054289D01*
X139139347Y-65135079D01*
X139138025Y-65143936D01*
X139130828Y-65149264D01*
X139130306Y-65149382D01*
X138752311Y-65225534D01*
X138747689Y-65225534D01*
X138369833Y-65149411D01*
X138362400Y-65144417D01*
X138360674Y-65135630D01*
X138360822Y-65134993D01*
X138387057Y-65034846D01*
X138387541Y-65033398D01*
X138422920Y-64946997D01*
X138423774Y-64945316D01*
X138503682Y-64815100D01*
X138561118Y-64725685D01*
X138607001Y-64606938D01*
X138620250Y-64528742D01*
X138624450Y-64443807D01*
X138628282Y-64435714D01*
X138636136Y-64432686D01*
X138864134Y-64432686D01*
X138872407Y-64436113D01*
G37*
%TD.AperFunction*%
%TD*%
%TA.AperFunction,Conductor*%
%TO.N,Net-(C9-Pad1)*%
G36*
X138788985Y-63147265D02*
G01*
X139169301Y-63247498D01*
X139176427Y-63252920D01*
X139177185Y-63254473D01*
X139358270Y-63707936D01*
X139358155Y-63716890D01*
X139351743Y-63723141D01*
X139346740Y-63723956D01*
X139234284Y-63717561D01*
X139163592Y-63728565D01*
X139163589Y-63728565D01*
X139163588Y-63728566D01*
X139099478Y-63749162D01*
X139099464Y-63749167D01*
X139037902Y-63780411D01*
X139037894Y-63780415D01*
X138985181Y-63818860D01*
X138985180Y-63818861D01*
X138941031Y-63863420D01*
X138907388Y-63911010D01*
X138877814Y-63991616D01*
X138871747Y-63998203D01*
X138866830Y-63999286D01*
X138639438Y-63999286D01*
X138631165Y-63995859D01*
X138627738Y-63987586D01*
X138627992Y-63985161D01*
X138653783Y-63863420D01*
X138684237Y-63719668D01*
X138719599Y-63567831D01*
X138767195Y-63308681D01*
X138774317Y-63158024D01*
X138778130Y-63149924D01*
X138786555Y-63146892D01*
X138788985Y-63147265D01*
G37*
%TD.AperFunction*%
%TD*%
%TA.AperFunction,Conductor*%
%TO.N,Net-(C9-Pad1)*%
G36*
X139091196Y-64804631D02*
G01*
X139094442Y-64808570D01*
X139108617Y-64836523D01*
X139141098Y-64876117D01*
X139198200Y-64922459D01*
X139266742Y-64960804D01*
X139370490Y-65000749D01*
X139478144Y-65028138D01*
X139585666Y-65044767D01*
X139663985Y-65049354D01*
X139672043Y-65053259D01*
X139675000Y-65061034D01*
X139675000Y-65288888D01*
X139671573Y-65297161D01*
X139664329Y-65300543D01*
X139594892Y-65306672D01*
X139594888Y-65306672D01*
X139526765Y-65321117D01*
X139508433Y-65325004D01*
X139413288Y-65360907D01*
X139346681Y-65386043D01*
X139220149Y-65466835D01*
X139134550Y-65558093D01*
X139134549Y-65558095D01*
X139094952Y-65640436D01*
X139088278Y-65646406D01*
X139079337Y-65645909D01*
X139075188Y-65642568D01*
X138754618Y-65232191D01*
X138752225Y-65223561D01*
X138754606Y-65217801D01*
X139074776Y-64806672D01*
X139082563Y-64802251D01*
X139091196Y-64804631D01*
G37*
%TD.AperFunction*%
%TD*%
%TA.AperFunction,Conductor*%
%TO.N,Net-(C9-Pad1)*%
G36*
X139906480Y-64799838D02*
G01*
X139909374Y-64802133D01*
X140243758Y-65167096D01*
X140246820Y-65175511D01*
X140243758Y-65182904D01*
X139910493Y-65546644D01*
X139902377Y-65550429D01*
X139893962Y-65547367D01*
X139891187Y-65543519D01*
X139878418Y-65514987D01*
X139849548Y-65475041D01*
X139849546Y-65475038D01*
X139819831Y-65447698D01*
X139798305Y-65427891D01*
X139780139Y-65416405D01*
X139736735Y-65388960D01*
X139726250Y-65384400D01*
X139645145Y-65349131D01*
X139645128Y-65349125D01*
X139549998Y-65321793D01*
X139454849Y-65305222D01*
X139385936Y-65300715D01*
X139377904Y-65296755D01*
X139375000Y-65289040D01*
X139375000Y-65060785D01*
X139378427Y-65052512D01*
X139385749Y-65049124D01*
X139479179Y-65041517D01*
X139643769Y-65001352D01*
X139770303Y-64941484D01*
X139853302Y-64870571D01*
X139890549Y-64804302D01*
X139897589Y-64798771D01*
X139906480Y-64799838D01*
G37*
%TD.AperFunction*%
%TD*%
%TA.AperFunction,Conductor*%
%TO.N,Net-(C9-Pad1)*%
G36*
X138839868Y-64835581D02*
G01*
X138876876Y-64844638D01*
X138935211Y-64858914D01*
X138936281Y-64859231D01*
X138956072Y-64866129D01*
X139020714Y-64888663D01*
X139021952Y-64889177D01*
X139151373Y-64952046D01*
X139151531Y-64952125D01*
X139219249Y-64987163D01*
X139349082Y-65032142D01*
X139434844Y-65045268D01*
X139531130Y-65049507D01*
X139539243Y-65053295D01*
X139542314Y-65061196D01*
X139542314Y-65288978D01*
X139538887Y-65297251D01*
X139531311Y-65300657D01*
X139397393Y-65308653D01*
X139397389Y-65308653D01*
X139397388Y-65308654D01*
X139303262Y-65332740D01*
X139295322Y-65334772D01*
X139214119Y-65378584D01*
X139131747Y-65440335D01*
X139131658Y-65440400D01*
X138982066Y-65550356D01*
X138973371Y-65552495D01*
X138965710Y-65547858D01*
X138965440Y-65547475D01*
X138751718Y-65229049D01*
X138749953Y-65220270D01*
X138749963Y-65220218D01*
X138784256Y-65050000D01*
X138825628Y-64844637D01*
X138830622Y-64837205D01*
X138839409Y-64835479D01*
X138839868Y-64835581D01*
G37*
%TD.AperFunction*%
%TD*%
%TA.AperFunction,Conductor*%
%TO.N,/FB*%
G36*
X143717871Y-65089149D02*
G01*
X143722776Y-65096642D01*
X143722879Y-65100350D01*
X143716879Y-65145713D01*
X143716879Y-65145717D01*
X143716879Y-65145718D01*
X143718100Y-65191119D01*
X143718589Y-65209282D01*
X143718589Y-65209283D01*
X143734470Y-65297401D01*
X143734475Y-65297421D01*
X143763176Y-65385397D01*
X143763179Y-65385404D01*
X143812281Y-65491307D01*
X143870577Y-65588642D01*
X143870579Y-65588645D01*
X143986133Y-65732736D01*
X143988636Y-65741334D01*
X143985279Y-65748329D01*
X143823848Y-65909760D01*
X143815575Y-65913187D01*
X143807657Y-65910100D01*
X143756749Y-65863301D01*
X143756741Y-65863294D01*
X143587499Y-65740916D01*
X143574693Y-65731656D01*
X143574692Y-65731655D01*
X143574690Y-65731654D01*
X143574683Y-65731650D01*
X143389537Y-65636759D01*
X143389529Y-65636756D01*
X143224595Y-65586046D01*
X143224592Y-65586045D01*
X143100331Y-65576261D01*
X143092352Y-65572195D01*
X143089585Y-65563679D01*
X143090428Y-65560148D01*
X143246879Y-65180154D01*
X143253197Y-65173810D01*
X143255517Y-65173115D01*
X143709106Y-65087320D01*
X143717871Y-65089149D01*
G37*
%TD.AperFunction*%
%TD*%
%TA.AperFunction,Conductor*%
%TO.N,/FB*%
G36*
X142767869Y-69252743D02*
G01*
X143009228Y-69301275D01*
X143016664Y-69306265D01*
X143018392Y-69315051D01*
X143014133Y-69321958D01*
X142954914Y-69368307D01*
X142954914Y-69368308D01*
X143090266Y-69503659D01*
X143093693Y-69511932D01*
X143090266Y-69520205D01*
X143083787Y-69523494D01*
X143078156Y-69524367D01*
X142906253Y-69586311D01*
X142906224Y-69586324D01*
X142838415Y-69619110D01*
X142829475Y-69619626D01*
X142822789Y-69613670D01*
X142821843Y-69610840D01*
X142754087Y-69266472D01*
X142755852Y-69257694D01*
X142763308Y-69252734D01*
X142767869Y-69252743D01*
G37*
%TD.AperFunction*%
%TD*%
%TA.AperFunction,Conductor*%
%TO.N,/FB*%
G36*
X142760417Y-69255815D02*
G01*
X143073606Y-69466194D01*
X143078563Y-69473652D01*
X143077274Y-69481652D01*
X143041003Y-69545988D01*
X143019292Y-69602602D01*
X143019269Y-69602663D01*
X142999659Y-69652962D01*
X142998756Y-69654789D01*
X142973329Y-69696623D01*
X142972131Y-69698257D01*
X142935129Y-69740483D01*
X142927099Y-69744447D01*
X142918618Y-69741572D01*
X142918056Y-69741045D01*
X142756904Y-69579893D01*
X142753477Y-69571620D01*
X142755446Y-69565124D01*
X142765718Y-69549742D01*
X142765717Y-69549742D01*
X142729396Y-69561463D01*
X142664145Y-69584602D01*
X142662070Y-69585130D01*
X142584308Y-69597480D01*
X142579284Y-69597182D01*
X142543254Y-69586974D01*
X142536228Y-69581422D01*
X142535186Y-69572528D01*
X142536715Y-69569216D01*
X142744190Y-69259034D01*
X142751637Y-69254065D01*
X142760417Y-69255815D01*
G37*
%TD.AperFunction*%
%TD*%
%TA.AperFunction,Conductor*%
%TO.N,Net-(U1B-+)*%
G36*
X142106037Y-66452632D02*
G01*
X142108812Y-66456479D01*
X142121583Y-66485014D01*
X142150454Y-66524962D01*
X142201697Y-66572110D01*
X142263266Y-66611040D01*
X142307739Y-66630379D01*
X142354854Y-66650868D01*
X142354871Y-66650874D01*
X142418291Y-66669095D01*
X142450005Y-66678207D01*
X142545141Y-66694776D01*
X142545146Y-66694776D01*
X142545150Y-66694777D01*
X142572676Y-66696577D01*
X142614065Y-66699284D01*
X142622095Y-66703243D01*
X142625000Y-66710959D01*
X142625000Y-66939214D01*
X142621573Y-66947487D01*
X142614250Y-66950875D01*
X142520825Y-66958482D01*
X142520822Y-66958482D01*
X142356237Y-66998645D01*
X142356230Y-66998647D01*
X142229696Y-67058515D01*
X142146698Y-67129429D01*
X142146697Y-67129430D01*
X142109451Y-67195695D01*
X142102410Y-67201228D01*
X142093519Y-67200161D01*
X142090625Y-67197866D01*
X142027922Y-67129429D01*
X141756240Y-66832902D01*
X141753179Y-66824489D01*
X141756240Y-66817097D01*
X142089506Y-66453354D01*
X142097622Y-66449570D01*
X142106037Y-66452632D01*
G37*
%TD.AperFunction*%
%TD*%
%TA.AperFunction,Conductor*%
%TO.N,Net-(U1B-+)*%
G36*
X142906480Y-66449838D02*
G01*
X142909374Y-66452133D01*
X143243758Y-66817096D01*
X143246820Y-66825511D01*
X143243758Y-66832904D01*
X142910493Y-67196644D01*
X142902377Y-67200429D01*
X142893962Y-67197367D01*
X142891187Y-67193519D01*
X142878418Y-67164987D01*
X142849548Y-67125041D01*
X142849546Y-67125038D01*
X142819831Y-67097698D01*
X142798305Y-67077891D01*
X142780139Y-67066405D01*
X142736735Y-67038960D01*
X142726250Y-67034400D01*
X142645145Y-66999131D01*
X142645128Y-66999125D01*
X142549998Y-66971793D01*
X142454849Y-66955222D01*
X142385936Y-66950715D01*
X142377904Y-66946755D01*
X142375000Y-66939040D01*
X142375000Y-66710785D01*
X142378427Y-66702512D01*
X142385749Y-66699124D01*
X142479179Y-66691517D01*
X142643769Y-66651352D01*
X142770303Y-66591484D01*
X142853302Y-66520571D01*
X142890549Y-66454302D01*
X142897589Y-66448771D01*
X142906480Y-66449838D01*
G37*
%TD.AperFunction*%
%TD*%
%TA.AperFunction,Conductor*%
%TO.N,Net-(U1B-+)*%
G36*
X141840013Y-66435823D02*
G01*
X141940148Y-66462056D01*
X141941604Y-66462543D01*
X142009703Y-66490428D01*
X142027997Y-66497919D01*
X142029682Y-66498774D01*
X142159793Y-66578617D01*
X142159997Y-66578745D01*
X142249315Y-66636118D01*
X142368062Y-66682001D01*
X142446258Y-66695250D01*
X142531192Y-66699450D01*
X142539286Y-66703282D01*
X142542314Y-66711136D01*
X142542314Y-66939133D01*
X142538887Y-66947406D01*
X142531477Y-66950801D01*
X142407958Y-66959938D01*
X142407948Y-66959939D01*
X142307881Y-66986614D01*
X142307880Y-66986615D01*
X142229429Y-67025307D01*
X142229426Y-67025308D01*
X142186427Y-67053762D01*
X142159899Y-67071318D01*
X142159881Y-67071329D01*
X142159880Y-67071331D01*
X142125465Y-67094952D01*
X142124530Y-67095532D01*
X141998236Y-67165752D01*
X141996568Y-67166514D01*
X141921894Y-67193819D01*
X141920709Y-67194183D01*
X141839920Y-67214347D01*
X141831064Y-67213025D01*
X141825735Y-67205828D01*
X141825617Y-67205306D01*
X141776185Y-66959939D01*
X141749465Y-66827308D01*
X141749465Y-66822691D01*
X141825589Y-66444831D01*
X141830582Y-66437400D01*
X141839369Y-66435674D01*
X141840013Y-66435823D01*
G37*
%TD.AperFunction*%
%TD*%
M02*
